G04 Layer_Color=2752767*
%FSLAX25Y25*%
%MOIN*%
G70*
G01*
G75*
%ADD22C,0.00200*%
%ADD23C,0.00267*%
D22*
X131700Y59200D02*
Y60800D01*
X133300D01*
Y59200D01*
X131700D01*
X121700D02*
Y60800D01*
X123300D01*
Y59200D01*
X121700D01*
X111700D02*
Y60800D01*
X113300D01*
Y59200D01*
X111700D01*
X134200Y14200D02*
Y15800D01*
X135800D01*
Y14200D01*
X134200D01*
Y34200D02*
Y35800D01*
X135800D01*
Y34200D01*
X134200D01*
X161700D02*
Y35800D01*
X163300D01*
Y34200D01*
X161700D01*
Y14200D02*
Y15800D01*
X163300D01*
Y14200D01*
X161700D01*
X186700Y24200D02*
Y25800D01*
X188300D01*
Y24200D01*
X186700D01*
Y34200D02*
Y35800D01*
X188300D01*
Y34200D01*
X186700D01*
X14200Y41700D02*
Y43300D01*
X15800D01*
Y41700D01*
X14200D01*
Y31700D02*
Y33300D01*
X15800D01*
Y31700D01*
X14200D01*
X54200Y34200D02*
Y35800D01*
X55800D01*
Y34200D01*
X54200D01*
Y14200D02*
Y15800D01*
X55800D01*
Y14200D01*
X54200D01*
X81700D02*
Y15800D01*
X83300D01*
Y14200D01*
X81700D01*
Y34200D02*
Y35800D01*
X83300D01*
Y34200D01*
X81700D01*
X76700Y59200D02*
Y60800D01*
X78300D01*
Y59200D01*
X76700D01*
X66700D02*
Y60800D01*
X68300D01*
Y59200D01*
X66700D01*
X56700D02*
Y60800D01*
X58300D01*
Y59200D01*
X56700D01*
X21700D02*
Y60800D01*
X23300D01*
Y59200D01*
X21700D01*
X41700D02*
Y60800D01*
X43300D01*
Y59200D01*
X41700D01*
X94200D02*
Y60800D01*
X95800D01*
Y59200D01*
X94200D01*
Y29200D02*
Y30800D01*
X95800D01*
Y29200D01*
X94200D01*
D23*
X28300Y10000D02*
G03*
X28300Y10000I-800J0D01*
G01*
X162300Y59000D02*
G03*
X162300Y59000I-800J0D01*
G01*
M02*
