G04 Layer_Color=16711935*
%FSLAX25Y25*%
%MOIN*%
G70*
G01*
G75*
G04:AMPARAMS|DCode=17|XSize=88mil|YSize=108mil|CornerRadius=24mil|HoleSize=0mil|Usage=FLASHONLY|Rotation=0.000|XOffset=0mil|YOffset=0mil|HoleType=Round|Shape=RoundedRectangle|*
%AMROUNDEDRECTD17*
21,1,0.08800,0.06000,0,0,0.0*
21,1,0.04000,0.10800,0,0,0.0*
1,1,0.04800,0.02000,-0.03000*
1,1,0.04800,-0.02000,-0.03000*
1,1,0.04800,-0.02000,0.03000*
1,1,0.04800,0.02000,0.03000*
%
%ADD17ROUNDEDRECTD17*%
G04:AMPARAMS|DCode=18|XSize=88mil|YSize=88mil|CornerRadius=24mil|HoleSize=0mil|Usage=FLASHONLY|Rotation=270.000|XOffset=0mil|YOffset=0mil|HoleType=Round|Shape=RoundedRectangle|*
%AMROUNDEDRECTD18*
21,1,0.08800,0.04000,0,0,270.0*
21,1,0.04000,0.08800,0,0,270.0*
1,1,0.04800,-0.02000,-0.02000*
1,1,0.04800,-0.02000,0.02000*
1,1,0.04800,0.02000,0.02000*
1,1,0.04800,0.02000,-0.02000*
%
%ADD18ROUNDEDRECTD18*%
G04:AMPARAMS|DCode=19|XSize=78mil|YSize=78mil|CornerRadius=21.5mil|HoleSize=0mil|Usage=FLASHONLY|Rotation=90.000|XOffset=0mil|YOffset=0mil|HoleType=Round|Shape=RoundedRectangle|*
%AMROUNDEDRECTD19*
21,1,0.07800,0.03500,0,0,90.0*
21,1,0.03500,0.07800,0,0,90.0*
1,1,0.04300,0.01750,0.01750*
1,1,0.04300,0.01750,-0.01750*
1,1,0.04300,-0.01750,-0.01750*
1,1,0.04300,-0.01750,0.01750*
%
%ADD19ROUNDEDRECTD19*%
G04:AMPARAMS|DCode=20|XSize=88mil|YSize=88mil|CornerRadius=24mil|HoleSize=0mil|Usage=FLASHONLY|Rotation=180.000|XOffset=0mil|YOffset=0mil|HoleType=Round|Shape=RoundedRectangle|*
%AMROUNDEDRECTD20*
21,1,0.08800,0.04000,0,0,180.0*
21,1,0.04000,0.08800,0,0,180.0*
1,1,0.04800,-0.02000,0.02000*
1,1,0.04800,0.02000,0.02000*
1,1,0.04800,0.02000,-0.02000*
1,1,0.04800,-0.02000,-0.02000*
%
%ADD20ROUNDEDRECTD20*%
%ADD21P,0.22173X8X22.5*%
D17*
X132500Y60000D02*
D03*
X122500D02*
D03*
X112500D02*
D03*
X77500D02*
D03*
X67500D02*
D03*
X57500D02*
D03*
D18*
X135000Y15000D02*
D03*
Y35000D02*
D03*
X162500D02*
D03*
Y15000D02*
D03*
X55000Y35000D02*
D03*
Y15000D02*
D03*
X82500D02*
D03*
Y35000D02*
D03*
X95000Y60000D02*
D03*
Y30000D02*
D03*
D19*
X187500Y25000D02*
D03*
Y35000D02*
D03*
X15000Y42500D02*
D03*
Y32500D02*
D03*
D20*
X22500Y60000D02*
D03*
X42500D02*
D03*
D21*
X27500Y10000D02*
D03*
X161500Y59000D02*
D03*
M02*
