M48
;Layer_Color=9474304
;FILE_FORMAT=2:5
INCH,LZ
;TYPE=PLATED
T1F00S00C0.02100
T2F00S00C0.03000
T3F00S00C0.11811
%
T01
X0081Y0045
X0113Y0025
X0141Y00365
X0151
X0161
X0251Y00495
X0261
X0272
X0302
X03755Y0033
X04135Y00405
X04475Y00505
X05595Y00515
X05695
Y00415
Y00315
Y00215
X05595
Y00315
Y00415
Y00615
X05695
Y00715
Y00815
Y00915
Y01015
Y01115
X05595
Y01015
Y00915
Y00815
Y00715
Y0139
X05695
Y0149
Y0159
Y0169
Y0179
Y0189
Y0199
Y0209
X05595
Y0199
Y0189
Y0179
Y0169
Y0159
Y0149
X05385Y01535
Y01645
Y01745
Y01235
X04585
X0447
X04235Y0123
X04135
X04035
Y0084
X04135
X04235
X04135Y00705
X04475
Y00605
X0447Y00935
X04585
X03755Y0112
X0342Y0103
Y0084
Y0064
Y0123
X0309
X0289
X0318Y01665
Y01765
Y01875
X0168Y01975
X01315Y01955
X01015
X00825Y02005
X00725
X00625
X0081Y0104
Y0084
Y0065
X0141
X0151
X0161
X0184Y0074
X0196
Y0104
X0184
X0161
X0151
X0141
X0113
X00475
X00275
X00145Y0321
Y0341
Y0361
X0049Y0351
X00735Y0353
Y0323
Y03125
Y03025
X0087Y02775
Y0265
X01015
X01165Y0275
X0128
X014
X01625
X01725Y026
X01525
X014Y0245
X0128
X01165Y0255
Y0221
X01265
X01365
X0168Y02175
X0193
X0187Y02965
X01185Y0291
X0057Y02775
Y0265
X00682Y02425
X00816
X00883Y0228
X00749
X00615
X0158Y03555
X0214Y035
X0234
X02515Y0342
X02615
X02715
X0286Y03125
Y0299
X0256
Y03125
X02355
X02255
X02155
X0319Y0318
Y0288
Y0277
Y0267
X0318Y02175
X0253
X0345Y0333
X0365
X03965
Y0313
X0429Y0333
X04565
X04665
X04765
Y0313
Y0292
X04665
X04565
X04605Y0265
Y0245
X0429Y0254
X04935Y0262
X0516
Y0292
X04935
X05065Y0313
Y03355
X05165
X05265
X05595Y0334
X05695
Y0324
Y0314
Y0304
Y0294
Y0284
Y0274
Y0264
X05595
Y0274
Y0284
Y0294
Y0304
Y0314
Y0324
Y0344
X05695
Y0354
X05595
X0537Y029
Y028
Y0269
Y0239
X05595Y0229
X05695
Y0219
X05595
X0445Y0376
X0425
X0405
X0385
X0365
X0345
X0257Y03755
X02355
X0214
X0187
X0158
X01185Y0381
X00865Y03775
X00765
X00665
X0049Y0381
X00145
T02
X04875Y01135
Y01235
X0227Y0104
Y0094
X02865Y02075
X003Y0218
Y0228
X02865Y02175
X03065Y0346
Y0356
X0504Y0239
Y0229
T03
X00175Y00305
X05265Y003
X0018Y02925
X0368Y02705
X04745Y03755
M30
