%FSLAX25Y25*%
%MOIN*%
G70*
G01*
G75*
G04 Layer_Physical_Order=2*
G04 Layer_Color=16711680*
G04:AMPARAMS|DCode=10|XSize=100mil|YSize=100mil|CornerRadius=25mil|HoleSize=0mil|Usage=FLASHONLY|Rotation=0.000|XOffset=0mil|YOffset=0mil|HoleType=Round|Shape=RoundedRectangle|*
%AMROUNDEDRECTD10*
21,1,0.10000,0.05000,0,0,0.0*
21,1,0.05000,0.10000,0,0,0.0*
1,1,0.05000,0.02500,-0.02500*
1,1,0.05000,-0.02500,-0.02500*
1,1,0.05000,-0.02500,0.02500*
1,1,0.05000,0.02500,0.02500*
%
%ADD10ROUNDEDRECTD10*%
%ADD11C,0.08000*%
G04:AMPARAMS|DCode=12|XSize=80mil|YSize=100mil|CornerRadius=20mil|HoleSize=0mil|Usage=FLASHONLY|Rotation=0.000|XOffset=0mil|YOffset=0mil|HoleType=Round|Shape=RoundedRectangle|*
%AMROUNDEDRECTD12*
21,1,0.08000,0.06000,0,0,0.0*
21,1,0.04000,0.10000,0,0,0.0*
1,1,0.04000,0.02000,-0.03000*
1,1,0.04000,-0.02000,-0.03000*
1,1,0.04000,-0.02000,0.03000*
1,1,0.04000,0.02000,0.03000*
%
%ADD12ROUNDEDRECTD12*%
%ADD13C,0.07000*%
%ADD14C,0.06000*%
%ADD15C,0.12000*%
G04:AMPARAMS|DCode=16|XSize=100mil|YSize=100mil|CornerRadius=25mil|HoleSize=0mil|Usage=FLASHONLY|Rotation=90.000|XOffset=0mil|YOffset=0mil|HoleType=Round|Shape=RoundedRectangle|*
%AMROUNDEDRECTD16*
21,1,0.10000,0.05000,0,0,90.0*
21,1,0.05000,0.10000,0,0,90.0*
1,1,0.05000,0.02500,0.02500*
1,1,0.05000,0.02500,-0.02500*
1,1,0.05000,-0.02500,-0.02500*
1,1,0.05000,-0.02500,0.02500*
%
%ADD16ROUNDEDRECTD16*%
G04:AMPARAMS|DCode=17|XSize=90mil|YSize=110mil|CornerRadius=22.5mil|HoleSize=0mil|Usage=FLASHONLY|Rotation=0.000|XOffset=0mil|YOffset=0mil|HoleType=Round|Shape=RoundedRectangle|*
%AMROUNDEDRECTD17*
21,1,0.09000,0.06500,0,0,0.0*
21,1,0.04500,0.11000,0,0,0.0*
1,1,0.04500,0.02250,-0.03250*
1,1,0.04500,-0.02250,-0.03250*
1,1,0.04500,-0.02250,0.03250*
1,1,0.04500,0.02250,0.03250*
%
%ADD17ROUNDEDRECTD17*%
G04:AMPARAMS|DCode=18|XSize=80mil|YSize=80mil|CornerRadius=20mil|HoleSize=0mil|Usage=FLASHONLY|Rotation=90.000|XOffset=0mil|YOffset=0mil|HoleType=Round|Shape=RoundedRectangle|*
%AMROUNDEDRECTD18*
21,1,0.08000,0.04000,0,0,90.0*
21,1,0.04000,0.08000,0,0,90.0*
1,1,0.04000,0.02000,0.02000*
1,1,0.04000,0.02000,-0.02000*
1,1,0.04000,-0.02000,-0.02000*
1,1,0.04000,-0.02000,0.02000*
%
%ADD18ROUNDEDRECTD18*%
G04:AMPARAMS|DCode=19|XSize=80mil|YSize=80mil|CornerRadius=20mil|HoleSize=0mil|Usage=FLASHONLY|Rotation=0.000|XOffset=0mil|YOffset=0mil|HoleType=Round|Shape=RoundedRectangle|*
%AMROUNDEDRECTD19*
21,1,0.08000,0.04000,0,0,0.0*
21,1,0.04000,0.08000,0,0,0.0*
1,1,0.04000,0.02000,-0.02000*
1,1,0.04000,-0.02000,-0.02000*
1,1,0.04000,-0.02000,0.02000*
1,1,0.04000,0.02000,0.02000*
%
%ADD19ROUNDEDRECTD19*%
G04:AMPARAMS|DCode=20|XSize=236.22mil|YSize=236.22mil|CornerRadius=0mil|HoleSize=0mil|Usage=FLASHONLY|Rotation=0.000|XOffset=0mil|YOffset=0mil|HoleType=Round|Shape=Octagon|*
%AMOCTAGOND20*
4,1,8,0.11811,-0.05906,0.11811,0.05906,0.05906,0.11811,-0.05906,0.11811,-0.11811,0.05906,-0.11811,-0.05906,-0.05906,-0.11811,0.05906,-0.11811,0.11811,-0.05906,0.0*
%
%ADD20OCTAGOND20*%

%ADD21C,0.05000*%
%ADD22C,0.04000*%
%ADD23C,0.06000*%
G36*
X119012Y230101D02*
X119198Y227913D01*
X119309Y227292D01*
X119445Y226726D01*
X119606Y226214D01*
X119791Y225756D01*
X120002Y225352D01*
X120237Y225003D01*
X112764D01*
X112998Y225352D01*
X113209Y225756D01*
X113394Y226214D01*
X113555Y226726D01*
X113691Y227292D01*
X113802Y227913D01*
X113951Y229318D01*
X113988Y230101D01*
X114000Y230939D01*
X119000D01*
X119012Y230101D01*
D02*
G37*
G36*
X76444Y355743D02*
X76589Y355692D01*
X76792Y355647D01*
X77052Y355608D01*
X77745Y355548D01*
X79217Y355503D01*
X79822Y355500D01*
Y350500D01*
X79217Y350497D01*
X76792Y350353D01*
X76589Y350308D01*
X76444Y350257D01*
X76357Y350200D01*
Y355800D01*
X76444Y355743D01*
D02*
G37*
G36*
X321560Y339550D02*
X321740Y338700D01*
X322040Y337950D01*
X322460Y337300D01*
X323000Y336750D01*
X323660Y336300D01*
X324440Y335950D01*
X325340Y335700D01*
X326360Y335550D01*
X327500Y335500D01*
Y330500D01*
X326360Y330450D01*
X325340Y330300D01*
X324440Y330050D01*
X323660Y329700D01*
X323000Y329250D01*
X322460Y328700D01*
X322040Y328050D01*
X321740Y327300D01*
X321560Y326450D01*
X321500Y325500D01*
X316500Y333000D01*
X321500Y340500D01*
X321560Y339550D01*
D02*
G37*
G36*
X139012Y229341D02*
X139111Y228128D01*
X139198Y227575D01*
X139309Y227058D01*
X139445Y226576D01*
X139606Y226129D01*
X139791Y225718D01*
X140002Y225343D01*
X140236Y225003D01*
X132764D01*
X132998Y225343D01*
X133209Y225718D01*
X133394Y226129D01*
X133555Y226576D01*
X133691Y227058D01*
X133802Y227575D01*
X133889Y228128D01*
X133988Y229341D01*
X134000Y230000D01*
X139000D01*
X139012Y229341D01*
D02*
G37*
G36*
X325000Y353500D02*
X324335Y353440D01*
X323740Y353260D01*
X323215Y352960D01*
X322760Y352540D01*
X322375Y352000D01*
X322060Y351340D01*
X321815Y350560D01*
X321640Y349660D01*
X321535Y348640D01*
X321500Y347500D01*
X316500D01*
X316450Y348640D01*
X316300Y349660D01*
X316050Y350560D01*
X315700Y351340D01*
X315250Y352000D01*
X314700Y352540D01*
X314050Y352960D01*
X313300Y353260D01*
X312450Y353440D01*
X311500Y353500D01*
X319000Y358500D01*
X325000Y353500D01*
D02*
G37*
G36*
X188715Y213300D02*
X188356Y213623D01*
X187943Y213912D01*
X187478Y214167D01*
X186960Y214388D01*
X186390Y214575D01*
X185766Y214728D01*
X185090Y214847D01*
X184361Y214932D01*
X182746Y215000D01*
Y220000D01*
X183580Y220017D01*
X185090Y220153D01*
X185766Y220272D01*
X186390Y220425D01*
X186960Y220612D01*
X187478Y220833D01*
X187943Y221088D01*
X188356Y221377D01*
X188715Y221700D01*
Y213300D01*
D02*
G37*
G36*
X45982Y348375D02*
X45847Y348494D01*
X45662Y348600D01*
X45425Y348694D01*
X45138Y348775D01*
X44799Y348844D01*
X44408Y348900D01*
X43475Y348975D01*
X42336Y349000D01*
Y353000D01*
X42931Y353006D01*
X44408Y353100D01*
X44799Y353156D01*
X45138Y353225D01*
X45425Y353306D01*
X45662Y353400D01*
X45847Y353506D01*
X45982Y353625D01*
Y348375D01*
D02*
G37*
G36*
X211501Y347550D02*
X211389Y347636D01*
X211232Y347712D01*
X211030Y347779D01*
X210781Y347838D01*
X210487Y347887D01*
X209761Y347959D01*
X208851Y347995D01*
X208328Y348000D01*
Y352000D01*
X208851Y352005D01*
X210487Y352113D01*
X210781Y352162D01*
X211030Y352221D01*
X211232Y352288D01*
X211389Y352364D01*
X211501Y352450D01*
Y347550D01*
D02*
G37*
G36*
X170519Y213563D02*
X169848Y213447D01*
X169182Y213277D01*
X168519Y213053D01*
X167861Y212774D01*
X167206Y212441D01*
X166556Y212053D01*
X165910Y211611D01*
X165267Y211115D01*
X164629Y210564D01*
X163995Y209959D01*
X160459Y213495D01*
X161064Y214129D01*
X162111Y215410D01*
X162553Y216056D01*
X162941Y216706D01*
X163274Y217361D01*
X163553Y218019D01*
X163777Y218682D01*
X163947Y219348D01*
X164063Y220019D01*
X170519Y213563D01*
D02*
G37*
G36*
X127960Y241000D02*
X127858Y240979D01*
X127719Y240912D01*
X127544Y240800D01*
X127332Y240644D01*
X126800Y240196D01*
X125727Y239188D01*
X125297Y238761D01*
X121762Y242297D01*
X122188Y242727D01*
X123801Y244544D01*
X123912Y244719D01*
X123979Y244858D01*
X124000Y244960D01*
X127960Y241000D01*
D02*
G37*
G36*
X85827Y246900D02*
X86249Y246501D01*
X86712Y246150D01*
X87216Y245845D01*
X87762Y245586D01*
X88348Y245375D01*
X88976Y245211D01*
X89645Y245094D01*
X90356Y245023D01*
X91107Y245000D01*
Y240000D01*
X90356Y239977D01*
X89645Y239906D01*
X88976Y239789D01*
X88348Y239625D01*
X87762Y239413D01*
X87216Y239155D01*
X86712Y238850D01*
X86249Y238498D01*
X85827Y238100D01*
X85446Y237654D01*
Y247346D01*
X85827Y246900D01*
D02*
G37*
G36*
X321503Y323717D02*
X321647Y321292D01*
X321692Y321089D01*
X321743Y320944D01*
X321800Y320857D01*
X316200D01*
X316257Y320944D01*
X316308Y321089D01*
X316353Y321292D01*
X316392Y321552D01*
X316452Y322245D01*
X316497Y323717D01*
X316500Y324323D01*
X321500D01*
X321503Y323717D01*
D02*
G37*
G36*
X238111Y314864D02*
X238268Y314788D01*
X238470Y314721D01*
X238719Y314662D01*
X239013Y314613D01*
X239739Y314541D01*
X240649Y314505D01*
X241172Y314500D01*
Y310500D01*
X240649Y310495D01*
X239013Y310387D01*
X238719Y310338D01*
X238470Y310279D01*
X238268Y310212D01*
X238111Y310136D01*
X238000Y310050D01*
Y314950D01*
X238111Y314864D01*
D02*
G37*
G36*
X56575Y352746D02*
X52597Y349250D01*
X51155Y354370D01*
X51337Y354289D01*
X51547Y354262D01*
X51782Y354290D01*
X52044Y354372D01*
X52333Y354508D01*
X52648Y354699D01*
X52990Y354943D01*
X53359Y355243D01*
X54176Y356004D01*
X56575Y352746D01*
D02*
G37*
G36*
X216004Y355149D02*
X216112Y353513D01*
X216162Y353219D01*
X216220Y352970D01*
X216288Y352768D01*
X216365Y352611D01*
X216450Y352500D01*
X211550D01*
X211635Y352611D01*
X211712Y352768D01*
X211779Y352970D01*
X211838Y353219D01*
X211888Y353513D01*
X211960Y354239D01*
X211996Y355149D01*
X212000Y355672D01*
X216000D01*
X216004Y355149D01*
D02*
G37*
G36*
X253143Y309700D02*
X252964Y309852D01*
X252740Y309988D01*
X252471Y310108D01*
X252158Y310212D01*
X251800Y310300D01*
X251396Y310372D01*
X250456Y310468D01*
X249918Y310492D01*
X249336Y310500D01*
Y314500D01*
X249918Y314508D01*
X251396Y314628D01*
X251800Y314700D01*
X252158Y314788D01*
X252471Y314892D01*
X252740Y315012D01*
X252964Y315148D01*
X253143Y315300D01*
Y309700D01*
D02*
G37*
G36*
X256877Y212856D02*
X256588Y212443D01*
X256333Y211978D01*
X256112Y211460D01*
X255925Y210890D01*
X255772Y210266D01*
X255653Y209590D01*
X255568Y208861D01*
X255500Y207246D01*
X250500D01*
X250483Y208080D01*
X250347Y209590D01*
X250228Y210266D01*
X250075Y210890D01*
X249888Y211460D01*
X249667Y211978D01*
X249412Y212443D01*
X249123Y212856D01*
X248800Y213215D01*
X257200D01*
X256877Y212856D01*
D02*
G37*
G36*
X274648Y337351D02*
X274407Y337091D01*
X274195Y336803D01*
X274010Y336487D01*
X273854Y336143D01*
X273727Y335770D01*
X273628Y335370D01*
X273557Y334941D01*
X273514Y334485D01*
X273500Y334000D01*
X269500D01*
X269486Y334485D01*
X269443Y334941D01*
X269372Y335370D01*
X269273Y335770D01*
X269145Y336143D01*
X268990Y336487D01*
X268805Y336803D01*
X268593Y337091D01*
X268352Y337351D01*
X268082Y337582D01*
X274918D01*
X274648Y337351D01*
D02*
G37*
G36*
X285458Y119764D02*
X285427Y119999D01*
X285327Y120209D01*
X285156Y120394D01*
X284916Y120555D01*
X284605Y120691D01*
X284224Y120802D01*
X283773Y120889D01*
X283252Y120950D01*
X282661Y120988D01*
X282000Y121000D01*
Y126000D01*
X282623Y126004D01*
X284855Y126150D01*
X285125Y126205D01*
X285336Y126267D01*
X285489Y126339D01*
X285582Y126418D01*
X285458Y119764D01*
D02*
G37*
G36*
X258648Y309464D02*
X258512Y309240D01*
X258392Y308971D01*
X258288Y308658D01*
X258200Y308299D01*
X258128Y307896D01*
X258032Y306956D01*
X258008Y306418D01*
X258000Y305836D01*
X254000D01*
X253992Y306418D01*
X253872Y307896D01*
X253800Y308299D01*
X253712Y308658D01*
X253608Y308971D01*
X253488Y309240D01*
X253352Y309464D01*
X253200Y309643D01*
X258800D01*
X258648Y309464D01*
D02*
G37*
G36*
X19150Y344837D02*
X19553Y344451D01*
X19975Y344111D01*
X20418Y343816D01*
X20881Y343567D01*
X21365Y343363D01*
X21868Y343204D01*
X22392Y343091D01*
X22936Y343023D01*
X23500Y343000D01*
Y339000D01*
X22936Y338977D01*
X22392Y338909D01*
X21868Y338796D01*
X21365Y338637D01*
X20881Y338433D01*
X20418Y338184D01*
X19975Y337889D01*
X19553Y337549D01*
X19150Y337163D01*
X18768Y336732D01*
Y345268D01*
X19150Y344837D01*
D02*
G37*
G36*
X171352Y221002D02*
X171756Y220791D01*
X172214Y220606D01*
X172726Y220445D01*
X173293Y220309D01*
X173913Y220198D01*
X175318Y220050D01*
X176101Y220012D01*
X176939Y220000D01*
Y215000D01*
X176101Y214988D01*
X173913Y214802D01*
X173293Y214691D01*
X172726Y214555D01*
X172214Y214394D01*
X171756Y214209D01*
X171352Y213998D01*
X171003Y213763D01*
Y221236D01*
X171352Y221002D01*
D02*
G37*
G36*
X129495Y216333D02*
X129391Y216248D01*
X129299Y216104D01*
X129220Y215904D01*
X129153Y215647D01*
X129098Y215332D01*
X129055Y214960D01*
X129006Y214044D01*
X129000Y213500D01*
X124000D01*
X123994Y214044D01*
X123902Y215332D01*
X123847Y215647D01*
X123780Y215904D01*
X123700Y216104D01*
X123609Y216248D01*
X123505Y216333D01*
X123389Y216362D01*
X129611D01*
X129495Y216333D01*
D02*
G37*
G36*
X264907Y337540D02*
X264611Y337073D01*
X264351Y336597D01*
X264125Y336111D01*
X263934Y335615D01*
X263778Y335110D01*
X263656Y334596D01*
X263569Y334072D01*
X263517Y333538D01*
X263500Y332995D01*
X259500D01*
X259483Y333538D01*
X259431Y334072D01*
X259344Y334596D01*
X259222Y335110D01*
X259066Y335615D01*
X258875Y336111D01*
X258649Y336597D01*
X258389Y337073D01*
X258093Y337540D01*
X257764Y337997D01*
X265236D01*
X264907Y337540D01*
D02*
G37*
G36*
X288648Y309464D02*
X288512Y309240D01*
X288392Y308971D01*
X288288Y308658D01*
X288200Y308299D01*
X288128Y307896D01*
X288032Y306956D01*
X288008Y306418D01*
X288000Y305836D01*
X284000D01*
X283992Y306418D01*
X283872Y307896D01*
X283800Y308299D01*
X283712Y308658D01*
X283608Y308971D01*
X283488Y309240D01*
X283352Y309464D01*
X283200Y309643D01*
X288800D01*
X288648Y309464D01*
D02*
G37*
G36*
X255500Y164000D02*
X250500Y156500D01*
X250440Y157450D01*
X250260Y158300D01*
X249960Y159050D01*
X249540Y159700D01*
X249000Y160250D01*
X248340Y160700D01*
X247560Y161050D01*
X246660Y161300D01*
X245640Y161450D01*
X244500Y161500D01*
Y166500D01*
X245640Y166550D01*
X246660Y166700D01*
X247560Y166950D01*
X248340Y167300D01*
X249000Y167750D01*
X249540Y168300D01*
X249960Y168950D01*
X250260Y169700D01*
X250440Y170550D01*
X250500Y171500D01*
X255500Y164000D01*
D02*
G37*
G36*
X341997Y329263D02*
X341648Y329498D01*
X341244Y329709D01*
X340786Y329894D01*
X340274Y330055D01*
X339707Y330191D01*
X339087Y330302D01*
X337682Y330451D01*
X336899Y330488D01*
X336061Y330500D01*
Y335500D01*
X336899Y335512D01*
X339087Y335698D01*
X339707Y335809D01*
X340274Y335945D01*
X340786Y336106D01*
X341244Y336291D01*
X341648Y336502D01*
X341997Y336736D01*
Y329263D01*
D02*
G37*
G36*
X315143Y214700D02*
X315056Y214757D01*
X314911Y214808D01*
X314708Y214853D01*
X314448Y214892D01*
X313755Y214952D01*
X312283Y214997D01*
X311678Y215000D01*
Y220000D01*
X312283Y220003D01*
X314708Y220147D01*
X314911Y220192D01*
X315056Y220243D01*
X315143Y220300D01*
Y214700D01*
D02*
G37*
G36*
X269159Y361936D02*
X270060Y361215D01*
X270997Y360579D01*
X271968Y360027D01*
X272975Y359561D01*
X274017Y359179D01*
X275094Y358882D01*
X276206Y358670D01*
X277353Y358542D01*
X278536Y358500D01*
X280000Y353500D01*
X278860Y353440D01*
X277840Y353260D01*
X276940Y352960D01*
X276160Y352540D01*
X275500Y352000D01*
X274960Y351340D01*
X274540Y350560D01*
X274240Y349660D01*
X274169Y349256D01*
X274198Y348913D01*
X274309Y348292D01*
X274445Y347726D01*
X274606Y347214D01*
X274791Y346756D01*
X275002Y346352D01*
X275237Y346003D01*
X267763D01*
X267998Y346352D01*
X268209Y346756D01*
X268394Y347214D01*
X268555Y347726D01*
X268691Y348292D01*
X268802Y348913D01*
X268945Y350263D01*
X268830Y351294D01*
X268618Y352406D01*
X268321Y353483D01*
X267939Y354525D01*
X267473Y355532D01*
X266921Y356503D01*
X266285Y357440D01*
X265564Y358341D01*
X264757Y359207D01*
X268293Y362743D01*
X269159Y361936D01*
D02*
G37*
G36*
X253517Y350462D02*
X253570Y349928D01*
X253656Y349404D01*
X253778Y348890D01*
X253934Y348385D01*
X254125Y347889D01*
X254351Y347403D01*
X254611Y346927D01*
X254907Y346460D01*
X255237Y346003D01*
X247763D01*
X248093Y346460D01*
X248389Y346927D01*
X248649Y347403D01*
X248875Y347889D01*
X249066Y348385D01*
X249222Y348890D01*
X249344Y349404D01*
X249430Y349928D01*
X249483Y350462D01*
X249500Y351005D01*
X253500D01*
X253517Y350462D01*
D02*
G37*
G36*
X258008Y305082D02*
X258128Y303604D01*
X258200Y303201D01*
X258288Y302842D01*
X258392Y302529D01*
X258512Y302260D01*
X258648Y302036D01*
X258800Y301857D01*
X253200D01*
X253352Y302036D01*
X253488Y302260D01*
X253608Y302529D01*
X253712Y302842D01*
X253800Y303201D01*
X253872Y303604D01*
X253968Y304544D01*
X253992Y305082D01*
X254000Y305664D01*
X258000D01*
X258008Y305082D01*
D02*
G37*
G36*
X288008D02*
X288128Y303604D01*
X288200Y303201D01*
X288288Y302842D01*
X288392Y302529D01*
X288512Y302260D01*
X288648Y302036D01*
X288800Y301857D01*
X283200D01*
X283352Y302036D01*
X283488Y302260D01*
X283608Y302529D01*
X283712Y302842D01*
X283800Y303201D01*
X283872Y303604D01*
X283968Y304544D01*
X283992Y305082D01*
X284000Y305664D01*
X288000D01*
X288008Y305082D01*
D02*
G37*
G36*
X257645Y221377D02*
X258057Y221088D01*
X258522Y220833D01*
X259040Y220612D01*
X259610Y220425D01*
X260234Y220272D01*
X260910Y220153D01*
X261639Y220068D01*
X263254Y220000D01*
Y215000D01*
X262420Y214983D01*
X260910Y214847D01*
X260234Y214728D01*
X259610Y214575D01*
X259040Y214388D01*
X258522Y214167D01*
X258057Y213912D01*
X257645Y213623D01*
X257285Y213300D01*
Y221700D01*
X257645Y221377D01*
D02*
G37*
G36*
X189008Y302582D02*
X189128Y301104D01*
X189200Y300700D01*
X189288Y300342D01*
X189392Y300029D01*
X189512Y299760D01*
X189648Y299536D01*
X189800Y299357D01*
X184200D01*
X184352Y299536D01*
X184488Y299760D01*
X184608Y300029D01*
X184712Y300342D01*
X184800Y300700D01*
X184872Y301104D01*
X184968Y302044D01*
X184992Y302582D01*
X185000Y303164D01*
X189000D01*
X189008Y302582D01*
D02*
G37*
G36*
X89944Y267743D02*
X90089Y267692D01*
X90292Y267647D01*
X90552Y267608D01*
X91246Y267548D01*
X92717Y267503D01*
X93322Y267500D01*
Y262500D01*
X92717Y262497D01*
X90292Y262353D01*
X90089Y262308D01*
X89944Y262257D01*
X89857Y262200D01*
Y267800D01*
X89944Y267743D01*
D02*
G37*
G36*
X288006Y318569D02*
X288100Y317092D01*
X288156Y316702D01*
X288225Y316362D01*
X288306Y316075D01*
X288400Y315838D01*
X288506Y315652D01*
X288625Y315518D01*
X283375D01*
X283494Y315652D01*
X283600Y315838D01*
X283694Y316075D01*
X283775Y316362D01*
X283844Y316702D01*
X283900Y317092D01*
X283975Y318025D01*
X284000Y319164D01*
X288000D01*
X288006Y318569D01*
D02*
G37*
G36*
X61021Y264858D02*
X61088Y264719D01*
X61199Y264544D01*
X61356Y264332D01*
X61804Y263800D01*
X62812Y262727D01*
X63239Y262297D01*
X59703Y258762D01*
X59273Y259188D01*
X57456Y260801D01*
X57281Y260912D01*
X57142Y260979D01*
X57040Y261000D01*
X61000Y264960D01*
X61021Y264858D01*
D02*
G37*
G36*
X233000Y310050D02*
X232889Y310136D01*
X232732Y310212D01*
X232530Y310279D01*
X232281Y310338D01*
X231987Y310387D01*
X231261Y310459D01*
X230537Y310488D01*
X229013Y310387D01*
X228719Y310338D01*
X228470Y310279D01*
X228268Y310212D01*
X228111Y310136D01*
X227999Y310050D01*
Y314950D01*
X228111Y314864D01*
X228268Y314788D01*
X228470Y314721D01*
X228719Y314662D01*
X229013Y314613D01*
X229739Y314541D01*
X230463Y314512D01*
X231987Y314613D01*
X232281Y314662D01*
X232530Y314721D01*
X232732Y314788D01*
X232889Y314864D01*
X233000Y314950D01*
Y310050D01*
D02*
G37*
G36*
X193238Y378203D02*
X192812Y377773D01*
X191200Y375956D01*
X191088Y375781D01*
X191021Y375642D01*
X191000Y375540D01*
X187040Y379500D01*
X187142Y379521D01*
X187281Y379588D01*
X187456Y379699D01*
X187668Y379856D01*
X188200Y380304D01*
X189273Y381312D01*
X189703Y381738D01*
X193238Y378203D01*
D02*
G37*
G36*
X121408Y376075D02*
X121218Y375997D01*
X121049Y375867D01*
X120904Y375685D01*
X120780Y375451D01*
X120679Y375165D01*
X120601Y374827D01*
X120545Y374436D01*
X120511Y373994D01*
X120500Y373500D01*
X116500D01*
X116489Y373994D01*
X116455Y374436D01*
X116399Y374827D01*
X116321Y375165D01*
X116220Y375451D01*
X116096Y375685D01*
X115951Y375867D01*
X115782Y375997D01*
X115592Y376075D01*
X115378Y376101D01*
X121622D01*
X121408Y376075D01*
D02*
G37*
G36*
X104003Y201217D02*
X104147Y198792D01*
X104192Y198589D01*
X104243Y198444D01*
X104300Y198357D01*
X98700D01*
X98757Y198444D01*
X98808Y198589D01*
X98853Y198792D01*
X98892Y199052D01*
X98952Y199746D01*
X98997Y201217D01*
X99000Y201822D01*
X104000D01*
X104003Y201217D01*
D02*
G37*
G36*
X19150Y384837D02*
X19553Y384451D01*
X19975Y384111D01*
X20418Y383816D01*
X20881Y383567D01*
X21365Y383363D01*
X21868Y383204D01*
X22392Y383091D01*
X22936Y383023D01*
X23500Y383000D01*
Y379000D01*
X22936Y378977D01*
X22392Y378909D01*
X21868Y378796D01*
X21365Y378637D01*
X20881Y378433D01*
X20418Y378184D01*
X19975Y377889D01*
X19553Y377549D01*
X19150Y377163D01*
X18768Y376732D01*
Y385268D01*
X19150Y384837D01*
D02*
G37*
G36*
X55126Y384298D02*
X54720Y383881D01*
X53760Y382751D01*
X53526Y382415D01*
X53335Y382099D01*
X53187Y381804D01*
X53081Y381529D01*
X53019Y381274D01*
X53000Y381040D01*
X49040Y385000D01*
X49274Y385019D01*
X49529Y385081D01*
X49804Y385187D01*
X50099Y385335D01*
X50415Y385526D01*
X50751Y385760D01*
X51484Y386357D01*
X51881Y386720D01*
X52298Y387126D01*
X55126Y384298D01*
D02*
G37*
G36*
X347518Y384362D02*
X347571Y383761D01*
X347659Y383196D01*
X347783Y382668D01*
X347942Y382176D01*
X348136Y381721D01*
X348366Y381303D01*
X348631Y380921D01*
X348932Y380576D01*
X349268Y380268D01*
X340732D01*
X341068Y380576D01*
X341369Y380921D01*
X341634Y381303D01*
X341864Y381721D01*
X342058Y382176D01*
X342217Y382668D01*
X342341Y383196D01*
X342429Y383761D01*
X342482Y384362D01*
X342500Y385000D01*
X347500D01*
X347518Y384362D01*
D02*
G37*
G36*
X591000Y0D02*
X591000Y0D01*
X591000Y-0D01*
X-0D01*
Y394500D01*
X55307D01*
X55506Y393500D01*
X52673Y392327D01*
X48869Y388522D01*
X43774Y386412D01*
X22493D01*
X22487Y386414D01*
X22286Y386499D01*
X22091Y386603D01*
X21897Y386733D01*
X21698Y386893D01*
X21492Y387091D01*
X21443Y387145D01*
X21210Y387709D01*
X17000Y389453D01*
X12000D01*
X7790Y387709D01*
X6047Y383500D01*
Y378500D01*
X7790Y374290D01*
X12000Y372547D01*
X17000D01*
X21210Y374290D01*
X21443Y374855D01*
X21492Y374909D01*
X21698Y375107D01*
X21897Y375267D01*
X22092Y375396D01*
X22286Y375501D01*
X22487Y375586D01*
X22493Y375588D01*
X43774D01*
X49000Y373423D01*
X54358Y375642D01*
X56522Y380869D01*
X58388Y382735D01*
X58944Y382691D01*
X59576Y381678D01*
X59088Y380500D01*
Y374500D01*
X60673Y370673D01*
X61119Y370488D01*
X61209Y370412D01*
X61298Y370319D01*
X61376Y370216D01*
X61450Y370094D01*
X61522Y369943D01*
X61588Y369762D01*
Y368242D01*
X51067Y357721D01*
X49000Y358577D01*
X43774Y356412D01*
X42000D01*
X38173Y354827D01*
X29758Y346412D01*
X22493D01*
X22487Y346414D01*
X22286Y346499D01*
X22091Y346603D01*
X21897Y346733D01*
X21698Y346893D01*
X21492Y347091D01*
X21443Y347145D01*
X21210Y347709D01*
X17000Y349453D01*
X12000D01*
X7790Y347709D01*
X6047Y343500D01*
Y338500D01*
X7790Y334291D01*
X12000Y332547D01*
X17000D01*
X21210Y334291D01*
X21443Y334855D01*
X21492Y334909D01*
X21698Y335107D01*
X21897Y335267D01*
X22092Y335397D01*
X22286Y335501D01*
X22487Y335586D01*
X22493Y335588D01*
X32000D01*
X35827Y337173D01*
X44105Y345451D01*
X49000Y343423D01*
X54358Y345642D01*
X54819Y346756D01*
X55827Y347173D01*
X67094Y358441D01*
X67942Y357874D01*
X65923Y353000D01*
X68142Y347642D01*
X73500Y345423D01*
X77420Y347047D01*
X99034D01*
X112547Y333534D01*
Y298023D01*
X111791Y297709D01*
X111477Y296953D01*
X41995D01*
X37785Y295210D01*
X33735Y291159D01*
X32811Y291542D01*
Y299905D01*
X25405Y307311D01*
X10594D01*
X3189Y299905D01*
Y285094D01*
X10594Y277689D01*
X24047D01*
Y229307D01*
X23506Y228000D01*
X25408Y223408D01*
X27798Y222418D01*
Y221418D01*
X26939Y221061D01*
X26292Y219500D01*
X33708D01*
X33062Y221061D01*
X33296Y222047D01*
X54687D01*
X55232Y220732D01*
X59250Y219067D01*
X63750D01*
X67768Y220732D01*
X68782Y223180D01*
X69782D01*
X70163Y222263D01*
X72650Y221232D01*
X73400D01*
Y228000D01*
X74900D01*
Y229500D01*
X80668D01*
Y231250D01*
X80052Y232736D01*
X80608Y233567D01*
X82592D01*
X83148Y232736D01*
X82532Y231250D01*
Y229500D01*
X88300D01*
Y228000D01*
X89800D01*
Y221232D01*
X90550D01*
X93037Y222263D01*
X94068Y224750D01*
Y231250D01*
X93037Y233737D01*
X90550Y234768D01*
X89256D01*
X88576Y235712D01*
X88733Y236222D01*
X88810Y236317D01*
X89009Y236411D01*
X89311Y236520D01*
X89414Y236547D01*
X95547D01*
Y219925D01*
X95492Y219840D01*
X95407Y219753D01*
X95248Y219645D01*
X94955Y219513D01*
X94739Y219453D01*
X76000D01*
X71790Y217709D01*
X68291Y214210D01*
X66547Y210000D01*
Y206453D01*
X65113D01*
X62500Y207536D01*
X57525Y205475D01*
X55464Y200500D01*
X57525Y195525D01*
X62500Y193465D01*
X65113Y194547D01*
X69887D01*
X72500Y193465D01*
X75715Y194796D01*
X76547Y194241D01*
Y167466D01*
X23291Y114209D01*
X21547Y110000D01*
Y109522D01*
X20088Y106000D01*
Y102000D01*
X21673Y98173D01*
X25500Y96588D01*
X29500D01*
X33327Y98173D01*
X34912Y102000D01*
Y106000D01*
X34035Y108116D01*
X83966Y158047D01*
X246239D01*
X246455Y157987D01*
X246748Y157855D01*
X246907Y157747D01*
X246992Y157660D01*
X247047Y157575D01*
Y152500D01*
X248791Y148291D01*
X277790Y119290D01*
X282000Y117547D01*
X283018D01*
X283173Y117173D01*
X287000Y115588D01*
X291000D01*
X294827Y117173D01*
X296412Y121000D01*
Y125000D01*
X294827Y128827D01*
X291000Y130412D01*
X287000D01*
X284685Y129453D01*
X284466D01*
X258953Y154966D01*
Y164000D01*
Y209605D01*
X259049Y209996D01*
X259151Y210306D01*
X259888Y210612D01*
X260194Y211349D01*
X260504Y211451D01*
X260895Y211547D01*
X283204D01*
X283438Y210561D01*
X282792Y209000D01*
X290208D01*
X289562Y210561D01*
X289796Y211547D01*
X314080D01*
X318000Y209923D01*
X323358Y212142D01*
X325577Y217500D01*
X323358Y222858D01*
X318000Y225077D01*
X314080Y223453D01*
X287807D01*
X286500Y223994D01*
X285193Y223453D01*
X260895D01*
X260504Y223549D01*
X260194Y223651D01*
X259888Y224388D01*
X253000Y227241D01*
X246112Y224388D01*
X243259Y217500D01*
X246112Y210612D01*
X246849Y210306D01*
X246951Y209996D01*
X247047Y209605D01*
Y170425D01*
X246992Y170340D01*
X246907Y170253D01*
X246748Y170145D01*
X246455Y170013D01*
X246239Y169953D01*
X88453D01*
Y197887D01*
X89536Y200500D01*
X87475Y205475D01*
X84887Y206547D01*
X85086Y207547D01*
X94739D01*
X94955Y207487D01*
X95248Y207355D01*
X95407Y207247D01*
X95492Y207160D01*
X95547Y207075D01*
Y199420D01*
X93923Y195500D01*
X96142Y190142D01*
X101500Y187923D01*
X106858Y190142D01*
X109077Y195500D01*
X107453Y199420D01*
Y213500D01*
Y239500D01*
X105710Y243709D01*
X102709Y246709D01*
X98500Y248453D01*
X89414D01*
X89311Y248480D01*
X89009Y248589D01*
X88755Y248709D01*
X88539Y248839D01*
X88353Y248981D01*
X88184Y249141D01*
X88076Y249267D01*
X87868Y249768D01*
X83850Y251433D01*
X79350D01*
X75436Y249811D01*
X74940Y249867D01*
X74512Y249975D01*
X74364Y250045D01*
X74255Y250391D01*
X74153Y250804D01*
Y253800D01*
X72409Y258010D01*
X63981Y266438D01*
X62358Y270358D01*
X58797Y271832D01*
Y272832D01*
X60827Y273673D01*
X61791Y276000D01*
X52209D01*
X53173Y273673D01*
X55203Y272832D01*
Y271832D01*
X51642Y270358D01*
X49423Y265000D01*
X51642Y259642D01*
X55562Y258019D01*
X62247Y251334D01*
Y250804D01*
X62145Y250391D01*
X62025Y250009D01*
X61890Y249669D01*
X61743Y249366D01*
X61586Y249098D01*
X61339Y248746D01*
X61139Y247855D01*
X60267Y245750D01*
Y239250D01*
X60883Y237764D01*
X60327Y236933D01*
X59250D01*
X55232Y235268D01*
X54687Y233953D01*
X35953D01*
Y276539D01*
X44461Y285047D01*
X84365D01*
X84560Y284066D01*
X81642Y282858D01*
X79423Y277500D01*
X81047Y273580D01*
Y268920D01*
X79423Y265000D01*
X81642Y259642D01*
X87000Y257423D01*
X90920Y259047D01*
X98887D01*
X101500Y257964D01*
X106475Y260025D01*
X108536Y265000D01*
X106475Y269975D01*
X101500Y272036D01*
X98887Y270953D01*
X92953D01*
Y273580D01*
X94577Y277500D01*
X92358Y282858D01*
X89440Y284066D01*
X89635Y285047D01*
X111477D01*
X111791Y284291D01*
X115561Y282729D01*
Y281646D01*
X111525Y279975D01*
X109465Y275000D01*
X111525Y270025D01*
X116500Y267964D01*
X119113Y269047D01*
X124080D01*
X128000Y267423D01*
X131920Y269047D01*
X136080D01*
X140000Y267423D01*
X143920Y269047D01*
X159887D01*
X162500Y267964D01*
X167475Y270025D01*
X169536Y275000D01*
X167475Y279975D01*
X162500Y282036D01*
X159887Y280953D01*
X143920D01*
X140000Y282577D01*
X136080Y280953D01*
X131920D01*
X128000Y282577D01*
X124080Y280953D01*
X119113D01*
X117680Y281547D01*
X117879Y282547D01*
X121000D01*
X125209Y284291D01*
X125523Y285047D01*
X168534D01*
X173547Y280034D01*
Y269466D01*
X170138Y266057D01*
X167525Y264975D01*
X166443Y262362D01*
X155034Y250953D01*
X143920D01*
X140000Y252577D01*
X134953Y250486D01*
X133953Y250975D01*
Y253034D01*
X134966Y254047D01*
X149887D01*
X152500Y252964D01*
X157475Y255025D01*
X159536Y260000D01*
X157475Y264975D01*
X152500Y267036D01*
X149887Y265953D01*
X132500D01*
X128290Y264210D01*
X123791Y259710D01*
X122146Y255740D01*
X122146Y255740D01*
X122047Y255500D01*
Y254019D01*
X122047Y254019D01*
Y248920D01*
X121019Y246438D01*
X112291Y237709D01*
X110547Y233500D01*
Y228157D01*
X110511Y227958D01*
X110423Y227592D01*
X110335Y227311D01*
X110257Y227118D01*
X110202Y227013D01*
X110069Y226814D01*
X109893Y225943D01*
X109088Y224000D01*
Y218000D01*
X110673Y214173D01*
X114500Y212588D01*
X118500D01*
X119916Y213175D01*
X120840Y212792D01*
X122291Y209291D01*
X129290Y202291D01*
X130753Y201685D01*
Y200602D01*
X127673Y199327D01*
X126709Y197000D01*
X136291D01*
X135327Y199327D01*
X134796Y199547D01*
X134995Y200547D01*
X157000D01*
X161209Y202291D01*
X168082Y209163D01*
X168305Y209316D01*
X168776Y209596D01*
X169232Y209828D01*
X169675Y210016D01*
X169888Y210088D01*
X170000D01*
X170295Y210210D01*
X170527Y210269D01*
X171071Y210363D01*
X171845Y210852D01*
X171943Y210893D01*
X172814Y211069D01*
X173013Y211202D01*
X173118Y211257D01*
X173311Y211335D01*
X173592Y211423D01*
X173959Y211511D01*
X174157Y211547D01*
X185105D01*
X185496Y211451D01*
X185806Y211349D01*
X186112Y210612D01*
X193000Y207758D01*
X199888Y210612D01*
X202742Y217500D01*
X199888Y224388D01*
X193000Y227241D01*
X186112Y224388D01*
X185806Y223651D01*
X185496Y223549D01*
X185105Y223453D01*
X174157D01*
X173959Y223489D01*
X173592Y223577D01*
X173311Y223665D01*
X173118Y223743D01*
X173013Y223798D01*
X172814Y223931D01*
X171943Y224107D01*
X170000Y224912D01*
X166000D01*
X162173Y223327D01*
X161352Y221345D01*
X160863Y220571D01*
X160769Y220027D01*
X160710Y219795D01*
X160588Y219500D01*
Y219388D01*
X160516Y219175D01*
X160328Y218732D01*
X160096Y218276D01*
X159816Y217805D01*
X159663Y217582D01*
X154534Y212453D01*
X140787D01*
X140589Y213453D01*
X142327Y214173D01*
X143912Y218000D01*
Y224000D01*
X143098Y225965D01*
X142908Y226848D01*
X142760Y227062D01*
X142693Y227182D01*
X142618Y227349D01*
X142539Y227568D01*
X142528Y227609D01*
X144210Y229291D01*
X145953Y233500D01*
Y239047D01*
X157500D01*
X161709Y240791D01*
X174862Y253943D01*
X177475Y255025D01*
X178557Y257638D01*
X183710Y262790D01*
X185453Y267000D01*
Y282500D01*
X183710Y286709D01*
X175209Y295210D01*
X171000Y296953D01*
X125523D01*
X125209Y297709D01*
X124453Y298023D01*
Y333534D01*
X159438Y368519D01*
X161920Y369547D01*
X183080D01*
X187000Y367923D01*
X192358Y370142D01*
X193981Y374062D01*
X201466Y381547D01*
X206116D01*
X206672Y380715D01*
X205547Y378000D01*
Y373000D01*
X207291Y368791D01*
X207855Y368557D01*
X207909Y368509D01*
X208107Y368302D01*
X208267Y368103D01*
X208397Y367909D01*
X208501Y367714D01*
X208586Y367513D01*
X208588Y367507D01*
Y355412D01*
X203000D01*
X199173Y353827D01*
X183173Y337827D01*
X181588Y334000D01*
Y301726D01*
X179423Y296500D01*
X181642Y291142D01*
X187000Y288923D01*
X192358Y291142D01*
X194577Y296500D01*
X192412Y301726D01*
Y331758D01*
X205242Y344588D01*
X210080D01*
X214000Y342964D01*
X218975Y345025D01*
X221036Y350000D01*
X219412Y353920D01*
Y367020D01*
X220371Y367417D01*
X220459Y367388D01*
X230173Y357673D01*
X234000Y356088D01*
X239258D01*
X245567Y349779D01*
X245673Y348827D01*
X245531Y348483D01*
X245402Y348279D01*
X245130Y347902D01*
X244917Y347001D01*
X244088Y345000D01*
Y339000D01*
X245673Y335173D01*
X249500Y333588D01*
X253500D01*
X255049Y334230D01*
X255110Y334231D01*
X256088Y333578D01*
Y320242D01*
X255869Y320022D01*
X250774Y317912D01*
X239420D01*
X235500Y319536D01*
X231580Y317912D01*
X229420D01*
X225500Y319536D01*
X220525Y317475D01*
X219891Y315944D01*
X219310D01*
X218829Y315992D01*
X217000Y316749D01*
Y312500D01*
Y308251D01*
X218829Y309008D01*
X219310Y309056D01*
X219891D01*
X220525Y307525D01*
X225500Y305464D01*
X229420Y307088D01*
X231580D01*
X235500Y305464D01*
X239420Y307088D01*
X250588D01*
Y304226D01*
X248423Y299000D01*
X250642Y293642D01*
X256000Y291423D01*
X261358Y293642D01*
X263577Y299000D01*
X261412Y304226D01*
Y307274D01*
X263522Y312369D01*
X265327Y314173D01*
X265791Y315294D01*
X266912Y318000D01*
Y329597D01*
X267912Y329934D01*
X280451Y317395D01*
X278423Y312500D01*
X280588Y307274D01*
Y304226D01*
X278423Y299000D01*
X280642Y293642D01*
X286000Y291423D01*
X291358Y293642D01*
X293577Y299000D01*
X291412Y304226D01*
Y307274D01*
X293577Y312500D01*
X291412Y317726D01*
Y319500D01*
X289827Y323327D01*
X277518Y335635D01*
X278912Y339000D01*
Y345000D01*
X278107Y346943D01*
X277931Y347814D01*
X277798Y348013D01*
X277743Y348118D01*
X277665Y348311D01*
X277577Y348592D01*
X277489Y348959D01*
X277468Y349075D01*
X277532Y349267D01*
X277671Y349525D01*
X277808Y349692D01*
X277975Y349829D01*
X278233Y349968D01*
X278469Y350047D01*
X303204D01*
X303438Y349061D01*
X302792Y347500D01*
X310208D01*
X309561Y349061D01*
X309796Y350047D01*
X312575D01*
X312661Y349992D01*
X312747Y349907D01*
X312855Y349748D01*
X312987Y349454D01*
X313047Y349239D01*
Y333000D01*
Y321920D01*
X311423Y318000D01*
X313642Y312642D01*
X319000Y310423D01*
X324358Y312642D01*
X326577Y318000D01*
X324953Y321920D01*
Y326575D01*
X325008Y326660D01*
X325093Y326747D01*
X325252Y326855D01*
X325546Y326987D01*
X325761Y327047D01*
X338843D01*
X339041Y327011D01*
X339408Y326923D01*
X339689Y326835D01*
X339882Y326757D01*
X339987Y326702D01*
X340186Y326569D01*
X341057Y326393D01*
X343000Y325588D01*
X347000D01*
X350827Y327173D01*
X352412Y331000D01*
Y335000D01*
X350827Y338827D01*
X347000Y340412D01*
X343000D01*
X341057Y339607D01*
X340186Y339431D01*
X339987Y339298D01*
X339882Y339243D01*
X339689Y339165D01*
X339408Y339077D01*
X339041Y338989D01*
X338843Y338953D01*
X325761D01*
X325546Y339013D01*
X325252Y339145D01*
X325093Y339253D01*
X325008Y339339D01*
X324953Y339425D01*
Y349687D01*
X324968Y349761D01*
X325066Y350074D01*
X325228Y350141D01*
X329209Y351790D01*
X343770Y366351D01*
X344308Y366666D01*
X344879Y366947D01*
X345484Y367193D01*
X346127Y367404D01*
X346683Y367547D01*
X347500D01*
X348077Y367786D01*
X348399Y367827D01*
X348983Y368161D01*
X351710Y369290D01*
X353453Y373500D01*
Y378500D01*
X351710Y382710D01*
X351613Y383194D01*
X352466Y384047D01*
X377454D01*
X378303Y383189D01*
X378291Y382710D01*
X378054Y382140D01*
X377841Y381860D01*
X377666Y381202D01*
X376547Y378500D01*
Y373500D01*
X378291Y369290D01*
X382500Y367547D01*
X387500D01*
X391709Y369290D01*
X393453Y373500D01*
Y378500D01*
X392334Y381202D01*
X392159Y381860D01*
X391946Y382140D01*
X391709Y382710D01*
X391697Y383189D01*
X392546Y384047D01*
X417729D01*
X418011Y383676D01*
X418291Y382710D01*
X416547Y378500D01*
Y373500D01*
X418291Y369290D01*
X422500Y367547D01*
X427500D01*
X431709Y369290D01*
X433453Y373500D01*
Y378500D01*
X432352Y381158D01*
X432182Y381830D01*
X431970Y382114D01*
X431927Y382184D01*
X431709Y382710D01*
X431658Y382731D01*
X431625Y382814D01*
X431522Y383136D01*
X431453Y383415D01*
Y385500D01*
X429709Y389709D01*
X425919Y393500D01*
X426333Y394500D01*
X591000D01*
Y0D01*
D02*
G37*
G36*
X88505Y384106D02*
X88579Y383174D01*
X88623Y382946D01*
X88677Y382760D01*
X88741Y382615D01*
X88815Y382511D01*
X88898Y382449D01*
X88992Y382428D01*
X84008D01*
X84101Y382449D01*
X84185Y382511D01*
X84259Y382615D01*
X84323Y382760D01*
X84377Y382946D01*
X84421Y383174D01*
X84456Y383443D01*
X84495Y384106D01*
X84500Y384500D01*
X88500D01*
X88505Y384106D01*
D02*
G37*
G36*
X238018Y383862D02*
X238071Y383261D01*
X238159Y382696D01*
X238283Y382168D01*
X238442Y381676D01*
X238636Y381221D01*
X238866Y380803D01*
X239131Y380421D01*
X239432Y380076D01*
X239768Y379768D01*
X231232D01*
X231568Y380076D01*
X231869Y380421D01*
X232134Y380803D01*
X232364Y381221D01*
X232558Y381676D01*
X232717Y382168D01*
X232841Y382696D01*
X232929Y383261D01*
X232982Y383862D01*
X233000Y384500D01*
X238000D01*
X238018Y383862D01*
D02*
G37*
G36*
X46143Y378200D02*
X45964Y378352D01*
X45740Y378488D01*
X45471Y378608D01*
X45158Y378712D01*
X44800Y378800D01*
X44396Y378872D01*
X43456Y378968D01*
X42918Y378992D01*
X42336Y379000D01*
Y383000D01*
X42918Y383008D01*
X44396Y383128D01*
X44800Y383200D01*
X45158Y383288D01*
X45471Y383392D01*
X45740Y383512D01*
X45964Y383648D01*
X46143Y383800D01*
Y378200D01*
D02*
G37*
G36*
X428016Y384780D02*
X428142Y383446D01*
X428253Y382832D01*
X428395Y382254D01*
X428568Y381710D01*
X428774Y381202D01*
X429010Y380729D01*
X429279Y380291D01*
X429579Y379889D01*
X420732Y380268D01*
X421163Y380655D01*
X421549Y381073D01*
X421889Y381520D01*
X422184Y381998D01*
X422433Y382506D01*
X422637Y383045D01*
X422796Y383613D01*
X422909Y384212D01*
X422977Y384841D01*
X423000Y385500D01*
X428000D01*
X428016Y384780D01*
D02*
G37*
G36*
X392500Y387500D02*
X391550Y387440D01*
X390700Y387260D01*
X389950Y386960D01*
X389300Y386540D01*
X388750Y386000D01*
X388300Y385340D01*
X387950Y384560D01*
X387729Y383763D01*
X387833Y383305D01*
X388020Y382683D01*
X388248Y382083D01*
X388519Y381503D01*
X388830Y380944D01*
X389184Y380406D01*
X389579Y379889D01*
X380421D01*
X380816Y380406D01*
X381170Y380944D01*
X381481Y381503D01*
X381752Y382083D01*
X381980Y382683D01*
X382167Y383305D01*
X382271Y383763D01*
X382050Y384560D01*
X381700Y385340D01*
X381250Y386000D01*
X380700Y386540D01*
X380050Y386960D01*
X379300Y387260D01*
X378450Y387440D01*
X377500Y387500D01*
X385000Y392500D01*
X392500Y387500D01*
D02*
G37*
G36*
X184143Y372700D02*
X184056Y372757D01*
X183911Y372808D01*
X183708Y372853D01*
X183448Y372892D01*
X182755Y372952D01*
X181283Y372997D01*
X180677Y373000D01*
Y378000D01*
X181283Y378003D01*
X183708Y378147D01*
X183911Y378192D01*
X184056Y378243D01*
X184143Y378300D01*
Y372700D01*
D02*
G37*
G36*
X347988Y371048D02*
X347028Y370926D01*
X346105Y370751D01*
X345217Y370523D01*
X344365Y370244D01*
X343548Y369912D01*
X342767Y369527D01*
X342022Y369090D01*
X341312Y368601D01*
X340638Y368059D01*
X340000Y367464D01*
X336464Y371000D01*
X337059Y371638D01*
X337600Y372312D01*
X338090Y373022D01*
X338527Y373767D01*
X338912Y374548D01*
X339244Y375365D01*
X339523Y376217D01*
X339751Y377105D01*
X339926Y378028D01*
X340048Y378988D01*
X347988Y371048D01*
D02*
G37*
G36*
X217837Y370850D02*
X217451Y370447D01*
X217111Y370025D01*
X216816Y369582D01*
X216567Y369119D01*
X216363Y368635D01*
X216204Y368132D01*
X216091Y367608D01*
X216023Y367064D01*
X216000Y366500D01*
X212000D01*
X211977Y367064D01*
X211909Y367608D01*
X211796Y368132D01*
X211637Y368635D01*
X211433Y369119D01*
X211184Y369582D01*
X210889Y370025D01*
X210549Y370447D01*
X210163Y370850D01*
X209732Y371232D01*
X218268D01*
X217837Y370850D01*
D02*
G37*
G36*
X157960Y371500D02*
X157858Y371479D01*
X157719Y371412D01*
X157544Y371301D01*
X157332Y371144D01*
X156800Y370696D01*
X155727Y369688D01*
X155297Y369262D01*
X151762Y372797D01*
X152188Y373227D01*
X153800Y375044D01*
X153912Y375219D01*
X153979Y375358D01*
X154000Y375460D01*
X157960Y371500D01*
D02*
G37*
G36*
X70002Y373158D02*
X69791Y372784D01*
X69606Y372376D01*
X69445Y371934D01*
X69309Y371458D01*
X69198Y370947D01*
X69111Y370402D01*
X69012Y369209D01*
X69000Y368561D01*
X65000Y368495D01*
X64981Y369102D01*
X64923Y369675D01*
X64827Y370216D01*
X64693Y370724D01*
X64521Y371199D01*
X64310Y371642D01*
X64060Y372051D01*
X63773Y372428D01*
X63446Y372771D01*
X63082Y373082D01*
X70236Y373497D01*
X70002Y373158D01*
D02*
G37*
G36*
X104000Y213500D02*
X99000Y206000D01*
X98940Y206950D01*
X98760Y207800D01*
X98460Y208550D01*
X98040Y209200D01*
X97500Y209750D01*
X96840Y210200D01*
X96060Y210550D01*
X95160Y210800D01*
X94140Y210950D01*
X93000Y211000D01*
Y216000D01*
X94140Y216050D01*
X95160Y216200D01*
X96060Y216450D01*
X96840Y216800D01*
X97500Y217250D01*
X98040Y217800D01*
X98460Y218450D01*
X98760Y219200D01*
X98940Y220050D01*
X99000Y221000D01*
X104000Y213500D01*
D02*
G37*
G36*
X262126Y315798D02*
X261720Y315381D01*
X260760Y314251D01*
X260526Y313915D01*
X260335Y313599D01*
X260187Y313304D01*
X260081Y313029D01*
X260019Y312774D01*
X260000Y312540D01*
X256040Y316500D01*
X256274Y316519D01*
X256529Y316581D01*
X256804Y316687D01*
X257099Y316835D01*
X257415Y317026D01*
X257751Y317260D01*
X258484Y317857D01*
X258881Y318220D01*
X259298Y318626D01*
X262126Y315798D01*
D02*
G37*
G36*
X261828Y371985D02*
X261775Y371455D01*
X261793Y370923D01*
X261882Y370388D01*
X262042Y369851D01*
X262273Y369311D01*
X262575Y368770D01*
X262948Y368225D01*
X263392Y367678D01*
X263907Y367129D01*
X258768Y365197D01*
X253543Y370690D01*
X261952Y372512D01*
X261828Y371985D01*
D02*
G37*
G36*
X137143Y272200D02*
X137056Y272257D01*
X136911Y272308D01*
X136708Y272353D01*
X136448Y272392D01*
X135755Y272452D01*
X134283Y272497D01*
X134000Y272498D01*
X133717Y272497D01*
X131292Y272353D01*
X131089Y272308D01*
X130944Y272257D01*
X130857Y272200D01*
Y277800D01*
X130944Y277743D01*
X131089Y277692D01*
X131292Y277647D01*
X131552Y277608D01*
X132246Y277548D01*
X133717Y277503D01*
X134000Y277502D01*
X134283Y277503D01*
X136708Y277647D01*
X136911Y277692D01*
X137056Y277743D01*
X137143Y277800D01*
Y272200D01*
D02*
G37*
G36*
X70717Y252216D02*
X70853Y250799D01*
X70973Y250140D01*
X71126Y249514D01*
X71314Y248920D01*
X71535Y248360D01*
X71791Y247833D01*
X72081Y247340D01*
X72405Y246879D01*
X63995D01*
X64319Y247340D01*
X64609Y247833D01*
X64865Y248360D01*
X65086Y248920D01*
X65274Y249514D01*
X65427Y250140D01*
X65547Y250799D01*
X65632Y251491D01*
X65700Y252974D01*
X70700D01*
X70717Y252216D01*
D02*
G37*
G36*
X89743Y274556D02*
X89692Y274411D01*
X89647Y274208D01*
X89608Y273948D01*
X89548Y273255D01*
X89503Y271783D01*
X89500Y271250D01*
X89503Y270717D01*
X89647Y268292D01*
X89692Y268089D01*
X89743Y267944D01*
X89800Y267857D01*
X84200D01*
X84257Y267944D01*
X84308Y268089D01*
X84353Y268292D01*
X84392Y268552D01*
X84452Y269245D01*
X84497Y270717D01*
X84500Y271250D01*
X84497Y271783D01*
X84353Y274208D01*
X84308Y274411D01*
X84257Y274556D01*
X84200Y274643D01*
X89800D01*
X89743Y274556D01*
D02*
G37*
G36*
X79743Y372924D02*
X79587Y372733D01*
X79450Y372509D01*
X79330Y372251D01*
X79229Y371959D01*
X79147Y371635D01*
X79083Y371276D01*
X79037Y370884D01*
X79000Y370000D01*
X75000D01*
X74989Y370513D01*
X74900Y371370D01*
X74822Y371715D01*
X74721Y372005D01*
X74599Y372238D01*
X74454Y372416D01*
X74287Y372538D01*
X74098Y372605D01*
X73886Y372616D01*
X79918Y373082D01*
X79743Y372924D01*
D02*
G37*
G36*
X160944Y378243D02*
X161089Y378192D01*
X161292Y378147D01*
X161552Y378108D01*
X162246Y378048D01*
X163717Y378003D01*
X164322Y378000D01*
Y373000D01*
X163717Y372997D01*
X161292Y372853D01*
X161089Y372808D01*
X160944Y372757D01*
X160857Y372700D01*
Y378300D01*
X160944Y378243D01*
D02*
G37*
G36*
X130503Y250717D02*
X130647Y248292D01*
X130692Y248089D01*
X130743Y247944D01*
X130800Y247857D01*
X125200D01*
X125257Y247944D01*
X125308Y248089D01*
X125353Y248292D01*
X125392Y248552D01*
X125452Y249245D01*
X125497Y250717D01*
X125500Y251323D01*
X130500D01*
X130503Y250717D01*
D02*
G37*
G36*
X125143Y272200D02*
X125056Y272257D01*
X124911Y272308D01*
X124708Y272353D01*
X124448Y272392D01*
X123755Y272452D01*
X122283Y272497D01*
X121677Y272500D01*
Y277500D01*
X122283Y277503D01*
X124708Y277647D01*
X124911Y277692D01*
X125056Y277743D01*
X125143Y277800D01*
Y272200D01*
D02*
G37*
G36*
X142944Y277743D02*
X143089Y277692D01*
X143292Y277647D01*
X143552Y277608D01*
X144246Y277548D01*
X145717Y277503D01*
X146323Y277500D01*
Y272500D01*
X145717Y272497D01*
X143292Y272353D01*
X143089Y272308D01*
X142944Y272257D01*
X142857Y272200D01*
Y277800D01*
X142944Y277743D01*
D02*
G37*
%LPC*%
G36*
X290208Y206000D02*
X288000D01*
Y203792D01*
X289562Y204438D01*
X290208Y206000D01*
D02*
G37*
G36*
X285000D02*
X282792D01*
X283438Y204438D01*
X285000Y203792D01*
Y206000D01*
D02*
G37*
G36*
X462000Y249791D02*
Y246500D01*
X465291D01*
X464327Y248827D01*
X462000Y249791D01*
D02*
G37*
G36*
X115000Y253500D02*
X112251D01*
X113056Y251556D01*
X115000Y250751D01*
Y253500D01*
D02*
G37*
G36*
X465291Y243500D02*
X462000D01*
Y240209D01*
X464327Y241173D01*
X465291Y243500D01*
D02*
G37*
G36*
X459000Y249791D02*
X456673Y248827D01*
X455709Y246500D01*
X459000D01*
Y249791D01*
D02*
G37*
G36*
X115000Y259249D02*
X113056Y258444D01*
X112251Y256500D01*
X115000D01*
Y259249D01*
D02*
G37*
G36*
X118000D02*
Y256500D01*
X120749D01*
X119944Y258444D01*
X118000Y259249D01*
D02*
G37*
G36*
X120749Y253500D02*
X118000D01*
Y250751D01*
X119944Y251556D01*
X120749Y253500D01*
D02*
G37*
G36*
X375406Y285311D02*
X360595D01*
X353189Y277906D01*
Y263094D01*
X360595Y255689D01*
X375406D01*
X382811Y263094D01*
Y277906D01*
X375406Y285311D01*
D02*
G37*
G36*
X459000Y243500D02*
X455709D01*
X456673Y241173D01*
X459000Y240209D01*
Y243500D01*
D02*
G37*
G36*
X80668Y226500D02*
X76400D01*
Y221232D01*
X77150D01*
X79637Y222263D01*
X80668Y224750D01*
Y226500D01*
D02*
G37*
G36*
X86800D02*
X82532D01*
Y224750D01*
X83563Y222263D01*
X86050Y221232D01*
X86800D01*
Y226500D01*
D02*
G37*
G36*
X28500Y216500D02*
X26292D01*
X26939Y214938D01*
X28500Y214292D01*
Y216500D01*
D02*
G37*
G36*
X33708D02*
X31500D01*
Y214292D01*
X33062Y214938D01*
X33708Y216500D01*
D02*
G37*
G36*
X558000Y233791D02*
X555673Y232827D01*
X554709Y230500D01*
X558000D01*
Y233791D01*
D02*
G37*
G36*
X569500Y236577D02*
X564142Y234358D01*
X563838Y233622D01*
X562558Y233145D01*
X561000Y233791D01*
Y229000D01*
X559500D01*
Y227500D01*
X554709D01*
X555673Y225173D01*
X557298Y224500D01*
Y223500D01*
X555673Y222827D01*
X554709Y220500D01*
X559500D01*
Y217500D01*
X554709D01*
X555673Y215173D01*
X557298Y214500D01*
Y213500D01*
X555673Y212827D01*
X554709Y210500D01*
X559500D01*
Y207500D01*
X554709D01*
X555673Y205173D01*
X557298Y204500D01*
Y203500D01*
X555673Y202827D01*
X554709Y200500D01*
X559500D01*
Y197500D01*
X554709D01*
X555673Y195173D01*
X557298Y194500D01*
Y193500D01*
X555673Y192827D01*
X554709Y190500D01*
X559500D01*
Y187500D01*
X554709D01*
X555673Y185173D01*
X557298Y184500D01*
Y183500D01*
X555673Y182827D01*
X554709Y180500D01*
X559500D01*
Y177500D01*
X554709D01*
X555673Y175173D01*
X557298Y174500D01*
Y173500D01*
X555673Y172827D01*
X554709Y170500D01*
X559500D01*
Y167500D01*
X554709D01*
X555673Y165173D01*
X557298Y164500D01*
Y163500D01*
X555673Y162827D01*
X554709Y160500D01*
X559500D01*
Y157500D01*
X554709D01*
X555673Y155173D01*
X557298Y154500D01*
Y153500D01*
X555673Y152827D01*
X554709Y150500D01*
X559500D01*
Y147500D01*
X554709D01*
X555673Y145173D01*
X557298Y144500D01*
Y143500D01*
X555673Y142827D01*
X554709Y140500D01*
X559500D01*
Y139000D01*
X561000D01*
Y134209D01*
X562464Y134816D01*
X563289Y134286D01*
X563358Y133277D01*
X559534Y129453D01*
X542420D01*
X538500Y131077D01*
X534580Y129453D01*
X488806D01*
X487500Y129994D01*
X486194Y129453D01*
X462420D01*
X458500Y131077D01*
X453373Y128953D01*
X452127D01*
X447000Y131077D01*
X441873Y128953D01*
X430453D01*
X430431Y128958D01*
X430110Y129052D01*
X429869Y129148D01*
X429701Y129235D01*
X429595Y129307D01*
X429535Y129359D01*
X429508Y129390D01*
X429327Y129827D01*
X425500Y131412D01*
X421500D01*
X420285Y130909D01*
X419453Y131464D01*
Y133000D01*
X417709Y137209D01*
X410709Y144210D01*
X406500Y145953D01*
X396000D01*
X391791Y144210D01*
X376534Y128953D01*
X345920D01*
X342000Y130577D01*
X338080Y128953D01*
X315157D01*
X314959Y128989D01*
X314592Y129077D01*
X314311Y129165D01*
X314118Y129243D01*
X314013Y129298D01*
X313814Y129431D01*
X312943Y129607D01*
X311000Y130412D01*
X307000D01*
X303173Y128827D01*
X301588Y125000D01*
Y121000D01*
X303173Y117173D01*
X307000Y115588D01*
X311000D01*
X312943Y116393D01*
X313814Y116569D01*
X314013Y116702D01*
X314118Y116757D01*
X314311Y116835D01*
X314592Y116923D01*
X314959Y117011D01*
X315157Y117047D01*
X338080D01*
X342000Y115423D01*
X345920Y117047D01*
X369547D01*
Y115920D01*
X367923Y112000D01*
X370142Y106642D01*
X375500Y104423D01*
X380858Y106642D01*
X383077Y112000D01*
X381453Y115920D01*
Y118063D01*
X383209Y118790D01*
X398466Y134047D01*
X404034D01*
X405789Y132292D01*
X405255Y131412D01*
X401500D01*
X397673Y129827D01*
X396088Y126000D01*
Y120000D01*
X396893Y118057D01*
X397069Y117186D01*
X397202Y116987D01*
X397257Y116882D01*
X397335Y116689D01*
X397423Y116408D01*
X397511Y116041D01*
X397547Y115843D01*
Y91157D01*
X397511Y90958D01*
X397423Y90592D01*
X397335Y90311D01*
X397307Y90241D01*
X397299Y90235D01*
X397131Y90148D01*
X396890Y90052D01*
X396569Y89958D01*
X396547Y89953D01*
X344613D01*
X342000Y91036D01*
X337025Y88975D01*
X334964Y84000D01*
X337025Y79025D01*
X342000Y76964D01*
X344613Y78047D01*
X369075D01*
X369161Y77992D01*
X369247Y77907D01*
X369355Y77748D01*
X369487Y77455D01*
X369547Y77239D01*
Y36920D01*
X367923Y33000D01*
X370142Y27642D01*
X375500Y25423D01*
X380858Y27642D01*
X383077Y33000D01*
X381453Y36920D01*
Y77239D01*
X381513Y77455D01*
X381645Y77748D01*
X381753Y77907D01*
X381839Y77992D01*
X381925Y78047D01*
X396547D01*
X396569Y78042D01*
X396890Y77948D01*
X397131Y77852D01*
X397299Y77765D01*
X397405Y77693D01*
X397465Y77640D01*
X397492Y77610D01*
X397673Y77173D01*
X401500Y75588D01*
X405500D01*
X406715Y76091D01*
X407547Y75536D01*
Y74420D01*
X405923Y70500D01*
X408142Y65142D01*
X413500Y62923D01*
X417420Y64547D01*
X441547D01*
Y63113D01*
X440464Y60500D01*
X442525Y55525D01*
X444056Y54891D01*
Y54310D01*
X444008Y53829D01*
X443251Y52000D01*
X451749D01*
X450992Y53829D01*
X450944Y54310D01*
Y54891D01*
X452475Y55525D01*
X454535Y60500D01*
X453453Y63113D01*
Y67887D01*
X454535Y70500D01*
X452953Y74320D01*
Y87547D01*
X454580D01*
X458500Y85923D01*
X463858Y88142D01*
X466077Y93500D01*
X463858Y98858D01*
X458500Y101077D01*
X454580Y99453D01*
X450920D01*
X447000Y101077D01*
X441642Y98858D01*
X439423Y93500D01*
X441047Y89580D01*
Y76453D01*
X429913D01*
X429443Y77453D01*
X430912Y81000D01*
Y87000D01*
X430107Y88943D01*
X429931Y89814D01*
X429798Y90013D01*
X429743Y90118D01*
X429665Y90311D01*
X429577Y90592D01*
X429489Y90959D01*
X429453Y91157D01*
Y115843D01*
X429489Y116042D01*
X429577Y116408D01*
X429665Y116689D01*
X429693Y116760D01*
X429701Y116765D01*
X429869Y116852D01*
X430110Y116948D01*
X430431Y117042D01*
X430453Y117047D01*
X444287D01*
X447000Y115923D01*
X449713Y117047D01*
X455787D01*
X458500Y115923D01*
X462420Y117547D01*
X484204D01*
X484439Y116561D01*
X483792Y115000D01*
X491208D01*
X490561Y116561D01*
X490796Y117547D01*
X534580D01*
X538500Y115923D01*
X542420Y117547D01*
X558420D01*
X558420Y117547D01*
X560580D01*
X560580Y117547D01*
X562000D01*
X566210Y119290D01*
X573709Y126790D01*
X575453Y131000D01*
Y135080D01*
X577077Y139000D01*
X575006Y144000D01*
X577077Y149000D01*
X575006Y154000D01*
X577077Y159000D01*
X575006Y164000D01*
X577077Y169000D01*
X575006Y174000D01*
X577077Y179000D01*
X575006Y184000D01*
X577077Y189000D01*
X575006Y194000D01*
X577077Y199000D01*
X575006Y204000D01*
X577077Y209000D01*
X575006Y214000D01*
X577077Y219000D01*
X575006Y224000D01*
X577077Y229000D01*
X574858Y234358D01*
X569500Y236577D01*
D02*
G37*
G36*
X502500Y227500D02*
X500292D01*
X500939Y225939D01*
X502500Y225292D01*
Y227500D01*
D02*
G37*
G36*
X507708D02*
X505500D01*
Y225292D01*
X507061Y225939D01*
X507708Y227500D01*
D02*
G37*
G36*
X272000Y57077D02*
X268080Y55453D01*
X262307D01*
X261000Y55994D01*
X256408Y54092D01*
X255418Y51702D01*
X254418D01*
X254062Y52561D01*
X252500Y53208D01*
Y49500D01*
Y45792D01*
X254062Y46439D01*
X254418Y47298D01*
X255418D01*
X256408Y44908D01*
X261000Y43006D01*
X262307Y43547D01*
X268080D01*
X272000Y41923D01*
X277358Y44142D01*
X279577Y49500D01*
X277358Y54858D01*
X272000Y57077D01*
D02*
G37*
G36*
X340500Y62500D02*
X337751D01*
X338556Y60556D01*
X340500Y59751D01*
Y62500D01*
D02*
G37*
G36*
X346249D02*
X343500D01*
Y59751D01*
X345444Y60556D01*
X346249Y62500D01*
D02*
G37*
G36*
X79500Y49249D02*
X77556Y48444D01*
X76751Y46500D01*
X79500D01*
Y49249D01*
D02*
G37*
G36*
X82500D02*
Y46500D01*
X85249D01*
X84444Y48444D01*
X82500Y49249D01*
D02*
G37*
G36*
X249500Y53208D02*
X247938Y52561D01*
X247292Y51000D01*
X249500D01*
Y53208D01*
D02*
G37*
G36*
X85791Y82500D02*
X82500D01*
Y79209D01*
X84827Y80173D01*
X85791Y82500D01*
D02*
G37*
G36*
X79500Y88791D02*
X77173Y87827D01*
X76209Y85500D01*
X79500D01*
Y88791D01*
D02*
G37*
G36*
X82500D02*
Y85500D01*
X85791D01*
X84827Y87827D01*
X82500Y88791D01*
D02*
G37*
G36*
X340500Y68249D02*
X338556Y67444D01*
X337751Y65500D01*
X340500D01*
Y68249D01*
D02*
G37*
G36*
X343500D02*
Y65500D01*
X346249D01*
X345444Y67444D01*
X343500Y68249D01*
D02*
G37*
G36*
X79500Y82500D02*
X76209D01*
X77173Y80173D01*
X79500Y79209D01*
Y82500D01*
D02*
G37*
G36*
X418291Y39000D02*
X415000D01*
Y35709D01*
X417327Y36673D01*
X418291Y39000D01*
D02*
G37*
G36*
X139500Y40749D02*
X137556Y39944D01*
X136751Y38000D01*
X139500D01*
Y40749D01*
D02*
G37*
G36*
X79500Y43500D02*
X76751D01*
X77556Y41556D01*
X79500Y40751D01*
Y43500D01*
D02*
G37*
G36*
X24905Y45311D02*
X10095D01*
X2689Y37905D01*
Y23095D01*
X10095Y15689D01*
X24905D01*
X32311Y23095D01*
Y37905D01*
X24905Y45311D01*
D02*
G37*
G36*
X139500Y35000D02*
X136751D01*
X137556Y33056D01*
X139500Y32251D01*
Y35000D01*
D02*
G37*
G36*
X412000Y39000D02*
X408709D01*
X409673Y36673D01*
X412000Y35709D01*
Y39000D01*
D02*
G37*
G36*
X249500Y48000D02*
X247292D01*
X247938Y46439D01*
X249500Y45792D01*
Y48000D01*
D02*
G37*
G36*
X446000Y49000D02*
X443251D01*
X444056Y47056D01*
X446000Y46251D01*
Y49000D01*
D02*
G37*
G36*
X451749D02*
X449000D01*
Y46251D01*
X450944Y47056D01*
X451749Y49000D01*
D02*
G37*
G36*
X85249Y43500D02*
X82500D01*
Y40751D01*
X84444Y41556D01*
X85249Y43500D01*
D02*
G37*
G36*
X412000Y45291D02*
X409673Y44327D01*
X408709Y42000D01*
X412000D01*
Y45291D01*
D02*
G37*
G36*
X415000D02*
Y42000D01*
X418291D01*
X417327Y44327D01*
X415000Y45291D01*
D02*
G37*
G36*
X318000Y195077D02*
X312642Y192858D01*
X310423Y187500D01*
X312047Y183580D01*
Y177806D01*
X311506Y176500D01*
X313408Y171908D01*
X315798Y170918D01*
Y169918D01*
X314938Y169562D01*
X314292Y168000D01*
X321708D01*
X321061Y169562D01*
X320202Y169918D01*
Y170918D01*
X322592Y171908D01*
X324494Y176500D01*
X323953Y177806D01*
Y183580D01*
X325577Y187500D01*
X323358Y192858D01*
X318000Y195077D01*
D02*
G37*
G36*
X537000Y178208D02*
X535438Y177561D01*
X534792Y176000D01*
X537000D01*
Y178208D01*
D02*
G37*
G36*
X540000D02*
Y176000D01*
X542208D01*
X541562Y177561D01*
X540000Y178208D01*
D02*
G37*
G36*
X507500Y200831D02*
X329573D01*
Y183324D01*
X349775D01*
Y168824D01*
X426282D01*
Y152512D01*
X506500D01*
Y168824D01*
X507000D01*
Y183324D01*
X507500D01*
Y200831D01*
D02*
G37*
G36*
X316500Y165000D02*
X314292D01*
X314938Y163438D01*
X316500Y162792D01*
Y165000D01*
D02*
G37*
G36*
X321708D02*
X319500D01*
Y162792D01*
X321061Y163438D01*
X321708Y165000D01*
D02*
G37*
G36*
X173247Y196000D02*
X169500D01*
Y192253D01*
X170000D01*
X172296Y193204D01*
X173247Y195500D01*
Y196000D01*
D02*
G37*
G36*
X166500Y202747D02*
X166000D01*
X163704Y201796D01*
X162753Y199500D01*
Y199000D01*
X166500D01*
Y202747D01*
D02*
G37*
G36*
X170000D02*
X169500D01*
Y199000D01*
X173247D01*
Y199500D01*
X172296Y201796D01*
X170000Y202747D01*
D02*
G37*
G36*
X130000Y194000D02*
X126709D01*
X127673Y191673D01*
X130000Y190709D01*
Y194000D01*
D02*
G37*
G36*
X136291D02*
X133000D01*
Y190709D01*
X135327Y191673D01*
X136291Y194000D01*
D02*
G37*
G36*
X166500Y196000D02*
X162753D01*
Y195500D01*
X163704Y193204D01*
X166000Y192253D01*
X166500D01*
Y196000D01*
D02*
G37*
G36*
X346791Y101500D02*
X343500D01*
Y98209D01*
X345827Y99173D01*
X346791Y101500D01*
D02*
G37*
G36*
X340500Y107791D02*
X338173Y106827D01*
X337209Y104500D01*
X340500D01*
Y107791D01*
D02*
G37*
G36*
X343500D02*
Y104500D01*
X346791D01*
X345827Y106827D01*
X343500Y107791D01*
D02*
G37*
G36*
X225500Y92500D02*
X223292D01*
X223938Y90939D01*
X225500Y90292D01*
Y92500D01*
D02*
G37*
G36*
X230708D02*
X228500D01*
Y90292D01*
X230062Y90939D01*
X230708Y92500D01*
D02*
G37*
G36*
X340500Y101500D02*
X337209D01*
X338173Y99173D01*
X340500Y98209D01*
Y101500D01*
D02*
G37*
G36*
X558000Y116291D02*
X555673Y115327D01*
X554709Y113000D01*
X558000D01*
Y116291D01*
D02*
G37*
G36*
Y137500D02*
X554709D01*
X555673Y135173D01*
X558000Y134209D01*
Y137500D01*
D02*
G37*
G36*
X542208Y173000D02*
X534792D01*
X535438Y171439D01*
X536298Y171082D01*
Y170082D01*
X533908Y169092D01*
X532006Y164500D01*
X532547Y163194D01*
Y157420D01*
X530923Y153500D01*
X533142Y148142D01*
X538500Y145923D01*
X543858Y148142D01*
X546077Y153500D01*
X544453Y157420D01*
Y163194D01*
X544994Y164500D01*
X543092Y169092D01*
X540702Y170082D01*
Y171082D01*
X541562Y171439D01*
X542208Y173000D01*
D02*
G37*
G36*
X486000Y112000D02*
X483792D01*
X484439Y110439D01*
X486000Y109792D01*
Y112000D01*
D02*
G37*
G36*
X491208D02*
X489000D01*
Y109792D01*
X490561Y110439D01*
X491208Y112000D01*
D02*
G37*
G36*
X149500Y121953D02*
X130000D01*
X125791Y120210D01*
X115940Y110359D01*
X113000Y111577D01*
X109080Y109953D01*
X84920D01*
X81000Y111577D01*
X77080Y109953D01*
X53657D01*
X53458Y109989D01*
X53092Y110077D01*
X52811Y110165D01*
X52618Y110243D01*
X52513Y110298D01*
X52314Y110431D01*
X51443Y110607D01*
X49500Y111412D01*
X45500D01*
X41673Y109827D01*
X40088Y106000D01*
Y102000D01*
X41673Y98173D01*
X45500Y96588D01*
X49500D01*
X51443Y97393D01*
X52314Y97569D01*
X52513Y97702D01*
X52618Y97757D01*
X52811Y97835D01*
X53092Y97923D01*
X53459Y98011D01*
X53657Y98047D01*
X77080D01*
X81000Y96423D01*
X84920Y98047D01*
X109080D01*
X113000Y96423D01*
X116920Y98047D01*
X118000D01*
X122210Y99791D01*
X132466Y110047D01*
X133950D01*
X134506Y109215D01*
X133588Y107000D01*
Y101000D01*
X134393Y99057D01*
X134569Y98186D01*
X134702Y97987D01*
X134757Y97882D01*
X134835Y97689D01*
X134923Y97408D01*
X135011Y97041D01*
X135047Y96843D01*
Y72157D01*
X135011Y71959D01*
X134923Y71592D01*
X134835Y71311D01*
X134807Y71241D01*
X134799Y71235D01*
X134631Y71148D01*
X134390Y71052D01*
X134070Y70958D01*
X134047Y70953D01*
X83613D01*
X81000Y72036D01*
X76025Y69975D01*
X73964Y65000D01*
X76025Y60025D01*
X81000Y57964D01*
X83613Y59047D01*
X106575D01*
X106660Y58992D01*
X106747Y58907D01*
X106855Y58748D01*
X106987Y58455D01*
X107047Y58239D01*
Y28920D01*
X105423Y25000D01*
X107642Y19642D01*
X113000Y17423D01*
X118358Y19642D01*
X120577Y25000D01*
X118953Y28920D01*
Y58239D01*
X119013Y58455D01*
X119145Y58748D01*
X119253Y58907D01*
X119340Y58992D01*
X119425Y59047D01*
X134047D01*
X134070Y59042D01*
X134390Y58948D01*
X134631Y58852D01*
X134799Y58765D01*
X134905Y58693D01*
X134965Y58640D01*
X134992Y58610D01*
X135173Y58173D01*
X139000Y56588D01*
X143000D01*
X144215Y57091D01*
X145047Y56536D01*
Y51500D01*
Y40648D01*
X144047Y40109D01*
X142500Y40749D01*
Y36500D01*
Y32251D01*
X144328Y33008D01*
X144810Y33056D01*
X145391D01*
X146025Y31525D01*
X151000Y29464D01*
X153613Y30547D01*
X158387D01*
X161000Y29464D01*
X165975Y31525D01*
X168035Y36500D01*
X165975Y41475D01*
X161000Y43536D01*
X158387Y42453D01*
X156953D01*
Y45075D01*
X157008Y45160D01*
X157093Y45247D01*
X157252Y45355D01*
X157545Y45487D01*
X157761Y45547D01*
X169000D01*
X173210Y47291D01*
X188209Y62291D01*
X189953Y66500D01*
Y68047D01*
X192080D01*
X196000Y66423D01*
X201358Y68642D01*
X203577Y74000D01*
X201358Y79358D01*
X196000Y81577D01*
X192080Y79953D01*
X187920D01*
X184000Y81577D01*
X178642Y79358D01*
X176423Y74000D01*
X178047Y70080D01*
Y68966D01*
X168372Y59291D01*
X167525Y59858D01*
X168412Y62000D01*
Y68000D01*
X167607Y69943D01*
X167431Y70814D01*
X167298Y71013D01*
X167243Y71118D01*
X167165Y71311D01*
X167077Y71592D01*
X166989Y71959D01*
X166953Y72157D01*
Y96843D01*
X166989Y97041D01*
X167031Y97220D01*
X167203Y97281D01*
X167670Y97413D01*
X168098Y97506D01*
X181387D01*
X184000Y96423D01*
X186613Y97506D01*
X193387D01*
X196000Y96423D01*
X198613Y97506D01*
X223076D01*
X223708Y96506D01*
X223292Y95500D01*
X230708D01*
X230292Y96506D01*
X230924Y97506D01*
X245310D01*
X295206Y47609D01*
X296642Y44142D01*
X300109Y42707D01*
X337908Y4908D01*
X342500Y3006D01*
X567000D01*
X571592Y4908D01*
X574092Y7408D01*
X575994Y12000D01*
Y18887D01*
X577077Y21500D01*
X575006Y26500D01*
X577077Y31500D01*
X575006Y36500D01*
X577077Y41500D01*
X575006Y46500D01*
X577077Y51500D01*
X575006Y56500D01*
X577077Y61500D01*
X575006Y66500D01*
X577077Y71500D01*
X575006Y76500D01*
X577077Y81500D01*
X575006Y86500D01*
X577077Y91500D01*
X575006Y96500D01*
X577077Y101500D01*
X575006Y106500D01*
X577077Y111500D01*
X574858Y116858D01*
X569500Y119077D01*
X564142Y116858D01*
X563838Y116122D01*
X562558Y115645D01*
X561000Y116291D01*
Y111500D01*
X559500D01*
Y110000D01*
X554709D01*
X555673Y107673D01*
X557298Y107000D01*
Y106000D01*
X555673Y105327D01*
X554709Y103000D01*
X559500D01*
Y100000D01*
X554709D01*
X555673Y97673D01*
X557298Y97000D01*
Y96000D01*
X555673Y95327D01*
X554709Y93000D01*
X559500D01*
Y90000D01*
X554709D01*
X555673Y87673D01*
X557298Y87000D01*
Y86000D01*
X555673Y85327D01*
X554709Y83000D01*
X559500D01*
Y80000D01*
X554709D01*
X555673Y77673D01*
X557298Y77000D01*
Y76000D01*
X555673Y75327D01*
X554709Y73000D01*
X559500D01*
Y70000D01*
X554709D01*
X555673Y67673D01*
X557298Y67000D01*
Y66000D01*
X555673Y65327D01*
X554709Y63000D01*
X559500D01*
Y60000D01*
X554709D01*
X555673Y57673D01*
X557298Y57000D01*
Y56000D01*
X555673Y55327D01*
X554709Y53000D01*
X559500D01*
Y50000D01*
X554709D01*
X555673Y47673D01*
X557298Y47000D01*
Y46000D01*
X555673Y45327D01*
X554709Y43000D01*
X559500D01*
Y40000D01*
X554709D01*
X555673Y37673D01*
X557298Y37000D01*
Y36000D01*
X555673Y35327D01*
X554709Y33000D01*
X559500D01*
Y30000D01*
X554709D01*
X555673Y27673D01*
X557298Y27000D01*
Y26000D01*
X555673Y25327D01*
X554709Y23000D01*
X559500D01*
Y20000D01*
X554709D01*
X555673Y17673D01*
X557312Y16994D01*
X557113Y15994D01*
X536018D01*
X535635Y16918D01*
X541311Y22594D01*
Y37405D01*
X533906Y44811D01*
X519095D01*
X511689Y37405D01*
Y22594D01*
X517365Y16918D01*
X516983Y15994D01*
X345190D01*
X308086Y53098D01*
X307358Y54858D01*
X305598Y55586D01*
X252592Y108592D01*
X248000Y110494D01*
X198613D01*
X196000Y111577D01*
X193387Y110494D01*
X186613D01*
X184000Y111577D01*
X181387Y110494D01*
X168098D01*
X167669Y110587D01*
X167203Y110719D01*
X166805Y110862D01*
X166472Y111013D01*
X166200Y111165D01*
X165849Y111408D01*
X164965Y111598D01*
X163000Y112412D01*
X159000D01*
X157785Y111908D01*
X156953Y112464D01*
Y114500D01*
X155210Y118710D01*
X153709Y120210D01*
X149500Y121953D01*
D02*
G37*
G36*
X403500Y382288D02*
X402500D01*
X399821Y381179D01*
X398712Y378500D01*
Y377500D01*
X403500D01*
Y382288D01*
D02*
G37*
G36*
X367500D02*
X366500D01*
Y377500D01*
X371288D01*
Y378500D01*
X370179Y381179D01*
X367500Y382288D01*
D02*
G37*
G36*
X443500D02*
X442500D01*
X439821Y381179D01*
X438712Y378500D01*
Y377500D01*
X443500D01*
Y382288D01*
D02*
G37*
G36*
X407500D02*
X406500D01*
Y377500D01*
X411288D01*
Y378500D01*
X410179Y381179D01*
X407500Y382288D01*
D02*
G37*
G36*
X363500D02*
X362500D01*
X359821Y381179D01*
X358712Y378500D01*
Y377500D01*
X363500D01*
Y382288D01*
D02*
G37*
G36*
X411288Y374500D02*
X406500D01*
Y369712D01*
X407500D01*
X410179Y370821D01*
X411288Y373500D01*
Y374500D01*
D02*
G37*
G36*
X528000Y339749D02*
Y337000D01*
X530749D01*
X529944Y338944D01*
X528000Y339749D01*
D02*
G37*
G36*
X451288Y374500D02*
X446500D01*
Y369712D01*
X447500D01*
X450179Y370821D01*
X451288Y373500D01*
Y374500D01*
D02*
G37*
G36*
X443500D02*
X438712D01*
Y373500D01*
X439821Y370821D01*
X442500Y369712D01*
X443500D01*
Y374500D01*
D02*
G37*
G36*
X447500Y382288D02*
X446500D01*
Y377500D01*
X451288D01*
Y378500D01*
X450179Y381179D01*
X447500Y382288D01*
D02*
G37*
G36*
X395000Y317791D02*
X392673Y316827D01*
X391709Y314500D01*
X395000D01*
Y317791D01*
D02*
G37*
G36*
X398000D02*
Y314500D01*
X401291D01*
X400327Y316827D01*
X398000Y317791D01*
D02*
G37*
G36*
X214000Y311000D02*
X211251D01*
X212056Y309056D01*
X214000Y308251D01*
Y311000D01*
D02*
G37*
G36*
Y316749D02*
X212056Y315944D01*
X211251Y314000D01*
X214000D01*
Y316749D01*
D02*
G37*
G36*
X13000Y319500D02*
X8212D01*
Y318500D01*
X9321Y315821D01*
X12000Y314712D01*
X13000D01*
Y319500D01*
D02*
G37*
G36*
X17000Y327288D02*
X16000D01*
Y322500D01*
X20788D01*
Y323500D01*
X19679Y326179D01*
X17000Y327288D01*
D02*
G37*
G36*
X530749Y334000D02*
X528000D01*
Y331251D01*
X529944Y332056D01*
X530749Y334000D01*
D02*
G37*
G36*
X20788Y319500D02*
X16000D01*
Y314712D01*
X17000D01*
X19679Y315821D01*
X20788Y318500D01*
Y319500D01*
D02*
G37*
G36*
X13000Y327288D02*
X12000D01*
X9321Y326179D01*
X8212Y323500D01*
Y322500D01*
X13000D01*
Y327288D01*
D02*
G37*
G36*
X156500Y354000D02*
X153209D01*
X154173Y351673D01*
X156500Y350709D01*
Y354000D01*
D02*
G37*
G36*
X558000Y358791D02*
X555673Y357827D01*
X554709Y355500D01*
X558000D01*
Y358791D01*
D02*
G37*
G36*
X159500Y360291D02*
Y357000D01*
X162791D01*
X161827Y359327D01*
X159500Y360291D01*
D02*
G37*
G36*
X156500D02*
X154173Y359327D01*
X153209Y357000D01*
X156500D01*
Y360291D01*
D02*
G37*
G36*
X162791Y354000D02*
X159500D01*
Y350709D01*
X161827Y351673D01*
X162791Y354000D01*
D02*
G37*
G36*
X235500Y354249D02*
Y351500D01*
X238249D01*
X237444Y353444D01*
X235500Y354249D01*
D02*
G37*
G36*
X13000Y359500D02*
X8212D01*
Y358500D01*
X9321Y355821D01*
X12000Y354712D01*
X13000D01*
Y359500D01*
D02*
G37*
G36*
X232500Y354249D02*
X230556Y353444D01*
X229751Y351500D01*
X232500D01*
Y354249D01*
D02*
G37*
G36*
X20788Y359500D02*
X16000D01*
Y354712D01*
X17000D01*
X19679Y355821D01*
X20788Y358500D01*
Y359500D01*
D02*
G37*
G36*
X238249Y348500D02*
X235500D01*
Y345751D01*
X237444Y346556D01*
X238249Y348500D01*
D02*
G37*
G36*
X363500Y374500D02*
X358712D01*
Y373500D01*
X359821Y370821D01*
X362500Y369712D01*
X363500D01*
Y374500D01*
D02*
G37*
G36*
X305000Y344500D02*
X302792D01*
X303438Y342938D01*
X305000Y342292D01*
Y344500D01*
D02*
G37*
G36*
X403500Y374500D02*
X398712D01*
Y373500D01*
X399821Y370821D01*
X402500Y369712D01*
X403500D01*
Y374500D01*
D02*
G37*
G36*
X371288D02*
X366500D01*
Y369712D01*
X367500D01*
X370179Y370821D01*
X371288Y373500D01*
Y374500D01*
D02*
G37*
G36*
X310208Y344500D02*
X308000D01*
Y342292D01*
X309561Y342938D01*
X310208Y344500D01*
D02*
G37*
G36*
X481906Y390311D02*
X467095D01*
X459689Y382906D01*
Y368094D01*
X467095Y360689D01*
X477463D01*
X477846Y359765D01*
X472291Y354209D01*
X470924Y350910D01*
X469744Y350675D01*
X469209Y351209D01*
X465000Y352953D01*
X443000D01*
X438791Y351209D01*
X427562Y339981D01*
X425080Y338953D01*
X400420D01*
X396500Y340577D01*
X392580Y338953D01*
X371157D01*
X370958Y338989D01*
X370592Y339077D01*
X370311Y339165D01*
X370118Y339243D01*
X370013Y339298D01*
X369814Y339431D01*
X368943Y339607D01*
X367000Y340412D01*
X363000D01*
X359173Y338827D01*
X357588Y335000D01*
Y331000D01*
X359173Y327173D01*
X363000Y325588D01*
X367000D01*
X368943Y326393D01*
X369814Y326569D01*
X370013Y326702D01*
X370118Y326757D01*
X370311Y326835D01*
X370592Y326923D01*
X370959Y327011D01*
X371157Y327047D01*
X392580D01*
X396500Y325423D01*
X400420Y327047D01*
X425080D01*
X429000Y325423D01*
X434358Y327642D01*
X435981Y331562D01*
X445466Y341047D01*
X451056D01*
X451251Y340066D01*
X450673Y339827D01*
X449088Y336000D01*
Y330000D01*
X449893Y328057D01*
X450069Y327186D01*
X450202Y326987D01*
X450257Y326882D01*
X450335Y326689D01*
X450423Y326408D01*
X450511Y326041D01*
X450547Y325843D01*
Y299157D01*
X450511Y298958D01*
X450423Y298592D01*
X450335Y298311D01*
X450257Y298118D01*
X450202Y298013D01*
X450069Y297814D01*
X449893Y296943D01*
X449088Y295000D01*
Y289000D01*
X449893Y287057D01*
X450069Y286186D01*
X450202Y285987D01*
X450257Y285882D01*
X450335Y285689D01*
X450423Y285408D01*
X450511Y285041D01*
X450547Y284843D01*
Y269000D01*
X452168Y265087D01*
X447034Y259953D01*
X432920D01*
X429000Y261577D01*
X423642Y259358D01*
X421423Y254000D01*
X423642Y248642D01*
X429000Y246423D01*
X432920Y248047D01*
X449500D01*
X453710Y249791D01*
X461938Y258019D01*
X465858Y259642D01*
X468077Y265000D01*
X465858Y270358D01*
X462453Y271768D01*
Y274321D01*
X463377Y274704D01*
X480291Y257790D01*
X484500Y256047D01*
X489580D01*
X493500Y254423D01*
X497420Y256047D01*
X512080D01*
X516000Y254423D01*
X521358Y256642D01*
X523577Y262000D01*
X521358Y267358D01*
X516000Y269577D01*
X512080Y267953D01*
X510953D01*
Y288556D01*
X511934Y288751D01*
X512173Y288173D01*
X514500Y287209D01*
Y292000D01*
Y296791D01*
X512173Y295827D01*
X511934Y295249D01*
X510953Y295444D01*
Y297379D01*
X512453Y301000D01*
Y309080D01*
X514077Y313000D01*
X512453Y316920D01*
Y329547D01*
X513887D01*
X516500Y328464D01*
X521475Y330525D01*
X522109Y332056D01*
X522690D01*
X523172Y332008D01*
X525000Y331251D01*
Y335500D01*
Y339749D01*
X523172Y338992D01*
X522690Y338944D01*
X522109D01*
X521475Y340475D01*
X516500Y342536D01*
X513887Y341453D01*
X509113D01*
X506500Y342536D01*
X501525Y340475D01*
X499465Y335500D01*
X500547Y332887D01*
Y316920D01*
X498923Y313000D01*
X500547Y309080D01*
Y303121D01*
X499047Y299500D01*
Y298362D01*
X498047Y297693D01*
X493500Y299577D01*
X489580Y297953D01*
X483453D01*
X483430Y297958D01*
X483110Y298052D01*
X482869Y298148D01*
X482701Y298235D01*
X482693Y298240D01*
X482665Y298311D01*
X482577Y298592D01*
X482489Y298959D01*
X482453Y299157D01*
Y309080D01*
X484077Y313000D01*
X482453Y316920D01*
Y325843D01*
X482489Y326042D01*
X482577Y326408D01*
X482665Y326689D01*
X482743Y326882D01*
X482798Y326987D01*
X482931Y327186D01*
X483107Y328057D01*
X483912Y330000D01*
Y336000D01*
X483107Y337943D01*
X482931Y338814D01*
X482798Y339013D01*
X482743Y339118D01*
X482665Y339311D01*
X482577Y339592D01*
X482489Y339959D01*
X482453Y340157D01*
Y347534D01*
X503466Y368547D01*
X554534D01*
X563358Y359723D01*
X563289Y358714D01*
X562464Y358184D01*
X561000Y358791D01*
Y354000D01*
X559500D01*
Y352500D01*
X554709D01*
X555673Y350173D01*
X557298Y349500D01*
Y348500D01*
X555673Y347827D01*
X554709Y345500D01*
X559500D01*
Y342500D01*
X554709D01*
X555673Y340173D01*
X557298Y339500D01*
Y338500D01*
X555673Y337827D01*
X554709Y335500D01*
X559500D01*
Y332500D01*
X554709D01*
X555673Y330173D01*
X557298Y329500D01*
Y328500D01*
X555673Y327827D01*
X554709Y325500D01*
X559500D01*
Y322500D01*
X554709D01*
X555673Y320173D01*
X557298Y319500D01*
Y318500D01*
X555673Y317827D01*
X554709Y315500D01*
X559500D01*
Y312500D01*
X554709D01*
X555673Y310173D01*
X557298Y309500D01*
Y308500D01*
X555673Y307827D01*
X554709Y305500D01*
X559500D01*
Y302500D01*
X554709D01*
X555673Y300173D01*
X557298Y299500D01*
Y298500D01*
X555673Y297827D01*
X554709Y295500D01*
X559500D01*
Y292500D01*
X554709D01*
X555673Y290173D01*
X557298Y289500D01*
Y288500D01*
X555673Y287827D01*
X554709Y285500D01*
X559500D01*
Y282500D01*
X554709D01*
X555673Y280173D01*
X557298Y279500D01*
Y278500D01*
X555673Y277827D01*
X554709Y275500D01*
X559500D01*
Y272500D01*
X554709D01*
X555673Y270173D01*
X557298Y269500D01*
Y268500D01*
X555673Y267827D01*
X554709Y265500D01*
X559500D01*
Y264000D01*
X561000D01*
Y259209D01*
X562547Y259850D01*
X563547Y259182D01*
Y252966D01*
X563534Y252953D01*
X556500D01*
X552290Y251209D01*
X546034Y244953D01*
X540920D01*
X537000Y246577D01*
X533080Y244953D01*
X505306D01*
X504000Y245494D01*
X499408Y243592D01*
X497506Y239000D01*
X499408Y234408D01*
X501798Y233418D01*
Y232418D01*
X500939Y232062D01*
X500292Y230500D01*
X507708D01*
X507061Y232062D01*
X507296Y233047D01*
X533080D01*
X537000Y231423D01*
X540920Y233047D01*
X548500D01*
X552709Y234790D01*
X558966Y241047D01*
X566000D01*
X570210Y242791D01*
X573709Y246290D01*
X575453Y250500D01*
Y260080D01*
X577077Y264000D01*
X575453Y267920D01*
Y270080D01*
X577077Y274000D01*
X575453Y277920D01*
Y280080D01*
X577077Y284000D01*
X575453Y287920D01*
Y290080D01*
X577077Y294000D01*
X575453Y297920D01*
Y300080D01*
X577077Y304000D01*
X575453Y307920D01*
Y310080D01*
X577077Y314000D01*
X575453Y317920D01*
Y320080D01*
X577077Y324000D01*
X575453Y327920D01*
Y330080D01*
X577077Y334000D01*
X575453Y337920D01*
Y340080D01*
X577077Y344000D01*
X575453Y347920D01*
Y350080D01*
X577077Y354000D01*
X575453Y357920D01*
Y362000D01*
X573709Y366210D01*
X561209Y378710D01*
X557000Y380453D01*
X501000D01*
X496791Y378710D01*
X490235Y372154D01*
X489311Y372537D01*
Y382906D01*
X481906Y390311D01*
D02*
G37*
G36*
X232500Y348500D02*
X229751D01*
X230556Y346556D01*
X232500Y345751D01*
Y348500D01*
D02*
G37*
G36*
X17000Y367288D02*
X16000D01*
Y362500D01*
X20788D01*
Y363500D01*
X19679Y366179D01*
X17000Y367288D01*
D02*
G37*
G36*
X13000D02*
X12000D01*
X9321Y366179D01*
X8212Y363500D01*
Y362500D01*
X13000D01*
Y367288D01*
D02*
G37*
G36*
X322708Y265500D02*
X320500D01*
Y263292D01*
X322061Y263938D01*
X322708Y265500D01*
D02*
G37*
G36*
X319000Y295577D02*
X313642Y293358D01*
X311423Y288000D01*
X313047Y284080D01*
Y278307D01*
X312506Y277000D01*
X314408Y272408D01*
X316798Y271418D01*
Y270418D01*
X315938Y270061D01*
X315292Y268500D01*
X322708D01*
X322061Y270061D01*
X321202Y270418D01*
Y271418D01*
X323592Y272408D01*
X325494Y277000D01*
X324953Y278307D01*
Y284080D01*
X326577Y288000D01*
X324358Y293358D01*
X319000Y295577D01*
D02*
G37*
G36*
X317500Y265500D02*
X315292D01*
X315938Y263938D01*
X317500Y263292D01*
Y265500D01*
D02*
G37*
G36*
X72000Y301000D02*
X69792D01*
X70438Y299439D01*
X72000Y298792D01*
Y301000D01*
D02*
G37*
G36*
X540708Y288500D02*
X533292D01*
X533939Y286939D01*
X534798Y286582D01*
Y285582D01*
X532408Y284592D01*
X530506Y280000D01*
X531047Y278693D01*
Y272920D01*
X529423Y269000D01*
X531642Y263642D01*
X537000Y261423D01*
X542358Y263642D01*
X544577Y269000D01*
X542953Y272920D01*
Y278693D01*
X543494Y280000D01*
X541592Y284592D01*
X539202Y285582D01*
Y286582D01*
X540062Y286939D01*
X540708Y288500D01*
D02*
G37*
G36*
X55500Y282291D02*
X53173Y281327D01*
X52209Y279000D01*
X55500D01*
Y282291D01*
D02*
G37*
G36*
X58500D02*
Y279000D01*
X61791D01*
X60827Y281327D01*
X58500Y282291D01*
D02*
G37*
G36*
X520791Y290500D02*
X517500D01*
Y287209D01*
X519827Y288173D01*
X520791Y290500D01*
D02*
G37*
G36*
X535500Y293708D02*
X533939Y293061D01*
X533292Y291500D01*
X535500D01*
Y293708D01*
D02*
G37*
G36*
X517500Y296791D02*
Y293500D01*
X520791D01*
X519827Y295827D01*
X517500Y296791D01*
D02*
G37*
G36*
X538500Y293708D02*
Y291500D01*
X540708D01*
X540062Y293061D01*
X538500Y293708D01*
D02*
G37*
G36*
X558000Y262500D02*
X554709D01*
X555673Y260173D01*
X558000Y259209D01*
Y262500D01*
D02*
G37*
G36*
X401291Y311500D02*
X398000D01*
Y308209D01*
X400327Y309173D01*
X401291Y311500D01*
D02*
G37*
G36*
X395000D02*
X391709D01*
X392673Y309173D01*
X395000Y308209D01*
Y311500D01*
D02*
G37*
G36*
X73500Y330577D02*
X68142Y328358D01*
X65923Y323000D01*
X67547Y319080D01*
Y313807D01*
X67006Y312500D01*
X68908Y307908D01*
X71298Y306918D01*
Y305918D01*
X70438Y305561D01*
X69792Y304000D01*
X77208D01*
X76561Y305561D01*
X75702Y305918D01*
Y306918D01*
X78092Y307908D01*
X79994Y312500D01*
X79453Y313807D01*
Y319080D01*
X81077Y323000D01*
X78858Y328358D01*
X73500Y330577D01*
D02*
G37*
G36*
X77208Y301000D02*
X75000D01*
Y298792D01*
X76561Y299439D01*
X77208Y301000D01*
D02*
G37*
%LPD*%
G36*
X416444Y73243D02*
X416589Y73192D01*
X416792Y73147D01*
X417052Y73108D01*
X417745Y73048D01*
X419217Y73003D01*
X419823Y73000D01*
Y68000D01*
X419217Y67997D01*
X416792Y67853D01*
X416589Y67808D01*
X416444Y67757D01*
X416357Y67700D01*
Y73300D01*
X416444Y73243D01*
D02*
G37*
G36*
X363275Y172500D02*
X360130D01*
Y176621D01*
X359857D01*
X359701Y176601D01*
X359564Y176582D01*
X359427Y176543D01*
X359310Y176504D01*
X359232Y176445D01*
X359154Y176406D01*
X359115Y176386D01*
X359095Y176367D01*
X358998Y176289D01*
X358900Y176172D01*
X358724Y175918D01*
X358646Y175781D01*
X358587Y175683D01*
X358548Y175605D01*
X358529Y175586D01*
X356830Y172500D01*
X353275D01*
X354818Y175429D01*
X354877Y175527D01*
X354935Y175625D01*
X355092Y175820D01*
X355150Y175918D01*
X355209Y175996D01*
X355248Y176035D01*
X355267Y176055D01*
X355384Y176191D01*
X355482Y176308D01*
X355560Y176406D01*
X355619Y176484D01*
X355716Y176582D01*
X355755Y176601D01*
X355873Y176660D01*
X355990Y176738D01*
X356263Y176855D01*
X356381Y176894D01*
X356478Y176933D01*
X356556Y176972D01*
X356576D01*
X356322Y177031D01*
X356107Y177109D01*
X355912Y177168D01*
X355755Y177226D01*
X355638Y177285D01*
X355541Y177324D01*
X355482Y177363D01*
X355463D01*
X355248Y177519D01*
X355033Y177675D01*
X354877Y177851D01*
X354720Y178007D01*
X354623Y178144D01*
X354525Y178261D01*
X354486Y178340D01*
X354467Y178359D01*
X354349Y178593D01*
X354252Y178847D01*
X354193Y179101D01*
X354135Y179335D01*
X354115Y179531D01*
X354096Y179687D01*
Y179785D01*
Y179824D01*
X354115Y180175D01*
X354174Y180488D01*
X354252Y180781D01*
X354330Y181015D01*
X354428Y181210D01*
X354506Y181347D01*
X354564Y181425D01*
X354584Y181464D01*
X354779Y181699D01*
X354974Y181894D01*
X355189Y182070D01*
X355384Y182187D01*
X355560Y182284D01*
X355697Y182343D01*
X355795Y182382D01*
X355834Y182402D01*
X356146Y182480D01*
X356498Y182558D01*
X356869Y182597D01*
X357220Y182616D01*
X357533Y182636D01*
X357689Y182656D01*
X363275D01*
Y172500D01*
D02*
G37*
G36*
X186743Y71056D02*
X186692Y70911D01*
X186647Y70708D01*
X186608Y70448D01*
X186548Y69754D01*
X186503Y68283D01*
X186500Y67677D01*
X181500D01*
X181497Y68283D01*
X181353Y70708D01*
X181308Y70911D01*
X181257Y71056D01*
X181200Y71143D01*
X186800D01*
X186743Y71056D01*
D02*
G37*
G36*
X163512Y74101D02*
X163698Y71913D01*
X163809Y71293D01*
X163945Y70726D01*
X164106Y70214D01*
X164291Y69756D01*
X164502Y69352D01*
X164736Y69003D01*
X157264D01*
X157498Y69352D01*
X157709Y69756D01*
X157894Y70214D01*
X158055Y70726D01*
X158191Y71293D01*
X158302Y71913D01*
X158450Y73318D01*
X158488Y74101D01*
X158500Y74939D01*
X163500D01*
X163512Y74101D01*
D02*
G37*
G36*
X425497Y172500D02*
X420849D01*
X420517Y172520D01*
X420205Y172539D01*
X419892Y172578D01*
X419599Y172637D01*
X419345Y172695D01*
X419150Y172734D01*
X419072Y172754D01*
X419013D01*
X418994Y172773D01*
X418974D01*
X418701Y172871D01*
X418427Y172988D01*
X418193Y173105D01*
X417978Y173242D01*
X417802Y173379D01*
X417666Y173477D01*
X417588Y173555D01*
X417549Y173574D01*
X417314Y173809D01*
X417099Y174062D01*
X416924Y174316D01*
X416787Y174551D01*
X416670Y174766D01*
X416572Y174922D01*
X416533Y175039D01*
X416513Y175078D01*
X416396Y175449D01*
X416298Y175859D01*
X416240Y176269D01*
X416181Y176679D01*
X416162Y177031D01*
Y177187D01*
X416142Y177324D01*
Y177441D01*
Y177519D01*
Y177578D01*
Y177597D01*
X416162Y177988D01*
X416181Y178340D01*
X416220Y178672D01*
X416259Y178964D01*
X416318Y179218D01*
X416357Y179414D01*
X416377Y179531D01*
X416396Y179550D01*
Y179570D01*
X416513Y179902D01*
X416631Y180214D01*
X416767Y180488D01*
X416904Y180742D01*
X417021Y180917D01*
X417119Y181074D01*
X417197Y181152D01*
X417216Y181191D01*
X417431Y181445D01*
X417666Y181660D01*
X417900Y181835D01*
X418115Y181992D01*
X418330Y182109D01*
X418486Y182206D01*
X418584Y182246D01*
X418603Y182265D01*
X418623D01*
X418955Y182402D01*
X419326Y182499D01*
X419697Y182558D01*
X420048Y182616D01*
X420361Y182636D01*
X420498D01*
X420615Y182656D01*
X425497D01*
Y172500D01*
D02*
G37*
G36*
X435770D02*
X427216D01*
Y174804D01*
X432626D01*
Y176797D01*
X427743D01*
Y178867D01*
X432626D01*
Y180488D01*
X427372D01*
Y182656D01*
X435770D01*
Y172500D01*
D02*
G37*
G36*
X373547D02*
X364993D01*
Y174804D01*
X370403D01*
Y176797D01*
X365521D01*
Y178867D01*
X370403D01*
Y180488D01*
X365149D01*
Y182656D01*
X373547D01*
Y172500D01*
D02*
G37*
G36*
X409795D02*
X406651D01*
Y176269D01*
X404932D01*
X404580Y176289D01*
X404268Y176308D01*
X403975Y176347D01*
X403702Y176406D01*
X403448Y176465D01*
X403214Y176543D01*
X402999Y176621D01*
X402823Y176699D01*
X402647Y176777D01*
X402510Y176855D01*
X402393Y176933D01*
X402295Y176992D01*
X402217Y177050D01*
X402159Y177090D01*
X402139Y177129D01*
X402120D01*
X401964Y177304D01*
X401807Y177480D01*
X401573Y177871D01*
X401417Y178261D01*
X401299Y178652D01*
X401221Y179004D01*
X401202Y179140D01*
Y179277D01*
X401182Y179375D01*
Y179472D01*
Y179511D01*
Y179531D01*
Y179804D01*
X401221Y180058D01*
X401319Y180527D01*
X401456Y180917D01*
X401612Y181249D01*
X401768Y181503D01*
X401905Y181679D01*
X402003Y181796D01*
X402022Y181835D01*
X402042D01*
X402217Y181972D01*
X402393Y182109D01*
X402803Y182304D01*
X403214Y182460D01*
X403643Y182558D01*
X404014Y182616D01*
X404170Y182636D01*
X404327D01*
X404444Y182656D01*
X409795D01*
Y172500D01*
D02*
G37*
G36*
X395148Y182812D02*
X395577Y182773D01*
X395968Y182695D01*
X396339Y182616D01*
X396690Y182519D01*
X397003Y182402D01*
X397296Y182265D01*
X397569Y182148D01*
X397784Y182011D01*
X397999Y181874D01*
X398175Y181757D01*
X398311Y181660D01*
X398429Y181581D01*
X398507Y181503D01*
X398546Y181464D01*
X398565Y181445D01*
X398800Y181171D01*
X399014Y180878D01*
X399190Y180566D01*
X399346Y180253D01*
X399483Y179921D01*
X399600Y179609D01*
X399698Y179296D01*
X399757Y178984D01*
X399815Y178691D01*
X399854Y178418D01*
X399893Y178183D01*
X399913Y177968D01*
X399932Y177793D01*
Y177675D01*
Y177578D01*
Y177558D01*
X399893Y176914D01*
X399815Y176347D01*
X399718Y175840D01*
X399659Y175605D01*
X399581Y175410D01*
X399522Y175215D01*
X399464Y175058D01*
X399405Y174922D01*
X399346Y174804D01*
X399307Y174707D01*
X399268Y174648D01*
X399249Y174609D01*
Y174590D01*
X398975Y174180D01*
X398663Y173828D01*
X398351Y173535D01*
X398058Y173301D01*
X397804Y173105D01*
X397608Y172969D01*
X397530Y172930D01*
X397472Y172891D01*
X397433Y172871D01*
X397413D01*
X396964Y172695D01*
X396495Y172559D01*
X396007Y172461D01*
X395558Y172402D01*
X395362Y172363D01*
X395167D01*
X394991Y172344D01*
X394855Y172324D01*
X394562D01*
X393956Y172344D01*
X393409Y172422D01*
X392941Y172520D01*
X392726Y172578D01*
X392530Y172637D01*
X392355Y172695D01*
X392198Y172754D01*
X392062Y172812D01*
X391945Y172852D01*
X391866Y172891D01*
X391808Y172930D01*
X391769Y172949D01*
X391749D01*
X391339Y173203D01*
X391007Y173496D01*
X390695Y173789D01*
X390460Y174062D01*
X390265Y174316D01*
X390128Y174512D01*
X390070Y174590D01*
X390031Y174648D01*
X390011Y174687D01*
Y174707D01*
X389816Y175156D01*
X389660Y175644D01*
X389562Y176133D01*
X389484Y176601D01*
X389464Y176816D01*
X389445Y177011D01*
X389425Y177187D01*
X389406Y177343D01*
Y177461D01*
Y177558D01*
Y177617D01*
Y177636D01*
X389425Y178086D01*
X389464Y178515D01*
X389543Y178906D01*
X389621Y179277D01*
X389718Y179609D01*
X389835Y179921D01*
X389972Y180214D01*
X390089Y180468D01*
X390226Y180703D01*
X390363Y180898D01*
X390480Y181074D01*
X390578Y181210D01*
X390656Y181328D01*
X390734Y181406D01*
X390773Y181445D01*
X390792Y181464D01*
X391066Y181699D01*
X391359Y181913D01*
X391652Y182089D01*
X391984Y182265D01*
X392296Y182382D01*
X392628Y182499D01*
X392941Y182597D01*
X393253Y182656D01*
X393546Y182714D01*
X393819Y182753D01*
X394073Y182792D01*
X394288Y182812D01*
X394464Y182831D01*
X394698D01*
X395148Y182812D01*
D02*
G37*
G36*
X572003Y359717D02*
X572147Y357292D01*
X572192Y357089D01*
X572243Y356944D01*
X572300Y356857D01*
X566700D01*
X566757Y356944D01*
X566808Y357089D01*
X566853Y357292D01*
X566892Y357552D01*
X566952Y358245D01*
X566997Y359717D01*
X567000Y360322D01*
X572000D01*
X572003Y359717D01*
D02*
G37*
G36*
X468022Y159000D02*
X464877D01*
X461440Y169156D01*
X464584D01*
X468022Y159000D01*
D02*
G37*
G36*
X491301D02*
X491458Y158805D01*
X491595Y158629D01*
X491731Y158492D01*
X491848Y158375D01*
X491965Y158277D01*
X492044Y158219D01*
X492083Y158199D01*
X492102Y158180D01*
X492259Y158102D01*
X492395Y158043D01*
X492688Y157984D01*
X492805Y157965D01*
X492903Y157945D01*
X492981D01*
X493255Y157965D01*
X493508Y157984D01*
X493723Y158024D01*
X493919Y158063D01*
X494055Y158102D01*
X494172Y158121D01*
X494251Y158160D01*
X494270D01*
X494700Y156188D01*
X494290Y156129D01*
X493919Y156090D01*
X493606Y156051D01*
X493352Y156031D01*
X493157D01*
X493020Y156012D01*
X492903D01*
X492356Y156051D01*
X491887Y156129D01*
X491458Y156227D01*
X491106Y156363D01*
X490833Y156481D01*
X490716Y156539D01*
X490618Y156598D01*
X490540Y156637D01*
X490481Y156676D01*
X490462Y156695D01*
X490442D01*
X490306Y156793D01*
X490169Y156910D01*
X489895Y157184D01*
X489622Y157477D01*
X489368Y157789D01*
X489134Y158063D01*
X488958Y158297D01*
X488899Y158395D01*
X488841Y158453D01*
X488821Y158492D01*
X488802Y158512D01*
X483216Y166343D01*
X485989D01*
X489056Y161441D01*
X488919Y166343D01*
X491907D01*
X491301Y159000D01*
D02*
G37*
G36*
X479955D02*
X476810D01*
X475990Y161461D01*
X473783Y163160D01*
X473061Y159000D01*
X469194D01*
X470912Y165328D01*
X465932Y169156D01*
X470092D01*
X474682Y165308D01*
X473373Y169156D01*
X476517D01*
X479955Y159000D01*
D02*
G37*
G36*
X143512Y74101D02*
X143698Y71913D01*
X143809Y71293D01*
X143945Y70726D01*
X144106Y70214D01*
X144291Y69756D01*
X144502Y69352D01*
X144737Y69003D01*
X137582D01*
Y60582D01*
X137261Y60947D01*
X136888Y61273D01*
X136461Y61560D01*
X135982Y61810D01*
X135450Y62020D01*
X134864Y62193D01*
X134226Y62327D01*
X133535Y62423D01*
X132792Y62481D01*
X131995Y62500D01*
Y67500D01*
X132792Y67519D01*
X133535Y67577D01*
X134226Y67673D01*
X134864Y67807D01*
X135450Y67980D01*
X135982Y68190D01*
X136461Y68440D01*
X136888Y68727D01*
X137261Y69054D01*
X137415Y69228D01*
X137498Y69352D01*
X137709Y69756D01*
X137894Y70214D01*
X138055Y70726D01*
X138191Y71293D01*
X138302Y71913D01*
X138451Y73318D01*
X138488Y74101D01*
X138500Y74939D01*
X143500D01*
X143512Y74101D01*
D02*
G37*
G36*
X120500Y62500D02*
X119550Y62440D01*
X118700Y62260D01*
X117950Y61960D01*
X117300Y61540D01*
X116750Y61000D01*
X116300Y60340D01*
X115950Y59560D01*
X115700Y58660D01*
X115550Y57640D01*
X115500Y56500D01*
X110500D01*
X110450Y57640D01*
X110300Y58660D01*
X110050Y59560D01*
X109700Y60340D01*
X109250Y61000D01*
X108700Y61540D01*
X108050Y61960D01*
X107300Y62260D01*
X106450Y62440D01*
X105500Y62500D01*
X113000Y67500D01*
X120500Y62500D01*
D02*
G37*
G36*
X453179Y159000D02*
X444625D01*
X443844Y161304D01*
X449253D01*
X448589Y163297D01*
X443707D01*
X443004Y165367D01*
X447886D01*
X447320Y166988D01*
X442066D01*
X441344Y169156D01*
X449742D01*
X453179Y159000D01*
D02*
G37*
G36*
X269143Y46700D02*
X269056Y46757D01*
X268911Y46808D01*
X268708Y46853D01*
X268448Y46892D01*
X267755Y46952D01*
X266283Y46997D01*
X265677Y47000D01*
Y52000D01*
X266283Y52003D01*
X268708Y52147D01*
X268911Y52192D01*
X269056Y52243D01*
X269143Y52300D01*
Y46700D01*
D02*
G37*
G36*
X438668Y164293D02*
X443961Y159000D01*
X440465D01*
X437340Y162261D01*
X436442Y159000D01*
X432926D01*
X434606Y164234D01*
X429782Y169156D01*
X433200D01*
X435993Y166031D01*
X436754Y169156D01*
X440211D01*
X438668Y164293D01*
D02*
G37*
G36*
X462632Y159000D02*
X454605D01*
X453765Y161500D01*
X458647D01*
X456050Y169156D01*
X459194D01*
X462632Y159000D01*
D02*
G37*
G36*
X503000D02*
X500363D01*
X499992Y160074D01*
X499875Y159840D01*
X499758Y159644D01*
X499641Y159469D01*
X499524Y159352D01*
X499445Y159254D01*
X499367Y159195D01*
X499328Y159156D01*
X499309Y159137D01*
X499114Y159039D01*
X498899Y158961D01*
X498684Y158902D01*
X498489Y158863D01*
X498313Y158844D01*
X498176Y158824D01*
X498059D01*
X497746Y158844D01*
X497434Y158902D01*
X497141Y158961D01*
X496868Y159059D01*
X496653Y159137D01*
X496496Y159195D01*
X496379Y159254D01*
X496340Y159273D01*
X496028Y159469D01*
X495735Y159684D01*
X495461Y159898D01*
X495227Y160133D01*
X495051Y160328D01*
X494895Y160484D01*
X494817Y160601D01*
X494778Y160621D01*
Y160641D01*
X494524Y160992D01*
X494290Y161363D01*
X494094Y161715D01*
X493938Y162047D01*
X493821Y162340D01*
X493762Y162457D01*
X493723Y162574D01*
X493684Y162652D01*
X493665Y162711D01*
X493645Y162750D01*
Y162769D01*
X493547Y163101D01*
X493469Y163414D01*
X493411Y163687D01*
X493372Y163961D01*
X493352Y164215D01*
Y164429D01*
Y164644D01*
X493372Y164839D01*
X493391Y164996D01*
X493430Y165132D01*
X493450Y165269D01*
X493489Y165367D01*
X493528Y165445D01*
X493547Y165504D01*
X493567Y165523D01*
Y165543D01*
X493684Y165718D01*
X493801Y165875D01*
X493938Y165992D01*
X494094Y166109D01*
X494407Y166285D01*
X494719Y166402D01*
X495012Y166461D01*
X495247Y166499D01*
X495325Y166519D01*
X495696D01*
X495930Y166480D01*
X496145Y166441D01*
X496340Y166402D01*
X496496Y166363D01*
X496614Y166324D01*
X496711Y166304D01*
X496731Y166285D01*
X496946Y166187D01*
X497160Y166089D01*
X497375Y165972D01*
X497551Y165875D01*
X497688Y165777D01*
X497805Y165699D01*
X497883Y165640D01*
X497903Y165621D01*
X496711Y169156D01*
X499563D01*
X503000Y159000D01*
D02*
G37*
G36*
X154502Y60648D02*
X154291Y60244D01*
X154106Y59786D01*
X153945Y59274D01*
X153809Y58707D01*
X153698Y58087D01*
X153649Y57628D01*
X153740Y57200D01*
X154040Y56450D01*
X154460Y55800D01*
X155000Y55250D01*
X155660Y54800D01*
X156440Y54450D01*
X157340Y54200D01*
X158360Y54050D01*
X159500Y54000D01*
Y49000D01*
X158360Y48950D01*
X157340Y48800D01*
X156440Y48550D01*
X155660Y48200D01*
X155000Y47750D01*
X154460Y47200D01*
X154040Y46550D01*
X153740Y45800D01*
X153560Y44950D01*
X153500Y44000D01*
X148500Y51500D01*
X150874Y55061D01*
X148500D01*
X148488Y55899D01*
X148302Y58087D01*
X148191Y58707D01*
X148055Y59274D01*
X147894Y59786D01*
X147709Y60244D01*
X147498Y60648D01*
X147264Y60997D01*
X154736D01*
X154502Y60648D01*
D02*
G37*
G36*
X431251Y187000D02*
X428106D01*
Y191121D01*
X427833D01*
X427677Y191101D01*
X427540Y191082D01*
X427403Y191043D01*
X427286Y191004D01*
X427208Y190945D01*
X427130Y190906D01*
X427091Y190886D01*
X427071Y190867D01*
X426974Y190789D01*
X426876Y190672D01*
X426700Y190418D01*
X426622Y190281D01*
X426564Y190183D01*
X426524Y190105D01*
X426505Y190086D01*
X424806Y187000D01*
X421251D01*
X422794Y189929D01*
X422853Y190027D01*
X422911Y190125D01*
X423068Y190320D01*
X423126Y190418D01*
X423185Y190496D01*
X423224Y190535D01*
X423244Y190554D01*
X423361Y190691D01*
X423458Y190808D01*
X423536Y190906D01*
X423595Y190984D01*
X423693Y191082D01*
X423732Y191101D01*
X423849Y191160D01*
X423966Y191238D01*
X424239Y191355D01*
X424357Y191394D01*
X424454Y191433D01*
X424532Y191472D01*
X424552D01*
X424298Y191531D01*
X424083Y191609D01*
X423888Y191668D01*
X423732Y191726D01*
X423615Y191785D01*
X423517Y191824D01*
X423458Y191863D01*
X423439D01*
X423224Y192019D01*
X423009Y192175D01*
X422853Y192351D01*
X422697Y192508D01*
X422599Y192644D01*
X422501Y192761D01*
X422462Y192840D01*
X422443Y192859D01*
X422326Y193093D01*
X422228Y193347D01*
X422169Y193601D01*
X422111Y193835D01*
X422091Y194031D01*
X422072Y194187D01*
Y194285D01*
Y194324D01*
X422091Y194675D01*
X422150Y194988D01*
X422228Y195281D01*
X422306Y195515D01*
X422404Y195710D01*
X422482Y195847D01*
X422540Y195925D01*
X422560Y195964D01*
X422755Y196199D01*
X422951Y196394D01*
X423165Y196570D01*
X423361Y196687D01*
X423536Y196784D01*
X423673Y196843D01*
X423771Y196882D01*
X423810Y196902D01*
X424122Y196980D01*
X424474Y197058D01*
X424845Y197097D01*
X425197Y197116D01*
X425509Y197136D01*
X425665Y197156D01*
X431251D01*
Y187000D01*
D02*
G37*
G36*
X420255D02*
X411701D01*
Y189304D01*
X417111D01*
Y191297D01*
X412228D01*
Y193367D01*
X417111D01*
Y194988D01*
X411858D01*
Y197156D01*
X420255D01*
Y187000D01*
D02*
G37*
G36*
X405256D02*
X402112D01*
Y191121D01*
X401839D01*
X401682Y191101D01*
X401546Y191082D01*
X401409Y191043D01*
X401292Y191004D01*
X401214Y190945D01*
X401135Y190906D01*
X401096Y190886D01*
X401077Y190867D01*
X400979Y190789D01*
X400882Y190672D01*
X400706Y190418D01*
X400628Y190281D01*
X400569Y190183D01*
X400530Y190105D01*
X400511Y190086D01*
X398811Y187000D01*
X395257D01*
X396800Y189929D01*
X396858Y190027D01*
X396917Y190125D01*
X397073Y190320D01*
X397132Y190418D01*
X397190Y190496D01*
X397230Y190535D01*
X397249Y190554D01*
X397366Y190691D01*
X397464Y190808D01*
X397542Y190906D01*
X397601Y190984D01*
X397698Y191082D01*
X397737Y191101D01*
X397854Y191160D01*
X397972Y191238D01*
X398245Y191355D01*
X398362Y191394D01*
X398460Y191433D01*
X398538Y191472D01*
X398557D01*
X398304Y191531D01*
X398089Y191609D01*
X397894Y191668D01*
X397737Y191726D01*
X397620Y191785D01*
X397522Y191824D01*
X397464Y191863D01*
X397444D01*
X397230Y192019D01*
X397015Y192175D01*
X396858Y192351D01*
X396702Y192508D01*
X396604Y192644D01*
X396507Y192761D01*
X396468Y192840D01*
X396448Y192859D01*
X396331Y193093D01*
X396234Y193347D01*
X396175Y193601D01*
X396116Y193835D01*
X396097Y194031D01*
X396077Y194187D01*
Y194285D01*
Y194324D01*
X396097Y194675D01*
X396155Y194988D01*
X396234Y195281D01*
X396312Y195515D01*
X396409Y195710D01*
X396487Y195847D01*
X396546Y195925D01*
X396566Y195964D01*
X396761Y196199D01*
X396956Y196394D01*
X397171Y196570D01*
X397366Y196687D01*
X397542Y196784D01*
X397679Y196843D01*
X397776Y196882D01*
X397815Y196902D01*
X398128Y196980D01*
X398479Y197058D01*
X398850Y197097D01*
X399202Y197116D01*
X399515Y197136D01*
X399671Y197156D01*
X405256D01*
Y187000D01*
D02*
G37*
G36*
X351607Y194500D02*
X352017Y194460D01*
X352369Y194402D01*
X352682Y194343D01*
X352916Y194285D01*
X353092Y194226D01*
X353209Y194187D01*
X353248Y194167D01*
X353443Y194070D01*
X353619Y193972D01*
X353795Y193855D01*
X353951Y193757D01*
X354088Y193660D01*
X354185Y193582D01*
X354244Y193523D01*
X354263Y193503D01*
X354439Y193347D01*
X354595Y193172D01*
X354732Y193015D01*
X354830Y192859D01*
X354927Y192722D01*
X354986Y192625D01*
X355025Y192546D01*
X355045Y192527D01*
X355162Y192234D01*
X355259Y191902D01*
X355318Y191590D01*
X355377Y191297D01*
X355396Y191023D01*
X355416Y190828D01*
Y190750D01*
Y190691D01*
Y190652D01*
Y190633D01*
X355396Y190242D01*
X355357Y189890D01*
X355318Y189597D01*
X355259Y189344D01*
X355201Y189148D01*
X355142Y188992D01*
X355123Y188914D01*
X355103Y188875D01*
X354967Y188640D01*
X354830Y188426D01*
X354693Y188230D01*
X354556Y188074D01*
X354439Y187937D01*
X354342Y187820D01*
X354263Y187762D01*
X354244Y187742D01*
X354029Y187566D01*
X353795Y187430D01*
X353560Y187312D01*
X353365Y187215D01*
X353170Y187137D01*
X353033Y187078D01*
X352935Y187059D01*
X352896Y187039D01*
X352584Y186961D01*
X352252Y186922D01*
X351939Y186883D01*
X351627Y186844D01*
X351354D01*
X351139Y186824D01*
X350943D01*
X350514Y186844D01*
X350123Y186883D01*
X349772Y186922D01*
X349498Y187000D01*
X349264Y187059D01*
X349088Y187098D01*
X348990Y187137D01*
X348951Y187156D01*
X348678Y187293D01*
X348424Y187449D01*
X348209Y187605D01*
X348014Y187742D01*
X347858Y187879D01*
X347760Y187996D01*
X347682Y188074D01*
X347662Y188094D01*
X347487Y188328D01*
X347330Y188582D01*
X347213Y188836D01*
X347096Y189070D01*
X347018Y189266D01*
X346959Y189422D01*
X346940Y189519D01*
X346920Y189558D01*
X349596Y189871D01*
X349674Y189656D01*
X349772Y189480D01*
X349869Y189324D01*
X349967Y189207D01*
X350045Y189109D01*
X350123Y189051D01*
X350162Y189012D01*
X350182Y188992D01*
X350318Y188894D01*
X350475Y188836D01*
X350787Y188758D01*
X350904Y188738D01*
X351002Y188719D01*
X351100D01*
X351334Y188738D01*
X351549Y188797D01*
X351744Y188875D01*
X351900Y188953D01*
X352017Y189031D01*
X352115Y189109D01*
X352174Y189168D01*
X352193Y189187D01*
X352330Y189383D01*
X352428Y189597D01*
X352506Y189832D01*
X352545Y190047D01*
X352584Y190242D01*
X352603Y190398D01*
Y190515D01*
Y190554D01*
X352584Y190906D01*
X352545Y191218D01*
X352467Y191492D01*
X352389Y191707D01*
X352310Y191863D01*
X352232Y191980D01*
X352193Y192058D01*
X352174Y192078D01*
X351998Y192254D01*
X351822Y192371D01*
X351627Y192468D01*
X351451Y192527D01*
X351295Y192566D01*
X351178Y192586D01*
X351061D01*
X350865Y192566D01*
X350690Y192546D01*
X350533Y192508D01*
X350416Y192468D01*
X350318Y192410D01*
X350240Y192371D01*
X350201Y192351D01*
X350182Y192332D01*
X350064Y192234D01*
X349967Y192136D01*
X349830Y191902D01*
X349772Y191804D01*
X349732Y191726D01*
X349713Y191668D01*
Y191648D01*
X347057Y192000D01*
X347233Y192429D01*
X347428Y192820D01*
X347662Y193132D01*
X347877Y193406D01*
X348073Y193601D01*
X348248Y193757D01*
X348365Y193835D01*
X348385Y193875D01*
X348405D01*
X348580Y193992D01*
X348795Y194089D01*
X349225Y194246D01*
X349674Y194363D01*
X350123Y194441D01*
X350514Y194480D01*
X350690Y194500D01*
X350846Y194519D01*
X351139D01*
X351607Y194500D01*
D02*
G37*
G36*
X488786Y187000D02*
X480232D01*
Y189304D01*
X485642D01*
Y191297D01*
X480759D01*
Y193367D01*
X485642D01*
Y194988D01*
X480388D01*
Y197156D01*
X488786D01*
Y187000D01*
D02*
G37*
G36*
X443359D02*
X440176D01*
X439649Y188680D01*
X436114D01*
X435606Y187000D01*
X432305D01*
X436114Y197156D01*
X439551D01*
X443359Y187000D01*
D02*
G37*
G36*
X359693D02*
X356880D01*
Y194343D01*
X359693D01*
Y187000D01*
D02*
G37*
G36*
X386515Y172500D02*
X383449D01*
X381672Y178886D01*
X379895Y172500D01*
X376809D01*
X374563Y182656D01*
X377532D01*
X378625Y176992D01*
X380207Y182656D01*
X383156D01*
X384718Y176992D01*
X385793Y182656D01*
X388761D01*
X386515Y172500D01*
D02*
G37*
G36*
X491684D02*
X488735D01*
Y178086D01*
X484927Y172500D01*
X481978D01*
Y182656D01*
X484927D01*
Y177011D01*
X488774Y182656D01*
X491684D01*
Y172500D01*
D02*
G37*
G36*
X342702Y194500D02*
X343092Y194480D01*
X343424Y194441D01*
X343717Y194382D01*
X343952Y194324D01*
X344108Y194285D01*
X344205Y194265D01*
X344245Y194246D01*
X344498Y194148D01*
X344733Y194011D01*
X344928Y193894D01*
X345084Y193757D01*
X345221Y193640D01*
X345319Y193543D01*
X345377Y193484D01*
X345397Y193464D01*
X345534Y193269D01*
X345631Y193054D01*
X345709Y192840D01*
X345748Y192644D01*
X345788Y192468D01*
X345807Y192332D01*
Y192254D01*
Y192215D01*
X345788Y191980D01*
X345748Y191746D01*
X345690Y191551D01*
X345612Y191375D01*
X345534Y191218D01*
X345475Y191121D01*
X345436Y191043D01*
X345416Y191023D01*
X345260Y190847D01*
X345104Y190691D01*
X344948Y190574D01*
X344791Y190457D01*
X344655Y190379D01*
X344557Y190320D01*
X344479Y190301D01*
X344459Y190281D01*
X344342Y190242D01*
X344205Y190203D01*
X343893Y190125D01*
X343561Y190047D01*
X343229Y189969D01*
X342917Y189910D01*
X342780Y189871D01*
X342663Y189851D01*
X342565Y189832D01*
X342487D01*
X342448Y189812D01*
X342428D01*
X342096Y189754D01*
X341823Y189695D01*
X341608Y189637D01*
X341452Y189597D01*
X341335Y189558D01*
X341276Y189539D01*
X341237Y189519D01*
X341217D01*
X341100Y189461D01*
X341022Y189383D01*
X340964Y189304D01*
X340925Y189226D01*
X340885Y189109D01*
Y189070D01*
Y189051D01*
X340905Y188953D01*
X340925Y188875D01*
X341003Y188719D01*
X341100Y188640D01*
X341120Y188602D01*
X341139D01*
X341256Y188523D01*
X341413Y188465D01*
X341686Y188406D01*
X341823Y188387D01*
X341920Y188367D01*
X342018D01*
X342214Y188387D01*
X342370Y188406D01*
X342506Y188445D01*
X342643Y188484D01*
X342721Y188523D01*
X342799Y188543D01*
X342838Y188582D01*
X342858D01*
X342975Y188680D01*
X343053Y188777D01*
X343210Y189031D01*
X343268Y189129D01*
X343288Y189226D01*
X343327Y189285D01*
Y189304D01*
X346119Y189031D01*
X346002Y188660D01*
X345846Y188328D01*
X345670Y188035D01*
X345495Y187801D01*
X345319Y187625D01*
X345182Y187488D01*
X345084Y187410D01*
X345045Y187391D01*
X344870Y187293D01*
X344674Y187195D01*
X344225Y187059D01*
X343756Y186961D01*
X343268Y186902D01*
X342838Y186863D01*
X342643Y186844D01*
X342487Y186824D01*
X342155D01*
X341647Y186844D01*
X341198Y186883D01*
X340827Y186941D01*
X340495Y187000D01*
X340241Y187059D01*
X340065Y187117D01*
X339948Y187156D01*
X339909Y187176D01*
X339616Y187312D01*
X339382Y187469D01*
X339167Y187625D01*
X338991Y187781D01*
X338874Y187918D01*
X338776Y188035D01*
X338718Y188113D01*
X338698Y188133D01*
X338561Y188367D01*
X338464Y188582D01*
X338405Y188797D01*
X338347Y188972D01*
X338327Y189129D01*
X338307Y189266D01*
Y189344D01*
Y189363D01*
X338327Y189597D01*
X338366Y189812D01*
X338425Y190027D01*
X338483Y190183D01*
X338561Y190340D01*
X338620Y190437D01*
X338659Y190515D01*
X338679Y190535D01*
X338835Y190730D01*
X338991Y190886D01*
X339167Y191023D01*
X339343Y191140D01*
X339499Y191218D01*
X339616Y191277D01*
X339694Y191316D01*
X339733Y191336D01*
X340026Y191433D01*
X340339Y191531D01*
X340690Y191609D01*
X341042Y191668D01*
X341335Y191726D01*
X341471Y191746D01*
X341588Y191765D01*
X341686D01*
X341764Y191785D01*
X341823D01*
X342135Y191824D01*
X342389Y191883D01*
X342604Y191922D01*
X342760Y191961D01*
X342878Y192000D01*
X342956Y192019D01*
X342995Y192039D01*
X343014D01*
X343112Y192097D01*
X343170Y192156D01*
X343249Y192293D01*
X343288Y192410D01*
Y192429D01*
Y192449D01*
X343268Y192527D01*
X343249Y192605D01*
X343170Y192742D01*
X343112Y192820D01*
X343073Y192859D01*
X342975Y192918D01*
X342878Y192957D01*
X342643Y193015D01*
X342546Y193035D01*
X342214D01*
X342057Y192996D01*
X341920Y192957D01*
X341803Y192918D01*
X341725Y192878D01*
X341647Y192840D01*
X341608Y192820D01*
X341588Y192800D01*
X341432Y192664D01*
X341315Y192488D01*
X341276Y192410D01*
X341256Y192351D01*
X341237Y192312D01*
Y192293D01*
X338561Y192566D01*
X338679Y192820D01*
X338796Y193035D01*
X338913Y193230D01*
X339030Y193386D01*
X339128Y193503D01*
X339186Y193601D01*
X339245Y193660D01*
X339264Y193679D01*
X339421Y193835D01*
X339597Y193953D01*
X339772Y194070D01*
X339948Y194148D01*
X340085Y194226D01*
X340202Y194265D01*
X340300Y194304D01*
X340319D01*
X340573Y194382D01*
X340885Y194421D01*
X341198Y194460D01*
X341510Y194500D01*
X341803D01*
X342038Y194519D01*
X342252D01*
X342702Y194500D01*
D02*
G37*
G36*
X460800Y197312D02*
X461288Y197273D01*
X461718Y197195D01*
X462069Y197136D01*
X462362Y197058D01*
X462479Y197019D01*
X462557Y196980D01*
X462636Y196960D01*
X462694Y196941D01*
X462714Y196921D01*
X462733D01*
X463046Y196765D01*
X463319Y196589D01*
X463553Y196414D01*
X463749Y196238D01*
X463885Y196062D01*
X464003Y195945D01*
X464061Y195867D01*
X464081Y195828D01*
X464237Y195554D01*
X464335Y195300D01*
X464413Y195046D01*
X464471Y194832D01*
X464510Y194636D01*
X464530Y194480D01*
Y194382D01*
Y194343D01*
X464510Y194128D01*
X464491Y193914D01*
X464393Y193543D01*
X464256Y193210D01*
X464081Y192918D01*
X463924Y192703D01*
X463788Y192527D01*
X463690Y192429D01*
X463651Y192390D01*
X463475Y192254D01*
X463280Y192117D01*
X462831Y191863D01*
X462343Y191648D01*
X461854Y191472D01*
X461620Y191394D01*
X461425Y191336D01*
X461229Y191277D01*
X461054Y191218D01*
X460917Y191199D01*
X460819Y191160D01*
X460741Y191140D01*
X460721D01*
X460507Y191082D01*
X460292Y191043D01*
X459940Y190926D01*
X459667Y190828D01*
X459452Y190750D01*
X459296Y190672D01*
X459198Y190613D01*
X459140Y190574D01*
X459120Y190554D01*
X459003Y190437D01*
X458925Y190320D01*
X458847Y190203D01*
X458808Y190086D01*
X458788Y189988D01*
X458769Y189910D01*
Y189871D01*
Y189851D01*
X458788Y189695D01*
X458827Y189558D01*
X458944Y189344D01*
X459022Y189246D01*
X459081Y189187D01*
X459120Y189148D01*
X459140Y189129D01*
X459276Y189031D01*
X459452Y188953D01*
X459608Y188894D01*
X459784Y188855D01*
X459921Y188836D01*
X460038Y188816D01*
X460155D01*
X460468Y188836D01*
X460741Y188914D01*
X460975Y189012D01*
X461171Y189129D01*
X461327Y189226D01*
X461425Y189324D01*
X461503Y189402D01*
X461522Y189422D01*
X461620Y189578D01*
X461718Y189754D01*
X461835Y190125D01*
X461874Y190281D01*
X461893Y190418D01*
X461913Y190496D01*
Y190535D01*
X464901Y190340D01*
X464862Y190066D01*
X464823Y189793D01*
X464686Y189285D01*
X464491Y188855D01*
X464295Y188484D01*
X464100Y188191D01*
X464022Y188074D01*
X463944Y187977D01*
X463885Y187898D01*
X463827Y187840D01*
X463807Y187820D01*
X463788Y187801D01*
X463592Y187625D01*
X463339Y187488D01*
X463085Y187352D01*
X462811Y187234D01*
X462225Y187059D01*
X461620Y186941D01*
X461346Y186902D01*
X461073Y186883D01*
X460839Y186863D01*
X460624Y186844D01*
X460448Y186824D01*
X460214D01*
X459686Y186844D01*
X459218Y186883D01*
X458808Y186961D01*
X458456Y187039D01*
X458163Y187098D01*
X458065Y187137D01*
X457968Y187176D01*
X457890Y187195D01*
X457831Y187215D01*
X457811Y187234D01*
X457792D01*
X457441Y187410D01*
X457148Y187605D01*
X456874Y187820D01*
X456659Y188016D01*
X456484Y188211D01*
X456366Y188348D01*
X456288Y188445D01*
X456269Y188484D01*
X456093Y188797D01*
X455956Y189129D01*
X455859Y189422D01*
X455780Y189715D01*
X455741Y189949D01*
X455722Y190144D01*
Y190203D01*
Y190261D01*
Y190281D01*
Y190301D01*
X455741Y190594D01*
X455780Y190886D01*
X455859Y191140D01*
X455917Y191355D01*
X455995Y191531D01*
X456073Y191668D01*
X456112Y191746D01*
X456132Y191785D01*
X456308Y192039D01*
X456503Y192254D01*
X456718Y192449D01*
X456933Y192605D01*
X457128Y192742D01*
X457284Y192840D01*
X457401Y192898D01*
X457421Y192918D01*
X457441D01*
X457616Y192996D01*
X457811Y193093D01*
X458261Y193250D01*
X458749Y193406D01*
X459237Y193543D01*
X459452Y193601D01*
X459667Y193660D01*
X459862Y193699D01*
X460038Y193738D01*
X460175Y193777D01*
X460272Y193796D01*
X460351Y193816D01*
X460370D01*
X460643Y193875D01*
X460878Y193953D01*
X461054Y194011D01*
X461190Y194070D01*
X461288Y194109D01*
X461366Y194148D01*
X461385Y194187D01*
X461405D01*
X461483Y194265D01*
X461522Y194343D01*
X461600Y194480D01*
X461620Y194597D01*
Y194617D01*
Y194636D01*
X461600Y194753D01*
X461581Y194871D01*
X461483Y195046D01*
X461385Y195164D01*
X461366Y195183D01*
X461346Y195203D01*
X461229Y195281D01*
X461112Y195339D01*
X460839Y195417D01*
X460721D01*
X460624Y195437D01*
X460546D01*
X460311Y195417D01*
X460097Y195398D01*
X459921Y195339D01*
X459784Y195281D01*
X459667Y195222D01*
X459569Y195183D01*
X459530Y195144D01*
X459511Y195124D01*
X459374Y194988D01*
X459257Y194832D01*
X459179Y194675D01*
X459100Y194519D01*
X459061Y194363D01*
X459022Y194246D01*
X459003Y194167D01*
Y194128D01*
X456054Y194285D01*
X456093Y194578D01*
X456171Y194832D01*
X456230Y195085D01*
X456327Y195320D01*
X456523Y195710D01*
X456737Y196023D01*
X456952Y196277D01*
X457128Y196452D01*
X457245Y196550D01*
X457265Y196589D01*
X457284D01*
X457479Y196726D01*
X457694Y196843D01*
X458163Y197019D01*
X458671Y197156D01*
X459140Y197234D01*
X459354Y197273D01*
X459569Y197292D01*
X459745Y197312D01*
X459921D01*
X460038Y197331D01*
X460233D01*
X460800Y197312D01*
D02*
G37*
G36*
X390960Y194500D02*
X391292Y194480D01*
X391605Y194421D01*
X391898Y194343D01*
X392171Y194265D01*
X392406Y194167D01*
X392640Y194070D01*
X392855Y193972D01*
X393031Y193875D01*
X393187Y193777D01*
X393343Y193679D01*
X393441Y193601D01*
X393538Y193523D01*
X393597Y193464D01*
X393636Y193445D01*
X393655Y193425D01*
X393851Y193210D01*
X394027Y192996D01*
X394183Y192761D01*
X394300Y192527D01*
X394417Y192293D01*
X394515Y192058D01*
X394652Y191629D01*
X394691Y191414D01*
X394730Y191238D01*
X394749Y191062D01*
X394769Y190926D01*
X394788Y190789D01*
Y190711D01*
Y190652D01*
Y190633D01*
X394769Y190301D01*
X394730Y189988D01*
X394671Y189695D01*
X394573Y189422D01*
X394476Y189168D01*
X394359Y188914D01*
X394241Y188699D01*
X394124Y188504D01*
X394007Y188328D01*
X393870Y188172D01*
X393773Y188035D01*
X393675Y187918D01*
X393577Y187840D01*
X393519Y187781D01*
X393480Y187742D01*
X393460Y187723D01*
X393245Y187566D01*
X393031Y187430D01*
X392542Y187195D01*
X392074Y187039D01*
X391605Y186941D01*
X391409Y186902D01*
X391214Y186863D01*
X391038Y186844D01*
X390882D01*
X390765Y186824D01*
X390589D01*
X390238Y186844D01*
X389886Y186863D01*
X389574Y186922D01*
X389281Y187000D01*
X388988Y187078D01*
X388734Y187156D01*
X388500Y187254D01*
X388304Y187371D01*
X388109Y187469D01*
X387953Y187566D01*
X387816Y187645D01*
X387699Y187723D01*
X387601Y187801D01*
X387543Y187859D01*
X387504Y187879D01*
X387484Y187898D01*
X387289Y188113D01*
X387113Y188328D01*
X386957Y188562D01*
X386820Y188797D01*
X386722Y189031D01*
X386625Y189266D01*
X386488Y189715D01*
X386449Y189910D01*
X386410Y190105D01*
X386390Y190261D01*
X386371Y190418D01*
X386351Y190535D01*
Y190613D01*
Y190672D01*
Y190691D01*
Y190965D01*
X386390Y191238D01*
X386488Y191726D01*
X386644Y192156D01*
X386801Y192527D01*
X386976Y192820D01*
X387054Y192937D01*
X387133Y193054D01*
X387191Y193132D01*
X387230Y193191D01*
X387250Y193210D01*
X387269Y193230D01*
X387484Y193464D01*
X387738Y193660D01*
X387992Y193835D01*
X388265Y193972D01*
X388539Y194109D01*
X388832Y194207D01*
X389359Y194363D01*
X389613Y194421D01*
X389847Y194460D01*
X390062Y194480D01*
X390238Y194500D01*
X390394Y194519D01*
X390609D01*
X390960Y194500D01*
D02*
G37*
G36*
X372055D02*
X372387Y194480D01*
X372700Y194421D01*
X372993Y194343D01*
X373266Y194265D01*
X373500Y194167D01*
X373735Y194070D01*
X373950Y193972D01*
X374126Y193875D01*
X374282Y193777D01*
X374438Y193679D01*
X374536Y193601D01*
X374633Y193523D01*
X374692Y193464D01*
X374731Y193445D01*
X374750Y193425D01*
X374946Y193210D01*
X375121Y192996D01*
X375278Y192761D01*
X375395Y192527D01*
X375512Y192293D01*
X375610Y192058D01*
X375746Y191629D01*
X375786Y191414D01*
X375825Y191238D01*
X375844Y191062D01*
X375864Y190926D01*
X375883Y190789D01*
Y190711D01*
Y190652D01*
Y190633D01*
X375864Y190301D01*
X375825Y189988D01*
X375766Y189695D01*
X375668Y189422D01*
X375571Y189168D01*
X375453Y188914D01*
X375336Y188699D01*
X375219Y188504D01*
X375102Y188328D01*
X374965Y188172D01*
X374868Y188035D01*
X374770Y187918D01*
X374672Y187840D01*
X374614Y187781D01*
X374575Y187742D01*
X374555Y187723D01*
X374340Y187566D01*
X374126Y187430D01*
X373637Y187195D01*
X373168Y187039D01*
X372700Y186941D01*
X372504Y186902D01*
X372309Y186863D01*
X372133Y186844D01*
X371977D01*
X371860Y186824D01*
X371684D01*
X371333Y186844D01*
X370981Y186863D01*
X370669Y186922D01*
X370376Y187000D01*
X370083Y187078D01*
X369829Y187156D01*
X369595Y187254D01*
X369399Y187371D01*
X369204Y187469D01*
X369048Y187566D01*
X368911Y187645D01*
X368794Y187723D01*
X368696Y187801D01*
X368638Y187859D01*
X368599Y187879D01*
X368579Y187898D01*
X368384Y188113D01*
X368208Y188328D01*
X368052Y188562D01*
X367915Y188797D01*
X367817Y189031D01*
X367720Y189266D01*
X367583Y189715D01*
X367544Y189910D01*
X367505Y190105D01*
X367485Y190261D01*
X367466Y190418D01*
X367446Y190535D01*
Y190613D01*
Y190672D01*
Y190691D01*
Y190965D01*
X367485Y191238D01*
X367583Y191726D01*
X367739Y192156D01*
X367895Y192527D01*
X368071Y192820D01*
X368149Y192937D01*
X368227Y193054D01*
X368286Y193132D01*
X368325Y193191D01*
X368345Y193210D01*
X368364Y193230D01*
X368579Y193464D01*
X368833Y193660D01*
X369087Y193835D01*
X369360Y193972D01*
X369634Y194109D01*
X369927Y194207D01*
X370454Y194363D01*
X370708Y194421D01*
X370942Y194460D01*
X371157Y194480D01*
X371333Y194500D01*
X371489Y194519D01*
X371704D01*
X372055Y194500D01*
D02*
G37*
G36*
X365513Y195691D02*
Y194343D01*
X366548D01*
Y192273D01*
X365513D01*
Y189676D01*
X365493Y189246D01*
X365474Y188875D01*
X365435Y188582D01*
X365396Y188328D01*
X365356Y188133D01*
X365318Y187996D01*
X365278Y187918D01*
Y187898D01*
X365181Y187703D01*
X365064Y187547D01*
X364946Y187391D01*
X364829Y187293D01*
X364732Y187195D01*
X364634Y187137D01*
X364575Y187098D01*
X364556Y187078D01*
X364341Y187000D01*
X364087Y186941D01*
X363833Y186883D01*
X363579Y186863D01*
X363345Y186844D01*
X363169Y186824D01*
X362993D01*
X362642Y186844D01*
X362290Y186863D01*
X361958Y186902D01*
X361665Y186941D01*
X361411Y186980D01*
X361197Y187000D01*
X361119Y187020D01*
X361060Y187039D01*
X361021D01*
X361236Y188992D01*
X361431Y188934D01*
X361607Y188894D01*
X361763Y188855D01*
X361880Y188836D01*
X361978D01*
X362056Y188816D01*
X362115D01*
X362232Y188836D01*
X362329Y188855D01*
X362486Y188934D01*
X362583Y189012D01*
X362603Y189051D01*
X362622Y189109D01*
X362642Y189207D01*
X362661Y189402D01*
X362681Y189500D01*
Y189578D01*
Y189637D01*
Y189656D01*
Y192273D01*
X361138D01*
Y194343D01*
X362681D01*
Y197156D01*
X365513Y195691D01*
D02*
G37*
G36*
X479888Y172500D02*
X471861D01*
Y175000D01*
X476744D01*
Y182656D01*
X479888D01*
Y172500D01*
D02*
G37*
G36*
X378003Y38717D02*
X378147Y36292D01*
X378192Y36089D01*
X378243Y35944D01*
X378300Y35857D01*
X372700D01*
X372757Y35944D01*
X372808Y36089D01*
X372853Y36292D01*
X372892Y36552D01*
X372952Y37245D01*
X372997Y38717D01*
X373000Y39323D01*
X378000D01*
X378003Y38717D01*
D02*
G37*
G36*
X115503Y30717D02*
X115647Y28292D01*
X115692Y28089D01*
X115743Y27944D01*
X115800Y27857D01*
X110200D01*
X110257Y27944D01*
X110308Y28089D01*
X110353Y28292D01*
X110392Y28552D01*
X110452Y29245D01*
X110497Y30717D01*
X110500Y31323D01*
X115500D01*
X115503Y30717D01*
D02*
G37*
G36*
X446726Y180156D02*
X443523D01*
Y172500D01*
X440379D01*
Y180156D01*
X437176D01*
Y182656D01*
X446726D01*
Y180156D01*
D02*
G37*
G36*
X451394Y172500D02*
X448250D01*
Y182656D01*
X451394D01*
Y172500D01*
D02*
G37*
G36*
X470299D02*
X467155D01*
Y182656D01*
X470299D01*
Y172500D01*
D02*
G37*
G36*
X503500Y176601D02*
X503480Y176308D01*
X503461Y176015D01*
X503422Y175723D01*
X503363Y175449D01*
X503305Y175234D01*
X503266Y175039D01*
X503246Y174922D01*
X503227Y174902D01*
Y174883D01*
X503149Y174668D01*
X503031Y174453D01*
X502914Y174238D01*
X502816Y174062D01*
X502699Y173926D01*
X502621Y173809D01*
X502563Y173730D01*
X502543Y173711D01*
X502348Y173516D01*
X502172Y173340D01*
X501996Y173184D01*
X501820Y173066D01*
X501684Y172969D01*
X501567Y172891D01*
X501488Y172852D01*
X501469Y172832D01*
X501234Y172734D01*
X501000Y172637D01*
X500746Y172559D01*
X500512Y172520D01*
X500317Y172461D01*
X500141Y172441D01*
X500043Y172422D01*
X500004D01*
X499692Y172383D01*
X499379Y172363D01*
X499106Y172344D01*
X498871D01*
X498676Y172324D01*
X498403D01*
X497934Y172344D01*
X497504Y172383D01*
X497133Y172422D01*
X496821Y172500D01*
X496547Y172559D01*
X496352Y172598D01*
X496293Y172617D01*
X496235Y172637D01*
X496215Y172656D01*
X496196D01*
X495961Y172754D01*
X495727Y172891D01*
X495512Y173027D01*
X495336Y173164D01*
X495180Y173301D01*
X495044Y173398D01*
X494965Y173477D01*
X494946Y173496D01*
X494731Y173730D01*
X494555Y173965D01*
X494399Y174199D01*
X494282Y174434D01*
X494184Y174609D01*
X494126Y174766D01*
X494087Y174863D01*
X494067Y174902D01*
X493969Y175215D01*
X493891Y175508D01*
X493852Y175801D01*
X493813Y176055D01*
X493794Y176269D01*
X493774Y176445D01*
Y176562D01*
Y176601D01*
Y182656D01*
X496899D01*
Y176445D01*
X496918Y176152D01*
X496977Y175879D01*
X497055Y175664D01*
X497133Y175469D01*
X497211Y175332D01*
X497290Y175215D01*
X497348Y175156D01*
X497368Y175137D01*
X497563Y174980D01*
X497758Y174883D01*
X497973Y174804D01*
X498168Y174746D01*
X498364Y174707D01*
X498500Y174687D01*
X498637D01*
X498930Y174707D01*
X499184Y174766D01*
X499399Y174824D01*
X499594Y174922D01*
X499731Y175000D01*
X499848Y175058D01*
X499906Y175117D01*
X499926Y175137D01*
X500082Y175332D01*
X500180Y175547D01*
X500258Y175761D01*
X500317Y175976D01*
X500356Y176152D01*
X500375Y176308D01*
Y176406D01*
Y176445D01*
Y182656D01*
X503500D01*
Y176601D01*
D02*
G37*
G36*
X464948Y172500D02*
X462370D01*
Y180234D01*
X460417Y172500D01*
X458073D01*
X456101Y180234D01*
Y172500D01*
X453523D01*
Y182656D01*
X457663D01*
X459245Y176465D01*
X460807Y182656D01*
X464948D01*
Y172500D01*
D02*
G37*
G36*
X501754Y187000D02*
X498688D01*
X496911Y193386D01*
X495133Y187000D01*
X492048D01*
X489802Y197156D01*
X492770D01*
X493864Y191492D01*
X495446Y197156D01*
X498395D01*
X499957Y191492D01*
X501031Y197156D01*
X504000D01*
X501754Y187000D01*
D02*
G37*
G36*
X474549Y189617D02*
X470447D01*
Y191804D01*
X474549D01*
Y189617D01*
D02*
G37*
G36*
X359693Y195222D02*
X356880D01*
Y197156D01*
X359693D01*
Y195222D01*
D02*
G37*
G36*
X384984Y187000D02*
X382348D01*
Y188074D01*
X382152Y187840D01*
X381957Y187645D01*
X381801Y187469D01*
X381645Y187352D01*
X381527Y187254D01*
X381430Y187195D01*
X381371Y187156D01*
X381352Y187137D01*
X381117Y187039D01*
X380883Y186961D01*
X380648Y186902D01*
X380434Y186863D01*
X380258Y186844D01*
X380102Y186824D01*
X379984D01*
X379672Y186844D01*
X379379Y186902D01*
X379106Y186961D01*
X378871Y187059D01*
X378696Y187137D01*
X378539Y187195D01*
X378461Y187254D01*
X378422Y187273D01*
X378168Y187469D01*
X377953Y187683D01*
X377758Y187898D01*
X377602Y188133D01*
X377485Y188328D01*
X377387Y188484D01*
X377328Y188602D01*
X377309Y188621D01*
Y188640D01*
X377172Y188992D01*
X377075Y189363D01*
X376996Y189715D01*
X376957Y190047D01*
X376918Y190340D01*
Y190457D01*
X376899Y190574D01*
Y190652D01*
Y190711D01*
Y190750D01*
Y190769D01*
Y191101D01*
X376938Y191414D01*
X376977Y191687D01*
X377035Y191961D01*
X377094Y192215D01*
X377172Y192429D01*
X377250Y192644D01*
X377328Y192840D01*
X377426Y192996D01*
X377504Y193132D01*
X377582Y193269D01*
X377641Y193367D01*
X377699Y193445D01*
X377738Y193503D01*
X377758Y193523D01*
X377778Y193543D01*
X377953Y193718D01*
X378129Y193875D01*
X378305Y193992D01*
X378500Y194109D01*
X378871Y194285D01*
X379223Y194402D01*
X379535Y194460D01*
X379672Y194500D01*
X379770D01*
X379867Y194519D01*
X380238D01*
X380453Y194480D01*
X380668Y194441D01*
X380844Y194402D01*
X380980Y194363D01*
X381098Y194324D01*
X381176Y194304D01*
X381195Y194285D01*
X381391Y194187D01*
X381566Y194089D01*
X381723Y193972D01*
X381859Y193875D01*
X381977Y193777D01*
X382055Y193699D01*
X382113Y193640D01*
X382133Y193621D01*
Y197156D01*
X384984D01*
Y187000D01*
D02*
G37*
G36*
X454120D02*
X450976D01*
Y191101D01*
X447558D01*
Y187000D01*
X444414D01*
Y197156D01*
X447558D01*
Y193601D01*
X450976D01*
Y197156D01*
X454120D01*
Y187000D01*
D02*
G37*
G36*
X479003Y318717D02*
X479147Y316292D01*
X479192Y316089D01*
X479243Y315944D01*
X479300Y315857D01*
X473700D01*
X473757Y315944D01*
X473808Y316089D01*
X473853Y316292D01*
X473892Y316552D01*
X473952Y317245D01*
X473997Y318717D01*
X474000Y319322D01*
X479000D01*
X479003Y318717D01*
D02*
G37*
G36*
X572243Y311056D02*
X572192Y310911D01*
X572147Y310708D01*
X572108Y310448D01*
X572048Y309755D01*
X572032Y309229D01*
X572147Y307292D01*
X572192Y307089D01*
X572243Y306944D01*
X572300Y306857D01*
X566700D01*
X566757Y306944D01*
X566808Y307089D01*
X566853Y307292D01*
X566892Y307552D01*
X566952Y308245D01*
X566968Y308770D01*
X566853Y310708D01*
X566808Y310911D01*
X566757Y311056D01*
X566700Y311143D01*
X572300D01*
X572243Y311056D01*
D02*
G37*
G36*
X76243Y320056D02*
X76192Y319911D01*
X76147Y319708D01*
X76108Y319448D01*
X76048Y318755D01*
X76003Y317283D01*
X76000Y316677D01*
X71000D01*
X70997Y317283D01*
X70853Y319708D01*
X70808Y319911D01*
X70757Y320056D01*
X70700Y320143D01*
X76300D01*
X76243Y320056D01*
D02*
G37*
G36*
X509003Y318717D02*
X509147Y316292D01*
X509192Y316089D01*
X509243Y315944D01*
X509300Y315857D01*
X503700D01*
X503757Y315944D01*
X503808Y316089D01*
X503853Y316292D01*
X503892Y316552D01*
X503952Y317245D01*
X503997Y318717D01*
X504000Y319322D01*
X509000D01*
X509003Y318717D01*
D02*
G37*
G36*
X572243Y301056D02*
X572192Y300911D01*
X572147Y300708D01*
X572108Y300448D01*
X572048Y299755D01*
X572032Y299230D01*
X572147Y297292D01*
X572192Y297089D01*
X572243Y296944D01*
X572300Y296857D01*
X566700D01*
X566757Y296944D01*
X566808Y297089D01*
X566853Y297292D01*
X566892Y297552D01*
X566952Y298245D01*
X566968Y298770D01*
X566853Y300708D01*
X566808Y300911D01*
X566757Y301056D01*
X566700Y301143D01*
X572300D01*
X572243Y301056D01*
D02*
G37*
G36*
X459012Y301101D02*
X459198Y298913D01*
X459309Y298292D01*
X459445Y297726D01*
X459606Y297214D01*
X459791Y296756D01*
X460002Y296352D01*
X460237Y296003D01*
X452764D01*
X452998Y296352D01*
X453209Y296756D01*
X453394Y297214D01*
X453555Y297726D01*
X453691Y298292D01*
X453802Y298913D01*
X453951Y300318D01*
X453988Y301101D01*
X454000Y301939D01*
X459000D01*
X459012Y301101D01*
D02*
G37*
G36*
X509243Y310056D02*
X509192Y309911D01*
X509147Y309708D01*
X509108Y309448D01*
X509048Y308755D01*
X509003Y307283D01*
X509000Y306678D01*
X504000D01*
X503997Y307283D01*
X503853Y309708D01*
X503808Y309911D01*
X503757Y310056D01*
X503700Y310143D01*
X509300D01*
X509243Y310056D01*
D02*
G37*
G36*
X479243D02*
X479192Y309911D01*
X479147Y309708D01*
X479108Y309448D01*
X479048Y308755D01*
X479003Y307283D01*
X479000Y306678D01*
X474000D01*
X473997Y307283D01*
X473853Y309708D01*
X473808Y309911D01*
X473757Y310056D01*
X473700Y310143D01*
X479300D01*
X479243Y310056D01*
D02*
G37*
G36*
X572243Y321056D02*
X572192Y320911D01*
X572147Y320708D01*
X572108Y320448D01*
X572048Y319755D01*
X572032Y319230D01*
X572147Y317292D01*
X572192Y317089D01*
X572243Y316944D01*
X572300Y316857D01*
X566700D01*
X566757Y316944D01*
X566808Y317089D01*
X566853Y317292D01*
X566892Y317552D01*
X566952Y318245D01*
X566968Y318771D01*
X566853Y320708D01*
X566808Y320911D01*
X566757Y321056D01*
X566700Y321143D01*
X572300D01*
X572243Y321056D01*
D02*
G37*
G36*
X393643Y330200D02*
X393556Y330257D01*
X393411Y330308D01*
X393208Y330353D01*
X392948Y330392D01*
X392255Y330452D01*
X390783Y330497D01*
X390177Y330500D01*
Y335500D01*
X390783Y335503D01*
X393208Y335647D01*
X393411Y335692D01*
X393556Y335743D01*
X393643Y335800D01*
Y330200D01*
D02*
G37*
G36*
X368352Y336502D02*
X368756Y336291D01*
X369214Y336106D01*
X369726Y335945D01*
X370292Y335809D01*
X370913Y335698D01*
X372318Y335549D01*
X373101Y335512D01*
X373939Y335500D01*
Y330500D01*
X373101Y330488D01*
X370913Y330302D01*
X370292Y330191D01*
X369726Y330055D01*
X369214Y329894D01*
X368756Y329709D01*
X368352Y329498D01*
X368003Y329263D01*
Y336736D01*
X368352Y336502D01*
D02*
G37*
G36*
X399444Y335743D02*
X399589Y335692D01*
X399792Y335647D01*
X400052Y335608D01*
X400745Y335548D01*
X402217Y335503D01*
X402822Y335500D01*
Y330500D01*
X402217Y330497D01*
X399792Y330353D01*
X399589Y330308D01*
X399444Y330257D01*
X399357Y330200D01*
Y335800D01*
X399444Y335743D01*
D02*
G37*
G36*
X541003Y159217D02*
X541147Y156792D01*
X541192Y156589D01*
X541243Y156444D01*
X541300Y156357D01*
X535700D01*
X535757Y156444D01*
X535808Y156589D01*
X535853Y156792D01*
X535892Y157052D01*
X535952Y157746D01*
X535997Y159217D01*
X536000Y159822D01*
X541000D01*
X541003Y159217D01*
D02*
G37*
G36*
X460002Y328648D02*
X459791Y328244D01*
X459606Y327786D01*
X459445Y327274D01*
X459309Y326708D01*
X459198Y326087D01*
X459050Y324682D01*
X459012Y323899D01*
X459000Y323061D01*
X454000D01*
X453988Y323899D01*
X453802Y326087D01*
X453691Y326708D01*
X453555Y327274D01*
X453394Y327786D01*
X453209Y328244D01*
X452998Y328648D01*
X452764Y328997D01*
X460237D01*
X460002Y328648D01*
D02*
G37*
G36*
X320743Y184556D02*
X320692Y184411D01*
X320647Y184208D01*
X320608Y183948D01*
X320548Y183255D01*
X320503Y181783D01*
X320500Y181177D01*
X315500D01*
X315497Y181783D01*
X315353Y184208D01*
X315308Y184411D01*
X315257Y184556D01*
X315200Y184643D01*
X320800D01*
X320743Y184556D01*
D02*
G37*
G36*
X572243Y331056D02*
X572192Y330911D01*
X572147Y330708D01*
X572108Y330448D01*
X572048Y329755D01*
X572032Y329229D01*
X572147Y327292D01*
X572192Y327089D01*
X572243Y326944D01*
X572300Y326857D01*
X566700D01*
X566757Y326944D01*
X566808Y327089D01*
X566853Y327292D01*
X566892Y327552D01*
X566952Y328245D01*
X566968Y328770D01*
X566853Y330708D01*
X566808Y330911D01*
X566757Y331056D01*
X566700Y331143D01*
X572300D01*
X572243Y331056D01*
D02*
G37*
G36*
X480002Y328648D02*
X479791Y328244D01*
X479606Y327786D01*
X479445Y327274D01*
X479309Y326708D01*
X479198Y326087D01*
X479049Y324682D01*
X479012Y323899D01*
X479000Y323061D01*
X474000D01*
X473988Y323899D01*
X473802Y326087D01*
X473691Y326708D01*
X473555Y327274D01*
X473394Y327786D01*
X473209Y328244D01*
X472998Y328648D01*
X472763Y328997D01*
X480236D01*
X480002Y328648D01*
D02*
G37*
G36*
X431944Y256743D02*
X432089Y256692D01*
X432292Y256647D01*
X432552Y256608D01*
X433245Y256548D01*
X434717Y256503D01*
X435323Y256500D01*
Y251500D01*
X434717Y251497D01*
X432292Y251353D01*
X432089Y251308D01*
X431944Y251257D01*
X431857Y251200D01*
Y256800D01*
X431944Y256743D01*
D02*
G37*
G36*
X572243Y261056D02*
X572192Y260911D01*
X572147Y260708D01*
X572108Y260448D01*
X572048Y259755D01*
X572003Y258283D01*
X572000Y257678D01*
X567000D01*
X566997Y258283D01*
X566853Y260708D01*
X566808Y260911D01*
X566757Y261056D01*
X566700Y261143D01*
X572300D01*
X572243Y261056D01*
D02*
G37*
G36*
X539503Y274717D02*
X539647Y272292D01*
X539692Y272089D01*
X539743Y271944D01*
X539800Y271857D01*
X534200D01*
X534257Y271944D01*
X534308Y272089D01*
X534353Y272292D01*
X534392Y272552D01*
X534452Y273245D01*
X534497Y274717D01*
X534500Y275323D01*
X539500D01*
X539503Y274717D01*
D02*
G37*
G36*
X572243Y271056D02*
X572192Y270911D01*
X572147Y270708D01*
X572108Y270448D01*
X572048Y269755D01*
X572032Y269230D01*
X572147Y267292D01*
X572192Y267089D01*
X572243Y266944D01*
X572300Y266857D01*
X566700D01*
X566757Y266944D01*
X566808Y267089D01*
X566853Y267292D01*
X566892Y267552D01*
X566952Y268245D01*
X566968Y268771D01*
X566853Y270708D01*
X566808Y270911D01*
X566757Y271056D01*
X566700Y271143D01*
X572300D01*
X572243Y271056D01*
D02*
G37*
G36*
X496444Y264743D02*
X496589Y264692D01*
X496792Y264647D01*
X497052Y264608D01*
X497745Y264548D01*
X499217Y264503D01*
X499823Y264500D01*
Y259500D01*
X499217Y259497D01*
X496792Y259353D01*
X496589Y259308D01*
X496444Y259257D01*
X496357Y259200D01*
Y264800D01*
X496444Y264743D01*
D02*
G37*
G36*
X513143Y259200D02*
X513056Y259257D01*
X512911Y259308D01*
X512708Y259353D01*
X512448Y259392D01*
X511755Y259452D01*
X510283Y259497D01*
X509678Y259500D01*
Y264500D01*
X510283Y264503D01*
X512708Y264647D01*
X512911Y264692D01*
X513056Y264743D01*
X513143Y264800D01*
Y259200D01*
D02*
G37*
G36*
X460460Y261000D02*
X460358Y260979D01*
X460219Y260912D01*
X460044Y260801D01*
X459832Y260644D01*
X459300Y260196D01*
X458227Y259188D01*
X457797Y258762D01*
X454261Y262297D01*
X454688Y262727D01*
X456300Y264544D01*
X456412Y264719D01*
X456479Y264858D01*
X456500Y264960D01*
X460460Y261000D01*
D02*
G37*
G36*
X490643Y259200D02*
X490556Y259257D01*
X490411Y259308D01*
X490208Y259353D01*
X489948Y259392D01*
X489255Y259452D01*
X487783Y259497D01*
X487178Y259500D01*
Y264500D01*
X487783Y264503D01*
X490208Y264647D01*
X490411Y264692D01*
X490556Y264743D01*
X490643Y264800D01*
Y259200D01*
D02*
G37*
G36*
X572243Y281056D02*
X572192Y280911D01*
X572147Y280708D01*
X572108Y280448D01*
X572048Y279755D01*
X572032Y279229D01*
X572147Y277292D01*
X572192Y277089D01*
X572243Y276944D01*
X572300Y276857D01*
X566700D01*
X566757Y276944D01*
X566808Y277089D01*
X566853Y277292D01*
X566892Y277552D01*
X566952Y278245D01*
X566968Y278770D01*
X566853Y280708D01*
X566808Y280911D01*
X566757Y281056D01*
X566700Y281143D01*
X572300D01*
X572243Y281056D01*
D02*
G37*
G36*
X537000Y239000D02*
X534143Y236200D01*
X534056Y236257D01*
X533911Y236308D01*
X533708Y236353D01*
X531283Y236497D01*
X530678Y236500D01*
Y241500D01*
X531283Y241503D01*
X532755Y241548D01*
X533448Y241608D01*
X533708Y241647D01*
X533911Y241692D01*
X534056Y241743D01*
X534143Y241800D01*
X537000Y239000D01*
D02*
G37*
G36*
X539944Y241743D02*
X540089Y241692D01*
X540292Y241647D01*
X540552Y241608D01*
X541245Y241548D01*
X542717Y241503D01*
X543323Y241500D01*
Y236500D01*
X542717Y236497D01*
X540292Y236353D01*
X540089Y236308D01*
X539944Y236257D01*
X539857Y236200D01*
X537000Y239000D01*
X539857Y241800D01*
X539944Y241743D01*
D02*
G37*
G36*
X490643Y289200D02*
X490556Y289257D01*
X490411Y289308D01*
X490208Y289353D01*
X489948Y289392D01*
X489255Y289452D01*
X487783Y289497D01*
X487178Y289500D01*
Y294500D01*
X487783Y294503D01*
X490208Y294647D01*
X490411Y294692D01*
X490556Y294743D01*
X490643Y294800D01*
Y289200D01*
D02*
G37*
G36*
X479012Y301101D02*
X479198Y298913D01*
X479309Y298292D01*
X479445Y297726D01*
X479606Y297214D01*
X479791Y296756D01*
X480002Y296352D01*
X480085Y296228D01*
X480239Y296054D01*
X480612Y295727D01*
X481039Y295440D01*
X481518Y295190D01*
X482051Y294980D01*
X482636Y294807D01*
X483274Y294673D01*
X483965Y294577D01*
X484708Y294519D01*
X485505Y294500D01*
Y289500D01*
X484708Y289481D01*
X483965Y289423D01*
X483274Y289327D01*
X482636Y289193D01*
X482051Y289020D01*
X481518Y288810D01*
X481039Y288560D01*
X480612Y288273D01*
X480239Y287947D01*
X479918Y287582D01*
Y296003D01*
X472763D01*
X472998Y296352D01*
X473209Y296756D01*
X473394Y297214D01*
X473555Y297726D01*
X473691Y298292D01*
X473802Y298913D01*
X473950Y300318D01*
X473988Y301101D01*
X474000Y301939D01*
X479000D01*
X479012Y301101D01*
D02*
G37*
G36*
X460002Y287648D02*
X459791Y287244D01*
X459606Y286786D01*
X459445Y286274D01*
X459309Y285707D01*
X459198Y285087D01*
X459050Y283682D01*
X459012Y282899D01*
X459000Y282061D01*
X454000D01*
X453988Y282899D01*
X453802Y285087D01*
X453691Y285707D01*
X453555Y286274D01*
X453394Y286786D01*
X453209Y287244D01*
X452998Y287648D01*
X452764Y287997D01*
X460237D01*
X460002Y287648D01*
D02*
G37*
G36*
X321743Y285056D02*
X321692Y284911D01*
X321647Y284708D01*
X321608Y284448D01*
X321548Y283755D01*
X321503Y282283D01*
X321500Y281678D01*
X316500D01*
X316497Y282283D01*
X316353Y284708D01*
X316308Y284911D01*
X316257Y285056D01*
X316200Y285143D01*
X321800D01*
X321743Y285056D01*
D02*
G37*
G36*
X572243Y291056D02*
X572192Y290911D01*
X572147Y290708D01*
X572108Y290448D01*
X572048Y289755D01*
X572032Y289229D01*
X572147Y287292D01*
X572192Y287089D01*
X572243Y286944D01*
X572300Y286857D01*
X566700D01*
X566757Y286944D01*
X566808Y287089D01*
X566853Y287292D01*
X566892Y287552D01*
X566952Y288245D01*
X566968Y288771D01*
X566853Y290708D01*
X566808Y290911D01*
X566757Y291056D01*
X566700Y291143D01*
X572300D01*
X572243Y291056D01*
D02*
G37*
G36*
X470002Y287648D02*
X469791Y287244D01*
X469606Y286786D01*
X469445Y286274D01*
X469309Y285707D01*
X469198Y285087D01*
X469050Y283682D01*
X469012Y282899D01*
X469000Y282061D01*
X464000D01*
X463988Y282899D01*
X463802Y285087D01*
X463691Y285707D01*
X463555Y286274D01*
X463394Y286786D01*
X463209Y287244D01*
X462998Y287648D01*
X462764Y287997D01*
X470236D01*
X470002Y287648D01*
D02*
G37*
G36*
X426143Y330200D02*
X426056Y330257D01*
X425911Y330308D01*
X425708Y330353D01*
X425448Y330392D01*
X424755Y330452D01*
X423283Y330497D01*
X422678Y330500D01*
Y335500D01*
X423283Y335503D01*
X425708Y335647D01*
X425911Y335692D01*
X426056Y335743D01*
X426143Y335800D01*
Y330200D01*
D02*
G37*
G36*
X110143Y101200D02*
X110056Y101257D01*
X109911Y101308D01*
X109708Y101353D01*
X109448Y101392D01*
X108755Y101452D01*
X107283Y101497D01*
X106677Y101500D01*
Y106500D01*
X107283Y106503D01*
X109708Y106647D01*
X109911Y106692D01*
X110056Y106743D01*
X110143Y106800D01*
Y101200D01*
D02*
G37*
G36*
X153512Y113101D02*
X153698Y110913D01*
X153809Y110292D01*
X153945Y109726D01*
X154106Y109214D01*
X154291Y108756D01*
X154502Y108352D01*
X154736Y108003D01*
X147264D01*
X147498Y108352D01*
X147709Y108756D01*
X147894Y109214D01*
X148055Y109726D01*
X148191Y110292D01*
X148302Y110913D01*
X148451Y112318D01*
X148488Y113101D01*
X148500Y113939D01*
X153500D01*
X153512Y113101D01*
D02*
G37*
G36*
X83944Y106743D02*
X84089Y106692D01*
X84292Y106647D01*
X84552Y106608D01*
X85246Y106548D01*
X86717Y106503D01*
X87322Y106500D01*
Y101500D01*
X86717Y101497D01*
X84292Y101353D01*
X84089Y101308D01*
X83944Y101257D01*
X83857Y101200D01*
Y106800D01*
X83944Y106743D01*
D02*
G37*
G36*
X50852Y107502D02*
X51256Y107291D01*
X51714Y107106D01*
X52226Y106945D01*
X52793Y106809D01*
X53413Y106698D01*
X54818Y106550D01*
X55601Y106512D01*
X56439Y106500D01*
Y101500D01*
X55601Y101488D01*
X53413Y101302D01*
X52793Y101191D01*
X52226Y101055D01*
X51714Y100894D01*
X51256Y100709D01*
X50852Y100498D01*
X50503Y100264D01*
Y107737D01*
X50852Y107502D01*
D02*
G37*
G36*
X78143Y101200D02*
X78056Y101257D01*
X77911Y101308D01*
X77708Y101353D01*
X77448Y101392D01*
X76754Y101452D01*
X75283Y101497D01*
X74677Y101500D01*
Y106500D01*
X75283Y106503D01*
X77708Y106647D01*
X77911Y106692D01*
X78056Y106743D01*
X78143Y106800D01*
Y101200D01*
D02*
G37*
G36*
X407002Y118648D02*
X406791Y118244D01*
X406606Y117786D01*
X406445Y117274D01*
X406309Y116708D01*
X406198Y116087D01*
X406049Y114682D01*
X406012Y113899D01*
X406000Y113061D01*
X401000D01*
X400988Y113899D01*
X400802Y116087D01*
X400691Y116708D01*
X400555Y117274D01*
X400394Y117786D01*
X400209Y118244D01*
X399998Y118648D01*
X399763Y118997D01*
X407236D01*
X407002Y118648D01*
D02*
G37*
G36*
X427239Y127053D02*
X427612Y126727D01*
X428039Y126440D01*
X428518Y126190D01*
X429050Y125979D01*
X429636Y125807D01*
X430274Y125673D01*
X430965Y125577D01*
X431708Y125519D01*
X432505Y125500D01*
Y120500D01*
X431708Y120481D01*
X430965Y120423D01*
X430274Y120327D01*
X429636Y120193D01*
X429050Y120020D01*
X428518Y119810D01*
X428039Y119560D01*
X427612Y119273D01*
X427239Y118947D01*
X427085Y118772D01*
X427002Y118648D01*
X426791Y118244D01*
X426606Y117786D01*
X426445Y117274D01*
X426309Y116708D01*
X426198Y116087D01*
X426050Y114682D01*
X426012Y113899D01*
X426000Y113061D01*
X421000D01*
X420988Y113899D01*
X420802Y116087D01*
X420691Y116708D01*
X420555Y117274D01*
X420394Y117786D01*
X420209Y118244D01*
X419998Y118648D01*
X419764Y118997D01*
X426918D01*
Y127418D01*
X427239Y127053D01*
D02*
G37*
G36*
X572243Y341056D02*
X572192Y340911D01*
X572147Y340708D01*
X572108Y340448D01*
X572048Y339755D01*
X572032Y339229D01*
X572147Y337292D01*
X572192Y337089D01*
X572243Y336944D01*
X572300Y336857D01*
X566700D01*
X566757Y336944D01*
X566808Y337089D01*
X566853Y337292D01*
X566892Y337552D01*
X566952Y338245D01*
X566968Y338771D01*
X566853Y340708D01*
X566808Y340911D01*
X566757Y341056D01*
X566700Y341143D01*
X572300D01*
X572243Y341056D01*
D02*
G37*
G36*
X479012Y342101D02*
X479198Y339913D01*
X479309Y339293D01*
X479445Y338726D01*
X479606Y338214D01*
X479791Y337756D01*
X480002Y337352D01*
X480236Y337003D01*
X472763D01*
X472998Y337352D01*
X473209Y337756D01*
X473394Y338214D01*
X473555Y338726D01*
X473691Y339293D01*
X473802Y339913D01*
X473950Y341318D01*
X473988Y342101D01*
X474000Y342939D01*
X479000D01*
X479012Y342101D01*
D02*
G37*
G36*
X469012D02*
X469198Y339913D01*
X469309Y339293D01*
X469445Y338726D01*
X469606Y338214D01*
X469791Y337756D01*
X470002Y337352D01*
X470236Y337003D01*
X462764D01*
X462998Y337352D01*
X463209Y337756D01*
X463394Y338214D01*
X463555Y338726D01*
X463691Y339293D01*
X463802Y339913D01*
X463950Y341318D01*
X463988Y342101D01*
X464000Y342939D01*
X469000D01*
X469012Y342101D01*
D02*
G37*
G36*
X406012Y93101D02*
X406198Y90913D01*
X406309Y90293D01*
X406445Y89726D01*
X406606Y89214D01*
X406791Y88756D01*
X407002Y88352D01*
X407236Y88003D01*
X400082D01*
Y79582D01*
X399761Y79947D01*
X399388Y80273D01*
X398961Y80560D01*
X398482Y80810D01*
X397950Y81020D01*
X397364Y81193D01*
X396726Y81327D01*
X396035Y81423D01*
X395292Y81481D01*
X394495Y81500D01*
Y86500D01*
X395292Y86519D01*
X396035Y86577D01*
X396726Y86673D01*
X397364Y86807D01*
X397950Y86980D01*
X398482Y87190D01*
X398961Y87440D01*
X399388Y87727D01*
X399761Y88054D01*
X399915Y88228D01*
X399998Y88352D01*
X400209Y88756D01*
X400394Y89214D01*
X400555Y89726D01*
X400691Y90293D01*
X400802Y90913D01*
X400950Y92318D01*
X400988Y93101D01*
X401000Y93939D01*
X406000D01*
X406012Y93101D01*
D02*
G37*
G36*
X449743Y90556D02*
X449692Y90411D01*
X449647Y90208D01*
X449608Y89948D01*
X449548Y89254D01*
X449503Y87783D01*
X449500Y87177D01*
X444500D01*
X444497Y87783D01*
X444353Y90208D01*
X444308Y90411D01*
X444257Y90556D01*
X444200Y90643D01*
X449800D01*
X449743Y90556D01*
D02*
G37*
G36*
X193143Y71200D02*
X193056Y71257D01*
X192911Y71308D01*
X192708Y71353D01*
X192448Y71392D01*
X191754Y71452D01*
X190283Y71497D01*
X190000Y71498D01*
X189717Y71497D01*
X187292Y71353D01*
X187089Y71308D01*
X186944Y71257D01*
X186857Y71200D01*
Y76800D01*
X186944Y76743D01*
X187089Y76692D01*
X187292Y76647D01*
X187552Y76608D01*
X188245Y76548D01*
X189717Y76503D01*
X190000Y76502D01*
X190283Y76503D01*
X192708Y76647D01*
X192911Y76692D01*
X193056Y76743D01*
X193143Y76800D01*
Y71200D01*
D02*
G37*
G36*
X417002Y79648D02*
X416791Y79244D01*
X416606Y78786D01*
X416445Y78274D01*
X416309Y77707D01*
X416198Y77087D01*
X416049Y75682D01*
X416043Y75544D01*
X416147Y73792D01*
X416192Y73589D01*
X416243Y73444D01*
X416300Y73357D01*
X410700D01*
X410757Y73444D01*
X410808Y73589D01*
X410853Y73792D01*
X410892Y74052D01*
X410952Y74746D01*
X410965Y75167D01*
X410802Y77087D01*
X410691Y77707D01*
X410555Y78274D01*
X410394Y78786D01*
X410209Y79244D01*
X409998Y79648D01*
X409763Y79997D01*
X417237D01*
X417002Y79648D01*
D02*
G37*
G36*
X383000Y81500D02*
X382050Y81440D01*
X381200Y81260D01*
X380450Y80960D01*
X379800Y80540D01*
X379250Y80000D01*
X378800Y79340D01*
X378450Y78560D01*
X378200Y77660D01*
X378050Y76640D01*
X378000Y75500D01*
X373000D01*
X372950Y76640D01*
X372800Y77660D01*
X372550Y78560D01*
X372200Y79340D01*
X371750Y80000D01*
X371200Y80540D01*
X370550Y80960D01*
X369800Y81260D01*
X368950Y81440D01*
X368000Y81500D01*
X375500Y86500D01*
X383000Y81500D01*
D02*
G37*
G36*
X164480Y108407D02*
X165007Y108111D01*
X165583Y107851D01*
X166209Y107625D01*
X166885Y107434D01*
X167610Y107278D01*
X168384Y107156D01*
X170082Y107017D01*
X171005Y107000D01*
Y101000D01*
X170082Y100983D01*
X168384Y100844D01*
X167610Y100722D01*
X166885Y100566D01*
X166209Y100375D01*
X165583Y100149D01*
X165007Y99889D01*
X164480Y99593D01*
X164469Y99586D01*
X164291Y99244D01*
X164106Y98786D01*
X163945Y98274D01*
X163809Y97707D01*
X163698Y97087D01*
X163549Y95682D01*
X163512Y94899D01*
X163500Y94061D01*
X158500D01*
X158488Y94899D01*
X158302Y97087D01*
X158191Y97707D01*
X158055Y98274D01*
X157894Y98786D01*
X157709Y99244D01*
X157498Y99648D01*
X157264Y99997D01*
X164003D01*
Y108737D01*
X164480Y108407D01*
D02*
G37*
G36*
X455643Y90700D02*
X455556Y90757D01*
X455411Y90808D01*
X455208Y90853D01*
X454948Y90892D01*
X454255Y90952D01*
X452783Y90997D01*
X452750Y90997D01*
X452717Y90997D01*
X450292Y90853D01*
X450089Y90808D01*
X449944Y90757D01*
X449857Y90700D01*
Y96300D01*
X449944Y96243D01*
X450089Y96192D01*
X450292Y96147D01*
X450552Y96108D01*
X451245Y96048D01*
X452717Y96003D01*
X452750Y96003D01*
X452783Y96003D01*
X455208Y96147D01*
X455411Y96192D01*
X455556Y96243D01*
X455643Y96300D01*
Y90700D01*
D02*
G37*
G36*
X144502Y99648D02*
X144291Y99244D01*
X144106Y98786D01*
X143945Y98274D01*
X143809Y97707D01*
X143698Y97087D01*
X143550Y95682D01*
X143512Y94899D01*
X143500Y94061D01*
X138500D01*
X138488Y94899D01*
X138302Y97087D01*
X138191Y97707D01*
X138055Y98274D01*
X137894Y98786D01*
X137709Y99244D01*
X137498Y99648D01*
X137264Y99997D01*
X144737D01*
X144502Y99648D01*
D02*
G37*
G36*
X426012Y93101D02*
X426198Y90913D01*
X426309Y90293D01*
X426445Y89726D01*
X426606Y89214D01*
X426791Y88756D01*
X427002Y88352D01*
X427237Y88003D01*
X419764D01*
X419998Y88352D01*
X420209Y88756D01*
X420394Y89214D01*
X420555Y89726D01*
X420691Y90293D01*
X420802Y90913D01*
X420951Y92318D01*
X420988Y93101D01*
X421000Y93939D01*
X426000D01*
X426012Y93101D01*
D02*
G37*
G36*
X572243Y351056D02*
X572192Y350911D01*
X572147Y350708D01*
X572108Y350448D01*
X572048Y349755D01*
X572032Y349230D01*
X572147Y347292D01*
X572192Y347089D01*
X572243Y346944D01*
X572300Y346857D01*
X566700D01*
X566757Y346944D01*
X566808Y347089D01*
X566853Y347292D01*
X566892Y347552D01*
X566952Y348245D01*
X566968Y348770D01*
X566853Y350708D01*
X566808Y350911D01*
X566757Y351056D01*
X566700Y351143D01*
X572300D01*
X572243Y351056D01*
D02*
G37*
G36*
X461444Y126243D02*
X461589Y126192D01*
X461792Y126147D01*
X462052Y126108D01*
X462745Y126048D01*
X464217Y126003D01*
X464822Y126000D01*
Y121000D01*
X464217Y120997D01*
X461792Y120853D01*
X461589Y120808D01*
X461444Y120757D01*
X461357Y120700D01*
Y126300D01*
X461444Y126243D01*
D02*
G37*
G36*
X538500Y123500D02*
X535643Y120700D01*
X535556Y120757D01*
X535411Y120808D01*
X535208Y120853D01*
X532783Y120997D01*
X532177Y121000D01*
Y126000D01*
X532783Y126003D01*
X534255Y126048D01*
X534948Y126108D01*
X535208Y126147D01*
X535411Y126192D01*
X535556Y126243D01*
X535643Y126300D01*
X538500Y123500D01*
D02*
G37*
G36*
X344944Y125743D02*
X345089Y125692D01*
X345292Y125647D01*
X345552Y125608D01*
X346245Y125548D01*
X347717Y125503D01*
X348323Y125500D01*
Y120500D01*
X347717Y120497D01*
X345292Y120353D01*
X345089Y120308D01*
X344944Y120257D01*
X344857Y120200D01*
Y125800D01*
X344944Y125743D01*
D02*
G37*
G36*
X447000Y122800D02*
X444516Y120365D01*
X441154Y120500D01*
X440336Y125500D01*
X441976Y125538D01*
X442786Y125605D01*
X443105Y125652D01*
X443368Y125706D01*
X443574Y125769D01*
X443723Y125841D01*
X443816Y125921D01*
X447000Y122800D01*
D02*
G37*
G36*
X416012Y132101D02*
X416198Y129913D01*
X416309Y129293D01*
X416445Y128726D01*
X416606Y128214D01*
X416791Y127756D01*
X417002Y127352D01*
X417237Y127003D01*
X409763D01*
X409998Y127352D01*
X410209Y127756D01*
X410394Y128214D01*
X410555Y128726D01*
X410691Y129293D01*
X410802Y129913D01*
X410951Y131318D01*
X410988Y132101D01*
X411000Y132939D01*
X416000D01*
X416012Y132101D01*
D02*
G37*
G36*
X572243Y136056D02*
X572192Y135911D01*
X572147Y135708D01*
X572108Y135448D01*
X572048Y134755D01*
X572003Y133283D01*
X572000Y132677D01*
X567000D01*
X566997Y133283D01*
X566853Y135708D01*
X566808Y135911D01*
X566757Y136056D01*
X566700Y136143D01*
X572300D01*
X572243Y136056D01*
D02*
G37*
G36*
X541444Y126243D02*
X541589Y126192D01*
X541792Y126147D01*
X542052Y126108D01*
X542745Y126048D01*
X544217Y126003D01*
X544823Y126000D01*
Y121000D01*
X544217Y120997D01*
X541792Y120853D01*
X541589Y120808D01*
X541444Y120757D01*
X541357Y120700D01*
X538500Y123500D01*
X541357Y126300D01*
X541444Y126243D01*
D02*
G37*
G36*
X456016Y120365D02*
X455951Y120391D01*
X455827Y120413D01*
X455642Y120434D01*
X454724Y120478D01*
X452806Y120498D01*
X449484Y120365D01*
X447000Y122800D01*
X450184Y125921D01*
X450277Y125841D01*
X450426Y125769D01*
X450632Y125706D01*
X450895Y125652D01*
X451214Y125605D01*
X452024Y125538D01*
X452704Y125522D01*
X454605Y125652D01*
X454868Y125706D01*
X455074Y125769D01*
X455223Y125841D01*
X455316Y125921D01*
X456016Y120365D01*
D02*
G37*
G36*
X312352Y126502D02*
X312756Y126291D01*
X313214Y126106D01*
X313726Y125945D01*
X314293Y125809D01*
X314913Y125698D01*
X316318Y125549D01*
X317101Y125512D01*
X317939Y125500D01*
Y120500D01*
X317101Y120488D01*
X314913Y120302D01*
X314293Y120191D01*
X313726Y120055D01*
X313214Y119894D01*
X312756Y119709D01*
X312352Y119498D01*
X312003Y119264D01*
Y126736D01*
X312352Y126502D01*
D02*
G37*
G36*
X378003Y117717D02*
X378147Y115292D01*
X378192Y115089D01*
X378243Y114944D01*
X378300Y114857D01*
X372700D01*
X372757Y114944D01*
X372808Y115089D01*
X372853Y115292D01*
X372892Y115552D01*
X372952Y116245D01*
X372997Y117717D01*
X373000Y118323D01*
X378000D01*
X378003Y117717D01*
D02*
G37*
G36*
X339143Y120200D02*
X339056Y120257D01*
X338911Y120308D01*
X338708Y120353D01*
X338448Y120392D01*
X337755Y120452D01*
X336283Y120497D01*
X335678Y120500D01*
Y125500D01*
X336283Y125503D01*
X338708Y125647D01*
X338911Y125692D01*
X339056Y125743D01*
X339143Y125800D01*
Y120200D01*
D02*
G37*
G36*
X435239Y335703D02*
X434812Y335273D01*
X433200Y333456D01*
X433088Y333281D01*
X433021Y333142D01*
X433000Y333040D01*
X429040Y337000D01*
X429142Y337021D01*
X429281Y337088D01*
X429456Y337199D01*
X429668Y337356D01*
X430200Y337804D01*
X431273Y338812D01*
X431703Y339239D01*
X435239Y335703D01*
D02*
G37*
%LPC*%
G36*
X497141Y164410D02*
X497043D01*
X496887Y164390D01*
X496750Y164351D01*
X496633Y164273D01*
X496536Y164215D01*
X496457Y164136D01*
X496418Y164058D01*
X496379Y164019D01*
Y164000D01*
X496321Y163824D01*
Y163629D01*
Y163414D01*
X496360Y163199D01*
X496399Y163004D01*
X496438Y162847D01*
X496457Y162750D01*
X496477Y162730D01*
Y162711D01*
X496614Y162359D01*
X496750Y162066D01*
X496887Y161832D01*
X497004Y161637D01*
X497121Y161480D01*
X497219Y161383D01*
X497278Y161324D01*
X497297Y161304D01*
X497473Y161168D01*
X497649Y161070D01*
X497805Y160992D01*
X497961Y160953D01*
X498078Y160914D01*
X498196Y160894D01*
X498274D01*
X498469Y160914D01*
X498625Y160953D01*
X498762Y161031D01*
X498860Y161109D01*
X498938Y161168D01*
X498996Y161246D01*
X499016Y161285D01*
X499035Y161304D01*
X499094Y161480D01*
X499114Y161695D01*
X499094Y161930D01*
X499055Y162164D01*
X499016Y162359D01*
X498957Y162535D01*
X498938Y162652D01*
X498918Y162672D01*
Y162691D01*
X498801Y163004D01*
X498664Y163258D01*
X498528Y163472D01*
X498411Y163668D01*
X498293Y163804D01*
X498196Y163902D01*
X498137Y163961D01*
X498117Y163980D01*
X497922Y164117D01*
X497727Y164234D01*
X497551Y164312D01*
X497395Y164351D01*
X497258Y164390D01*
X497141Y164410D01*
D02*
G37*
G36*
X428106Y195105D02*
X426720D01*
X426427Y195085D01*
X426173Y195066D01*
X425978Y195027D01*
X425802Y194968D01*
X425685Y194910D01*
X425607Y194871D01*
X425567Y194851D01*
X425548Y194832D01*
X425431Y194714D01*
X425353Y194597D01*
X425294Y194480D01*
X425255Y194343D01*
X425236Y194246D01*
X425216Y194148D01*
Y194089D01*
Y194070D01*
Y193953D01*
X425255Y193835D01*
X425314Y193660D01*
X425353Y193582D01*
X425392Y193523D01*
X425411Y193503D01*
X425431Y193484D01*
X425587Y193328D01*
X425763Y193230D01*
X425880Y193191D01*
X425919Y193172D01*
X425939D01*
X426153Y193132D01*
X426329Y193093D01*
X426485Y193074D01*
X426583Y193054D01*
X426681Y193035D01*
X428106D01*
Y195105D01*
D02*
G37*
G36*
X437871Y194519D02*
X436758Y190867D01*
X438985D01*
X437871Y194519D01*
D02*
G37*
G36*
X402112Y195105D02*
X400725D01*
X400432Y195085D01*
X400178Y195066D01*
X399983Y195027D01*
X399808Y194968D01*
X399690Y194910D01*
X399612Y194871D01*
X399573Y194851D01*
X399554Y194832D01*
X399436Y194714D01*
X399358Y194597D01*
X399300Y194480D01*
X399261Y194343D01*
X399241Y194246D01*
X399221Y194148D01*
Y194089D01*
Y194070D01*
Y193953D01*
X399261Y193835D01*
X399319Y193660D01*
X399358Y193582D01*
X399397Y193523D01*
X399417Y193503D01*
X399436Y193484D01*
X399593Y193328D01*
X399768Y193230D01*
X399886Y193191D01*
X399925Y193172D01*
X399944D01*
X400159Y193132D01*
X400335Y193093D01*
X400491Y193074D01*
X400589Y193054D01*
X400686Y193035D01*
X402112D01*
Y195105D01*
D02*
G37*
G36*
X380961Y192410D02*
X380863D01*
X380688Y192390D01*
X380531Y192351D01*
X380395Y192273D01*
X380277Y192215D01*
X380199Y192136D01*
X380121Y192058D01*
X380082Y192019D01*
X380063Y192000D01*
X379945Y191824D01*
X379867Y191629D01*
X379789Y191414D01*
X379750Y191199D01*
X379731Y191004D01*
X379711Y190847D01*
Y190750D01*
Y190730D01*
Y190711D01*
X379731Y190359D01*
X379770Y190066D01*
X379828Y189832D01*
X379887Y189637D01*
X379945Y189480D01*
X380004Y189383D01*
X380043Y189324D01*
X380063Y189304D01*
X380199Y189168D01*
X380336Y189070D01*
X380473Y188992D01*
X380609Y188953D01*
X380727Y188914D01*
X380824Y188894D01*
X380902D01*
X381098Y188914D01*
X381274Y188953D01*
X381430Y189031D01*
X381566Y189109D01*
X381664Y189168D01*
X381762Y189246D01*
X381801Y189285D01*
X381820Y189304D01*
X381938Y189480D01*
X382016Y189695D01*
X382094Y189929D01*
X382133Y190164D01*
X382152Y190359D01*
X382172Y190535D01*
Y190652D01*
Y190672D01*
Y190691D01*
X382152Y191004D01*
X382113Y191258D01*
X382055Y191472D01*
X381977Y191668D01*
X381918Y191804D01*
X381859Y191902D01*
X381820Y191961D01*
X381801Y191980D01*
X381645Y192117D01*
X381488Y192234D01*
X381332Y192312D01*
X381195Y192351D01*
X381059Y192390D01*
X380961Y192410D01*
D02*
G37*
G36*
X390648Y192586D02*
X390550D01*
X390355Y192566D01*
X390160Y192508D01*
X390003Y192429D01*
X389867Y192351D01*
X389750Y192254D01*
X389671Y192175D01*
X389613Y192117D01*
X389593Y192097D01*
X389457Y191902D01*
X389359Y191687D01*
X389281Y191433D01*
X389242Y191218D01*
X389203Y191004D01*
X389183Y190828D01*
Y190711D01*
Y190691D01*
Y190672D01*
X389203Y190320D01*
X389242Y190008D01*
X389300Y189734D01*
X389378Y189539D01*
X389457Y189363D01*
X389515Y189266D01*
X389554Y189187D01*
X389574Y189168D01*
X389730Y189012D01*
X389886Y188914D01*
X390062Y188836D01*
X390218Y188777D01*
X390355Y188738D01*
X390472Y188719D01*
X390570D01*
X390785Y188738D01*
X390980Y188797D01*
X391156Y188875D01*
X391292Y188953D01*
X391409Y189031D01*
X391488Y189109D01*
X391546Y189168D01*
X391566Y189187D01*
X391703Y189383D01*
X391800Y189617D01*
X391859Y189851D01*
X391898Y190105D01*
X391937Y190320D01*
X391956Y190496D01*
Y190613D01*
Y190633D01*
Y190652D01*
X391937Y191004D01*
X391898Y191297D01*
X391839Y191531D01*
X391761Y191746D01*
X391683Y191902D01*
X391624Y192019D01*
X391585Y192078D01*
X391566Y192097D01*
X391409Y192254D01*
X391234Y192371D01*
X391077Y192468D01*
X390902Y192527D01*
X390765Y192566D01*
X390648Y192586D01*
D02*
G37*
G36*
X360130Y180605D02*
X358744D01*
X358451Y180585D01*
X358197Y180566D01*
X358001Y180527D01*
X357826Y180468D01*
X357709Y180410D01*
X357630Y180371D01*
X357591Y180351D01*
X357572Y180332D01*
X357455Y180214D01*
X357377Y180097D01*
X357318Y179980D01*
X357279Y179843D01*
X357259Y179746D01*
X357240Y179648D01*
Y179589D01*
Y179570D01*
Y179453D01*
X357279Y179335D01*
X357337Y179160D01*
X357377Y179082D01*
X357416Y179023D01*
X357435Y179004D01*
X357455Y178984D01*
X357611Y178828D01*
X357787Y178730D01*
X357904Y178691D01*
X357943Y178672D01*
X357962D01*
X358177Y178632D01*
X358353Y178593D01*
X358509Y178574D01*
X358607Y178554D01*
X358705Y178535D01*
X360130D01*
Y180605D01*
D02*
G37*
G36*
X394737Y180449D02*
X394698D01*
X394347Y180429D01*
X394034Y180351D01*
X393780Y180234D01*
X393546Y180117D01*
X393370Y179999D01*
X393234Y179882D01*
X393156Y179804D01*
X393136Y179785D01*
X392941Y179511D01*
X392804Y179179D01*
X392687Y178828D01*
X392628Y178476D01*
X392589Y178164D01*
X392570Y178027D01*
X392550Y177910D01*
Y177812D01*
Y177734D01*
Y177695D01*
Y177675D01*
Y177363D01*
X392570Y177090D01*
X392609Y176836D01*
X392628Y176582D01*
X392687Y176367D01*
X392726Y176191D01*
X392784Y176015D01*
X392824Y175859D01*
X392882Y175723D01*
X392941Y175605D01*
X393019Y175449D01*
X393097Y175351D01*
X393116Y175312D01*
X393331Y175098D01*
X393585Y174941D01*
X393859Y174824D01*
X394093Y174746D01*
X394327Y174707D01*
X394503Y174687D01*
X394640Y174668D01*
X394679D01*
X395030Y174687D01*
X395323Y174766D01*
X395597Y174883D01*
X395812Y175000D01*
X395987Y175117D01*
X396124Y175234D01*
X396202Y175312D01*
X396222Y175332D01*
X396319Y175469D01*
X396417Y175625D01*
X396554Y175957D01*
X396651Y176328D01*
X396710Y176679D01*
X396749Y177011D01*
X396769Y177168D01*
X396788Y177285D01*
Y177402D01*
Y177480D01*
Y177519D01*
Y177539D01*
Y177812D01*
X396769Y178086D01*
X396729Y178320D01*
X396690Y178554D01*
X396651Y178750D01*
X396612Y178925D01*
X396495Y179238D01*
X396397Y179472D01*
X396300Y179628D01*
X396241Y179726D01*
X396222Y179765D01*
X395987Y179999D01*
X395753Y180156D01*
X395499Y180273D01*
X395245Y180371D01*
X395030Y180410D01*
X394855Y180429D01*
X394737Y180449D01*
D02*
G37*
G36*
X422353Y180351D02*
X421572D01*
X421142Y180332D01*
X420790Y180253D01*
X420498Y180156D01*
X420244Y180058D01*
X420068Y179941D01*
X419931Y179843D01*
X419853Y179765D01*
X419834Y179746D01*
X419736Y179628D01*
X419658Y179492D01*
X419521Y179160D01*
X419423Y178789D01*
X419345Y178418D01*
X419306Y178086D01*
Y177929D01*
X419287Y177793D01*
Y177695D01*
Y177617D01*
Y177558D01*
Y177539D01*
X419306Y177109D01*
X419326Y176758D01*
X419365Y176445D01*
X419404Y176211D01*
X419462Y176015D01*
X419501Y175879D01*
X419521Y175801D01*
X419541Y175781D01*
X419638Y175586D01*
X419736Y175429D01*
X419853Y175293D01*
X419951Y175195D01*
X420048Y175117D01*
X420107Y175058D01*
X420165Y175039D01*
X420185Y175019D01*
X420361Y174941D01*
X420576Y174902D01*
X421044Y174824D01*
X421259D01*
X421435Y174804D01*
X422353D01*
Y180351D01*
D02*
G37*
G36*
X371743Y192586D02*
X371645D01*
X371450Y192566D01*
X371255Y192508D01*
X371098Y192429D01*
X370962Y192351D01*
X370845Y192254D01*
X370766Y192175D01*
X370708Y192117D01*
X370688Y192097D01*
X370551Y191902D01*
X370454Y191687D01*
X370376Y191433D01*
X370337Y191218D01*
X370298Y191004D01*
X370278Y190828D01*
Y190711D01*
Y190691D01*
Y190672D01*
X370298Y190320D01*
X370337Y190008D01*
X370395Y189734D01*
X370473Y189539D01*
X370551Y189363D01*
X370610Y189266D01*
X370649Y189187D01*
X370669Y189168D01*
X370825Y189012D01*
X370981Y188914D01*
X371157Y188836D01*
X371313Y188777D01*
X371450Y188738D01*
X371567Y188719D01*
X371665D01*
X371880Y188738D01*
X372075Y188797D01*
X372251Y188875D01*
X372387Y188953D01*
X372504Y189031D01*
X372583Y189109D01*
X372641Y189168D01*
X372661Y189187D01*
X372797Y189383D01*
X372895Y189617D01*
X372954Y189851D01*
X372993Y190105D01*
X373032Y190320D01*
X373051Y190496D01*
Y190613D01*
Y190633D01*
Y190652D01*
X373032Y191004D01*
X372993Y191297D01*
X372934Y191531D01*
X372856Y191746D01*
X372778Y191902D01*
X372719Y192019D01*
X372680Y192078D01*
X372661Y192097D01*
X372504Y192254D01*
X372329Y192371D01*
X372172Y192468D01*
X371997Y192527D01*
X371860Y192566D01*
X371743Y192586D01*
D02*
G37*
G36*
X406651Y180585D02*
X405772D01*
X405459Y180566D01*
X405205Y180527D01*
X404991Y180468D01*
X404834Y180410D01*
X404698Y180351D01*
X404620Y180292D01*
X404580Y180253D01*
X404561Y180234D01*
X404444Y180097D01*
X404366Y179961D01*
X404307Y179843D01*
X404268Y179707D01*
X404249Y179609D01*
X404229Y179511D01*
Y179453D01*
Y179433D01*
X404249Y179257D01*
X404288Y179101D01*
X404346Y178964D01*
X404405Y178847D01*
X404483Y178750D01*
X404541Y178691D01*
X404580Y178652D01*
X404600Y178632D01*
X404756Y178535D01*
X404952Y178457D01*
X405166Y178398D01*
X405381Y178359D01*
X405577Y178340D01*
X405733Y178320D01*
X406651D01*
Y180585D01*
D02*
G37*
%LPD*%
D10*
X345000Y376000D02*
D03*
X365000D02*
D03*
X214000Y375500D02*
D03*
X235500D02*
D03*
X257000D02*
D03*
X425000Y376000D02*
D03*
X445000D02*
D03*
X385000D02*
D03*
X405000D02*
D03*
D11*
X413500Y40500D02*
D03*
Y70500D02*
D03*
X458500Y93500D02*
D03*
Y123500D02*
D03*
X447000D02*
D03*
Y93500D02*
D03*
X375500Y33000D02*
D03*
Y112000D02*
D03*
X342000Y123000D02*
D03*
Y103000D02*
D03*
X476500Y313000D02*
D03*
X506500D02*
D03*
X196000Y74000D02*
D03*
Y104000D02*
D03*
X184000D02*
D03*
Y74000D02*
D03*
X113000Y25000D02*
D03*
Y104000D02*
D03*
X81000D02*
D03*
Y84000D02*
D03*
X49000Y381000D02*
D03*
Y351000D02*
D03*
X73500Y323000D02*
D03*
Y353000D02*
D03*
X319000Y288000D02*
D03*
Y318000D02*
D03*
X318000Y187500D02*
D03*
Y217500D02*
D03*
X538500Y153500D02*
D03*
Y123500D02*
D03*
X272000Y49500D02*
D03*
X302000D02*
D03*
X537000Y269000D02*
D03*
Y239000D02*
D03*
X286000Y299000D02*
D03*
X256000D02*
D03*
Y312500D02*
D03*
X286000D02*
D03*
X187000Y296500D02*
D03*
Y375500D02*
D03*
X158000D02*
D03*
Y355500D02*
D03*
X57000Y277500D02*
D03*
X87000D02*
D03*
X57000Y265000D02*
D03*
X87000D02*
D03*
X128000Y245000D02*
D03*
Y275000D02*
D03*
X140000D02*
D03*
Y245000D02*
D03*
X131500Y195500D02*
D03*
X101500D02*
D03*
X516000Y292000D02*
D03*
Y262000D02*
D03*
X493500D02*
D03*
Y292000D02*
D03*
X460500Y265000D02*
D03*
Y245000D02*
D03*
X396500Y333000D02*
D03*
Y313000D02*
D03*
X429000Y254000D02*
D03*
Y333000D02*
D03*
X569500Y21500D02*
D03*
Y31500D02*
D03*
Y41500D02*
D03*
Y51500D02*
D03*
Y61500D02*
D03*
Y71500D02*
D03*
Y81500D02*
D03*
Y91500D02*
D03*
Y101500D02*
D03*
Y111500D02*
D03*
X559500Y21500D02*
D03*
Y31500D02*
D03*
Y41500D02*
D03*
Y51500D02*
D03*
Y61500D02*
D03*
Y71500D02*
D03*
Y81500D02*
D03*
Y91500D02*
D03*
Y101500D02*
D03*
Y111500D02*
D03*
X569500Y264000D02*
D03*
Y274000D02*
D03*
Y284000D02*
D03*
Y294000D02*
D03*
Y304000D02*
D03*
Y314000D02*
D03*
Y324000D02*
D03*
Y334000D02*
D03*
Y344000D02*
D03*
Y354000D02*
D03*
X559500Y264000D02*
D03*
Y274000D02*
D03*
Y284000D02*
D03*
Y294000D02*
D03*
Y304000D02*
D03*
Y314000D02*
D03*
Y324000D02*
D03*
Y334000D02*
D03*
Y344000D02*
D03*
Y354000D02*
D03*
X569500Y139000D02*
D03*
Y149000D02*
D03*
Y159000D02*
D03*
Y169000D02*
D03*
Y179000D02*
D03*
Y189000D02*
D03*
Y199000D02*
D03*
Y209000D02*
D03*
Y219000D02*
D03*
Y229000D02*
D03*
X559500Y139000D02*
D03*
Y149000D02*
D03*
Y159000D02*
D03*
Y169000D02*
D03*
Y179000D02*
D03*
Y189000D02*
D03*
Y199000D02*
D03*
Y209000D02*
D03*
Y219000D02*
D03*
Y229000D02*
D03*
D12*
X423500Y84000D02*
D03*
X413500D02*
D03*
X403500D02*
D03*
X423500Y123000D02*
D03*
X413500D02*
D03*
X403500D02*
D03*
X161000Y65000D02*
D03*
X151000D02*
D03*
X141000D02*
D03*
X161000Y104000D02*
D03*
X151000D02*
D03*
X141000D02*
D03*
X271500Y342000D02*
D03*
X261500D02*
D03*
X251500D02*
D03*
X86500Y377500D02*
D03*
X76500D02*
D03*
X66500D02*
D03*
X136500Y221000D02*
D03*
X126500D02*
D03*
X116500D02*
D03*
X476500Y292000D02*
D03*
X466500D02*
D03*
X456500D02*
D03*
X476500Y333000D02*
D03*
X466500D02*
D03*
X456500D02*
D03*
D13*
X526500Y335500D02*
D03*
X516500D02*
D03*
X506500D02*
D03*
X215500Y312500D02*
D03*
X225500D02*
D03*
X235500D02*
D03*
X214000Y350000D02*
D03*
X234000D02*
D03*
X101500Y265000D02*
D03*
X116500Y275000D02*
D03*
Y255000D02*
D03*
X162500Y275000D02*
D03*
X172500Y260000D02*
D03*
X152500D02*
D03*
X62500Y200500D02*
D03*
X72500D02*
D03*
X82500D02*
D03*
X81000Y65000D02*
D03*
Y45000D02*
D03*
X141000Y36500D02*
D03*
X151000D02*
D03*
X161000D02*
D03*
X342000Y84000D02*
D03*
Y64000D02*
D03*
X447500Y50500D02*
D03*
Y60500D02*
D03*
Y70500D02*
D03*
D14*
X227000Y94000D02*
D03*
Y104000D02*
D03*
X73500Y302500D02*
D03*
Y312500D02*
D03*
X319000Y267000D02*
D03*
Y277000D02*
D03*
X318000Y166500D02*
D03*
Y176500D02*
D03*
X538500Y174500D02*
D03*
Y164500D02*
D03*
X251000Y49500D02*
D03*
X261000D02*
D03*
X537000Y290000D02*
D03*
Y280000D02*
D03*
X306500Y346000D02*
D03*
Y356000D02*
D03*
X30000Y218000D02*
D03*
Y228000D02*
D03*
X286500Y207500D02*
D03*
Y217500D02*
D03*
X504000Y229000D02*
D03*
Y239000D02*
D03*
X487500Y113500D02*
D03*
Y123500D02*
D03*
D15*
X253000Y217500D02*
D03*
X193000D02*
D03*
D16*
X14500Y361000D02*
D03*
Y381000D02*
D03*
Y321000D02*
D03*
Y341000D02*
D03*
X118500Y291000D02*
D03*
Y381000D02*
D03*
D17*
X88300Y228000D02*
D03*
X81600Y242500D02*
D03*
X74900Y228000D02*
D03*
X61500D02*
D03*
X68200Y242500D02*
D03*
D18*
X168000Y197500D02*
D03*
Y217500D02*
D03*
D19*
X289000Y123000D02*
D03*
X309000D02*
D03*
X27500Y104000D02*
D03*
X47500D02*
D03*
X345000Y333000D02*
D03*
X365000D02*
D03*
D20*
X17500Y30500D02*
D03*
X526500Y30000D02*
D03*
X474500Y375500D02*
D03*
X18000Y292500D02*
D03*
X368000Y270500D02*
D03*
D21*
X157500Y245000D02*
X172500Y260000D01*
X140000Y245000D02*
X157500D01*
X30000Y279005D02*
X41995Y291000D01*
X118500D01*
X30000Y228000D02*
Y279005D01*
X158000Y375500D02*
X187000D01*
X235500D02*
Y384500D01*
X257000Y370500D02*
Y375500D01*
Y370500D02*
X271500Y356000D01*
Y342000D02*
Y356000D01*
X306500D01*
X325000D02*
X345000Y376000D01*
Y385000D01*
X425500Y376500D02*
Y385500D01*
X118500Y336000D02*
X158000Y375500D01*
X118500Y291000D02*
Y336000D01*
X306500Y356000D02*
X319000D01*
X325000D01*
X365000Y333000D02*
X396500D01*
X429000D01*
X466500D02*
Y345500D01*
X429000Y333000D02*
X443000Y347000D01*
X465000D01*
X466500Y345500D01*
X456500Y292000D02*
Y333000D01*
X476500Y313000D02*
Y333000D01*
Y292000D02*
Y313000D01*
X506500D02*
Y335500D01*
X516500D01*
X429000Y254000D02*
X449500D01*
X460500Y265000D01*
X456500Y269000D02*
X460500Y265000D01*
X456500Y269000D02*
Y292000D01*
X476500D02*
X493500D01*
X466500Y280000D02*
Y292000D01*
Y280000D02*
X484500Y262000D01*
X493500D01*
X476500Y333000D02*
Y350000D01*
X501000Y374500D01*
X557000D01*
X569500Y362000D01*
Y264000D02*
Y274000D01*
Y284000D01*
Y294000D01*
Y304000D01*
Y314000D01*
Y324000D01*
Y334000D01*
Y344000D01*
Y354000D01*
Y362000D01*
X504000Y239000D02*
X548500D01*
X556500Y247000D01*
X566000D01*
X569500Y250500D01*
Y264000D01*
X506500Y301000D02*
Y313000D01*
X505000Y299500D02*
X506500Y301000D01*
X505000Y262250D02*
Y299500D01*
X504750Y262000D02*
X505000Y262250D01*
X493500Y262000D02*
X504750D01*
X516000D01*
X47500Y104000D02*
X81000D01*
X113000D01*
X118000D01*
X130000Y116000D01*
X149500D01*
X151000Y114500D01*
Y104000D02*
Y114500D01*
X141000Y65000D02*
Y104000D01*
X161000Y65000D02*
Y104000D01*
X151000Y36500D02*
X161000D01*
X184000Y74000D02*
X196000D01*
X184000Y66500D02*
Y74000D01*
X169000Y51500D02*
X184000Y66500D01*
X151000Y51500D02*
X169000D01*
X151000Y36500D02*
Y51500D01*
Y65000D01*
X113000D02*
X141000D01*
X113000Y25000D02*
Y65000D01*
X81000D02*
X113000D01*
X309000Y123000D02*
X342000D01*
X406500Y140000D02*
X413500Y133000D01*
Y123000D02*
Y133000D01*
X403500Y84000D02*
Y123000D01*
X423500Y84000D02*
Y123000D01*
X413500Y70500D02*
Y84000D01*
X379000Y123000D02*
X396000Y140000D01*
X406500D01*
X375500Y112000D02*
Y122500D01*
X376000Y123000D01*
X342000D02*
X376000D01*
X379000D01*
X375500Y33000D02*
Y84000D01*
X342000D02*
X375500D01*
X403500D01*
X413500Y70500D02*
X447500D01*
Y60500D02*
Y70500D01*
X458000Y123000D02*
X458500Y123500D01*
X487500D01*
X423500Y123000D02*
X458000D01*
X447000Y93500D02*
X458500D01*
X447000Y71000D02*
Y93500D01*
Y71000D02*
X447500Y70500D01*
X73500Y312500D02*
Y323000D01*
X319000Y277000D02*
Y288000D01*
X318000Y176500D02*
Y187500D01*
X538500Y153500D02*
Y164500D01*
X261000Y49500D02*
X272000D01*
X537000Y269000D02*
Y280000D01*
X87000Y265000D02*
Y277500D01*
Y265000D02*
X101500D01*
X57000D02*
X68200Y253800D01*
Y242500D02*
Y253800D01*
X116500Y275000D02*
X128000D01*
X140000D01*
X162500D01*
X132500Y260000D02*
X152500D01*
X128000Y255500D02*
X132500Y260000D01*
X128000Y245000D02*
Y255500D01*
X140000Y233500D02*
Y245000D01*
X136500Y230000D02*
X140000Y233500D01*
X136500Y221000D02*
Y230000D01*
X116500Y233500D02*
X128000Y245000D01*
X116500Y221000D02*
Y233500D01*
X30000Y228000D02*
X61500D01*
X81600Y242500D02*
X98500D01*
X101500Y239500D01*
X62500Y200500D02*
X72500D01*
Y210000D01*
X76000Y213500D01*
X101500D01*
Y195500D02*
Y213500D01*
Y239500D01*
X126500Y213500D02*
Y221000D01*
Y213500D02*
X133500Y206500D01*
X157000D01*
X168000Y217500D01*
X193000D01*
X253000Y152500D02*
X282000Y123500D01*
X288500D01*
X289000Y123000D01*
X82500Y164000D02*
Y200500D01*
Y164000D02*
X253000D01*
X27500Y104000D02*
Y110000D01*
X82250Y164750D01*
X73500Y353000D02*
X101500D01*
X118500Y336000D01*
X172500Y260000D02*
X179500Y267000D01*
Y282500D01*
X171000Y291000D02*
X179500Y282500D01*
X118500Y291000D02*
X171000D01*
X253000Y217500D02*
X286500D01*
X253000Y152500D02*
Y164000D01*
Y217500D01*
X319000Y333000D02*
Y356000D01*
Y333000D02*
X345000D01*
X319000Y318000D02*
Y333000D01*
X286500Y217500D02*
X318000D01*
X487500Y123500D02*
X562000D01*
X569500Y131000D01*
Y139000D01*
X345000Y385000D02*
X350000Y390000D01*
X385000D01*
Y376000D02*
Y390000D01*
X421000D01*
X425500Y385500D01*
X187000Y375500D02*
X199000Y387500D01*
X232500D01*
X235500Y384500D01*
D22*
X14500Y381000D02*
X49000D01*
X14500Y341000D02*
X32000D01*
X42000Y351000D01*
X49000D01*
X112500Y367500D02*
X118500Y373500D01*
Y381000D01*
X214000Y350000D02*
Y375500D01*
X251500Y342000D02*
Y351500D01*
X241500Y361500D02*
X251500Y351500D01*
X234000Y361500D02*
X241500D01*
X220000Y375500D02*
X234000Y361500D01*
X214000Y375500D02*
X220000D01*
X203000Y350000D02*
X214000D01*
X187000Y334000D02*
X203000Y350000D01*
X187000Y296500D02*
Y334000D01*
X261500Y318000D02*
Y342000D01*
X256000Y312500D02*
X261500Y318000D01*
X225500Y312500D02*
X235500D01*
X256000D01*
Y299000D02*
Y312500D01*
X286000Y299000D02*
Y312500D01*
Y319500D01*
X271500Y334000D02*
X286000Y319500D01*
X271500Y334000D02*
Y342000D01*
X385000Y376000D02*
X385500Y376500D01*
X425000Y376000D02*
X425500Y376500D01*
X49000Y351000D02*
X52000D01*
X67000Y366000D01*
Y381000D01*
X77000Y370000D02*
Y381000D01*
Y370000D02*
X79500Y367500D01*
X112500D01*
X86500Y377500D02*
Y384500D01*
X82500Y388500D02*
X86500Y384500D01*
X56500Y388500D02*
X82500D01*
X49000Y381000D02*
X56500Y388500D01*
D23*
X196000Y104000D02*
X227000D01*
X161000D02*
X184000D01*
X196000D01*
X227000D02*
X248000D01*
X569500Y12000D02*
Y21500D01*
X248000Y104000D02*
X342500Y9500D01*
X567000D01*
X569500Y12000D01*
M02*
