G04 Layer_Physical_Order=2*
G04 Layer_Color=16711680*
%FSLAX44Y44*%
%MOMM*%
G71*
G01*
G75*
%ADD10C,2.2860*%
%ADD11C,1.5240*%
%ADD12C,1.0160*%
%ADD13R,1.9050X25.4000*%
%ADD14R,1.9050X27.3050*%
G04:AMPARAMS|DCode=15|XSize=2.032mm|YSize=2.032mm|CornerRadius=0.508mm|HoleSize=0mm|Usage=FLASHONLY|Rotation=90.000|XOffset=0mm|YOffset=0mm|HoleType=Round|Shape=RoundedRectangle|*
%AMROUNDEDRECTD15*
21,1,2.0320,1.0160,0,0,90.0*
21,1,1.0160,2.0320,0,0,90.0*
1,1,1.0160,0.5080,0.5080*
1,1,1.0160,0.5080,-0.5080*
1,1,1.0160,-0.5080,-0.5080*
1,1,1.0160,-0.5080,0.5080*
%
%ADD15ROUNDEDRECTD15*%
G04:AMPARAMS|DCode=16|XSize=2.032mm|YSize=2.54mm|CornerRadius=0.508mm|HoleSize=0mm|Usage=FLASHONLY|Rotation=0.000|XOffset=0mm|YOffset=0mm|HoleType=Round|Shape=RoundedRectangle|*
%AMROUNDEDRECTD16*
21,1,2.0320,1.5240,0,0,0.0*
21,1,1.0160,2.5400,0,0,0.0*
1,1,1.0160,0.5080,-0.7620*
1,1,1.0160,-0.5080,-0.7620*
1,1,1.0160,-0.5080,0.7620*
1,1,1.0160,0.5080,0.7620*
%
%ADD16ROUNDEDRECTD16*%
G04:AMPARAMS|DCode=17|XSize=1.778mm|YSize=1.778mm|CornerRadius=0.4445mm|HoleSize=0mm|Usage=FLASHONLY|Rotation=0.000|XOffset=0mm|YOffset=0mm|HoleType=Round|Shape=RoundedRectangle|*
%AMROUNDEDRECTD17*
21,1,1.7780,0.8890,0,0,0.0*
21,1,0.8890,1.7780,0,0,0.0*
1,1,0.8890,0.4445,-0.4445*
1,1,0.8890,-0.4445,-0.4445*
1,1,0.8890,-0.4445,0.4445*
1,1,0.8890,0.4445,0.4445*
%
%ADD17ROUNDEDRECTD17*%
G04:AMPARAMS|DCode=18|XSize=2.032mm|YSize=2.032mm|CornerRadius=0.508mm|HoleSize=0mm|Usage=FLASHONLY|Rotation=0.000|XOffset=0mm|YOffset=0mm|HoleType=Round|Shape=RoundedRectangle|*
%AMROUNDEDRECTD18*
21,1,2.0320,1.0160,0,0,0.0*
21,1,1.0160,2.0320,0,0,0.0*
1,1,1.0160,0.5080,-0.5080*
1,1,1.0160,-0.5080,-0.5080*
1,1,1.0160,-0.5080,0.5080*
1,1,1.0160,0.5080,0.5080*
%
%ADD18ROUNDEDRECTD18*%
G04:AMPARAMS|DCode=19|XSize=2.54mm|YSize=2.54mm|CornerRadius=0.635mm|HoleSize=0mm|Usage=FLASHONLY|Rotation=90.000|XOffset=0mm|YOffset=0mm|HoleType=Round|Shape=RoundedRectangle|*
%AMROUNDEDRECTD19*
21,1,2.5400,1.2700,0,0,90.0*
21,1,1.2700,2.5400,0,0,90.0*
1,1,1.2700,0.6350,0.6350*
1,1,1.2700,0.6350,-0.6350*
1,1,1.2700,-0.6350,-0.6350*
1,1,1.2700,-0.6350,0.6350*
%
%ADD19ROUNDEDRECTD19*%
%ADD20P,1.6496X8X292.5*%
%ADD21P,1.6496X8X22.5*%
%ADD22P,5.4120X8X22.5*%
G04:AMPARAMS|DCode=23|XSize=3.048mm|YSize=3.556mm|CornerRadius=0.762mm|HoleSize=0mm|Usage=FLASHONLY|Rotation=0.000|XOffset=0mm|YOffset=0mm|HoleType=Round|Shape=RoundedRectangle|*
%AMROUNDEDRECTD23*
21,1,3.0480,2.0320,0,0,0.0*
21,1,1.5240,3.5560,0,0,0.0*
1,1,1.5240,0.7620,-1.0160*
1,1,1.5240,-0.7620,-1.0160*
1,1,1.5240,-0.7620,1.0160*
1,1,1.5240,0.7620,1.0160*
%
%ADD23ROUNDEDRECTD23*%
G04:AMPARAMS|DCode=24|XSize=2.54mm|YSize=2.54mm|CornerRadius=0.635mm|HoleSize=0mm|Usage=FLASHONLY|Rotation=0.000|XOffset=0mm|YOffset=0mm|HoleType=Round|Shape=RoundedRectangle|*
%AMROUNDEDRECTD24*
21,1,2.5400,1.2700,0,0,0.0*
21,1,1.2700,2.5400,0,0,0.0*
1,1,1.2700,0.6350,-0.6350*
1,1,1.2700,-0.6350,-0.6350*
1,1,1.2700,-0.6350,0.6350*
1,1,1.2700,0.6350,0.6350*
%
%ADD24ROUNDEDRECTD24*%
G04:AMPARAMS|DCode=25|XSize=2.286mm|YSize=2.794mm|CornerRadius=0.5715mm|HoleSize=0mm|Usage=FLASHONLY|Rotation=0.000|XOffset=0mm|YOffset=0mm|HoleType=Round|Shape=RoundedRectangle|*
%AMROUNDEDRECTD25*
21,1,2.2860,1.6510,0,0,0.0*
21,1,1.1430,2.7940,0,0,0.0*
1,1,1.1430,0.5715,-0.8255*
1,1,1.1430,-0.5715,-0.8255*
1,1,1.1430,-0.5715,0.8255*
1,1,1.1430,0.5715,0.8255*
%
%ADD25ROUNDEDRECTD25*%
G04:AMPARAMS|DCode=26|XSize=1.778mm|YSize=1.778mm|CornerRadius=0.4445mm|HoleSize=0mm|Usage=FLASHONLY|Rotation=90.000|XOffset=0mm|YOffset=0mm|HoleType=Round|Shape=RoundedRectangle|*
%AMROUNDEDRECTD26*
21,1,1.7780,0.8890,0,0,90.0*
21,1,0.8890,1.7780,0,0,90.0*
1,1,0.8890,0.4445,0.4445*
1,1,0.8890,0.4445,-0.4445*
1,1,0.8890,-0.4445,-0.4445*
1,1,0.8890,-0.4445,0.4445*
%
%ADD26ROUNDEDRECTD26*%
G04:AMPARAMS|DCode=27|XSize=3.048mm|YSize=3.048mm|CornerRadius=0.762mm|HoleSize=0mm|Usage=FLASHONLY|Rotation=270.000|XOffset=0mm|YOffset=0mm|HoleType=Round|Shape=RoundedRectangle|*
%AMROUNDEDRECTD27*
21,1,3.0480,1.5240,0,0,270.0*
21,1,1.5240,3.0480,0,0,270.0*
1,1,1.5240,-0.7620,-0.7620*
1,1,1.5240,-0.7620,0.7620*
1,1,1.5240,0.7620,0.7620*
1,1,1.5240,0.7620,-0.7620*
%
%ADD27ROUNDEDRECTD27*%
%ADD28C,2.5400*%
%ADD29C,1.2700*%
G36*
X1096985Y162200D02*
X1093196D01*
Y152400D01*
X1090062D01*
Y162200D01*
X1086273D01*
Y164541D01*
X1096985D01*
Y162200D01*
D02*
G37*
G36*
X1105436Y162378D02*
X1103452D01*
Y154562D01*
X1105436D01*
Y152400D01*
X1098334D01*
Y154562D01*
X1100318D01*
Y162378D01*
X1098334D01*
Y164541D01*
X1105436D01*
Y162378D01*
D02*
G37*
G36*
X1084389Y152400D02*
X1075601D01*
Y154741D01*
X1081254D01*
Y157756D01*
X1076017D01*
Y160097D01*
X1081254D01*
Y162200D01*
X1075601D01*
Y164541D01*
X1084389D01*
Y152400D01*
D02*
G37*
G36*
X1053403D02*
X1050268D01*
Y156348D01*
X1048324D01*
X1047848Y156368D01*
X1047412Y156407D01*
X1047035Y156467D01*
X1046717Y156526D01*
X1046460Y156586D01*
X1046261Y156645D01*
X1046142Y156685D01*
X1046102Y156705D01*
X1045785Y156863D01*
X1045468Y157042D01*
X1045210Y157220D01*
X1044972Y157399D01*
X1044773Y157558D01*
X1044615Y157677D01*
X1044535Y157756D01*
X1044496Y157796D01*
X1044297Y157994D01*
X1044138Y158212D01*
X1044000Y158431D01*
X1043881Y158629D01*
X1043801Y158807D01*
X1043742Y158966D01*
X1043702Y159045D01*
X1043682Y159085D01*
X1043583Y159383D01*
X1043504Y159680D01*
X1043464Y159938D01*
X1043424Y160196D01*
X1043404Y160394D01*
X1043385Y160553D01*
Y160652D01*
Y160692D01*
X1043404Y161069D01*
X1043444Y161426D01*
X1043504Y161724D01*
X1043583Y161982D01*
X1043662Y162200D01*
X1043722Y162358D01*
X1043762Y162458D01*
X1043782Y162497D01*
X1043940Y162775D01*
X1044119Y163013D01*
X1044317Y163211D01*
X1044496Y163390D01*
X1044654Y163529D01*
X1044793Y163648D01*
X1044873Y163707D01*
X1044912Y163727D01*
X1045388Y163985D01*
X1045607Y164084D01*
X1045825Y164183D01*
X1046023Y164243D01*
X1046162Y164283D01*
X1046261Y164322D01*
X1046301D01*
X1046618Y164402D01*
X1046936Y164441D01*
X1047273Y164481D01*
X1047570Y164521D01*
X1047848D01*
X1048066Y164541D01*
X1053403D01*
Y152400D01*
D02*
G37*
G36*
X1072982D02*
X1068182D01*
X1067685Y152440D01*
X1067269Y152459D01*
X1066912Y152499D01*
X1066614Y152539D01*
X1066475Y152559D01*
X1066376D01*
X1066297Y152578D01*
X1066237Y152598D01*
X1066198D01*
X1065801Y152698D01*
X1065444Y152817D01*
X1065107Y152936D01*
X1064809Y153055D01*
X1064571Y153174D01*
X1064392Y153273D01*
X1064274Y153332D01*
X1064234Y153352D01*
X1063817Y153650D01*
X1063440Y153967D01*
X1063103Y154304D01*
X1062825Y154642D01*
X1062587Y154939D01*
X1062429Y155177D01*
X1062369Y155276D01*
X1062329Y155336D01*
X1062290Y155376D01*
Y155395D01*
X1062032Y155911D01*
X1061833Y156447D01*
X1061695Y156963D01*
X1061595Y157439D01*
X1061556Y157637D01*
X1061536Y157835D01*
X1061516Y158014D01*
Y158173D01*
X1061496Y158292D01*
Y158371D01*
Y158431D01*
Y158450D01*
X1061536Y159085D01*
X1061615Y159680D01*
X1061734Y160196D01*
X1061794Y160434D01*
X1061853Y160632D01*
X1061933Y160831D01*
X1061992Y161009D01*
X1062052Y161148D01*
X1062111Y161267D01*
X1062171Y161367D01*
X1062191Y161446D01*
X1062230Y161486D01*
Y161505D01*
X1062528Y161962D01*
X1062845Y162378D01*
X1063163Y162735D01*
X1063480Y163033D01*
X1063778Y163271D01*
X1063996Y163430D01*
X1064095Y163489D01*
X1064155Y163529D01*
X1064194Y163568D01*
X1064214D01*
X1064511Y163727D01*
X1064809Y163866D01*
X1065107Y164005D01*
X1065384Y164104D01*
X1065642Y164183D01*
X1065841Y164243D01*
X1065920Y164263D01*
X1065980D01*
X1065999Y164283D01*
X1066019D01*
X1066436Y164362D01*
X1066872Y164441D01*
X1067309Y164481D01*
X1067705Y164501D01*
X1068043Y164521D01*
X1068201Y164541D01*
X1072982D01*
Y152400D01*
D02*
G37*
G36*
X1130391Y162378D02*
X1128408D01*
Y154562D01*
X1130391D01*
Y152400D01*
X1123290D01*
Y154562D01*
X1125274D01*
Y162378D01*
X1123290D01*
Y164541D01*
X1130391D01*
Y162378D01*
D02*
G37*
G36*
X1154653Y152400D02*
X1151776D01*
Y160732D01*
X1146638Y152400D01*
X1143603D01*
Y164541D01*
X1146480D01*
Y157578D01*
X1150923Y164541D01*
X1154653D01*
Y152400D01*
D02*
G37*
G36*
X1120731D02*
X1117755D01*
Y160513D01*
X1115533Y155257D01*
X1113371D01*
X1111129Y160513D01*
Y152400D01*
X1107995D01*
Y164541D01*
X1111665D01*
X1114363Y158450D01*
X1117081Y164541D01*
X1120731D01*
Y152400D01*
D02*
G37*
G36*
X1024718D02*
X1021246D01*
X1019124Y160295D01*
X1016922Y152400D01*
X1013470D01*
X1010197Y164541D01*
X1013371D01*
X1015335Y156169D01*
X1017477Y164541D01*
X1020611D01*
X1022853Y156169D01*
X1024718Y164541D01*
X1027971D01*
X1024718Y152400D01*
D02*
G37*
G36*
X1140509D02*
X1131740D01*
Y154741D01*
X1137374D01*
Y164541D01*
X1140509D01*
Y152400D01*
D02*
G37*
G36*
X1168400Y156764D02*
X1168380Y156348D01*
X1168341Y155971D01*
X1168281Y155614D01*
X1168182Y155276D01*
X1168083Y154979D01*
X1167964Y154701D01*
X1167845Y154443D01*
X1167706Y154205D01*
X1167587Y154007D01*
X1167468Y153828D01*
X1167349Y153670D01*
X1167249Y153551D01*
X1167150Y153451D01*
X1167091Y153392D01*
X1167051Y153352D01*
X1167031Y153332D01*
X1166753Y153114D01*
X1166456Y152936D01*
X1166158Y152777D01*
X1165821Y152638D01*
X1165484Y152539D01*
X1165147Y152440D01*
X1164512Y152301D01*
X1164194Y152241D01*
X1163917Y152202D01*
X1163659Y152182D01*
X1163441Y152162D01*
X1163262Y152142D01*
X1163004D01*
X1162508Y152162D01*
X1162052Y152202D01*
X1161635Y152261D01*
X1161239Y152321D01*
X1160882Y152420D01*
X1160544Y152519D01*
X1160247Y152618D01*
X1159969Y152737D01*
X1159731Y152856D01*
X1159533Y152955D01*
X1159354Y153055D01*
X1159215Y153154D01*
X1159096Y153213D01*
X1159017Y153273D01*
X1158977Y153313D01*
X1158957Y153332D01*
X1158719Y153570D01*
X1158501Y153828D01*
X1158323Y154086D01*
X1158144Y154384D01*
X1158025Y154662D01*
X1157906Y154939D01*
X1157807Y155237D01*
X1157747Y155514D01*
X1157688Y155772D01*
X1157648Y156010D01*
X1157608Y156229D01*
X1157589Y156407D01*
X1157569Y156566D01*
Y156685D01*
Y156764D01*
Y156784D01*
Y164541D01*
X1160703D01*
Y156943D01*
X1160723Y156487D01*
X1160782Y156090D01*
X1160882Y155772D01*
X1160981Y155495D01*
X1161080Y155296D01*
X1161179Y155157D01*
X1161239Y155058D01*
X1161258Y155038D01*
X1161497Y154840D01*
X1161774Y154701D01*
X1162052Y154582D01*
X1162330Y154523D01*
X1162607Y154483D01*
X1162806Y154463D01*
X1162885Y154443D01*
X1163004D01*
X1163421Y154463D01*
X1163778Y154542D01*
X1164075Y154642D01*
X1164314Y154761D01*
X1164492Y154860D01*
X1164631Y154959D01*
X1164710Y155038D01*
X1164730Y155058D01*
X1164909Y155316D01*
X1165048Y155614D01*
X1165127Y155931D01*
X1165206Y156229D01*
X1165246Y156506D01*
X1165266Y156744D01*
Y156824D01*
Y156883D01*
Y156923D01*
Y156943D01*
Y164541D01*
X1168400D01*
Y156764D01*
D02*
G37*
G36*
X1157776Y139834D02*
X1159529Y137189D01*
X1157122D01*
X1151149Y146565D01*
X1153452D01*
X1156067Y142063D01*
X1156661Y146565D01*
X1158905D01*
X1157776Y139834D01*
D02*
G37*
G36*
X1147226Y139700D02*
X1145027D01*
X1144522Y141855D01*
X1143541Y142716D01*
X1142189Y139700D01*
X1139871D01*
X1141713Y143563D01*
X1138519Y146565D01*
X1141059D01*
X1144135Y143534D01*
X1142828Y149210D01*
X1145042D01*
X1147226Y139700D01*
D02*
G37*
G36*
X1125978Y146758D02*
X1126319Y146713D01*
X1126631Y146669D01*
X1126914Y146609D01*
X1127137Y146535D01*
X1127241Y146505D01*
X1127315Y146491D01*
X1127374Y146461D01*
X1127419Y146446D01*
X1127449Y146431D01*
X1127464D01*
X1127761Y146297D01*
X1128028Y146149D01*
X1128266Y146000D01*
X1128474Y145852D01*
X1128637Y145718D01*
X1128756Y145614D01*
X1128830Y145554D01*
X1128860Y145525D01*
X1129068Y145302D01*
X1129247Y145064D01*
X1129410Y144826D01*
X1129529Y144618D01*
X1129633Y144425D01*
X1129707Y144277D01*
X1129737Y144217D01*
X1129752Y144173D01*
X1129767Y144158D01*
Y144143D01*
X1129871Y143846D01*
X1129945Y143548D01*
X1129989Y143251D01*
X1130019Y142984D01*
X1130049Y142761D01*
Y142657D01*
X1130064Y142583D01*
Y142508D01*
Y142464D01*
Y142434D01*
Y142419D01*
X1130049Y142167D01*
X1130019Y141929D01*
X1129975Y141721D01*
X1129915Y141513D01*
X1129841Y141320D01*
X1129767Y141141D01*
X1129677Y140978D01*
X1129588Y140844D01*
X1129499Y140710D01*
X1129410Y140591D01*
X1129336Y140502D01*
X1129261Y140428D01*
X1129202Y140354D01*
X1129157Y140309D01*
X1129128Y140294D01*
X1129113Y140280D01*
X1128920Y140146D01*
X1128727Y140027D01*
X1128504Y139923D01*
X1128296Y139834D01*
X1127835Y139700D01*
X1127404Y139611D01*
X1127196Y139566D01*
X1127018Y139551D01*
X1126839Y139537D01*
X1126691Y139522D01*
X1126572Y139507D01*
X1126111D01*
X1125829Y139537D01*
X1125576Y139551D01*
X1125353Y139581D01*
X1125160Y139611D01*
X1125012Y139626D01*
X1124967Y139641D01*
X1124923Y139655D01*
X1124893D01*
X1124625Y139715D01*
X1124373Y139774D01*
X1124150Y139849D01*
X1123942Y139908D01*
X1123778Y139982D01*
X1123645Y140027D01*
X1123570Y140057D01*
X1123541Y140071D01*
X1123125Y141840D01*
X1123377D01*
X1123556Y141721D01*
X1123749Y141617D01*
X1123942Y141528D01*
X1124120Y141453D01*
X1124269Y141379D01*
X1124402Y141334D01*
X1124477Y141305D01*
X1124492Y141290D01*
X1124507D01*
X1124744Y141216D01*
X1124982Y141156D01*
X1125220Y141112D01*
X1125428Y141082D01*
X1125606Y141067D01*
X1125755Y141052D01*
X1125873D01*
X1126245Y141067D01*
X1126557Y141112D01*
X1126824Y141186D01*
X1127032Y141260D01*
X1127211Y141320D01*
X1127330Y141394D01*
X1127389Y141439D01*
X1127419Y141453D01*
X1127582Y141617D01*
X1127701Y141795D01*
X1127790Y141988D01*
X1127850Y142167D01*
X1127879Y142315D01*
X1127894Y142449D01*
X1127909Y142538D01*
Y142553D01*
Y142568D01*
Y142627D01*
Y142642D01*
Y142687D01*
Y142716D01*
X1122813D01*
X1122723Y142999D01*
X1122679Y143132D01*
X1122649Y143251D01*
X1122619Y143341D01*
X1122605Y143430D01*
X1122590Y143474D01*
Y143489D01*
X1122530Y143786D01*
X1122515Y143920D01*
Y144054D01*
X1122501Y144158D01*
Y144232D01*
Y144291D01*
Y144306D01*
X1122515Y144529D01*
X1122530Y144737D01*
X1122619Y145109D01*
X1122753Y145421D01*
X1122887Y145688D01*
X1123036Y145881D01*
X1123169Y146030D01*
X1123258Y146119D01*
X1123273Y146149D01*
X1123288D01*
X1123437Y146253D01*
X1123615Y146357D01*
X1123972Y146505D01*
X1124358Y146624D01*
X1124729Y146699D01*
X1124908Y146728D01*
X1125071Y146743D01*
X1125220Y146758D01*
X1125353D01*
X1125458Y146773D01*
X1125606D01*
X1125978Y146758D01*
D02*
G37*
G36*
X1134551Y139700D02*
X1132352D01*
X1130153Y149210D01*
X1132367D01*
X1134551Y139700D01*
D02*
G37*
G36*
X1138831D02*
X1136631D01*
X1135042Y146565D01*
X1137255D01*
X1138831Y139700D01*
D02*
G37*
G36*
X1119276Y143177D02*
X1122842Y139700D01*
X1120316D01*
X1118266Y141795D01*
X1117166Y139700D01*
X1114789D01*
X1116765Y143118D01*
X1113229Y146565D01*
X1115769D01*
X1117746Y144470D01*
X1118845Y146565D01*
X1121208D01*
X1119276Y143177D01*
D02*
G37*
G36*
X996707Y152400D02*
X993573D01*
Y156844D01*
X992145D01*
X988832Y152400D01*
X985003D01*
X989070Y157578D01*
X988653Y157796D01*
X988296Y158034D01*
X987999Y158272D01*
X987741Y158490D01*
X987542Y158688D01*
X987404Y158847D01*
X987304Y158946D01*
X987284Y158986D01*
X987066Y159323D01*
X986908Y159700D01*
X986808Y160057D01*
X986729Y160414D01*
X986689Y160712D01*
X986670Y160851D01*
X986650Y160970D01*
Y161049D01*
Y161129D01*
Y161168D01*
Y161188D01*
X986670Y161545D01*
X986709Y161862D01*
X986789Y162140D01*
X986848Y162378D01*
X986927Y162557D01*
X987007Y162696D01*
X987047Y162795D01*
X987066Y162815D01*
X987225Y163053D01*
X987404Y163251D01*
X987582Y163449D01*
X987761Y163588D01*
X987919Y163727D01*
X988038Y163806D01*
X988118Y163866D01*
X988157Y163886D01*
X988415Y164025D01*
X988673Y164144D01*
X988911Y164223D01*
X989129Y164302D01*
X989328Y164342D01*
X989467Y164382D01*
X989566Y164402D01*
X989605D01*
X989903Y164441D01*
X990220Y164481D01*
X990538Y164501D01*
X990816Y164521D01*
X991074Y164541D01*
X996707D01*
Y152400D01*
D02*
G37*
G36*
X1008114D02*
X999326D01*
Y154741D01*
X1004979D01*
Y157756D01*
X999742D01*
Y160097D01*
X1004979D01*
Y162200D01*
X999326D01*
Y164541D01*
X1008114D01*
Y152400D01*
D02*
G37*
G36*
X1036164Y164778D02*
X1036660Y164719D01*
X1037136Y164640D01*
X1037592Y164541D01*
X1037989Y164402D01*
X1038366Y164263D01*
X1038723Y164104D01*
X1039020Y163945D01*
X1039298Y163787D01*
X1039556Y163628D01*
X1039754Y163489D01*
X1039933Y163350D01*
X1040052Y163251D01*
X1040151Y163172D01*
X1040211Y163112D01*
X1040231Y163092D01*
X1040528Y162755D01*
X1040766Y162398D01*
X1040984Y162041D01*
X1041183Y161644D01*
X1041341Y161267D01*
X1041480Y160871D01*
X1041580Y160494D01*
X1041679Y160137D01*
X1041738Y159780D01*
X1041798Y159462D01*
X1041818Y159184D01*
X1041857Y158946D01*
Y158728D01*
X1041877Y158589D01*
Y158490D01*
Y158450D01*
X1041857Y157915D01*
X1041798Y157419D01*
X1041718Y156943D01*
X1041619Y156506D01*
X1041500Y156110D01*
X1041361Y155713D01*
X1041203Y155376D01*
X1041044Y155058D01*
X1040905Y154781D01*
X1040746Y154542D01*
X1040608Y154324D01*
X1040488Y154165D01*
X1040389Y154027D01*
X1040310Y153927D01*
X1040250Y153868D01*
X1040231Y153848D01*
X1039913Y153551D01*
X1039556Y153293D01*
X1039179Y153055D01*
X1038802Y152856D01*
X1038425Y152698D01*
X1038048Y152559D01*
X1037672Y152440D01*
X1037295Y152360D01*
X1036957Y152281D01*
X1036640Y152241D01*
X1036362Y152202D01*
X1036104Y152162D01*
X1035906D01*
X1035747Y152142D01*
X1035628D01*
X1035093Y152162D01*
X1034577Y152221D01*
X1034101Y152301D01*
X1033664Y152400D01*
X1033248Y152539D01*
X1032871Y152678D01*
X1032514Y152836D01*
X1032216Y152995D01*
X1031938Y153154D01*
X1031681Y153313D01*
X1031482Y153451D01*
X1031304Y153590D01*
X1031185Y153689D01*
X1031086Y153769D01*
X1031026Y153828D01*
X1031006Y153848D01*
X1030709Y154185D01*
X1030451Y154542D01*
X1030232Y154900D01*
X1030034Y155296D01*
X1029875Y155673D01*
X1029737Y156050D01*
X1029637Y156427D01*
X1029538Y156784D01*
X1029479Y157121D01*
X1029419Y157439D01*
X1029399Y157736D01*
X1029360Y157974D01*
Y158173D01*
X1029340Y158331D01*
Y158411D01*
Y158450D01*
X1029360Y158986D01*
X1029419Y159502D01*
X1029499Y159978D01*
X1029598Y160414D01*
X1029737Y160831D01*
X1029875Y161208D01*
X1030034Y161565D01*
X1030173Y161882D01*
X1030332Y162160D01*
X1030490Y162398D01*
X1030629Y162616D01*
X1030768Y162775D01*
X1030867Y162914D01*
X1030947Y163013D01*
X1031006Y163072D01*
X1031026Y163092D01*
X1031343Y163390D01*
X1031701Y163648D01*
X1032077Y163886D01*
X1032454Y164084D01*
X1032831Y164243D01*
X1033208Y164382D01*
X1033585Y164501D01*
X1033942Y164580D01*
X1034299Y164660D01*
X1034617Y164699D01*
X1034894Y164739D01*
X1035152Y164778D01*
X1035351D01*
X1035489Y164798D01*
X1035628D01*
X1036164Y164778D01*
D02*
G37*
G36*
X1168400Y139700D02*
X1166290D01*
X1166127Y140042D01*
X1165844Y139878D01*
X1165711Y139819D01*
X1165592Y139774D01*
X1165488Y139730D01*
X1165398Y139700D01*
X1165339Y139685D01*
X1165324D01*
X1164968Y139611D01*
X1164789Y139596D01*
X1164626Y139581D01*
X1164492Y139566D01*
X1164284D01*
X1163957Y139581D01*
X1163660Y139626D01*
X1163392Y139685D01*
X1163155Y139759D01*
X1162962Y139834D01*
X1162813Y139893D01*
X1162768Y139923D01*
X1162724Y139938D01*
X1162709Y139953D01*
X1162694D01*
X1162427Y140116D01*
X1162189Y140280D01*
X1161981Y140458D01*
X1161788Y140621D01*
X1161639Y140770D01*
X1161520Y140904D01*
X1161461Y140978D01*
X1161431Y141008D01*
X1161238Y141260D01*
X1161075Y141528D01*
X1160926Y141780D01*
X1160807Y142018D01*
X1160718Y142226D01*
X1160658Y142389D01*
X1160629Y142449D01*
X1160614Y142493D01*
X1160599Y142523D01*
Y142538D01*
X1160495Y142865D01*
X1160421Y143192D01*
X1160361Y143504D01*
X1160332Y143771D01*
X1160302Y144009D01*
Y144113D01*
X1160287Y144187D01*
Y144262D01*
Y144306D01*
Y144336D01*
Y144351D01*
X1160317Y144752D01*
X1160376Y145094D01*
X1160465Y145391D01*
X1160554Y145644D01*
X1160658Y145837D01*
X1160748Y145985D01*
X1160807Y146074D01*
X1160837Y146104D01*
X1160941Y146223D01*
X1161060Y146312D01*
X1161327Y146476D01*
X1161595Y146595D01*
X1161847Y146669D01*
X1162085Y146713D01*
X1162189Y146728D01*
X1162278D01*
X1162352Y146743D01*
X1162456D01*
X1162694Y146728D01*
X1162917Y146699D01*
X1163125Y146669D01*
X1163303Y146624D01*
X1163452Y146565D01*
X1163556Y146535D01*
X1163630Y146505D01*
X1163660Y146491D01*
X1164061Y146283D01*
X1164254Y146179D01*
X1164418Y146074D01*
X1164566Y145970D01*
X1164670Y145911D01*
X1164745Y145852D01*
X1164774Y145837D01*
X1164002Y149210D01*
X1166216D01*
X1168400Y139700D01*
D02*
G37*
G36*
X1137077Y147546D02*
X1134744D01*
X1134358Y149210D01*
X1136706D01*
X1137077Y147546D01*
D02*
G37*
G36*
X37565Y115138D02*
X37713Y114751D01*
X37832Y114335D01*
X37951Y113978D01*
X38040Y113621D01*
X38100Y113353D01*
X38130Y113175D01*
X38159Y113145D01*
Y113115D01*
X38279Y112550D01*
X38368Y111955D01*
X38427Y111390D01*
X38457Y110885D01*
X38487Y110438D01*
X38516Y110260D01*
Y110082D01*
Y109963D01*
Y109873D01*
Y109814D01*
Y109784D01*
X38487Y109189D01*
X38457Y108594D01*
X38397Y108059D01*
X38308Y107553D01*
X38219Y107107D01*
X38100Y106661D01*
X37981Y106274D01*
X37862Y105918D01*
X37743Y105590D01*
X37654Y105323D01*
X37535Y105085D01*
X37446Y104906D01*
X37356Y104757D01*
X37297Y104639D01*
X37237Y104579D01*
Y104549D01*
X36970Y104222D01*
X36702Y103925D01*
X36434Y103657D01*
X36137Y103419D01*
X35869Y103241D01*
X35572Y103092D01*
X35007Y102854D01*
X34531Y102705D01*
X34323Y102676D01*
X34144Y102646D01*
X33995Y102616D01*
X33787D01*
X33252Y102646D01*
X32806Y102735D01*
X32389Y102884D01*
X32032Y103032D01*
X31765Y103211D01*
X31556Y103330D01*
X31408Y103449D01*
X31378Y103479D01*
X31021Y103835D01*
X30724Y104222D01*
X30486Y104639D01*
X30278Y105055D01*
X30129Y105442D01*
X30010Y105739D01*
X29980Y105858D01*
X29950Y105947D01*
X29921Y106007D01*
Y106037D01*
X29802Y106631D01*
X29742Y106899D01*
X29712Y107137D01*
X29683Y107316D01*
X29653Y107464D01*
X29623Y107583D01*
Y107613D01*
X29504Y108178D01*
X29474Y108416D01*
X29445Y108624D01*
X29385Y108803D01*
Y108951D01*
X29355Y109041D01*
Y109070D01*
X29266Y109487D01*
X29177Y109814D01*
X29088Y110082D01*
X28998Y110290D01*
X28939Y110438D01*
X28879Y110557D01*
X28850Y110587D01*
Y110617D01*
X28731Y110736D01*
X28612Y110795D01*
X28374Y110914D01*
X28255D01*
X28166Y110944D01*
X28077D01*
X27898Y110914D01*
X27720Y110825D01*
X27571Y110706D01*
X27452Y110587D01*
X27363Y110468D01*
X27303Y110349D01*
X27244Y110260D01*
Y110230D01*
X27154Y109933D01*
X27065Y109635D01*
X27006Y109338D01*
X26976Y109041D01*
X26946Y108803D01*
Y108594D01*
Y108475D01*
Y108416D01*
X26976Y107940D01*
X27006Y107494D01*
X27095Y107048D01*
X27154Y106661D01*
X27244Y106364D01*
X27333Y106096D01*
X27363Y105947D01*
X27392Y105888D01*
X27571Y105412D01*
X27720Y104995D01*
X27928Y104609D01*
X28077Y104282D01*
X28225Y104014D01*
X28344Y103806D01*
X28433Y103657D01*
X28463Y103627D01*
Y103241D01*
X24983D01*
X24864Y103568D01*
X24745Y103925D01*
X24626Y104311D01*
X24537Y104668D01*
X24448Y104966D01*
X24388Y105233D01*
X24329Y105412D01*
Y105442D01*
Y105471D01*
X24210Y106007D01*
X24150Y106512D01*
X24091Y107018D01*
X24031Y107464D01*
Y107851D01*
X24002Y108148D01*
Y108267D01*
Y108357D01*
Y108386D01*
Y108416D01*
Y109011D01*
X24061Y109576D01*
X24121Y110111D01*
X24210Y110587D01*
X24299Y111063D01*
X24418Y111480D01*
X24537Y111866D01*
X24656Y112223D01*
X24805Y112521D01*
X24924Y112788D01*
X25043Y113026D01*
X25132Y113205D01*
X25221Y113353D01*
X25281Y113472D01*
X25310Y113532D01*
X25340Y113562D01*
X25578Y113889D01*
X25846Y114186D01*
X26143Y114424D01*
X26411Y114632D01*
X26679Y114811D01*
X26946Y114989D01*
X27482Y115197D01*
X27928Y115346D01*
X28136Y115376D01*
X28314Y115406D01*
X28433Y115435D01*
X28642D01*
X29207Y115406D01*
X29683Y115287D01*
X30129Y115138D01*
X30515Y114989D01*
X30813Y114811D01*
X31051Y114692D01*
X31170Y114573D01*
X31229Y114543D01*
X31586Y114156D01*
X31884Y113710D01*
X32151Y113264D01*
X32359Y112788D01*
X32538Y112402D01*
X32657Y112045D01*
X32687Y111926D01*
X32716Y111837D01*
X32746Y111777D01*
Y111747D01*
X32865Y111212D01*
X32925Y110974D01*
X32984Y110736D01*
X33014Y110528D01*
X33044Y110379D01*
X33073Y110260D01*
Y110230D01*
X33103Y109933D01*
X33163Y109665D01*
X33192Y109427D01*
X33222Y109249D01*
X33252Y109100D01*
Y108981D01*
X33282Y108922D01*
Y108892D01*
X33371Y108535D01*
X33430Y108237D01*
X33519Y108000D01*
X33579Y107791D01*
X33639Y107672D01*
X33698Y107553D01*
X33728Y107524D01*
Y107494D01*
X33817Y107375D01*
X33936Y107256D01*
X34174Y107167D01*
X34352Y107107D01*
X34442D01*
X34650Y107137D01*
X34828Y107197D01*
X34947Y107316D01*
X35096Y107434D01*
X35185Y107553D01*
X35245Y107672D01*
X35304Y107732D01*
Y107762D01*
X35393Y108029D01*
X35453Y108327D01*
X35542Y108951D01*
Y109219D01*
X35572Y109457D01*
Y109606D01*
Y109635D01*
Y109665D01*
Y110022D01*
X35542Y110379D01*
X35512Y110706D01*
X35483Y110974D01*
X35453Y111212D01*
X35423Y111390D01*
X35393Y111509D01*
Y111539D01*
X35215Y112134D01*
X35155Y112402D01*
X35066Y112640D01*
X35007Y112848D01*
X34947Y112996D01*
X34888Y113086D01*
Y113115D01*
X34769Y113383D01*
X34680Y113621D01*
X34590Y113829D01*
X34501Y114008D01*
X34412Y114156D01*
X34382Y114246D01*
X34323Y114305D01*
Y114335D01*
X34114Y114632D01*
X33936Y114900D01*
X33817Y115049D01*
X33787Y115078D01*
Y115108D01*
Y115495D01*
X37416D01*
X37565Y115138D01*
D02*
G37*
G36*
X38100Y301540D02*
X30069D01*
Y294610D01*
X38100D01*
Y289910D01*
X19897D01*
Y294610D01*
X26560D01*
Y301540D01*
X19897D01*
Y306239D01*
X38100D01*
Y301540D01*
D02*
G37*
G36*
X31884Y202167D02*
X32449Y202108D01*
X32984Y202018D01*
X33519Y201900D01*
X33995Y201751D01*
X34412Y201572D01*
X34828Y201394D01*
X35185Y201215D01*
X35512Y201037D01*
X35780Y200858D01*
X36018Y200680D01*
X36226Y200531D01*
X36375Y200412D01*
X36494Y200323D01*
X36553Y200264D01*
X36583Y200234D01*
X36910Y199847D01*
X37208Y199431D01*
X37475Y198985D01*
X37713Y198538D01*
X37892Y198063D01*
X38040Y197616D01*
X38279Y196724D01*
X38368Y196308D01*
X38427Y195921D01*
X38457Y195564D01*
X38487Y195267D01*
X38516Y195029D01*
Y194820D01*
Y194702D01*
Y194672D01*
X38487Y194018D01*
X38427Y193423D01*
X38338Y192828D01*
X38219Y192292D01*
X38070Y191817D01*
X37892Y191341D01*
X37743Y190924D01*
X37535Y190567D01*
X37356Y190240D01*
X37208Y189943D01*
X37029Y189705D01*
X36881Y189496D01*
X36762Y189348D01*
X36672Y189229D01*
X36613Y189169D01*
X36583Y189140D01*
X36196Y188783D01*
X35780Y188485D01*
X35364Y188218D01*
X34918Y187980D01*
X34471Y187801D01*
X34025Y187623D01*
X33192Y187385D01*
X32776Y187325D01*
X32419Y187266D01*
X32092Y187206D01*
X31824Y187176D01*
X31586Y187147D01*
X31259D01*
X30634Y187176D01*
X30069Y187236D01*
X29504Y187325D01*
X28998Y187444D01*
X28523Y187623D01*
X28077Y187771D01*
X27660Y187950D01*
X27303Y188128D01*
X26976Y188337D01*
X26708Y188515D01*
X26470Y188664D01*
X26262Y188812D01*
X26113Y188961D01*
X25994Y189050D01*
X25935Y189110D01*
X25905Y189140D01*
X25548Y189526D01*
X25251Y189943D01*
X24983Y190389D01*
X24775Y190835D01*
X24567Y191281D01*
X24418Y191757D01*
X24180Y192649D01*
X24091Y193066D01*
X24031Y193452D01*
X24002Y193780D01*
X23972Y194077D01*
X23942Y194315D01*
Y194523D01*
Y194642D01*
Y194672D01*
X23972Y195326D01*
X24031Y195921D01*
X24121Y196516D01*
X24240Y197051D01*
X24388Y197557D01*
X24567Y198003D01*
X24745Y198419D01*
X24924Y198776D01*
X25102Y199133D01*
X25281Y199401D01*
X25459Y199669D01*
X25608Y199877D01*
X25727Y200026D01*
X25816Y200145D01*
X25875Y200204D01*
X25905Y200234D01*
X26292Y200591D01*
X26679Y200888D01*
X27125Y201156D01*
X27571Y201364D01*
X28017Y201572D01*
X28433Y201721D01*
X29296Y201959D01*
X29712Y202018D01*
X30069Y202078D01*
X30396Y202137D01*
X30694Y202167D01*
X30932Y202197D01*
X31259D01*
X31884Y202167D01*
D02*
G37*
G36*
X37446Y323907D02*
X37624Y323372D01*
X37773Y322896D01*
X37892Y322479D01*
X37981Y322152D01*
X38011Y322033D01*
Y321944D01*
X38040Y321914D01*
Y321884D01*
X38159Y321230D01*
X38249Y320546D01*
X38338Y319891D01*
X38368Y319267D01*
X38397Y318731D01*
X38427Y318494D01*
Y318315D01*
Y318137D01*
Y318018D01*
Y317958D01*
Y317929D01*
X38397Y317215D01*
X38368Y316530D01*
X38279Y315906D01*
X38159Y315311D01*
X38040Y314776D01*
X37892Y314270D01*
X37743Y313794D01*
X37594Y313378D01*
X37446Y312991D01*
X37297Y312664D01*
X37148Y312396D01*
X37029Y312158D01*
X36910Y311980D01*
X36821Y311861D01*
X36791Y311772D01*
X36762Y311742D01*
X36434Y311325D01*
X36077Y310998D01*
X35721Y310671D01*
X35364Y310403D01*
X35007Y310195D01*
X34620Y310017D01*
X34293Y309868D01*
X33936Y309749D01*
X33609Y309630D01*
X33311Y309571D01*
X33073Y309511D01*
X32835Y309481D01*
X32657Y309452D01*
X32389D01*
X31705Y309481D01*
X31110Y309600D01*
X30605Y309779D01*
X30159Y309957D01*
X29831Y310136D01*
X29564Y310314D01*
X29415Y310433D01*
X29355Y310463D01*
X28939Y310879D01*
X28552Y311355D01*
X28225Y311861D01*
X27957Y312367D01*
X27749Y312842D01*
X27690Y313021D01*
X27601Y313199D01*
X27541Y313348D01*
X27511Y313467D01*
X27482Y313526D01*
Y313556D01*
X27363Y313943D01*
X27244Y314300D01*
X27154Y314627D01*
X27065Y314924D01*
X27006Y315162D01*
X26976Y315371D01*
X26946Y315490D01*
Y315519D01*
X26797Y316203D01*
X26708Y316530D01*
X26649Y316828D01*
X26619Y317096D01*
X26560Y317274D01*
X26530Y317393D01*
Y317453D01*
X26411Y317988D01*
X26292Y318434D01*
X26173Y318791D01*
X26054Y319059D01*
X25965Y319297D01*
X25875Y319416D01*
X25846Y319505D01*
X25816Y319535D01*
X25667Y319713D01*
X25489Y319832D01*
X25310Y319951D01*
X25132Y320010D01*
X24953Y320040D01*
X24834Y320070D01*
X24715D01*
X24537Y320040D01*
X24388Y320010D01*
X24121Y319891D01*
X23942Y319802D01*
X23912Y319743D01*
X23883D01*
X23645Y319475D01*
X23466Y319178D01*
X23407Y319088D01*
X23347Y318999D01*
X23317Y318940D01*
Y318910D01*
X23169Y318523D01*
X23080Y318166D01*
X23050Y318018D01*
Y317899D01*
X23020Y317839D01*
Y317810D01*
X22961Y317363D01*
X22931Y317006D01*
Y316858D01*
Y316739D01*
Y316679D01*
Y316649D01*
X22961Y316025D01*
X23020Y315430D01*
X23109Y314895D01*
X23228Y314389D01*
X23347Y313973D01*
X23437Y313645D01*
X23466Y313526D01*
X23496Y313437D01*
X23526Y313407D01*
Y313378D01*
X23764Y312813D01*
X24002Y312277D01*
X24240Y311801D01*
X24478Y311415D01*
X24686Y311117D01*
X24834Y310879D01*
X24953Y310731D01*
X24983Y310671D01*
Y310165D01*
X20819D01*
X20641Y310671D01*
X20462Y311206D01*
X20313Y311712D01*
X20165Y312188D01*
X20076Y312604D01*
X19986Y312932D01*
X19957Y313051D01*
Y313140D01*
X19927Y313199D01*
Y313229D01*
X19808Y313883D01*
X19719Y314508D01*
X19659Y315133D01*
X19600Y315668D01*
Y316114D01*
X19570Y316293D01*
Y316471D01*
Y316590D01*
Y316679D01*
Y316739D01*
Y316768D01*
X19600Y317423D01*
X19629Y318047D01*
X19719Y318642D01*
X19838Y319178D01*
X19957Y319713D01*
X20076Y320189D01*
X20224Y320635D01*
X20373Y321022D01*
X20551Y321409D01*
X20700Y321706D01*
X20819Y321974D01*
X20938Y322211D01*
X21057Y322390D01*
X21146Y322509D01*
X21176Y322598D01*
X21206Y322628D01*
X21503Y323015D01*
X21830Y323372D01*
X22187Y323669D01*
X22515Y323937D01*
X22871Y324145D01*
X23228Y324323D01*
X23556Y324472D01*
X23883Y324591D01*
X24448Y324770D01*
X24715Y324829D01*
X24924Y324859D01*
X25102D01*
X25221Y324888D01*
X25340D01*
X26024Y324859D01*
X26649Y324740D01*
X27184Y324591D01*
X27630Y324383D01*
X28017Y324204D01*
X28285Y324056D01*
X28463Y323937D01*
X28493Y323907D01*
X28523D01*
X28761Y323699D01*
X28969Y323461D01*
X29385Y322955D01*
X29712Y322420D01*
X30010Y321855D01*
X30248Y321349D01*
X30337Y321141D01*
X30396Y320962D01*
X30456Y320784D01*
X30515Y320665D01*
X30545Y320605D01*
Y320576D01*
X30753Y319832D01*
X30843Y319475D01*
X30932Y319148D01*
X30991Y318880D01*
X31051Y318642D01*
X31081Y318523D01*
Y318464D01*
X31170Y318047D01*
X31229Y317631D01*
X31319Y317244D01*
X31378Y316917D01*
X31437Y316649D01*
X31497Y316441D01*
X31527Y316322D01*
Y316263D01*
X31616Y315936D01*
X31735Y315638D01*
X31854Y315371D01*
X31943Y315162D01*
X32062Y315014D01*
X32122Y314895D01*
X32181Y314835D01*
X32211Y314805D01*
X32359Y314627D01*
X32538Y314508D01*
X32716Y314389D01*
X32865Y314329D01*
X33014Y314300D01*
X33133Y314270D01*
X33460D01*
X33639Y314329D01*
X33817Y314389D01*
X33966Y314449D01*
X34055Y314508D01*
X34144Y314568D01*
X34174Y314597D01*
X34204Y314627D01*
X34442Y314924D01*
X34620Y315192D01*
X34680Y315341D01*
X34739Y315430D01*
X34769Y315490D01*
Y315519D01*
X34888Y315876D01*
X34947Y316263D01*
X34977Y316441D01*
X35007Y316560D01*
Y316649D01*
Y316679D01*
X35036Y317125D01*
Y317334D01*
X35066Y317482D01*
Y317601D01*
Y317691D01*
Y317750D01*
Y317780D01*
X35036Y318404D01*
X34977Y319029D01*
X34888Y319624D01*
X34769Y320130D01*
X34650Y320605D01*
X34620Y320784D01*
X34560Y320962D01*
X34531Y321081D01*
X34501Y321171D01*
X34471Y321230D01*
Y321260D01*
X34204Y321914D01*
X33936Y322509D01*
X33609Y323074D01*
X33341Y323550D01*
X33073Y323937D01*
X32865Y324234D01*
X32776Y324353D01*
X32716Y324442D01*
X32657Y324472D01*
Y324502D01*
Y325007D01*
X37029D01*
X37446Y323907D01*
D02*
G37*
G36*
X38100Y179800D02*
X37416Y179592D01*
X37713Y178997D01*
X37862Y178729D01*
X37951Y178491D01*
X38040Y178283D01*
X38070Y178105D01*
X38130Y177986D01*
Y177956D01*
X38279Y177272D01*
X38308Y176945D01*
X38338Y176618D01*
X38368Y176350D01*
Y176142D01*
Y175993D01*
Y175933D01*
X38338Y175428D01*
X38279Y174952D01*
X38189Y174506D01*
X38040Y174089D01*
X37713Y173316D01*
X37535Y172989D01*
X37356Y172662D01*
X37178Y172394D01*
X36970Y172156D01*
X36821Y171948D01*
X36672Y171769D01*
X36524Y171621D01*
X36434Y171532D01*
X36375Y171472D01*
X36345Y171442D01*
X35958Y171115D01*
X35542Y170847D01*
X35096Y170609D01*
X34650Y170401D01*
X34204Y170223D01*
X33758Y170074D01*
X32925Y169866D01*
X32538Y169777D01*
X32181Y169717D01*
X31854Y169687D01*
X31586Y169658D01*
X31348Y169628D01*
X31051D01*
X30456Y169658D01*
X29891Y169687D01*
X29355Y169747D01*
X28879Y169836D01*
X28404Y169955D01*
X27987Y170074D01*
X27601Y170193D01*
X27244Y170342D01*
X26946Y170461D01*
X26679Y170609D01*
X26441Y170728D01*
X26262Y170818D01*
X26113Y170937D01*
X25994Y170996D01*
X25935Y171026D01*
X25905Y171056D01*
X25578Y171323D01*
X25281Y171621D01*
X25013Y171948D01*
X24805Y172275D01*
X24626Y172602D01*
X24478Y172929D01*
X24240Y173584D01*
X24091Y174179D01*
X24061Y174417D01*
X24031Y174625D01*
X24002Y174833D01*
Y174952D01*
Y175041D01*
Y175071D01*
X24031Y175577D01*
X24091Y176052D01*
X24150Y176469D01*
X24240Y176826D01*
X24358Y177123D01*
X24418Y177361D01*
X24478Y177480D01*
X24507Y177540D01*
X24924Y178313D01*
X25132Y178640D01*
X25340Y178967D01*
X25548Y179205D01*
X25667Y179414D01*
X25786Y179532D01*
X25816Y179592D01*
X19064D01*
Y183994D01*
X38100D01*
Y179800D01*
D02*
G37*
G36*
Y261119D02*
X31437D01*
Y258977D01*
X38100Y254010D01*
Y248269D01*
X30337Y254367D01*
X30010Y253742D01*
X29653Y253207D01*
X29296Y252761D01*
X28969Y252374D01*
X28671Y252077D01*
X28433Y251868D01*
X28285Y251720D01*
X28225Y251690D01*
X27720Y251363D01*
X27154Y251125D01*
X26619Y250976D01*
X26084Y250857D01*
X25638Y250798D01*
X25429Y250768D01*
X25251Y250738D01*
X24924D01*
X24388Y250768D01*
X23912Y250827D01*
X23496Y250946D01*
X23139Y251036D01*
X22871Y251154D01*
X22663Y251273D01*
X22515Y251333D01*
X22485Y251363D01*
X22128Y251601D01*
X21830Y251868D01*
X21533Y252136D01*
X21325Y252404D01*
X21116Y252642D01*
X20998Y252820D01*
X20908Y252939D01*
X20879Y252999D01*
X20670Y253385D01*
X20492Y253772D01*
X20373Y254129D01*
X20254Y254456D01*
X20194Y254753D01*
X20135Y254962D01*
X20105Y255110D01*
Y255170D01*
X20046Y255616D01*
X19986Y256092D01*
X19957Y256568D01*
X19927Y256984D01*
X19897Y257371D01*
Y257668D01*
Y257787D01*
Y257876D01*
Y257906D01*
Y257936D01*
Y265818D01*
X38100D01*
Y261119D01*
D02*
G37*
G36*
Y282564D02*
X34382Y281255D01*
Y274622D01*
X38100Y273343D01*
Y268435D01*
X19897Y275187D01*
Y280571D01*
X38100Y287293D01*
Y282564D01*
D02*
G37*
G36*
Y215849D02*
X31437D01*
Y213708D01*
X38100Y208741D01*
Y203000D01*
X30337Y209097D01*
X30010Y208473D01*
X29653Y207937D01*
X29296Y207491D01*
X28969Y207105D01*
X28671Y206807D01*
X28433Y206599D01*
X28285Y206450D01*
X28225Y206420D01*
X27720Y206093D01*
X27154Y205855D01*
X26619Y205707D01*
X26084Y205588D01*
X25638Y205528D01*
X25429Y205498D01*
X25251Y205469D01*
X24924D01*
X24388Y205498D01*
X23912Y205558D01*
X23496Y205677D01*
X23139Y205766D01*
X22871Y205885D01*
X22663Y206004D01*
X22515Y206063D01*
X22485Y206093D01*
X22128Y206331D01*
X21830Y206599D01*
X21533Y206867D01*
X21325Y207134D01*
X21116Y207372D01*
X20998Y207551D01*
X20908Y207670D01*
X20879Y207729D01*
X20670Y208116D01*
X20492Y208503D01*
X20373Y208859D01*
X20254Y209187D01*
X20194Y209484D01*
X20135Y209692D01*
X20105Y209841D01*
Y209900D01*
X20046Y210347D01*
X19986Y210823D01*
X19957Y211298D01*
X19927Y211715D01*
X19897Y212101D01*
Y212399D01*
Y212518D01*
Y212607D01*
Y212637D01*
Y212667D01*
Y220549D01*
X38100D01*
Y215849D01*
D02*
G37*
G36*
Y233041D02*
X34590D01*
Y241518D01*
X30069D01*
Y233665D01*
X26560D01*
Y241518D01*
X23407D01*
Y233041D01*
X19897D01*
Y246217D01*
X38100D01*
Y233041D01*
D02*
G37*
G36*
X31884Y167457D02*
X32449Y167397D01*
X32984Y167308D01*
X33519Y167189D01*
X33995Y167040D01*
X34412Y166862D01*
X34828Y166683D01*
X35185Y166505D01*
X35512Y166326D01*
X35780Y166148D01*
X36018Y165969D01*
X36226Y165821D01*
X36375Y165702D01*
X36494Y165613D01*
X36553Y165553D01*
X36583Y165523D01*
X36910Y165137D01*
X37208Y164720D01*
X37475Y164274D01*
X37713Y163828D01*
X37892Y163352D01*
X38040Y162906D01*
X38279Y162014D01*
X38368Y161597D01*
X38427Y161210D01*
X38457Y160854D01*
X38487Y160556D01*
X38516Y160318D01*
Y160110D01*
Y159991D01*
Y159961D01*
X38487Y159307D01*
X38427Y158712D01*
X38338Y158117D01*
X38219Y157582D01*
X38070Y157106D01*
X37892Y156630D01*
X37743Y156214D01*
X37535Y155857D01*
X37356Y155529D01*
X37208Y155232D01*
X37029Y154994D01*
X36881Y154786D01*
X36762Y154637D01*
X36672Y154518D01*
X36613Y154459D01*
X36583Y154429D01*
X36196Y154072D01*
X35780Y153775D01*
X35364Y153507D01*
X34918Y153269D01*
X34471Y153090D01*
X34025Y152912D01*
X33192Y152674D01*
X32776Y152615D01*
X32419Y152555D01*
X32092Y152496D01*
X31824Y152466D01*
X31586Y152436D01*
X31259D01*
X30634Y152466D01*
X30069Y152525D01*
X29504Y152615D01*
X28998Y152734D01*
X28523Y152912D01*
X28077Y153061D01*
X27660Y153239D01*
X27303Y153418D01*
X26976Y153626D01*
X26708Y153804D01*
X26470Y153953D01*
X26262Y154102D01*
X26113Y154250D01*
X25994Y154340D01*
X25935Y154399D01*
X25905Y154429D01*
X25548Y154816D01*
X25251Y155232D01*
X24983Y155678D01*
X24775Y156124D01*
X24567Y156571D01*
X24418Y157046D01*
X24180Y157939D01*
X24091Y158355D01*
X24031Y158742D01*
X24002Y159069D01*
X23972Y159366D01*
X23942Y159604D01*
Y159813D01*
Y159931D01*
Y159961D01*
X23972Y160616D01*
X24031Y161210D01*
X24121Y161805D01*
X24240Y162341D01*
X24388Y162846D01*
X24567Y163293D01*
X24745Y163709D01*
X24924Y164066D01*
X25102Y164423D01*
X25281Y164690D01*
X25459Y164958D01*
X25608Y165166D01*
X25727Y165315D01*
X25816Y165434D01*
X25875Y165494D01*
X25905Y165523D01*
X26292Y165880D01*
X26679Y166178D01*
X27125Y166445D01*
X27571Y166653D01*
X28017Y166862D01*
X28433Y167010D01*
X29296Y167248D01*
X29712Y167308D01*
X30069Y167367D01*
X30396Y167427D01*
X30694Y167457D01*
X30932Y167486D01*
X31259D01*
X31884Y167457D01*
D02*
G37*
G36*
X38100Y357100D02*
X34590D01*
Y365577D01*
X30069D01*
Y357725D01*
X26560D01*
Y365577D01*
X23407D01*
Y357100D01*
X19897D01*
Y370277D01*
X38100D01*
Y357100D01*
D02*
G37*
G36*
X22396Y133341D02*
X19064D01*
Y137981D01*
X22396D01*
Y133341D01*
D02*
G37*
G36*
X31973Y130277D02*
X32568Y130218D01*
X33133Y130129D01*
X33579Y130010D01*
X33966Y129891D01*
X34263Y129802D01*
X34442Y129742D01*
X34471Y129712D01*
X34501D01*
X34977Y129474D01*
X35423Y129207D01*
X35780Y128909D01*
X36107Y128642D01*
X36375Y128404D01*
X36583Y128225D01*
X36702Y128106D01*
X36732Y128047D01*
X37029Y127630D01*
X37297Y127184D01*
X37535Y126738D01*
X37713Y126351D01*
X37862Y125994D01*
X37951Y125697D01*
X38011Y125518D01*
X38040Y125489D01*
Y125459D01*
X38189Y124894D01*
X38279Y124329D01*
X38368Y123764D01*
X38397Y123258D01*
X38427Y122812D01*
X38457Y122633D01*
Y122455D01*
Y122336D01*
Y122247D01*
Y122187D01*
Y122157D01*
Y121652D01*
X38397Y121176D01*
X38368Y120759D01*
X38308Y120403D01*
X38249Y120075D01*
X38219Y119867D01*
X38159Y119719D01*
Y119659D01*
X38040Y119243D01*
X37922Y118856D01*
X37803Y118469D01*
X37684Y118142D01*
X37594Y117874D01*
X37505Y117666D01*
X37446Y117547D01*
X37416Y117488D01*
X33639D01*
Y118112D01*
X33847Y118321D01*
X33995Y118499D01*
X34114Y118648D01*
X34174Y118677D01*
Y118707D01*
X34352Y118975D01*
X34531Y119213D01*
X34650Y119391D01*
X34680Y119421D01*
Y119451D01*
X34858Y119808D01*
X35007Y120165D01*
X35066Y120313D01*
X35096Y120432D01*
X35126Y120521D01*
Y120551D01*
X35215Y121057D01*
X35274Y121295D01*
Y121533D01*
X35304Y121741D01*
Y121890D01*
Y122009D01*
Y122038D01*
X35274Y122663D01*
X35155Y123228D01*
X34977Y123704D01*
X34799Y124091D01*
X34620Y124388D01*
X34442Y124626D01*
X34323Y124745D01*
X34293Y124805D01*
X33876Y125132D01*
X33400Y125340D01*
X32895Y125518D01*
X32419Y125637D01*
X32003Y125697D01*
X31646Y125727D01*
X31497Y125756D01*
X31319D01*
X30634Y125727D01*
X30040Y125608D01*
X29504Y125459D01*
X29088Y125281D01*
X28731Y125132D01*
X28493Y124983D01*
X28344Y124864D01*
X28285Y124834D01*
X27898Y124448D01*
X27630Y124002D01*
X27422Y123555D01*
X27303Y123109D01*
X27214Y122723D01*
X27184Y122425D01*
X27154Y122306D01*
Y122217D01*
Y122157D01*
Y122128D01*
X27184Y121562D01*
X27214Y121325D01*
X27244Y121116D01*
X27273Y120968D01*
X27303Y120849D01*
X27333Y120759D01*
Y120730D01*
X27482Y120313D01*
X27630Y119956D01*
X27690Y119808D01*
X27720Y119719D01*
X27779Y119659D01*
Y119629D01*
X27987Y119272D01*
X28195Y118975D01*
X28314Y118796D01*
X28374Y118767D01*
Y118737D01*
X28552Y118499D01*
X28701Y118291D01*
X28820Y118172D01*
X28850Y118112D01*
Y117488D01*
X25102D01*
X24775Y118261D01*
X24656Y118648D01*
X24537Y119005D01*
X24448Y119272D01*
X24388Y119510D01*
X24329Y119659D01*
Y119719D01*
X24210Y120165D01*
X24150Y120611D01*
X24091Y121057D01*
X24031Y121444D01*
Y121800D01*
X24002Y122068D01*
Y122247D01*
Y122276D01*
Y122306D01*
X24031Y122901D01*
X24061Y123436D01*
X24121Y123972D01*
X24210Y124418D01*
X24299Y124805D01*
X24358Y125072D01*
X24388Y125191D01*
Y125281D01*
X24418Y125310D01*
Y125340D01*
X24597Y125846D01*
X24805Y126351D01*
X25013Y126768D01*
X25221Y127154D01*
X25400Y127452D01*
X25548Y127690D01*
X25667Y127838D01*
X25697Y127898D01*
X26054Y128285D01*
X26441Y128642D01*
X26827Y128969D01*
X27214Y129207D01*
X27511Y129415D01*
X27779Y129564D01*
X27957Y129653D01*
X27987Y129683D01*
X28017D01*
X28552Y129891D01*
X29118Y130039D01*
X29653Y130158D01*
X30188Y130218D01*
X30634Y130277D01*
X30813D01*
X30991Y130307D01*
X31319D01*
X31973Y130277D01*
D02*
G37*
G36*
X38100Y133460D02*
X24358D01*
Y137862D01*
X38100D01*
Y133460D01*
D02*
G37*
G36*
Y395172D02*
Y389967D01*
X26262Y386784D01*
X38100Y383483D01*
Y378308D01*
X19897Y373400D01*
Y378159D01*
X32449Y381104D01*
X19897Y384316D01*
Y389015D01*
X32449Y392376D01*
X19897Y395172D01*
Y400050D01*
X38100Y395172D01*
D02*
G37*
G36*
X27333Y149016D02*
X33787D01*
X34233Y148986D01*
X34650Y148956D01*
X35036Y148897D01*
X35393Y148807D01*
X35721Y148718D01*
X36018Y148629D01*
X36256Y148510D01*
X36494Y148391D01*
X36851Y148153D01*
X37118Y147975D01*
X37267Y147826D01*
X37327Y147767D01*
X37505Y147528D01*
X37684Y147231D01*
X37922Y146636D01*
X38100Y146012D01*
X38249Y145387D01*
X38308Y144822D01*
X38338Y144584D01*
Y144376D01*
X38368Y144197D01*
Y144078D01*
Y143989D01*
Y143959D01*
Y143543D01*
X38338Y143156D01*
Y142829D01*
X38308Y142532D01*
X38279Y142323D01*
Y142145D01*
X38249Y142026D01*
Y141996D01*
X38159Y141431D01*
X38130Y141163D01*
X38070Y140926D01*
X38040Y140747D01*
X38011Y140598D01*
X37981Y140509D01*
Y140479D01*
X34977D01*
Y140866D01*
X35036Y140955D01*
X35096Y141074D01*
X35185Y141342D01*
X35215Y141461D01*
X35245Y141550D01*
X35274Y141610D01*
Y141639D01*
X35334Y142026D01*
X35364Y142294D01*
X35393Y142472D01*
Y142502D01*
Y142532D01*
Y142829D01*
X35364Y143067D01*
X35304Y143305D01*
X35274Y143483D01*
X35215Y143632D01*
X35185Y143721D01*
X35155Y143781D01*
Y143811D01*
X34947Y144078D01*
X34709Y144286D01*
X34531Y144376D01*
X34501Y144405D01*
X34471D01*
X34144Y144524D01*
X33847Y144584D01*
X33698Y144614D01*
X27333D01*
Y140479D01*
X24358D01*
Y144614D01*
X20432D01*
Y149016D01*
X24358D01*
Y150830D01*
X27333D01*
Y149016D01*
D02*
G37*
G36*
X31765Y336250D02*
X28255D01*
Y345590D01*
X31765D01*
Y336250D01*
D02*
G37*
%LPC*%
G36*
X1050268Y162239D02*
X1049237D01*
X1049018Y162220D01*
X1048701D01*
X1048602Y162200D01*
X1048523D01*
X1048166Y162160D01*
X1048007Y162120D01*
X1047868Y162101D01*
X1047749Y162061D01*
X1047650Y162021D01*
X1047590Y162001D01*
X1047570D01*
X1047312Y161862D01*
X1047094Y161684D01*
X1047015Y161605D01*
X1046955Y161545D01*
X1046936Y161505D01*
X1046916Y161486D01*
X1046817Y161347D01*
X1046757Y161208D01*
X1046678Y160910D01*
X1046658Y160791D01*
X1046638Y160692D01*
Y160632D01*
Y160613D01*
X1046658Y160256D01*
X1046678Y160117D01*
X1046698Y159978D01*
X1046737Y159879D01*
X1046757Y159799D01*
X1046777Y159760D01*
Y159740D01*
X1046896Y159502D01*
X1047055Y159303D01*
X1047114Y159224D01*
X1047174Y159165D01*
X1047194Y159145D01*
X1047213Y159125D01*
X1047491Y158946D01*
X1047789Y158807D01*
X1047908Y158768D01*
X1048007Y158748D01*
X1048066Y158728D01*
X1048086D01*
X1048285Y158708D01*
X1048503Y158688D01*
X1048721Y158669D01*
X1048939D01*
X1049118Y158649D01*
X1050268D01*
Y162239D01*
D02*
G37*
G36*
X1069848D02*
X1068717D01*
X1068419Y162220D01*
X1068162Y162200D01*
X1067943D01*
X1067785Y162180D01*
X1067666Y162160D01*
X1067586Y162140D01*
X1067567D01*
X1067190Y162061D01*
X1067031Y162001D01*
X1066872Y161962D01*
X1066753Y161902D01*
X1066654Y161862D01*
X1066594Y161843D01*
X1066575Y161823D01*
X1066237Y161624D01*
X1065960Y161406D01*
X1065722Y161188D01*
X1065523Y160990D01*
X1065365Y160791D01*
X1065265Y160632D01*
X1065206Y160533D01*
X1065186Y160513D01*
Y160494D01*
X1065047Y160176D01*
X1064928Y159819D01*
X1064849Y159482D01*
X1064809Y159165D01*
X1064769Y158887D01*
X1064750Y158669D01*
Y158589D01*
Y158530D01*
Y158490D01*
Y158470D01*
X1064769Y158034D01*
X1064809Y157657D01*
X1064888Y157320D01*
X1064948Y157022D01*
X1065027Y156784D01*
X1065107Y156606D01*
X1065146Y156506D01*
X1065166Y156467D01*
X1065325Y156169D01*
X1065523Y155911D01*
X1065742Y155693D01*
X1065940Y155514D01*
X1066118Y155356D01*
X1066277Y155257D01*
X1066376Y155177D01*
X1066396Y155157D01*
X1066416D01*
X1066773Y154999D01*
X1066952Y154939D01*
X1067110Y154880D01*
X1067229Y154840D01*
X1067348Y154820D01*
X1067408Y154800D01*
X1067428D01*
X1067646Y154761D01*
X1067904Y154741D01*
X1068182Y154721D01*
X1068439D01*
X1068697Y154701D01*
X1069848D01*
Y162239D01*
D02*
G37*
G36*
X1125978Y145391D02*
X1125859D01*
X1125666Y145376D01*
X1125487Y145346D01*
X1125339Y145302D01*
X1125220Y145257D01*
X1125116Y145213D01*
X1125056Y145168D01*
X1125012Y145138D01*
X1124997Y145124D01*
X1124893Y145020D01*
X1124819Y144901D01*
X1124759Y144782D01*
X1124729Y144663D01*
X1124700Y144559D01*
X1124685Y144470D01*
Y144410D01*
Y144395D01*
Y144321D01*
Y144262D01*
X1124700Y144217D01*
Y144202D01*
X1124715Y144128D01*
Y144068D01*
X1124729Y144024D01*
Y144009D01*
X1127701D01*
X1127597Y144232D01*
X1127493Y144440D01*
X1127374Y144604D01*
X1127255Y144752D01*
X1127166Y144871D01*
X1127077Y144945D01*
X1127018Y145005D01*
X1127003Y145020D01*
X1126824Y145138D01*
X1126631Y145227D01*
X1126438Y145302D01*
X1126260Y145346D01*
X1126096Y145376D01*
X1125978Y145391D01*
D02*
G37*
G36*
X993573Y162299D02*
X992065D01*
X991907Y162279D01*
X991649D01*
X991569Y162259D01*
X991490D01*
X991192Y162220D01*
X991054Y162200D01*
X990955Y162180D01*
X990855Y162140D01*
X990796Y162120D01*
X990756Y162101D01*
X990736D01*
X990577Y162021D01*
X990439Y161942D01*
X990340Y161862D01*
X990240Y161783D01*
X990181Y161704D01*
X990141Y161644D01*
X990101Y161605D01*
Y161585D01*
X989982Y161327D01*
X989923Y161089D01*
X989903Y160970D01*
Y160890D01*
Y160831D01*
Y160811D01*
Y160632D01*
X989923Y160474D01*
X989943Y160335D01*
X989982Y160216D01*
X990002Y160117D01*
X990042Y160057D01*
X990062Y160018D01*
Y159998D01*
X990201Y159780D01*
X990359Y159601D01*
X990478Y159482D01*
X990518Y159462D01*
X990538Y159442D01*
X990816Y159284D01*
X991093Y159184D01*
X991212Y159145D01*
X991311Y159125D01*
X991371Y159105D01*
X991391D01*
X991589Y159085D01*
X991788Y159065D01*
X992006D01*
X992184Y159045D01*
X993573D01*
Y162299D01*
D02*
G37*
G36*
X1035708Y162497D02*
X1035390D01*
X1035192Y162458D01*
X1035013Y162418D01*
X1034835Y162378D01*
X1034696Y162339D01*
X1034597Y162299D01*
X1034517Y162279D01*
X1034498Y162259D01*
X1034299Y162160D01*
X1034101Y162061D01*
X1033942Y161942D01*
X1033803Y161823D01*
X1033684Y161724D01*
X1033605Y161644D01*
X1033545Y161585D01*
X1033525Y161565D01*
X1033367Y161367D01*
X1033248Y161168D01*
X1033129Y160970D01*
X1033030Y160771D01*
X1032950Y160593D01*
X1032891Y160454D01*
X1032871Y160355D01*
X1032851Y160315D01*
X1032772Y160018D01*
X1032692Y159700D01*
X1032653Y159403D01*
X1032633Y159105D01*
X1032613Y158847D01*
X1032593Y158649D01*
Y158569D01*
Y158510D01*
Y158490D01*
Y158470D01*
Y158093D01*
X1032633Y157756D01*
X1032673Y157458D01*
X1032712Y157201D01*
X1032752Y156982D01*
X1032792Y156824D01*
X1032811Y156725D01*
X1032831Y156685D01*
X1032930Y156407D01*
X1033030Y156169D01*
X1033149Y155951D01*
X1033248Y155752D01*
X1033347Y155614D01*
X1033426Y155495D01*
X1033486Y155415D01*
X1033506Y155395D01*
X1033664Y155217D01*
X1033823Y155078D01*
X1033982Y154939D01*
X1034121Y154840D01*
X1034259Y154761D01*
X1034359Y154701D01*
X1034438Y154681D01*
X1034458Y154662D01*
X1034656Y154582D01*
X1034874Y154542D01*
X1035073Y154503D01*
X1035231Y154463D01*
X1035390D01*
X1035509Y154443D01*
X1035608D01*
X1035827Y154463D01*
X1036045Y154483D01*
X1036243Y154523D01*
X1036422Y154562D01*
X1036561Y154602D01*
X1036680Y154622D01*
X1036759Y154662D01*
X1036779D01*
X1036977Y154761D01*
X1037156Y154860D01*
X1037315Y154979D01*
X1037453Y155098D01*
X1037572Y155217D01*
X1037652Y155296D01*
X1037711Y155356D01*
X1037731Y155376D01*
X1037870Y155574D01*
X1038009Y155772D01*
X1038108Y155971D01*
X1038207Y156169D01*
X1038287Y156348D01*
X1038346Y156487D01*
X1038366Y156566D01*
X1038386Y156606D01*
X1038465Y156903D01*
X1038524Y157220D01*
X1038564Y157538D01*
X1038584Y157816D01*
X1038604Y158074D01*
X1038624Y158272D01*
Y158351D01*
Y158411D01*
Y158431D01*
Y158450D01*
X1038604Y158847D01*
X1038584Y159204D01*
X1038544Y159522D01*
X1038505Y159780D01*
X1038465Y160018D01*
X1038425Y160176D01*
X1038386Y160275D01*
Y160315D01*
X1038287Y160613D01*
X1038167Y160851D01*
X1038048Y161069D01*
X1037949Y161248D01*
X1037850Y161406D01*
X1037771Y161505D01*
X1037731Y161565D01*
X1037711Y161585D01*
X1037552Y161743D01*
X1037374Y161902D01*
X1037215Y162021D01*
X1037057Y162120D01*
X1036938Y162180D01*
X1036838Y162239D01*
X1036759Y162279D01*
X1036739D01*
X1036541Y162358D01*
X1036342Y162398D01*
X1036144Y162438D01*
X1035965Y162477D01*
X1035827D01*
X1035708Y162497D01*
D02*
G37*
G36*
X1163868Y145124D02*
X1163749D01*
X1163526Y145109D01*
X1163348Y145079D01*
X1163199Y145020D01*
X1163081Y144975D01*
X1162991Y144916D01*
X1162917Y144856D01*
X1162887Y144826D01*
X1162872Y144811D01*
X1162783Y144693D01*
X1162724Y144559D01*
X1162679Y144410D01*
X1162650Y144277D01*
X1162635Y144143D01*
X1162620Y144039D01*
Y143979D01*
Y143950D01*
X1162650Y143504D01*
X1162709Y143088D01*
X1162813Y142746D01*
X1162917Y142449D01*
X1162977Y142315D01*
X1163036Y142211D01*
X1163081Y142107D01*
X1163140Y142033D01*
X1163170Y141973D01*
X1163199Y141929D01*
X1163229Y141899D01*
Y141884D01*
X1163348Y141750D01*
X1163467Y141617D01*
X1163600Y141513D01*
X1163734Y141424D01*
X1164002Y141275D01*
X1164254Y141186D01*
X1164492Y141126D01*
X1164596Y141112D01*
X1164685Y141097D01*
X1164745Y141082D01*
X1164849D01*
X1165057Y141097D01*
X1165220Y141112D01*
X1165294D01*
X1165339Y141126D01*
X1165384D01*
X1165547Y141171D01*
X1165696Y141216D01*
X1165755Y141230D01*
X1165800Y141245D01*
X1165815Y141260D01*
X1165829D01*
X1165042Y144707D01*
X1164789Y144826D01*
X1164685Y144886D01*
X1164581Y144930D01*
X1164507Y144960D01*
X1164447Y144990D01*
X1164403Y145005D01*
X1164388D01*
X1164150Y145079D01*
X1163957Y145109D01*
X1163868Y145124D01*
D02*
G37*
G36*
X31675Y197646D02*
X30843D01*
X30426Y197616D01*
X30069Y197557D01*
X29742Y197527D01*
X29504Y197468D01*
X29326Y197438D01*
X29207Y197408D01*
X29177D01*
X28879Y197319D01*
X28612Y197200D01*
X28404Y197111D01*
X28195Y196992D01*
X28077Y196932D01*
X27957Y196843D01*
X27898Y196813D01*
X27868Y196784D01*
X27690Y196605D01*
X27541Y196427D01*
X27333Y196129D01*
X27273Y196010D01*
X27214Y195921D01*
X27184Y195862D01*
Y195832D01*
X27065Y195445D01*
X27036Y195058D01*
X27006Y194910D01*
Y194791D01*
Y194702D01*
Y194672D01*
X27036Y194226D01*
X27095Y193869D01*
X27154Y193720D01*
X27184Y193601D01*
X27214Y193542D01*
Y193512D01*
X27422Y193125D01*
X27660Y192828D01*
X27749Y192709D01*
X27838Y192619D01*
X27898Y192590D01*
X27928Y192560D01*
X28136Y192411D01*
X28344Y192292D01*
X28790Y192084D01*
X28969Y192025D01*
X29118Y191965D01*
X29237Y191935D01*
X29266D01*
X29593Y191846D01*
X29921Y191787D01*
X30248Y191757D01*
X30575Y191727D01*
X30872Y191698D01*
X31735D01*
X32151Y191727D01*
X32478Y191757D01*
X32776Y191817D01*
X33014Y191846D01*
X33163Y191906D01*
X33282Y191935D01*
X33311D01*
X33817Y192114D01*
X34055Y192233D01*
X34233Y192322D01*
X34382Y192411D01*
X34501Y192501D01*
X34560Y192530D01*
X34590Y192560D01*
X34888Y192857D01*
X35096Y193185D01*
X35185Y193304D01*
X35245Y193423D01*
X35274Y193482D01*
Y193512D01*
X35364Y193899D01*
X35423Y194285D01*
X35453Y194434D01*
Y194553D01*
Y194612D01*
Y194642D01*
X35423Y195148D01*
X35393Y195356D01*
X35334Y195534D01*
X35304Y195713D01*
X35274Y195832D01*
X35245Y195891D01*
Y195921D01*
X35036Y196278D01*
X34828Y196575D01*
X34709Y196694D01*
X34650Y196784D01*
X34590Y196813D01*
X34560Y196843D01*
X34352Y196992D01*
X34144Y197111D01*
X33698Y197289D01*
X33519Y197349D01*
X33371Y197408D01*
X33252Y197438D01*
X33222D01*
X32568Y197557D01*
X32241Y197587D01*
X31943Y197616D01*
X31675Y197646D01*
D02*
G37*
G36*
X34977Y179592D02*
X28077D01*
X27838Y179146D01*
X27660Y178729D01*
X27601Y178581D01*
X27571Y178462D01*
X27541Y178372D01*
Y178343D01*
X27422Y177867D01*
X27392Y177659D01*
X27363Y177450D01*
X27333Y177302D01*
Y177183D01*
Y177094D01*
Y177064D01*
X27363Y176499D01*
X27482Y176023D01*
X27660Y175666D01*
X27838Y175339D01*
X28017Y175101D01*
X28195Y174952D01*
X28314Y174863D01*
X28344Y174833D01*
X28761Y174625D01*
X29207Y174446D01*
X29683Y174327D01*
X30129Y174268D01*
X30545Y174208D01*
X30872Y174179D01*
X31170D01*
X31884Y174208D01*
X32508Y174298D01*
X33044Y174446D01*
X33460Y174595D01*
X33817Y174774D01*
X34055Y174893D01*
X34174Y175011D01*
X34233Y175041D01*
X34560Y175398D01*
X34828Y175814D01*
X35007Y176261D01*
X35126Y176677D01*
X35185Y177064D01*
X35215Y177361D01*
X35245Y177480D01*
Y177569D01*
Y177629D01*
Y177659D01*
Y178075D01*
X35215Y178402D01*
Y178521D01*
X35185Y178610D01*
Y178670D01*
Y178700D01*
X35126Y179027D01*
X35066Y179294D01*
X35036Y179414D01*
X35007Y179503D01*
X34977Y179562D01*
Y179592D01*
D02*
G37*
G36*
X28136Y261119D02*
X23258D01*
Y259453D01*
Y258858D01*
X23288Y258620D01*
Y258412D01*
Y258234D01*
X23317Y258114D01*
Y258025D01*
Y257995D01*
X23377Y257549D01*
X23407Y257341D01*
X23437Y257192D01*
X23496Y257044D01*
X23526Y256954D01*
X23556Y256895D01*
Y256865D01*
X23674Y256627D01*
X23793Y256419D01*
X23912Y256270D01*
X24031Y256122D01*
X24150Y256033D01*
X24240Y255973D01*
X24299Y255914D01*
X24329D01*
X24715Y255735D01*
X25072Y255646D01*
X25251Y255616D01*
X25756D01*
X25994Y255646D01*
X26203Y255676D01*
X26381Y255735D01*
X26530Y255765D01*
X26619Y255824D01*
X26679Y255854D01*
X26708D01*
X27036Y256062D01*
X27303Y256300D01*
X27482Y256479D01*
X27511Y256538D01*
X27541Y256568D01*
X27779Y256984D01*
X27928Y257401D01*
X27987Y257579D01*
X28017Y257728D01*
X28047Y257817D01*
Y257847D01*
X28077Y258144D01*
X28106Y258442D01*
Y258769D01*
X28136Y259037D01*
Y259304D01*
Y259512D01*
Y259631D01*
Y259691D01*
Y261119D01*
D02*
G37*
G36*
X31081Y280154D02*
X24656Y277953D01*
X31081Y275723D01*
Y280154D01*
D02*
G37*
G36*
X28136Y215849D02*
X23258D01*
Y214184D01*
Y213589D01*
X23288Y213351D01*
Y213143D01*
Y212964D01*
X23317Y212845D01*
Y212756D01*
Y212726D01*
X23377Y212280D01*
X23407Y212072D01*
X23437Y211923D01*
X23496Y211774D01*
X23526Y211685D01*
X23556Y211626D01*
Y211596D01*
X23674Y211358D01*
X23793Y211150D01*
X23912Y211001D01*
X24031Y210852D01*
X24150Y210763D01*
X24240Y210704D01*
X24299Y210644D01*
X24329D01*
X24715Y210466D01*
X25072Y210376D01*
X25251Y210347D01*
X25756D01*
X25994Y210376D01*
X26203Y210406D01*
X26381Y210466D01*
X26530Y210495D01*
X26619Y210555D01*
X26679Y210585D01*
X26708D01*
X27036Y210793D01*
X27303Y211031D01*
X27482Y211209D01*
X27511Y211269D01*
X27541Y211298D01*
X27779Y211715D01*
X27928Y212131D01*
X27987Y212310D01*
X28017Y212458D01*
X28047Y212548D01*
Y212577D01*
X28077Y212875D01*
X28106Y213172D01*
Y213499D01*
X28136Y213767D01*
Y214035D01*
Y214243D01*
Y214362D01*
Y214421D01*
Y215849D01*
D02*
G37*
G36*
X31675Y162936D02*
X30843D01*
X30426Y162906D01*
X30069Y162846D01*
X29742Y162817D01*
X29504Y162757D01*
X29326Y162727D01*
X29207Y162698D01*
X29177D01*
X28879Y162608D01*
X28612Y162489D01*
X28404Y162400D01*
X28195Y162281D01*
X28077Y162222D01*
X27957Y162132D01*
X27898Y162103D01*
X27868Y162073D01*
X27690Y161895D01*
X27541Y161716D01*
X27333Y161419D01*
X27273Y161300D01*
X27214Y161210D01*
X27184Y161151D01*
Y161121D01*
X27065Y160735D01*
X27036Y160348D01*
X27006Y160199D01*
Y160080D01*
Y159991D01*
Y159961D01*
X27036Y159515D01*
X27095Y159158D01*
X27154Y159010D01*
X27184Y158890D01*
X27214Y158831D01*
Y158801D01*
X27422Y158415D01*
X27660Y158117D01*
X27749Y157998D01*
X27838Y157909D01*
X27898Y157879D01*
X27928Y157850D01*
X28136Y157701D01*
X28344Y157582D01*
X28790Y157374D01*
X28969Y157314D01*
X29118Y157255D01*
X29237Y157225D01*
X29266D01*
X29593Y157136D01*
X29921Y157076D01*
X30248Y157046D01*
X30575Y157017D01*
X30872Y156987D01*
X31735D01*
X32151Y157017D01*
X32478Y157046D01*
X32776Y157106D01*
X33014Y157136D01*
X33163Y157195D01*
X33282Y157225D01*
X33311D01*
X33817Y157403D01*
X34055Y157522D01*
X34233Y157612D01*
X34382Y157701D01*
X34501Y157790D01*
X34560Y157820D01*
X34590Y157850D01*
X34888Y158147D01*
X35096Y158474D01*
X35185Y158593D01*
X35245Y158712D01*
X35274Y158771D01*
Y158801D01*
X35364Y159188D01*
X35423Y159575D01*
X35453Y159723D01*
Y159842D01*
Y159902D01*
Y159931D01*
X35423Y160437D01*
X35393Y160645D01*
X35334Y160824D01*
X35304Y161002D01*
X35274Y161121D01*
X35245Y161181D01*
Y161210D01*
X35036Y161567D01*
X34828Y161865D01*
X34709Y161984D01*
X34650Y162073D01*
X34590Y162103D01*
X34560Y162132D01*
X34352Y162281D01*
X34144Y162400D01*
X33698Y162579D01*
X33519Y162638D01*
X33371Y162698D01*
X33252Y162727D01*
X33222D01*
X32568Y162846D01*
X32241Y162876D01*
X31943Y162906D01*
X31675Y162936D01*
D02*
G37*
%LPD*%
D10*
X1466850Y590550D02*
Y615950D01*
Y565150D02*
Y590550D01*
Y539750D02*
Y565150D01*
Y514350D02*
Y539750D01*
Y488950D02*
Y514350D01*
Y463550D02*
Y488950D01*
Y438150D02*
Y463550D01*
Y412750D02*
Y438150D01*
Y387350D02*
Y412750D01*
X184150Y863600D02*
X196850Y876300D01*
Y933450D01*
X38100Y863600D02*
X139700D01*
X184150D01*
X171450Y933450D02*
Y965200D01*
X184150Y977900D01*
X260350D01*
X279400Y958850D01*
X304800D01*
Y730250D02*
Y863600D01*
X387350Y946150D01*
X425450D01*
X463550D01*
X466090Y943610D01*
X520700D01*
X537210D01*
X571500Y977900D01*
X666750D01*
X683260Y961390D01*
Y933450D02*
Y961390D01*
X577850Y793750D02*
X628650Y844550D01*
X539750Y793750D02*
X577850D01*
X520700Y774700D02*
X539750Y793750D01*
X520700Y742950D02*
Y774700D01*
X737870Y900430D02*
Y933450D01*
Y900430D02*
X762000Y876300D01*
Y844550D02*
Y876300D01*
X736600Y717550D02*
Y749300D01*
X654050D02*
X679450D01*
X812800Y717550D02*
Y749300D01*
X762000Y812800D02*
Y844550D01*
X812800Y749300D02*
Y762000D01*
X711200Y819150D02*
X736600Y844550D01*
X711200Y749300D02*
Y819150D01*
X679450Y749300D02*
X711200D01*
X736600D01*
X762000Y812800D02*
X768350Y806450D01*
X812800Y762000D01*
X768350Y806450D02*
X882650D01*
X787400Y844550D02*
X812800Y869950D01*
Y889000D01*
X628650Y844550D02*
Y889000D01*
Y933450D01*
X882650Y806450D02*
Y889000D01*
X933450Y939800D01*
X958850D01*
Y958850D01*
X971550Y971550D01*
X1047750D02*
X1060450Y958850D01*
Y939800D02*
Y958850D01*
X1162050Y939800D02*
Y958850D01*
X1149350Y971550D02*
X1162050Y958850D01*
X1047750Y971550D02*
X1149350D01*
X971550D02*
X1047750D01*
X95250Y501650D02*
X184150D01*
X412750Y533400D02*
Y565150D01*
X406400Y527050D02*
X412750Y533400D01*
X406400Y501650D02*
Y527050D01*
X501650Y584200D02*
Y603250D01*
X482600Y565150D02*
X501650Y584200D01*
X412750Y565150D02*
X482600D01*
X381000Y476250D02*
Y501650D01*
Y476250D02*
X387350Y469900D01*
X450850D01*
X482600Y501650D01*
X514350D01*
X609600Y596900D01*
X692150D01*
X603250Y412750D02*
X635000Y444500D01*
X692150D01*
X425450Y368300D02*
Y412750D01*
X323850D02*
X425450D01*
X882650Y806450D02*
X990600D01*
X1041400Y762000D02*
Y806450D01*
X1121410D01*
X1123950Y803910D01*
X1333500Y742950D02*
Y781050D01*
X1358900Y742950D02*
X1384300Y768350D01*
Y914400D01*
X1422400Y952500D01*
X1454150D01*
X1466850Y939800D01*
Y666750D02*
Y692150D01*
Y717550D01*
Y742950D01*
Y768350D01*
Y793750D01*
Y819150D01*
Y844550D01*
Y869950D01*
Y895350D01*
Y939800D01*
X1212850Y692150D02*
Y742950D01*
X1320800Y615950D02*
X1352550D01*
X1276350D02*
X1320800D01*
X1250950D02*
X1276350D01*
X1238250Y742950D02*
X1308100D01*
X1066800Y660400D02*
X1136650Y730250D01*
Y753110D01*
X1123950Y803910D02*
X1145540Y825500D01*
X1289050D01*
X1333500Y781050D01*
X1136650Y753110D02*
X1170940Y787400D01*
X1238250D01*
Y742950D02*
Y787400D01*
X1352550Y692150D02*
X1358900D01*
X1377950D01*
X1358900D02*
Y742950D01*
X1212850Y692150D02*
X1320800D01*
X1352550D01*
X514350Y323850D02*
Y412750D01*
X425450D02*
X514350D01*
X196850Y276860D02*
X200660Y273050D01*
X425450Y196850D02*
Y273050D01*
X200660D02*
X514350D01*
X323850Y196850D02*
X361950D01*
X400050D01*
X196850Y76200D02*
Y209550D01*
X222250Y234950D01*
X323850D01*
Y196850D02*
Y234950D01*
X419100Y139700D02*
X450850D01*
X317500D02*
X419100D01*
X298450Y158750D02*
X317500Y139700D01*
X298450Y158750D02*
Y196850D01*
X1454150Y50800D02*
X1466850Y63500D01*
Y101600D01*
Y127000D01*
Y152400D01*
Y177800D01*
Y203200D01*
Y228600D01*
Y254000D01*
Y279400D01*
Y304800D01*
Y330200D01*
X450850Y196850D02*
X482600D01*
X501650Y177800D01*
Y139700D02*
Y177800D01*
X450850Y139700D02*
X501650D01*
X539750D01*
X692150Y349250D02*
Y444500D01*
X539750Y139700D02*
X660400D01*
X749300Y50800D01*
X1454150D01*
X742950Y279400D02*
Y349250D01*
Y279400D02*
X800100D01*
X831850Y311150D01*
Y353060D01*
X1035050Y349250D02*
Y387350D01*
Y412750D01*
Y349250D02*
X1104900D01*
X1009650Y317500D02*
Y349250D01*
Y317500D02*
X1022350Y304800D01*
X1155700D01*
Y222250D02*
Y254000D01*
Y304800D01*
Y349250D01*
Y254000D02*
X1219200D01*
X1130300Y349250D02*
Y425450D01*
X1104900Y450850D02*
X1130300Y425450D01*
X895350Y450850D02*
X1104900D01*
X831850Y387350D02*
X895350Y450850D01*
X831850Y353060D02*
Y387350D01*
Y152400D02*
X882650Y203200D01*
Y330200D01*
X939800Y387350D01*
X1035050D01*
X1219200Y254000D02*
X1270000D01*
X1465580Y386080D02*
X1466850Y387350D01*
X1270000Y254000D02*
X1374140Y358140D01*
X1455420D01*
X1465580Y368300D01*
Y386080D01*
X95250Y501650D02*
Y622300D01*
X203200Y730250D01*
X514350Y412750D02*
X590550D01*
X603250D01*
X1352550Y558800D02*
X1384300Y590550D01*
Y685800D01*
X1377950Y692150D02*
X1384300Y685800D01*
X1066800Y660400D02*
X1123950Y603250D01*
X1041400Y660400D02*
X1066800D01*
X304800Y730250D02*
X450850D01*
X533400Y647700D01*
Y622300D02*
Y647700D01*
X514350Y603250D02*
X533400Y622300D01*
X501650Y603250D02*
X514350D01*
X203200Y730250D02*
X228600D01*
X304800D01*
D11*
X139700Y908050D02*
X171450D01*
X139700D02*
Y927100D01*
X146050Y933450D01*
X139700Y831850D02*
Y863600D01*
X171450Y793750D02*
Y831850D01*
X139700Y762000D02*
X171450Y793750D01*
X38100Y762000D02*
X139700D01*
X228600Y412750D02*
X273050D01*
X298450D01*
X260350Y615950D02*
Y647700D01*
Y615950D02*
X304800D01*
X342900Y641350D02*
X381000D01*
X412750D01*
X476250D01*
X201168Y538480D02*
Y567182D01*
X184150Y584200D02*
X201168Y567182D01*
X184150Y584200D02*
Y615950D01*
X387350Y603250D02*
X450850D01*
X381000Y596900D02*
X387350Y603250D01*
X381000Y565150D02*
Y596900D01*
X368300Y565150D02*
X381000D01*
X355600Y552450D02*
X368300Y565150D01*
X355600Y501650D02*
Y552450D01*
X235204Y538480D02*
X280670D01*
X298450Y520700D01*
Y412750D02*
Y520700D01*
X1174750Y673100D02*
Y704850D01*
X1187450Y717550D01*
Y742950D01*
X1174750Y673100D02*
X1193800Y654050D01*
X1238250D01*
X1250950Y641350D01*
Y615950D02*
Y641350D01*
X419100Y63500D02*
X450850D01*
X361950Y165100D02*
Y196850D01*
X387350Y63500D02*
X419100D01*
X381000Y69850D02*
X387350Y63500D01*
X330200Y69850D02*
X355600D01*
X381000D01*
X330200D02*
Y82550D01*
X298450Y114300D02*
X330200Y82550D01*
X254000Y114300D02*
X298450D01*
X254000D02*
Y190500D01*
X260350Y196850D01*
X273050D01*
X996950Y254000D02*
Y279400D01*
Y254000D02*
X1022350D01*
X1079500D01*
Y222250D02*
Y254000D01*
X965200Y311150D02*
X996950Y279400D01*
X965200Y311150D02*
Y330200D01*
X984250Y349250D01*
D12*
X228600Y806450D02*
Y831850D01*
X952500Y704850D02*
Y730250D01*
X590550Y374650D02*
Y412750D01*
Y273050D02*
Y298450D01*
X793750Y82550D02*
X819150D01*
X1333500Y215900D02*
Y241300D01*
X1352550Y838200D02*
Y857250D01*
X1327150Y882650D02*
X1352550Y857250D01*
X1308100Y882650D02*
X1327150D01*
D13*
X1431925Y203200D02*
D03*
Y514350D02*
D03*
D14*
Y777875D02*
D03*
D15*
X450850Y139700D02*
D03*
Y63500D02*
D03*
X419100D02*
D03*
Y139700D02*
D03*
X539750Y114300D02*
D03*
Y139700D02*
D03*
X266700Y273050D02*
D03*
Y323850D02*
D03*
X514350Y273050D02*
D03*
Y323850D02*
D03*
X1174750Y673100D02*
D03*
Y596900D02*
D03*
X1219200Y228600D02*
D03*
Y254000D02*
D03*
X742950Y279400D02*
D03*
Y228600D02*
D03*
X139700Y908050D02*
D03*
Y831850D02*
D03*
X1466850Y666750D02*
D03*
Y692150D02*
D03*
Y717550D02*
D03*
Y742950D02*
D03*
Y768350D02*
D03*
Y793750D02*
D03*
Y819150D02*
D03*
Y844550D02*
D03*
Y869950D02*
D03*
Y895350D02*
D03*
X1441450Y666750D02*
D03*
Y692150D02*
D03*
Y717550D02*
D03*
Y742950D02*
D03*
Y768350D02*
D03*
Y793750D02*
D03*
Y819150D02*
D03*
Y844550D02*
D03*
Y869950D02*
D03*
Y895350D02*
D03*
X1466850Y101600D02*
D03*
Y127000D02*
D03*
Y152400D02*
D03*
Y177800D02*
D03*
Y203200D02*
D03*
Y228600D02*
D03*
Y254000D02*
D03*
Y279400D02*
D03*
Y304800D02*
D03*
Y330200D02*
D03*
X1441450Y101600D02*
D03*
Y127000D02*
D03*
Y152400D02*
D03*
Y177800D02*
D03*
Y203200D02*
D03*
Y228600D02*
D03*
Y254000D02*
D03*
Y279400D02*
D03*
Y304800D02*
D03*
Y330200D02*
D03*
X1466850Y387350D02*
D03*
Y412750D02*
D03*
Y438150D02*
D03*
Y463550D02*
D03*
Y488950D02*
D03*
Y514350D02*
D03*
Y539750D02*
D03*
Y565150D02*
D03*
Y590550D02*
D03*
Y615950D02*
D03*
X1441450Y387350D02*
D03*
Y412750D02*
D03*
Y438150D02*
D03*
Y463550D02*
D03*
Y488950D02*
D03*
Y514350D02*
D03*
Y539750D02*
D03*
Y565150D02*
D03*
Y590550D02*
D03*
Y615950D02*
D03*
X171450Y831850D02*
D03*
Y908050D02*
D03*
X425450Y946150D02*
D03*
Y895350D02*
D03*
X882650Y781050D02*
D03*
Y806450D02*
D03*
X381000Y641350D02*
D03*
Y565150D02*
D03*
X412750D02*
D03*
Y641350D02*
D03*
X482600Y501650D02*
D03*
Y450850D02*
D03*
X95250Y476250D02*
D03*
Y501650D02*
D03*
X425450Y342900D02*
D03*
Y368300D02*
D03*
X1041400Y762000D02*
D03*
Y711200D02*
D03*
Y660400D02*
D03*
Y609600D02*
D03*
X1320800Y692150D02*
D03*
Y615950D02*
D03*
X1352550D02*
D03*
Y692150D02*
D03*
Y533400D02*
D03*
Y558800D02*
D03*
X361950Y114300D02*
D03*
Y165100D02*
D03*
X254000Y114300D02*
D03*
Y38100D02*
D03*
X228600Y730250D02*
D03*
Y806450D02*
D03*
X952500D02*
D03*
Y730250D02*
D03*
X590550Y374650D02*
D03*
Y298450D02*
D03*
X1333500Y317500D02*
D03*
Y241300D02*
D03*
D16*
X273050Y196850D02*
D03*
X298450D02*
D03*
X323850D02*
D03*
X984250Y349250D02*
D03*
X1009650D02*
D03*
X1035050D02*
D03*
X1104900D02*
D03*
X1130300D02*
D03*
X1155700D02*
D03*
X146050Y933450D02*
D03*
X171450D02*
D03*
X196850D02*
D03*
X736600Y844550D02*
D03*
X762000D02*
D03*
X787400D02*
D03*
X400050Y196850D02*
D03*
X425450D02*
D03*
X450850D02*
D03*
X355600Y501650D02*
D03*
X381000D02*
D03*
X406400D02*
D03*
X1308100Y742950D02*
D03*
X1333500D02*
D03*
X1358900D02*
D03*
X1187450D02*
D03*
X1212850D02*
D03*
X1238250D02*
D03*
D17*
X1022350Y254000D02*
D03*
X996950D02*
D03*
X971550D02*
D03*
X323850Y412750D02*
D03*
X298450D02*
D03*
X273050D02*
D03*
X679450Y749300D02*
D03*
X654050D02*
D03*
X628650D02*
D03*
X450850Y603250D02*
D03*
X501650D02*
D03*
X476250Y641350D02*
D03*
X1276350Y615950D02*
D03*
X1250950D02*
D03*
X1225550D02*
D03*
X355600Y69850D02*
D03*
X330200D02*
D03*
X304800D02*
D03*
D18*
X1085850Y412750D02*
D03*
X1035050D02*
D03*
X742950Y349250D02*
D03*
X692150D02*
D03*
X736600Y717550D02*
D03*
X812800D02*
D03*
Y749300D02*
D03*
X736600D02*
D03*
X679450Y844550D02*
D03*
X628650D02*
D03*
X260350Y615950D02*
D03*
X184150D02*
D03*
X260350Y647700D02*
D03*
X184150D02*
D03*
X228600Y412750D02*
D03*
X152400D02*
D03*
X1041400Y806450D02*
D03*
X990600D02*
D03*
X1079500Y222250D02*
D03*
X1155700D02*
D03*
Y254000D02*
D03*
X1079500D02*
D03*
X717550Y82550D02*
D03*
X793750D02*
D03*
X1384300Y882650D02*
D03*
X1308100D02*
D03*
D19*
X831850Y353060D02*
D03*
Y152400D02*
D03*
X38100Y812800D02*
D03*
Y863600D02*
D03*
Y711200D02*
D03*
Y762000D02*
D03*
X304800Y958850D02*
D03*
Y730250D02*
D03*
X520700Y943610D02*
D03*
Y742950D02*
D03*
X1123950Y803910D02*
D03*
Y603250D02*
D03*
X196850Y276860D02*
D03*
Y76200D02*
D03*
D20*
X952500Y704850D02*
D03*
Y679450D02*
D03*
X590550Y273050D02*
D03*
Y247650D02*
D03*
X1333500Y215900D02*
D03*
Y190500D02*
D03*
X228600Y831850D02*
D03*
Y857250D02*
D03*
D21*
X819150Y82550D02*
D03*
X844550D02*
D03*
X1352550Y838200D02*
D03*
X1327150D02*
D03*
D22*
X50800Y50800D02*
D03*
Y952500D02*
D03*
X1327150D02*
D03*
X1358900Y101600D02*
D03*
D23*
X737870Y933450D02*
D03*
X683260D02*
D03*
X628650D02*
D03*
D24*
X958850Y939800D02*
D03*
X1009650D02*
D03*
X1060450D02*
D03*
X1111250D02*
D03*
X1162050D02*
D03*
X1212850D02*
D03*
D25*
X201168Y538480D02*
D03*
X184150Y501650D02*
D03*
X218186D02*
D03*
X235204Y538480D02*
D03*
X252222Y501650D02*
D03*
D26*
X342900Y590550D02*
D03*
Y641350D02*
D03*
X304800Y615950D02*
D03*
D27*
X692150Y444500D02*
D03*
Y596900D02*
D03*
D28*
X812800Y889000D02*
D03*
X628650D02*
D03*
D29*
X120650Y800100D02*
D03*
Y717550D02*
D03*
X622300Y82550D02*
D03*
Y196850D02*
D03*
X1390650Y292100D02*
D03*
Y412750D02*
D03*
X1092200Y381000D02*
D03*
X1174750D02*
D03*
X927100Y850900D02*
D03*
X844550D02*
D03*
X387350Y685800D02*
D03*
Y781050D02*
D03*
M02*
