G04 Layer_Physical_Order=2*
G04 Layer_Color=16711680*
%FSLAX25Y25*%
%MOIN*%
G70*
G01*
G75*
G04:AMPARAMS|DCode=10|XSize=80mil|YSize=100mil|CornerRadius=20mil|HoleSize=0mil|Usage=FLASHONLY|Rotation=0.000|XOffset=0mil|YOffset=0mil|HoleType=Round|Shape=RoundedRectangle|*
%AMROUNDEDRECTD10*
21,1,0.08000,0.06000,0,0,0.0*
21,1,0.04000,0.10000,0,0,0.0*
1,1,0.04000,0.02000,-0.03000*
1,1,0.04000,-0.02000,-0.03000*
1,1,0.04000,-0.02000,0.03000*
1,1,0.04000,0.02000,0.03000*
%
%ADD10ROUNDEDRECTD10*%
G04:AMPARAMS|DCode=11|XSize=80mil|YSize=80mil|CornerRadius=20mil|HoleSize=0mil|Usage=FLASHONLY|Rotation=270.000|XOffset=0mil|YOffset=0mil|HoleType=Round|Shape=RoundedRectangle|*
%AMROUNDEDRECTD11*
21,1,0.08000,0.04000,0,0,270.0*
21,1,0.04000,0.08000,0,0,270.0*
1,1,0.04000,-0.02000,-0.02000*
1,1,0.04000,-0.02000,0.02000*
1,1,0.04000,0.02000,0.02000*
1,1,0.04000,0.02000,-0.02000*
%
%ADD11ROUNDEDRECTD11*%
G04:AMPARAMS|DCode=12|XSize=70mil|YSize=70mil|CornerRadius=17.5mil|HoleSize=0mil|Usage=FLASHONLY|Rotation=90.000|XOffset=0mil|YOffset=0mil|HoleType=Round|Shape=RoundedRectangle|*
%AMROUNDEDRECTD12*
21,1,0.07000,0.03500,0,0,90.0*
21,1,0.03500,0.07000,0,0,90.0*
1,1,0.03500,0.01750,0.01750*
1,1,0.03500,0.01750,-0.01750*
1,1,0.03500,-0.01750,-0.01750*
1,1,0.03500,-0.01750,0.01750*
%
%ADD12ROUNDEDRECTD12*%
G04:AMPARAMS|DCode=13|XSize=80mil|YSize=80mil|CornerRadius=20mil|HoleSize=0mil|Usage=FLASHONLY|Rotation=180.000|XOffset=0mil|YOffset=0mil|HoleType=Round|Shape=RoundedRectangle|*
%AMROUNDEDRECTD13*
21,1,0.08000,0.04000,0,0,180.0*
21,1,0.04000,0.08000,0,0,180.0*
1,1,0.04000,-0.02000,0.02000*
1,1,0.04000,0.02000,0.02000*
1,1,0.04000,0.02000,-0.02000*
1,1,0.04000,-0.02000,-0.02000*
%
%ADD13ROUNDEDRECTD13*%
%ADD14P,0.21307X8X22.5*%
%ADD15C,0.08000*%
%ADD16C,0.01000*%
G36*
X18357Y34993D02*
X18555Y34754D01*
X19808Y33408D01*
X24093Y29064D01*
X18436Y23407D01*
X12374Y29232D01*
X18268Y35127D01*
X18357Y34993D01*
D02*
G37*
G36*
X51994Y23674D02*
X56596Y19591D01*
X57131Y19218D01*
X57600Y18934D01*
X58003Y18736D01*
X51263Y11997D01*
X51066Y12400D01*
X50782Y12869D01*
X50409Y13404D01*
X49400Y14673D01*
X48039Y16207D01*
X45338Y19005D01*
X50995Y24662D01*
X51994Y23674D01*
D02*
G37*
G36*
X81561Y63283D02*
X81945Y62545D01*
X82891Y61015D01*
X83454Y60223D01*
X84758Y58586D01*
X86301Y56876D01*
X87162Y55995D01*
X82505Y49338D01*
X81449Y50377D01*
X77898Y53496D01*
X77179Y54016D01*
X76528Y54433D01*
X75945Y54747D01*
X75429Y54957D01*
X74981Y55063D01*
X81236Y64003D01*
X81561Y63283D01*
D02*
G37*
G36*
X109497Y55264D02*
X109237Y55403D01*
X108841Y55529D01*
X108308Y55639D01*
X107639Y55735D01*
X105892Y55882D01*
X102249Y55993D01*
X100762Y56000D01*
Y64000D01*
X102249Y64007D01*
X108308Y64361D01*
X108841Y64471D01*
X109237Y64597D01*
X109497Y64736D01*
Y55264D01*
D02*
G37*
G36*
X54497D02*
X54237Y55403D01*
X53841Y55529D01*
X53308Y55639D01*
X52639Y55735D01*
X50892Y55882D01*
X47249Y55993D01*
X45762Y56000D01*
Y64000D01*
X47249Y64007D01*
X53308Y64361D01*
X53841Y64471D01*
X54237Y64597D01*
X54497Y64736D01*
Y55264D01*
D02*
G37*
D10*
X132500Y60000D02*
D03*
X122500D02*
D03*
X112500D02*
D03*
X77500D02*
D03*
X67500D02*
D03*
X57500D02*
D03*
D11*
X135000Y15000D02*
D03*
Y35000D02*
D03*
X162500D02*
D03*
Y15000D02*
D03*
X55000Y35000D02*
D03*
Y15000D02*
D03*
X82500D02*
D03*
Y35000D02*
D03*
X95000Y60000D02*
D03*
Y30000D02*
D03*
D12*
X187500Y25000D02*
D03*
Y35000D02*
D03*
X15000Y42500D02*
D03*
Y32500D02*
D03*
D13*
X22500Y60000D02*
D03*
X42500D02*
D03*
D14*
X27500Y10000D02*
D03*
X161500Y59000D02*
D03*
D15*
X37500Y47500D02*
X67500D01*
X25000Y60000D02*
X37500Y47500D01*
X67500D02*
Y60000D01*
X162500Y15000D02*
X182500D01*
X135000D02*
X162500D01*
X182500D02*
X187500Y20000D01*
Y25000D01*
X95000Y30000D02*
X105000D01*
X113500Y38500D01*
X122100D01*
X132500Y48899D01*
Y60000D01*
X90000Y47500D02*
X118373D01*
X122500Y51627D02*
Y60000D01*
X118373Y47500D02*
X122500Y51627D01*
X77500Y60000D02*
X90000Y47500D01*
Y35000D02*
X95000Y30000D01*
X57500Y60000D02*
Y70000D01*
X92500D01*
X95000Y67500D01*
Y60000D02*
Y67500D01*
Y60000D02*
X112500D01*
X162500Y35000D02*
X187500D01*
X82500Y15000D02*
X135000D01*
X82500Y35000D02*
X90000D01*
X55000Y15000D02*
X82500D01*
X55000Y35000D02*
X82500D01*
X29772D02*
X55000D01*
X42500Y60000D02*
X57500D01*
X45000Y25000D02*
X55000Y15000D01*
X22500Y25000D02*
X45000D01*
X15000Y32500D02*
X22500Y25000D01*
X7500Y32500D02*
X15000D01*
X5000Y35000D02*
X7500Y32500D01*
X5000Y35000D02*
Y55000D01*
X10000Y60000D01*
X22500D01*
X22272Y42500D02*
X29772Y35000D01*
X15000Y42500D02*
X22272D01*
X22500Y60000D02*
X25000D01*
X143500Y35000D02*
Y67000D01*
X135000Y35000D02*
X143500D01*
X162500D01*
X140500Y70000D02*
X143500Y67000D01*
X122500Y70000D02*
X140500D01*
X122500Y60000D02*
Y70000D01*
D16*
X132500Y8498D02*
Y4499D01*
X130501Y2500D01*
X128501Y4499D01*
Y8498D01*
X126502D02*
X124503D01*
X125502D01*
Y2500D01*
X126502D01*
X124503D01*
X117505Y7498D02*
X118505Y8498D01*
X120504D01*
X121504Y7498D01*
Y6499D01*
X120504Y5499D01*
X118505D01*
X117505Y4499D01*
Y3500D01*
X118505Y2500D01*
X120504D01*
X121504Y3500D01*
X111507Y8498D02*
X115506D01*
Y2500D01*
X111507D01*
X115506Y5499D02*
X113506D01*
X109507Y2500D02*
Y8498D01*
X106508D01*
X105509Y7498D01*
Y5499D01*
X106508Y4499D01*
X109507D01*
X107508D02*
X105509Y2500D01*
X97511Y5499D02*
X93513D01*
X81516Y8498D02*
X85515D01*
Y2500D01*
X81516D01*
X85515Y5499D02*
X83516D01*
X79517Y2500D02*
Y6499D01*
X77518Y8498D01*
X75518Y6499D01*
Y2500D01*
Y5499D01*
X79517D01*
X69520Y7498D02*
X70520Y8498D01*
X72519D01*
X73519Y7498D01*
Y6499D01*
X72519Y5499D01*
X70520D01*
X69520Y4499D01*
Y3500D01*
X70520Y2500D01*
X72519D01*
X73519Y3500D01*
M02*
