G04 Layer_Color=65535*
%FSLAX25Y25*%
%MOIN*%
G70*
G01*
G75*
%ADD16C,0.01000*%
G36*
X150809Y41351D02*
X151330D01*
Y40918D01*
X150809D01*
Y40000D01*
X150335D01*
Y40918D01*
X148668D01*
Y41351D01*
X150423Y43838D01*
X150809D01*
Y41351D01*
D02*
G37*
G36*
X31907Y61402D02*
X31954Y61396D01*
X32012Y61390D01*
X32077Y61384D01*
X32147Y61373D01*
X32299Y61338D01*
X32463Y61285D01*
X32545Y61250D01*
X32627Y61209D01*
X32703Y61162D01*
X32779Y61110D01*
X32785Y61104D01*
X32796Y61098D01*
X32814Y61080D01*
X32843Y61057D01*
X32872Y61027D01*
X32913Y60987D01*
X32954Y60946D01*
X32995Y60899D01*
X33042Y60840D01*
X33083Y60782D01*
X33130Y60712D01*
X33176Y60636D01*
X33217Y60560D01*
X33258Y60472D01*
X33329Y60285D01*
X32825Y60168D01*
Y60173D01*
X32820Y60185D01*
X32814Y60209D01*
X32802Y60238D01*
X32785Y60273D01*
X32767Y60314D01*
X32726Y60402D01*
X32673Y60501D01*
X32603Y60606D01*
X32527Y60700D01*
X32434Y60782D01*
X32422Y60788D01*
X32387Y60811D01*
X32334Y60840D01*
X32258Y60881D01*
X32170Y60916D01*
X32059Y60946D01*
X31936Y60969D01*
X31796Y60975D01*
X31755D01*
X31726Y60969D01*
X31685D01*
X31644Y60963D01*
X31539Y60946D01*
X31422Y60922D01*
X31299Y60881D01*
X31176Y60829D01*
X31059Y60759D01*
X31053D01*
X31047Y60747D01*
X31012Y60717D01*
X30959Y60671D01*
X30895Y60606D01*
X30831Y60524D01*
X30760Y60431D01*
X30696Y60314D01*
X30643Y60185D01*
Y60179D01*
X30638Y60168D01*
X30632Y60150D01*
X30626Y60121D01*
X30614Y60092D01*
X30608Y60051D01*
X30585Y59957D01*
X30562Y59846D01*
X30544Y59723D01*
X30532Y59588D01*
X30527Y59448D01*
Y59442D01*
Y59425D01*
Y59401D01*
Y59366D01*
X30532Y59325D01*
Y59273D01*
X30538Y59220D01*
X30544Y59161D01*
X30562Y59027D01*
X30585Y58881D01*
X30620Y58734D01*
X30667Y58594D01*
Y58588D01*
X30673Y58576D01*
X30684Y58559D01*
X30696Y58535D01*
X30725Y58465D01*
X30772Y58389D01*
X30836Y58296D01*
X30913Y58208D01*
X31000Y58120D01*
X31106Y58044D01*
X31111D01*
X31117Y58038D01*
X31135Y58026D01*
X31158Y58015D01*
X31223Y57991D01*
X31305Y57956D01*
X31398Y57927D01*
X31509Y57898D01*
X31632Y57874D01*
X31761Y57869D01*
X31802D01*
X31831Y57874D01*
X31866D01*
X31913Y57880D01*
X32012Y57898D01*
X32124Y57927D01*
X32246Y57974D01*
X32363Y58032D01*
X32480Y58114D01*
X32486Y58120D01*
X32492Y58126D01*
X32527Y58161D01*
X32580Y58220D01*
X32644Y58296D01*
X32709Y58401D01*
X32779Y58524D01*
X32837Y58676D01*
X32884Y58846D01*
X33393Y58717D01*
Y58711D01*
X33387Y58688D01*
X33375Y58658D01*
X33364Y58612D01*
X33340Y58565D01*
X33317Y58500D01*
X33294Y58436D01*
X33258Y58366D01*
X33182Y58208D01*
X33077Y58050D01*
X32960Y57898D01*
X32890Y57828D01*
X32814Y57763D01*
X32808Y57757D01*
X32796Y57752D01*
X32773Y57734D01*
X32738Y57711D01*
X32697Y57687D01*
X32650Y57658D01*
X32597Y57629D01*
X32533Y57600D01*
X32463Y57570D01*
X32387Y57541D01*
X32299Y57512D01*
X32211Y57488D01*
X32018Y57447D01*
X31913Y57442D01*
X31802Y57436D01*
X31743D01*
X31697Y57442D01*
X31644D01*
X31585Y57447D01*
X31515Y57459D01*
X31445Y57465D01*
X31281Y57500D01*
X31111Y57541D01*
X30948Y57605D01*
X30866Y57640D01*
X30790Y57687D01*
X30784Y57693D01*
X30772Y57699D01*
X30755Y57716D01*
X30725Y57734D01*
X30655Y57793D01*
X30573Y57874D01*
X30474Y57974D01*
X30380Y58103D01*
X30281Y58249D01*
X30199Y58418D01*
Y58424D01*
X30193Y58442D01*
X30181Y58465D01*
X30170Y58500D01*
X30152Y58547D01*
X30135Y58600D01*
X30117Y58658D01*
X30099Y58728D01*
X30082Y58799D01*
X30064Y58881D01*
X30029Y59056D01*
X30006Y59243D01*
X30000Y59448D01*
Y59454D01*
Y59477D01*
Y59507D01*
X30006Y59548D01*
Y59600D01*
X30012Y59664D01*
X30018Y59729D01*
X30029Y59805D01*
X30059Y59969D01*
X30094Y60144D01*
X30152Y60325D01*
X30228Y60495D01*
Y60501D01*
X30240Y60513D01*
X30252Y60536D01*
X30269Y60571D01*
X30292Y60606D01*
X30322Y60647D01*
X30398Y60747D01*
X30486Y60858D01*
X30597Y60969D01*
X30731Y61080D01*
X30878Y61174D01*
X30883D01*
X30895Y61185D01*
X30918Y61197D01*
X30954Y61209D01*
X30989Y61226D01*
X31035Y61250D01*
X31094Y61267D01*
X31152Y61291D01*
X31217Y61314D01*
X31287Y61332D01*
X31445Y61373D01*
X31620Y61396D01*
X31808Y61408D01*
X31866D01*
X31907Y61402D01*
D02*
G37*
G36*
X35142Y61355D02*
X35218Y61343D01*
X35306Y61326D01*
X35405Y61303D01*
X35505Y61267D01*
X35604Y61221D01*
X35610D01*
X35616Y61215D01*
X35651Y61197D01*
X35698Y61168D01*
X35756Y61127D01*
X35821Y61074D01*
X35891Y61010D01*
X35955Y60934D01*
X36014Y60852D01*
X36020Y60840D01*
X36037Y60811D01*
X36061Y60764D01*
X36084Y60706D01*
X36107Y60630D01*
X36131Y60548D01*
X36148Y60460D01*
X36154Y60361D01*
Y60349D01*
Y60320D01*
X36148Y60273D01*
X36137Y60214D01*
X36119Y60144D01*
X36096Y60068D01*
X36066Y59986D01*
X36020Y59910D01*
X36014Y59899D01*
X35996Y59875D01*
X35961Y59840D01*
X35920Y59793D01*
X35862Y59741D01*
X35797Y59688D01*
X35715Y59629D01*
X35622Y59583D01*
X35628D01*
X35639Y59577D01*
X35657D01*
X35680Y59565D01*
X35739Y59548D01*
X35815Y59512D01*
X35897Y59471D01*
X35985Y59413D01*
X36072Y59343D01*
X36148Y59255D01*
X36154Y59243D01*
X36178Y59208D01*
X36207Y59156D01*
X36248Y59085D01*
X36283Y58998D01*
X36312Y58892D01*
X36336Y58769D01*
X36341Y58635D01*
Y58629D01*
Y58612D01*
Y58588D01*
X36336Y58553D01*
X36330Y58506D01*
X36324Y58459D01*
X36312Y58401D01*
X36295Y58342D01*
X36254Y58208D01*
X36224Y58132D01*
X36183Y58062D01*
X36143Y57991D01*
X36096Y57921D01*
X36037Y57851D01*
X35973Y57781D01*
X35967Y57775D01*
X35955Y57763D01*
X35938Y57752D01*
X35908Y57728D01*
X35873Y57699D01*
X35827Y57670D01*
X35774Y57640D01*
X35721Y57611D01*
X35657Y57576D01*
X35587Y57547D01*
X35511Y57518D01*
X35429Y57488D01*
X35341Y57465D01*
X35247Y57453D01*
X35148Y57442D01*
X35049Y57436D01*
X35002D01*
X34967Y57442D01*
X34920Y57447D01*
X34873Y57453D01*
X34815Y57459D01*
X34756Y57471D01*
X34622Y57506D01*
X34481Y57564D01*
X34411Y57594D01*
X34347Y57635D01*
X34276Y57681D01*
X34212Y57734D01*
X34206Y57740D01*
X34200Y57746D01*
X34183Y57763D01*
X34159Y57787D01*
X34136Y57822D01*
X34107Y57857D01*
X34072Y57898D01*
X34042Y57945D01*
X33972Y58062D01*
X33914Y58196D01*
X33861Y58348D01*
X33843Y58430D01*
X33832Y58518D01*
X34306Y58582D01*
Y58576D01*
X34312Y58565D01*
Y58541D01*
X34323Y58518D01*
X34341Y58448D01*
X34370Y58360D01*
X34405Y58266D01*
X34452Y58167D01*
X34510Y58079D01*
X34575Y58003D01*
X34586Y57997D01*
X34610Y57974D01*
X34651Y57951D01*
X34709Y57915D01*
X34774Y57886D01*
X34855Y57857D01*
X34949Y57833D01*
X35049Y57828D01*
X35084D01*
X35107Y57833D01*
X35166Y57839D01*
X35242Y57857D01*
X35335Y57886D01*
X35429Y57921D01*
X35522Y57980D01*
X35610Y58056D01*
X35622Y58067D01*
X35645Y58097D01*
X35680Y58144D01*
X35727Y58214D01*
X35768Y58296D01*
X35803Y58395D01*
X35827Y58506D01*
X35838Y58629D01*
Y58635D01*
Y58641D01*
Y58658D01*
X35833Y58682D01*
X35827Y58740D01*
X35809Y58816D01*
X35786Y58898D01*
X35745Y58992D01*
X35692Y59079D01*
X35622Y59161D01*
X35610Y59173D01*
X35587Y59197D01*
X35540Y59226D01*
X35476Y59267D01*
X35399Y59308D01*
X35306Y59337D01*
X35206Y59360D01*
X35089Y59372D01*
X35037D01*
X34996Y59366D01*
X34949Y59360D01*
X34891Y59354D01*
X34826Y59343D01*
X34756Y59325D01*
X34809Y59741D01*
X34838D01*
X34861Y59735D01*
X34937D01*
X34990Y59741D01*
X35066Y59752D01*
X35148Y59770D01*
X35236Y59799D01*
X35329Y59834D01*
X35423Y59887D01*
X35435Y59893D01*
X35464Y59916D01*
X35499Y59957D01*
X35546Y60010D01*
X35593Y60074D01*
X35628Y60156D01*
X35657Y60255D01*
X35669Y60372D01*
Y60378D01*
Y60384D01*
Y60413D01*
X35657Y60460D01*
X35645Y60524D01*
X35628Y60589D01*
X35593Y60659D01*
X35552Y60735D01*
X35493Y60799D01*
X35487Y60805D01*
X35464Y60829D01*
X35423Y60858D01*
X35370Y60887D01*
X35306Y60922D01*
X35230Y60946D01*
X35142Y60969D01*
X35043Y60975D01*
X34996D01*
X34943Y60963D01*
X34885Y60952D01*
X34809Y60934D01*
X34733Y60899D01*
X34657Y60858D01*
X34580Y60799D01*
X34575Y60794D01*
X34551Y60770D01*
X34522Y60729D01*
X34487Y60671D01*
X34446Y60601D01*
X34411Y60513D01*
X34376Y60407D01*
X34352Y60285D01*
X33879Y60366D01*
Y60372D01*
X33884Y60390D01*
X33890Y60413D01*
X33896Y60443D01*
X33908Y60483D01*
X33920Y60530D01*
X33960Y60636D01*
X34007Y60753D01*
X34077Y60875D01*
X34159Y60992D01*
X34265Y61098D01*
X34271Y61104D01*
X34276Y61110D01*
X34294Y61121D01*
X34323Y61139D01*
X34352Y61156D01*
X34387Y61180D01*
X34475Y61232D01*
X34586Y61279D01*
X34721Y61320D01*
X34867Y61349D01*
X34949Y61361D01*
X35084D01*
X35142Y61355D01*
D02*
G37*
G36*
X134547Y27494D02*
X134600D01*
X134664Y27488D01*
X134729Y27483D01*
X134805Y27471D01*
X134969Y27441D01*
X135144Y27406D01*
X135326Y27348D01*
X135495Y27272D01*
X135501D01*
X135513Y27260D01*
X135536Y27248D01*
X135571Y27231D01*
X135606Y27207D01*
X135647Y27178D01*
X135747Y27102D01*
X135858Y27014D01*
X135969Y26903D01*
X136080Y26769D01*
X136174Y26623D01*
Y26617D01*
X136186Y26605D01*
X136197Y26581D01*
X136209Y26546D01*
X136226Y26511D01*
X136250Y26465D01*
X136267Y26406D01*
X136291Y26348D01*
X136314Y26283D01*
X136332Y26213D01*
X136373Y26055D01*
X136396Y25880D01*
X136408Y25692D01*
Y25686D01*
Y25669D01*
Y25634D01*
X136402Y25593D01*
X136396Y25546D01*
X136390Y25488D01*
X136384Y25423D01*
X136373Y25353D01*
X136338Y25201D01*
X136285Y25037D01*
X136250Y24955D01*
X136209Y24873D01*
X136162Y24797D01*
X136109Y24721D01*
X136104Y24715D01*
X136098Y24704D01*
X136080Y24686D01*
X136057Y24657D01*
X136028Y24628D01*
X135987Y24587D01*
X135946Y24546D01*
X135899Y24505D01*
X135840Y24458D01*
X135782Y24417D01*
X135712Y24370D01*
X135636Y24323D01*
X135559Y24283D01*
X135472Y24242D01*
X135285Y24171D01*
X135168Y24674D01*
X135173D01*
X135185Y24680D01*
X135208Y24686D01*
X135238Y24698D01*
X135273Y24715D01*
X135314Y24733D01*
X135402Y24774D01*
X135501Y24827D01*
X135606Y24897D01*
X135700Y24973D01*
X135782Y25066D01*
X135788Y25078D01*
X135811Y25113D01*
X135840Y25166D01*
X135881Y25242D01*
X135916Y25330D01*
X135946Y25441D01*
X135969Y25564D01*
X135975Y25704D01*
Y25710D01*
Y25722D01*
Y25745D01*
X135969Y25774D01*
Y25815D01*
X135963Y25856D01*
X135946Y25962D01*
X135922Y26078D01*
X135881Y26201D01*
X135829Y26324D01*
X135758Y26441D01*
Y26447D01*
X135747Y26453D01*
X135717Y26488D01*
X135671Y26541D01*
X135606Y26605D01*
X135524Y26669D01*
X135431Y26739D01*
X135314Y26804D01*
X135185Y26856D01*
X135179D01*
X135168Y26862D01*
X135150Y26868D01*
X135121Y26874D01*
X135092Y26886D01*
X135051Y26892D01*
X134957Y26915D01*
X134846Y26938D01*
X134723Y26956D01*
X134588Y26968D01*
X134448Y26974D01*
X134366D01*
X134325Y26968D01*
X134273D01*
X134220Y26962D01*
X134161Y26956D01*
X134027Y26938D01*
X133881Y26915D01*
X133734Y26880D01*
X133594Y26833D01*
X133588D01*
X133576Y26827D01*
X133559Y26816D01*
X133535Y26804D01*
X133465Y26775D01*
X133389Y26728D01*
X133296Y26664D01*
X133208Y26587D01*
X133120Y26500D01*
X133044Y26394D01*
Y26388D01*
X133038Y26383D01*
X133027Y26365D01*
X133015Y26342D01*
X132991Y26277D01*
X132956Y26195D01*
X132927Y26102D01*
X132898Y25991D01*
X132874Y25868D01*
X132869Y25739D01*
Y25733D01*
Y25722D01*
Y25698D01*
X132874Y25669D01*
Y25634D01*
X132880Y25587D01*
X132898Y25488D01*
X132927Y25376D01*
X132974Y25254D01*
X133032Y25137D01*
X133114Y25020D01*
X133120Y25014D01*
X133126Y25008D01*
X133161Y24973D01*
X133220Y24920D01*
X133296Y24856D01*
X133401Y24791D01*
X133524Y24721D01*
X133676Y24663D01*
X133845Y24616D01*
X133717Y24107D01*
X133711D01*
X133688Y24113D01*
X133658Y24125D01*
X133612Y24136D01*
X133565Y24160D01*
X133500Y24183D01*
X133436Y24206D01*
X133366Y24242D01*
X133208Y24318D01*
X133050Y24423D01*
X132898Y24540D01*
X132828Y24610D01*
X132763Y24686D01*
X132757Y24692D01*
X132752Y24704D01*
X132734Y24727D01*
X132711Y24762D01*
X132687Y24803D01*
X132658Y24850D01*
X132629Y24903D01*
X132599Y24967D01*
X132570Y25037D01*
X132541Y25113D01*
X132512Y25201D01*
X132488Y25289D01*
X132447Y25482D01*
X132441Y25587D01*
X132436Y25698D01*
Y25704D01*
Y25727D01*
Y25757D01*
X132441Y25804D01*
Y25856D01*
X132447Y25915D01*
X132459Y25985D01*
X132465Y26055D01*
X132500Y26219D01*
X132541Y26388D01*
X132605Y26552D01*
X132640Y26634D01*
X132687Y26710D01*
X132693Y26716D01*
X132699Y26728D01*
X132717Y26745D01*
X132734Y26775D01*
X132792Y26845D01*
X132874Y26927D01*
X132974Y27026D01*
X133103Y27120D01*
X133249Y27219D01*
X133419Y27301D01*
X133424D01*
X133442Y27307D01*
X133465Y27319D01*
X133500Y27330D01*
X133547Y27348D01*
X133600Y27365D01*
X133658Y27383D01*
X133729Y27400D01*
X133799Y27418D01*
X133881Y27436D01*
X134056Y27471D01*
X134243Y27494D01*
X134448Y27500D01*
X134506D01*
X134547Y27494D01*
D02*
G37*
G36*
X133541Y23177D02*
X133524D01*
X133506Y23171D01*
X133483Y23165D01*
X133419Y23148D01*
X133337Y23124D01*
X133249Y23095D01*
X133161Y23048D01*
X133073Y22996D01*
X132997Y22925D01*
X132991Y22914D01*
X132968Y22890D01*
X132945Y22849D01*
X132910Y22791D01*
X132880Y22721D01*
X132851Y22639D01*
X132828Y22545D01*
X132822Y22446D01*
Y22440D01*
Y22428D01*
Y22411D01*
X132828Y22387D01*
X132833Y22323D01*
X132851Y22241D01*
X132886Y22153D01*
X132927Y22054D01*
X132991Y21960D01*
X133027Y21913D01*
X133073Y21867D01*
X133079D01*
X133085Y21855D01*
X133120Y21831D01*
X133179Y21790D01*
X133255Y21749D01*
X133354Y21709D01*
X133471Y21667D01*
X133606Y21644D01*
X133758Y21632D01*
X133799D01*
X133822Y21638D01*
X133857D01*
X133898Y21644D01*
X133992Y21662D01*
X134091Y21685D01*
X134196Y21726D01*
X134302Y21784D01*
X134395Y21861D01*
X134407Y21872D01*
X134431Y21902D01*
X134471Y21948D01*
X134512Y22018D01*
X134553Y22100D01*
X134594Y22206D01*
X134618Y22323D01*
X134629Y22451D01*
Y22463D01*
Y22492D01*
X134624Y22533D01*
X134618Y22592D01*
X134600Y22656D01*
X134583Y22726D01*
X134553Y22797D01*
X134518Y22867D01*
X134512Y22873D01*
X134501Y22896D01*
X134477Y22931D01*
X134448Y22972D01*
X134407Y23013D01*
X134360Y23060D01*
X134308Y23107D01*
X134249Y23148D01*
X134313Y23592D01*
X136285Y23218D01*
Y21311D01*
X135835D01*
Y22843D01*
X134799Y23054D01*
X134805Y23048D01*
X134811Y23036D01*
X134822Y23019D01*
X134840Y22996D01*
X134857Y22960D01*
X134875Y22925D01*
X134922Y22832D01*
X134969Y22726D01*
X135004Y22604D01*
X135033Y22469D01*
X135045Y22329D01*
Y22323D01*
Y22305D01*
Y22282D01*
X135039Y22247D01*
X135033Y22200D01*
X135027Y22153D01*
X135015Y22095D01*
X135004Y22036D01*
X134957Y21902D01*
X134934Y21831D01*
X134898Y21761D01*
X134857Y21685D01*
X134811Y21615D01*
X134758Y21545D01*
X134694Y21480D01*
X134688Y21475D01*
X134676Y21463D01*
X134659Y21445D01*
X134629Y21428D01*
X134594Y21398D01*
X134553Y21369D01*
X134506Y21340D01*
X134454Y21305D01*
X134390Y21270D01*
X134325Y21240D01*
X134249Y21211D01*
X134173Y21182D01*
X134085Y21164D01*
X133998Y21147D01*
X133898Y21135D01*
X133799Y21129D01*
X133746D01*
X133711Y21135D01*
X133664Y21141D01*
X133612Y21147D01*
X133553Y21153D01*
X133489Y21164D01*
X133348Y21205D01*
X133202Y21258D01*
X133120Y21293D01*
X133044Y21334D01*
X132968Y21381D01*
X132898Y21433D01*
X132892Y21439D01*
X132880Y21451D01*
X132857Y21475D01*
X132828Y21504D01*
X132792Y21539D01*
X132752Y21586D01*
X132711Y21638D01*
X132670Y21703D01*
X132623Y21767D01*
X132582Y21843D01*
X132541Y21931D01*
X132506Y22018D01*
X132477Y22118D01*
X132453Y22217D01*
X132441Y22329D01*
X132436Y22446D01*
Y22451D01*
Y22469D01*
Y22498D01*
X132441Y22533D01*
X132447Y22574D01*
X132453Y22627D01*
X132459Y22685D01*
X132471Y22750D01*
X132506Y22884D01*
X132559Y23025D01*
X132594Y23095D01*
X132634Y23165D01*
X132676Y23235D01*
X132728Y23300D01*
X132734Y23305D01*
X132740Y23311D01*
X132757Y23329D01*
X132781Y23352D01*
X132810Y23376D01*
X132845Y23405D01*
X132886Y23434D01*
X132933Y23469D01*
X133044Y23534D01*
X133179Y23598D01*
X133331Y23645D01*
X133419Y23662D01*
X133506Y23674D01*
X133541Y23177D01*
D02*
G37*
G36*
X146907Y43902D02*
X146954Y43896D01*
X147012Y43890D01*
X147077Y43884D01*
X147147Y43873D01*
X147299Y43838D01*
X147463Y43785D01*
X147545Y43750D01*
X147627Y43709D01*
X147703Y43662D01*
X147779Y43609D01*
X147785Y43604D01*
X147796Y43598D01*
X147814Y43580D01*
X147843Y43557D01*
X147872Y43528D01*
X147913Y43487D01*
X147954Y43446D01*
X147995Y43399D01*
X148042Y43340D01*
X148083Y43282D01*
X148130Y43212D01*
X148177Y43136D01*
X148217Y43060D01*
X148258Y42972D01*
X148329Y42785D01*
X147826Y42668D01*
Y42674D01*
X147820Y42685D01*
X147814Y42709D01*
X147802Y42738D01*
X147785Y42773D01*
X147767Y42814D01*
X147726Y42902D01*
X147673Y43001D01*
X147603Y43106D01*
X147527Y43200D01*
X147434Y43282D01*
X147422Y43288D01*
X147387Y43311D01*
X147334Y43340D01*
X147258Y43381D01*
X147170Y43416D01*
X147059Y43446D01*
X146936Y43469D01*
X146796Y43475D01*
X146755D01*
X146726Y43469D01*
X146685D01*
X146644Y43463D01*
X146539Y43446D01*
X146422Y43422D01*
X146299Y43381D01*
X146176Y43329D01*
X146059Y43258D01*
X146053D01*
X146047Y43247D01*
X146012Y43218D01*
X145959Y43171D01*
X145895Y43106D01*
X145831Y43025D01*
X145761Y42931D01*
X145696Y42814D01*
X145643Y42685D01*
Y42679D01*
X145638Y42668D01*
X145632Y42650D01*
X145626Y42621D01*
X145614Y42592D01*
X145608Y42551D01*
X145585Y42457D01*
X145562Y42346D01*
X145544Y42223D01*
X145532Y42088D01*
X145527Y41948D01*
Y41942D01*
Y41925D01*
Y41901D01*
Y41866D01*
X145532Y41825D01*
Y41773D01*
X145538Y41720D01*
X145544Y41661D01*
X145562Y41527D01*
X145585Y41381D01*
X145620Y41234D01*
X145667Y41094D01*
Y41088D01*
X145673Y41076D01*
X145684Y41059D01*
X145696Y41035D01*
X145725Y40965D01*
X145772Y40889D01*
X145837Y40796D01*
X145913Y40708D01*
X146000Y40620D01*
X146106Y40544D01*
X146112D01*
X146117Y40538D01*
X146135Y40527D01*
X146158Y40515D01*
X146223Y40491D01*
X146305Y40456D01*
X146398Y40427D01*
X146509Y40398D01*
X146632Y40374D01*
X146761Y40369D01*
X146802D01*
X146831Y40374D01*
X146866D01*
X146913Y40380D01*
X147012Y40398D01*
X147124Y40427D01*
X147246Y40474D01*
X147363Y40532D01*
X147480Y40614D01*
X147486Y40620D01*
X147492Y40626D01*
X147527Y40661D01*
X147580Y40720D01*
X147644Y40796D01*
X147708Y40901D01*
X147779Y41024D01*
X147837Y41176D01*
X147884Y41346D01*
X148393Y41217D01*
Y41211D01*
X148387Y41188D01*
X148375Y41158D01*
X148364Y41111D01*
X148340Y41065D01*
X148317Y41000D01*
X148294Y40936D01*
X148258Y40866D01*
X148182Y40708D01*
X148077Y40550D01*
X147960Y40398D01*
X147890Y40328D01*
X147814Y40263D01*
X147808Y40257D01*
X147796Y40251D01*
X147773Y40234D01*
X147738Y40211D01*
X147697Y40187D01*
X147650Y40158D01*
X147597Y40129D01*
X147533Y40099D01*
X147463Y40070D01*
X147387Y40041D01*
X147299Y40012D01*
X147211Y39988D01*
X147018Y39947D01*
X146913Y39941D01*
X146802Y39936D01*
X146743D01*
X146696Y39941D01*
X146644D01*
X146585Y39947D01*
X146515Y39959D01*
X146445Y39965D01*
X146281Y40000D01*
X146112Y40041D01*
X145948Y40105D01*
X145866Y40140D01*
X145790Y40187D01*
X145784Y40193D01*
X145772Y40199D01*
X145755Y40216D01*
X145725Y40234D01*
X145655Y40293D01*
X145573Y40374D01*
X145474Y40474D01*
X145380Y40603D01*
X145281Y40749D01*
X145199Y40918D01*
Y40924D01*
X145193Y40942D01*
X145181Y40965D01*
X145170Y41000D01*
X145152Y41047D01*
X145134Y41100D01*
X145117Y41158D01*
X145099Y41229D01*
X145082Y41299D01*
X145064Y41381D01*
X145029Y41556D01*
X145006Y41743D01*
X145000Y41948D01*
Y41954D01*
Y41977D01*
Y42006D01*
X145006Y42048D01*
Y42100D01*
X145012Y42164D01*
X145018Y42229D01*
X145029Y42305D01*
X145059Y42469D01*
X145094Y42644D01*
X145152Y42825D01*
X145228Y42995D01*
Y43001D01*
X145240Y43013D01*
X145252Y43036D01*
X145269Y43071D01*
X145292Y43106D01*
X145322Y43147D01*
X145398Y43247D01*
X145485Y43358D01*
X145597Y43469D01*
X145731Y43580D01*
X145878Y43674D01*
X145883D01*
X145895Y43685D01*
X145919Y43697D01*
X145954Y43709D01*
X145989Y43726D01*
X146035Y43750D01*
X146094Y43767D01*
X146152Y43791D01*
X146217Y43814D01*
X146287Y43832D01*
X146445Y43873D01*
X146621Y43896D01*
X146808Y43908D01*
X146866D01*
X146907Y43902D01*
D02*
G37*
G36*
X43104Y40000D02*
X42630D01*
Y43007D01*
X42625Y43001D01*
X42601Y42978D01*
X42560Y42948D01*
X42508Y42908D01*
X42443Y42855D01*
X42367Y42802D01*
X42279Y42738D01*
X42180Y42679D01*
X42174D01*
X42168Y42674D01*
X42133Y42650D01*
X42081Y42621D01*
X42016Y42586D01*
X41940Y42545D01*
X41858Y42510D01*
X41770Y42469D01*
X41689Y42434D01*
Y42896D01*
X41695D01*
X41706Y42902D01*
X41730Y42913D01*
X41753Y42931D01*
X41788Y42948D01*
X41829Y42966D01*
X41923Y43019D01*
X42028Y43083D01*
X42145Y43159D01*
X42262Y43247D01*
X42373Y43340D01*
X42379Y43346D01*
X42385Y43352D01*
X42420Y43387D01*
X42472Y43440D01*
X42537Y43504D01*
X42607Y43586D01*
X42677Y43674D01*
X42742Y43767D01*
X42794Y43861D01*
X43104D01*
Y40000D01*
D02*
G37*
G36*
X171112Y32453D02*
X172159D01*
Y32008D01*
X171112D01*
Y30961D01*
X170673D01*
Y32008D01*
X169620D01*
Y32453D01*
X170673D01*
Y33500D01*
X171112D01*
Y32453D01*
D02*
G37*
G36*
X63612D02*
X64659D01*
Y32008D01*
X63612D01*
Y30961D01*
X63173D01*
Y32008D01*
X62120D01*
Y32453D01*
X63173D01*
Y33500D01*
X63612D01*
Y32453D01*
D02*
G37*
G36*
X85000Y26261D02*
X84936D01*
X84895Y26267D01*
X84848Y26273D01*
X84795Y26279D01*
X84737Y26297D01*
X84678Y26314D01*
X84672D01*
X84667Y26320D01*
X84631Y26332D01*
X84585Y26355D01*
X84514Y26390D01*
X84438Y26431D01*
X84351Y26490D01*
X84263Y26548D01*
X84169Y26624D01*
X84163D01*
X84158Y26636D01*
X84123Y26665D01*
X84070Y26712D01*
X84000Y26782D01*
X83918Y26870D01*
X83818Y26975D01*
X83707Y27104D01*
X83584Y27244D01*
X83578Y27250D01*
X83561Y27274D01*
X83538Y27303D01*
X83497Y27344D01*
X83456Y27396D01*
X83403Y27455D01*
X83292Y27584D01*
X83157Y27724D01*
X83023Y27864D01*
X82958Y27935D01*
X82894Y27993D01*
X82830Y28046D01*
X82771Y28093D01*
X82765D01*
X82759Y28104D01*
X82742Y28116D01*
X82718Y28128D01*
X82660Y28163D01*
X82584Y28204D01*
X82496Y28245D01*
X82403Y28280D01*
X82297Y28303D01*
X82198Y28315D01*
X82186D01*
X82151Y28309D01*
X82098Y28303D01*
X82034Y28291D01*
X81958Y28262D01*
X81882Y28227D01*
X81800Y28180D01*
X81724Y28110D01*
X81718Y28098D01*
X81695Y28075D01*
X81665Y28028D01*
X81625Y27970D01*
X81589Y27894D01*
X81560Y27806D01*
X81537Y27701D01*
X81531Y27584D01*
Y27578D01*
Y27566D01*
Y27549D01*
X81537Y27525D01*
X81543Y27467D01*
X81554Y27391D01*
X81584Y27303D01*
X81619Y27209D01*
X81671Y27121D01*
X81741Y27040D01*
X81753Y27034D01*
X81777Y27010D01*
X81823Y26975D01*
X81888Y26940D01*
X81970Y26899D01*
X82063Y26870D01*
X82174Y26847D01*
X82303Y26835D01*
X82250Y26349D01*
X82227D01*
X82198Y26355D01*
X82163Y26361D01*
X82116Y26373D01*
X82063Y26379D01*
X81946Y26414D01*
X81812Y26460D01*
X81677Y26525D01*
X81543Y26612D01*
X81484Y26659D01*
X81426Y26718D01*
X81420Y26724D01*
X81414Y26735D01*
X81396Y26753D01*
X81379Y26776D01*
X81361Y26812D01*
X81332Y26852D01*
X81309Y26899D01*
X81279Y26952D01*
X81256Y27010D01*
X81227Y27075D01*
X81203Y27151D01*
X81186Y27227D01*
X81151Y27402D01*
X81145Y27496D01*
X81139Y27595D01*
Y27601D01*
Y27619D01*
Y27648D01*
X81145Y27689D01*
X81151Y27736D01*
X81157Y27788D01*
X81162Y27847D01*
X81180Y27911D01*
X81215Y28052D01*
X81268Y28198D01*
X81303Y28274D01*
X81344Y28344D01*
X81396Y28409D01*
X81449Y28473D01*
X81455Y28479D01*
X81461Y28485D01*
X81478Y28502D01*
X81502Y28526D01*
X81537Y28549D01*
X81572Y28578D01*
X81660Y28637D01*
X81771Y28695D01*
X81899Y28748D01*
X82046Y28789D01*
X82128Y28795D01*
X82210Y28800D01*
X82250D01*
X82297Y28795D01*
X82356Y28789D01*
X82426Y28777D01*
X82502Y28760D01*
X82584Y28736D01*
X82666Y28701D01*
X82678Y28695D01*
X82707Y28683D01*
X82748Y28660D01*
X82806Y28625D01*
X82876Y28584D01*
X82958Y28531D01*
X83040Y28461D01*
X83134Y28385D01*
X83146Y28373D01*
X83181Y28344D01*
X83233Y28291D01*
X83268Y28256D01*
X83309Y28215D01*
X83356Y28169D01*
X83409Y28110D01*
X83461Y28052D01*
X83526Y27987D01*
X83590Y27917D01*
X83660Y27835D01*
X83731Y27753D01*
X83812Y27660D01*
X83818Y27654D01*
X83830Y27642D01*
X83848Y27619D01*
X83871Y27589D01*
X83929Y27519D01*
X84005Y27431D01*
X84087Y27344D01*
X84169Y27250D01*
X84240Y27174D01*
X84269Y27145D01*
X84298Y27116D01*
X84304Y27110D01*
X84321Y27098D01*
X84345Y27075D01*
X84380Y27045D01*
X84456Y26981D01*
X84549Y26917D01*
Y28806D01*
X85000D01*
Y26261D01*
D02*
G37*
G36*
X83812Y25887D02*
X83842Y25875D01*
X83889Y25864D01*
X83935Y25840D01*
X84000Y25817D01*
X84064Y25793D01*
X84134Y25758D01*
X84292Y25682D01*
X84450Y25577D01*
X84602Y25460D01*
X84672Y25390D01*
X84737Y25314D01*
X84743Y25308D01*
X84749Y25296D01*
X84766Y25273D01*
X84789Y25238D01*
X84813Y25197D01*
X84842Y25150D01*
X84871Y25097D01*
X84900Y25033D01*
X84930Y24963D01*
X84959Y24887D01*
X84988Y24799D01*
X85012Y24711D01*
X85053Y24518D01*
X85058Y24413D01*
X85064Y24302D01*
Y24296D01*
Y24273D01*
Y24243D01*
X85058Y24196D01*
Y24144D01*
X85053Y24085D01*
X85041Y24015D01*
X85035Y23945D01*
X85000Y23781D01*
X84959Y23611D01*
X84895Y23448D01*
X84860Y23366D01*
X84813Y23290D01*
X84807Y23284D01*
X84801Y23272D01*
X84784Y23255D01*
X84766Y23225D01*
X84707Y23155D01*
X84626Y23073D01*
X84526Y22974D01*
X84398Y22880D01*
X84251Y22781D01*
X84082Y22699D01*
X84076D01*
X84058Y22693D01*
X84035Y22681D01*
X84000Y22670D01*
X83953Y22652D01*
X83900Y22635D01*
X83842Y22617D01*
X83772Y22599D01*
X83701Y22582D01*
X83619Y22564D01*
X83444Y22529D01*
X83257Y22506D01*
X83052Y22500D01*
X82993D01*
X82952Y22506D01*
X82900D01*
X82836Y22512D01*
X82771Y22517D01*
X82695Y22529D01*
X82531Y22558D01*
X82356Y22594D01*
X82174Y22652D01*
X82005Y22728D01*
X81999D01*
X81987Y22740D01*
X81964Y22752D01*
X81929Y22769D01*
X81894Y22793D01*
X81853Y22822D01*
X81753Y22898D01*
X81642Y22986D01*
X81531Y23097D01*
X81420Y23231D01*
X81326Y23378D01*
Y23383D01*
X81314Y23395D01*
X81303Y23418D01*
X81291Y23454D01*
X81274Y23489D01*
X81250Y23536D01*
X81233Y23594D01*
X81209Y23652D01*
X81186Y23717D01*
X81168Y23787D01*
X81127Y23945D01*
X81104Y24120D01*
X81092Y24308D01*
Y24314D01*
Y24331D01*
Y24366D01*
X81098Y24407D01*
X81104Y24454D01*
X81110Y24512D01*
X81116Y24577D01*
X81127Y24647D01*
X81162Y24799D01*
X81215Y24963D01*
X81250Y25045D01*
X81291Y25127D01*
X81338Y25203D01*
X81391Y25279D01*
X81396Y25285D01*
X81402Y25296D01*
X81420Y25314D01*
X81443Y25343D01*
X81472Y25372D01*
X81513Y25413D01*
X81554Y25454D01*
X81601Y25495D01*
X81660Y25542D01*
X81718Y25583D01*
X81788Y25630D01*
X81864Y25677D01*
X81940Y25717D01*
X82028Y25758D01*
X82215Y25829D01*
X82332Y25326D01*
X82327D01*
X82315Y25320D01*
X82291Y25314D01*
X82262Y25302D01*
X82227Y25285D01*
X82186Y25267D01*
X82098Y25226D01*
X81999Y25173D01*
X81894Y25103D01*
X81800Y25027D01*
X81718Y24934D01*
X81712Y24922D01*
X81689Y24887D01*
X81660Y24834D01*
X81619Y24758D01*
X81584Y24670D01*
X81554Y24559D01*
X81531Y24436D01*
X81525Y24296D01*
Y24290D01*
Y24278D01*
Y24255D01*
X81531Y24226D01*
Y24185D01*
X81537Y24144D01*
X81554Y24039D01*
X81578Y23922D01*
X81619Y23799D01*
X81671Y23676D01*
X81741Y23559D01*
Y23553D01*
X81753Y23547D01*
X81783Y23512D01*
X81829Y23459D01*
X81894Y23395D01*
X81976Y23331D01*
X82069Y23260D01*
X82186Y23196D01*
X82315Y23144D01*
X82321D01*
X82332Y23138D01*
X82350Y23132D01*
X82379Y23126D01*
X82408Y23114D01*
X82449Y23108D01*
X82543Y23085D01*
X82654Y23062D01*
X82777Y23044D01*
X82911Y23032D01*
X83052Y23027D01*
X83134D01*
X83175Y23032D01*
X83227D01*
X83280Y23038D01*
X83339Y23044D01*
X83473Y23062D01*
X83619Y23085D01*
X83766Y23120D01*
X83906Y23167D01*
X83912D01*
X83924Y23173D01*
X83941Y23185D01*
X83965Y23196D01*
X84035Y23225D01*
X84111Y23272D01*
X84204Y23336D01*
X84292Y23413D01*
X84380Y23500D01*
X84456Y23606D01*
Y23611D01*
X84462Y23617D01*
X84474Y23635D01*
X84485Y23658D01*
X84509Y23723D01*
X84544Y23805D01*
X84573Y23898D01*
X84602Y24009D01*
X84626Y24132D01*
X84631Y24261D01*
Y24267D01*
Y24278D01*
Y24302D01*
X84626Y24331D01*
Y24366D01*
X84620Y24413D01*
X84602Y24512D01*
X84573Y24624D01*
X84526Y24746D01*
X84468Y24863D01*
X84386Y24980D01*
X84380Y24986D01*
X84374Y24992D01*
X84339Y25027D01*
X84280Y25080D01*
X84204Y25144D01*
X84099Y25209D01*
X83976Y25279D01*
X83824Y25337D01*
X83654Y25384D01*
X83783Y25893D01*
X83789D01*
X83812Y25887D01*
D02*
G37*
G36*
X39407Y43902D02*
X39454Y43896D01*
X39512Y43890D01*
X39577Y43884D01*
X39647Y43873D01*
X39799Y43838D01*
X39963Y43785D01*
X40045Y43750D01*
X40127Y43709D01*
X40203Y43662D01*
X40279Y43609D01*
X40285Y43604D01*
X40296Y43598D01*
X40314Y43580D01*
X40343Y43557D01*
X40372Y43528D01*
X40413Y43487D01*
X40454Y43446D01*
X40495Y43399D01*
X40542Y43340D01*
X40583Y43282D01*
X40630Y43212D01*
X40677Y43136D01*
X40718Y43060D01*
X40758Y42972D01*
X40829Y42785D01*
X40325Y42668D01*
Y42674D01*
X40320Y42685D01*
X40314Y42709D01*
X40302Y42738D01*
X40285Y42773D01*
X40267Y42814D01*
X40226Y42902D01*
X40174Y43001D01*
X40103Y43106D01*
X40027Y43200D01*
X39934Y43282D01*
X39922Y43288D01*
X39887Y43311D01*
X39834Y43340D01*
X39758Y43381D01*
X39670Y43416D01*
X39559Y43446D01*
X39436Y43469D01*
X39296Y43475D01*
X39255D01*
X39226Y43469D01*
X39185D01*
X39144Y43463D01*
X39039Y43446D01*
X38922Y43422D01*
X38799Y43381D01*
X38676Y43329D01*
X38559Y43258D01*
X38553D01*
X38547Y43247D01*
X38512Y43218D01*
X38459Y43171D01*
X38395Y43106D01*
X38331Y43025D01*
X38260Y42931D01*
X38196Y42814D01*
X38144Y42685D01*
Y42679D01*
X38138Y42668D01*
X38132Y42650D01*
X38126Y42621D01*
X38114Y42592D01*
X38108Y42551D01*
X38085Y42457D01*
X38062Y42346D01*
X38044Y42223D01*
X38032Y42088D01*
X38026Y41948D01*
Y41942D01*
Y41925D01*
Y41901D01*
Y41866D01*
X38032Y41825D01*
Y41773D01*
X38038Y41720D01*
X38044Y41661D01*
X38062Y41527D01*
X38085Y41381D01*
X38120Y41234D01*
X38167Y41094D01*
Y41088D01*
X38173Y41076D01*
X38184Y41059D01*
X38196Y41035D01*
X38225Y40965D01*
X38272Y40889D01*
X38337Y40796D01*
X38413Y40708D01*
X38500Y40620D01*
X38606Y40544D01*
X38612D01*
X38617Y40538D01*
X38635Y40527D01*
X38658Y40515D01*
X38723Y40491D01*
X38805Y40456D01*
X38898Y40427D01*
X39009Y40398D01*
X39132Y40374D01*
X39261Y40369D01*
X39302D01*
X39331Y40374D01*
X39366D01*
X39413Y40380D01*
X39512Y40398D01*
X39624Y40427D01*
X39746Y40474D01*
X39863Y40532D01*
X39980Y40614D01*
X39986Y40620D01*
X39992Y40626D01*
X40027Y40661D01*
X40080Y40720D01*
X40144Y40796D01*
X40209Y40901D01*
X40279Y41024D01*
X40337Y41176D01*
X40384Y41346D01*
X40893Y41217D01*
Y41211D01*
X40887Y41188D01*
X40876Y41158D01*
X40864Y41111D01*
X40840Y41065D01*
X40817Y41000D01*
X40793Y40936D01*
X40758Y40866D01*
X40682Y40708D01*
X40577Y40550D01*
X40460Y40398D01*
X40390Y40328D01*
X40314Y40263D01*
X40308Y40257D01*
X40296Y40251D01*
X40273Y40234D01*
X40238Y40211D01*
X40197Y40187D01*
X40150Y40158D01*
X40097Y40129D01*
X40033Y40099D01*
X39963Y40070D01*
X39887Y40041D01*
X39799Y40012D01*
X39711Y39988D01*
X39518Y39947D01*
X39413Y39941D01*
X39302Y39936D01*
X39243D01*
X39197Y39941D01*
X39144D01*
X39085Y39947D01*
X39015Y39959D01*
X38945Y39965D01*
X38781Y40000D01*
X38612Y40041D01*
X38448Y40105D01*
X38366Y40140D01*
X38290Y40187D01*
X38284Y40193D01*
X38272Y40199D01*
X38255Y40216D01*
X38225Y40234D01*
X38155Y40293D01*
X38073Y40374D01*
X37974Y40474D01*
X37880Y40603D01*
X37781Y40749D01*
X37699Y40918D01*
Y40924D01*
X37693Y40942D01*
X37681Y40965D01*
X37670Y41000D01*
X37652Y41047D01*
X37635Y41100D01*
X37617Y41158D01*
X37600Y41229D01*
X37582Y41299D01*
X37564Y41381D01*
X37529Y41556D01*
X37506Y41743D01*
X37500Y41948D01*
Y41954D01*
Y41977D01*
Y42006D01*
X37506Y42048D01*
Y42100D01*
X37512Y42164D01*
X37517Y42229D01*
X37529Y42305D01*
X37558Y42469D01*
X37594Y42644D01*
X37652Y42825D01*
X37728Y42995D01*
Y43001D01*
X37740Y43013D01*
X37751Y43036D01*
X37769Y43071D01*
X37793Y43106D01*
X37822Y43147D01*
X37898Y43247D01*
X37986Y43358D01*
X38097Y43469D01*
X38231Y43580D01*
X38377Y43674D01*
X38383D01*
X38395Y43685D01*
X38418Y43697D01*
X38454Y43709D01*
X38489Y43726D01*
X38535Y43750D01*
X38594Y43767D01*
X38652Y43791D01*
X38717Y43814D01*
X38787Y43832D01*
X38945Y43873D01*
X39120Y43896D01*
X39308Y43908D01*
X39366D01*
X39407Y43902D01*
D02*
G37*
G36*
X17500Y19998D02*
X15687D01*
Y18009D01*
X17500D01*
Y17500D01*
X13656D01*
Y18009D01*
X15236D01*
Y19998D01*
X13656D01*
Y20507D01*
X17500D01*
Y19998D01*
D02*
G37*
G36*
X131919Y51402D02*
X131966D01*
X132024Y51396D01*
X132083Y51384D01*
X132153Y51379D01*
X132299Y51343D01*
X132463Y51297D01*
X132627Y51238D01*
X132709Y51197D01*
X132791Y51150D01*
X132796D01*
X132808Y51139D01*
X132831Y51127D01*
X132861Y51104D01*
X132896Y51080D01*
X132937Y51045D01*
X133030Y50969D01*
X133136Y50870D01*
X133247Y50747D01*
X133346Y50606D01*
X133440Y50442D01*
Y50437D01*
X133451Y50425D01*
X133463Y50396D01*
X133475Y50361D01*
X133493Y50320D01*
X133510Y50273D01*
X133533Y50214D01*
X133557Y50144D01*
X133574Y50074D01*
X133598Y49992D01*
X133633Y49822D01*
X133656Y49629D01*
X133668Y49419D01*
Y49413D01*
Y49395D01*
Y49372D01*
Y49337D01*
X133662Y49296D01*
Y49249D01*
X133656Y49196D01*
X133650Y49132D01*
X133633Y49003D01*
X133604Y48857D01*
X133569Y48711D01*
X133522Y48565D01*
Y48559D01*
X133516Y48547D01*
X133504Y48530D01*
X133493Y48500D01*
X133481Y48471D01*
X133457Y48430D01*
X133411Y48342D01*
X133352Y48243D01*
X133276Y48132D01*
X133188Y48021D01*
X133083Y47910D01*
X133089D01*
X133100Y47898D01*
X133118Y47886D01*
X133142Y47868D01*
X133177Y47851D01*
X133212Y47828D01*
X133299Y47775D01*
X133399Y47716D01*
X133510Y47658D01*
X133627Y47600D01*
X133744Y47553D01*
X133586Y47207D01*
X133580D01*
X133569Y47213D01*
X133545Y47225D01*
X133516Y47237D01*
X133481Y47249D01*
X133434Y47272D01*
X133387Y47295D01*
X133329Y47319D01*
X133206Y47383D01*
X133065Y47465D01*
X132913Y47559D01*
X132761Y47670D01*
X132755D01*
X132744Y47658D01*
X132720Y47646D01*
X132685Y47635D01*
X132644Y47617D01*
X132597Y47594D01*
X132545Y47576D01*
X132486Y47553D01*
X132416Y47529D01*
X132346Y47512D01*
X132182Y47471D01*
X132007Y47447D01*
X131819Y47436D01*
X131767D01*
X131732Y47442D01*
X131685D01*
X131632Y47447D01*
X131574Y47459D01*
X131509Y47465D01*
X131363Y47494D01*
X131205Y47541D01*
X131041Y47600D01*
X130877Y47681D01*
X130872Y47687D01*
X130860Y47693D01*
X130837Y47711D01*
X130807Y47728D01*
X130772Y47752D01*
X130731Y47787D01*
X130638Y47863D01*
X130532Y47962D01*
X130427Y48085D01*
X130322Y48225D01*
X130228Y48389D01*
Y48395D01*
X130217Y48413D01*
X130205Y48436D01*
X130193Y48471D01*
X130175Y48512D01*
X130158Y48565D01*
X130134Y48623D01*
X130117Y48687D01*
X130094Y48764D01*
X130070Y48840D01*
X130035Y49015D01*
X130012Y49208D01*
X130000Y49419D01*
Y49425D01*
Y49442D01*
Y49477D01*
X130006Y49512D01*
Y49565D01*
X130012Y49624D01*
X130018Y49688D01*
X130029Y49758D01*
X130059Y49922D01*
X130094Y50092D01*
X130152Y50273D01*
X130228Y50448D01*
Y50454D01*
X130240Y50472D01*
X130252Y50495D01*
X130269Y50524D01*
X130292Y50565D01*
X130322Y50612D01*
X130398Y50712D01*
X130491Y50829D01*
X130603Y50946D01*
X130731Y51063D01*
X130883Y51162D01*
X130889Y51168D01*
X130901Y51174D01*
X130924Y51186D01*
X130959Y51203D01*
X131000Y51221D01*
X131047Y51238D01*
X131100Y51262D01*
X131164Y51285D01*
X131228Y51308D01*
X131305Y51332D01*
X131463Y51367D01*
X131644Y51396D01*
X131831Y51408D01*
X131884D01*
X131919Y51402D01*
D02*
G37*
G36*
X53165D02*
X53212Y51396D01*
X53270Y51390D01*
X53334Y51384D01*
X53405Y51373D01*
X53557Y51338D01*
X53721Y51285D01*
X53803Y51250D01*
X53884Y51209D01*
X53961Y51162D01*
X54036Y51109D01*
X54042Y51104D01*
X54054Y51098D01*
X54072Y51080D01*
X54101Y51057D01*
X54130Y51028D01*
X54171Y50987D01*
X54212Y50946D01*
X54253Y50899D01*
X54300Y50840D01*
X54341Y50782D01*
X54387Y50712D01*
X54434Y50636D01*
X54475Y50560D01*
X54516Y50472D01*
X54586Y50285D01*
X54083Y50168D01*
Y50173D01*
X54077Y50185D01*
X54072Y50209D01*
X54060Y50238D01*
X54042Y50273D01*
X54025Y50314D01*
X53984Y50402D01*
X53931Y50501D01*
X53861Y50606D01*
X53785Y50700D01*
X53691Y50782D01*
X53680Y50788D01*
X53645Y50811D01*
X53592Y50840D01*
X53516Y50881D01*
X53428Y50916D01*
X53317Y50946D01*
X53194Y50969D01*
X53054Y50975D01*
X53013D01*
X52983Y50969D01*
X52943D01*
X52902Y50963D01*
X52796Y50946D01*
X52679Y50922D01*
X52556Y50881D01*
X52434Y50829D01*
X52317Y50758D01*
X52311D01*
X52305Y50747D01*
X52270Y50718D01*
X52217Y50671D01*
X52153Y50606D01*
X52088Y50524D01*
X52018Y50431D01*
X51954Y50314D01*
X51901Y50185D01*
Y50179D01*
X51895Y50168D01*
X51889Y50150D01*
X51884Y50121D01*
X51872Y50092D01*
X51866Y50051D01*
X51843Y49957D01*
X51819Y49846D01*
X51802Y49723D01*
X51790Y49589D01*
X51784Y49448D01*
Y49442D01*
Y49425D01*
Y49401D01*
Y49366D01*
X51790Y49325D01*
Y49273D01*
X51796Y49220D01*
X51802Y49161D01*
X51819Y49027D01*
X51843Y48881D01*
X51878Y48734D01*
X51925Y48594D01*
Y48588D01*
X51930Y48576D01*
X51942Y48559D01*
X51954Y48535D01*
X51983Y48465D01*
X52030Y48389D01*
X52094Y48296D01*
X52170Y48208D01*
X52258Y48120D01*
X52363Y48044D01*
X52369D01*
X52375Y48038D01*
X52393Y48026D01*
X52416Y48015D01*
X52480Y47991D01*
X52562Y47956D01*
X52656Y47927D01*
X52767Y47898D01*
X52890Y47874D01*
X53019Y47868D01*
X53060D01*
X53089Y47874D01*
X53124D01*
X53171Y47880D01*
X53270Y47898D01*
X53381Y47927D01*
X53504Y47974D01*
X53621Y48032D01*
X53738Y48114D01*
X53744Y48120D01*
X53750Y48126D01*
X53785Y48161D01*
X53838Y48219D01*
X53902Y48296D01*
X53966Y48401D01*
X54036Y48524D01*
X54095Y48676D01*
X54142Y48845D01*
X54651Y48717D01*
Y48711D01*
X54645Y48687D01*
X54633Y48658D01*
X54621Y48612D01*
X54598Y48565D01*
X54575Y48500D01*
X54551Y48436D01*
X54516Y48366D01*
X54440Y48208D01*
X54335Y48050D01*
X54218Y47898D01*
X54148Y47828D01*
X54072Y47763D01*
X54066Y47757D01*
X54054Y47752D01*
X54031Y47734D01*
X53996Y47711D01*
X53955Y47687D01*
X53908Y47658D01*
X53855Y47629D01*
X53791Y47600D01*
X53721Y47570D01*
X53645Y47541D01*
X53557Y47512D01*
X53469Y47488D01*
X53276Y47447D01*
X53171Y47442D01*
X53060Y47436D01*
X53001D01*
X52954Y47442D01*
X52902D01*
X52843Y47447D01*
X52773Y47459D01*
X52703Y47465D01*
X52539Y47500D01*
X52369Y47541D01*
X52205Y47605D01*
X52124Y47640D01*
X52047Y47687D01*
X52042Y47693D01*
X52030Y47699D01*
X52012Y47716D01*
X51983Y47734D01*
X51913Y47793D01*
X51831Y47874D01*
X51732Y47974D01*
X51638Y48103D01*
X51538Y48249D01*
X51457Y48419D01*
Y48424D01*
X51451Y48442D01*
X51439Y48465D01*
X51427Y48500D01*
X51410Y48547D01*
X51392Y48600D01*
X51375Y48658D01*
X51357Y48728D01*
X51340Y48799D01*
X51322Y48881D01*
X51287Y49056D01*
X51264Y49243D01*
X51258Y49448D01*
Y49454D01*
Y49477D01*
Y49507D01*
X51264Y49547D01*
Y49600D01*
X51269Y49665D01*
X51275Y49729D01*
X51287Y49805D01*
X51316Y49969D01*
X51351Y50144D01*
X51410Y50326D01*
X51486Y50495D01*
Y50501D01*
X51498Y50513D01*
X51509Y50536D01*
X51527Y50571D01*
X51550Y50606D01*
X51579Y50647D01*
X51656Y50747D01*
X51743Y50858D01*
X51854Y50969D01*
X51989Y51080D01*
X52135Y51174D01*
X52141D01*
X52153Y51186D01*
X52176Y51197D01*
X52211Y51209D01*
X52246Y51226D01*
X52293Y51250D01*
X52352Y51267D01*
X52410Y51291D01*
X52474Y51314D01*
X52545Y51332D01*
X52703Y51373D01*
X52878Y51396D01*
X53065Y51408D01*
X53124D01*
X53165Y51402D01*
D02*
G37*
G36*
X135944Y47500D02*
X135470D01*
Y50507D01*
X135464Y50501D01*
X135441Y50478D01*
X135399Y50448D01*
X135347Y50407D01*
X135283Y50355D01*
X135206Y50302D01*
X135119Y50238D01*
X135019Y50179D01*
X135013D01*
X135008Y50173D01*
X134973Y50150D01*
X134920Y50121D01*
X134855Y50086D01*
X134779Y50045D01*
X134698Y50010D01*
X134610Y49969D01*
X134528Y49934D01*
Y50396D01*
X134534D01*
X134546Y50402D01*
X134569Y50413D01*
X134592Y50431D01*
X134627Y50448D01*
X134668Y50466D01*
X134762Y50519D01*
X134867Y50583D01*
X134984Y50659D01*
X135101Y50747D01*
X135212Y50840D01*
X135218Y50846D01*
X135224Y50852D01*
X135259Y50887D01*
X135312Y50940D01*
X135376Y51004D01*
X135446Y51086D01*
X135517Y51174D01*
X135581Y51267D01*
X135634Y51361D01*
X135944D01*
Y47500D01*
D02*
G37*
G36*
X97500Y42478D02*
X94493D01*
X94499Y42472D01*
X94522Y42449D01*
X94552Y42408D01*
X94593Y42355D01*
X94645Y42291D01*
X94698Y42215D01*
X94762Y42127D01*
X94821Y42028D01*
Y42022D01*
X94827Y42016D01*
X94850Y41981D01*
X94879Y41928D01*
X94914Y41864D01*
X94955Y41788D01*
X94990Y41706D01*
X95031Y41618D01*
X95066Y41537D01*
X94604D01*
Y41542D01*
X94598Y41554D01*
X94587Y41577D01*
X94569Y41601D01*
X94552Y41636D01*
X94534Y41677D01*
X94481Y41770D01*
X94417Y41876D01*
X94341Y41993D01*
X94253Y42110D01*
X94160Y42221D01*
X94154Y42227D01*
X94148Y42233D01*
X94113Y42268D01*
X94060Y42320D01*
X93996Y42385D01*
X93914Y42455D01*
X93826Y42525D01*
X93733Y42590D01*
X93639Y42642D01*
Y42952D01*
X97500D01*
Y42478D01*
D02*
G37*
G36*
Y40244D02*
X96704Y39735D01*
X96699D01*
X96687Y39723D01*
X96669Y39711D01*
X96646Y39700D01*
X96587Y39659D01*
X96511Y39606D01*
X96424Y39548D01*
X96336Y39483D01*
X96254Y39425D01*
X96178Y39366D01*
X96172Y39360D01*
X96149Y39343D01*
X96114Y39314D01*
X96073Y39284D01*
X95991Y39197D01*
X95950Y39156D01*
X95920Y39109D01*
X95915Y39103D01*
X95909Y39091D01*
X95897Y39068D01*
X95880Y39039D01*
X95844Y38968D01*
X95815Y38881D01*
Y38875D01*
X95809Y38863D01*
Y38840D01*
X95803Y38810D01*
X95798Y38770D01*
Y38723D01*
X95792Y38664D01*
Y38594D01*
Y38009D01*
X97500D01*
Y37500D01*
X93657D01*
Y39202D01*
Y39208D01*
Y39226D01*
Y39249D01*
Y39284D01*
X93662Y39331D01*
Y39378D01*
X93668Y39495D01*
X93680Y39618D01*
X93703Y39746D01*
X93727Y39869D01*
X93744Y39928D01*
X93762Y39980D01*
Y39986D01*
X93768Y39992D01*
X93779Y40027D01*
X93809Y40074D01*
X93850Y40132D01*
X93896Y40203D01*
X93961Y40273D01*
X94037Y40343D01*
X94130Y40407D01*
X94142Y40413D01*
X94177Y40431D01*
X94230Y40460D01*
X94300Y40489D01*
X94388Y40519D01*
X94487Y40548D01*
X94593Y40565D01*
X94710Y40571D01*
X94750D01*
X94780Y40565D01*
X94815D01*
X94856Y40560D01*
X94949Y40536D01*
X95061Y40507D01*
X95172Y40460D01*
X95289Y40390D01*
X95347Y40349D01*
X95400Y40302D01*
X95411Y40290D01*
X95423Y40273D01*
X95447Y40255D01*
X95464Y40226D01*
X95493Y40191D01*
X95517Y40150D01*
X95546Y40103D01*
X95575Y40051D01*
X95605Y39986D01*
X95634Y39922D01*
X95663Y39846D01*
X95692Y39770D01*
X95716Y39682D01*
X95733Y39588D01*
X95751Y39489D01*
X95757Y39501D01*
X95768Y39524D01*
X95786Y39559D01*
X95809Y39600D01*
X95874Y39700D01*
X95909Y39752D01*
X95944Y39793D01*
X95956Y39805D01*
X95979Y39834D01*
X96026Y39875D01*
X96084Y39928D01*
X96160Y39992D01*
X96248Y40062D01*
X96348Y40138D01*
X96459Y40214D01*
X97500Y40881D01*
Y40244D01*
D02*
G37*
G36*
X56862Y47500D02*
X56388D01*
Y50507D01*
X56382Y50501D01*
X56359Y50478D01*
X56318Y50448D01*
X56265Y50407D01*
X56201Y50355D01*
X56125Y50302D01*
X56037Y50238D01*
X55938Y50179D01*
X55932D01*
X55926Y50173D01*
X55891Y50150D01*
X55838Y50121D01*
X55774Y50086D01*
X55698Y50045D01*
X55616Y50010D01*
X55528Y49969D01*
X55446Y49934D01*
Y50396D01*
X55452D01*
X55464Y50402D01*
X55487Y50413D01*
X55511Y50431D01*
X55546Y50448D01*
X55587Y50466D01*
X55680Y50519D01*
X55786Y50583D01*
X55903Y50659D01*
X56020Y50747D01*
X56131Y50840D01*
X56137Y50846D01*
X56142Y50852D01*
X56178Y50887D01*
X56230Y50940D01*
X56295Y51004D01*
X56365Y51086D01*
X56435Y51174D01*
X56499Y51267D01*
X56552Y51361D01*
X56862D01*
Y47500D01*
D02*
G37*
G36*
X190000Y13598D02*
X189936D01*
X189895Y13604D01*
X189848Y13610D01*
X189795Y13615D01*
X189737Y13633D01*
X189678Y13650D01*
X189672D01*
X189667Y13656D01*
X189631Y13668D01*
X189585Y13691D01*
X189515Y13726D01*
X189438Y13767D01*
X189351Y13826D01*
X189263Y13884D01*
X189169Y13961D01*
X189163D01*
X189158Y13972D01*
X189122Y14001D01*
X189070Y14048D01*
X189000Y14118D01*
X188918Y14206D01*
X188818Y14311D01*
X188707Y14440D01*
X188584Y14581D01*
X188578Y14586D01*
X188561Y14610D01*
X188538Y14639D01*
X188497Y14680D01*
X188456Y14733D01*
X188403Y14791D01*
X188292Y14920D01*
X188157Y15060D01*
X188023Y15201D01*
X187958Y15271D01*
X187894Y15329D01*
X187830Y15382D01*
X187771Y15429D01*
X187765D01*
X187759Y15440D01*
X187742Y15452D01*
X187718Y15464D01*
X187660Y15499D01*
X187584Y15540D01*
X187496Y15581D01*
X187403Y15616D01*
X187297Y15639D01*
X187198Y15651D01*
X187186D01*
X187151Y15645D01*
X187098Y15639D01*
X187034Y15628D01*
X186958Y15598D01*
X186882Y15563D01*
X186800Y15517D01*
X186724Y15446D01*
X186718Y15435D01*
X186695Y15411D01*
X186665Y15364D01*
X186625Y15306D01*
X186590Y15230D01*
X186560Y15142D01*
X186537Y15037D01*
X186531Y14920D01*
Y14914D01*
Y14902D01*
Y14885D01*
X186537Y14861D01*
X186543Y14803D01*
X186554Y14727D01*
X186584Y14639D01*
X186619Y14545D01*
X186671Y14458D01*
X186742Y14376D01*
X186753Y14370D01*
X186777Y14346D01*
X186823Y14311D01*
X186888Y14276D01*
X186970Y14235D01*
X187063Y14206D01*
X187174Y14183D01*
X187303Y14171D01*
X187250Y13686D01*
X187227D01*
X187198Y13691D01*
X187163Y13697D01*
X187116Y13709D01*
X187063Y13715D01*
X186946Y13750D01*
X186812Y13797D01*
X186677Y13861D01*
X186543Y13949D01*
X186484Y13996D01*
X186426Y14054D01*
X186420Y14060D01*
X186414Y14072D01*
X186396Y14089D01*
X186379Y14112D01*
X186361Y14148D01*
X186332Y14189D01*
X186309Y14235D01*
X186279Y14288D01*
X186256Y14346D01*
X186227Y14411D01*
X186203Y14487D01*
X186186Y14563D01*
X186151Y14739D01*
X186145Y14832D01*
X186139Y14931D01*
Y14937D01*
Y14955D01*
Y14984D01*
X186145Y15025D01*
X186151Y15072D01*
X186156Y15125D01*
X186162Y15183D01*
X186180Y15247D01*
X186215Y15388D01*
X186268Y15534D01*
X186303Y15610D01*
X186344Y15680D01*
X186396Y15745D01*
X186449Y15809D01*
X186455Y15815D01*
X186461Y15821D01*
X186478Y15838D01*
X186502Y15862D01*
X186537Y15885D01*
X186572Y15914D01*
X186660Y15973D01*
X186771Y16031D01*
X186899Y16084D01*
X187046Y16125D01*
X187128Y16131D01*
X187209Y16137D01*
X187250D01*
X187297Y16131D01*
X187356Y16125D01*
X187426Y16113D01*
X187502Y16096D01*
X187584Y16072D01*
X187666Y16037D01*
X187678Y16031D01*
X187707Y16020D01*
X187748Y15996D01*
X187806Y15961D01*
X187876Y15920D01*
X187958Y15868D01*
X188040Y15797D01*
X188134Y15721D01*
X188146Y15710D01*
X188181Y15680D01*
X188233Y15628D01*
X188268Y15593D01*
X188309Y15552D01*
X188356Y15505D01*
X188409Y15446D01*
X188461Y15388D01*
X188526Y15324D01*
X188590Y15253D01*
X188660Y15171D01*
X188731Y15089D01*
X188812Y14996D01*
X188818Y14990D01*
X188830Y14978D01*
X188848Y14955D01*
X188871Y14926D01*
X188929Y14855D01*
X189005Y14768D01*
X189087Y14680D01*
X189169Y14586D01*
X189240Y14510D01*
X189269Y14481D01*
X189298Y14452D01*
X189304Y14446D01*
X189321Y14434D01*
X189345Y14411D01*
X189380Y14382D01*
X189456Y14317D01*
X189550Y14253D01*
Y16142D01*
X190000D01*
Y13598D01*
D02*
G37*
G36*
Y12498D02*
X188187D01*
Y10509D01*
X190000D01*
Y10000D01*
X186156D01*
Y10509D01*
X187736D01*
Y12498D01*
X186156D01*
Y13007D01*
X190000D01*
Y12498D01*
D02*
G37*
G36*
X50509Y47500D02*
X50000D01*
Y51343D01*
X50509D01*
Y47500D01*
D02*
G37*
G36*
X17500Y22467D02*
X14493D01*
X14499Y22461D01*
X14522Y22437D01*
X14552Y22396D01*
X14593Y22344D01*
X14645Y22279D01*
X14698Y22203D01*
X14762Y22116D01*
X14821Y22016D01*
Y22010D01*
X14827Y22005D01*
X14850Y21969D01*
X14879Y21917D01*
X14914Y21852D01*
X14955Y21776D01*
X14990Y21695D01*
X15031Y21607D01*
X15066Y21525D01*
X14604D01*
Y21531D01*
X14598Y21542D01*
X14587Y21566D01*
X14569Y21589D01*
X14552Y21624D01*
X14534Y21665D01*
X14481Y21759D01*
X14417Y21864D01*
X14341Y21981D01*
X14253Y22098D01*
X14160Y22209D01*
X14154Y22215D01*
X14148Y22221D01*
X14113Y22256D01*
X14060Y22309D01*
X13996Y22373D01*
X13914Y22443D01*
X13826Y22513D01*
X13733Y22578D01*
X13639Y22630D01*
Y22941D01*
X17500D01*
Y22467D01*
D02*
G37*
%LPC*%
G36*
X150335Y43071D02*
X149130Y41351D01*
X150335D01*
Y43071D01*
D02*
G37*
G36*
X131837Y50969D02*
X131784D01*
X131743Y50963D01*
X131696Y50957D01*
X131638Y50946D01*
X131574Y50934D01*
X131509Y50922D01*
X131357Y50876D01*
X131281Y50840D01*
X131199Y50805D01*
X131123Y50758D01*
X131041Y50706D01*
X130965Y50647D01*
X130895Y50577D01*
X130889Y50571D01*
X130877Y50560D01*
X130860Y50536D01*
X130837Y50507D01*
X130807Y50466D01*
X130778Y50413D01*
X130743Y50355D01*
X130714Y50290D01*
X130679Y50209D01*
X130643Y50127D01*
X130614Y50027D01*
X130585Y49928D01*
X130562Y49811D01*
X130544Y49688D01*
X130532Y49559D01*
X130526Y49419D01*
Y49413D01*
Y49384D01*
Y49349D01*
X130532Y49296D01*
X130538Y49232D01*
X130544Y49161D01*
X130556Y49079D01*
X130573Y48992D01*
X130614Y48805D01*
X130649Y48711D01*
X130684Y48617D01*
X130725Y48518D01*
X130772Y48430D01*
X130831Y48342D01*
X130895Y48266D01*
X130901Y48261D01*
X130913Y48249D01*
X130930Y48231D01*
X130959Y48202D01*
X131000Y48173D01*
X131041Y48144D01*
X131094Y48103D01*
X131152Y48068D01*
X131217Y48032D01*
X131287Y47997D01*
X131363Y47962D01*
X131451Y47933D01*
X131539Y47904D01*
X131632Y47886D01*
X131732Y47874D01*
X131837Y47868D01*
X131884D01*
X131936Y47874D01*
X132001Y47880D01*
X132077Y47892D01*
X132165Y47910D01*
X132258Y47933D01*
X132346Y47968D01*
X132334Y47974D01*
X132305Y47991D01*
X132258Y48021D01*
X132194Y48056D01*
X132124Y48091D01*
X132036Y48126D01*
X131948Y48161D01*
X131849Y48190D01*
X131972Y48559D01*
X131977D01*
X131989Y48553D01*
X132012Y48547D01*
X132047Y48535D01*
X132083Y48524D01*
X132124Y48506D01*
X132229Y48465D01*
X132340Y48413D01*
X132463Y48354D01*
X132580Y48278D01*
X132691Y48190D01*
X132697Y48196D01*
X132709Y48208D01*
X132732Y48231D01*
X132761Y48266D01*
X132796Y48313D01*
X132831Y48366D01*
X132872Y48424D01*
X132919Y48500D01*
X132960Y48576D01*
X133001Y48670D01*
X133036Y48770D01*
X133071Y48881D01*
X133100Y49003D01*
X133124Y49132D01*
X133136Y49273D01*
X133142Y49419D01*
Y49425D01*
Y49442D01*
Y49466D01*
Y49495D01*
X133136Y49536D01*
Y49583D01*
X133124Y49694D01*
X133100Y49822D01*
X133077Y49957D01*
X133036Y50097D01*
X132984Y50232D01*
Y50238D01*
X132978Y50249D01*
X132966Y50267D01*
X132954Y50290D01*
X132919Y50355D01*
X132867Y50431D01*
X132802Y50519D01*
X132720Y50612D01*
X132627Y50700D01*
X132521Y50776D01*
X132516D01*
X132510Y50782D01*
X132492Y50793D01*
X132469Y50805D01*
X132404Y50835D01*
X132323Y50876D01*
X132223Y50911D01*
X132106Y50940D01*
X131977Y50963D01*
X131837Y50969D01*
D02*
G37*
G36*
X94710Y40045D02*
X94663D01*
X94616Y40033D01*
X94552Y40021D01*
X94481Y39998D01*
X94405Y39963D01*
X94329Y39910D01*
X94259Y39846D01*
X94253Y39834D01*
X94230Y39811D01*
X94201Y39758D01*
X94171Y39694D01*
X94136Y39606D01*
X94113Y39501D01*
X94089Y39372D01*
X94084Y39220D01*
Y38009D01*
X95353D01*
Y39097D01*
Y39103D01*
Y39115D01*
Y39132D01*
Y39156D01*
X95347Y39220D01*
X95341Y39296D01*
X95336Y39384D01*
X95324Y39477D01*
X95306Y39565D01*
X95283Y39641D01*
X95277Y39653D01*
X95271Y39676D01*
X95254Y39711D01*
X95230Y39752D01*
X95195Y39799D01*
X95154Y39852D01*
X95107Y39898D01*
X95055Y39939D01*
X95049Y39945D01*
X95025Y39957D01*
X94996Y39974D01*
X94949Y39992D01*
X94903Y40010D01*
X94844Y40027D01*
X94780Y40039D01*
X94710Y40045D01*
D02*
G37*
%LPD*%
D16*
X145000Y25000D02*
G03*
X145000Y25000I-10000J0D01*
G01*
X178507D02*
G03*
X178507Y25000I-16008J0D01*
G01*
X192500Y40000D02*
G03*
X182500Y40000I-5000J-5000D01*
G01*
Y20000D02*
G03*
X192500Y20000I5000J5000D01*
G01*
X10000Y27500D02*
G03*
X20000Y27500I5000J5000D01*
G01*
Y47500D02*
G03*
X10000Y47500I-5000J-5000D01*
G01*
X71008Y25000D02*
G03*
X71008Y25000I-16008J0D01*
G01*
X92500D02*
G03*
X92500Y25000I-10000J0D01*
G01*
X42500Y60000D02*
G03*
X42500Y60000I-10000J0D01*
G01*
X107500Y65500D02*
X137500D01*
Y67000D01*
X107500D02*
X137500D01*
X107500Y54000D02*
Y67000D01*
Y54000D02*
X137500D01*
Y67000D01*
X182500Y20000D02*
Y40000D01*
X192500Y20000D02*
Y40000D01*
X20000Y27500D02*
Y47500D01*
X10000Y27500D02*
Y47500D01*
X52500Y65500D02*
X82500D01*
Y67000D01*
X52500D02*
X82500D01*
X52500Y54000D02*
Y67000D01*
Y54000D02*
X82500D01*
Y67000D01*
X91500Y35000D02*
Y55000D01*
X99000D01*
Y35000D02*
Y55000D01*
X91500Y35000D02*
X99000D01*
M02*
