G04 Layer_Physical_Order=1*
G04 Layer_Color=255*
%FSLAX25Y25*%
%MOIN*%
G70*
G01*
G75*
%ADD10C,0.02000*%
G04:AMPARAMS|DCode=11|XSize=80mil|YSize=80mil|CornerRadius=20mil|HoleSize=0mil|Usage=FLASHONLY|Rotation=180.000|XOffset=0mil|YOffset=0mil|HoleType=Round|Shape=RoundedRectangle|*
%AMROUNDEDRECTD11*
21,1,0.08000,0.04000,0,0,180.0*
21,1,0.04000,0.08000,0,0,180.0*
1,1,0.04000,-0.02000,0.02000*
1,1,0.04000,0.02000,0.02000*
1,1,0.04000,0.02000,-0.02000*
1,1,0.04000,-0.02000,-0.02000*
%
%ADD11ROUNDEDRECTD11*%
G04:AMPARAMS|DCode=12|XSize=70mil|YSize=70mil|CornerRadius=17.5mil|HoleSize=0mil|Usage=FLASHONLY|Rotation=90.000|XOffset=0mil|YOffset=0mil|HoleType=Round|Shape=RoundedRectangle|*
%AMROUNDEDRECTD12*
21,1,0.07000,0.03500,0,0,90.0*
21,1,0.03500,0.07000,0,0,90.0*
1,1,0.03500,0.01750,0.01750*
1,1,0.03500,0.01750,-0.01750*
1,1,0.03500,-0.01750,-0.01750*
1,1,0.03500,-0.01750,0.01750*
%
%ADD12ROUNDEDRECTD12*%
G04:AMPARAMS|DCode=13|XSize=80mil|YSize=80mil|CornerRadius=20mil|HoleSize=0mil|Usage=FLASHONLY|Rotation=270.000|XOffset=0mil|YOffset=0mil|HoleType=Round|Shape=RoundedRectangle|*
%AMROUNDEDRECTD13*
21,1,0.08000,0.04000,0,0,270.0*
21,1,0.04000,0.08000,0,0,270.0*
1,1,0.04000,-0.02000,-0.02000*
1,1,0.04000,-0.02000,0.02000*
1,1,0.04000,0.02000,0.02000*
1,1,0.04000,0.02000,-0.02000*
%
%ADD13ROUNDEDRECTD13*%
G04:AMPARAMS|DCode=14|XSize=100mil|YSize=100mil|CornerRadius=25mil|HoleSize=0mil|Usage=FLASHONLY|Rotation=180.000|XOffset=0mil|YOffset=0mil|HoleType=Round|Shape=RoundedRectangle|*
%AMROUNDEDRECTD14*
21,1,0.10000,0.05000,0,0,180.0*
21,1,0.05000,0.10000,0,0,180.0*
1,1,0.05000,-0.02500,0.02500*
1,1,0.05000,0.02500,0.02500*
1,1,0.05000,0.02500,-0.02500*
1,1,0.05000,-0.02500,-0.02500*
%
%ADD14ROUNDEDRECTD14*%
%ADD15P,0.21307X8X22.5*%
%ADD16C,0.05000*%
G36*
X237500Y0D02*
X0D01*
Y322500D01*
X237500D01*
Y0D01*
D02*
G37*
%LPC*%
G36*
X12000Y160530D02*
X8000D01*
X7086Y160410D01*
X6235Y160057D01*
X5504Y159496D01*
X4943Y158765D01*
X4590Y157914D01*
X4470Y157000D01*
Y153000D01*
X4590Y152086D01*
X4943Y151235D01*
X5504Y150504D01*
X5835Y150250D01*
Y149750D01*
X5504Y149496D01*
X4943Y148765D01*
X4590Y147914D01*
X4470Y147000D01*
Y143000D01*
X4590Y142086D01*
X4943Y141235D01*
X5504Y140504D01*
X5835Y140250D01*
Y139750D01*
X5504Y139496D01*
X4943Y138765D01*
X4590Y137914D01*
X4470Y137000D01*
Y133000D01*
X4590Y132086D01*
X4943Y131235D01*
X5504Y130504D01*
X5835Y130250D01*
Y129750D01*
X5504Y129496D01*
X4943Y128765D01*
X4590Y127914D01*
X4470Y127000D01*
Y123000D01*
X4590Y122086D01*
X4943Y121235D01*
X5504Y120504D01*
X5835Y120250D01*
Y119750D01*
X5504Y119496D01*
X4943Y118765D01*
X4590Y117914D01*
X4470Y117000D01*
Y113000D01*
X4590Y112086D01*
X4943Y111235D01*
X5504Y110504D01*
X5835Y110250D01*
Y109750D01*
X5504Y109496D01*
X4943Y108765D01*
X4590Y107914D01*
X4470Y107000D01*
Y103000D01*
X4590Y102086D01*
X4943Y101235D01*
X5504Y100504D01*
X6235Y99943D01*
X7086Y99590D01*
X8000Y99470D01*
X12000D01*
X12914Y99590D01*
X13765Y99943D01*
X14496Y100504D01*
X15057Y101235D01*
X15410Y102086D01*
X15530Y103000D01*
Y107000D01*
X15410Y107914D01*
X15057Y108765D01*
X14496Y109496D01*
X14165Y109750D01*
Y110250D01*
X14496Y110504D01*
X15057Y111235D01*
X15410Y112086D01*
X15530Y113000D01*
Y117000D01*
X15410Y117914D01*
X15057Y118765D01*
X14496Y119496D01*
X14165Y119750D01*
Y120250D01*
X14496Y120504D01*
X15057Y121235D01*
X15410Y122086D01*
X15530Y123000D01*
Y127000D01*
X15410Y127914D01*
X15057Y128765D01*
X14496Y129496D01*
X14165Y129750D01*
Y130250D01*
X14496Y130504D01*
X15057Y131235D01*
X15410Y132086D01*
X15530Y133000D01*
Y137000D01*
X15410Y137914D01*
X15057Y138765D01*
X14496Y139496D01*
X14165Y139750D01*
Y140250D01*
X14496Y140504D01*
X15057Y141235D01*
X15410Y142086D01*
X15530Y143000D01*
Y147000D01*
X15410Y147914D01*
X15057Y148765D01*
X14496Y149496D01*
X14165Y149750D01*
Y150250D01*
X14496Y150504D01*
X15057Y151235D01*
X15410Y152086D01*
X15530Y153000D01*
Y157000D01*
X15410Y157914D01*
X15057Y158765D01*
X14496Y159496D01*
X13765Y160057D01*
X12914Y160410D01*
X12000Y160530D01*
D02*
G37*
G36*
X200000Y125049D02*
X117500D01*
X116525Y124855D01*
X115698Y124302D01*
X113198Y121802D01*
X112645Y120975D01*
X112451Y120000D01*
Y117958D01*
X112086Y117910D01*
X111235Y117557D01*
X110504Y116996D01*
X109943Y116265D01*
X109590Y115414D01*
X109470Y114500D01*
Y110500D01*
X109590Y109586D01*
X109943Y108735D01*
X110504Y108004D01*
X111235Y107443D01*
X112086Y107090D01*
X113000Y106970D01*
X117000D01*
X117914Y107090D01*
X118765Y107443D01*
X119496Y108004D01*
X120057Y108735D01*
X120410Y109586D01*
X120530Y110500D01*
Y114500D01*
X120410Y115414D01*
X120057Y116265D01*
X119496Y116996D01*
X118765Y117557D01*
X117914Y117910D01*
X117549Y117958D01*
Y118944D01*
X118556Y119951D01*
X198944D01*
X201388Y117507D01*
X201321Y116867D01*
X200932Y116568D01*
X200411Y115889D01*
X200084Y115098D01*
X199972Y114250D01*
Y110750D01*
X200084Y109902D01*
X200411Y109111D01*
X200932Y108432D01*
X201611Y107911D01*
X201950Y107771D01*
Y107229D01*
X201611Y107089D01*
X200932Y106568D01*
X200411Y105889D01*
X200084Y105098D01*
X199972Y104250D01*
Y100750D01*
X200084Y99902D01*
X200411Y99111D01*
X200932Y98432D01*
X201611Y97911D01*
X202402Y97584D01*
X203250Y97472D01*
X206750D01*
X207598Y97584D01*
X208389Y97911D01*
X209068Y98432D01*
X209589Y99111D01*
X209916Y99902D01*
X210028Y100750D01*
Y104250D01*
X209916Y105098D01*
X209589Y105889D01*
X209068Y106568D01*
X208389Y107089D01*
X208050Y107229D01*
Y107771D01*
X208389Y107911D01*
X209068Y108432D01*
X209589Y109111D01*
X209916Y109902D01*
X210028Y110750D01*
Y114250D01*
X209916Y115098D01*
X209589Y115889D01*
X209068Y116568D01*
X208389Y117089D01*
X207598Y117416D01*
X207549Y117423D01*
Y117500D01*
X207355Y118475D01*
X206802Y119302D01*
X201802Y124302D01*
X200975Y124855D01*
X200000Y125049D01*
D02*
G37*
G36*
X57000Y160530D02*
X53000D01*
X52086Y160410D01*
X51235Y160057D01*
X50504Y159496D01*
X49943Y158765D01*
X49590Y157914D01*
X49470Y157000D01*
Y153000D01*
X49590Y152086D01*
X49943Y151235D01*
X50504Y150504D01*
X50835Y150250D01*
Y149750D01*
X50504Y149496D01*
X49943Y148765D01*
X49590Y147914D01*
X49470Y147000D01*
Y143000D01*
X49590Y142086D01*
X49943Y141235D01*
X50504Y140504D01*
X50835Y140250D01*
Y139750D01*
X50504Y139496D01*
X49943Y138765D01*
X49590Y137914D01*
X49470Y137000D01*
Y133000D01*
X49590Y132086D01*
X49943Y131235D01*
X50504Y130504D01*
X50835Y130250D01*
Y129750D01*
X50504Y129496D01*
X49943Y128765D01*
X49590Y127914D01*
X49470Y127000D01*
Y123000D01*
X49590Y122086D01*
X49943Y121235D01*
X50504Y120504D01*
X50835Y120250D01*
Y119750D01*
X50504Y119496D01*
X49943Y118765D01*
X49590Y117914D01*
X49470Y117000D01*
Y113000D01*
X49590Y112086D01*
X49943Y111235D01*
X50504Y110504D01*
X50835Y110250D01*
Y109750D01*
X50504Y109496D01*
X49943Y108765D01*
X49590Y107914D01*
X49470Y107000D01*
Y103000D01*
X49590Y102086D01*
X49943Y101235D01*
X50504Y100504D01*
X51235Y99943D01*
X52086Y99590D01*
X53000Y99470D01*
X57000D01*
X57914Y99590D01*
X58765Y99943D01*
X59496Y100504D01*
X60057Y101235D01*
X60410Y102086D01*
X60530Y103000D01*
Y107000D01*
X60410Y107914D01*
X60057Y108765D01*
X59496Y109496D01*
X59166Y109750D01*
Y110250D01*
X59496Y110504D01*
X60057Y111235D01*
X60410Y112086D01*
X60530Y113000D01*
Y117000D01*
X60410Y117914D01*
X60057Y118765D01*
X59496Y119496D01*
X59166Y119750D01*
Y120250D01*
X59496Y120504D01*
X60057Y121235D01*
X60410Y122086D01*
X60530Y123000D01*
Y127000D01*
X60410Y127914D01*
X60057Y128765D01*
X59496Y129496D01*
X59166Y129750D01*
Y130250D01*
X59496Y130504D01*
X60057Y131235D01*
X60410Y132086D01*
X60530Y133000D01*
Y137000D01*
X60410Y137914D01*
X60057Y138765D01*
X59496Y139496D01*
X59166Y139750D01*
Y140250D01*
X59496Y140504D01*
X60057Y141235D01*
X60410Y142086D01*
X60530Y143000D01*
Y147000D01*
X60410Y147914D01*
X60057Y148765D01*
X59496Y149496D01*
X59166Y149750D01*
Y150250D01*
X59496Y150504D01*
X60057Y151235D01*
X60410Y152086D01*
X60530Y153000D01*
Y157000D01*
X60410Y157914D01*
X60057Y158765D01*
X59496Y159496D01*
X58765Y160057D01*
X57914Y160410D01*
X57000Y160530D01*
D02*
G37*
G36*
X27000D02*
X23000D01*
X22086Y160410D01*
X21235Y160057D01*
X20504Y159496D01*
X19943Y158765D01*
X19590Y157914D01*
X19470Y157000D01*
Y153000D01*
X19590Y152086D01*
X19943Y151235D01*
X20504Y150504D01*
X20834Y150250D01*
Y149750D01*
X20504Y149496D01*
X19943Y148765D01*
X19590Y147914D01*
X19470Y147000D01*
Y143000D01*
X19590Y142086D01*
X19943Y141235D01*
X20504Y140504D01*
X20834Y140250D01*
Y139750D01*
X20504Y139496D01*
X19943Y138765D01*
X19590Y137914D01*
X19470Y137000D01*
Y133000D01*
X19590Y132086D01*
X19943Y131235D01*
X20504Y130504D01*
X20834Y130250D01*
Y129750D01*
X20504Y129496D01*
X19943Y128765D01*
X19590Y127914D01*
X19470Y127000D01*
Y123000D01*
X19590Y122086D01*
X19943Y121235D01*
X20504Y120504D01*
X20834Y120250D01*
Y119750D01*
X20504Y119496D01*
X19943Y118765D01*
X19590Y117914D01*
X19470Y117000D01*
Y113000D01*
X19590Y112086D01*
X19943Y111235D01*
X20504Y110504D01*
X20834Y110250D01*
Y109750D01*
X20504Y109496D01*
X19943Y108765D01*
X19590Y107914D01*
X19470Y107000D01*
Y103000D01*
X19590Y102086D01*
X19943Y101235D01*
X20504Y100504D01*
X21235Y99943D01*
X22086Y99590D01*
X23000Y99470D01*
X27000D01*
X27914Y99590D01*
X28765Y99943D01*
X29496Y100504D01*
X30057Y101235D01*
X30410Y102086D01*
X30530Y103000D01*
Y107000D01*
X30410Y107914D01*
X30057Y108765D01*
X29496Y109496D01*
X29166Y109750D01*
Y110250D01*
X29496Y110504D01*
X30057Y111235D01*
X30410Y112086D01*
X30530Y113000D01*
Y117000D01*
X30410Y117914D01*
X30057Y118765D01*
X29496Y119496D01*
X29166Y119750D01*
Y120250D01*
X29496Y120504D01*
X30057Y121235D01*
X30410Y122086D01*
X30530Y123000D01*
Y127000D01*
X30410Y127914D01*
X30057Y128765D01*
X29496Y129496D01*
X29166Y129750D01*
Y130250D01*
X29496Y130504D01*
X30057Y131235D01*
X30410Y132086D01*
X30530Y133000D01*
Y137000D01*
X30410Y137914D01*
X30057Y138765D01*
X29496Y139496D01*
X29166Y139750D01*
Y140250D01*
X29496Y140504D01*
X30057Y141235D01*
X30410Y142086D01*
X30530Y143000D01*
Y147000D01*
X30410Y147914D01*
X30057Y148765D01*
X29496Y149496D01*
X29166Y149750D01*
Y150250D01*
X29496Y150504D01*
X30057Y151235D01*
X30410Y152086D01*
X30530Y153000D01*
Y157000D01*
X30410Y157914D01*
X30057Y158765D01*
X29496Y159496D01*
X28765Y160057D01*
X27914Y160410D01*
X27000Y160530D01*
D02*
G37*
G36*
X94250Y107528D02*
X90750D01*
X89902Y107416D01*
X89111Y107089D01*
X88432Y106568D01*
X87911Y105889D01*
X87584Y105098D01*
X87472Y104250D01*
Y100750D01*
X87584Y99902D01*
X87911Y99111D01*
X88432Y98432D01*
X89111Y97911D01*
X89902Y97584D01*
X90537Y97500D01*
Y96996D01*
X90032Y96929D01*
X89363Y96652D01*
X88789Y96211D01*
X88348Y95637D01*
X88071Y94968D01*
X87976Y94250D01*
Y93500D01*
X92500D01*
X97024D01*
Y94250D01*
X96929Y94968D01*
X96652Y95637D01*
X96211Y96211D01*
X95637Y96652D01*
X94968Y96929D01*
X94463Y96996D01*
Y97500D01*
X95098Y97584D01*
X95889Y97911D01*
X96568Y98432D01*
X97089Y99111D01*
X97416Y99902D01*
X97528Y100750D01*
Y104250D01*
X97416Y105098D01*
X97089Y105889D01*
X96568Y106568D01*
X95889Y107089D01*
X95098Y107416D01*
X94250Y107528D01*
D02*
G37*
G36*
X79250Y87528D02*
X75750D01*
X74902Y87416D01*
X74111Y87089D01*
X73432Y86568D01*
X72911Y85889D01*
X72584Y85098D01*
X72472Y84250D01*
Y80750D01*
X72584Y79902D01*
X72911Y79111D01*
X73432Y78432D01*
X74111Y77911D01*
X74902Y77584D01*
X75750Y77472D01*
X79250D01*
X80098Y77584D01*
X80889Y77911D01*
X81568Y78432D01*
X82089Y79111D01*
X82416Y79902D01*
X82528Y80750D01*
Y84250D01*
X82416Y85098D01*
X82089Y85889D01*
X81568Y86568D01*
X80889Y87089D01*
X80098Y87416D01*
X79250Y87528D01*
D02*
G37*
G36*
X177000Y88030D02*
X173000D01*
X172086Y87910D01*
X171235Y87557D01*
X170504Y86996D01*
X169943Y86265D01*
X169590Y85414D01*
X169470Y84500D01*
Y80500D01*
X169590Y79586D01*
X169943Y78735D01*
X170504Y78004D01*
X171235Y77443D01*
X172086Y77090D01*
X173000Y76970D01*
X177000D01*
X177914Y77090D01*
X178765Y77443D01*
X179496Y78004D01*
X180057Y78735D01*
X180410Y79586D01*
X180530Y80500D01*
Y84500D01*
X180410Y85414D01*
X180057Y86265D01*
X179496Y86996D01*
X178765Y87557D01*
X177914Y87910D01*
X177000Y88030D01*
D02*
G37*
G36*
X97024Y91500D02*
X93500D01*
Y87976D01*
X94250D01*
X94968Y88071D01*
X95637Y88348D01*
X96211Y88789D01*
X96652Y89363D01*
X96929Y90032D01*
X97024Y90750D01*
Y91500D01*
D02*
G37*
G36*
X91500D02*
X87976D01*
Y90750D01*
X88071Y90032D01*
X88348Y89363D01*
X88789Y88789D01*
X89363Y88348D01*
X90032Y88071D01*
X90750Y87976D01*
X91500D01*
Y91500D01*
D02*
G37*
G36*
X94250Y137528D02*
X90750D01*
X89902Y137416D01*
X89111Y137089D01*
X88432Y136568D01*
X87911Y135889D01*
X87584Y135098D01*
X87472Y134250D01*
Y130750D01*
X87584Y129902D01*
X87911Y129111D01*
X88432Y128432D01*
X89111Y127911D01*
X89902Y127584D01*
X90537Y127500D01*
Y126996D01*
X90032Y126929D01*
X89363Y126652D01*
X88789Y126211D01*
X88348Y125637D01*
X88071Y124968D01*
X87976Y124250D01*
Y123500D01*
X92500D01*
X97024D01*
Y124250D01*
X96929Y124968D01*
X96652Y125637D01*
X96211Y126211D01*
X95637Y126652D01*
X94968Y126929D01*
X94463Y126996D01*
Y127500D01*
X95098Y127584D01*
X95889Y127911D01*
X96568Y128432D01*
X97089Y129111D01*
X97416Y129902D01*
X97528Y130750D01*
Y134250D01*
X97416Y135098D01*
X97089Y135889D01*
X96568Y136568D01*
X95889Y137089D01*
X95098Y137416D01*
X94250Y137528D01*
D02*
G37*
G36*
X97024Y121500D02*
X93500D01*
Y117976D01*
X94250D01*
X94968Y118071D01*
X95637Y118348D01*
X96211Y118789D01*
X96652Y119363D01*
X96929Y120032D01*
X97024Y120750D01*
Y121500D01*
D02*
G37*
G36*
X137000Y148030D02*
X133000D01*
X132086Y147910D01*
X131235Y147557D01*
X130504Y146996D01*
X129943Y146265D01*
X129590Y145414D01*
X129470Y144500D01*
Y140500D01*
X129590Y139586D01*
X129943Y138735D01*
X130504Y138004D01*
X131235Y137443D01*
X132086Y137090D01*
X133000Y136970D01*
X137000D01*
X137914Y137090D01*
X138765Y137443D01*
X139496Y138004D01*
X140057Y138735D01*
X140410Y139586D01*
X140530Y140500D01*
Y144500D01*
X140410Y145414D01*
X140057Y146265D01*
X139496Y146996D01*
X138765Y147557D01*
X137914Y147910D01*
X137000Y148030D01*
D02*
G37*
G36*
X200000Y155049D02*
X117500D01*
X116525Y154855D01*
X115698Y154302D01*
X113198Y151802D01*
X112645Y150976D01*
X112451Y150000D01*
Y147958D01*
X112086Y147910D01*
X111235Y147557D01*
X110504Y146996D01*
X109943Y146265D01*
X109590Y145414D01*
X109470Y144500D01*
Y140500D01*
X109590Y139586D01*
X109943Y138735D01*
X110504Y138004D01*
X111235Y137443D01*
X112086Y137090D01*
X113000Y136970D01*
X117000D01*
X117914Y137090D01*
X118765Y137443D01*
X119496Y138004D01*
X120057Y138735D01*
X120410Y139586D01*
X120530Y140500D01*
Y144500D01*
X120410Y145414D01*
X120057Y146265D01*
X119496Y146996D01*
X118765Y147557D01*
X117914Y147910D01*
X117549Y147958D01*
Y148944D01*
X118556Y149951D01*
X198944D01*
X201388Y147507D01*
X201321Y146867D01*
X200932Y146568D01*
X200411Y145889D01*
X200084Y145098D01*
X199972Y144250D01*
Y140750D01*
X200084Y139902D01*
X200411Y139111D01*
X200932Y138432D01*
X201611Y137911D01*
X201950Y137771D01*
Y137229D01*
X201611Y137089D01*
X200932Y136568D01*
X200411Y135889D01*
X200084Y135098D01*
X199972Y134250D01*
Y130750D01*
X200084Y129902D01*
X200411Y129111D01*
X200932Y128432D01*
X201611Y127911D01*
X202402Y127584D01*
X203250Y127472D01*
X206750D01*
X207598Y127584D01*
X208389Y127911D01*
X209068Y128432D01*
X209589Y129111D01*
X209916Y129902D01*
X210028Y130750D01*
Y134250D01*
X209916Y135098D01*
X209589Y135889D01*
X209068Y136568D01*
X208389Y137089D01*
X208050Y137229D01*
Y137771D01*
X208389Y137911D01*
X209068Y138432D01*
X209589Y139111D01*
X209916Y139902D01*
X210028Y140750D01*
Y144250D01*
X209916Y145098D01*
X209589Y145889D01*
X209068Y146568D01*
X208389Y147089D01*
X207598Y147416D01*
X207549Y147423D01*
Y147500D01*
X207355Y148476D01*
X206802Y149302D01*
X201802Y154302D01*
X200975Y154855D01*
X200000Y155049D01*
D02*
G37*
G36*
X91500Y121500D02*
X87976D01*
Y120750D01*
X88071Y120032D01*
X88348Y119363D01*
X88789Y118789D01*
X89363Y118348D01*
X90032Y118071D01*
X90750Y117976D01*
X91500D01*
Y121500D01*
D02*
G37*
G36*
X157000Y118030D02*
X153000D01*
X152086Y117910D01*
X151235Y117557D01*
X150504Y116996D01*
X149943Y116265D01*
X149590Y115414D01*
X149470Y114500D01*
Y110500D01*
X149590Y109586D01*
X149943Y108735D01*
X150504Y108004D01*
X151235Y107443D01*
X152086Y107090D01*
X153000Y106970D01*
X157000D01*
X157914Y107090D01*
X158765Y107443D01*
X159496Y108004D01*
X160057Y108735D01*
X160410Y109586D01*
X160530Y110500D01*
Y114500D01*
X160410Y115414D01*
X160057Y116265D01*
X159496Y116996D01*
X158765Y117557D01*
X157914Y117910D01*
X157000Y118030D01*
D02*
G37*
G36*
X137000D02*
X133000D01*
X132086Y117910D01*
X131235Y117557D01*
X130504Y116996D01*
X129943Y116265D01*
X129590Y115414D01*
X129470Y114500D01*
Y110500D01*
X129590Y109586D01*
X129943Y108735D01*
X130504Y108004D01*
X131235Y107443D01*
X132086Y107090D01*
X133000Y106970D01*
X137000D01*
X137914Y107090D01*
X138765Y107443D01*
X139496Y108004D01*
X140057Y108735D01*
X140410Y109586D01*
X140530Y110500D01*
Y114500D01*
X140410Y115414D01*
X140057Y116265D01*
X139496Y116996D01*
X138765Y117557D01*
X137914Y117910D01*
X137000Y118030D01*
D02*
G37*
G36*
X79250Y117528D02*
X75750D01*
X74902Y117416D01*
X74111Y117089D01*
X73432Y116568D01*
X72911Y115889D01*
X72584Y115098D01*
X72472Y114250D01*
Y110750D01*
X72584Y109902D01*
X72911Y109111D01*
X73432Y108432D01*
X74111Y107911D01*
X74902Y107584D01*
X75750Y107472D01*
X79250D01*
X80098Y107584D01*
X80889Y107911D01*
X81568Y108432D01*
X82089Y109111D01*
X82416Y109902D01*
X82528Y110750D01*
Y114250D01*
X82416Y115098D01*
X82089Y115889D01*
X81568Y116568D01*
X80889Y117089D01*
X80098Y117416D01*
X79250Y117528D01*
D02*
G37*
G36*
X177000Y118030D02*
X173000D01*
X172086Y117910D01*
X171235Y117557D01*
X170504Y116996D01*
X169943Y116265D01*
X169590Y115414D01*
X169470Y114500D01*
Y110500D01*
X169590Y109586D01*
X169943Y108735D01*
X170504Y108004D01*
X171235Y107443D01*
X172086Y107090D01*
X173000Y106970D01*
X177000D01*
X177914Y107090D01*
X178765Y107443D01*
X179496Y108004D01*
X180057Y108735D01*
X180410Y109586D01*
X180530Y110500D01*
Y114500D01*
X180410Y115414D01*
X180057Y116265D01*
X179496Y116996D01*
X178765Y117557D01*
X177914Y117910D01*
X177000Y118030D01*
D02*
G37*
G36*
X157000Y88030D02*
X153000D01*
X152086Y87910D01*
X151235Y87557D01*
X150504Y86996D01*
X149943Y86265D01*
X149590Y85414D01*
X149470Y84500D01*
Y80500D01*
X149590Y79586D01*
X149943Y78735D01*
X150504Y78004D01*
X151235Y77443D01*
X152086Y77090D01*
X153000Y76970D01*
X157000D01*
X157914Y77090D01*
X158765Y77443D01*
X159496Y78004D01*
X160057Y78735D01*
X160410Y79586D01*
X160530Y80500D01*
Y84500D01*
X160410Y85414D01*
X160057Y86265D01*
X159496Y86996D01*
X158765Y87557D01*
X157914Y87910D01*
X157000Y88030D01*
D02*
G37*
G36*
X138530Y14000D02*
X133500D01*
Y8970D01*
X135000D01*
X135914Y9090D01*
X136765Y9443D01*
X137496Y10004D01*
X138057Y10735D01*
X138410Y11586D01*
X138530Y12500D01*
Y14000D01*
D02*
G37*
G36*
X131500D02*
X126470D01*
Y12500D01*
X126590Y11586D01*
X126943Y10735D01*
X127504Y10004D01*
X128235Y9443D01*
X129086Y9090D01*
X130000Y8970D01*
X131500D01*
Y14000D01*
D02*
G37*
G36*
X135000Y21030D02*
X133500D01*
Y16000D01*
X138530D01*
Y17500D01*
X138410Y18414D01*
X138057Y19265D01*
X137496Y19996D01*
X136765Y20557D01*
X135914Y20910D01*
X135000Y21030D01*
D02*
G37*
G36*
X131500D02*
X130000D01*
X129086Y20910D01*
X128235Y20557D01*
X127504Y19996D01*
X126943Y19265D01*
X126590Y18414D01*
X126470Y17500D01*
Y16000D01*
X131500D01*
Y21030D01*
D02*
G37*
G36*
X175000Y21534D02*
X170000D01*
X168956Y21397D01*
X167983Y20994D01*
X167147Y20353D01*
X166506Y19517D01*
X166103Y18544D01*
X165965Y17500D01*
Y12500D01*
X166103Y11456D01*
X166506Y10483D01*
X167147Y9647D01*
X167983Y9006D01*
X168956Y8603D01*
X170000Y8466D01*
X175000D01*
X176044Y8603D01*
X177017Y9006D01*
X177853Y9647D01*
X178494Y10483D01*
X178897Y11456D01*
X179034Y12500D01*
Y17500D01*
X178897Y18544D01*
X178494Y19517D01*
X177853Y20353D01*
X177017Y20994D01*
X176044Y21397D01*
X175000Y21534D01*
D02*
G37*
G36*
X228171Y26342D02*
X216829D01*
X211157Y20671D01*
Y9329D01*
X216829Y3658D01*
X228171D01*
X233842Y9329D01*
Y20671D01*
X228171Y26342D01*
D02*
G37*
G36*
X20671D02*
X9329D01*
X3658Y20671D01*
Y9329D01*
X9329Y3658D01*
X20671D01*
X26342Y9329D01*
Y20671D01*
X20671Y26342D01*
D02*
G37*
G36*
X155000Y21534D02*
X150000D01*
X148956Y21397D01*
X147983Y20994D01*
X147147Y20353D01*
X146506Y19517D01*
X146103Y18544D01*
X145966Y17500D01*
Y12500D01*
X146103Y11456D01*
X146506Y10483D01*
X147147Y9647D01*
X147983Y9006D01*
X148956Y8603D01*
X150000Y8466D01*
X155000D01*
X156044Y8603D01*
X157017Y9006D01*
X157853Y9647D01*
X158494Y10483D01*
X158897Y11456D01*
X159035Y12500D01*
Y17500D01*
X158897Y18544D01*
X158494Y19517D01*
X157853Y20353D01*
X157017Y20994D01*
X156044Y21397D01*
X155000Y21534D01*
D02*
G37*
G36*
X115000D02*
X110000D01*
X108956Y21397D01*
X107983Y20994D01*
X107147Y20353D01*
X106506Y19517D01*
X106103Y18544D01*
X105965Y17500D01*
Y12500D01*
X106103Y11456D01*
X106506Y10483D01*
X107147Y9647D01*
X107983Y9006D01*
X108956Y8603D01*
X110000Y8466D01*
X115000D01*
X116044Y8603D01*
X117017Y9006D01*
X117853Y9647D01*
X118494Y10483D01*
X118897Y11456D01*
X119035Y12500D01*
Y17500D01*
X118897Y18544D01*
X118494Y19517D01*
X117853Y20353D01*
X117017Y20994D01*
X116044Y21397D01*
X115000Y21534D01*
D02*
G37*
G36*
X94250Y77528D02*
X90750D01*
X89902Y77416D01*
X89111Y77089D01*
X88432Y76568D01*
X87911Y75889D01*
X87584Y75098D01*
X87472Y74250D01*
Y70750D01*
X87584Y69902D01*
X87911Y69111D01*
X88432Y68432D01*
X89111Y67911D01*
X89450Y67771D01*
Y67229D01*
X89111Y67089D01*
X88432Y66568D01*
X87911Y65889D01*
X87584Y65098D01*
X87472Y64250D01*
Y60750D01*
X87584Y59902D01*
X87911Y59111D01*
X88432Y58432D01*
X89111Y57911D01*
X89902Y57584D01*
X90750Y57472D01*
X94250D01*
X95098Y57584D01*
X95889Y57911D01*
X96568Y58432D01*
X97089Y59111D01*
X97416Y59902D01*
X97528Y60750D01*
Y64250D01*
X97416Y65098D01*
X97089Y65889D01*
X96568Y66568D01*
X95889Y67089D01*
X95550Y67229D01*
Y67771D01*
X95889Y67911D01*
X96568Y68432D01*
X97089Y69111D01*
X97416Y69902D01*
X97528Y70750D01*
Y74250D01*
X97416Y75098D01*
X97089Y75889D01*
X96568Y76568D01*
X95889Y77089D01*
X95098Y77416D01*
X94250Y77528D01*
D02*
G37*
G36*
X79250Y57528D02*
X75750D01*
X74902Y57416D01*
X74111Y57089D01*
X73432Y56568D01*
X72911Y55889D01*
X72584Y55098D01*
X72472Y54250D01*
Y50750D01*
X72584Y49902D01*
X72911Y49111D01*
X73432Y48432D01*
X74111Y47911D01*
X74902Y47584D01*
X75750Y47472D01*
X79250D01*
X80098Y47584D01*
X80889Y47911D01*
X81568Y48432D01*
X82089Y49111D01*
X82416Y49902D01*
X82528Y50750D01*
Y54250D01*
X82416Y55098D01*
X82089Y55889D01*
X81568Y56568D01*
X80889Y57089D01*
X80098Y57416D01*
X79250Y57528D01*
D02*
G37*
G36*
X137000Y88030D02*
X133000D01*
X132086Y87910D01*
X131235Y87557D01*
X130504Y86996D01*
X129943Y86265D01*
X129590Y85414D01*
X129470Y84500D01*
Y80500D01*
X129590Y79586D01*
X129943Y78735D01*
X130504Y78004D01*
X131235Y77443D01*
X132086Y77090D01*
X133000Y76970D01*
X137000D01*
X137914Y77090D01*
X138765Y77443D01*
X139496Y78004D01*
X140057Y78735D01*
X140410Y79586D01*
X140530Y80500D01*
Y84500D01*
X140410Y85414D01*
X140057Y86265D01*
X139496Y86996D01*
X138765Y87557D01*
X137914Y87910D01*
X137000Y88030D01*
D02*
G37*
G36*
X200000Y95049D02*
X117500D01*
X116525Y94855D01*
X115698Y94302D01*
X113198Y91802D01*
X112645Y90975D01*
X112451Y90000D01*
Y87958D01*
X112086Y87910D01*
X111235Y87557D01*
X110504Y86996D01*
X109943Y86265D01*
X109590Y85414D01*
X109470Y84500D01*
Y80500D01*
X109590Y79586D01*
X109943Y78735D01*
X110504Y78004D01*
X111235Y77443D01*
X112086Y77090D01*
X113000Y76970D01*
X117000D01*
X117914Y77090D01*
X118765Y77443D01*
X119496Y78004D01*
X120057Y78735D01*
X120410Y79586D01*
X120530Y80500D01*
Y84500D01*
X120410Y85414D01*
X120057Y86265D01*
X119496Y86996D01*
X118765Y87557D01*
X117914Y87910D01*
X117549Y87958D01*
Y88944D01*
X118556Y89951D01*
X198944D01*
X201388Y87507D01*
X201321Y86867D01*
X200932Y86568D01*
X200411Y85889D01*
X200084Y85098D01*
X199972Y84250D01*
Y80750D01*
X200084Y79902D01*
X200411Y79111D01*
X200932Y78432D01*
X201611Y77911D01*
X201950Y77771D01*
Y77229D01*
X201611Y77089D01*
X200932Y76568D01*
X200411Y75889D01*
X200084Y75098D01*
X199972Y74250D01*
Y70750D01*
X200084Y69902D01*
X200411Y69111D01*
X200932Y68432D01*
X201611Y67911D01*
X202402Y67584D01*
X203250Y67472D01*
X206750D01*
X207598Y67584D01*
X208389Y67911D01*
X209068Y68432D01*
X209589Y69111D01*
X209916Y69902D01*
X210028Y70750D01*
Y74250D01*
X209916Y75098D01*
X209589Y75889D01*
X209068Y76568D01*
X208389Y77089D01*
X208050Y77229D01*
Y77771D01*
X208389Y77911D01*
X209068Y78432D01*
X209589Y79111D01*
X209916Y79902D01*
X210028Y80750D01*
Y84250D01*
X209916Y85098D01*
X209589Y85889D01*
X209068Y86568D01*
X208389Y87089D01*
X207598Y87416D01*
X207549Y87423D01*
Y87500D01*
X207355Y88476D01*
X206802Y89302D01*
X201802Y94302D01*
X200975Y94855D01*
X200000Y95049D01*
D02*
G37*
G36*
X177000Y58030D02*
X173000D01*
X172086Y57910D01*
X171235Y57557D01*
X170504Y56996D01*
X169943Y56265D01*
X169590Y55414D01*
X169470Y54500D01*
Y50500D01*
X169590Y49586D01*
X169943Y48735D01*
X170504Y48004D01*
X171235Y47443D01*
X172086Y47090D01*
X173000Y46970D01*
X177000D01*
X177914Y47090D01*
X178765Y47443D01*
X179496Y48004D01*
X180057Y48735D01*
X180410Y49586D01*
X180530Y50500D01*
Y54500D01*
X180410Y55414D01*
X180057Y56265D01*
X179496Y56996D01*
X178765Y57557D01*
X177914Y57910D01*
X177000Y58030D01*
D02*
G37*
G36*
X200000Y65049D02*
X117500D01*
X116525Y64855D01*
X115698Y64302D01*
X113198Y61802D01*
X112645Y60975D01*
X112451Y60000D01*
Y57958D01*
X112086Y57910D01*
X111235Y57557D01*
X110504Y56996D01*
X109943Y56265D01*
X109590Y55414D01*
X109470Y54500D01*
Y50500D01*
X109590Y49586D01*
X109943Y48735D01*
X110504Y48004D01*
X111235Y47443D01*
X112086Y47090D01*
X113000Y46970D01*
X117000D01*
X117914Y47090D01*
X118765Y47443D01*
X119496Y48004D01*
X120057Y48735D01*
X120410Y49586D01*
X120530Y50500D01*
Y54500D01*
X120410Y55414D01*
X120057Y56265D01*
X119496Y56996D01*
X118765Y57557D01*
X117914Y57910D01*
X117549Y57958D01*
Y58944D01*
X118556Y59951D01*
X198944D01*
X201388Y57507D01*
X201321Y56867D01*
X200932Y56568D01*
X200411Y55889D01*
X200084Y55098D01*
X199972Y54250D01*
Y50750D01*
X200084Y49902D01*
X200411Y49111D01*
X200932Y48432D01*
X201611Y47911D01*
X201950Y47771D01*
Y47229D01*
X201611Y47089D01*
X200932Y46568D01*
X200411Y45889D01*
X200084Y45098D01*
X199972Y44250D01*
Y40750D01*
X200084Y39902D01*
X200411Y39111D01*
X200932Y38432D01*
X201611Y37911D01*
X202402Y37584D01*
X203250Y37472D01*
X206750D01*
X207598Y37584D01*
X208389Y37911D01*
X209068Y38432D01*
X209589Y39111D01*
X209916Y39902D01*
X210028Y40750D01*
Y44250D01*
X209916Y45098D01*
X209589Y45889D01*
X209068Y46568D01*
X208389Y47089D01*
X208050Y47229D01*
Y47771D01*
X208389Y47911D01*
X209068Y48432D01*
X209589Y49111D01*
X209916Y49902D01*
X210028Y50750D01*
Y54250D01*
X209916Y55098D01*
X209589Y55889D01*
X209068Y56568D01*
X208389Y57089D01*
X207598Y57416D01*
X207549Y57423D01*
Y57500D01*
X207355Y58476D01*
X206802Y59302D01*
X201802Y64302D01*
X200975Y64855D01*
X200000Y65049D01*
D02*
G37*
G36*
X94250Y47528D02*
X90750D01*
X89902Y47416D01*
X89111Y47089D01*
X88432Y46568D01*
X87911Y45889D01*
X87584Y45098D01*
X87472Y44250D01*
Y40750D01*
X87584Y39902D01*
X87911Y39111D01*
X88432Y38432D01*
X89111Y37911D01*
X89902Y37584D01*
X90750Y37472D01*
X94250D01*
X95098Y37584D01*
X95889Y37911D01*
X96568Y38432D01*
X97089Y39111D01*
X97416Y39902D01*
X97528Y40750D01*
Y44250D01*
X97416Y45098D01*
X97089Y45889D01*
X96568Y46568D01*
X95889Y47089D01*
X95098Y47416D01*
X94250Y47528D01*
D02*
G37*
G36*
X157000Y58030D02*
X153000D01*
X152086Y57910D01*
X151235Y57557D01*
X150504Y56996D01*
X149943Y56265D01*
X149590Y55414D01*
X149470Y54500D01*
Y50500D01*
X149590Y49586D01*
X149943Y48735D01*
X150504Y48004D01*
X151235Y47443D01*
X152086Y47090D01*
X153000Y46970D01*
X157000D01*
X157914Y47090D01*
X158765Y47443D01*
X159496Y48004D01*
X160057Y48735D01*
X160410Y49586D01*
X160530Y50500D01*
Y54500D01*
X160410Y55414D01*
X160057Y56265D01*
X159496Y56996D01*
X158765Y57557D01*
X157914Y57910D01*
X157000Y58030D01*
D02*
G37*
G36*
X137000D02*
X133000D01*
X132086Y57910D01*
X131235Y57557D01*
X130504Y56996D01*
X129943Y56265D01*
X129590Y55414D01*
X129470Y54500D01*
Y50500D01*
X129590Y49586D01*
X129943Y48735D01*
X130504Y48004D01*
X131235Y47443D01*
X132086Y47090D01*
X133000Y46970D01*
X137000D01*
X137914Y47090D01*
X138765Y47443D01*
X139496Y48004D01*
X140057Y48735D01*
X140410Y49586D01*
X140530Y50500D01*
Y54500D01*
X140410Y55414D01*
X140057Y56265D01*
X139496Y56996D01*
X138765Y57557D01*
X137914Y57910D01*
X137000Y58030D01*
D02*
G37*
G36*
X157000Y148030D02*
X153000D01*
X152086Y147910D01*
X151235Y147557D01*
X150504Y146996D01*
X149943Y146265D01*
X149590Y145414D01*
X149470Y144500D01*
Y140500D01*
X149590Y139586D01*
X149943Y138735D01*
X150504Y138004D01*
X151235Y137443D01*
X152086Y137090D01*
X153000Y136970D01*
X157000D01*
X157914Y137090D01*
X158765Y137443D01*
X159496Y138004D01*
X160057Y138735D01*
X160410Y139586D01*
X160530Y140500D01*
Y144500D01*
X160410Y145414D01*
X160057Y146265D01*
X159496Y146996D01*
X158765Y147557D01*
X157914Y147910D01*
X157000Y148030D01*
D02*
G37*
G36*
X27000Y278030D02*
X23000D01*
X22086Y277910D01*
X21235Y277557D01*
X20504Y276996D01*
X19943Y276265D01*
X19590Y275414D01*
X19470Y274500D01*
Y270500D01*
X19590Y269586D01*
X19943Y268735D01*
X20504Y268004D01*
X20834Y267750D01*
Y267250D01*
X20504Y266996D01*
X19943Y266265D01*
X19590Y265414D01*
X19470Y264500D01*
Y260500D01*
X19590Y259586D01*
X19943Y258735D01*
X20504Y258004D01*
X21235Y257443D01*
X22086Y257090D01*
X23000Y256970D01*
X27000D01*
X27914Y257090D01*
X28765Y257443D01*
X29496Y258004D01*
X30057Y258735D01*
X30410Y259586D01*
X30530Y260500D01*
Y264500D01*
X30410Y265414D01*
X30057Y266265D01*
X29496Y266996D01*
X29166Y267250D01*
Y267750D01*
X29496Y268004D01*
X30057Y268735D01*
X30410Y269586D01*
X30530Y270500D01*
Y274500D01*
X30410Y275414D01*
X30057Y276265D01*
X29496Y276996D01*
X28765Y277557D01*
X27914Y277910D01*
X27000Y278030D01*
D02*
G37*
G36*
X112000Y263030D02*
X108000D01*
X107086Y262910D01*
X106235Y262557D01*
X105504Y261996D01*
X104943Y261265D01*
X104590Y260414D01*
X104470Y259500D01*
Y255500D01*
X104590Y254586D01*
X104943Y253735D01*
X105504Y253004D01*
X106235Y252443D01*
X107086Y252090D01*
X108000Y251970D01*
X112000D01*
X112914Y252090D01*
X113765Y252443D01*
X114496Y253004D01*
X115057Y253735D01*
X115410Y254586D01*
X115530Y255500D01*
Y259500D01*
X115410Y260414D01*
X115057Y261265D01*
X114496Y261996D01*
X113765Y262557D01*
X112914Y262910D01*
X112000Y263030D01*
D02*
G37*
G36*
X54000Y261500D02*
X49974D01*
Y260500D01*
X50077Y259717D01*
X50380Y258987D01*
X50860Y258360D01*
X51487Y257879D01*
X52217Y257577D01*
X53000Y257474D01*
X54000D01*
Y261500D01*
D02*
G37*
G36*
X11750Y277528D02*
X8250D01*
X7402Y277416D01*
X6611Y277089D01*
X5932Y276568D01*
X5411Y275889D01*
X5084Y275098D01*
X4972Y274250D01*
Y270750D01*
X5084Y269902D01*
X5411Y269111D01*
X5932Y268432D01*
X6611Y267911D01*
X6950Y267771D01*
Y267229D01*
X6611Y267089D01*
X5932Y266568D01*
X5411Y265889D01*
X5084Y265098D01*
X4972Y264250D01*
Y260750D01*
X5084Y259902D01*
X5411Y259111D01*
X5932Y258432D01*
X6611Y257911D01*
X7402Y257584D01*
X8250Y257472D01*
X11750D01*
X12598Y257584D01*
X13389Y257911D01*
X14068Y258432D01*
X14589Y259111D01*
X14916Y259902D01*
X15028Y260750D01*
Y264250D01*
X14916Y265098D01*
X14589Y265889D01*
X14068Y266568D01*
X13389Y267089D01*
X13050Y267229D01*
Y267771D01*
X13389Y267911D01*
X14068Y268432D01*
X14589Y269111D01*
X14916Y269902D01*
X15028Y270750D01*
Y274250D01*
X14916Y275098D01*
X14589Y275889D01*
X14068Y276568D01*
X13389Y277089D01*
X12598Y277416D01*
X11750Y277528D01*
D02*
G37*
G36*
X207000Y288030D02*
X203000D01*
X202086Y287910D01*
X201235Y287557D01*
X200504Y286996D01*
X199943Y286265D01*
X199590Y285414D01*
X199470Y284500D01*
Y280500D01*
X199590Y279586D01*
X199943Y278735D01*
X200504Y278004D01*
X200834Y277750D01*
Y277250D01*
X200504Y276996D01*
X199943Y276265D01*
X199590Y275414D01*
X199470Y274500D01*
Y270500D01*
X199590Y269586D01*
X199943Y268735D01*
X200504Y268004D01*
X200834Y267750D01*
Y267250D01*
X200504Y266996D01*
X199943Y266265D01*
X199590Y265414D01*
X199470Y264500D01*
Y260500D01*
X199590Y259586D01*
X199943Y258735D01*
X200504Y258004D01*
X200834Y257750D01*
Y257250D01*
X200504Y256996D01*
X199943Y256265D01*
X199590Y255414D01*
X199470Y254500D01*
Y250500D01*
X199590Y249586D01*
X199943Y248735D01*
X200504Y248004D01*
X201235Y247443D01*
X202086Y247090D01*
X203000Y246970D01*
X207000D01*
X207914Y247090D01*
X208765Y247443D01*
X209496Y248004D01*
X210057Y248735D01*
X210410Y249586D01*
X210530Y250500D01*
Y254500D01*
X210410Y255414D01*
X210057Y256265D01*
X209496Y256996D01*
X209166Y257250D01*
Y257750D01*
X209496Y258004D01*
X210057Y258735D01*
X210410Y259586D01*
X210530Y260500D01*
Y264500D01*
X210410Y265414D01*
X210057Y266265D01*
X209496Y266996D01*
X209166Y267250D01*
Y267750D01*
X209496Y268004D01*
X210057Y268735D01*
X210410Y269586D01*
X210530Y270500D01*
Y274500D01*
X210410Y275414D01*
X210057Y276265D01*
X209496Y276996D01*
X209166Y277250D01*
Y277750D01*
X209496Y278004D01*
X210057Y278735D01*
X210410Y279586D01*
X210530Y280500D01*
Y284500D01*
X210410Y285414D01*
X210057Y286265D01*
X209496Y286996D01*
X208765Y287557D01*
X207914Y287910D01*
X207000Y288030D01*
D02*
G37*
G36*
X91500Y217024D02*
X90750D01*
X90032Y216929D01*
X89363Y216652D01*
X88789Y216211D01*
X88348Y215637D01*
X88071Y214968D01*
X87976Y214250D01*
Y213500D01*
X91500D01*
Y217024D01*
D02*
G37*
G36*
X97024Y211500D02*
X93500D01*
Y207976D01*
X94250D01*
X94968Y208071D01*
X95637Y208348D01*
X96211Y208789D01*
X96652Y209363D01*
X96929Y210032D01*
X97024Y210750D01*
Y211500D01*
D02*
G37*
G36*
X112000Y233030D02*
X108000D01*
X107086Y232910D01*
X106235Y232557D01*
X105504Y231996D01*
X104943Y231265D01*
X104590Y230414D01*
X104470Y229500D01*
Y225500D01*
X104590Y224586D01*
X104943Y223735D01*
X105504Y223004D01*
X106235Y222443D01*
X107086Y222090D01*
X108000Y221970D01*
X112000D01*
X112914Y222090D01*
X113765Y222443D01*
X114496Y223004D01*
X115057Y223735D01*
X115410Y224586D01*
X115530Y225500D01*
Y229500D01*
X115410Y230414D01*
X115057Y231265D01*
X114496Y231996D01*
X113765Y232557D01*
X112914Y232910D01*
X112000Y233030D01*
D02*
G37*
G36*
X94250Y217024D02*
X93500D01*
Y213500D01*
X97024D01*
Y214250D01*
X96929Y214968D01*
X96652Y215637D01*
X96211Y216211D01*
X95637Y216652D01*
X94968Y216929D01*
X94250Y217024D01*
D02*
G37*
G36*
X60026Y261500D02*
X56000D01*
Y257474D01*
X57000D01*
X57783Y257577D01*
X58513Y257879D01*
X59140Y258360D01*
X59620Y258987D01*
X59923Y259717D01*
X60026Y260500D01*
Y261500D01*
D02*
G37*
G36*
X228171Y318843D02*
X216829D01*
X211157Y313171D01*
Y301829D01*
X216829Y296158D01*
X228171D01*
X233842Y301829D01*
Y313171D01*
X228171Y318843D01*
D02*
G37*
G36*
X20671D02*
X9329D01*
X3658Y313171D01*
Y301829D01*
X9329Y296158D01*
X20671D01*
X26342Y301829D01*
Y313171D01*
X20671Y318843D01*
D02*
G37*
G36*
X162000Y313030D02*
X158000D01*
X157086Y312910D01*
X156235Y312557D01*
X155504Y311996D01*
X155250Y311666D01*
X154750D01*
X154496Y311996D01*
X153765Y312557D01*
X152914Y312910D01*
X152000Y313030D01*
X148000D01*
X147086Y312910D01*
X146235Y312557D01*
X145504Y311996D01*
X144943Y311265D01*
X144590Y310414D01*
X144470Y309500D01*
Y305500D01*
X144590Y304586D01*
X144943Y303735D01*
X145504Y303004D01*
X146235Y302443D01*
X147086Y302090D01*
X148000Y301970D01*
X152000D01*
X152914Y302090D01*
X153765Y302443D01*
X154496Y303004D01*
X154750Y303334D01*
X155250D01*
X155504Y303004D01*
X156235Y302443D01*
X157086Y302090D01*
X158000Y301970D01*
X162000D01*
X162914Y302090D01*
X163765Y302443D01*
X164496Y303004D01*
X165057Y303735D01*
X165410Y304586D01*
X165530Y305500D01*
Y309500D01*
X165410Y310414D01*
X165057Y311265D01*
X164496Y311996D01*
X163765Y312557D01*
X162914Y312910D01*
X162000Y313030D01*
D02*
G37*
G36*
X112000D02*
X108000D01*
X107086Y312910D01*
X106235Y312557D01*
X105504Y311996D01*
X104943Y311265D01*
X104590Y310414D01*
X104470Y309500D01*
Y305500D01*
X104590Y304586D01*
X104943Y303735D01*
X105504Y303004D01*
X106235Y302443D01*
X107086Y302090D01*
X108000Y301970D01*
X112000D01*
X112914Y302090D01*
X113765Y302443D01*
X114496Y303004D01*
X115057Y303735D01*
X115410Y304586D01*
X115530Y305500D01*
Y309500D01*
X115410Y310414D01*
X115057Y311265D01*
X114496Y311996D01*
X113765Y312557D01*
X112914Y312910D01*
X112000Y313030D01*
D02*
G37*
G36*
X162000Y283030D02*
X158000D01*
X157086Y282910D01*
X156235Y282557D01*
X155504Y281996D01*
X155250Y281665D01*
X154750D01*
X154496Y281996D01*
X153765Y282557D01*
X152914Y282910D01*
X152000Y283030D01*
X148000D01*
X147086Y282910D01*
X146235Y282557D01*
X145504Y281996D01*
X144943Y281265D01*
X144590Y280414D01*
X144470Y279500D01*
Y275500D01*
X144590Y274586D01*
X144943Y273735D01*
X145504Y273004D01*
X146235Y272443D01*
X147086Y272090D01*
X148000Y271970D01*
X152000D01*
X152914Y272090D01*
X153765Y272443D01*
X154496Y273004D01*
X154750Y273335D01*
X155250D01*
X155504Y273004D01*
X156235Y272443D01*
X157086Y272090D01*
X158000Y271970D01*
X161925D01*
X167451Y266444D01*
Y252549D01*
X164651D01*
X164605Y252682D01*
X164531Y253049D01*
X165057Y253735D01*
X165410Y254586D01*
X165530Y255500D01*
Y259500D01*
X165410Y260414D01*
X165057Y261265D01*
X164496Y261996D01*
X163765Y262557D01*
X162914Y262910D01*
X162000Y263030D01*
X158000D01*
X157086Y262910D01*
X156235Y262557D01*
X155504Y261996D01*
X155250Y261666D01*
X154750D01*
X154496Y261996D01*
X153765Y262557D01*
X152914Y262910D01*
X152000Y263030D01*
X148000D01*
X147086Y262910D01*
X146235Y262557D01*
X145504Y261996D01*
X144943Y261265D01*
X144590Y260414D01*
X144470Y259500D01*
Y255500D01*
X144590Y254586D01*
X144943Y253735D01*
X145469Y253049D01*
X145395Y252682D01*
X145349Y252549D01*
X130586D01*
X130353Y252853D01*
X129517Y253494D01*
X128544Y253897D01*
X127500Y254034D01*
X126456Y253897D01*
X125483Y253494D01*
X124647Y252853D01*
X124006Y252017D01*
X123603Y251044D01*
X123466Y250000D01*
X123603Y248956D01*
X124006Y247983D01*
X124647Y247147D01*
X125483Y246506D01*
X126456Y246103D01*
X127500Y245966D01*
X128544Y246103D01*
X129517Y246506D01*
X130353Y247147D01*
X130586Y247451D01*
X167451D01*
Y238556D01*
X161925Y233030D01*
X158000D01*
X157086Y232910D01*
X156235Y232557D01*
X155504Y231996D01*
X155250Y231665D01*
X154750D01*
X154496Y231996D01*
X153765Y232557D01*
X152914Y232910D01*
X152000Y233030D01*
X148000D01*
X147086Y232910D01*
X146235Y232557D01*
X145504Y231996D01*
X144943Y231265D01*
X144590Y230414D01*
X144470Y229500D01*
Y225500D01*
X144590Y224586D01*
X144943Y223735D01*
X145504Y223004D01*
X146235Y222443D01*
X147086Y222090D01*
X148000Y221970D01*
X152000D01*
X152914Y222090D01*
X153765Y222443D01*
X154496Y223004D01*
X154750Y223335D01*
X155250D01*
X155504Y223004D01*
X156235Y222443D01*
X157086Y222090D01*
X158000Y221970D01*
X162000D01*
X162914Y222090D01*
X163765Y222443D01*
X164496Y223004D01*
X165057Y223735D01*
X165410Y224586D01*
X165530Y225500D01*
Y229425D01*
X171802Y235698D01*
X172355Y236525D01*
X172549Y237500D01*
Y250000D01*
Y267500D01*
X172355Y268476D01*
X171802Y269302D01*
X165530Y275575D01*
Y279500D01*
X165410Y280414D01*
X165057Y281265D01*
X164496Y281996D01*
X163765Y282557D01*
X162914Y282910D01*
X162000Y283030D01*
D02*
G37*
G36*
X112000D02*
X108000D01*
X107086Y282910D01*
X106235Y282557D01*
X105504Y281996D01*
X104943Y281265D01*
X104590Y280414D01*
X104470Y279500D01*
Y275500D01*
X104590Y274586D01*
X104943Y273735D01*
X105504Y273004D01*
X106235Y272443D01*
X107086Y272090D01*
X108000Y271970D01*
X112000D01*
X112914Y272090D01*
X113765Y272443D01*
X114496Y273004D01*
X115057Y273735D01*
X115410Y274586D01*
X115530Y275500D01*
Y279500D01*
X115410Y280414D01*
X115057Y281265D01*
X114496Y281996D01*
X113765Y282557D01*
X112914Y282910D01*
X112000Y283030D01*
D02*
G37*
G36*
X60026Y271500D02*
X55000D01*
X49974D01*
Y270500D01*
X50077Y269717D01*
X50380Y268987D01*
X50860Y268360D01*
X51487Y267880D01*
X51750Y267771D01*
Y267229D01*
X51487Y267121D01*
X50860Y266640D01*
X50380Y266013D01*
X50077Y265283D01*
X49974Y264500D01*
Y263500D01*
X55000D01*
X60026D01*
Y264500D01*
X59923Y265283D01*
X59620Y266013D01*
X59140Y266640D01*
X58513Y267121D01*
X58250Y267229D01*
Y267771D01*
X58513Y267880D01*
X59140Y268360D01*
X59620Y268987D01*
X59923Y269717D01*
X60026Y270500D01*
Y271500D01*
D02*
G37*
G36*
X57000Y277526D02*
X56000D01*
Y273500D01*
X60026D01*
Y274500D01*
X59923Y275283D01*
X59620Y276013D01*
X59140Y276640D01*
X58513Y277120D01*
X57783Y277423D01*
X57000Y277526D01*
D02*
G37*
G36*
X54000D02*
X53000D01*
X52217Y277423D01*
X51487Y277120D01*
X50860Y276640D01*
X50380Y276013D01*
X50077Y275283D01*
X49974Y274500D01*
Y273500D01*
X54000D01*
Y277526D01*
D02*
G37*
G36*
X137000Y178030D02*
X133000D01*
X132086Y177910D01*
X131235Y177557D01*
X130504Y176996D01*
X129943Y176265D01*
X129590Y175414D01*
X129470Y174500D01*
Y170500D01*
X129590Y169586D01*
X129943Y168735D01*
X130504Y168004D01*
X131235Y167443D01*
X132086Y167090D01*
X133000Y166970D01*
X137000D01*
X137914Y167090D01*
X138765Y167443D01*
X139496Y168004D01*
X140057Y168735D01*
X140410Y169586D01*
X140530Y170500D01*
Y174500D01*
X140410Y175414D01*
X140057Y176265D01*
X139496Y176996D01*
X138765Y177557D01*
X137914Y177910D01*
X137000Y178030D01*
D02*
G37*
G36*
X200000Y185049D02*
X117500D01*
X116525Y184855D01*
X115698Y184302D01*
X113198Y181802D01*
X112645Y180975D01*
X112451Y180000D01*
Y177958D01*
X112086Y177910D01*
X111235Y177557D01*
X110504Y176996D01*
X109943Y176265D01*
X109590Y175414D01*
X109470Y174500D01*
Y170500D01*
X109590Y169586D01*
X109943Y168735D01*
X110504Y168004D01*
X111235Y167443D01*
X112086Y167090D01*
X113000Y166970D01*
X117000D01*
X117914Y167090D01*
X118765Y167443D01*
X119496Y168004D01*
X120057Y168735D01*
X120410Y169586D01*
X120530Y170500D01*
Y174500D01*
X120410Y175414D01*
X120057Y176265D01*
X119496Y176996D01*
X118765Y177557D01*
X117914Y177910D01*
X117549Y177958D01*
Y178944D01*
X118556Y179951D01*
X198944D01*
X201388Y177507D01*
X201321Y176867D01*
X200932Y176568D01*
X200411Y175889D01*
X200084Y175098D01*
X199972Y174250D01*
Y170750D01*
X200084Y169902D01*
X200411Y169111D01*
X200932Y168432D01*
X201611Y167911D01*
X201950Y167771D01*
Y167229D01*
X201611Y167089D01*
X200932Y166568D01*
X200411Y165889D01*
X200084Y165098D01*
X199972Y164250D01*
Y160750D01*
X200084Y159902D01*
X200411Y159111D01*
X200932Y158432D01*
X201611Y157911D01*
X202402Y157584D01*
X203250Y157472D01*
X206750D01*
X207598Y157584D01*
X208389Y157911D01*
X209068Y158432D01*
X209589Y159111D01*
X209916Y159902D01*
X210028Y160750D01*
Y164250D01*
X209916Y165098D01*
X209589Y165889D01*
X209068Y166568D01*
X208389Y167089D01*
X208050Y167229D01*
Y167771D01*
X208389Y167911D01*
X209068Y168432D01*
X209589Y169111D01*
X209916Y169902D01*
X210028Y170750D01*
Y174250D01*
X209916Y175098D01*
X209589Y175889D01*
X209068Y176568D01*
X208389Y177089D01*
X207598Y177416D01*
X207549Y177423D01*
Y177500D01*
X207355Y178475D01*
X206802Y179302D01*
X201802Y184302D01*
X200975Y184855D01*
X200000Y185049D01*
D02*
G37*
G36*
X177000Y178030D02*
X173000D01*
X172086Y177910D01*
X171235Y177557D01*
X170504Y176996D01*
X169943Y176265D01*
X169590Y175414D01*
X169470Y174500D01*
Y170500D01*
X169590Y169586D01*
X169943Y168735D01*
X170504Y168004D01*
X171235Y167443D01*
X172086Y167090D01*
X173000Y166970D01*
X177000D01*
X177914Y167090D01*
X178765Y167443D01*
X179496Y168004D01*
X180057Y168735D01*
X180410Y169586D01*
X180530Y170500D01*
Y174500D01*
X180410Y175414D01*
X180057Y176265D01*
X179496Y176996D01*
X178765Y177557D01*
X177914Y177910D01*
X177000Y178030D01*
D02*
G37*
G36*
X157000D02*
X153000D01*
X152086Y177910D01*
X151235Y177557D01*
X150504Y176996D01*
X149943Y176265D01*
X149590Y175414D01*
X149470Y174500D01*
Y170500D01*
X149590Y169586D01*
X149943Y168735D01*
X150504Y168004D01*
X151235Y167443D01*
X152086Y167090D01*
X153000Y166970D01*
X157000D01*
X157914Y167090D01*
X158765Y167443D01*
X159496Y168004D01*
X160057Y168735D01*
X160410Y169586D01*
X160530Y170500D01*
Y174500D01*
X160410Y175414D01*
X160057Y176265D01*
X159496Y176996D01*
X158765Y177557D01*
X157914Y177910D01*
X157000Y178030D01*
D02*
G37*
G36*
X94250Y167528D02*
X90750D01*
X89902Y167416D01*
X89111Y167089D01*
X88432Y166568D01*
X87911Y165889D01*
X87584Y165098D01*
X87472Y164250D01*
Y160750D01*
X87584Y159902D01*
X87911Y159111D01*
X88432Y158432D01*
X89111Y157911D01*
X89902Y157584D01*
X90537Y157500D01*
Y156996D01*
X90032Y156929D01*
X89363Y156652D01*
X88789Y156211D01*
X88348Y155637D01*
X88071Y154968D01*
X87976Y154250D01*
Y153500D01*
X92500D01*
X97024D01*
Y154250D01*
X96929Y154968D01*
X96652Y155637D01*
X96211Y156211D01*
X95637Y156652D01*
X94968Y156929D01*
X94463Y156996D01*
Y157500D01*
X95098Y157584D01*
X95889Y157911D01*
X96568Y158432D01*
X97089Y159111D01*
X97416Y159902D01*
X97528Y160750D01*
Y164250D01*
X97416Y165098D01*
X97089Y165889D01*
X96568Y166568D01*
X95889Y167089D01*
X95098Y167416D01*
X94250Y167528D01*
D02*
G37*
G36*
X79250Y147528D02*
X75750D01*
X74902Y147416D01*
X74111Y147089D01*
X73432Y146568D01*
X72911Y145889D01*
X72584Y145098D01*
X72472Y144250D01*
Y140750D01*
X72584Y139902D01*
X72911Y139111D01*
X73432Y138432D01*
X74111Y137911D01*
X74902Y137584D01*
X75750Y137472D01*
X79250D01*
X80098Y137584D01*
X80889Y137911D01*
X81568Y138432D01*
X82089Y139111D01*
X82416Y139902D01*
X82528Y140750D01*
Y144250D01*
X82416Y145098D01*
X82089Y145889D01*
X81568Y146568D01*
X80889Y147089D01*
X80098Y147416D01*
X79250Y147528D01*
D02*
G37*
G36*
X177000Y148030D02*
X173000D01*
X172086Y147910D01*
X171235Y147557D01*
X170504Y146996D01*
X169943Y146265D01*
X169590Y145414D01*
X169470Y144500D01*
Y140500D01*
X169590Y139586D01*
X169943Y138735D01*
X170504Y138004D01*
X171235Y137443D01*
X172086Y137090D01*
X173000Y136970D01*
X177000D01*
X177914Y137090D01*
X178765Y137443D01*
X179496Y138004D01*
X180057Y138735D01*
X180410Y139586D01*
X180530Y140500D01*
Y144500D01*
X180410Y145414D01*
X180057Y146265D01*
X179496Y146996D01*
X178765Y147557D01*
X177914Y147910D01*
X177000Y148030D01*
D02*
G37*
G36*
X97024Y151500D02*
X93500D01*
Y147976D01*
X94250D01*
X94968Y148071D01*
X95637Y148348D01*
X96211Y148789D01*
X96652Y149363D01*
X96929Y150032D01*
X97024Y150750D01*
Y151500D01*
D02*
G37*
G36*
X91500D02*
X87976D01*
Y150750D01*
X88071Y150032D01*
X88348Y149363D01*
X88789Y148789D01*
X89363Y148348D01*
X90032Y148071D01*
X90750Y147976D01*
X91500D01*
Y151500D01*
D02*
G37*
G36*
X79250Y177528D02*
X75750D01*
X74902Y177416D01*
X74111Y177089D01*
X73432Y176568D01*
X72911Y175889D01*
X72584Y175098D01*
X72472Y174250D01*
Y170750D01*
X72584Y169902D01*
X72911Y169111D01*
X73432Y168432D01*
X74111Y167911D01*
X74902Y167584D01*
X75750Y167472D01*
X79250D01*
X80098Y167584D01*
X80889Y167911D01*
X81568Y168432D01*
X82089Y169111D01*
X82416Y169902D01*
X82528Y170750D01*
Y174250D01*
X82416Y175098D01*
X82089Y175889D01*
X81568Y176568D01*
X80889Y177089D01*
X80098Y177416D01*
X79250Y177528D01*
D02*
G37*
G36*
X177000Y208030D02*
X173000D01*
X172086Y207910D01*
X171235Y207557D01*
X170504Y206996D01*
X169943Y206265D01*
X169590Y205414D01*
X169470Y204500D01*
Y200500D01*
X169590Y199586D01*
X169943Y198735D01*
X170504Y198004D01*
X171235Y197443D01*
X172086Y197090D01*
X173000Y196970D01*
X177000D01*
X177914Y197090D01*
X178765Y197443D01*
X179496Y198004D01*
X180057Y198735D01*
X180410Y199586D01*
X180530Y200500D01*
Y204500D01*
X180410Y205414D01*
X180057Y206265D01*
X179496Y206996D01*
X178765Y207557D01*
X177914Y207910D01*
X177000Y208030D01*
D02*
G37*
G36*
X157000D02*
X153000D01*
X152086Y207910D01*
X151235Y207557D01*
X150504Y206996D01*
X149943Y206265D01*
X149590Y205414D01*
X149470Y204500D01*
Y200500D01*
X149590Y199586D01*
X149943Y198735D01*
X150504Y198004D01*
X151235Y197443D01*
X152086Y197090D01*
X153000Y196970D01*
X157000D01*
X157914Y197090D01*
X158765Y197443D01*
X159496Y198004D01*
X160057Y198735D01*
X160410Y199586D01*
X160530Y200500D01*
Y204500D01*
X160410Y205414D01*
X160057Y206265D01*
X159496Y206996D01*
X158765Y207557D01*
X157914Y207910D01*
X157000Y208030D01*
D02*
G37*
G36*
X91500Y211500D02*
X87976D01*
Y210750D01*
X88071Y210032D01*
X88348Y209363D01*
X88789Y208789D01*
X89363Y208348D01*
X90032Y208071D01*
X90750Y207976D01*
X91500D01*
Y211500D01*
D02*
G37*
G36*
X79250Y207528D02*
X75750D01*
X74902Y207416D01*
X74111Y207089D01*
X73432Y206568D01*
X72911Y205889D01*
X72584Y205098D01*
X72472Y204250D01*
Y200750D01*
X72584Y199902D01*
X72911Y199111D01*
X73432Y198432D01*
X74111Y197911D01*
X74902Y197584D01*
X75750Y197472D01*
X79250D01*
X80098Y197584D01*
X80889Y197911D01*
X81568Y198432D01*
X82089Y199111D01*
X82416Y199902D01*
X82528Y200750D01*
Y204250D01*
X82416Y205098D01*
X82089Y205889D01*
X81568Y206568D01*
X80889Y207089D01*
X80098Y207416D01*
X79250Y207528D01*
D02*
G37*
G36*
X137000Y208030D02*
X133000D01*
X132086Y207910D01*
X131235Y207557D01*
X130504Y206996D01*
X129943Y206265D01*
X129590Y205414D01*
X129470Y204500D01*
Y200500D01*
X129590Y199586D01*
X129943Y198735D01*
X130504Y198004D01*
X131235Y197443D01*
X132086Y197090D01*
X133000Y196970D01*
X137000D01*
X137914Y197090D01*
X138765Y197443D01*
X139496Y198004D01*
X140057Y198735D01*
X140410Y199586D01*
X140530Y200500D01*
Y204500D01*
X140410Y205414D01*
X140057Y206265D01*
X139496Y206996D01*
X138765Y207557D01*
X137914Y207910D01*
X137000Y208030D01*
D02*
G37*
G36*
X97024Y181500D02*
X93500D01*
Y177976D01*
X94250D01*
X94968Y178071D01*
X95637Y178348D01*
X96211Y178789D01*
X96652Y179363D01*
X96929Y180032D01*
X97024Y180750D01*
Y181500D01*
D02*
G37*
G36*
X91500D02*
X87976D01*
Y180750D01*
X88071Y180032D01*
X88348Y179363D01*
X88789Y178789D01*
X89363Y178348D01*
X90032Y178071D01*
X90750Y177976D01*
X91500D01*
Y181500D01*
D02*
G37*
G36*
X200000Y215049D02*
X117500D01*
X116525Y214855D01*
X115698Y214302D01*
X113198Y211802D01*
X112645Y210976D01*
X112451Y210000D01*
Y207958D01*
X112086Y207910D01*
X111235Y207557D01*
X110504Y206996D01*
X109943Y206265D01*
X109590Y205414D01*
X109470Y204500D01*
Y200500D01*
X109590Y199586D01*
X109943Y198735D01*
X110504Y198004D01*
X111235Y197443D01*
X112086Y197090D01*
X113000Y196970D01*
X117000D01*
X117914Y197090D01*
X118765Y197443D01*
X119496Y198004D01*
X120057Y198735D01*
X120410Y199586D01*
X120530Y200500D01*
Y204500D01*
X120410Y205414D01*
X120057Y206265D01*
X119496Y206996D01*
X118765Y207557D01*
X117914Y207910D01*
X117549Y207958D01*
Y208944D01*
X118556Y209951D01*
X198944D01*
X201388Y207507D01*
X201321Y206867D01*
X200932Y206568D01*
X200411Y205889D01*
X200084Y205098D01*
X199972Y204250D01*
Y200750D01*
X200084Y199902D01*
X200411Y199111D01*
X200932Y198432D01*
X201611Y197911D01*
X201950Y197771D01*
Y197229D01*
X201611Y197089D01*
X200932Y196568D01*
X200411Y195889D01*
X200084Y195098D01*
X199972Y194250D01*
Y190750D01*
X200084Y189902D01*
X200411Y189111D01*
X200932Y188432D01*
X201611Y187911D01*
X202402Y187584D01*
X203250Y187472D01*
X206750D01*
X207598Y187584D01*
X208389Y187911D01*
X209068Y188432D01*
X209589Y189111D01*
X209916Y189902D01*
X210028Y190750D01*
Y194250D01*
X209916Y195098D01*
X209589Y195889D01*
X209068Y196568D01*
X208389Y197089D01*
X208050Y197229D01*
Y197771D01*
X208389Y197911D01*
X209068Y198432D01*
X209589Y199111D01*
X209916Y199902D01*
X210028Y200750D01*
Y204250D01*
X209916Y205098D01*
X209589Y205889D01*
X209068Y206568D01*
X208389Y207089D01*
X207598Y207416D01*
X207549Y207423D01*
Y207500D01*
X207355Y208475D01*
X206802Y209302D01*
X201802Y214302D01*
X200975Y214855D01*
X200000Y215049D01*
D02*
G37*
G36*
X94250Y197528D02*
X90750D01*
X89902Y197416D01*
X89111Y197089D01*
X88432Y196568D01*
X87911Y195889D01*
X87584Y195098D01*
X87472Y194250D01*
Y190750D01*
X87584Y189902D01*
X87911Y189111D01*
X88432Y188432D01*
X89111Y187911D01*
X89902Y187584D01*
X90537Y187500D01*
Y186996D01*
X90032Y186929D01*
X89363Y186652D01*
X88789Y186211D01*
X88348Y185637D01*
X88071Y184968D01*
X87976Y184250D01*
Y183500D01*
X92500D01*
X97024D01*
Y184250D01*
X96929Y184968D01*
X96652Y185637D01*
X96211Y186211D01*
X95637Y186652D01*
X94968Y186929D01*
X94463Y186996D01*
Y187500D01*
X95098Y187584D01*
X95889Y187911D01*
X96568Y188432D01*
X97089Y189111D01*
X97416Y189902D01*
X97528Y190750D01*
Y194250D01*
X97416Y195098D01*
X97089Y195889D01*
X96568Y196568D01*
X95889Y197089D01*
X95098Y197416D01*
X94250Y197528D01*
D02*
G37*
%LPD*%
D10*
X115000Y202500D02*
Y210000D01*
X117500Y212500D01*
X115000Y172500D02*
Y180000D01*
X117500Y182500D01*
X115000Y142500D02*
Y150000D01*
X117500Y152500D01*
X115000Y112500D02*
Y120000D01*
X117500Y122500D01*
X115000Y82500D02*
Y90000D01*
X117500Y92500D01*
X115000Y52500D02*
Y60000D01*
X117500Y62500D01*
X200000D01*
X205000Y57500D01*
Y52500D02*
Y57500D01*
X117500Y92500D02*
X200000D01*
X205000Y87500D01*
Y82500D02*
Y87500D01*
X117500Y122500D02*
X200000D01*
X205000Y117500D01*
Y112500D02*
Y117500D01*
X117500Y152500D02*
X200000D01*
X205000Y147500D01*
Y142500D02*
Y147500D01*
X117500Y182500D02*
X200000D01*
X205000Y177500D01*
Y172500D02*
Y177500D01*
X117500Y212500D02*
X200000D01*
X205000Y207500D01*
Y202500D02*
Y207500D01*
X160000Y277500D02*
X170000Y267500D01*
X160000Y227500D02*
X170000Y237500D01*
X127500Y250000D02*
X170000D01*
Y237500D02*
Y250000D01*
Y267500D01*
D11*
X110000Y227500D02*
D03*
Y257500D02*
D03*
X150000Y227500D02*
D03*
X160000D02*
D03*
X150000Y257500D02*
D03*
X160000D02*
D03*
X110000Y277500D02*
D03*
Y307500D02*
D03*
X150000Y277500D02*
D03*
X160000D02*
D03*
X150000Y307500D02*
D03*
X160000D02*
D03*
X25000Y105000D02*
D03*
X55000D02*
D03*
X25000Y115000D02*
D03*
X55000D02*
D03*
X25000Y125000D02*
D03*
X55000D02*
D03*
X25000Y135000D02*
D03*
X55000D02*
D03*
X25000Y145000D02*
D03*
X55000D02*
D03*
X25000Y155000D02*
D03*
X55000D02*
D03*
X115000Y52500D02*
D03*
X135000D02*
D03*
X155000D02*
D03*
X175000D02*
D03*
X115000Y142500D02*
D03*
X135000D02*
D03*
X155000D02*
D03*
X175000D02*
D03*
X115000Y172500D02*
D03*
X135000D02*
D03*
X155000D02*
D03*
X175000D02*
D03*
X115000Y112500D02*
D03*
X135000D02*
D03*
X155000D02*
D03*
X175000D02*
D03*
X115000Y202500D02*
D03*
X135000D02*
D03*
X155000D02*
D03*
X175000D02*
D03*
X115000Y82500D02*
D03*
X135000D02*
D03*
X155000D02*
D03*
X175000D02*
D03*
X55000Y262500D02*
D03*
X25000D02*
D03*
X55000Y272500D02*
D03*
X25000D02*
D03*
D12*
X10000D02*
D03*
Y262500D02*
D03*
X92500Y192500D02*
D03*
Y212500D02*
D03*
X77500Y202500D02*
D03*
X92500Y162500D02*
D03*
Y182500D02*
D03*
X77500Y172500D02*
D03*
X92500Y132500D02*
D03*
Y152500D02*
D03*
X77500Y142500D02*
D03*
X92500Y102500D02*
D03*
Y122500D02*
D03*
X77500Y112500D02*
D03*
X92500Y72500D02*
D03*
Y92500D02*
D03*
X77500Y82500D02*
D03*
X92500Y42500D02*
D03*
Y62500D02*
D03*
X77500Y52500D02*
D03*
X205000D02*
D03*
Y42500D02*
D03*
Y82500D02*
D03*
Y72500D02*
D03*
Y112500D02*
D03*
Y102500D02*
D03*
Y142500D02*
D03*
Y132500D02*
D03*
Y172500D02*
D03*
Y162500D02*
D03*
Y202500D02*
D03*
Y192500D02*
D03*
D13*
X10000Y105000D02*
D03*
Y115000D02*
D03*
Y125000D02*
D03*
Y135000D02*
D03*
Y145000D02*
D03*
Y155000D02*
D03*
X205000Y252500D02*
D03*
Y262500D02*
D03*
Y272500D02*
D03*
Y282500D02*
D03*
D14*
X152500Y15000D02*
D03*
X172500D02*
D03*
X112500D02*
D03*
X132500D02*
D03*
D15*
X15000D02*
D03*
X222500D02*
D03*
Y307500D02*
D03*
X15000D02*
D03*
D16*
X127500Y250000D02*
D03*
X17500Y205000D02*
D03*
Y185000D02*
D03*
Y52500D02*
D03*
Y42500D02*
D03*
X227500Y257500D02*
D03*
Y237500D02*
D03*
Y92500D02*
D03*
Y65000D02*
D03*
X82500Y267500D02*
D03*
M02*
