G04 Layer_Color=128*
%FSLAX25Y25*%
%MOIN*%
G70*
G01*
G75*
%ADD24C,0.00200*%
D24*
X108425Y227500D02*
X111575D01*
X110000Y225925D02*
Y229075D01*
X108425Y257500D02*
X111575D01*
X110000Y255925D02*
Y259075D01*
X148425Y227500D02*
X151575D01*
X150000Y225925D02*
Y229075D01*
X158425Y227500D02*
X161575D01*
X160000Y225925D02*
Y229075D01*
X148425Y257500D02*
X151575D01*
X150000Y255925D02*
Y259075D01*
X158425Y257500D02*
X161575D01*
X160000Y255925D02*
Y259075D01*
X8032Y272500D02*
X11969D01*
X10000Y270532D02*
Y274468D01*
X8032Y262500D02*
X11969D01*
X10000Y260531D02*
Y264469D01*
X8032Y105000D02*
X11969D01*
X10000Y103032D02*
Y106968D01*
X8032Y115000D02*
X11969D01*
X10000Y113031D02*
Y116969D01*
X8032Y125000D02*
X11969D01*
X10000Y123031D02*
Y126969D01*
X8032Y135000D02*
X11969D01*
X10000Y133031D02*
Y136969D01*
X8032Y145000D02*
X11969D01*
X10000Y143032D02*
Y146968D01*
X8032Y155000D02*
X11969D01*
X10000Y153032D02*
Y156968D01*
X108425Y277500D02*
X111575D01*
X110000Y275925D02*
Y279075D01*
X108425Y307500D02*
X111575D01*
X110000Y305925D02*
Y309075D01*
X148425Y277500D02*
X151575D01*
X150000Y275925D02*
Y279075D01*
X158425Y277500D02*
X161575D01*
X160000Y275925D02*
Y279075D01*
X148425Y307500D02*
X151575D01*
X150000Y305925D02*
Y309075D01*
X158425Y307500D02*
X161575D01*
X160000Y305925D02*
Y309075D01*
X23425Y105000D02*
X26575D01*
X25000Y103425D02*
Y106575D01*
X53425Y105000D02*
X56575D01*
X55000Y103425D02*
Y106575D01*
X23425Y115000D02*
X26575D01*
X25000Y113425D02*
Y116575D01*
X53425Y115000D02*
X56575D01*
X55000Y113425D02*
Y116575D01*
X23425Y125000D02*
X26575D01*
X25000Y123425D02*
Y126575D01*
X53425Y125000D02*
X56575D01*
X55000Y123425D02*
Y126575D01*
X23425Y135000D02*
X26575D01*
X25000Y133425D02*
Y136575D01*
X53425Y135000D02*
X56575D01*
X55000Y133425D02*
Y136575D01*
X23425Y145000D02*
X26575D01*
X25000Y143425D02*
Y146575D01*
X53425Y145000D02*
X56575D01*
X55000Y143425D02*
Y146575D01*
X23425Y155000D02*
X26575D01*
X25000Y153425D02*
Y156575D01*
X53425Y155000D02*
X56575D01*
X55000Y153425D02*
Y156575D01*
X90925Y192500D02*
X94075D01*
X92500Y190925D02*
Y194075D01*
X90925Y212500D02*
X94075D01*
X92500Y210925D02*
Y214075D01*
X75925Y202500D02*
X79075D01*
X77500Y200925D02*
Y204075D01*
X90925Y162500D02*
X94075D01*
X92500Y160925D02*
Y164075D01*
X90925Y182500D02*
X94075D01*
X92500Y180925D02*
Y184075D01*
X75925Y172500D02*
X79075D01*
X77500Y170925D02*
Y174075D01*
X90925Y132500D02*
X94075D01*
X92500Y130925D02*
Y134075D01*
X90925Y152500D02*
X94075D01*
X92500Y150925D02*
Y154075D01*
X75925Y142500D02*
X79075D01*
X77500Y140925D02*
Y144075D01*
X90925Y102500D02*
X94075D01*
X92500Y100925D02*
Y104075D01*
X90925Y122500D02*
X94075D01*
X92500Y120925D02*
Y124075D01*
X75925Y112500D02*
X79075D01*
X77500Y110925D02*
Y114075D01*
X90925Y72500D02*
X94075D01*
X92500Y70925D02*
Y74075D01*
X90925Y92500D02*
X94075D01*
X92500Y90925D02*
Y94075D01*
X75925Y82500D02*
X79075D01*
X77500Y80925D02*
Y84075D01*
X90925Y42500D02*
X94075D01*
X92500Y40925D02*
Y44075D01*
X90925Y62500D02*
X94075D01*
X92500Y60925D02*
Y64075D01*
X75925Y52500D02*
X79075D01*
X77500Y50925D02*
Y54075D01*
X113425Y52500D02*
X116575D01*
X115000Y50925D02*
Y54075D01*
X133425Y52500D02*
X136575D01*
X135000Y50925D02*
Y54075D01*
X153425Y52500D02*
X156575D01*
X155000Y50925D02*
Y54075D01*
X173425Y52500D02*
X176575D01*
X175000Y50925D02*
Y54075D01*
X113425Y142500D02*
X116575D01*
X115000Y140925D02*
Y144075D01*
X133425Y142500D02*
X136575D01*
X135000Y140925D02*
Y144075D01*
X153425Y142500D02*
X156575D01*
X155000Y140925D02*
Y144075D01*
X173425Y142500D02*
X176575D01*
X175000Y140925D02*
Y144075D01*
X113425Y172500D02*
X116575D01*
X115000Y170925D02*
Y174075D01*
X133425Y172500D02*
X136575D01*
X135000Y170925D02*
Y174075D01*
X153425Y172500D02*
X156575D01*
X155000Y170925D02*
Y174075D01*
X173425Y172500D02*
X176575D01*
X175000Y170925D02*
Y174075D01*
X113425Y112500D02*
X116575D01*
X115000Y110925D02*
Y114075D01*
X133425Y112500D02*
X136575D01*
X135000Y110925D02*
Y114075D01*
X153425Y112500D02*
X156575D01*
X155000Y110925D02*
Y114075D01*
X173425Y112500D02*
X176575D01*
X175000Y110925D02*
Y114075D01*
X113425Y202500D02*
X116575D01*
X115000Y200925D02*
Y204075D01*
X133425Y202500D02*
X136575D01*
X135000Y200925D02*
Y204075D01*
X153425Y202500D02*
X156575D01*
X155000Y200925D02*
Y204075D01*
X173425Y202500D02*
X176575D01*
X175000Y200925D02*
Y204075D01*
X113425Y82500D02*
X116575D01*
X115000Y80925D02*
Y84075D01*
X133425Y82500D02*
X136575D01*
X135000Y80925D02*
Y84075D01*
X153425Y82500D02*
X156575D01*
X155000Y80925D02*
Y84075D01*
X173425Y82500D02*
X176575D01*
X175000Y80925D02*
Y84075D01*
X203031Y52500D02*
X206968D01*
X205000Y50532D02*
Y54469D01*
X203031Y42500D02*
X206968D01*
X205000Y40532D02*
Y44469D01*
X203031Y82500D02*
X206968D01*
X205000Y80532D02*
Y84469D01*
X203031Y72500D02*
X206968D01*
X205000Y70531D02*
Y74468D01*
X203031Y112500D02*
X206968D01*
X205000Y110531D02*
Y114469D01*
X203031Y102500D02*
X206968D01*
X205000Y100531D02*
Y104469D01*
X203031Y142500D02*
X206968D01*
X205000Y140532D02*
Y144468D01*
X203031Y132500D02*
X206968D01*
X205000Y130532D02*
Y134468D01*
X203031Y172500D02*
X206968D01*
X205000Y170531D02*
Y174469D01*
X203031Y162500D02*
X206968D01*
X205000Y160531D02*
Y164469D01*
X203031Y202500D02*
X206968D01*
X205000Y200532D02*
Y204468D01*
X203031Y192500D02*
X206968D01*
X205000Y190532D02*
Y194468D01*
X150335Y15000D02*
X154665D01*
X152500Y12835D02*
Y17165D01*
X170335Y15000D02*
X174665D01*
X172500Y12835D02*
Y17165D01*
X110335Y15000D02*
X114665D01*
X112500Y12835D02*
Y17165D01*
X130335Y15000D02*
X134665D01*
X132500Y12835D02*
Y17165D01*
X53425Y262500D02*
X56575D01*
X55000Y260925D02*
Y264075D01*
X23425Y262500D02*
X26575D01*
X25000Y260925D02*
Y264075D01*
X53425Y272500D02*
X56575D01*
X55000Y270925D02*
Y274075D01*
X23425Y272500D02*
X26575D01*
X25000Y270925D02*
Y274075D01*
X203031Y252500D02*
X206968D01*
X205000Y250532D02*
Y254468D01*
X203031Y262500D02*
X206968D01*
X205000Y260531D02*
Y264469D01*
X203031Y272500D02*
X206968D01*
X205000Y270532D02*
Y274468D01*
X203031Y282500D02*
X206968D01*
X205000Y280532D02*
Y284469D01*
X9094Y15000D02*
X20906D01*
X15000Y9094D02*
Y20906D01*
X216595Y15000D02*
X228405D01*
X222500Y9094D02*
Y20906D01*
X216595Y307500D02*
X228405D01*
X222500Y301594D02*
Y313405D01*
X9094Y307500D02*
X20906D01*
X15000Y301594D02*
Y313405D01*
X126100Y250000D02*
X128900D01*
X127500Y248600D02*
Y251400D01*
X16100Y205000D02*
X18900D01*
X17500Y203600D02*
Y206400D01*
X16100Y185000D02*
X18900D01*
X17500Y183600D02*
Y186400D01*
X16100Y52500D02*
X18900D01*
X17500Y51100D02*
Y53900D01*
X16100Y42500D02*
X18900D01*
X17500Y41100D02*
Y43900D01*
X226100Y257500D02*
X228900D01*
X227500Y256100D02*
Y258900D01*
X226100Y237500D02*
X228900D01*
X227500Y236100D02*
Y238900D01*
X226100Y92500D02*
X228900D01*
X227500Y91100D02*
Y93900D01*
X226100Y65000D02*
X228900D01*
X227500Y63600D02*
Y66400D01*
X81100Y267500D02*
X83900D01*
X82500Y266100D02*
Y268900D01*
M02*
