M48
;Layer_Color=9474304
;FILE_FORMAT=4:4
METRIC,LZ
;TYPE=PLATED
T1F00S00C0.7112
T2F00S00C0.8000
T3F00S00C1.0000
T4F00S00C1.1000
T5F00S00C3.0000
%
T01
X0004445Y0010795
Y0013335
X0057785Y001651
Y0023495
X0004445Y004699
Y005207
X0020955Y0067945
X0032385Y00635
X0057785Y0065405
Y0060325
T02
X0019685Y0013335
X0023495Y0010795
X002921Y0013335
X003429
X003937
X004445
Y0020955
X003937
X003429
X002921
Y0028575
X003429
X003937
X004445
Y0036195
X003937
X003429
X002921
Y0043815
X003429
X003937
X004445
Y0051435
X003937
X003429
X002921
X0023495Y0048895
Y0046355
Y0041275
Y0038735
Y0033655
Y0031115
Y0026035
Y0023495
Y0018415
Y0015875
X0019685Y0020955
Y0028575
Y0036195
Y0043815
Y0051435
X001397Y003937
Y003683
Y003429
Y003175
Y002921
Y002667
X000635
Y002921
Y003175
Y003429
Y003683
Y003937
Y0066675
Y0069215
X001397
Y0066675
X002794Y0065405
Y0070485
Y0078105
X00381
X004064
Y0070485
X00381
Y0065405
X004064
Y0057785
X00381
X002794
X0023495Y0053975
T03
X005207Y0010795
Y0013335
Y0018415
Y0020955
Y0026035
Y0028575
Y0033655
Y0036195
Y0041275
Y0043815
Y0048895
Y0051435
X000254Y003937
Y003683
Y003429
Y003175
Y002921
Y002667
Y0066675
Y0069215
X005207
Y0071755
Y0066675
Y0064135
T04
X0028575Y000381
X0033655
X0038735
X0043815
T05
X000381Y000381
X0056515
X000381Y0078105
X0056515
M30
