G04 Layer_Color=2752767*
%FSLAX25Y25*%
%MOIN*%
G70*
G01*
G75*
%ADD24C,0.00200*%
%ADD25C,0.00267*%
D24*
X109200Y226700D02*
Y228300D01*
X110800D01*
Y226700D01*
X109200D01*
Y256700D02*
Y258300D01*
X110800D01*
Y256700D01*
X109200D01*
X149200Y226700D02*
Y228300D01*
X150800D01*
Y226700D01*
X149200D01*
X159200D02*
Y228300D01*
X160800D01*
Y226700D01*
X159200D01*
X149200Y256700D02*
Y258300D01*
X150800D01*
Y256700D01*
X149200D01*
X159200D02*
Y258300D01*
X160800D01*
Y256700D01*
X159200D01*
X109200Y276700D02*
Y278300D01*
X110800D01*
Y276700D01*
X109200D01*
Y306700D02*
Y308300D01*
X110800D01*
Y306700D01*
X109200D01*
X149200Y276700D02*
Y278300D01*
X150800D01*
Y276700D01*
X149200D01*
X159200D02*
Y278300D01*
X160800D01*
Y276700D01*
X159200D01*
X149200Y306700D02*
Y308300D01*
X150800D01*
Y306700D01*
X149200D01*
X159200D02*
Y308300D01*
X160800D01*
Y306700D01*
X159200D01*
X24200Y104200D02*
Y105800D01*
X25800D01*
Y104200D01*
X24200D01*
X54200D02*
Y105800D01*
X55800D01*
Y104200D01*
X54200D01*
X24200Y114200D02*
Y115800D01*
X25800D01*
Y114200D01*
X24200D01*
X54200D02*
Y115800D01*
X55800D01*
Y114200D01*
X54200D01*
X24200Y124200D02*
Y125800D01*
X25800D01*
Y124200D01*
X24200D01*
X54200D02*
Y125800D01*
X55800D01*
Y124200D01*
X54200D01*
X24200Y134200D02*
Y135800D01*
X25800D01*
Y134200D01*
X24200D01*
X54200D02*
Y135800D01*
X55800D01*
Y134200D01*
X54200D01*
X24200Y144200D02*
Y145800D01*
X25800D01*
Y144200D01*
X24200D01*
X54200D02*
Y145800D01*
X55800D01*
Y144200D01*
X54200D01*
X24200Y154200D02*
Y155800D01*
X25800D01*
Y154200D01*
X24200D01*
X54200D02*
Y155800D01*
X55800D01*
Y154200D01*
X54200D01*
X91700Y191700D02*
Y193300D01*
X93300D01*
Y191700D01*
X91700D01*
Y211700D02*
Y213300D01*
X93300D01*
Y211700D01*
X91700D01*
X76700Y201700D02*
Y203300D01*
X78300D01*
Y201700D01*
X76700D01*
X91700Y161700D02*
Y163300D01*
X93300D01*
Y161700D01*
X91700D01*
Y181700D02*
Y183300D01*
X93300D01*
Y181700D01*
X91700D01*
X76700Y171700D02*
Y173300D01*
X78300D01*
Y171700D01*
X76700D01*
X91700Y131700D02*
Y133300D01*
X93300D01*
Y131700D01*
X91700D01*
Y151700D02*
Y153300D01*
X93300D01*
Y151700D01*
X91700D01*
X76700Y141700D02*
Y143300D01*
X78300D01*
Y141700D01*
X76700D01*
X91700Y101700D02*
Y103300D01*
X93300D01*
Y101700D01*
X91700D01*
Y121700D02*
Y123300D01*
X93300D01*
Y121700D01*
X91700D01*
X76700Y111700D02*
Y113300D01*
X78300D01*
Y111700D01*
X76700D01*
X91700Y71700D02*
Y73300D01*
X93300D01*
Y71700D01*
X91700D01*
Y91700D02*
Y93300D01*
X93300D01*
Y91700D01*
X91700D01*
X76700Y81700D02*
Y83300D01*
X78300D01*
Y81700D01*
X76700D01*
X91700Y41700D02*
Y43300D01*
X93300D01*
Y41700D01*
X91700D01*
Y61700D02*
Y63300D01*
X93300D01*
Y61700D01*
X91700D01*
X76700Y51700D02*
Y53300D01*
X78300D01*
Y51700D01*
X76700D01*
X114200D02*
Y53300D01*
X115800D01*
Y51700D01*
X114200D01*
X134200D02*
Y53300D01*
X135800D01*
Y51700D01*
X134200D01*
X154200D02*
Y53300D01*
X155800D01*
Y51700D01*
X154200D01*
X174200D02*
Y53300D01*
X175800D01*
Y51700D01*
X174200D01*
X114200Y141700D02*
Y143300D01*
X115800D01*
Y141700D01*
X114200D01*
X134200D02*
Y143300D01*
X135800D01*
Y141700D01*
X134200D01*
X154200D02*
Y143300D01*
X155800D01*
Y141700D01*
X154200D01*
X174200D02*
Y143300D01*
X175800D01*
Y141700D01*
X174200D01*
X114200Y171700D02*
Y173300D01*
X115800D01*
Y171700D01*
X114200D01*
X134200D02*
Y173300D01*
X135800D01*
Y171700D01*
X134200D01*
X154200D02*
Y173300D01*
X155800D01*
Y171700D01*
X154200D01*
X174200D02*
Y173300D01*
X175800D01*
Y171700D01*
X174200D01*
X114200Y111700D02*
Y113300D01*
X115800D01*
Y111700D01*
X114200D01*
X134200D02*
Y113300D01*
X135800D01*
Y111700D01*
X134200D01*
X154200D02*
Y113300D01*
X155800D01*
Y111700D01*
X154200D01*
X174200D02*
Y113300D01*
X175800D01*
Y111700D01*
X174200D01*
X114200Y201700D02*
Y203300D01*
X115800D01*
Y201700D01*
X114200D01*
X134200D02*
Y203300D01*
X135800D01*
Y201700D01*
X134200D01*
X154200D02*
Y203300D01*
X155800D01*
Y201700D01*
X154200D01*
X174200D02*
Y203300D01*
X175800D01*
Y201700D01*
X174200D01*
X114200Y81700D02*
Y83300D01*
X115800D01*
Y81700D01*
X114200D01*
X134200D02*
Y83300D01*
X135800D01*
Y81700D01*
X134200D01*
X154200D02*
Y83300D01*
X155800D01*
Y81700D01*
X154200D01*
X174200D02*
Y83300D01*
X175800D01*
Y81700D01*
X174200D01*
X152500Y14200D02*
X151700Y15800D01*
X153300D01*
X152500Y14200D01*
X172500D02*
X171700Y15800D01*
X173300D01*
X172500Y14200D01*
X112500D02*
X111700Y15800D01*
X113300D01*
X112500Y14200D01*
X132500D02*
X131700Y15800D01*
X133300D01*
X132500Y14200D01*
X54200Y261700D02*
Y263300D01*
X55800D01*
Y261700D01*
X54200D01*
X24200D02*
Y263300D01*
X25800D01*
Y261700D01*
X24200D01*
X54200Y271700D02*
Y273300D01*
X55800D01*
Y271700D01*
X54200D01*
X24200D02*
Y273300D01*
X25800D01*
Y271700D01*
X24200D01*
X15000Y14200D02*
X15400Y14600D01*
X15800D01*
X15400Y15000D01*
X15800Y15400D01*
X15400D01*
X15000Y15800D01*
X14600Y15400D01*
X14200D01*
X14600Y15000D01*
X14200Y14600D01*
X14600D01*
X15000Y14200D01*
X222500D02*
X222900Y14600D01*
X223300D01*
X222900Y15000D01*
X223300Y15400D01*
X222900D01*
X222500Y15800D01*
X222100Y15400D01*
X221700D01*
X222100Y15000D01*
X221700Y14600D01*
X222100D01*
X222500Y14200D01*
Y306700D02*
X222900Y307100D01*
X223300D01*
X222900Y307500D01*
X223300Y307900D01*
X222900D01*
X222500Y308300D01*
X222100Y307900D01*
X221700D01*
X222100Y307500D01*
X221700Y307100D01*
X222100D01*
X222500Y306700D01*
X15000D02*
X15400Y307100D01*
X15800D01*
X15400Y307500D01*
X15800Y307900D01*
X15400D01*
X15000Y308300D01*
X14600Y307900D01*
X14200D01*
X14600Y307500D01*
X14200Y307100D01*
X14600D01*
X15000Y306700D01*
X126700Y249200D02*
X127100Y250000D01*
X126700Y250800D01*
X127500Y250400D01*
X128300Y250800D01*
X127900Y250000D01*
X128300Y249200D01*
X127500Y249600D01*
X126700Y249200D01*
X16700Y204200D02*
X17100Y205000D01*
X16700Y205800D01*
X17500Y205400D01*
X18300Y205800D01*
X17900Y205000D01*
X18300Y204200D01*
X17500Y204600D01*
X16700Y204200D01*
Y184200D02*
X17100Y185000D01*
X16700Y185800D01*
X17500Y185400D01*
X18300Y185800D01*
X17900Y185000D01*
X18300Y184200D01*
X17500Y184600D01*
X16700Y184200D01*
Y51700D02*
X17100Y52500D01*
X16700Y53300D01*
X17500Y52900D01*
X18300Y53300D01*
X17900Y52500D01*
X18300Y51700D01*
X17500Y52100D01*
X16700Y51700D01*
Y41700D02*
X17100Y42500D01*
X16700Y43300D01*
X17500Y42900D01*
X18300Y43300D01*
X17900Y42500D01*
X18300Y41700D01*
X17500Y42100D01*
X16700Y41700D01*
X226700Y256700D02*
X227100Y257500D01*
X226700Y258300D01*
X227500Y257900D01*
X228300Y258300D01*
X227900Y257500D01*
X228300Y256700D01*
X227500Y257100D01*
X226700Y256700D01*
Y236700D02*
X227100Y237500D01*
X226700Y238300D01*
X227500Y237900D01*
X228300Y238300D01*
X227900Y237500D01*
X228300Y236700D01*
X227500Y237100D01*
X226700Y236700D01*
Y91700D02*
X227100Y92500D01*
X226700Y93300D01*
X227500Y92900D01*
X228300Y93300D01*
X227900Y92500D01*
X228300Y91700D01*
X227500Y92100D01*
X226700Y91700D01*
Y64200D02*
X227100Y65000D01*
X226700Y65800D01*
X227500Y65400D01*
X228300Y65800D01*
X227900Y65000D01*
X228300Y64200D01*
X227500Y64600D01*
X226700Y64200D01*
X81700Y266700D02*
X82100Y267500D01*
X81700Y268300D01*
X82500Y267900D01*
X83300Y268300D01*
X82900Y267500D01*
X83300Y266700D01*
X82500Y267100D01*
X81700Y266700D01*
D25*
X10800Y272500D02*
G03*
X10800Y272500I-800J0D01*
G01*
Y262500D02*
G03*
X10800Y262500I-800J0D01*
G01*
Y105000D02*
G03*
X10800Y105000I-800J0D01*
G01*
Y115000D02*
G03*
X10800Y115000I-800J0D01*
G01*
Y125000D02*
G03*
X10800Y125000I-800J0D01*
G01*
Y135000D02*
G03*
X10800Y135000I-800J0D01*
G01*
Y145000D02*
G03*
X10800Y145000I-800J0D01*
G01*
Y155000D02*
G03*
X10800Y155000I-800J0D01*
G01*
X205800Y52500D02*
G03*
X205800Y52500I-800J0D01*
G01*
Y42500D02*
G03*
X205800Y42500I-800J0D01*
G01*
Y82500D02*
G03*
X205800Y82500I-800J0D01*
G01*
Y72500D02*
G03*
X205800Y72500I-800J0D01*
G01*
Y112500D02*
G03*
X205800Y112500I-800J0D01*
G01*
Y102500D02*
G03*
X205800Y102500I-800J0D01*
G01*
Y142500D02*
G03*
X205800Y142500I-800J0D01*
G01*
Y132500D02*
G03*
X205800Y132500I-800J0D01*
G01*
Y172500D02*
G03*
X205800Y172500I-800J0D01*
G01*
Y162500D02*
G03*
X205800Y162500I-800J0D01*
G01*
Y202500D02*
G03*
X205800Y202500I-800J0D01*
G01*
Y192500D02*
G03*
X205800Y192500I-800J0D01*
G01*
Y252500D02*
G03*
X205800Y252500I-800J0D01*
G01*
Y262500D02*
G03*
X205800Y262500I-800J0D01*
G01*
Y272500D02*
G03*
X205800Y272500I-800J0D01*
G01*
Y282500D02*
G03*
X205800Y282500I-800J0D01*
G01*
M02*
