G04 Layer_Color=8388736*
%FSLAX25Y25*%
%MOIN*%
G70*
G01*
G75*
G04:AMPARAMS|DCode=18|XSize=88mil|YSize=88mil|CornerRadius=24mil|HoleSize=0mil|Usage=FLASHONLY|Rotation=180.000|XOffset=0mil|YOffset=0mil|HoleType=Round|Shape=RoundedRectangle|*
%AMROUNDEDRECTD18*
21,1,0.08800,0.04000,0,0,180.0*
21,1,0.04000,0.08800,0,0,180.0*
1,1,0.04800,-0.02000,0.02000*
1,1,0.04800,0.02000,0.02000*
1,1,0.04800,0.02000,-0.02000*
1,1,0.04800,-0.02000,-0.02000*
%
%ADD18ROUNDEDRECTD18*%
G04:AMPARAMS|DCode=19|XSize=78mil|YSize=78mil|CornerRadius=21.5mil|HoleSize=0mil|Usage=FLASHONLY|Rotation=90.000|XOffset=0mil|YOffset=0mil|HoleType=Round|Shape=RoundedRectangle|*
%AMROUNDEDRECTD19*
21,1,0.07800,0.03500,0,0,90.0*
21,1,0.03500,0.07800,0,0,90.0*
1,1,0.04300,0.01750,0.01750*
1,1,0.04300,0.01750,-0.01750*
1,1,0.04300,-0.01750,-0.01750*
1,1,0.04300,-0.01750,0.01750*
%
%ADD19ROUNDEDRECTD19*%
G04:AMPARAMS|DCode=20|XSize=88mil|YSize=88mil|CornerRadius=24mil|HoleSize=0mil|Usage=FLASHONLY|Rotation=270.000|XOffset=0mil|YOffset=0mil|HoleType=Round|Shape=RoundedRectangle|*
%AMROUNDEDRECTD20*
21,1,0.08800,0.04000,0,0,270.0*
21,1,0.04000,0.08800,0,0,270.0*
1,1,0.04800,-0.02000,-0.02000*
1,1,0.04800,-0.02000,0.02000*
1,1,0.04800,0.02000,0.02000*
1,1,0.04800,0.02000,-0.02000*
%
%ADD20ROUNDEDRECTD20*%
G04:AMPARAMS|DCode=21|XSize=108mil|YSize=108mil|CornerRadius=29mil|HoleSize=0mil|Usage=FLASHONLY|Rotation=180.000|XOffset=0mil|YOffset=0mil|HoleType=Round|Shape=RoundedRectangle|*
%AMROUNDEDRECTD21*
21,1,0.10800,0.05000,0,0,180.0*
21,1,0.05000,0.10800,0,0,180.0*
1,1,0.05800,-0.02500,0.02500*
1,1,0.05800,0.02500,0.02500*
1,1,0.05800,0.02500,-0.02500*
1,1,0.05800,-0.02500,-0.02500*
%
%ADD21ROUNDEDRECTD21*%
%ADD22P,0.22173X8X22.5*%
%ADD23C,0.05800*%
D18*
X110000Y227500D02*
D03*
Y257500D02*
D03*
X150000Y227500D02*
D03*
X160000D02*
D03*
X150000Y257500D02*
D03*
X160000D02*
D03*
X110000Y277500D02*
D03*
Y307500D02*
D03*
X150000Y277500D02*
D03*
X160000D02*
D03*
X150000Y307500D02*
D03*
X160000D02*
D03*
X25000Y105000D02*
D03*
X55000D02*
D03*
X25000Y115000D02*
D03*
X55000D02*
D03*
X25000Y125000D02*
D03*
X55000D02*
D03*
X25000Y135000D02*
D03*
X55000D02*
D03*
X25000Y145000D02*
D03*
X55000D02*
D03*
X25000Y155000D02*
D03*
X55000D02*
D03*
X115000Y52500D02*
D03*
X135000D02*
D03*
X155000D02*
D03*
X175000D02*
D03*
X115000Y142500D02*
D03*
X135000D02*
D03*
X155000D02*
D03*
X175000D02*
D03*
X115000Y172500D02*
D03*
X135000D02*
D03*
X155000D02*
D03*
X175000D02*
D03*
X115000Y112500D02*
D03*
X135000D02*
D03*
X155000D02*
D03*
X175000D02*
D03*
X115000Y202500D02*
D03*
X135000D02*
D03*
X155000D02*
D03*
X175000D02*
D03*
X115000Y82500D02*
D03*
X135000D02*
D03*
X155000D02*
D03*
X175000D02*
D03*
X55000Y262500D02*
D03*
X25000D02*
D03*
X55000Y272500D02*
D03*
X25000D02*
D03*
D19*
X10000D02*
D03*
Y262500D02*
D03*
X92500Y192500D02*
D03*
Y212500D02*
D03*
X77500Y202500D02*
D03*
X92500Y162500D02*
D03*
Y182500D02*
D03*
X77500Y172500D02*
D03*
X92500Y132500D02*
D03*
Y152500D02*
D03*
X77500Y142500D02*
D03*
X92500Y102500D02*
D03*
Y122500D02*
D03*
X77500Y112500D02*
D03*
X92500Y72500D02*
D03*
Y92500D02*
D03*
X77500Y82500D02*
D03*
X92500Y42500D02*
D03*
Y62500D02*
D03*
X77500Y52500D02*
D03*
X205000D02*
D03*
Y42500D02*
D03*
Y82500D02*
D03*
Y72500D02*
D03*
Y112500D02*
D03*
Y102500D02*
D03*
Y142500D02*
D03*
Y132500D02*
D03*
Y172500D02*
D03*
Y162500D02*
D03*
Y202500D02*
D03*
Y192500D02*
D03*
D20*
X10000Y105000D02*
D03*
Y115000D02*
D03*
Y125000D02*
D03*
Y135000D02*
D03*
Y145000D02*
D03*
Y155000D02*
D03*
X205000Y252500D02*
D03*
Y262500D02*
D03*
Y272500D02*
D03*
Y282500D02*
D03*
D21*
X152500Y15000D02*
D03*
X172500D02*
D03*
X112500D02*
D03*
X132500D02*
D03*
D22*
X15000D02*
D03*
X222500D02*
D03*
Y307500D02*
D03*
X15000D02*
D03*
D23*
X127500Y250000D02*
D03*
X17500Y205000D02*
D03*
Y185000D02*
D03*
Y52500D02*
D03*
Y42500D02*
D03*
X227500Y257500D02*
D03*
Y237500D02*
D03*
Y92500D02*
D03*
Y65000D02*
D03*
X82500Y267500D02*
D03*
M02*
