G04 Layer_Color=255*
%FSLAX25Y25*%
%MOIN*%
G70*
G01*
G75*
G04:AMPARAMS|DCode=11|XSize=80mil|YSize=80mil|CornerRadius=20mil|HoleSize=0mil|Usage=FLASHONLY|Rotation=180.000|XOffset=0mil|YOffset=0mil|HoleType=Round|Shape=RoundedRectangle|*
%AMROUNDEDRECTD11*
21,1,0.08000,0.04000,0,0,180.0*
21,1,0.04000,0.08000,0,0,180.0*
1,1,0.04000,-0.02000,0.02000*
1,1,0.04000,0.02000,0.02000*
1,1,0.04000,0.02000,-0.02000*
1,1,0.04000,-0.02000,-0.02000*
%
%ADD11ROUNDEDRECTD11*%
G04:AMPARAMS|DCode=12|XSize=70mil|YSize=70mil|CornerRadius=17.5mil|HoleSize=0mil|Usage=FLASHONLY|Rotation=90.000|XOffset=0mil|YOffset=0mil|HoleType=Round|Shape=RoundedRectangle|*
%AMROUNDEDRECTD12*
21,1,0.07000,0.03500,0,0,90.0*
21,1,0.03500,0.07000,0,0,90.0*
1,1,0.03500,0.01750,0.01750*
1,1,0.03500,0.01750,-0.01750*
1,1,0.03500,-0.01750,-0.01750*
1,1,0.03500,-0.01750,0.01750*
%
%ADD12ROUNDEDRECTD12*%
G04:AMPARAMS|DCode=13|XSize=80mil|YSize=80mil|CornerRadius=20mil|HoleSize=0mil|Usage=FLASHONLY|Rotation=270.000|XOffset=0mil|YOffset=0mil|HoleType=Round|Shape=RoundedRectangle|*
%AMROUNDEDRECTD13*
21,1,0.08000,0.04000,0,0,270.0*
21,1,0.04000,0.08000,0,0,270.0*
1,1,0.04000,-0.02000,-0.02000*
1,1,0.04000,-0.02000,0.02000*
1,1,0.04000,0.02000,0.02000*
1,1,0.04000,0.02000,-0.02000*
%
%ADD13ROUNDEDRECTD13*%
G04:AMPARAMS|DCode=14|XSize=100mil|YSize=100mil|CornerRadius=25mil|HoleSize=0mil|Usage=FLASHONLY|Rotation=180.000|XOffset=0mil|YOffset=0mil|HoleType=Round|Shape=RoundedRectangle|*
%AMROUNDEDRECTD14*
21,1,0.10000,0.05000,0,0,180.0*
21,1,0.05000,0.10000,0,0,180.0*
1,1,0.05000,-0.02500,0.02500*
1,1,0.05000,0.02500,0.02500*
1,1,0.05000,0.02500,-0.02500*
1,1,0.05000,-0.02500,-0.02500*
%
%ADD14ROUNDEDRECTD14*%
%ADD15P,0.21307X8X22.5*%
D11*
X110000Y227500D02*
D03*
Y257500D02*
D03*
X150000Y227500D02*
D03*
X160000D02*
D03*
X150000Y257500D02*
D03*
X160000D02*
D03*
X110000Y277500D02*
D03*
Y307500D02*
D03*
X150000Y277500D02*
D03*
X160000D02*
D03*
X150000Y307500D02*
D03*
X160000D02*
D03*
X25000Y105000D02*
D03*
X55000D02*
D03*
X25000Y115000D02*
D03*
X55000D02*
D03*
X25000Y125000D02*
D03*
X55000D02*
D03*
X25000Y135000D02*
D03*
X55000D02*
D03*
X25000Y145000D02*
D03*
X55000D02*
D03*
X25000Y155000D02*
D03*
X55000D02*
D03*
X115000Y52500D02*
D03*
X135000D02*
D03*
X155000D02*
D03*
X175000D02*
D03*
X115000Y142500D02*
D03*
X135000D02*
D03*
X155000D02*
D03*
X175000D02*
D03*
X115000Y172500D02*
D03*
X135000D02*
D03*
X155000D02*
D03*
X175000D02*
D03*
X115000Y112500D02*
D03*
X135000D02*
D03*
X155000D02*
D03*
X175000D02*
D03*
X115000Y202500D02*
D03*
X135000D02*
D03*
X155000D02*
D03*
X175000D02*
D03*
X115000Y82500D02*
D03*
X135000D02*
D03*
X155000D02*
D03*
X175000D02*
D03*
X55000Y262500D02*
D03*
X25000D02*
D03*
X55000Y272500D02*
D03*
X25000D02*
D03*
D12*
X10000D02*
D03*
Y262500D02*
D03*
X92500Y192500D02*
D03*
Y212500D02*
D03*
X77500Y202500D02*
D03*
X92500Y162500D02*
D03*
Y182500D02*
D03*
X77500Y172500D02*
D03*
X92500Y132500D02*
D03*
Y152500D02*
D03*
X77500Y142500D02*
D03*
X92500Y102500D02*
D03*
Y122500D02*
D03*
X77500Y112500D02*
D03*
X92500Y72500D02*
D03*
Y92500D02*
D03*
X77500Y82500D02*
D03*
X92500Y42500D02*
D03*
Y62500D02*
D03*
X77500Y52500D02*
D03*
X205000D02*
D03*
Y42500D02*
D03*
Y82500D02*
D03*
Y72500D02*
D03*
Y112500D02*
D03*
Y102500D02*
D03*
Y142500D02*
D03*
Y132500D02*
D03*
Y172500D02*
D03*
Y162500D02*
D03*
Y202500D02*
D03*
Y192500D02*
D03*
D13*
X10000Y105000D02*
D03*
Y115000D02*
D03*
Y125000D02*
D03*
Y135000D02*
D03*
Y145000D02*
D03*
Y155000D02*
D03*
X205000Y252500D02*
D03*
Y262500D02*
D03*
Y272500D02*
D03*
Y282500D02*
D03*
D14*
X152500Y15000D02*
D03*
X172500D02*
D03*
X112500D02*
D03*
X132500D02*
D03*
D15*
X15000D02*
D03*
X222500D02*
D03*
Y307500D02*
D03*
X15000D02*
D03*
M02*
