M48
;Layer_Color=9474304
;FILE_FORMAT=2:5
INCH,LZ
;TYPE=PLATED
T1F00S00C0.02800
T2F00S00C0.03000
T3F00S00C0.03150
T4F00S00C0.03937
T5F00S00C0.04331
T6F00S00C0.05118
T7F00S00C0.11811
%
T01
X0370669Y0027953
X0380512
Y0037795
Y0047638
Y005748
Y0067323
X0370669
Y005748
Y0047638
Y0037795
Y0077854
Y0087697
Y0097539
X0380512
Y0107382
Y0117224
X0370669
Y0107382
X0380827Y0087697
X0380512Y0077854
X027559Y0049213
Y003937
X0265748
X0255906
Y0049213
X0246063
X0236221
X0226378
X0216535
Y003937
X0226378
X0236221
X0246063
X0265748Y0049528
X0259941Y012687
X0250098
X0085537Y0049213
Y003937
X0075695
X0065852
X005601
X0046167
Y0049213
X005601
X0065852
X0075695Y0049528
X0036325Y0049213
Y003937
X0026482
Y0049213
X0024902Y0157382
X0015059
Y0167224
X0024902
X0034744
Y0157382
X0005217Y0157067
Y0167224
X0044587
Y0157382
X0054429
Y0167224
X0094685Y0140412
X0124685Y0140622
X0146555Y0155807
Y016565
X0156398
Y0175343
X016624Y0175657
X0176083
X0185925
X0195768
Y01855
X0185925
X0176083
X016624
X0156398
X0146555
Y0175657
X016624Y016565
Y0155807
X0176083
X0185925
X0195768
Y016565
X0185925
X0176083
X0156398Y0155492
X0175177Y0227
Y02445
X0165177Y0261
X0122677
X020561Y01855
Y0175657
Y016565
Y0155807
X0249783Y0156398
X0250098Y0146555
Y0136713
X0259941
Y0146555
Y0156398
Y016624
X0250098
X0267421Y0309055
X0277264
X0287106
X0296949
Y0299213
X0306791
X0316634
X0326476
Y0309055
X0316634
X0306791
X0092028Y0307283
Y0297441
X0082185
X0072342
X00625
X0052658
Y0307283
X00625
X0072342
X0082185
X0042815
Y0297126
X0032972Y0297441
Y0307283
T02
X0099685Y0082912
Y0112912
X0142677Y02095
X0152677
X0165177Y02045
Y02345
T03
X0272177Y0073
X0272264Y00915
X0272177Y01111
X0302177
X0312
X0322
Y00915
X0312
X0302264
X0302177Y0073
X0312
X0322
X0142185Y0082912
X0132185Y0090412
X0122185Y0097912
X0112185Y0090412
Y0112912
X0132185
X0142185
X0088185Y0112412
X0077185
X0062185Y0100622
X0057985Y0085622
X0047985
X0077185Y0082412
X0088185
X0122185Y0075412
X0037985Y0085622
X0032185Y0100622
X0040177Y0192
Y0222
Y02335
Y02635
X0065177Y02245
X0085177
X0084917Y0188976
X0064917
Y01675
Y01575
X0084917
Y01675
X0127677Y01895
Y01995
Y02095
X0122677Y0227
Y02395
X0152677
Y0227
X0219677Y023168
Y025168
X0243677
Y023168
Y02035
Y01835
X0219677
Y02035
X0272177Y0129722
X0302177
X0312
X0322
T04
X0218177Y002
X0238177
X0258177
X0278177
X0198177
X0178177
X0158177
X0138177
X0376083Y0133071
Y0153071
Y0173071
Y0193071
Y0213071
Y0233071
Y0253071
Y0273071
T05
X0047985Y0116122
X0061385
X0034585
X0041285Y0130622
X0015177Y01925
Y02125
Y0232
Y0252
X0065177
X0075177
X0085177
X0112677
X0122677
X0132677
X0155177
X0165177
X0175177
X0104685Y0130622
X0094685
X0084685
X0054685
X0217677Y0295
X0237677
X0197677
X0177677
X0157677
X0137677
T06
X0245677Y011
X0185677
X0162185Y0070622
Y0130622
X0259Y01835
Y0226
X02595Y0269
X03495
X0349Y0226
Y01835
T07
X038189Y0011811
X0011811
X038189Y030315
X0011811
M30
