G04 Layer_Color=128*
%FSLAX25Y25*%
%MOIN*%
G70*
G01*
G75*
%ADD41C,0.00200*%
D41*
X108425Y77500D02*
X111575D01*
X110000Y75925D02*
Y79075D01*
X108425Y87500D02*
X111575D01*
X110000Y85925D02*
Y89075D01*
X108425Y97500D02*
X111575D01*
X110000Y95925D02*
Y99075D01*
X12835Y95000D02*
X17165D01*
X15000Y92835D02*
Y97165D01*
X12835Y75000D02*
X17165D01*
X15000Y72835D02*
Y77165D01*
X12835Y135000D02*
X17165D01*
X15000Y132835D02*
Y137165D01*
X12835Y115000D02*
X17165D01*
X15000Y112835D02*
Y117165D01*
X90925Y205000D02*
X94075D01*
X92500Y203425D02*
Y206575D01*
X90925Y195000D02*
X94075D01*
X92500Y193425D02*
Y196575D01*
X90925Y185000D02*
X94075D01*
X92500Y183425D02*
Y186575D01*
X198425Y192500D02*
X201575D01*
X200000Y190925D02*
Y194075D01*
X198425Y182500D02*
X201575D01*
X200000Y180925D02*
Y184075D01*
X198425Y172500D02*
X201575D01*
X200000Y170925D02*
Y174075D01*
X108425Y185000D02*
X111575D01*
X110000Y183425D02*
Y186575D01*
X108425Y195000D02*
X111575D01*
X110000Y193425D02*
Y196575D01*
X108425Y205000D02*
X111575D01*
X110000Y203425D02*
Y206575D01*
X198425Y87500D02*
X201575D01*
X200000Y85925D02*
Y89075D01*
X198425Y77500D02*
X201575D01*
X200000Y75925D02*
Y79075D01*
X198425Y67500D02*
X201575D01*
X200000Y65925D02*
Y69075D01*
X90925Y97500D02*
X94075D01*
X92500Y95925D02*
Y99075D01*
X90925Y87500D02*
X94075D01*
X92500Y85925D02*
Y89075D01*
X90925Y77500D02*
X94075D01*
X92500Y75925D02*
Y79075D01*
X58425Y130000D02*
X61575D01*
X60000Y128425D02*
Y131575D01*
X58425Y120000D02*
X61575D01*
X60000Y118425D02*
Y121575D01*
X58425Y70000D02*
X61575D01*
X60000Y68425D02*
Y71575D01*
X58425Y80000D02*
X61575D01*
X60000Y78425D02*
Y81575D01*
X58425Y90000D02*
X61575D01*
X60000Y88425D02*
Y91575D01*
X93425Y150000D02*
X96575D01*
X95000Y148425D02*
Y151575D01*
X103425Y150000D02*
X106575D01*
X105000Y148425D02*
Y151575D01*
X93425Y42500D02*
X96575D01*
X95000Y40925D02*
Y44075D01*
X103425Y42500D02*
X106575D01*
X105000Y40925D02*
Y44075D01*
X48425Y22500D02*
X51575D01*
X50000Y20925D02*
Y24075D01*
X58425Y22500D02*
X61575D01*
X60000Y20925D02*
Y24075D01*
X48425Y45000D02*
X51575D01*
X50000Y43425D02*
Y46575D01*
X58425Y45000D02*
X61575D01*
X60000Y43425D02*
Y46575D01*
X120925Y162500D02*
X124075D01*
X122500Y160925D02*
Y164075D01*
X120925Y152500D02*
X124075D01*
X122500Y150925D02*
Y154075D01*
X170925Y162500D02*
X174075D01*
X172500Y160925D02*
Y164075D01*
X170925Y152500D02*
X174075D01*
X172500Y150925D02*
Y154075D01*
X120925Y57500D02*
X124075D01*
X122500Y55926D02*
Y59075D01*
X120925Y47500D02*
X124075D01*
X122500Y45925D02*
Y49075D01*
X170925Y57500D02*
X174075D01*
X172500Y55926D02*
Y59075D01*
X170925Y47500D02*
X174075D01*
X172500Y45925D02*
Y49075D01*
X195531Y47500D02*
X199469D01*
X197500Y45531D02*
Y49468D01*
X195531Y152500D02*
X199469D01*
X197500Y150531D02*
Y154469D01*
X213032Y192500D02*
X216968D01*
X215000Y190532D02*
Y194468D01*
X213032Y182500D02*
X216968D01*
X215000Y180532D02*
Y184468D01*
X213032Y87500D02*
X216968D01*
X215000Y85532D02*
Y89468D01*
X213032Y77500D02*
X216968D01*
X215000Y75532D02*
Y79469D01*
X9094Y15000D02*
X20906D01*
X15000Y9094D02*
Y20906D01*
X216595Y15000D02*
X228405D01*
X222500Y9094D02*
Y20906D01*
X216595Y222500D02*
X228405D01*
X222500Y216595D02*
Y228405D01*
X9094Y222500D02*
X20906D01*
X15000Y216595D02*
Y228405D01*
X130925Y87500D02*
X134075D01*
X132500Y85925D02*
Y89075D01*
X130925Y77500D02*
X134075D01*
X132500Y75925D02*
Y79075D01*
X130925Y67500D02*
X134075D01*
X132500Y65925D02*
Y69075D01*
X130925Y57500D02*
X134075D01*
X132500Y55925D02*
Y59075D01*
X130925Y47500D02*
X134075D01*
X132500Y45925D02*
Y49075D01*
X130925Y37500D02*
X134075D01*
X132500Y35925D02*
Y39075D01*
X130925Y27500D02*
X134075D01*
X132500Y25925D02*
Y29075D01*
X160925Y87500D02*
X164075D01*
X162500Y85925D02*
Y89075D01*
X160925Y77500D02*
X164075D01*
X162500Y75925D02*
Y79075D01*
X160925Y67500D02*
X164075D01*
X162500Y65925D02*
Y69075D01*
X160925Y57500D02*
X164075D01*
X162500Y55925D02*
Y59075D01*
X160925Y47500D02*
X164075D01*
X162500Y45925D02*
Y49075D01*
X160925Y37500D02*
X164075D01*
X162500Y35925D02*
Y39075D01*
X160925Y27500D02*
X164075D01*
X162500Y25925D02*
Y29075D01*
X130925Y192500D02*
X134075D01*
X132500Y190925D02*
Y194075D01*
X130925Y182500D02*
X134075D01*
X132500Y180925D02*
Y184075D01*
X130925Y172500D02*
X134075D01*
X132500Y170925D02*
Y174075D01*
X130925Y162500D02*
X134075D01*
X132500Y160925D02*
Y164075D01*
X130925Y152500D02*
X134075D01*
X132500Y150925D02*
Y154075D01*
X130925Y142500D02*
X134075D01*
X132500Y140925D02*
Y144075D01*
X130925Y132500D02*
X134075D01*
X132500Y130925D02*
Y134075D01*
X160925Y192500D02*
X164075D01*
X162500Y190925D02*
Y194075D01*
X160925Y182500D02*
X164075D01*
X162500Y180925D02*
Y184075D01*
X160925Y172500D02*
X164075D01*
X162500Y170925D02*
Y174075D01*
X160925Y162500D02*
X164075D01*
X162500Y160925D02*
Y164075D01*
X160925Y152500D02*
X164075D01*
X162500Y150925D02*
Y154075D01*
X160925Y142500D02*
X164075D01*
X162500Y140925D02*
Y144075D01*
X160925Y132500D02*
X164075D01*
X162500Y130925D02*
Y134075D01*
X113600Y17500D02*
X116400D01*
X115000Y16100D02*
Y18900D01*
X113600Y120000D02*
X116400D01*
X115000Y118600D02*
Y121400D01*
X151100Y175000D02*
X153900D01*
X152500Y173600D02*
Y176400D01*
X130800Y100300D02*
X133600D01*
X132200Y98900D02*
Y101700D01*
X103600Y172500D02*
X106400D01*
X105000Y171100D02*
Y173900D01*
X103600Y67500D02*
X106400D01*
X105000Y66100D02*
Y68900D01*
X186100Y80000D02*
X188900D01*
X187500Y78600D02*
Y81400D01*
X183600Y47500D02*
X186400D01*
X185000Y46100D02*
Y48900D01*
X183600Y152500D02*
X186400D01*
X185000Y151100D02*
Y153900D01*
X186100Y182500D02*
X188900D01*
X187500Y181100D02*
Y183900D01*
X56100Y172500D02*
X58900D01*
X57500Y171100D02*
Y173900D01*
X8600Y172500D02*
X11400D01*
X10000Y171100D02*
Y173900D01*
X8600Y195000D02*
X11400D01*
X10000Y193600D02*
Y196400D01*
X181100Y115000D02*
X183900D01*
X182500Y113600D02*
Y116400D01*
X218600Y115000D02*
X221400D01*
X220000Y113600D02*
Y116400D01*
X176100Y225000D02*
X178900D01*
X177500Y223600D02*
Y226400D01*
X43600Y225000D02*
X46400D01*
X45000Y223600D02*
Y226400D01*
X13600Y42500D02*
X16400D01*
X15000Y41100D02*
Y43900D01*
X163600Y10000D02*
X166400D01*
X165000Y8600D02*
Y11400D01*
X201100Y10000D02*
X203900D01*
X202500Y8600D02*
Y11400D01*
X226100Y47500D02*
X228900D01*
X227500Y46100D02*
Y48900D01*
X93600Y120000D02*
X96400D01*
X95000Y118600D02*
Y121400D01*
X218600Y152500D02*
X221400D01*
X220000Y151100D02*
Y153900D01*
X43600Y195000D02*
X46400D01*
X45000Y193600D02*
Y196400D01*
X138600Y225000D02*
X141400D01*
X140000Y223600D02*
Y226400D01*
X83600Y225000D02*
X86400D01*
X85000Y223600D02*
Y226400D01*
M02*
