G04 Layer_Physical_Order=1*
G04 Layer_Color=255*
%FSLAX25Y25*%
%MOIN*%
G70*
G01*
G75*
%ADD10C,0.02000*%
G04:AMPARAMS|DCode=11|XSize=70mil|YSize=70mil|CornerRadius=17.5mil|HoleSize=0mil|Usage=FLASHONLY|Rotation=90.000|XOffset=0mil|YOffset=0mil|HoleType=Round|Shape=RoundedRectangle|*
%AMROUNDEDRECTD11*
21,1,0.07000,0.03500,0,0,90.0*
21,1,0.03500,0.07000,0,0,90.0*
1,1,0.03500,0.01750,0.01750*
1,1,0.03500,0.01750,-0.01750*
1,1,0.03500,-0.01750,-0.01750*
1,1,0.03500,-0.01750,0.01750*
%
%ADD11ROUNDEDRECTD11*%
G04:AMPARAMS|DCode=12|XSize=100mil|YSize=100mil|CornerRadius=25mil|HoleSize=0mil|Usage=FLASHONLY|Rotation=90.000|XOffset=0mil|YOffset=0mil|HoleType=Round|Shape=RoundedRectangle|*
%AMROUNDEDRECTD12*
21,1,0.10000,0.05000,0,0,90.0*
21,1,0.05000,0.10000,0,0,90.0*
1,1,0.05000,0.02500,0.02500*
1,1,0.05000,0.02500,-0.02500*
1,1,0.05000,-0.02500,-0.02500*
1,1,0.05000,-0.02500,0.02500*
%
%ADD12ROUNDEDRECTD12*%
G04:AMPARAMS|DCode=13|XSize=60mil|YSize=80mil|CornerRadius=15mil|HoleSize=0mil|Usage=FLASHONLY|Rotation=270.000|XOffset=0mil|YOffset=0mil|HoleType=Round|Shape=RoundedRectangle|*
%AMROUNDEDRECTD13*
21,1,0.06000,0.05000,0,0,270.0*
21,1,0.03000,0.08000,0,0,270.0*
1,1,0.03000,-0.02500,-0.01500*
1,1,0.03000,-0.02500,0.01500*
1,1,0.03000,0.02500,0.01500*
1,1,0.03000,0.02500,-0.01500*
%
%ADD13ROUNDEDRECTD13*%
G04:AMPARAMS|DCode=14|XSize=70mil|YSize=70mil|CornerRadius=17.5mil|HoleSize=0mil|Usage=FLASHONLY|Rotation=180.000|XOffset=0mil|YOffset=0mil|HoleType=Round|Shape=RoundedRectangle|*
%AMROUNDEDRECTD14*
21,1,0.07000,0.03500,0,0,180.0*
21,1,0.03500,0.07000,0,0,180.0*
1,1,0.03500,-0.01750,0.01750*
1,1,0.03500,0.01750,0.01750*
1,1,0.03500,0.01750,-0.01750*
1,1,0.03500,-0.01750,-0.01750*
%
%ADD14ROUNDEDRECTD14*%
G04:AMPARAMS|DCode=15|XSize=60mil|YSize=80mil|CornerRadius=15mil|HoleSize=0mil|Usage=FLASHONLY|Rotation=180.000|XOffset=0mil|YOffset=0mil|HoleType=Round|Shape=RoundedRectangle|*
%AMROUNDEDRECTD15*
21,1,0.06000,0.05000,0,0,180.0*
21,1,0.03000,0.08000,0,0,180.0*
1,1,0.03000,-0.01500,0.02500*
1,1,0.03000,0.01500,0.02500*
1,1,0.03000,0.01500,-0.02500*
1,1,0.03000,-0.01500,-0.02500*
%
%ADD15ROUNDEDRECTD15*%
G04:AMPARAMS|DCode=16|XSize=80mil|YSize=80mil|CornerRadius=20mil|HoleSize=0mil|Usage=FLASHONLY|Rotation=0.000|XOffset=0mil|YOffset=0mil|HoleType=Round|Shape=RoundedRectangle|*
%AMROUNDEDRECTD16*
21,1,0.08000,0.04000,0,0,0.0*
21,1,0.04000,0.08000,0,0,0.0*
1,1,0.04000,0.02000,-0.02000*
1,1,0.04000,-0.02000,-0.02000*
1,1,0.04000,-0.02000,0.02000*
1,1,0.04000,0.02000,0.02000*
%
%ADD16ROUNDEDRECTD16*%
%ADD17P,0.21307X8X22.5*%
%ADD18R,0.08000X0.06000*%
G04:AMPARAMS|DCode=19|XSize=80mil|YSize=60mil|CornerRadius=15mil|HoleSize=0mil|Usage=FLASHONLY|Rotation=0.000|XOffset=0mil|YOffset=0mil|HoleType=Round|Shape=RoundedRectangle|*
%AMROUNDEDRECTD19*
21,1,0.08000,0.03000,0,0,0.0*
21,1,0.05000,0.06000,0,0,0.0*
1,1,0.03000,0.02500,-0.01500*
1,1,0.03000,-0.02500,-0.01500*
1,1,0.03000,-0.02500,0.01500*
1,1,0.03000,0.02500,0.01500*
%
%ADD19ROUNDEDRECTD19*%
%ADD20C,0.05000*%
G36*
X237500Y0D02*
X0D01*
Y237500D01*
X237500D01*
Y0D01*
D02*
G37*
%LPC*%
G36*
X125000Y62026D02*
X120000D01*
X119217Y61923D01*
X118487Y61621D01*
X117860Y61140D01*
X117379Y60513D01*
X117077Y59784D01*
X116974Y59000D01*
Y56000D01*
X117077Y55217D01*
X117379Y54487D01*
X117860Y53861D01*
X118487Y53380D01*
X119217Y53078D01*
X120000Y52974D01*
X125000D01*
X125783Y53078D01*
X126513Y53380D01*
X127140Y53861D01*
X127250Y54004D01*
X127750D01*
X127860Y53860D01*
X128487Y53379D01*
X129217Y53077D01*
X130000Y52974D01*
X135000D01*
X135783Y53077D01*
X136513Y53379D01*
X137140Y53860D01*
X137620Y54487D01*
X137923Y55217D01*
X138026Y56000D01*
Y59000D01*
X137923Y59783D01*
X137620Y60513D01*
X137140Y61140D01*
X136513Y61620D01*
X135783Y61923D01*
X135000Y62026D01*
X130000D01*
X129217Y61923D01*
X128487Y61620D01*
X127860Y61140D01*
X127750Y60996D01*
X127250D01*
X127140Y61140D01*
X126513Y61621D01*
X125783Y61923D01*
X125000Y62026D01*
D02*
G37*
G36*
X131500Y51549D02*
X130000D01*
X129025Y51355D01*
X128198Y50802D01*
X127784Y50184D01*
X127216D01*
X126802Y50802D01*
X125976Y51355D01*
X125000Y51549D01*
X123500D01*
Y47500D01*
Y43451D01*
X125000D01*
X125976Y43645D01*
X126802Y44198D01*
X127216Y44816D01*
X127784D01*
X128198Y44198D01*
X129025Y43645D01*
X130000Y43451D01*
X131500D01*
Y47500D01*
Y51549D01*
D02*
G37*
G36*
X175000Y62026D02*
X170000D01*
X169217Y61923D01*
X168487Y61621D01*
X167860Y61140D01*
X167750Y60996D01*
X167250D01*
X167140Y61140D01*
X166513Y61620D01*
X165783Y61923D01*
X165000Y62026D01*
X160000D01*
X159217Y61923D01*
X158487Y61620D01*
X157860Y61140D01*
X157379Y60513D01*
X157077Y59783D01*
X156974Y59000D01*
Y56000D01*
X157077Y55217D01*
X157379Y54487D01*
X157860Y53860D01*
X158487Y53379D01*
X159217Y53077D01*
X160000Y52974D01*
X165000D01*
X165783Y53077D01*
X166513Y53379D01*
X167140Y53860D01*
X167250Y54004D01*
X167750D01*
X167860Y53861D01*
X168487Y53380D01*
X169217Y53078D01*
X170000Y52974D01*
X175000D01*
X175783Y53078D01*
X176513Y53380D01*
X177140Y53861D01*
X177620Y54487D01*
X177923Y55217D01*
X178026Y56000D01*
Y59000D01*
X177923Y59784D01*
X177620Y60513D01*
X177140Y61140D01*
X176513Y61621D01*
X175783Y61923D01*
X175000Y62026D01*
D02*
G37*
G36*
X165000Y72026D02*
X160000D01*
X159217Y71923D01*
X158487Y71621D01*
X157860Y71140D01*
X157379Y70513D01*
X157077Y69783D01*
X156974Y69000D01*
Y66000D01*
X157077Y65217D01*
X157379Y64487D01*
X157860Y63860D01*
X158487Y63380D01*
X159217Y63077D01*
X160000Y62974D01*
X165000D01*
X165783Y63077D01*
X166513Y63380D01*
X167140Y63860D01*
X167621Y64487D01*
X167923Y65217D01*
X168026Y66000D01*
Y69000D01*
X167923Y69783D01*
X167621Y70513D01*
X167140Y71140D01*
X166513Y71621D01*
X165783Y71923D01*
X165000Y72026D01*
D02*
G37*
G36*
X201750Y92528D02*
X198250D01*
X197402Y92416D01*
X196611Y92089D01*
X195932Y91568D01*
X195411Y90889D01*
X195084Y90098D01*
X194972Y89250D01*
Y85750D01*
X195084Y84902D01*
X195411Y84111D01*
X195932Y83432D01*
X196611Y82911D01*
X196950Y82771D01*
Y82229D01*
X196611Y82089D01*
X195932Y81568D01*
X195411Y80889D01*
X195084Y80098D01*
X194972Y79250D01*
Y75750D01*
X195084Y74902D01*
X195411Y74111D01*
X195932Y73432D01*
X196611Y72911D01*
X196950Y72771D01*
Y72229D01*
X196611Y72089D01*
X195932Y71568D01*
X195411Y70889D01*
X195084Y70098D01*
X194972Y69250D01*
Y65750D01*
X195084Y64902D01*
X195411Y64111D01*
X195932Y63432D01*
X196611Y62911D01*
X197402Y62584D01*
X198250Y62472D01*
X201750D01*
X202598Y62584D01*
X203389Y62911D01*
X204068Y63432D01*
X204589Y64111D01*
X204916Y64902D01*
X205028Y65750D01*
Y69250D01*
X204916Y70098D01*
X204589Y70889D01*
X204068Y71568D01*
X203389Y72089D01*
X203050Y72229D01*
Y72771D01*
X203389Y72911D01*
X204068Y73432D01*
X204589Y74111D01*
X204916Y74902D01*
X205028Y75750D01*
Y79250D01*
X204916Y80098D01*
X204589Y80889D01*
X204068Y81568D01*
X203389Y82089D01*
X203050Y82229D01*
Y82771D01*
X203389Y82911D01*
X204068Y83432D01*
X204589Y84111D01*
X204916Y84902D01*
X205028Y85750D01*
Y89250D01*
X204916Y90098D01*
X204589Y90889D01*
X204068Y91568D01*
X203389Y92089D01*
X202598Y92416D01*
X201750Y92528D01*
D02*
G37*
G36*
X61500Y50049D02*
X61000D01*
Y46000D01*
X64049D01*
Y47500D01*
X63855Y48476D01*
X63302Y49302D01*
X62476Y49855D01*
X61500Y50049D01*
D02*
G37*
G36*
X59000D02*
X58500D01*
X57525Y49855D01*
X56698Y49302D01*
X56145Y48476D01*
X55951Y47500D01*
Y46000D01*
X59000D01*
Y50049D01*
D02*
G37*
G36*
X121500Y51549D02*
X120000D01*
X119025Y51355D01*
X118198Y50802D01*
X117645Y49975D01*
X117451Y49000D01*
Y48500D01*
X121500D01*
Y51549D01*
D02*
G37*
G36*
X175000D02*
X173500D01*
Y48500D01*
X177549D01*
Y49000D01*
X177355Y49975D01*
X176802Y50802D01*
X175976Y51355D01*
X175000Y51549D01*
D02*
G37*
G36*
X135000D02*
X133500D01*
Y48500D01*
X137549D01*
Y49000D01*
X137355Y49975D01*
X136802Y50802D01*
X135976Y51355D01*
X135000Y51549D01*
D02*
G37*
G36*
X62500Y74526D02*
X57500D01*
X56717Y74423D01*
X55987Y74120D01*
X55360Y73640D01*
X54879Y73013D01*
X54577Y72283D01*
X54474Y71500D01*
Y68500D01*
X54577Y67717D01*
X54879Y66987D01*
X55360Y66360D01*
X55987Y65879D01*
X56717Y65577D01*
X57500Y65474D01*
X62500D01*
X63283Y65577D01*
X64013Y65879D01*
X64640Y66360D01*
X65121Y66987D01*
X65423Y67717D01*
X65526Y68500D01*
Y71500D01*
X65423Y72283D01*
X65121Y73013D01*
X64640Y73640D01*
X64013Y74120D01*
X63283Y74423D01*
X62500Y74526D01*
D02*
G37*
G36*
X214000Y76500D02*
X210476D01*
Y75750D01*
X210571Y75032D01*
X210848Y74363D01*
X211289Y73789D01*
X211863Y73348D01*
X212532Y73071D01*
X213250Y72976D01*
X214000D01*
Y76500D01*
D02*
G37*
G36*
X165000Y82026D02*
X160000D01*
X159217Y81923D01*
X158487Y81621D01*
X157860Y81140D01*
X157379Y80513D01*
X157077Y79783D01*
X156974Y79000D01*
Y76000D01*
X157077Y75217D01*
X157379Y74487D01*
X157860Y73860D01*
X158487Y73379D01*
X159217Y73077D01*
X160000Y72974D01*
X165000D01*
X165783Y73077D01*
X166513Y73379D01*
X167140Y73860D01*
X167621Y74487D01*
X167923Y75217D01*
X168026Y76000D01*
Y79000D01*
X167923Y79783D01*
X167621Y80513D01*
X167140Y81140D01*
X166513Y81621D01*
X165783Y81923D01*
X165000Y82026D01*
D02*
G37*
G36*
X219524Y76500D02*
X216000D01*
Y72976D01*
X216750D01*
X217468Y73071D01*
X218137Y73348D01*
X218711Y73789D01*
X219152Y74363D01*
X219429Y75032D01*
X219524Y75750D01*
Y76500D01*
D02*
G37*
G36*
X65049Y79000D02*
X61000D01*
Y75951D01*
X62500D01*
X63476Y76145D01*
X64302Y76698D01*
X64855Y77525D01*
X65049Y78500D01*
Y79000D01*
D02*
G37*
G36*
X59000D02*
X54951D01*
Y78500D01*
X55145Y77525D01*
X55698Y76698D01*
X56524Y76145D01*
X57500Y75951D01*
X59000D01*
Y79000D01*
D02*
G37*
G36*
X135000Y72026D02*
X130000D01*
X129217Y71923D01*
X128487Y71621D01*
X127860Y71140D01*
X127380Y70513D01*
X127187Y70049D01*
X108086D01*
X107853Y70353D01*
X107017Y70994D01*
X106044Y71397D01*
X105000Y71535D01*
X103956Y71397D01*
X102983Y70994D01*
X102147Y70353D01*
X101506Y69517D01*
X101103Y68544D01*
X100965Y67500D01*
X101103Y66456D01*
X101506Y65483D01*
X102147Y64647D01*
X102983Y64006D01*
X103956Y63603D01*
X105000Y63465D01*
X106044Y63603D01*
X107017Y64006D01*
X107853Y64647D01*
X108086Y64951D01*
X127187D01*
X127380Y64487D01*
X127860Y63860D01*
X128487Y63380D01*
X129217Y63077D01*
X130000Y62974D01*
X135000D01*
X135783Y63077D01*
X136513Y63380D01*
X137140Y63860D01*
X137620Y64487D01*
X137923Y65217D01*
X138026Y66000D01*
Y69000D01*
X137923Y69783D01*
X137620Y70513D01*
X137140Y71140D01*
X136513Y71621D01*
X135783Y71923D01*
X135000Y72026D01*
D02*
G37*
G36*
X17500Y81534D02*
X12500D01*
X11456Y81397D01*
X10483Y80994D01*
X9647Y80353D01*
X9006Y79517D01*
X8603Y78544D01*
X8466Y77500D01*
Y72500D01*
X8603Y71456D01*
X9006Y70483D01*
X9647Y69647D01*
X10483Y69006D01*
X11456Y68603D01*
X12500Y68466D01*
X17500D01*
X18544Y68603D01*
X19517Y69006D01*
X20353Y69647D01*
X20994Y70483D01*
X21397Y71456D01*
X21534Y72500D01*
Y77500D01*
X21397Y78544D01*
X20994Y79517D01*
X20353Y80353D01*
X19517Y80994D01*
X18544Y81397D01*
X17500Y81534D01*
D02*
G37*
G36*
X94250Y102528D02*
X90750D01*
X89902Y102416D01*
X89111Y102089D01*
X88432Y101568D01*
X87911Y100889D01*
X87584Y100098D01*
X87472Y99250D01*
Y95750D01*
X87584Y94902D01*
X87911Y94111D01*
X88432Y93432D01*
X89111Y92911D01*
X89450Y92771D01*
Y92229D01*
X89111Y92089D01*
X88432Y91568D01*
X87911Y90889D01*
X87584Y90098D01*
X87472Y89250D01*
Y85750D01*
X87584Y84902D01*
X87911Y84111D01*
X88432Y83432D01*
X89111Y82911D01*
X89450Y82771D01*
Y82229D01*
X89111Y82089D01*
X88432Y81568D01*
X87911Y80889D01*
X87584Y80098D01*
X87472Y79250D01*
Y75750D01*
X87584Y74902D01*
X87911Y74111D01*
X88432Y73432D01*
X89111Y72911D01*
X89902Y72584D01*
X90750Y72472D01*
X94250D01*
X95098Y72584D01*
X95889Y72911D01*
X96568Y73432D01*
X97089Y74111D01*
X97416Y74902D01*
X97528Y75750D01*
Y79250D01*
X97416Y80098D01*
X97089Y80889D01*
X96568Y81568D01*
X95889Y82089D01*
X95550Y82229D01*
Y82771D01*
X95889Y82911D01*
X96568Y83432D01*
X97089Y84111D01*
X97416Y84902D01*
X97528Y85750D01*
Y89250D01*
X97416Y90098D01*
X97089Y90889D01*
X96568Y91568D01*
X95889Y92089D01*
X95550Y92229D01*
Y92771D01*
X95889Y92911D01*
X96568Y93432D01*
X97089Y94111D01*
X97416Y94902D01*
X97528Y95750D01*
Y99250D01*
X97416Y100098D01*
X97089Y100889D01*
X96568Y101568D01*
X95889Y102089D01*
X95098Y102416D01*
X94250Y102528D01*
D02*
G37*
G36*
X135000Y82026D02*
X130000D01*
X129217Y81923D01*
X128487Y81621D01*
X127860Y81140D01*
X127380Y80513D01*
X127077Y79783D01*
X126974Y79000D01*
Y76000D01*
X127077Y75217D01*
X127380Y74487D01*
X127860Y73860D01*
X128487Y73379D01*
X129217Y73077D01*
X130000Y72974D01*
X135000D01*
X135783Y73077D01*
X136513Y73379D01*
X137140Y73860D01*
X137620Y74487D01*
X137923Y75217D01*
X138026Y76000D01*
Y79000D01*
X137923Y79783D01*
X137620Y80513D01*
X137140Y81140D01*
X136513Y81621D01*
X135783Y81923D01*
X135000Y82026D01*
D02*
G37*
G36*
X111750Y102528D02*
X108250D01*
X107402Y102416D01*
X106611Y102089D01*
X105932Y101568D01*
X105411Y100889D01*
X105084Y100098D01*
X104972Y99250D01*
Y95750D01*
X105084Y94902D01*
X105411Y94111D01*
X105932Y93432D01*
X106611Y92911D01*
X106950Y92771D01*
Y92229D01*
X106611Y92089D01*
X105932Y91568D01*
X105411Y90889D01*
X105084Y90098D01*
X104972Y89250D01*
Y85750D01*
X105084Y84902D01*
X105411Y84111D01*
X105932Y83432D01*
X106611Y82911D01*
X106950Y82771D01*
Y82229D01*
X106611Y82089D01*
X105932Y81568D01*
X105411Y80889D01*
X105084Y80098D01*
X104972Y79250D01*
Y75750D01*
X105084Y74902D01*
X105411Y74111D01*
X105932Y73432D01*
X106611Y72911D01*
X107402Y72584D01*
X108250Y72472D01*
X111750D01*
X112598Y72584D01*
X113389Y72911D01*
X114068Y73432D01*
X114589Y74111D01*
X114916Y74902D01*
X115028Y75750D01*
Y79250D01*
X114916Y80098D01*
X114589Y80889D01*
X114068Y81568D01*
X113389Y82089D01*
X113050Y82229D01*
Y82771D01*
X113389Y82911D01*
X114068Y83432D01*
X114589Y84111D01*
X114916Y84902D01*
X115028Y85750D01*
Y89250D01*
X114916Y90098D01*
X114589Y90889D01*
X114068Y91568D01*
X113389Y92089D01*
X113050Y92229D01*
Y92771D01*
X113389Y92911D01*
X114068Y93432D01*
X114589Y94111D01*
X114916Y94902D01*
X115028Y95750D01*
Y99250D01*
X114916Y100098D01*
X114589Y100889D01*
X114068Y101568D01*
X113389Y102089D01*
X112598Y102416D01*
X111750Y102528D01*
D02*
G37*
G36*
X165000Y42026D02*
X160000D01*
X159217Y41923D01*
X158487Y41620D01*
X157860Y41140D01*
X157379Y40513D01*
X157077Y39783D01*
X156974Y39000D01*
Y36000D01*
X157023Y35628D01*
X141444Y20049D01*
X118086D01*
X117853Y20353D01*
X117017Y20994D01*
X116044Y21397D01*
X115000Y21534D01*
X113956Y21397D01*
X112983Y20994D01*
X112147Y20353D01*
X111506Y19517D01*
X111103Y18544D01*
X110966Y17500D01*
X111103Y16456D01*
X111506Y15483D01*
X112147Y14647D01*
X112983Y14006D01*
X113956Y13603D01*
X115000Y13465D01*
X116044Y13603D01*
X117017Y14006D01*
X117853Y14647D01*
X118086Y14951D01*
X142500D01*
X143475Y15145D01*
X144302Y15698D01*
X156512Y27907D01*
X156974Y27716D01*
Y26000D01*
X157077Y25217D01*
X157379Y24487D01*
X157860Y23860D01*
X158487Y23380D01*
X159217Y23077D01*
X160000Y22974D01*
X165000D01*
X165783Y23077D01*
X166513Y23380D01*
X167140Y23860D01*
X167621Y24487D01*
X167923Y25217D01*
X168026Y26000D01*
Y29000D01*
X167923Y29783D01*
X167621Y30513D01*
X167140Y31140D01*
X166513Y31620D01*
X165783Y31923D01*
X165000Y32026D01*
X161284D01*
X161093Y32488D01*
X161579Y32974D01*
X165000D01*
X165783Y33077D01*
X166513Y33380D01*
X167140Y33860D01*
X167621Y34487D01*
X167923Y35217D01*
X168026Y36000D01*
Y39000D01*
X167923Y39783D01*
X167621Y40513D01*
X167140Y41140D01*
X166513Y41620D01*
X165783Y41923D01*
X165000Y42026D01*
D02*
G37*
G36*
X135000Y32026D02*
X130000D01*
X129217Y31923D01*
X128487Y31620D01*
X127860Y31140D01*
X127380Y30513D01*
X127077Y29783D01*
X126974Y29000D01*
Y26000D01*
X127077Y25217D01*
X127380Y24487D01*
X127860Y23860D01*
X128487Y23380D01*
X129217Y23077D01*
X130000Y22974D01*
X135000D01*
X135783Y23077D01*
X136513Y23380D01*
X137140Y23860D01*
X137620Y24487D01*
X137923Y25217D01*
X138026Y26000D01*
Y29000D01*
X137923Y29783D01*
X137620Y30513D01*
X137140Y31140D01*
X136513Y31620D01*
X135783Y31923D01*
X135000Y32026D01*
D02*
G37*
G36*
X49000Y27549D02*
X48500D01*
X47524Y27355D01*
X46698Y26802D01*
X46145Y25975D01*
X45951Y25000D01*
Y23500D01*
X49000D01*
Y27549D01*
D02*
G37*
G36*
X135000Y42026D02*
X130000D01*
X129217Y41923D01*
X128487Y41620D01*
X127860Y41140D01*
X127380Y40513D01*
X127077Y39783D01*
X126974Y39000D01*
Y36000D01*
X127077Y35217D01*
X127380Y34487D01*
X127860Y33860D01*
X128487Y33380D01*
X129217Y33077D01*
X130000Y32974D01*
X135000D01*
X135783Y33077D01*
X136513Y33380D01*
X137140Y33860D01*
X137620Y34487D01*
X137923Y35217D01*
X138026Y36000D01*
Y39000D01*
X137923Y39783D01*
X137620Y40513D01*
X137140Y41140D01*
X136513Y41620D01*
X135783Y41923D01*
X135000Y42026D01*
D02*
G37*
G36*
X51500Y27549D02*
X51000D01*
Y23500D01*
X54049D01*
Y25000D01*
X53855Y25975D01*
X53302Y26802D01*
X52476Y27355D01*
X51500Y27549D01*
D02*
G37*
G36*
X228171Y26342D02*
X216829D01*
X211157Y20671D01*
Y9329D01*
X216829Y3658D01*
X228171D01*
X233842Y9329D01*
Y20671D01*
X228171Y26342D01*
D02*
G37*
G36*
X20671D02*
X9329D01*
X3658Y20671D01*
Y9329D01*
X9329Y3658D01*
X20671D01*
X26342Y9329D01*
Y20671D01*
X20671Y26342D01*
D02*
G37*
G36*
X61500Y28026D02*
X58500D01*
X57717Y27923D01*
X56987Y27621D01*
X56360Y27140D01*
X55879Y26513D01*
X55577Y25783D01*
X55474Y25000D01*
Y20000D01*
X55577Y19217D01*
X55879Y18487D01*
X56360Y17860D01*
X56987Y17379D01*
X57717Y17077D01*
X58500Y16974D01*
X61500D01*
X62283Y17077D01*
X63013Y17379D01*
X63640Y17860D01*
X64121Y18487D01*
X64423Y19217D01*
X64526Y20000D01*
Y25000D01*
X64423Y25783D01*
X64121Y26513D01*
X63640Y27140D01*
X63013Y27621D01*
X62283Y27923D01*
X61500Y28026D01*
D02*
G37*
G36*
X54049Y21500D02*
X51000D01*
Y17451D01*
X51500D01*
X52476Y17645D01*
X53302Y18198D01*
X53855Y19025D01*
X54049Y20000D01*
Y21500D01*
D02*
G37*
G36*
X49000D02*
X45951D01*
Y20000D01*
X46145Y19025D01*
X46698Y18198D01*
X47524Y17645D01*
X48500Y17451D01*
X49000D01*
Y21500D01*
D02*
G37*
G36*
X94000Y41500D02*
X90476D01*
Y40750D01*
X90571Y40032D01*
X90848Y39363D01*
X91289Y38789D01*
X91863Y38348D01*
X92532Y38071D01*
X93250Y37976D01*
X94000D01*
Y41500D01*
D02*
G37*
G36*
X132200Y104334D02*
X131156Y104197D01*
X130183Y103794D01*
X129347Y103153D01*
X128706Y102317D01*
X128303Y101344D01*
X128165Y100300D01*
X128303Y99256D01*
X128706Y98283D01*
X129347Y97447D01*
X130183Y96806D01*
X131156Y96403D01*
X132200Y96266D01*
X133244Y96403D01*
X134217Y96806D01*
X135053Y97447D01*
X135286Y97751D01*
X146144D01*
X149951Y93944D01*
Y52500D01*
X150145Y51525D01*
X150698Y50698D01*
X155698Y45698D01*
X156525Y45145D01*
X157159Y45019D01*
X157379Y44487D01*
X157860Y43860D01*
X158487Y43380D01*
X159217Y43077D01*
X160000Y42974D01*
X165000D01*
X165783Y43077D01*
X166513Y43380D01*
X167140Y43860D01*
X167504Y44335D01*
X168072Y44386D01*
X168198Y44198D01*
X169025Y43645D01*
X170000Y43451D01*
X171500D01*
Y47500D01*
Y51549D01*
X170000D01*
X169025Y51355D01*
X168198Y50802D01*
X168072Y50614D01*
X167504Y50665D01*
X167140Y51140D01*
X166513Y51621D01*
X165783Y51923D01*
X165000Y52026D01*
X160000D01*
X159217Y51923D01*
X158487Y51621D01*
X157860Y51140D01*
X157490Y51115D01*
X155049Y53556D01*
Y95000D01*
X154855Y95976D01*
X154302Y96802D01*
X149002Y102102D01*
X148176Y102655D01*
X147200Y102849D01*
X135286D01*
X135053Y103153D01*
X134217Y103794D01*
X133244Y104197D01*
X132200Y104334D01*
D02*
G37*
G36*
X137549Y46500D02*
X133500D01*
Y43451D01*
X135000D01*
X135976Y43645D01*
X136802Y44198D01*
X137355Y45024D01*
X137549Y46000D01*
Y46500D01*
D02*
G37*
G36*
X177549D02*
X173500D01*
Y43451D01*
X175000D01*
X175976Y43645D01*
X176802Y44198D01*
X177355Y45024D01*
X177549Y46000D01*
Y46500D01*
D02*
G37*
G36*
X106750Y47528D02*
X103250D01*
X102402Y47416D01*
X101611Y47089D01*
X100932Y46568D01*
X100411Y45889D01*
X100084Y45098D01*
X100000Y44463D01*
X99496D01*
X99429Y44968D01*
X99152Y45637D01*
X98711Y46211D01*
X98137Y46652D01*
X97468Y46929D01*
X96750Y47024D01*
X96000D01*
Y42500D01*
Y37976D01*
X96750D01*
X97468Y38071D01*
X98137Y38348D01*
X98711Y38789D01*
X99152Y39363D01*
X99429Y40032D01*
X99496Y40537D01*
X100000D01*
X100084Y39902D01*
X100411Y39111D01*
X100932Y38432D01*
X101611Y37911D01*
X102402Y37584D01*
X103250Y37472D01*
X106750D01*
X107598Y37584D01*
X108389Y37911D01*
X109068Y38432D01*
X109589Y39111D01*
X109916Y39902D01*
X110028Y40750D01*
Y44250D01*
X109916Y45098D01*
X109589Y45889D01*
X109068Y46568D01*
X108389Y47089D01*
X107598Y47416D01*
X106750Y47528D01*
D02*
G37*
G36*
X94000Y47024D02*
X93250D01*
X92532Y46929D01*
X91863Y46652D01*
X91289Y46211D01*
X90848Y45637D01*
X90571Y44968D01*
X90476Y44250D01*
Y43500D01*
X94000D01*
Y47024D01*
D02*
G37*
G36*
X59000Y44000D02*
X55951D01*
Y42500D01*
X56145Y41524D01*
X56698Y40698D01*
X57525Y40145D01*
X58500Y39951D01*
X59000D01*
Y44000D01*
D02*
G37*
G36*
X51500Y50526D02*
X48500D01*
X47717Y50423D01*
X46987Y50121D01*
X46360Y49640D01*
X45880Y49013D01*
X45577Y48283D01*
X45474Y47500D01*
Y42500D01*
X45577Y41717D01*
X45880Y40987D01*
X46360Y40360D01*
X46987Y39880D01*
X47717Y39577D01*
X48500Y39474D01*
X51500D01*
X52283Y39577D01*
X53013Y39880D01*
X53640Y40360D01*
X54120Y40987D01*
X54423Y41717D01*
X54526Y42500D01*
Y47500D01*
X54423Y48283D01*
X54120Y49013D01*
X53640Y49640D01*
X53013Y50121D01*
X52283Y50423D01*
X51500Y50526D01*
D02*
G37*
G36*
X64049Y44000D02*
X61000D01*
Y39951D01*
X61500D01*
X62476Y40145D01*
X63302Y40698D01*
X63855Y41524D01*
X64049Y42500D01*
Y44000D01*
D02*
G37*
G36*
X121500Y46500D02*
X117451D01*
Y46000D01*
X117645Y45024D01*
X118198Y44198D01*
X119025Y43645D01*
X120000Y43451D01*
X121500D01*
Y46500D01*
D02*
G37*
G36*
X199500Y53030D02*
X195500D01*
X194586Y52910D01*
X193735Y52557D01*
X193004Y51996D01*
X192443Y51265D01*
X192090Y50414D01*
X191970Y49500D01*
Y45500D01*
X192090Y44586D01*
X192443Y43735D01*
X193004Y43004D01*
X193735Y42443D01*
X194586Y42090D01*
X195500Y41970D01*
X199500D01*
X200414Y42090D01*
X201265Y42443D01*
X201996Y43004D01*
X202557Y43735D01*
X202910Y44586D01*
X203030Y45500D01*
Y49500D01*
X202910Y50414D01*
X202557Y51265D01*
X201996Y51996D01*
X201265Y52557D01*
X200414Y52910D01*
X199500Y53030D01*
D02*
G37*
G36*
X216750Y92528D02*
X213250D01*
X212402Y92416D01*
X211611Y92089D01*
X210932Y91568D01*
X210411Y90889D01*
X210084Y90098D01*
X209972Y89250D01*
Y85750D01*
X210084Y84902D01*
X210411Y84111D01*
X210932Y83432D01*
X211611Y82911D01*
X212402Y82584D01*
X213037Y82500D01*
Y81996D01*
X212532Y81929D01*
X211863Y81652D01*
X211289Y81211D01*
X210848Y80637D01*
X210571Y79968D01*
X210476Y79250D01*
Y78500D01*
X215000D01*
X219524D01*
Y79250D01*
X219429Y79968D01*
X219152Y80637D01*
X218711Y81211D01*
X218137Y81652D01*
X217468Y81929D01*
X216963Y81996D01*
Y82500D01*
X217598Y82584D01*
X218389Y82911D01*
X219068Y83432D01*
X219589Y84111D01*
X219916Y84902D01*
X220028Y85750D01*
Y89250D01*
X219916Y90098D01*
X219589Y90889D01*
X219068Y91568D01*
X218389Y92089D01*
X217598Y92416D01*
X216750Y92528D01*
D02*
G37*
G36*
X135000Y167026D02*
X130000D01*
X129217Y166923D01*
X128487Y166621D01*
X127860Y166140D01*
X127750Y165996D01*
X127250D01*
X127140Y166140D01*
X126513Y166621D01*
X125783Y166923D01*
X125000Y167026D01*
X120000D01*
X119217Y166923D01*
X118487Y166621D01*
X117860Y166140D01*
X117379Y165513D01*
X117077Y164783D01*
X116974Y164000D01*
Y161000D01*
X117077Y160217D01*
X117379Y159487D01*
X117860Y158860D01*
X118487Y158379D01*
X119217Y158077D01*
X120000Y157974D01*
X125000D01*
X125783Y158077D01*
X126513Y158379D01*
X127140Y158860D01*
X127250Y159004D01*
X127750D01*
X127860Y158860D01*
X128487Y158379D01*
X129217Y158077D01*
X130000Y157974D01*
X135000D01*
X135783Y158077D01*
X136513Y158379D01*
X137140Y158860D01*
X137620Y159487D01*
X137923Y160217D01*
X138026Y161000D01*
Y164000D01*
X137923Y164783D01*
X137620Y165513D01*
X137140Y166140D01*
X136513Y166621D01*
X135783Y166923D01*
X135000Y167026D01*
D02*
G37*
G36*
X152500Y179034D02*
X151456Y178897D01*
X150483Y178494D01*
X149647Y177853D01*
X149006Y177017D01*
X148603Y176044D01*
X148466Y175000D01*
X148603Y173956D01*
X149006Y172983D01*
X149647Y172147D01*
X149951Y171914D01*
Y162500D01*
X150145Y161524D01*
X150698Y160698D01*
X157023Y154372D01*
X156974Y154000D01*
Y151000D01*
X157077Y150217D01*
X157379Y149487D01*
X157860Y148860D01*
X158487Y148380D01*
X159217Y148077D01*
X160000Y147974D01*
X165000D01*
X165783Y148077D01*
X166513Y148380D01*
X167140Y148860D01*
X167504Y149335D01*
X168072Y149386D01*
X168198Y149197D01*
X169025Y148645D01*
X170000Y148451D01*
X171500D01*
Y152500D01*
Y156549D01*
X170000D01*
X169025Y156355D01*
X168198Y155802D01*
X168072Y155614D01*
X167504Y155664D01*
X167140Y156140D01*
X166513Y156621D01*
X165783Y156923D01*
X165000Y157026D01*
X161579D01*
X161093Y157512D01*
X161284Y157974D01*
X165000D01*
X165783Y158077D01*
X166513Y158379D01*
X167140Y158860D01*
X167250Y159004D01*
X167750D01*
X167860Y158860D01*
X168487Y158379D01*
X169217Y158077D01*
X170000Y157974D01*
X175000D01*
X175783Y158077D01*
X176513Y158379D01*
X177140Y158860D01*
X177620Y159487D01*
X177923Y160217D01*
X178026Y161000D01*
Y164000D01*
X177923Y164783D01*
X177620Y165513D01*
X177140Y166140D01*
X176513Y166621D01*
X175783Y166923D01*
X175000Y167026D01*
X170000D01*
X169217Y166923D01*
X168487Y166621D01*
X167860Y166140D01*
X167750Y165996D01*
X167250D01*
X167140Y166140D01*
X166513Y166621D01*
X165783Y166923D01*
X165000Y167026D01*
X160000D01*
X159217Y166923D01*
X158487Y166621D01*
X157860Y166140D01*
X157379Y165513D01*
X157077Y164783D01*
X156974Y164000D01*
Y162284D01*
X156512Y162093D01*
X155049Y163556D01*
Y171914D01*
X155353Y172147D01*
X155994Y172983D01*
X156397Y173956D01*
X156535Y175000D01*
X156397Y176044D01*
X155994Y177017D01*
X155353Y177853D01*
X154517Y178494D01*
X153544Y178897D01*
X152500Y179034D01*
D02*
G37*
G36*
X201750Y197528D02*
X198250D01*
X197402Y197416D01*
X196611Y197089D01*
X195932Y196568D01*
X195411Y195889D01*
X195084Y195098D01*
X194972Y194250D01*
Y190750D01*
X195084Y189902D01*
X195411Y189111D01*
X195932Y188432D01*
X196611Y187911D01*
X196950Y187771D01*
Y187229D01*
X196611Y187089D01*
X195932Y186568D01*
X195411Y185889D01*
X195084Y185098D01*
X194972Y184250D01*
Y180750D01*
X195084Y179902D01*
X195411Y179111D01*
X195932Y178432D01*
X196611Y177911D01*
X196950Y177771D01*
Y177229D01*
X196611Y177089D01*
X195932Y176568D01*
X195411Y175889D01*
X195084Y175098D01*
X194972Y174250D01*
Y170750D01*
X195084Y169902D01*
X195411Y169111D01*
X195932Y168432D01*
X196611Y167911D01*
X197402Y167584D01*
X198250Y167472D01*
X201750D01*
X202598Y167584D01*
X203389Y167911D01*
X204068Y168432D01*
X204589Y169111D01*
X204916Y169902D01*
X205028Y170750D01*
Y174250D01*
X204916Y175098D01*
X204589Y175889D01*
X204068Y176568D01*
X203389Y177089D01*
X203050Y177229D01*
Y177771D01*
X203389Y177911D01*
X204068Y178432D01*
X204589Y179111D01*
X204916Y179902D01*
X205028Y180750D01*
Y184250D01*
X204916Y185098D01*
X204589Y185889D01*
X204068Y186568D01*
X203389Y187089D01*
X203050Y187229D01*
Y187771D01*
X203389Y187911D01*
X204068Y188432D01*
X204589Y189111D01*
X204916Y189902D01*
X205028Y190750D01*
Y194250D01*
X204916Y195098D01*
X204589Y195889D01*
X204068Y196568D01*
X203389Y197089D01*
X202598Y197416D01*
X201750Y197528D01*
D02*
G37*
G36*
X135000Y177026D02*
X130000D01*
X129217Y176923D01*
X128487Y176620D01*
X127860Y176140D01*
X127380Y175513D01*
X127187Y175049D01*
X108086D01*
X107853Y175353D01*
X107017Y175994D01*
X106044Y176397D01*
X105000Y176534D01*
X103956Y176397D01*
X102983Y175994D01*
X102147Y175353D01*
X101506Y174517D01*
X101103Y173544D01*
X100965Y172500D01*
X101103Y171456D01*
X101506Y170483D01*
X102147Y169647D01*
X102983Y169006D01*
X103956Y168603D01*
X105000Y168465D01*
X106044Y168603D01*
X107017Y169006D01*
X107853Y169647D01*
X108086Y169951D01*
X127187D01*
X127380Y169487D01*
X127860Y168860D01*
X128487Y168379D01*
X129217Y168077D01*
X130000Y167974D01*
X135000D01*
X135783Y168077D01*
X136513Y168379D01*
X137140Y168860D01*
X137620Y169487D01*
X137923Y170217D01*
X138026Y171000D01*
Y174000D01*
X137923Y174783D01*
X137620Y175513D01*
X137140Y176140D01*
X136513Y176620D01*
X135783Y176923D01*
X135000Y177026D01*
D02*
G37*
G36*
X165000D02*
X160000D01*
X159217Y176923D01*
X158487Y176620D01*
X157860Y176140D01*
X157379Y175513D01*
X157077Y174783D01*
X156974Y174000D01*
Y171000D01*
X157077Y170217D01*
X157379Y169487D01*
X157860Y168860D01*
X158487Y168379D01*
X159217Y168077D01*
X160000Y167974D01*
X165000D01*
X165783Y168077D01*
X166513Y168379D01*
X167140Y168860D01*
X167621Y169487D01*
X167923Y170217D01*
X168026Y171000D01*
Y174000D01*
X167923Y174783D01*
X167621Y175513D01*
X167140Y176140D01*
X166513Y176620D01*
X165783Y176923D01*
X165000Y177026D01*
D02*
G37*
G36*
X121500Y156549D02*
X120000D01*
X119025Y156355D01*
X118198Y155802D01*
X117645Y154975D01*
X117451Y154000D01*
Y153500D01*
X121500D01*
Y156549D01*
D02*
G37*
G36*
X106750Y155028D02*
X103250D01*
X102402Y154916D01*
X101611Y154589D01*
X100932Y154068D01*
X100411Y153389D01*
X100084Y152598D01*
X100000Y151963D01*
X99496D01*
X99429Y152468D01*
X99152Y153137D01*
X98711Y153711D01*
X98137Y154152D01*
X97468Y154429D01*
X96750Y154524D01*
X96000D01*
Y150000D01*
Y145476D01*
X96750D01*
X97468Y145571D01*
X98137Y145848D01*
X98711Y146289D01*
X99152Y146863D01*
X99429Y147532D01*
X99496Y148037D01*
X100000D01*
X100084Y147402D01*
X100411Y146611D01*
X100932Y145932D01*
X101611Y145411D01*
X102402Y145084D01*
X103250Y144972D01*
X106750D01*
X107598Y145084D01*
X108389Y145411D01*
X109068Y145932D01*
X109589Y146611D01*
X109916Y147402D01*
X110028Y148250D01*
Y151750D01*
X109916Y152598D01*
X109589Y153389D01*
X109068Y154068D01*
X108389Y154589D01*
X107598Y154916D01*
X106750Y155028D01*
D02*
G37*
G36*
X175000Y156549D02*
X173500D01*
Y153500D01*
X177549D01*
Y154000D01*
X177355Y154975D01*
X176802Y155802D01*
X175976Y156355D01*
X175000Y156549D01*
D02*
G37*
G36*
X131500Y156549D02*
X130000D01*
X129025Y156355D01*
X128198Y155802D01*
X127784Y155184D01*
X127216Y155184D01*
X126802Y155802D01*
X125976Y156355D01*
X125000Y156549D01*
X123500D01*
Y152500D01*
Y148451D01*
X125000D01*
X125976Y148645D01*
X126802Y149197D01*
X127216Y149816D01*
X127785Y149816D01*
X128198Y149198D01*
X129025Y148645D01*
X130000Y148451D01*
X131500D01*
Y152500D01*
Y156549D01*
D02*
G37*
G36*
X135000D02*
X133500D01*
Y153500D01*
X137549D01*
Y154000D01*
X137355Y154975D01*
X136802Y155802D01*
X135976Y156355D01*
X135000Y156549D01*
D02*
G37*
G36*
Y187026D02*
X130000D01*
X129217Y186923D01*
X128487Y186620D01*
X127860Y186140D01*
X127380Y185513D01*
X127077Y184783D01*
X126974Y184000D01*
Y181000D01*
X127077Y180217D01*
X127380Y179487D01*
X127860Y178860D01*
X128487Y178379D01*
X129217Y178077D01*
X130000Y177974D01*
X135000D01*
X135783Y178077D01*
X136513Y178379D01*
X137140Y178860D01*
X137620Y179487D01*
X137923Y180217D01*
X138026Y181000D01*
Y184000D01*
X137923Y184783D01*
X137620Y185513D01*
X137140Y186140D01*
X136513Y186620D01*
X135783Y186923D01*
X135000Y187026D01*
D02*
G37*
G36*
X165000Y197026D02*
X160000D01*
X159217Y196923D01*
X158487Y196621D01*
X157860Y196140D01*
X157379Y195513D01*
X157077Y194783D01*
X156974Y194000D01*
Y191000D01*
X157077Y190217D01*
X157379Y189487D01*
X157860Y188860D01*
X158487Y188380D01*
X159217Y188077D01*
X160000Y187974D01*
X165000D01*
X165783Y188077D01*
X166513Y188380D01*
X167140Y188860D01*
X167621Y189487D01*
X167923Y190217D01*
X168026Y191000D01*
Y194000D01*
X167923Y194783D01*
X167621Y195513D01*
X167140Y196140D01*
X166513Y196621D01*
X165783Y196923D01*
X165000Y197026D01*
D02*
G37*
G36*
X216750Y197528D02*
X213250D01*
X212402Y197416D01*
X211611Y197089D01*
X210932Y196568D01*
X210411Y195889D01*
X210084Y195098D01*
X209972Y194250D01*
Y190750D01*
X210084Y189902D01*
X210411Y189111D01*
X210932Y188432D01*
X211611Y187911D01*
X212402Y187584D01*
X213037Y187500D01*
Y186996D01*
X212532Y186929D01*
X211863Y186652D01*
X211289Y186211D01*
X210848Y185637D01*
X210571Y184968D01*
X210476Y184250D01*
Y183500D01*
X215000D01*
X219524D01*
Y184250D01*
X219429Y184968D01*
X219152Y185637D01*
X218711Y186211D01*
X218137Y186652D01*
X217468Y186929D01*
X216963Y186996D01*
Y187500D01*
X217598Y187584D01*
X218389Y187911D01*
X219068Y188432D01*
X219589Y189111D01*
X219916Y189902D01*
X220028Y190750D01*
Y194250D01*
X219916Y195098D01*
X219589Y195889D01*
X219068Y196568D01*
X218389Y197089D01*
X217598Y197416D01*
X216750Y197528D01*
D02*
G37*
G36*
X138000Y197000D02*
X127000D01*
Y188000D01*
X138000D01*
Y197000D01*
D02*
G37*
G36*
X228171Y233842D02*
X216829D01*
X211157Y228171D01*
Y216829D01*
X216829Y211157D01*
X228171D01*
X233842Y216829D01*
Y228171D01*
X228171Y233842D01*
D02*
G37*
G36*
X20671D02*
X9329D01*
X3658Y228171D01*
Y216829D01*
X9329Y211157D01*
X20671D01*
X26342Y216829D01*
Y228171D01*
X20671Y233842D01*
D02*
G37*
G36*
X214000Y181500D02*
X210476D01*
Y180750D01*
X210571Y180032D01*
X210848Y179363D01*
X211289Y178789D01*
X211863Y178348D01*
X212532Y178071D01*
X213250Y177976D01*
X214000D01*
Y181500D01*
D02*
G37*
G36*
X165000Y187026D02*
X160000D01*
X159217Y186923D01*
X158487Y186620D01*
X157860Y186140D01*
X157379Y185513D01*
X157077Y184783D01*
X156974Y184000D01*
Y181000D01*
X157077Y180217D01*
X157379Y179487D01*
X157860Y178860D01*
X158487Y178379D01*
X159217Y178077D01*
X160000Y177974D01*
X165000D01*
X165783Y178077D01*
X166513Y178379D01*
X167140Y178860D01*
X167621Y179487D01*
X167923Y180217D01*
X168026Y181000D01*
Y184000D01*
X167923Y184783D01*
X167621Y185513D01*
X167140Y186140D01*
X166513Y186620D01*
X165783Y186923D01*
X165000Y187026D01*
D02*
G37*
G36*
X219524Y181500D02*
X216000D01*
Y177976D01*
X216750D01*
X217468Y178071D01*
X218137Y178348D01*
X218711Y178789D01*
X219152Y179363D01*
X219429Y180032D01*
X219524Y180750D01*
Y181500D01*
D02*
G37*
G36*
X111750Y210028D02*
X108250D01*
X107402Y209916D01*
X106611Y209589D01*
X105932Y209068D01*
X105411Y208389D01*
X105084Y207598D01*
X104972Y206750D01*
Y203250D01*
X105084Y202402D01*
X105411Y201611D01*
X105932Y200932D01*
X106611Y200411D01*
X106950Y200271D01*
Y199729D01*
X106611Y199589D01*
X105932Y199068D01*
X105411Y198389D01*
X105084Y197598D01*
X104972Y196750D01*
Y193250D01*
X105084Y192402D01*
X105411Y191611D01*
X105932Y190932D01*
X106611Y190411D01*
X106950Y190271D01*
Y189729D01*
X106611Y189589D01*
X105932Y189068D01*
X105411Y188389D01*
X105084Y187598D01*
X104972Y186750D01*
Y183250D01*
X105084Y182402D01*
X105411Y181611D01*
X105932Y180932D01*
X106611Y180411D01*
X107402Y180084D01*
X108250Y179972D01*
X111750D01*
X112598Y180084D01*
X113389Y180411D01*
X114068Y180932D01*
X114589Y181611D01*
X114916Y182402D01*
X115028Y183250D01*
Y186750D01*
X114916Y187598D01*
X114589Y188389D01*
X114068Y189068D01*
X113389Y189589D01*
X113050Y189729D01*
Y190271D01*
X113389Y190411D01*
X114068Y190932D01*
X114589Y191611D01*
X114916Y192402D01*
X115028Y193250D01*
Y196750D01*
X114916Y197598D01*
X114589Y198389D01*
X114068Y199068D01*
X113389Y199589D01*
X113050Y199729D01*
Y200271D01*
X113389Y200411D01*
X114068Y200932D01*
X114589Y201611D01*
X114916Y202402D01*
X115028Y203250D01*
Y206750D01*
X114916Y207598D01*
X114589Y208389D01*
X114068Y209068D01*
X113389Y209589D01*
X112598Y209916D01*
X111750Y210028D01*
D02*
G37*
G36*
X94250D02*
X90750D01*
X89902Y209916D01*
X89111Y209589D01*
X88432Y209068D01*
X87911Y208389D01*
X87584Y207598D01*
X87472Y206750D01*
Y203250D01*
X87584Y202402D01*
X87911Y201611D01*
X88432Y200932D01*
X89111Y200411D01*
X89450Y200271D01*
Y199729D01*
X89111Y199589D01*
X88432Y199068D01*
X87911Y198389D01*
X87584Y197598D01*
X87472Y196750D01*
Y193250D01*
X87584Y192402D01*
X87911Y191611D01*
X88432Y190932D01*
X89111Y190411D01*
X89450Y190271D01*
Y189729D01*
X89111Y189589D01*
X88432Y189068D01*
X87911Y188389D01*
X87584Y187598D01*
X87472Y186750D01*
Y183250D01*
X87584Y182402D01*
X87911Y181611D01*
X88432Y180932D01*
X89111Y180411D01*
X89902Y180084D01*
X90750Y179972D01*
X94250D01*
X95098Y180084D01*
X95889Y180411D01*
X96568Y180932D01*
X97089Y181611D01*
X97416Y182402D01*
X97528Y183250D01*
Y186750D01*
X97416Y187598D01*
X97089Y188389D01*
X96568Y189068D01*
X95889Y189589D01*
X95550Y189729D01*
Y190271D01*
X95889Y190411D01*
X96568Y190932D01*
X97089Y191611D01*
X97416Y192402D01*
X97528Y193250D01*
Y196750D01*
X97416Y197598D01*
X97089Y198389D01*
X96568Y199068D01*
X95889Y199589D01*
X95550Y199729D01*
Y200271D01*
X95889Y200411D01*
X96568Y200932D01*
X97089Y201611D01*
X97416Y202402D01*
X97528Y203250D01*
Y206750D01*
X97416Y207598D01*
X97089Y208389D01*
X96568Y209068D01*
X95889Y209589D01*
X95098Y209916D01*
X94250Y210028D01*
D02*
G37*
G36*
X94000Y154524D02*
X93250D01*
X92532Y154429D01*
X91863Y154152D01*
X91289Y153711D01*
X90848Y153137D01*
X90571Y152468D01*
X90476Y151750D01*
Y151000D01*
X94000D01*
Y154524D01*
D02*
G37*
G36*
X14000Y114000D02*
X8970D01*
Y112500D01*
X9090Y111586D01*
X9443Y110735D01*
X10004Y110004D01*
X10735Y109443D01*
X11586Y109090D01*
X12500Y108970D01*
X14000D01*
Y114000D01*
D02*
G37*
G36*
X17500Y101534D02*
X12500D01*
X11456Y101397D01*
X10483Y100994D01*
X9647Y100353D01*
X9006Y99517D01*
X8603Y98544D01*
X8466Y97500D01*
Y92500D01*
X8603Y91456D01*
X9006Y90483D01*
X9647Y89647D01*
X10483Y89006D01*
X11456Y88603D01*
X12500Y88465D01*
X17500D01*
X18544Y88603D01*
X19517Y89006D01*
X20353Y89647D01*
X20994Y90483D01*
X21397Y91456D01*
X21534Y92500D01*
Y97500D01*
X21397Y98544D01*
X20994Y99517D01*
X20353Y100353D01*
X19517Y100994D01*
X18544Y101397D01*
X17500Y101534D01*
D02*
G37*
G36*
X21030Y114000D02*
X16000D01*
Y108970D01*
X17500D01*
X18414Y109090D01*
X19265Y109443D01*
X19996Y110004D01*
X20557Y110735D01*
X20910Y111586D01*
X21030Y112500D01*
Y114000D01*
D02*
G37*
G36*
X14000Y121030D02*
X12500D01*
X11586Y120910D01*
X10735Y120557D01*
X10004Y119996D01*
X9443Y119265D01*
X9090Y118414D01*
X8970Y117500D01*
Y116000D01*
X14000D01*
Y121030D01*
D02*
G37*
G36*
X62500Y124526D02*
X57500D01*
X56717Y124423D01*
X55987Y124120D01*
X55360Y123640D01*
X54879Y123013D01*
X54577Y122283D01*
X54474Y121500D01*
Y118500D01*
X54577Y117717D01*
X54879Y116987D01*
X55360Y116360D01*
X55987Y115879D01*
X56717Y115577D01*
X57500Y115474D01*
X62500D01*
X63283Y115577D01*
X64013Y115879D01*
X64640Y116360D01*
X65121Y116987D01*
X65423Y117717D01*
X65526Y118500D01*
Y121500D01*
X65423Y122283D01*
X65121Y123013D01*
X64640Y123640D01*
X64013Y124120D01*
X63283Y124423D01*
X62500Y124526D01*
D02*
G37*
G36*
Y84049D02*
X61000D01*
Y81000D01*
X65049D01*
Y81500D01*
X64855Y82476D01*
X64302Y83302D01*
X63476Y83855D01*
X62500Y84049D01*
D02*
G37*
G36*
X59000D02*
X57500D01*
X56524Y83855D01*
X55698Y83302D01*
X55145Y82476D01*
X54951Y81500D01*
Y81000D01*
X59000D01*
Y84049D01*
D02*
G37*
G36*
X165000Y92026D02*
X160000D01*
X159217Y91923D01*
X158487Y91620D01*
X157860Y91140D01*
X157379Y90513D01*
X157077Y89783D01*
X156974Y89000D01*
Y86000D01*
X157077Y85217D01*
X157379Y84487D01*
X157860Y83860D01*
X158487Y83380D01*
X159217Y83077D01*
X160000Y82974D01*
X165000D01*
X165783Y83077D01*
X166513Y83380D01*
X167140Y83860D01*
X167621Y84487D01*
X167923Y85217D01*
X168026Y86000D01*
Y89000D01*
X167923Y89783D01*
X167621Y90513D01*
X167140Y91140D01*
X166513Y91620D01*
X165783Y91923D01*
X165000Y92026D01*
D02*
G37*
G36*
X62500Y94526D02*
X57500D01*
X56717Y94423D01*
X55987Y94121D01*
X55360Y93640D01*
X54879Y93013D01*
X54577Y92283D01*
X54474Y91500D01*
Y88500D01*
X54577Y87717D01*
X54879Y86987D01*
X55360Y86360D01*
X55987Y85879D01*
X56717Y85577D01*
X57500Y85474D01*
X62500D01*
X63283Y85577D01*
X64013Y85879D01*
X64640Y86360D01*
X65121Y86987D01*
X65423Y87717D01*
X65526Y88500D01*
Y91500D01*
X65423Y92283D01*
X65121Y93013D01*
X64640Y93640D01*
X64013Y94121D01*
X63283Y94423D01*
X62500Y94526D01*
D02*
G37*
G36*
X138000Y92000D02*
X127000D01*
Y83000D01*
X138000D01*
Y92000D01*
D02*
G37*
G36*
X17500Y121030D02*
X16000D01*
Y116000D01*
X21030D01*
Y117500D01*
X20910Y118414D01*
X20557Y119265D01*
X19996Y119996D01*
X19265Y120557D01*
X18414Y120910D01*
X17500Y121030D01*
D02*
G37*
G36*
X199500Y158030D02*
X195500D01*
X194586Y157910D01*
X193735Y157557D01*
X193004Y156996D01*
X192443Y156265D01*
X192090Y155414D01*
X191970Y154500D01*
Y150500D01*
X192090Y149586D01*
X192443Y148735D01*
X193004Y148004D01*
X193735Y147443D01*
X194586Y147090D01*
X195500Y146970D01*
X199500D01*
X200414Y147090D01*
X201265Y147443D01*
X201996Y148004D01*
X202557Y148735D01*
X202910Y149586D01*
X203030Y150500D01*
Y154500D01*
X202910Y155414D01*
X202557Y156265D01*
X201996Y156996D01*
X201265Y157557D01*
X200414Y157910D01*
X199500Y158030D01*
D02*
G37*
G36*
X94000Y149000D02*
X90476D01*
Y148250D01*
X90571Y147532D01*
X90848Y146863D01*
X91289Y146289D01*
X91863Y145848D01*
X92532Y145571D01*
X93250Y145476D01*
X94000D01*
Y149000D01*
D02*
G37*
G36*
X121500Y151500D02*
X117451D01*
Y151000D01*
X117645Y150024D01*
X118198Y149197D01*
X119025Y148645D01*
X120000Y148451D01*
X121500D01*
Y151500D01*
D02*
G37*
G36*
X137549Y151500D02*
X133500D01*
Y148451D01*
X135000D01*
X135976Y148645D01*
X136802Y149198D01*
X137355Y150024D01*
X137549Y151000D01*
Y151500D01*
D02*
G37*
G36*
X177549Y151500D02*
X173500D01*
Y148451D01*
X175000D01*
X175976Y148645D01*
X176802Y149197D01*
X177355Y150024D01*
X177549Y151000D01*
Y151500D01*
D02*
G37*
G36*
X135000Y137026D02*
X130000D01*
X129217Y136923D01*
X128487Y136620D01*
X127860Y136140D01*
X127380Y135513D01*
X127077Y134783D01*
X126974Y134000D01*
Y131000D01*
X127077Y130217D01*
X127380Y129487D01*
X127860Y128860D01*
X128487Y128379D01*
X129217Y128077D01*
X130000Y127974D01*
X135000D01*
X135783Y128077D01*
X136513Y128379D01*
X137140Y128860D01*
X137620Y129487D01*
X137923Y130217D01*
X138026Y131000D01*
Y134000D01*
X137923Y134783D01*
X137620Y135513D01*
X137140Y136140D01*
X136513Y136620D01*
X135783Y136923D01*
X135000Y137026D01*
D02*
G37*
G36*
X62500Y134526D02*
X57500D01*
X56717Y134423D01*
X55987Y134121D01*
X55360Y133640D01*
X54879Y133013D01*
X54577Y132283D01*
X54474Y131500D01*
Y128500D01*
X54577Y127717D01*
X54879Y126987D01*
X55360Y126360D01*
X55987Y125880D01*
X56717Y125577D01*
X57500Y125474D01*
X62500D01*
X63283Y125577D01*
X64013Y125880D01*
X64640Y126360D01*
X65121Y126987D01*
X65423Y127717D01*
X65526Y128500D01*
Y131500D01*
X65423Y132283D01*
X65121Y133013D01*
X64640Y133640D01*
X64013Y134121D01*
X63283Y134423D01*
X62500Y134526D01*
D02*
G37*
G36*
X165000Y147026D02*
X160000D01*
X159217Y146923D01*
X158487Y146621D01*
X157860Y146140D01*
X157379Y145513D01*
X157077Y144783D01*
X156974Y144000D01*
Y141000D01*
X157023Y140628D01*
X138944Y122549D01*
X118086D01*
X117853Y122853D01*
X117017Y123494D01*
X116044Y123897D01*
X115000Y124035D01*
X113956Y123897D01*
X112983Y123494D01*
X112147Y122853D01*
X111506Y122017D01*
X111103Y121044D01*
X110966Y120000D01*
X111103Y118956D01*
X111506Y117983D01*
X112147Y117147D01*
X112983Y116506D01*
X113956Y116103D01*
X115000Y115965D01*
X116044Y116103D01*
X117017Y116506D01*
X117853Y117147D01*
X118086Y117451D01*
X140000D01*
X140975Y117645D01*
X141802Y118198D01*
X156512Y132907D01*
X156974Y132716D01*
Y131000D01*
X157077Y130217D01*
X157379Y129487D01*
X157860Y128860D01*
X158487Y128379D01*
X159217Y128077D01*
X160000Y127974D01*
X165000D01*
X165783Y128077D01*
X166513Y128379D01*
X167140Y128860D01*
X167621Y129487D01*
X167923Y130217D01*
X168026Y131000D01*
Y134000D01*
X167923Y134783D01*
X167621Y135513D01*
X167140Y136140D01*
X166513Y136620D01*
X165783Y136923D01*
X165000Y137026D01*
X161284D01*
X161093Y137488D01*
X161579Y137974D01*
X165000D01*
X165783Y138077D01*
X166513Y138380D01*
X167140Y138860D01*
X167621Y139487D01*
X167923Y140217D01*
X168026Y141000D01*
Y144000D01*
X167923Y144783D01*
X167621Y145513D01*
X167140Y146140D01*
X166513Y146621D01*
X165783Y146923D01*
X165000Y147026D01*
D02*
G37*
G36*
X135000D02*
X130000D01*
X129217Y146923D01*
X128487Y146621D01*
X127860Y146140D01*
X127380Y145513D01*
X127077Y144783D01*
X126974Y144000D01*
Y141000D01*
X127077Y140217D01*
X127380Y139487D01*
X127860Y138860D01*
X128487Y138380D01*
X129217Y138077D01*
X130000Y137974D01*
X135000D01*
X135783Y138077D01*
X136513Y138380D01*
X137140Y138860D01*
X137620Y139487D01*
X137923Y140217D01*
X138026Y141000D01*
Y144000D01*
X137923Y144783D01*
X137620Y145513D01*
X137140Y146140D01*
X136513Y146621D01*
X135783Y146923D01*
X135000Y147026D01*
D02*
G37*
G36*
X17500Y141534D02*
X12500D01*
X11456Y141397D01*
X10483Y140994D01*
X9647Y140353D01*
X9006Y139517D01*
X8603Y138544D01*
X8466Y137500D01*
Y132500D01*
X8603Y131456D01*
X9006Y130483D01*
X9647Y129647D01*
X10483Y129006D01*
X11456Y128603D01*
X12500Y128465D01*
X17500D01*
X18544Y128603D01*
X19517Y129006D01*
X20353Y129647D01*
X20994Y130483D01*
X21397Y131456D01*
X21534Y132500D01*
Y137500D01*
X21397Y138544D01*
X20994Y139517D01*
X20353Y140353D01*
X19517Y140994D01*
X18544Y141397D01*
X17500Y141534D01*
D02*
G37*
%LPD*%
D10*
X132200Y100300D02*
X147200D01*
X152500Y95000D01*
Y52500D02*
Y95000D01*
Y52500D02*
X157500Y47500D01*
X162500D01*
X152500Y162500D02*
Y175000D01*
Y162500D02*
X162500Y152500D01*
X105000Y67500D02*
X132500D01*
X105000Y172500D02*
X132500D01*
X140000Y120000D02*
X162500Y142500D01*
X115000Y120000D02*
X140000D01*
X142500Y17500D02*
X162500Y37500D01*
X115000Y17500D02*
X142500D01*
D11*
X110000Y77500D02*
D03*
Y87500D02*
D03*
Y97500D02*
D03*
X92500Y205000D02*
D03*
Y195000D02*
D03*
Y185000D02*
D03*
X200000Y192500D02*
D03*
Y182500D02*
D03*
Y172500D02*
D03*
X110000Y185000D02*
D03*
Y195000D02*
D03*
Y205000D02*
D03*
X200000Y87500D02*
D03*
Y77500D02*
D03*
Y67500D02*
D03*
X92500Y97500D02*
D03*
Y87500D02*
D03*
Y77500D02*
D03*
X215000Y192500D02*
D03*
Y182500D02*
D03*
Y87500D02*
D03*
Y77500D02*
D03*
D12*
X15000Y95000D02*
D03*
Y75000D02*
D03*
Y135000D02*
D03*
Y115000D02*
D03*
D13*
X60000Y130000D02*
D03*
Y120000D02*
D03*
Y70000D02*
D03*
Y80000D02*
D03*
Y90000D02*
D03*
X122500Y162500D02*
D03*
Y152500D02*
D03*
X172500Y162500D02*
D03*
Y152500D02*
D03*
X122500Y57500D02*
D03*
Y47500D02*
D03*
X172500Y57500D02*
D03*
Y47500D02*
D03*
D14*
X95000Y150000D02*
D03*
X105000D02*
D03*
X95000Y42500D02*
D03*
X105000D02*
D03*
D15*
X50000Y22500D02*
D03*
X60000D02*
D03*
X50000Y45000D02*
D03*
X60000D02*
D03*
D16*
X197500Y47500D02*
D03*
Y152500D02*
D03*
D17*
X15000Y15000D02*
D03*
X222500D02*
D03*
Y222500D02*
D03*
X15000D02*
D03*
D18*
X132500Y87500D02*
D03*
Y192500D02*
D03*
D19*
Y77500D02*
D03*
Y67500D02*
D03*
Y57500D02*
D03*
Y47500D02*
D03*
Y37500D02*
D03*
Y27500D02*
D03*
X162500Y87500D02*
D03*
Y77500D02*
D03*
Y67500D02*
D03*
Y57500D02*
D03*
Y47500D02*
D03*
Y37500D02*
D03*
Y27500D02*
D03*
X132500Y182500D02*
D03*
Y172500D02*
D03*
Y162500D02*
D03*
Y152500D02*
D03*
Y142500D02*
D03*
Y132500D02*
D03*
X162500Y192500D02*
D03*
Y182500D02*
D03*
Y172500D02*
D03*
Y162500D02*
D03*
Y152500D02*
D03*
Y142500D02*
D03*
Y132500D02*
D03*
D20*
X115000Y17500D02*
D03*
Y120000D02*
D03*
X152500Y175000D02*
D03*
X132200Y100300D02*
D03*
X105000Y172500D02*
D03*
Y67500D02*
D03*
X187500Y80000D02*
D03*
X185000Y47500D02*
D03*
Y152500D02*
D03*
X187500Y182500D02*
D03*
X57500Y172500D02*
D03*
X10000D02*
D03*
Y195000D02*
D03*
X182500Y115000D02*
D03*
X220000D02*
D03*
X177500Y225000D02*
D03*
X45000D02*
D03*
X15000Y42500D02*
D03*
X165000Y10000D02*
D03*
X202500D02*
D03*
X227500Y47500D02*
D03*
X95000Y120000D02*
D03*
X220000Y152500D02*
D03*
X45000Y195000D02*
D03*
X140000Y225000D02*
D03*
X85000D02*
D03*
M02*
