G04 Layer_Color=2752767*
%FSLAX25Y25*%
%MOIN*%
G70*
G01*
G75*
%ADD41C,0.00200*%
%ADD42C,0.00267*%
D41*
X109200Y76700D02*
Y78300D01*
X110800D01*
Y76700D01*
X109200D01*
Y86700D02*
Y88300D01*
X110800D01*
Y86700D01*
X109200D01*
Y96700D02*
Y98300D01*
X110800D01*
Y96700D01*
X109200D01*
X91700Y204200D02*
Y205800D01*
X93300D01*
Y204200D01*
X91700D01*
Y194200D02*
Y195800D01*
X93300D01*
Y194200D01*
X91700D01*
Y184200D02*
Y185800D01*
X93300D01*
Y184200D01*
X91700D01*
X199200Y191700D02*
Y193300D01*
X200800D01*
Y191700D01*
X199200D01*
Y181700D02*
Y183300D01*
X200800D01*
Y181700D01*
X199200D01*
Y171700D02*
Y173300D01*
X200800D01*
Y171700D01*
X199200D01*
X109200Y184200D02*
Y185800D01*
X110800D01*
Y184200D01*
X109200D01*
Y194200D02*
Y195800D01*
X110800D01*
Y194200D01*
X109200D01*
Y204200D02*
Y205800D01*
X110800D01*
Y204200D01*
X109200D01*
X199200Y86700D02*
Y88300D01*
X200800D01*
Y86700D01*
X199200D01*
Y76700D02*
Y78300D01*
X200800D01*
Y76700D01*
X199200D01*
Y66700D02*
Y68300D01*
X200800D01*
Y66700D01*
X199200D01*
X91700Y96700D02*
Y98300D01*
X93300D01*
Y96700D01*
X91700D01*
Y86700D02*
Y88300D01*
X93300D01*
Y86700D01*
X91700D01*
Y76700D02*
Y78300D01*
X93300D01*
Y76700D01*
X91700D01*
X59200Y129200D02*
Y130800D01*
X60800D01*
Y129200D01*
X59200D01*
Y119200D02*
Y120800D01*
X60800D01*
Y119200D01*
X59200D01*
Y69200D02*
Y70800D01*
X60800D01*
Y69200D01*
X59200D01*
Y79200D02*
Y80800D01*
X60800D01*
Y79200D01*
X59200D01*
Y89200D02*
Y90800D01*
X60800D01*
Y89200D01*
X59200D01*
X94200Y149200D02*
Y150800D01*
X95800D01*
Y149200D01*
X94200D01*
X104200D02*
Y150800D01*
X105800D01*
Y149200D01*
X104200D01*
X94200Y41700D02*
Y43300D01*
X95800D01*
Y41700D01*
X94200D01*
X104200D02*
Y43300D01*
X105800D01*
Y41700D01*
X104200D01*
X49200Y21700D02*
Y23300D01*
X50800D01*
Y21700D01*
X49200D01*
X59200D02*
Y23300D01*
X60800D01*
Y21700D01*
X59200D01*
X49200Y44200D02*
Y45800D01*
X50800D01*
Y44200D01*
X49200D01*
X59200D02*
Y45800D01*
X60800D01*
Y44200D01*
X59200D01*
X121700Y161700D02*
Y163300D01*
X123300D01*
Y161700D01*
X121700D01*
Y151700D02*
Y153300D01*
X123300D01*
Y151700D01*
X121700D01*
X171700Y161700D02*
Y163300D01*
X173300D01*
Y161700D01*
X171700D01*
Y151700D02*
Y153300D01*
X173300D01*
Y151700D01*
X171700D01*
X121700Y56700D02*
Y58300D01*
X123300D01*
Y56700D01*
X121700D01*
Y46700D02*
Y48300D01*
X123300D01*
Y46700D01*
X121700D01*
X171700Y56700D02*
Y58300D01*
X173300D01*
Y56700D01*
X171700D01*
Y46700D02*
Y48300D01*
X173300D01*
Y46700D01*
X171700D01*
X197500D02*
X196700Y48300D01*
X198300D01*
X197500Y46700D01*
Y151700D02*
X196700Y153300D01*
X198300D01*
X197500Y151700D01*
X215000Y191700D02*
X214200Y193300D01*
X215800D01*
X215000Y191700D01*
Y181700D02*
X214200Y183300D01*
X215800D01*
X215000Y181700D01*
Y86700D02*
X214200Y88300D01*
X215800D01*
X215000Y86700D01*
Y76700D02*
X214200Y78300D01*
X215800D01*
X215000Y76700D01*
X15000Y14200D02*
X15400Y14600D01*
X15800D01*
X15400Y15000D01*
X15800Y15400D01*
X15400D01*
X15000Y15800D01*
X14600Y15400D01*
X14200D01*
X14600Y15000D01*
X14200Y14600D01*
X14600D01*
X15000Y14200D01*
X222500D02*
X222900Y14600D01*
X223300D01*
X222900Y15000D01*
X223300Y15400D01*
X222900D01*
X222500Y15800D01*
X222100Y15400D01*
X221700D01*
X222100Y15000D01*
X221700Y14600D01*
X222100D01*
X222500Y14200D01*
Y221700D02*
X222900Y222100D01*
X223300D01*
X222900Y222500D01*
X223300Y222900D01*
X222900D01*
X222500Y223300D01*
X222100Y222900D01*
X221700D01*
X222100Y222500D01*
X221700Y222100D01*
X222100D01*
X222500Y221700D01*
X15000D02*
X15400Y222100D01*
X15800D01*
X15400Y222500D01*
X15800Y222900D01*
X15400D01*
X15000Y223300D01*
X14600Y222900D01*
X14200D01*
X14600Y222500D01*
X14200Y222100D01*
X14600D01*
X15000Y221700D01*
X131700Y86700D02*
Y88300D01*
X133300D01*
Y86700D01*
X131700D01*
Y76700D02*
Y78300D01*
X133300D01*
Y76700D01*
X131700D01*
Y66700D02*
Y68300D01*
X133300D01*
Y66700D01*
X131700D01*
Y56700D02*
Y58300D01*
X133300D01*
Y56700D01*
X131700D01*
Y46700D02*
Y48300D01*
X133300D01*
Y46700D01*
X131700D01*
Y36700D02*
Y38300D01*
X133300D01*
Y36700D01*
X131700D01*
Y26700D02*
Y28300D01*
X133300D01*
Y26700D01*
X131700D01*
X161700Y86700D02*
Y88300D01*
X163300D01*
Y86700D01*
X161700D01*
Y76700D02*
Y78300D01*
X163300D01*
Y76700D01*
X161700D01*
Y66700D02*
Y68300D01*
X163300D01*
Y66700D01*
X161700D01*
Y56700D02*
Y58300D01*
X163300D01*
Y56700D01*
X161700D01*
Y46700D02*
Y48300D01*
X163300D01*
Y46700D01*
X161700D01*
Y36700D02*
Y38300D01*
X163300D01*
Y36700D01*
X161700D01*
Y26700D02*
Y28300D01*
X163300D01*
Y26700D01*
X161700D01*
X131700Y191700D02*
Y193300D01*
X133300D01*
Y191700D01*
X131700D01*
Y181700D02*
Y183300D01*
X133300D01*
Y181700D01*
X131700D01*
Y171700D02*
Y173300D01*
X133300D01*
Y171700D01*
X131700D01*
Y161700D02*
Y163300D01*
X133300D01*
Y161700D01*
X131700D01*
Y151700D02*
Y153300D01*
X133300D01*
Y151700D01*
X131700D01*
Y141700D02*
Y143300D01*
X133300D01*
Y141700D01*
X131700D01*
Y131700D02*
Y133300D01*
X133300D01*
Y131700D01*
X131700D01*
X161700Y191700D02*
Y193300D01*
X163300D01*
Y191700D01*
X161700D01*
Y181700D02*
Y183300D01*
X163300D01*
Y181700D01*
X161700D01*
Y171700D02*
Y173300D01*
X163300D01*
Y171700D01*
X161700D01*
Y161700D02*
Y163300D01*
X163300D01*
Y161700D01*
X161700D01*
Y151700D02*
Y153300D01*
X163300D01*
Y151700D01*
X161700D01*
Y141700D02*
Y143300D01*
X163300D01*
Y141700D01*
X161700D01*
Y131700D02*
Y133300D01*
X163300D01*
Y131700D01*
X161700D01*
X114200Y16700D02*
X114600Y17500D01*
X114200Y18300D01*
X115000Y17900D01*
X115800Y18300D01*
X115400Y17500D01*
X115800Y16700D01*
X115000Y17100D01*
X114200Y16700D01*
Y119200D02*
X114600Y120000D01*
X114200Y120800D01*
X115000Y120400D01*
X115800Y120800D01*
X115400Y120000D01*
X115800Y119200D01*
X115000Y119600D01*
X114200Y119200D01*
X151700Y174200D02*
X152100Y175000D01*
X151700Y175800D01*
X152500Y175400D01*
X153300Y175800D01*
X152900Y175000D01*
X153300Y174200D01*
X152500Y174600D01*
X151700Y174200D01*
X131400Y99500D02*
X131800Y100300D01*
X131400Y101100D01*
X132200Y100700D01*
X133000Y101100D01*
X132600Y100300D01*
X133000Y99500D01*
X132200Y99900D01*
X131400Y99500D01*
X104200Y171700D02*
X104600Y172500D01*
X104200Y173300D01*
X105000Y172900D01*
X105800Y173300D01*
X105400Y172500D01*
X105800Y171700D01*
X105000Y172100D01*
X104200Y171700D01*
Y66700D02*
X104600Y67500D01*
X104200Y68300D01*
X105000Y67900D01*
X105800Y68300D01*
X105400Y67500D01*
X105800Y66700D01*
X105000Y67100D01*
X104200Y66700D01*
X186700Y79200D02*
X187100Y80000D01*
X186700Y80800D01*
X187500Y80400D01*
X188300Y80800D01*
X187900Y80000D01*
X188300Y79200D01*
X187500Y79600D01*
X186700Y79200D01*
X184200Y46700D02*
X184600Y47500D01*
X184200Y48300D01*
X185000Y47900D01*
X185800Y48300D01*
X185400Y47500D01*
X185800Y46700D01*
X185000Y47100D01*
X184200Y46700D01*
Y151700D02*
X184600Y152500D01*
X184200Y153300D01*
X185000Y152900D01*
X185800Y153300D01*
X185400Y152500D01*
X185800Y151700D01*
X185000Y152100D01*
X184200Y151700D01*
X186700Y181700D02*
X187100Y182500D01*
X186700Y183300D01*
X187500Y182900D01*
X188300Y183300D01*
X187900Y182500D01*
X188300Y181700D01*
X187500Y182100D01*
X186700Y181700D01*
X56700Y171700D02*
X57100Y172500D01*
X56700Y173300D01*
X57500Y172900D01*
X58300Y173300D01*
X57900Y172500D01*
X58300Y171700D01*
X57500Y172100D01*
X56700Y171700D01*
X9200D02*
X9600Y172500D01*
X9200Y173300D01*
X10000Y172900D01*
X10800Y173300D01*
X10400Y172500D01*
X10800Y171700D01*
X10000Y172100D01*
X9200Y171700D01*
Y194200D02*
X9600Y195000D01*
X9200Y195800D01*
X10000Y195400D01*
X10800Y195800D01*
X10400Y195000D01*
X10800Y194200D01*
X10000Y194600D01*
X9200Y194200D01*
X181700Y114200D02*
X182100Y115000D01*
X181700Y115800D01*
X182500Y115400D01*
X183300Y115800D01*
X182900Y115000D01*
X183300Y114200D01*
X182500Y114600D01*
X181700Y114200D01*
X219200D02*
X219600Y115000D01*
X219200Y115800D01*
X220000Y115400D01*
X220800Y115800D01*
X220400Y115000D01*
X220800Y114200D01*
X220000Y114600D01*
X219200Y114200D01*
X176700Y224200D02*
X177100Y225000D01*
X176700Y225800D01*
X177500Y225400D01*
X178300Y225800D01*
X177900Y225000D01*
X178300Y224200D01*
X177500Y224600D01*
X176700Y224200D01*
X44200D02*
X44600Y225000D01*
X44200Y225800D01*
X45000Y225400D01*
X45800Y225800D01*
X45400Y225000D01*
X45800Y224200D01*
X45000Y224600D01*
X44200Y224200D01*
X14200Y41700D02*
X14600Y42500D01*
X14200Y43300D01*
X15000Y42900D01*
X15800Y43300D01*
X15400Y42500D01*
X15800Y41700D01*
X15000Y42100D01*
X14200Y41700D01*
X164200Y9200D02*
X164600Y10000D01*
X164200Y10800D01*
X165000Y10400D01*
X165800Y10800D01*
X165400Y10000D01*
X165800Y9200D01*
X165000Y9600D01*
X164200Y9200D01*
X201700D02*
X202100Y10000D01*
X201700Y10800D01*
X202500Y10400D01*
X203300Y10800D01*
X202900Y10000D01*
X203300Y9200D01*
X202500Y9600D01*
X201700Y9200D01*
X226700Y46700D02*
X227100Y47500D01*
X226700Y48300D01*
X227500Y47900D01*
X228300Y48300D01*
X227900Y47500D01*
X228300Y46700D01*
X227500Y47100D01*
X226700Y46700D01*
X94200Y119200D02*
X94600Y120000D01*
X94200Y120800D01*
X95000Y120400D01*
X95800Y120800D01*
X95400Y120000D01*
X95800Y119200D01*
X95000Y119600D01*
X94200Y119200D01*
X219200Y151700D02*
X219600Y152500D01*
X219200Y153300D01*
X220000Y152900D01*
X220800Y153300D01*
X220400Y152500D01*
X220800Y151700D01*
X220000Y152100D01*
X219200Y151700D01*
X44200Y194200D02*
X44600Y195000D01*
X44200Y195800D01*
X45000Y195400D01*
X45800Y195800D01*
X45400Y195000D01*
X45800Y194200D01*
X45000Y194600D01*
X44200Y194200D01*
X139200Y224200D02*
X139600Y225000D01*
X139200Y225800D01*
X140000Y225400D01*
X140800Y225800D01*
X140400Y225000D01*
X140800Y224200D01*
X140000Y224600D01*
X139200Y224200D01*
X84200D02*
X84600Y225000D01*
X84200Y225800D01*
X85000Y225400D01*
X85800Y225800D01*
X85400Y225000D01*
X85800Y224200D01*
X85000Y224600D01*
X84200Y224200D01*
D42*
X15800Y95000D02*
G03*
X15800Y95000I-800J0D01*
G01*
Y75000D02*
G03*
X15800Y75000I-800J0D01*
G01*
Y135000D02*
G03*
X15800Y135000I-800J0D01*
G01*
Y115000D02*
G03*
X15800Y115000I-800J0D01*
G01*
M02*
