G04 Layer_Physical_Order=2*
G04 Layer_Color=16711680*
%FSLAX25Y25*%
%MOIN*%
G70*
G01*
G75*
%ADD10C,0.02000*%
G04:AMPARAMS|DCode=11|XSize=70mil|YSize=70mil|CornerRadius=17.5mil|HoleSize=0mil|Usage=FLASHONLY|Rotation=90.000|XOffset=0mil|YOffset=0mil|HoleType=Round|Shape=RoundedRectangle|*
%AMROUNDEDRECTD11*
21,1,0.07000,0.03500,0,0,90.0*
21,1,0.03500,0.07000,0,0,90.0*
1,1,0.03500,0.01750,0.01750*
1,1,0.03500,0.01750,-0.01750*
1,1,0.03500,-0.01750,-0.01750*
1,1,0.03500,-0.01750,0.01750*
%
%ADD11ROUNDEDRECTD11*%
G04:AMPARAMS|DCode=12|XSize=100mil|YSize=100mil|CornerRadius=25mil|HoleSize=0mil|Usage=FLASHONLY|Rotation=90.000|XOffset=0mil|YOffset=0mil|HoleType=Round|Shape=RoundedRectangle|*
%AMROUNDEDRECTD12*
21,1,0.10000,0.05000,0,0,90.0*
21,1,0.05000,0.10000,0,0,90.0*
1,1,0.05000,0.02500,0.02500*
1,1,0.05000,0.02500,-0.02500*
1,1,0.05000,-0.02500,-0.02500*
1,1,0.05000,-0.02500,0.02500*
%
%ADD12ROUNDEDRECTD12*%
G04:AMPARAMS|DCode=13|XSize=60mil|YSize=80mil|CornerRadius=15mil|HoleSize=0mil|Usage=FLASHONLY|Rotation=270.000|XOffset=0mil|YOffset=0mil|HoleType=Round|Shape=RoundedRectangle|*
%AMROUNDEDRECTD13*
21,1,0.06000,0.05000,0,0,270.0*
21,1,0.03000,0.08000,0,0,270.0*
1,1,0.03000,-0.02500,-0.01500*
1,1,0.03000,-0.02500,0.01500*
1,1,0.03000,0.02500,0.01500*
1,1,0.03000,0.02500,-0.01500*
%
%ADD13ROUNDEDRECTD13*%
G04:AMPARAMS|DCode=14|XSize=70mil|YSize=70mil|CornerRadius=17.5mil|HoleSize=0mil|Usage=FLASHONLY|Rotation=180.000|XOffset=0mil|YOffset=0mil|HoleType=Round|Shape=RoundedRectangle|*
%AMROUNDEDRECTD14*
21,1,0.07000,0.03500,0,0,180.0*
21,1,0.03500,0.07000,0,0,180.0*
1,1,0.03500,-0.01750,0.01750*
1,1,0.03500,0.01750,0.01750*
1,1,0.03500,0.01750,-0.01750*
1,1,0.03500,-0.01750,-0.01750*
%
%ADD14ROUNDEDRECTD14*%
G04:AMPARAMS|DCode=15|XSize=60mil|YSize=80mil|CornerRadius=15mil|HoleSize=0mil|Usage=FLASHONLY|Rotation=180.000|XOffset=0mil|YOffset=0mil|HoleType=Round|Shape=RoundedRectangle|*
%AMROUNDEDRECTD15*
21,1,0.06000,0.05000,0,0,180.0*
21,1,0.03000,0.08000,0,0,180.0*
1,1,0.03000,-0.01500,0.02500*
1,1,0.03000,0.01500,0.02500*
1,1,0.03000,0.01500,-0.02500*
1,1,0.03000,-0.01500,-0.02500*
%
%ADD15ROUNDEDRECTD15*%
G04:AMPARAMS|DCode=16|XSize=80mil|YSize=80mil|CornerRadius=20mil|HoleSize=0mil|Usage=FLASHONLY|Rotation=0.000|XOffset=0mil|YOffset=0mil|HoleType=Round|Shape=RoundedRectangle|*
%AMROUNDEDRECTD16*
21,1,0.08000,0.04000,0,0,0.0*
21,1,0.04000,0.08000,0,0,0.0*
1,1,0.04000,0.02000,-0.02000*
1,1,0.04000,-0.02000,-0.02000*
1,1,0.04000,-0.02000,0.02000*
1,1,0.04000,0.02000,0.02000*
%
%ADD16ROUNDEDRECTD16*%
%ADD17P,0.21307X8X22.5*%
%ADD18R,0.08000X0.06000*%
G04:AMPARAMS|DCode=19|XSize=80mil|YSize=60mil|CornerRadius=15mil|HoleSize=0mil|Usage=FLASHONLY|Rotation=0.000|XOffset=0mil|YOffset=0mil|HoleType=Round|Shape=RoundedRectangle|*
%AMROUNDEDRECTD19*
21,1,0.08000,0.03000,0,0,0.0*
21,1,0.05000,0.06000,0,0,0.0*
1,1,0.03000,0.02500,-0.01500*
1,1,0.03000,-0.02500,-0.01500*
1,1,0.03000,-0.02500,0.01500*
1,1,0.03000,0.02500,0.01500*
%
%ADD19ROUNDEDRECTD19*%
%ADD20C,0.05000*%
%ADD21R,0.04000X0.03000*%
%ADD22R,0.05000X0.04000*%
%ADD23R,0.06000X0.06000*%
%ADD24R,0.04000X0.05000*%
G36*
X237500Y0D02*
X0D01*
Y237500D01*
X237500D01*
Y0D01*
D02*
G37*
%LPC*%
G36*
X175000Y51549D02*
X173500D01*
Y48500D01*
X177549D01*
Y49000D01*
X177355Y49975D01*
X176802Y50802D01*
X175976Y51355D01*
X175000Y51549D01*
D02*
G37*
G36*
X165000Y52026D02*
X160000D01*
X159217Y51923D01*
X158487Y51621D01*
X157860Y51140D01*
X157379Y50513D01*
X157312Y50349D01*
X156500D01*
Y51300D01*
X148500D01*
Y44300D01*
X156500D01*
Y45251D01*
X157073D01*
X157077Y45217D01*
X157379Y44487D01*
X157860Y43860D01*
X158487Y43380D01*
X159217Y43077D01*
X160000Y42974D01*
X165000D01*
X165783Y43077D01*
X166513Y43380D01*
X167140Y43860D01*
X167504Y44335D01*
X168072Y44386D01*
X168198Y44198D01*
X169025Y43645D01*
X170000Y43451D01*
X171500D01*
Y47500D01*
Y51549D01*
X170000D01*
X169025Y51355D01*
X168198Y50802D01*
X168072Y50614D01*
X167504Y50665D01*
X167140Y51140D01*
X166513Y51621D01*
X165783Y51923D01*
X165000Y52026D01*
D02*
G37*
G36*
X87000Y62000D02*
X78000D01*
Y53000D01*
X78500D01*
Y46500D01*
X86500D01*
Y53000D01*
X87000D01*
Y53951D01*
X89079D01*
Y53500D01*
X96079D01*
Y59500D01*
X89079D01*
Y59049D01*
X87000D01*
Y62000D01*
D02*
G37*
G36*
X61500Y50049D02*
X61000D01*
Y46000D01*
X64049D01*
Y47500D01*
X63855Y48476D01*
X63302Y49302D01*
X62476Y49855D01*
X61500Y50049D01*
D02*
G37*
G36*
X105000Y71535D02*
X103956Y71397D01*
X102983Y70994D01*
X102147Y70353D01*
X101506Y69517D01*
X101103Y68544D01*
X100965Y67500D01*
X101015Y67120D01*
X100698Y66802D01*
X100145Y65975D01*
X99951Y65000D01*
Y63000D01*
X99000D01*
Y57000D01*
X100050D01*
X100145Y56524D01*
X100698Y55698D01*
X102451Y53944D01*
Y47423D01*
X102402Y47416D01*
X101611Y47089D01*
X100932Y46568D01*
X100411Y45889D01*
X100084Y45098D01*
X100000Y44463D01*
X99496D01*
X99429Y44968D01*
X99152Y45637D01*
X98711Y46211D01*
X98137Y46652D01*
X97468Y46929D01*
X96750Y47024D01*
X96000D01*
Y42500D01*
Y37976D01*
X96750D01*
X97468Y38071D01*
X98137Y38348D01*
X98711Y38789D01*
X99152Y39363D01*
X99429Y40032D01*
X99496Y40537D01*
X100000D01*
X100084Y39902D01*
X100411Y39111D01*
X100932Y38432D01*
X101611Y37911D01*
X102402Y37584D01*
X103250Y37472D01*
X106750D01*
X107598Y37584D01*
X108389Y37911D01*
X109068Y38432D01*
X109589Y39111D01*
X109916Y39902D01*
X110028Y40750D01*
Y44250D01*
X109916Y45098D01*
X109589Y45889D01*
X109068Y46568D01*
X108389Y47089D01*
X107598Y47416D01*
X107549Y47423D01*
Y55000D01*
X107355Y55976D01*
X106802Y56802D01*
X106000Y57605D01*
Y63000D01*
X105295D01*
X105262Y63500D01*
X106044Y63603D01*
X107017Y64006D01*
X107853Y64647D01*
X108494Y65483D01*
X108897Y66456D01*
X109035Y67500D01*
X108897Y68544D01*
X108494Y69517D01*
X107853Y70353D01*
X107017Y70994D01*
X106044Y71397D01*
X105000Y71535D01*
D02*
G37*
G36*
X94000Y47024D02*
X93250D01*
X92532Y46929D01*
X91863Y46652D01*
X91289Y46211D01*
X90848Y45637D01*
X90604Y45049D01*
X86000D01*
Y45200D01*
X83500D01*
Y42200D01*
Y39200D01*
X86000D01*
Y39951D01*
X90604D01*
X90848Y39363D01*
X91289Y38789D01*
X91863Y38348D01*
X92532Y38071D01*
X93250Y37976D01*
X94000D01*
Y42500D01*
Y47024D01*
D02*
G37*
G36*
X59000Y50049D02*
X58500D01*
X57525Y49855D01*
X56698Y49302D01*
X56145Y48476D01*
X55951Y47500D01*
Y46000D01*
X59000D01*
Y50049D01*
D02*
G37*
G36*
X214000Y76500D02*
X210476D01*
Y75750D01*
X210571Y75032D01*
X210848Y74363D01*
X211289Y73789D01*
X211863Y73348D01*
X212532Y73071D01*
X213250Y72976D01*
X214000D01*
Y76500D01*
D02*
G37*
G36*
X62500Y84049D02*
X61000D01*
Y81000D01*
X65049D01*
Y81500D01*
X64855Y82476D01*
X64302Y83302D01*
X63476Y83855D01*
X62500Y84049D01*
D02*
G37*
G36*
X182500Y97549D02*
X172500D01*
X171525Y97355D01*
X170698Y96802D01*
X168198Y94302D01*
X167645Y93476D01*
X167451Y92500D01*
Y91500D01*
X166670D01*
X166513Y91620D01*
X165783Y91923D01*
X165000Y92026D01*
X160000D01*
X159217Y91923D01*
X158487Y91620D01*
X157860Y91140D01*
X157379Y90513D01*
X157077Y89783D01*
X156974Y89000D01*
Y86000D01*
X157077Y85217D01*
X157379Y84487D01*
X157860Y83860D01*
X158487Y83380D01*
X159217Y83077D01*
X160000Y82974D01*
X165000D01*
X165783Y83077D01*
X166513Y83380D01*
X166670Y83500D01*
X169542D01*
X169733Y83038D01*
X168198Y81502D01*
X168196Y81500D01*
X166670D01*
X166513Y81621D01*
X165783Y81923D01*
X165000Y82026D01*
X160000D01*
X159217Y81923D01*
X158487Y81621D01*
X157860Y81140D01*
X157379Y80513D01*
X157077Y79783D01*
X156974Y79000D01*
Y76000D01*
X157077Y75217D01*
X157379Y74487D01*
X157860Y73860D01*
X158487Y73379D01*
X159217Y73077D01*
X160000Y72974D01*
X165000D01*
X165783Y73077D01*
X166513Y73379D01*
X166670Y73500D01*
X170395D01*
X173198Y70698D01*
X173420Y70549D01*
X173268Y70049D01*
X167813D01*
X167621Y70513D01*
X167140Y71140D01*
X166513Y71621D01*
X165783Y71923D01*
X165000Y72026D01*
X160000D01*
X159217Y71923D01*
X158487Y71621D01*
X157860Y71140D01*
X157379Y70513D01*
X157077Y69783D01*
X156974Y69000D01*
Y66000D01*
X157077Y65217D01*
X157379Y64487D01*
X157860Y63860D01*
X158487Y63380D01*
X159217Y63077D01*
X160000Y62974D01*
X165000D01*
X165783Y63077D01*
X166513Y63380D01*
X167140Y63860D01*
X167621Y64487D01*
X167813Y64951D01*
X181444D01*
X193439Y52956D01*
X193393Y52295D01*
X193004Y51996D01*
X192443Y51265D01*
X192090Y50414D01*
X191970Y49500D01*
Y45500D01*
X192090Y44586D01*
X192443Y43735D01*
X193004Y43004D01*
X193735Y42443D01*
X194586Y42090D01*
X195500Y41970D01*
X199500D01*
X200414Y42090D01*
X201265Y42443D01*
X201951Y42969D01*
X202318Y42895D01*
X202451Y42849D01*
Y33556D01*
X201921Y33026D01*
X201500Y33200D01*
Y33200D01*
X193500D01*
Y32249D01*
X192200D01*
X191225Y32055D01*
X190398Y31502D01*
X188944Y30049D01*
X167813D01*
X167621Y30513D01*
X167140Y31140D01*
X166513Y31620D01*
X165783Y31923D01*
X165000Y32026D01*
X160000D01*
X159217Y31923D01*
X158487Y31620D01*
X157860Y31140D01*
X157379Y30513D01*
X157077Y29783D01*
X156974Y29000D01*
Y26000D01*
X157077Y25217D01*
X157379Y24487D01*
X157860Y23860D01*
X158487Y23380D01*
X159217Y23077D01*
X160000Y22974D01*
X165000D01*
X165783Y23077D01*
X166513Y23380D01*
X167140Y23860D01*
X167621Y24487D01*
X167813Y24951D01*
X190000D01*
X190975Y25145D01*
X191802Y25698D01*
X193000Y26895D01*
X193500Y26688D01*
Y26200D01*
X201500D01*
Y27151D01*
X202200D01*
X203175Y27345D01*
X204002Y27898D01*
X206802Y30698D01*
X207355Y31525D01*
X207549Y32500D01*
Y45000D01*
X207355Y45976D01*
X206802Y46802D01*
X204302Y49302D01*
X203475Y49855D01*
X202970Y49955D01*
X202910Y50414D01*
X202557Y51265D01*
X201996Y51996D01*
X201265Y52557D01*
X200414Y52910D01*
X199955Y52970D01*
X199855Y53475D01*
X199302Y54302D01*
X184302Y69302D01*
X184080Y69451D01*
X184232Y69951D01*
X194685D01*
X195015Y69575D01*
X194972Y69250D01*
Y65750D01*
X195084Y64902D01*
X195411Y64111D01*
X195932Y63432D01*
X196611Y62911D01*
X197402Y62584D01*
X198250Y62472D01*
X201750D01*
X202598Y62584D01*
X203389Y62911D01*
X204068Y63432D01*
X204589Y64111D01*
X204916Y64902D01*
X205028Y65750D01*
Y69250D01*
X204916Y70098D01*
X204589Y70889D01*
X204068Y71568D01*
X203389Y72089D01*
X203050Y72229D01*
Y72771D01*
X203389Y72911D01*
X204068Y73432D01*
X204589Y74111D01*
X204916Y74902D01*
X205028Y75750D01*
Y79250D01*
X204916Y80098D01*
X204589Y80889D01*
X204068Y81568D01*
X203389Y82089D01*
X203050Y82229D01*
Y82771D01*
X203389Y82911D01*
X204068Y83432D01*
X204589Y84111D01*
X204916Y84902D01*
X204923Y84951D01*
X210077D01*
X210084Y84902D01*
X210411Y84111D01*
X210932Y83432D01*
X211611Y82911D01*
X212402Y82584D01*
X213037Y82500D01*
Y81996D01*
X212532Y81929D01*
X211863Y81652D01*
X211289Y81211D01*
X210848Y80637D01*
X210571Y79968D01*
X210476Y79250D01*
Y78500D01*
X215000D01*
X219524D01*
Y79250D01*
X219429Y79968D01*
X219152Y80637D01*
X218711Y81211D01*
X218137Y81652D01*
X217468Y81929D01*
X216963Y81996D01*
Y82500D01*
X217598Y82584D01*
X218389Y82911D01*
X219068Y83432D01*
X219589Y84111D01*
X219916Y84902D01*
X220028Y85750D01*
Y89250D01*
X219916Y90098D01*
X219589Y90889D01*
X219068Y91568D01*
X218389Y92089D01*
X217598Y92416D01*
X216750Y92528D01*
X213250D01*
X212402Y92416D01*
X211611Y92089D01*
X210932Y91568D01*
X210411Y90889D01*
X210084Y90098D01*
X210077Y90049D01*
X204923D01*
X204916Y90098D01*
X204589Y90889D01*
X204068Y91568D01*
X203389Y92089D01*
X202598Y92416D01*
X201750Y92528D01*
X198250D01*
X197402Y92416D01*
X196611Y92089D01*
X195932Y91568D01*
X195411Y90889D01*
X195084Y90098D01*
X195077Y90049D01*
X191056D01*
X184302Y96802D01*
X183475Y97355D01*
X182500Y97549D01*
D02*
G37*
G36*
X132200Y104334D02*
X131156Y104197D01*
X130183Y103794D01*
X129347Y103153D01*
X129114Y102849D01*
X126500D01*
Y103800D01*
X118500D01*
Y96800D01*
X126500D01*
Y97751D01*
X129114D01*
X129347Y97447D01*
X130183Y96806D01*
X131156Y96403D01*
X132200Y96266D01*
X133244Y96403D01*
X134217Y96806D01*
X135053Y97447D01*
X135694Y98283D01*
X136097Y99256D01*
X136234Y100300D01*
X136097Y101344D01*
X135694Y102317D01*
X135053Y103153D01*
X134217Y103794D01*
X133244Y104197D01*
X132200Y104334D01*
D02*
G37*
G36*
X59000Y84049D02*
X57500D01*
X56524Y83855D01*
X55698Y83302D01*
X55145Y82476D01*
X54951Y81500D01*
Y81000D01*
X59000D01*
Y84049D01*
D02*
G37*
G36*
X219524Y76500D02*
X216000D01*
Y72976D01*
X216750D01*
X217468Y73071D01*
X218137Y73348D01*
X218711Y73789D01*
X219152Y74363D01*
X219429Y75032D01*
X219524Y75750D01*
Y76500D01*
D02*
G37*
G36*
X59000Y79000D02*
X54951D01*
Y78500D01*
X55145Y77525D01*
X55698Y76698D01*
X56524Y76145D01*
X57500Y75951D01*
X59000D01*
Y79000D01*
D02*
G37*
G36*
X65049D02*
X61000D01*
Y75951D01*
X62500D01*
X63476Y76145D01*
X64302Y76698D01*
X64855Y77525D01*
X65049Y78500D01*
Y79000D01*
D02*
G37*
G36*
X177549Y46500D02*
X173500D01*
Y43451D01*
X175000D01*
X175976Y43645D01*
X176802Y44198D01*
X177355Y45024D01*
X177549Y46000D01*
Y46500D01*
D02*
G37*
G36*
X49000Y27549D02*
X48500D01*
X47524Y27355D01*
X46698Y26802D01*
X46145Y25975D01*
X45951Y25000D01*
Y23500D01*
X49000D01*
Y27549D01*
D02*
G37*
G36*
X51500D02*
X51000D01*
Y23500D01*
X54049D01*
Y25000D01*
X53855Y25975D01*
X53302Y26802D01*
X52476Y27355D01*
X51500Y27549D01*
D02*
G37*
G36*
X165000Y42026D02*
X160000D01*
X159217Y41923D01*
X158487Y41620D01*
X157860Y41140D01*
X157379Y40513D01*
X157077Y39783D01*
X156974Y39000D01*
Y36000D01*
X157077Y35217D01*
X157379Y34487D01*
X157860Y33860D01*
X158487Y33380D01*
X159217Y33077D01*
X160000Y32974D01*
X165000D01*
X165783Y33077D01*
X166513Y33380D01*
X167140Y33860D01*
X167621Y34487D01*
X167813Y34951D01*
X193500D01*
Y34000D01*
X201500D01*
Y41000D01*
X193500D01*
Y40049D01*
X167813D01*
X167621Y40513D01*
X167140Y41140D01*
X166513Y41620D01*
X165783Y41923D01*
X165000Y42026D01*
D02*
G37*
G36*
X54049Y21500D02*
X51000D01*
Y17451D01*
X51500D01*
X52476Y17645D01*
X53302Y18198D01*
X53855Y19025D01*
X54049Y20000D01*
Y21500D01*
D02*
G37*
G36*
X20671Y26342D02*
X9329D01*
X3658Y20671D01*
Y9329D01*
X9329Y3658D01*
X20671D01*
X26342Y9329D01*
Y20671D01*
X20671Y26342D01*
D02*
G37*
G36*
X228171D02*
X216829D01*
X211157Y20671D01*
Y9329D01*
X216829Y3658D01*
X228171D01*
X233842Y9329D01*
Y20671D01*
X228171Y26342D01*
D02*
G37*
G36*
X49000Y21500D02*
X45951D01*
Y20000D01*
X46145Y19025D01*
X46698Y18198D01*
X47524Y17645D01*
X48500Y17451D01*
X49000D01*
Y21500D01*
D02*
G37*
G36*
X151500Y39000D02*
X149000D01*
Y37000D01*
X151500D01*
Y39000D01*
D02*
G37*
G36*
Y43000D02*
X149000D01*
Y41000D01*
X151500D01*
Y43000D01*
D02*
G37*
G36*
X156000D02*
X153500D01*
Y41000D01*
X156000D01*
Y43000D01*
D02*
G37*
G36*
X81500Y45200D02*
X79000D01*
Y43200D01*
X81500D01*
Y45200D01*
D02*
G37*
G36*
X64049Y44000D02*
X61000D01*
Y39951D01*
X61500D01*
X62476Y40145D01*
X63302Y40698D01*
X63855Y41524D01*
X64049Y42500D01*
Y44000D01*
D02*
G37*
G36*
X156000Y39000D02*
X153500D01*
Y37000D01*
X156000D01*
Y39000D01*
D02*
G37*
G36*
X81500Y41200D02*
X79000D01*
Y39200D01*
X81500D01*
Y41200D01*
D02*
G37*
G36*
X59000Y44000D02*
X55951D01*
Y42500D01*
X56145Y41524D01*
X56698Y40698D01*
X57525Y40145D01*
X58500Y39951D01*
X59000D01*
Y44000D01*
D02*
G37*
G36*
X165000Y157026D02*
X160000D01*
X159217Y156923D01*
X158487Y156621D01*
X157860Y156140D01*
X157379Y155513D01*
X157187Y155049D01*
X156500D01*
Y156000D01*
X148500D01*
Y149000D01*
X156500D01*
Y149951D01*
X157187D01*
X157379Y149487D01*
X157860Y148860D01*
X158487Y148380D01*
X159217Y148077D01*
X160000Y147974D01*
X165000D01*
X165783Y148077D01*
X166513Y148380D01*
X167140Y148860D01*
X167504Y149335D01*
X168072Y149386D01*
X168198Y149197D01*
X169025Y148645D01*
X170000Y148451D01*
X171500D01*
Y152500D01*
Y156549D01*
X170000D01*
X169025Y156355D01*
X168198Y155802D01*
X168072Y155614D01*
X167504Y155664D01*
X167140Y156140D01*
X166513Y156621D01*
X165783Y156923D01*
X165000Y157026D01*
D02*
G37*
G36*
X175000Y156549D02*
X173500D01*
Y153500D01*
X177549D01*
Y154000D01*
X177355Y154975D01*
X176802Y155802D01*
X175976Y156355D01*
X175000Y156549D01*
D02*
G37*
G36*
X135000Y177026D02*
X130000D01*
X129217Y176923D01*
X128487Y176620D01*
X127860Y176140D01*
X127380Y175513D01*
X127077Y174783D01*
X126974Y174000D01*
Y171000D01*
X127077Y170217D01*
X127380Y169487D01*
X127860Y168860D01*
X128487Y168379D01*
X129217Y168077D01*
X130000Y167974D01*
X135000D01*
X135783Y168077D01*
X136513Y168379D01*
X137140Y168860D01*
X137620Y169487D01*
X137923Y170217D01*
X138026Y171000D01*
Y174000D01*
X137923Y174783D01*
X137620Y175513D01*
X137140Y176140D01*
X136513Y176620D01*
X135783Y176923D01*
X135000Y177026D01*
D02*
G37*
G36*
X87000Y169500D02*
X78000D01*
Y160500D01*
X78500D01*
Y154000D01*
X86500D01*
Y160451D01*
X89000D01*
Y160000D01*
X96000D01*
Y166000D01*
X89000D01*
Y165549D01*
X87000D01*
Y169500D01*
D02*
G37*
G36*
X81500Y152700D02*
X79000D01*
Y150700D01*
X81500D01*
Y152700D01*
D02*
G37*
G36*
X177549Y151500D02*
X173500D01*
Y148451D01*
X175000D01*
X175976Y148645D01*
X176802Y149197D01*
X177355Y150024D01*
X177549Y151000D01*
Y151500D01*
D02*
G37*
G36*
X94000Y154524D02*
X93250D01*
X92532Y154429D01*
X91863Y154152D01*
X91289Y153711D01*
X90848Y153137D01*
X90571Y152468D01*
X90542Y152249D01*
X86000D01*
Y152700D01*
X83500D01*
Y149700D01*
Y146700D01*
X86000D01*
Y147151D01*
X90729D01*
X90848Y146863D01*
X91289Y146289D01*
X91863Y145848D01*
X92532Y145571D01*
X93250Y145476D01*
X94000D01*
Y150000D01*
Y154524D01*
D02*
G37*
G36*
X105000Y176534D02*
X103956Y176397D01*
X102983Y175994D01*
X102147Y175353D01*
X101506Y174517D01*
X101103Y173544D01*
X100965Y172500D01*
X101015Y172120D01*
X100698Y171802D01*
X100145Y170975D01*
X99951Y170000D01*
Y169500D01*
X98921D01*
Y163500D01*
X99872D01*
Y162579D01*
X100066Y161603D01*
X100619Y160776D01*
X102451Y158944D01*
Y154923D01*
X102402Y154916D01*
X101611Y154589D01*
X100932Y154068D01*
X100411Y153389D01*
X100084Y152598D01*
X100000Y151963D01*
X99496D01*
X99429Y152468D01*
X99152Y153137D01*
X98711Y153711D01*
X98137Y154152D01*
X97468Y154429D01*
X96750Y154524D01*
X96000D01*
Y150000D01*
Y145476D01*
X96750D01*
X97468Y145571D01*
X98137Y145848D01*
X98711Y146289D01*
X99152Y146863D01*
X99429Y147532D01*
X99496Y148037D01*
X100000D01*
X100084Y147402D01*
X100411Y146611D01*
X100932Y145932D01*
X101611Y145411D01*
X102402Y145084D01*
X103250Y144972D01*
X106750D01*
X107598Y145084D01*
X108389Y145411D01*
X109068Y145932D01*
X109589Y146611D01*
X109916Y147402D01*
X110028Y148250D01*
Y151750D01*
X109916Y152598D01*
X109589Y153389D01*
X109068Y154068D01*
X108389Y154589D01*
X107598Y154916D01*
X107549Y154923D01*
Y160000D01*
X107355Y160976D01*
X106802Y161802D01*
X105567Y163038D01*
X105758Y163500D01*
X105921D01*
Y168587D01*
X106044Y168603D01*
X107017Y169006D01*
X107853Y169647D01*
X108494Y170483D01*
X108897Y171456D01*
X109035Y172500D01*
X108897Y173544D01*
X108494Y174517D01*
X107853Y175353D01*
X107017Y175994D01*
X106044Y176397D01*
X105000Y176534D01*
D02*
G37*
G36*
X94250Y210028D02*
X90750D01*
X89902Y209916D01*
X89111Y209589D01*
X88432Y209068D01*
X87911Y208389D01*
X87584Y207598D01*
X87577Y207549D01*
X87000D01*
Y209500D01*
X78000D01*
Y207549D01*
X65000D01*
X64025Y207355D01*
X63198Y206802D01*
X13198Y156802D01*
X12645Y155975D01*
X12451Y155000D01*
Y147500D01*
Y141528D01*
X11456Y141397D01*
X10483Y140994D01*
X9647Y140353D01*
X9006Y139517D01*
X8603Y138544D01*
X8466Y137500D01*
Y132500D01*
X8603Y131456D01*
X9006Y130483D01*
X9647Y129647D01*
X10483Y129006D01*
X11456Y128603D01*
X12500Y128465D01*
X17500D01*
X18544Y128603D01*
X19517Y129006D01*
X20353Y129647D01*
X20994Y130483D01*
X21397Y131456D01*
X21534Y132500D01*
Y137500D01*
X21397Y138544D01*
X20994Y139517D01*
X20353Y140353D01*
X19517Y140994D01*
X18544Y141397D01*
X17549Y141528D01*
Y144951D01*
X58944D01*
X79951Y123944D01*
Y102000D01*
X78000D01*
Y93000D01*
X87000D01*
Y94951D01*
X87577D01*
X87584Y94902D01*
X87911Y94111D01*
X88432Y93432D01*
X89111Y92911D01*
X89450Y92771D01*
Y92229D01*
X89111Y92089D01*
X88432Y91568D01*
X87911Y90889D01*
X87584Y90098D01*
X87472Y89250D01*
Y87501D01*
X87000Y87433D01*
X86972Y87433D01*
X78000D01*
Y78433D01*
X79951D01*
Y76567D01*
X78000D01*
Y67567D01*
X87000D01*
Y75504D01*
X87500Y75537D01*
X87584Y74902D01*
X87911Y74111D01*
X88432Y73432D01*
X89111Y72911D01*
X89902Y72584D01*
X90030Y72567D01*
Y66500D01*
X89079D01*
Y60500D01*
X96079D01*
Y66500D01*
X95128D01*
Y72596D01*
X95889Y72911D01*
X96568Y73432D01*
X97089Y74111D01*
X97416Y74902D01*
X97528Y75750D01*
Y79250D01*
X97416Y80098D01*
X97089Y80889D01*
X96568Y81568D01*
X95889Y82089D01*
X95550Y82229D01*
Y82771D01*
X95889Y82911D01*
X96568Y83432D01*
X97089Y84111D01*
X97416Y84902D01*
X97528Y85750D01*
Y89250D01*
X97416Y90098D01*
X97089Y90889D01*
X96568Y91568D01*
X95889Y92089D01*
X95550Y92229D01*
Y92771D01*
X95889Y92911D01*
X96568Y93432D01*
X97089Y94111D01*
X97416Y94902D01*
X97528Y95750D01*
Y99250D01*
X97416Y100098D01*
X97089Y100889D01*
X96568Y101568D01*
X95889Y102089D01*
X95098Y102416D01*
X94250Y102528D01*
X90750D01*
X89902Y102416D01*
X89111Y102089D01*
X88432Y101568D01*
X87911Y100889D01*
X87584Y100098D01*
X87577Y100049D01*
X87000D01*
Y102000D01*
X85049D01*
Y125000D01*
X84855Y125976D01*
X84302Y126802D01*
X61802Y149302D01*
X60975Y149855D01*
X60000Y150049D01*
X17549D01*
Y153944D01*
X66056Y202451D01*
X78000D01*
Y200500D01*
X87000D01*
Y202451D01*
X87577D01*
X87584Y202402D01*
X87911Y201611D01*
X88432Y200932D01*
X89111Y200411D01*
X89450Y200271D01*
Y199729D01*
X89111Y199589D01*
X88432Y199068D01*
X87911Y198389D01*
X87584Y197598D01*
X87472Y196750D01*
Y195001D01*
X87000Y194933D01*
X86972Y194933D01*
X78000D01*
Y185933D01*
X79951D01*
Y184067D01*
X78000D01*
Y175067D01*
X87000D01*
Y183004D01*
X87500Y183037D01*
X87584Y182402D01*
X87911Y181611D01*
X88432Y180932D01*
X89111Y180411D01*
X89902Y180084D01*
X89951Y180077D01*
Y173000D01*
X89000D01*
Y167000D01*
X96000D01*
Y173000D01*
X95049D01*
Y180077D01*
X95098Y180084D01*
X95889Y180411D01*
X96568Y180932D01*
X97089Y181611D01*
X97416Y182402D01*
X97528Y183250D01*
Y186750D01*
X97416Y187598D01*
X97089Y188389D01*
X96568Y189068D01*
X95889Y189589D01*
X95550Y189729D01*
Y190271D01*
X95889Y190411D01*
X96568Y190932D01*
X97089Y191611D01*
X97416Y192402D01*
X97528Y193250D01*
Y196750D01*
X97416Y197598D01*
X97089Y198389D01*
X96568Y199068D01*
X95889Y199589D01*
X95550Y199729D01*
Y200271D01*
X95889Y200411D01*
X96568Y200932D01*
X97089Y201611D01*
X97416Y202402D01*
X97528Y203250D01*
Y206750D01*
X97416Y207598D01*
X97089Y208389D01*
X96568Y209068D01*
X95889Y209589D01*
X95098Y209916D01*
X94250Y210028D01*
D02*
G37*
G36*
X182500Y202549D02*
X172500D01*
X171525Y202355D01*
X170698Y201802D01*
X168198Y199302D01*
X167645Y198476D01*
X167451Y197500D01*
Y196500D01*
X166670D01*
X166513Y196621D01*
X165783Y196923D01*
X165000Y197026D01*
X160000D01*
X159217Y196923D01*
X158487Y196621D01*
X157860Y196140D01*
X157379Y195513D01*
X157077Y194783D01*
X156974Y194000D01*
Y191000D01*
X157077Y190217D01*
X157379Y189487D01*
X157860Y188860D01*
X158487Y188380D01*
X159217Y188077D01*
X160000Y187974D01*
X165000D01*
X165783Y188077D01*
X166513Y188380D01*
X166670Y188500D01*
X169542D01*
X169733Y188038D01*
X168195Y186500D01*
X166670D01*
X166513Y186620D01*
X165783Y186923D01*
X165000Y187026D01*
X160000D01*
X159217Y186923D01*
X158487Y186620D01*
X157860Y186140D01*
X157379Y185513D01*
X157077Y184783D01*
X156974Y184000D01*
Y181000D01*
X157077Y180217D01*
X157379Y179487D01*
X157860Y178860D01*
X158487Y178379D01*
X159217Y178077D01*
X160000Y177974D01*
X165000D01*
X165783Y178077D01*
X166513Y178379D01*
X166670Y178500D01*
X170095D01*
X173084Y175511D01*
X172893Y175049D01*
X167813D01*
X167621Y175513D01*
X167140Y176140D01*
X166513Y176620D01*
X165783Y176923D01*
X165000Y177026D01*
X160000D01*
X159217Y176923D01*
X158487Y176620D01*
X157860Y176140D01*
X157379Y175513D01*
X157077Y174783D01*
X156974Y174000D01*
Y171000D01*
X157077Y170217D01*
X157379Y169487D01*
X157860Y168860D01*
X158487Y168379D01*
X159217Y168077D01*
X160000Y167974D01*
X165000D01*
X165783Y168077D01*
X166513Y168379D01*
X167140Y168860D01*
X167621Y169487D01*
X167813Y169951D01*
X176444D01*
X191970Y154425D01*
Y150500D01*
X192090Y149586D01*
X192443Y148735D01*
X193004Y148004D01*
X193735Y147443D01*
X194586Y147090D01*
X195500Y146970D01*
X199500D01*
X200414Y147090D01*
X201265Y147443D01*
X201951Y147969D01*
X202318Y147895D01*
X202451Y147849D01*
Y138556D01*
X201921Y138026D01*
X201500Y138200D01*
Y138200D01*
X193500D01*
Y137249D01*
X192200D01*
X191225Y137055D01*
X190398Y136502D01*
X188944Y135049D01*
X167813D01*
X167621Y135513D01*
X167140Y136140D01*
X166513Y136620D01*
X165783Y136923D01*
X165000Y137026D01*
X160000D01*
X159217Y136923D01*
X158487Y136620D01*
X157860Y136140D01*
X157379Y135513D01*
X157077Y134783D01*
X156974Y134000D01*
Y131000D01*
X157077Y130217D01*
X157379Y129487D01*
X157860Y128860D01*
X158487Y128379D01*
X159217Y128077D01*
X160000Y127974D01*
X165000D01*
X165783Y128077D01*
X166513Y128379D01*
X167140Y128860D01*
X167621Y129487D01*
X167813Y129951D01*
X190000D01*
X190975Y130145D01*
X191802Y130698D01*
X193000Y131895D01*
X193500Y131688D01*
Y131200D01*
X201500D01*
Y132151D01*
X202200D01*
X203175Y132345D01*
X204002Y132898D01*
X206802Y135698D01*
X207355Y136524D01*
X207549Y137500D01*
Y150000D01*
X207355Y150976D01*
X206802Y151802D01*
X204302Y154302D01*
X203475Y154855D01*
X202970Y154955D01*
X202910Y155414D01*
X202557Y156265D01*
X201996Y156996D01*
X201265Y157557D01*
X200414Y157910D01*
X199500Y158030D01*
X195575D01*
X184116Y169489D01*
X184307Y169951D01*
X195077D01*
X195084Y169902D01*
X195411Y169111D01*
X195932Y168432D01*
X196611Y167911D01*
X197402Y167584D01*
X198250Y167472D01*
X201750D01*
X202598Y167584D01*
X203389Y167911D01*
X204068Y168432D01*
X204589Y169111D01*
X204916Y169902D01*
X205028Y170750D01*
Y174250D01*
X204916Y175098D01*
X204589Y175889D01*
X204068Y176568D01*
X203389Y177089D01*
X203050Y177229D01*
Y177771D01*
X203389Y177911D01*
X204068Y178432D01*
X204589Y179111D01*
X204916Y179902D01*
X205028Y180750D01*
Y184250D01*
X204916Y185098D01*
X204589Y185889D01*
X204068Y186568D01*
X203389Y187089D01*
X203050Y187229D01*
Y187771D01*
X203389Y187911D01*
X204068Y188432D01*
X204589Y189111D01*
X204916Y189902D01*
X204923Y189951D01*
X210077D01*
X210084Y189902D01*
X210411Y189111D01*
X210932Y188432D01*
X211611Y187911D01*
X212402Y187584D01*
X213037Y187500D01*
Y186996D01*
X212532Y186929D01*
X211863Y186652D01*
X211289Y186211D01*
X210848Y185637D01*
X210571Y184968D01*
X210476Y184250D01*
Y183500D01*
X215000D01*
X219524D01*
Y184250D01*
X219429Y184968D01*
X219152Y185637D01*
X218711Y186211D01*
X218137Y186652D01*
X217468Y186929D01*
X216963Y186996D01*
Y187500D01*
X217598Y187584D01*
X218389Y187911D01*
X219068Y188432D01*
X219589Y189111D01*
X219916Y189902D01*
X220028Y190750D01*
Y194250D01*
X219916Y195098D01*
X219589Y195889D01*
X219068Y196568D01*
X218389Y197089D01*
X217598Y197416D01*
X216750Y197528D01*
X213250D01*
X212402Y197416D01*
X211611Y197089D01*
X210932Y196568D01*
X210411Y195889D01*
X210084Y195098D01*
X210077Y195049D01*
X204923D01*
X204916Y195098D01*
X204589Y195889D01*
X204068Y196568D01*
X203389Y197089D01*
X202598Y197416D01*
X201750Y197528D01*
X198250D01*
X197402Y197416D01*
X196611Y197089D01*
X195932Y196568D01*
X195411Y195889D01*
X195084Y195098D01*
X195077Y195049D01*
X191056D01*
X184302Y201802D01*
X183475Y202355D01*
X182500Y202549D01*
D02*
G37*
G36*
X228171Y233842D02*
X216829D01*
X211157Y228171D01*
Y216829D01*
X216829Y211157D01*
X228171D01*
X233842Y216829D01*
Y228171D01*
X228171Y233842D01*
D02*
G37*
G36*
X20671D02*
X9329D01*
X3658Y228171D01*
Y216829D01*
X9329Y211157D01*
X20671D01*
X26342Y216829D01*
Y228171D01*
X20671Y233842D01*
D02*
G37*
G36*
X214000Y181500D02*
X210476D01*
Y180750D01*
X210571Y180032D01*
X210848Y179363D01*
X211289Y178789D01*
X211863Y178348D01*
X212532Y178071D01*
X213250Y177976D01*
X214000D01*
Y181500D01*
D02*
G37*
G36*
X126500Y208500D02*
X118500D01*
Y201500D01*
X126500D01*
Y202451D01*
X146444D01*
X149951Y198944D01*
Y178086D01*
X149647Y177853D01*
X149006Y177017D01*
X148603Y176044D01*
X148466Y175000D01*
X148603Y173956D01*
X149006Y172983D01*
X149647Y172147D01*
X150483Y171506D01*
X151456Y171103D01*
X152500Y170966D01*
X153544Y171103D01*
X154517Y171506D01*
X155353Y172147D01*
X155994Y172983D01*
X156397Y173956D01*
X156535Y175000D01*
X156397Y176044D01*
X155994Y177017D01*
X155353Y177853D01*
X155049Y178086D01*
Y200000D01*
X154855Y200975D01*
X154302Y201802D01*
X149302Y206802D01*
X148476Y207355D01*
X147500Y207549D01*
X126500D01*
Y208500D01*
D02*
G37*
G36*
X111750Y210028D02*
X108250D01*
X107402Y209916D01*
X106611Y209589D01*
X105932Y209068D01*
X105411Y208389D01*
X105084Y207598D01*
X104972Y206750D01*
Y203250D01*
X105084Y202402D01*
X105411Y201611D01*
X105932Y200932D01*
X106611Y200411D01*
X106950Y200271D01*
Y199729D01*
X106611Y199589D01*
X105932Y199068D01*
X105411Y198389D01*
X105084Y197598D01*
X104972Y196750D01*
Y193250D01*
X105084Y192402D01*
X105411Y191611D01*
X105932Y190932D01*
X106611Y190411D01*
X106950Y190271D01*
Y189729D01*
X106611Y189589D01*
X105932Y189068D01*
X105411Y188389D01*
X105084Y187598D01*
X104972Y186750D01*
Y183250D01*
X105084Y182402D01*
X105411Y181611D01*
X105932Y180932D01*
X106611Y180411D01*
X107402Y180084D01*
X108250Y179972D01*
X111423D01*
X112451Y178944D01*
Y150000D01*
X112645Y149024D01*
X113198Y148198D01*
X118500Y142895D01*
Y141300D01*
X111000D01*
Y140349D01*
X110300D01*
X109325Y140155D01*
X108498Y139602D01*
X105698Y136802D01*
X105145Y135976D01*
X104951Y135000D01*
Y122500D01*
X105145Y121525D01*
X105698Y120698D01*
X108198Y118198D01*
X109025Y117645D01*
X110000Y117451D01*
X111914D01*
X112147Y117147D01*
X112983Y116506D01*
X113956Y116103D01*
X115000Y115965D01*
X116044Y116103D01*
X117017Y116506D01*
X117853Y117147D01*
X118494Y117983D01*
X118897Y118956D01*
X119035Y120000D01*
X118897Y121044D01*
X118494Y122017D01*
X117853Y122853D01*
X117017Y123494D01*
X116044Y123897D01*
X115000Y124035D01*
X113956Y123897D01*
X112983Y123494D01*
X112147Y122853D01*
X111914Y122549D01*
X111056D01*
X110049Y123556D01*
Y133944D01*
X110579Y134474D01*
X111000Y134300D01*
Y134300D01*
X118500D01*
Y133500D01*
X111000D01*
Y126500D01*
X119000D01*
Y127451D01*
X120000D01*
X120975Y127645D01*
X121802Y128198D01*
X123746Y130141D01*
X124700Y129951D01*
X127187D01*
X127380Y129487D01*
X127860Y128860D01*
X128487Y128379D01*
X129217Y128077D01*
X130000Y127974D01*
X135000D01*
X135783Y128077D01*
X136513Y128379D01*
X136951Y128716D01*
X137451Y128476D01*
Y92000D01*
X127000D01*
Y90049D01*
X126500D01*
Y96000D01*
X118500D01*
Y89000D01*
X119951D01*
Y88500D01*
X118500D01*
Y85458D01*
X118038Y85267D01*
X115028Y88277D01*
Y89250D01*
X114916Y90098D01*
X114589Y90889D01*
X114068Y91568D01*
X113389Y92089D01*
X113050Y92229D01*
Y92771D01*
X113389Y92911D01*
X114068Y93432D01*
X114589Y94111D01*
X114916Y94902D01*
X115028Y95750D01*
Y99250D01*
X114916Y100098D01*
X114589Y100889D01*
X114068Y101568D01*
X113389Y102089D01*
X112598Y102416D01*
X111750Y102528D01*
X108250D01*
X107402Y102416D01*
X106611Y102089D01*
X105932Y101568D01*
X105411Y100889D01*
X105084Y100098D01*
X104972Y99250D01*
Y95750D01*
X105084Y94902D01*
X105411Y94111D01*
X105932Y93432D01*
X106611Y92911D01*
X106950Y92771D01*
Y92229D01*
X106611Y92089D01*
X105932Y91568D01*
X105411Y90889D01*
X105084Y90098D01*
X104972Y89250D01*
Y85750D01*
X105084Y84902D01*
X105411Y84111D01*
X105932Y83432D01*
X106611Y82911D01*
X106950Y82771D01*
Y82229D01*
X106611Y82089D01*
X105932Y81568D01*
X105411Y80889D01*
X105084Y80098D01*
X104972Y79250D01*
Y75750D01*
X105084Y74902D01*
X105411Y74111D01*
X105932Y73432D01*
X106611Y72911D01*
X107402Y72584D01*
X108250Y72472D01*
X111423D01*
X112451Y71444D01*
Y45000D01*
X112645Y44025D01*
X113198Y43198D01*
X118500Y37895D01*
Y36000D01*
X111000D01*
Y35049D01*
X110000D01*
X109025Y34855D01*
X108198Y34302D01*
X105698Y31802D01*
X105145Y30975D01*
X104951Y30000D01*
Y20000D01*
X105145Y19025D01*
X105698Y18198D01*
X108198Y15698D01*
X108420Y15549D01*
X108268Y15049D01*
X78556D01*
X70049Y23556D01*
Y67500D01*
X69855Y68476D01*
X69302Y69302D01*
X66802Y71802D01*
X65975Y72355D01*
X65341Y72481D01*
X65121Y73013D01*
X64640Y73640D01*
X64013Y74120D01*
X63283Y74423D01*
X62500Y74526D01*
X57500D01*
X56717Y74423D01*
X55987Y74120D01*
X55360Y73640D01*
X54879Y73013D01*
X54577Y72283D01*
X54474Y71500D01*
Y68500D01*
X54577Y67717D01*
X54879Y66987D01*
X55360Y66360D01*
X55987Y65879D01*
X56717Y65577D01*
X57500Y65474D01*
X62500D01*
X63283Y65577D01*
X64013Y65879D01*
X64451Y66216D01*
X64951Y65976D01*
Y25602D01*
X64451Y25569D01*
X64423Y25783D01*
X64121Y26513D01*
X63640Y27140D01*
X63013Y27621D01*
X62283Y27923D01*
X61500Y28026D01*
X58500D01*
X57717Y27923D01*
X56987Y27621D01*
X56360Y27140D01*
X55879Y26513D01*
X55577Y25783D01*
X55474Y25000D01*
Y20000D01*
X55577Y19217D01*
X55879Y18487D01*
X56360Y17860D01*
X56987Y17379D01*
X57717Y17077D01*
X58500Y16974D01*
X61500D01*
X62283Y17077D01*
X63013Y17379D01*
X63640Y17860D01*
X64121Y18487D01*
X64423Y19217D01*
X64519Y19951D01*
X66444D01*
X75698Y10698D01*
X75920Y10549D01*
X75768Y10049D01*
X46056D01*
X42549Y13556D01*
Y38944D01*
X45120Y41515D01*
X45709Y41398D01*
X45880Y40987D01*
X46360Y40360D01*
X46987Y39880D01*
X47717Y39577D01*
X48500Y39474D01*
X51500D01*
X52283Y39577D01*
X53013Y39880D01*
X53640Y40360D01*
X54120Y40987D01*
X54423Y41717D01*
X54526Y42500D01*
Y47500D01*
X54423Y48283D01*
X54120Y49013D01*
X53640Y49640D01*
X53013Y50121D01*
X52549Y50313D01*
Y86444D01*
X53556Y87451D01*
X54687D01*
X54879Y86987D01*
X55360Y86360D01*
X55987Y85879D01*
X56717Y85577D01*
X57500Y85474D01*
X62500D01*
X63283Y85577D01*
X64013Y85879D01*
X64640Y86360D01*
X65121Y86987D01*
X65423Y87717D01*
X65526Y88500D01*
Y91500D01*
X65423Y92283D01*
X65121Y93013D01*
X64640Y93640D01*
X64013Y94121D01*
X63283Y94423D01*
X62500Y94526D01*
X57500D01*
X56717Y94423D01*
X55987Y94121D01*
X55360Y93640D01*
X54879Y93013D01*
X54687Y92549D01*
X52500D01*
X51525Y92355D01*
X50698Y91802D01*
X48198Y89302D01*
X47645Y88476D01*
X47451Y87500D01*
Y50313D01*
X46987Y50121D01*
X46360Y49640D01*
X45880Y49013D01*
X45577Y48283D01*
X45481Y47549D01*
X45000D01*
X44025Y47355D01*
X43198Y46802D01*
X38198Y41802D01*
X37645Y40975D01*
X37451Y40000D01*
Y12500D01*
X37645Y11525D01*
X38198Y10698D01*
X43198Y5698D01*
X44025Y5145D01*
X45000Y4951D01*
X135000D01*
X135976Y5145D01*
X136802Y5698D01*
X146802Y15698D01*
X147355Y16524D01*
X147549Y17500D01*
Y54951D01*
X157187D01*
X157379Y54487D01*
X157860Y53860D01*
X158487Y53379D01*
X159217Y53077D01*
X160000Y52974D01*
X165000D01*
X165783Y53077D01*
X166513Y53379D01*
X167140Y53860D01*
X167250Y54004D01*
X167750D01*
X167860Y53861D01*
X168487Y53380D01*
X169217Y53078D01*
X170000Y52974D01*
X175000D01*
X175783Y53078D01*
X176513Y53380D01*
X177140Y53861D01*
X177620Y54487D01*
X177923Y55217D01*
X178026Y56000D01*
Y59000D01*
X177923Y59784D01*
X177620Y60513D01*
X177140Y61140D01*
X176513Y61621D01*
X175783Y61923D01*
X175000Y62026D01*
X170000D01*
X169217Y61923D01*
X168487Y61621D01*
X167860Y61140D01*
X167750Y60996D01*
X167250D01*
X167140Y61140D01*
X166513Y61620D01*
X165783Y61923D01*
X165000Y62026D01*
X160000D01*
X159217Y61923D01*
X158487Y61620D01*
X157860Y61140D01*
X157379Y60513D01*
X157187Y60049D01*
X147549D01*
Y158944D01*
X148556Y159951D01*
X157187D01*
X157379Y159487D01*
X157860Y158860D01*
X158487Y158379D01*
X159217Y158077D01*
X160000Y157974D01*
X165000D01*
X165783Y158077D01*
X166513Y158379D01*
X167140Y158860D01*
X167250Y159004D01*
X167750D01*
X167860Y158860D01*
X168487Y158379D01*
X169217Y158077D01*
X170000Y157974D01*
X175000D01*
X175783Y158077D01*
X176513Y158379D01*
X177140Y158860D01*
X177620Y159487D01*
X177923Y160217D01*
X178026Y161000D01*
Y164000D01*
X177923Y164783D01*
X177620Y165513D01*
X177140Y166140D01*
X176513Y166621D01*
X175783Y166923D01*
X175000Y167026D01*
X170000D01*
X169217Y166923D01*
X168487Y166621D01*
X167860Y166140D01*
X167750Y165996D01*
X167250D01*
X167140Y166140D01*
X166513Y166621D01*
X165783Y166923D01*
X165000Y167026D01*
X160000D01*
X159217Y166923D01*
X158487Y166621D01*
X157860Y166140D01*
X157379Y165513D01*
X157187Y165049D01*
X147500D01*
X146525Y164855D01*
X145698Y164302D01*
X143198Y161802D01*
X142784Y161184D01*
X142216Y161184D01*
X141802Y161802D01*
X139302Y164302D01*
X138476Y164855D01*
X137841Y164981D01*
X137620Y165513D01*
X137140Y166140D01*
X136513Y166621D01*
X135783Y166923D01*
X135000Y167026D01*
X130000D01*
X129217Y166923D01*
X128487Y166621D01*
X127860Y166140D01*
X127750Y165996D01*
X127250D01*
X127140Y166140D01*
X126513Y166621D01*
X125783Y166923D01*
X125000Y167026D01*
X120000D01*
X119217Y166923D01*
X118487Y166621D01*
X118049Y166284D01*
X117549Y166524D01*
Y180000D01*
X117390Y180798D01*
X117851Y181044D01*
X118198Y180698D01*
X118500Y180496D01*
Y179000D01*
X126500D01*
Y179951D01*
X127187D01*
X127380Y179487D01*
X127860Y178860D01*
X128487Y178379D01*
X129217Y178077D01*
X130000Y177974D01*
X135000D01*
X135783Y178077D01*
X136513Y178379D01*
X137140Y178860D01*
X137620Y179487D01*
X137923Y180217D01*
X138026Y181000D01*
Y184000D01*
X137923Y184783D01*
X137620Y185513D01*
X137140Y186140D01*
X136513Y186620D01*
X135783Y186923D01*
X135000Y187026D01*
X130000D01*
X129217Y186923D01*
X128487Y186620D01*
X127860Y186140D01*
X127380Y185513D01*
X127187Y185049D01*
X126500D01*
Y186000D01*
X120105D01*
X120049Y186056D01*
Y186800D01*
X126500D01*
Y189951D01*
X127000D01*
Y188000D01*
X138000D01*
Y197000D01*
X127000D01*
Y195049D01*
X126500D01*
Y200700D01*
X118500D01*
Y195758D01*
X118038Y195567D01*
X116802Y196802D01*
X115975Y197355D01*
X115000Y197549D01*
X114923D01*
X114916Y197598D01*
X114589Y198389D01*
X114068Y199068D01*
X113389Y199589D01*
X113050Y199729D01*
Y200271D01*
X113389Y200411D01*
X114068Y200932D01*
X114589Y201611D01*
X114916Y202402D01*
X115028Y203250D01*
Y206750D01*
X114916Y207598D01*
X114589Y208389D01*
X114068Y209068D01*
X113389Y209589D01*
X112598Y209916D01*
X111750Y210028D01*
D02*
G37*
G36*
X219524Y181500D02*
X216000D01*
Y177976D01*
X216750D01*
X217468Y178071D01*
X218137Y178348D01*
X218711Y178789D01*
X219152Y179363D01*
X219429Y180032D01*
X219524Y180750D01*
Y181500D01*
D02*
G37*
G36*
X81500Y148700D02*
X79000D01*
Y146700D01*
X81500D01*
Y148700D01*
D02*
G37*
G36*
X151500Y143700D02*
X149000D01*
Y141700D01*
X151500D01*
Y143700D01*
D02*
G37*
G36*
X14000Y121030D02*
X12500D01*
X11586Y120910D01*
X10735Y120557D01*
X10004Y119996D01*
X9443Y119265D01*
X9090Y118414D01*
X8970Y117500D01*
Y116000D01*
X14000D01*
Y121030D01*
D02*
G37*
G36*
X165000Y147026D02*
X160000D01*
X159217Y146923D01*
X158487Y146621D01*
X157860Y146140D01*
X157379Y145513D01*
X157077Y144783D01*
X156974Y144000D01*
Y141000D01*
X157077Y140217D01*
X157379Y139487D01*
X157860Y138860D01*
X158487Y138380D01*
X159217Y138077D01*
X160000Y137974D01*
X165000D01*
X165783Y138077D01*
X166513Y138380D01*
X167140Y138860D01*
X167621Y139487D01*
X167813Y139951D01*
X193500D01*
Y139000D01*
X201500D01*
Y146000D01*
X193500D01*
Y145049D01*
X167813D01*
X167621Y145513D01*
X167140Y146140D01*
X166513Y146621D01*
X165783Y146923D01*
X165000Y147026D01*
D02*
G37*
G36*
X62500Y134526D02*
X57500D01*
X56717Y134423D01*
X55987Y134121D01*
X55360Y133640D01*
X54879Y133013D01*
X54687Y132549D01*
X50000D01*
X49025Y132355D01*
X48198Y131802D01*
X40698Y124302D01*
X40145Y123476D01*
X39951Y122500D01*
Y113556D01*
X23944Y97549D01*
X21528D01*
X21397Y98544D01*
X20994Y99517D01*
X20353Y100353D01*
X19517Y100994D01*
X18544Y101397D01*
X17500Y101534D01*
X12500D01*
X11456Y101397D01*
X10483Y100994D01*
X9647Y100353D01*
X9006Y99517D01*
X8603Y98544D01*
X8466Y97500D01*
Y92500D01*
X8603Y91456D01*
X9006Y90483D01*
X9647Y89647D01*
X10483Y89006D01*
X11456Y88603D01*
X12500Y88465D01*
X17500D01*
X18544Y88603D01*
X19517Y89006D01*
X20353Y89647D01*
X20994Y90483D01*
X21397Y91456D01*
X21528Y92451D01*
X25000D01*
X25975Y92645D01*
X26802Y93198D01*
X44302Y110698D01*
X44855Y111524D01*
X45049Y112500D01*
Y121444D01*
X51056Y127451D01*
X54687D01*
X54879Y126987D01*
X55360Y126360D01*
X55987Y125880D01*
X56717Y125577D01*
X57500Y125474D01*
X62500D01*
X63283Y125577D01*
X64013Y125880D01*
X64640Y126360D01*
X65121Y126987D01*
X65423Y127717D01*
X65526Y128500D01*
Y131500D01*
X65423Y132283D01*
X65121Y133013D01*
X64640Y133640D01*
X64013Y134121D01*
X63283Y134423D01*
X62500Y134526D01*
D02*
G37*
G36*
X17500Y121030D02*
X16000D01*
Y116000D01*
X21030D01*
Y117500D01*
X20910Y118414D01*
X20557Y119265D01*
X19996Y119996D01*
X19265Y120557D01*
X18414Y120910D01*
X17500Y121030D01*
D02*
G37*
G36*
X62500Y124526D02*
X57500D01*
X56717Y124423D01*
X55987Y124120D01*
X55360Y123640D01*
X54879Y123013D01*
X54659Y122481D01*
X54024Y122355D01*
X53198Y121802D01*
X50698Y119302D01*
X50145Y118475D01*
X49951Y117500D01*
Y106056D01*
X21918Y78023D01*
X21444Y78184D01*
X21397Y78544D01*
X20994Y79517D01*
X20353Y80353D01*
X19517Y80994D01*
X18544Y81397D01*
X17500Y81534D01*
X12500D01*
X11456Y81397D01*
X10483Y80994D01*
X9647Y80353D01*
X9006Y79517D01*
X8603Y78544D01*
X8466Y77500D01*
Y72500D01*
X8603Y71456D01*
X9006Y70483D01*
X9647Y69647D01*
X10483Y69006D01*
X11456Y68603D01*
X12500Y68466D01*
X17500D01*
X18544Y68603D01*
X19517Y69006D01*
X20353Y69647D01*
X20994Y70483D01*
X21397Y71456D01*
X21528Y72451D01*
X22500D01*
X23475Y72645D01*
X24302Y73198D01*
X54302Y103198D01*
X54855Y104025D01*
X55049Y105000D01*
Y115976D01*
X55549Y116216D01*
X55987Y115879D01*
X56717Y115577D01*
X57500Y115474D01*
X62500D01*
X63283Y115577D01*
X64013Y115879D01*
X64640Y116360D01*
X65121Y116987D01*
X65423Y117717D01*
X65526Y118500D01*
Y121500D01*
X65423Y122283D01*
X65121Y123013D01*
X64640Y123640D01*
X64013Y124120D01*
X63283Y124423D01*
X62500Y124526D01*
D02*
G37*
G36*
X151500Y147700D02*
X149000D01*
Y145700D01*
X151500D01*
Y147700D01*
D02*
G37*
G36*
X14000Y114000D02*
X8970D01*
Y112500D01*
X9090Y111586D01*
X9443Y110735D01*
X10004Y110004D01*
X10735Y109443D01*
X11586Y109090D01*
X12500Y108970D01*
X14000D01*
Y114000D01*
D02*
G37*
G36*
X156000Y147700D02*
X153500D01*
Y145700D01*
X156000D01*
Y147700D01*
D02*
G37*
G36*
Y143700D02*
X153500D01*
Y141700D01*
X156000D01*
Y143700D01*
D02*
G37*
G36*
X21030Y114000D02*
X16000D01*
Y108970D01*
X17500D01*
X18414Y109090D01*
X19265Y109443D01*
X19996Y110004D01*
X20557Y110735D01*
X20910Y111586D01*
X21030Y112500D01*
Y114000D01*
D02*
G37*
%LPD*%
G36*
X188198Y85698D02*
X189024Y85145D01*
X190000Y84951D01*
X195077D01*
X195084Y84902D01*
X195411Y84111D01*
X195932Y83432D01*
X196611Y82911D01*
X196950Y82771D01*
Y82229D01*
X196611Y82089D01*
X195932Y81568D01*
X195411Y80889D01*
X195084Y80098D01*
X194972Y79250D01*
Y75750D01*
X195015Y75425D01*
X194685Y75049D01*
X180800D01*
Y76500D01*
X177800D01*
Y77500D01*
X176800D01*
Y81000D01*
X175558D01*
X175367Y81462D01*
X177405Y83500D01*
X181300D01*
Y91500D01*
X174300D01*
Y87605D01*
X173962Y87267D01*
X173500Y87458D01*
Y91500D01*
X173258D01*
X173067Y91962D01*
X173556Y92451D01*
X181444D01*
X188198Y85698D01*
D02*
G37*
%LPC*%
G36*
X180800Y81000D02*
X178800D01*
Y78500D01*
X180800D01*
Y81000D01*
D02*
G37*
%LPD*%
G36*
X188198Y190698D02*
X189024Y190145D01*
X190000Y189951D01*
X195077D01*
X195084Y189902D01*
X195411Y189111D01*
X195932Y188432D01*
X196611Y187911D01*
X196950Y187771D01*
Y187229D01*
X196611Y187089D01*
X195932Y186568D01*
X195411Y185889D01*
X195084Y185098D01*
X194972Y184250D01*
Y180750D01*
X195084Y179902D01*
X195411Y179111D01*
X195932Y178432D01*
X196611Y177911D01*
X196950Y177771D01*
Y177229D01*
X196611Y177089D01*
X195932Y176568D01*
X195411Y175889D01*
X195084Y175098D01*
X195077Y175049D01*
X182799D01*
X180545Y177302D01*
X179718Y177855D01*
X178743Y178049D01*
X177756D01*
X177267Y178538D01*
X177458Y179000D01*
X180500D01*
Y181500D01*
X177500D01*
Y182500D01*
X176500D01*
Y186000D01*
X175558D01*
X175367Y186462D01*
X177405Y188500D01*
X181300D01*
Y196500D01*
X174300D01*
Y192605D01*
X173962Y192267D01*
X173500Y192458D01*
Y196500D01*
X173258D01*
X173067Y196962D01*
X173556Y197451D01*
X181444D01*
X188198Y190698D01*
D02*
G37*
%LPC*%
G36*
X180500Y186000D02*
X178500D01*
Y183500D01*
X180500D01*
Y186000D01*
D02*
G37*
%LPD*%
G36*
X124700Y24951D02*
X127187D01*
X127380Y24487D01*
X127860Y23860D01*
X128487Y23380D01*
X129217Y23077D01*
X130000Y22974D01*
X135000D01*
X135783Y23077D01*
X136513Y23380D01*
X136951Y23716D01*
X137451Y23476D01*
Y21056D01*
X131444Y15049D01*
X118713D01*
X118521Y15549D01*
X118897Y16456D01*
X119035Y17500D01*
X118897Y18544D01*
X118494Y19517D01*
X117853Y20353D01*
X117400Y20700D01*
X117570Y21200D01*
X119000D01*
Y22151D01*
X119700D01*
X120676Y22345D01*
X121502Y22898D01*
X123746Y25141D01*
X124700Y24951D01*
D02*
G37*
G36*
X127860Y158860D02*
X128487Y158379D01*
X129217Y158077D01*
X130000Y157974D01*
X135000D01*
X135783Y158077D01*
X136513Y158379D01*
X136951Y158716D01*
X137451Y158476D01*
Y155732D01*
X136951Y155580D01*
X136802Y155802D01*
X135976Y156355D01*
X135000Y156549D01*
X133500D01*
Y152500D01*
Y148451D01*
X135000D01*
X135976Y148645D01*
X136802Y149198D01*
X136951Y149420D01*
X137451Y149268D01*
Y146524D01*
X136951Y146284D01*
X136513Y146621D01*
X135783Y146923D01*
X135000Y147026D01*
X130000D01*
X129217Y146923D01*
X128487Y146621D01*
X127860Y146140D01*
X127380Y145513D01*
X127187Y145049D01*
X126500D01*
Y146000D01*
X122605D01*
X120616Y147989D01*
X120807Y148451D01*
X121500D01*
Y152500D01*
Y156549D01*
X120000D01*
X119025Y156355D01*
X118198Y155802D01*
X118049Y155580D01*
X117549Y155731D01*
Y158476D01*
X118049Y158716D01*
X118487Y158379D01*
X119217Y158077D01*
X120000Y157974D01*
X125000D01*
X125783Y158077D01*
X126513Y158379D01*
X127140Y158860D01*
X127250Y159004D01*
X127750D01*
X127860Y158860D01*
D02*
G37*
G36*
X118500Y77595D02*
Y73700D01*
X126500D01*
Y74651D01*
X127312D01*
X127380Y74487D01*
X127860Y73860D01*
X128487Y73379D01*
X129217Y73077D01*
X130000Y72974D01*
X135000D01*
X135783Y73077D01*
X136513Y73379D01*
X136951Y73716D01*
X137451Y73476D01*
Y71524D01*
X136951Y71284D01*
X136513Y71621D01*
X135783Y71923D01*
X135000Y72026D01*
X130000D01*
X129217Y71923D01*
X128487Y71621D01*
X127860Y71140D01*
X127380Y70513D01*
X127077Y69783D01*
X126974Y69000D01*
Y66000D01*
X127077Y65217D01*
X127380Y64487D01*
X127860Y63860D01*
X128487Y63380D01*
X129217Y63077D01*
X130000Y62974D01*
X135000D01*
X135783Y63077D01*
X136513Y63380D01*
X136951Y63716D01*
X137451Y63476D01*
Y61524D01*
X136951Y61284D01*
X136513Y61620D01*
X135783Y61923D01*
X135000Y62026D01*
X130000D01*
X129217Y61923D01*
X128487Y61620D01*
X127860Y61140D01*
X127750Y60996D01*
X127250D01*
X127140Y61140D01*
X126513Y61621D01*
X125783Y61923D01*
X125000Y62026D01*
X120000D01*
X119217Y61923D01*
X118487Y61621D01*
X118049Y61285D01*
X117549Y61524D01*
Y72500D01*
X117355Y73475D01*
X116802Y74302D01*
X115028Y76077D01*
Y79250D01*
X114916Y80098D01*
X114652Y80736D01*
X115076Y81019D01*
X118500Y77595D01*
D02*
G37*
G36*
X127860Y53860D02*
X128487Y53379D01*
X129217Y53077D01*
X130000Y52974D01*
X135000D01*
X135783Y53077D01*
X136513Y53379D01*
X136951Y53716D01*
X137451Y53476D01*
Y50732D01*
X136951Y50580D01*
X136802Y50802D01*
X135976Y51355D01*
X135000Y51549D01*
X133500D01*
Y47500D01*
Y43451D01*
X135000D01*
X135976Y43645D01*
X136802Y44198D01*
X136951Y44420D01*
X137451Y44268D01*
Y41524D01*
X136951Y41284D01*
X136513Y41620D01*
X135783Y41923D01*
X135000Y42026D01*
X130000D01*
X129217Y41923D01*
X128487Y41620D01*
X127860Y41140D01*
X127380Y40513D01*
X127187Y40049D01*
X126500D01*
Y41000D01*
X122605D01*
X120616Y42989D01*
X120807Y43451D01*
X121500D01*
Y47500D01*
Y51549D01*
X120000D01*
X119025Y51355D01*
X118198Y50802D01*
X118049Y50580D01*
X117549Y50732D01*
Y53476D01*
X118049Y53716D01*
X118487Y53380D01*
X119217Y53078D01*
X120000Y52974D01*
X125000D01*
X125783Y53078D01*
X126513Y53380D01*
X127140Y53861D01*
X127250Y54004D01*
X127750D01*
X127860Y53860D01*
D02*
G37*
%LPC*%
G36*
X131500Y156549D02*
X130000D01*
X129025Y156355D01*
X128198Y155802D01*
X127784Y155184D01*
X127216Y155184D01*
X126802Y155802D01*
X125976Y156355D01*
X125000Y156549D01*
X123500D01*
Y152500D01*
Y148451D01*
X125000D01*
X125976Y148645D01*
X126802Y149197D01*
X127216Y149816D01*
X127785Y149816D01*
X128198Y149198D01*
X129025Y148645D01*
X130000Y148451D01*
X131500D01*
Y152500D01*
Y156549D01*
D02*
G37*
G36*
Y51549D02*
X130000D01*
X129025Y51355D01*
X128198Y50802D01*
X127784Y50184D01*
X127216D01*
X126802Y50802D01*
X125976Y51355D01*
X125000Y51549D01*
X123500D01*
Y47500D01*
Y43451D01*
X125000D01*
X125976Y43645D01*
X126802Y44198D01*
X127216Y44816D01*
X127784D01*
X128198Y44198D01*
X129025Y43645D01*
X130000Y43451D01*
X131500D01*
Y47500D01*
Y51549D01*
D02*
G37*
%LPD*%
D10*
X15000Y95000D02*
X25000D01*
X42500Y122500D02*
X50000Y130000D01*
X60000D01*
X15000Y75000D02*
X22500D01*
X52500Y105000D01*
Y117500D01*
X55000Y120000D01*
X60000D01*
X42500Y112500D02*
Y122500D01*
X25000Y95000D02*
X42500Y112500D01*
X82500Y97500D02*
X92500D01*
X110000Y87500D02*
Y97500D01*
X92500Y77500D02*
Y87500D01*
X82500Y72067D02*
Y82933D01*
X84000Y56500D02*
X92579D01*
X82500Y50000D02*
Y55000D01*
X84000Y56500D01*
X82800Y42500D02*
X95000D01*
X82500Y42200D02*
X82800Y42500D01*
X50000Y45000D02*
Y87500D01*
X52500Y90000D01*
X60000D01*
Y22500D02*
X67500D01*
X60000Y70000D02*
X65000D01*
X67500Y67500D01*
Y22500D02*
Y67500D01*
X92579Y63500D02*
Y77421D01*
X92500Y77500D02*
X92579Y77421D01*
X122500Y87500D02*
Y92500D01*
Y77200D02*
X132200D01*
X132500Y77500D01*
X122500Y57500D02*
X132500D01*
X132500Y57500D01*
X162500Y57500D02*
X172500D01*
X162500Y57500D02*
X162500Y57500D01*
X115000Y24700D02*
X119700D01*
X122500Y27500D01*
Y29700D01*
X200000Y87500D02*
X215000D01*
X152500Y47800D02*
X162200D01*
X162500Y47500D01*
X152500Y152500D02*
X162500D01*
Y162500D02*
X172500D01*
X122500Y192500D02*
Y197200D01*
X162500Y192500D02*
X170000D01*
X162500Y192500D02*
X162500Y192500D01*
X200000Y192500D02*
X215000D01*
X162500Y182500D02*
X169700D01*
Y184400D02*
X177800Y192500D01*
X169700Y182500D02*
Y184400D01*
X162500Y87500D02*
X170000D01*
Y79700D02*
X177800Y87500D01*
X170000Y77500D02*
Y79700D01*
X122500Y37500D02*
X132500D01*
X83000Y163000D02*
X92500D01*
X82500Y162500D02*
X83000Y163000D01*
X82500Y157500D02*
Y162500D01*
X92500Y170000D02*
Y185000D01*
Y195000D01*
X110000D02*
Y205000D01*
X122500Y182500D02*
X132500D01*
X120000D02*
X122500D01*
X117500Y185000D02*
X120000Y182500D01*
X117500Y185000D02*
Y192500D01*
X115000Y195000D02*
X117500Y192500D01*
X110000Y195000D02*
X115000D01*
X122500Y142500D02*
X132500D01*
X115000Y130000D02*
X120000D01*
X122500Y132500D01*
Y134700D01*
X110000Y77500D02*
X115000Y72500D01*
Y45000D02*
Y72500D01*
Y45000D02*
X122500Y37500D01*
X110000Y185000D02*
X115000Y180000D01*
Y150000D02*
Y180000D01*
Y150000D02*
X122500Y142500D01*
X15000Y155000D02*
X65000Y205000D01*
X82500D01*
X92500D01*
X15000Y147500D02*
X60000D01*
X82500Y125000D01*
Y97500D02*
Y125000D01*
X15000Y135000D02*
Y147500D01*
Y155000D01*
X105000Y150000D02*
Y160000D01*
X102421Y162579D02*
X105000Y160000D01*
X102421Y162579D02*
Y166500D01*
X105000Y42500D02*
Y55000D01*
X102500Y57500D02*
X105000Y55000D01*
X102500Y57500D02*
Y60000D01*
X190000Y192500D02*
X200000D01*
X170000Y192500D02*
Y197500D01*
X190000Y87500D02*
X200000D01*
X182500Y95000D02*
X190000Y87500D01*
X172500Y95000D02*
X182500D01*
X170000Y92500D02*
X172500Y95000D01*
X170000Y87500D02*
Y92500D01*
X200000Y172500D02*
Y182500D01*
X137500Y162500D02*
X140000Y160000D01*
X132500Y162500D02*
X137500D01*
X132500Y57500D02*
X140000D01*
Y20000D02*
Y57500D01*
Y160000D01*
X45000Y45000D02*
X50000D01*
X40000Y40000D02*
X45000Y45000D01*
X40000Y12500D02*
Y40000D01*
X145000Y57500D02*
X162500D01*
X145000Y17500D02*
Y57500D01*
X40000Y12500D02*
X45000Y7500D01*
X135000D01*
X145000Y17500D01*
X67500Y22500D02*
X77500Y12500D01*
X132500D01*
X140000Y20000D01*
X107500Y30000D02*
X110000Y32500D01*
X107500Y20000D02*
Y30000D01*
Y20000D02*
X110000Y17500D01*
X115000D01*
X110000Y32500D02*
X115000D01*
X110300Y137800D02*
X115000D01*
X107500Y135000D02*
X110300Y137800D01*
X107500Y122500D02*
Y135000D01*
Y122500D02*
X110000Y120000D01*
X115000D01*
X122500Y134700D02*
X124700Y132500D01*
X132500D01*
X122500Y29700D02*
X124700Y27500D01*
X132500D01*
X162500Y37500D02*
X197500D01*
X162500Y142500D02*
X197500D01*
X162500Y27500D02*
X190000D01*
X192200Y29700D01*
X197500D01*
X202200D01*
X205000Y32500D01*
X197500Y47500D02*
X202500D01*
X205000Y45000D01*
Y32500D02*
Y45000D01*
X162500Y132500D02*
X190000D01*
X192200Y134700D01*
X197500D01*
X202200D01*
X205000Y137500D01*
X197500Y152500D02*
X202500D01*
X205000Y150000D01*
Y137500D02*
Y150000D01*
X177500Y172500D02*
X197500Y152500D01*
X182500Y200000D02*
X190000Y192500D01*
X170000Y197500D02*
X172500Y200000D01*
X182500D01*
X162500Y172500D02*
X177500D01*
X181743D02*
X200000D01*
X178743Y175500D02*
X181743Y172500D01*
X176700Y175500D02*
X178743D01*
X169700Y182500D02*
X176700Y175500D01*
X162500Y67500D02*
X182500D01*
X197500Y52500D01*
Y47500D02*
Y52500D01*
X170000Y77500D02*
X175000Y72500D01*
X200000D01*
Y67500D02*
Y72500D01*
Y77500D01*
X122500Y205000D02*
X147500D01*
X152500Y200000D01*
Y175000D02*
Y200000D01*
X122500Y100300D02*
X132200D01*
X145000Y160000D02*
X147500Y162500D01*
X145000Y57500D02*
Y160000D01*
X102421Y166500D02*
X102500Y166579D01*
Y170000D01*
X105000Y172500D01*
X102500Y60000D02*
Y65000D01*
X105000Y67500D01*
X110000Y87500D02*
X112200D01*
X122500Y77200D01*
Y162500D02*
X132500D01*
X147500D02*
X162500D01*
X82500Y179567D02*
Y190433D01*
Y149700D02*
X94700D01*
X95000Y150000D01*
X162500Y77500D02*
X170000D01*
X122500Y192500D02*
X132500D01*
X122500Y87500D02*
X132500D01*
D11*
X110000Y77500D02*
D03*
Y87500D02*
D03*
Y97500D02*
D03*
X92500Y205000D02*
D03*
Y195000D02*
D03*
Y185000D02*
D03*
X200000Y192500D02*
D03*
Y182500D02*
D03*
Y172500D02*
D03*
X110000Y185000D02*
D03*
Y195000D02*
D03*
Y205000D02*
D03*
X200000Y87500D02*
D03*
Y77500D02*
D03*
Y67500D02*
D03*
X92500Y97500D02*
D03*
Y87500D02*
D03*
Y77500D02*
D03*
X215000Y192500D02*
D03*
Y182500D02*
D03*
Y87500D02*
D03*
Y77500D02*
D03*
D12*
X15000Y95000D02*
D03*
Y75000D02*
D03*
Y135000D02*
D03*
Y115000D02*
D03*
D13*
X60000Y130000D02*
D03*
Y120000D02*
D03*
Y70000D02*
D03*
Y80000D02*
D03*
Y90000D02*
D03*
X122500Y162500D02*
D03*
Y152500D02*
D03*
X172500Y162500D02*
D03*
Y152500D02*
D03*
X122500Y57500D02*
D03*
Y47500D02*
D03*
X172500Y57500D02*
D03*
Y47500D02*
D03*
D14*
X95000Y150000D02*
D03*
X105000D02*
D03*
X95000Y42500D02*
D03*
X105000D02*
D03*
D15*
X50000Y22500D02*
D03*
X60000D02*
D03*
X50000Y45000D02*
D03*
X60000D02*
D03*
D16*
X197500Y47500D02*
D03*
Y152500D02*
D03*
D17*
X15000Y15000D02*
D03*
X222500D02*
D03*
Y222500D02*
D03*
X15000D02*
D03*
D18*
X132500Y87500D02*
D03*
Y192500D02*
D03*
D19*
Y77500D02*
D03*
Y67500D02*
D03*
Y57500D02*
D03*
Y47500D02*
D03*
Y37500D02*
D03*
Y27500D02*
D03*
X162500Y87500D02*
D03*
Y77500D02*
D03*
Y67500D02*
D03*
Y57500D02*
D03*
Y47500D02*
D03*
Y37500D02*
D03*
Y27500D02*
D03*
X132500Y182500D02*
D03*
Y172500D02*
D03*
Y162500D02*
D03*
Y152500D02*
D03*
Y142500D02*
D03*
Y132500D02*
D03*
X162500Y192500D02*
D03*
Y182500D02*
D03*
Y172500D02*
D03*
Y162500D02*
D03*
Y152500D02*
D03*
Y142500D02*
D03*
Y132500D02*
D03*
D20*
X115000Y17500D02*
D03*
Y120000D02*
D03*
X152500Y175000D02*
D03*
X132200Y100300D02*
D03*
X105000Y172500D02*
D03*
Y67500D02*
D03*
X187500Y80000D02*
D03*
X185000Y47500D02*
D03*
Y152500D02*
D03*
X187500Y182500D02*
D03*
X57500Y172500D02*
D03*
X10000D02*
D03*
Y195000D02*
D03*
X182500Y115000D02*
D03*
X220000D02*
D03*
X177500Y225000D02*
D03*
X45000D02*
D03*
X15000Y42500D02*
D03*
X165000Y10000D02*
D03*
X202500D02*
D03*
X227500Y47500D02*
D03*
X95000Y120000D02*
D03*
X220000Y152500D02*
D03*
X45000Y195000D02*
D03*
X140000Y225000D02*
D03*
X85000D02*
D03*
D21*
X102421Y166500D02*
D03*
X92500Y170000D02*
D03*
Y163000D02*
D03*
X102500Y60000D02*
D03*
X92579Y63500D02*
D03*
Y56500D02*
D03*
D22*
X122500Y92500D02*
D03*
Y100300D02*
D03*
X82500Y157500D02*
D03*
Y149700D02*
D03*
Y50000D02*
D03*
Y42200D02*
D03*
X122500Y197200D02*
D03*
Y205000D02*
D03*
Y182500D02*
D03*
Y190300D02*
D03*
Y134700D02*
D03*
Y142500D02*
D03*
X115000Y137800D02*
D03*
Y130000D02*
D03*
X122500Y77200D02*
D03*
Y85000D02*
D03*
Y29700D02*
D03*
Y37500D02*
D03*
X115000Y32500D02*
D03*
Y24700D02*
D03*
X152500Y152500D02*
D03*
Y144700D02*
D03*
Y47800D02*
D03*
Y40000D02*
D03*
X197500Y134700D02*
D03*
Y142500D02*
D03*
Y29700D02*
D03*
Y37500D02*
D03*
D23*
X82500Y205000D02*
D03*
Y190433D02*
D03*
Y179567D02*
D03*
Y165000D02*
D03*
Y72067D02*
D03*
Y57500D02*
D03*
Y97500D02*
D03*
Y82933D02*
D03*
D24*
X177500Y182500D02*
D03*
X169700D02*
D03*
X177800Y192500D02*
D03*
X170000D02*
D03*
X177800Y87500D02*
D03*
X170000D02*
D03*
X177800Y77500D02*
D03*
X170000D02*
D03*
M02*
