M48
;Layer_Color=9474304
;FILE_FORMAT=4:4
METRIC,LZ
;TYPE=PLATED
T1F00S00C0.7112
T2F00S00C0.8000
T3F00S00C1.0000
T4F00S00C1.1000
T5F00S00C3.0000
%
T01
X000381Y0010795
X002921Y0004445
X004191Y000254
X0051435
X004699Y0012065
X0057785
X005588Y002921
Y0038735
X004699
X0047625Y0046355
X0038735Y004445
X002667Y0043815
X0014605
X002413Y003048
X002921
X00335788Y00254762
X002667Y0017145
X0047625Y002032
X0046355Y002921
X001143Y004953
X000254
Y0043815
X001143Y005715
X002159
X003556
X0045085
T02
X00127Y0005715
Y001143
X001524
Y0005715
X002413Y0010795
X002667
X0031115Y0012065
X0033655
Y0009525
Y0006985
X0041275
Y0009525
Y0012065
X0043815
Y00146051
X0041275Y0014605
Y0017145
Y0019685
Y0022225
X0033655
Y0019685
Y0017145
Y0014605
X0031115Y00146051
X002794Y0019685
Y0022225
Y0024765
X0023495
Y0022225
Y0019685
X001524Y002032
Y001778
Y002286
Y003048
Y003302
X002413Y00381
X002667
X0031115Y00387349
Y0041275
X0033655
Y0043815
Y0046355
Y0048895
X002794Y004953
Y004699
X0023495
Y004953
Y005207
X002794
X0041275Y0048895
Y0046355
Y0043815
Y0041275
X0043815
Y00387349
X0041275Y0038735
Y0036195
Y0033655
X0033655
Y0036195
Y0038735
X00508Y0043815
Y0046355
Y0048895
Y0022225
Y0019685
Y0017145
T03
X0050165Y0012065
X005461Y0019685
Y0022225
Y0046355
Y0048895
X0050165Y0038735
T04
X000381Y001905
Y002413
Y002921
Y003429
T05
X000381Y000381
X0056515
X000381Y0056515
X0056515
M30
