G04 Layer_Color=65535*
%FSLAX25Y25*%
%MOIN*%
G70*
G01*
G75*
%ADD25C,0.01000*%
G36*
X37500Y142504D02*
X35564Y141135D01*
X36166Y140509D01*
X37500D01*
Y140000D01*
X33656D01*
Y140509D01*
X35558D01*
X33656Y142416D01*
Y143106D01*
X35219Y141492D01*
X37500Y143176D01*
Y142504D01*
D02*
G37*
G36*
Y68830D02*
X37436D01*
X37395Y68836D01*
X37348Y68841D01*
X37295Y68847D01*
X37237Y68865D01*
X37178Y68882D01*
X37172D01*
X37167Y68888D01*
X37132Y68900D01*
X37085Y68923D01*
X37014Y68958D01*
X36938Y68999D01*
X36851Y69058D01*
X36763Y69116D01*
X36669Y69192D01*
X36663D01*
X36658Y69204D01*
X36623Y69233D01*
X36570Y69280D01*
X36500Y69350D01*
X36418Y69438D01*
X36318Y69543D01*
X36207Y69672D01*
X36084Y69813D01*
X36078Y69818D01*
X36061Y69842D01*
X36037Y69871D01*
X35997Y69912D01*
X35956Y69965D01*
X35903Y70023D01*
X35792Y70152D01*
X35657Y70292D01*
X35523Y70433D01*
X35458Y70503D01*
X35394Y70561D01*
X35330Y70614D01*
X35271Y70661D01*
X35265D01*
X35259Y70673D01*
X35242Y70684D01*
X35219Y70696D01*
X35160Y70731D01*
X35084Y70772D01*
X34996Y70813D01*
X34903Y70848D01*
X34797Y70871D01*
X34698Y70883D01*
X34686D01*
X34651Y70877D01*
X34598Y70871D01*
X34534Y70860D01*
X34458Y70830D01*
X34382Y70795D01*
X34300Y70749D01*
X34224Y70678D01*
X34218Y70667D01*
X34195Y70643D01*
X34165Y70596D01*
X34124Y70538D01*
X34089Y70462D01*
X34060Y70374D01*
X34037Y70269D01*
X34031Y70152D01*
Y70146D01*
Y70134D01*
Y70117D01*
X34037Y70093D01*
X34043Y70035D01*
X34054Y69959D01*
X34084Y69871D01*
X34119Y69777D01*
X34171Y69690D01*
X34242Y69608D01*
X34253Y69602D01*
X34277Y69578D01*
X34323Y69543D01*
X34388Y69508D01*
X34470Y69467D01*
X34563Y69438D01*
X34675Y69415D01*
X34803Y69403D01*
X34751Y68917D01*
X34727D01*
X34698Y68923D01*
X34663Y68929D01*
X34616Y68941D01*
X34563Y68947D01*
X34446Y68982D01*
X34312Y69029D01*
X34177Y69093D01*
X34043Y69181D01*
X33984Y69227D01*
X33926Y69286D01*
X33920Y69292D01*
X33914Y69304D01*
X33896Y69321D01*
X33879Y69345D01*
X33861Y69380D01*
X33832Y69421D01*
X33809Y69467D01*
X33779Y69520D01*
X33756Y69578D01*
X33727Y69643D01*
X33703Y69719D01*
X33686Y69795D01*
X33651Y69971D01*
X33645Y70064D01*
X33639Y70164D01*
Y70169D01*
Y70187D01*
Y70216D01*
X33645Y70257D01*
X33651Y70304D01*
X33656Y70357D01*
X33662Y70415D01*
X33680Y70479D01*
X33715Y70620D01*
X33768Y70766D01*
X33803Y70842D01*
X33844Y70912D01*
X33896Y70977D01*
X33949Y71041D01*
X33955Y71047D01*
X33961Y71053D01*
X33978Y71070D01*
X34002Y71094D01*
X34037Y71117D01*
X34072Y71146D01*
X34160Y71205D01*
X34271Y71263D01*
X34400Y71316D01*
X34546Y71357D01*
X34628Y71363D01*
X34710Y71369D01*
X34751D01*
X34797Y71363D01*
X34856Y71357D01*
X34926Y71345D01*
X35002Y71328D01*
X35084Y71304D01*
X35166Y71269D01*
X35178Y71263D01*
X35207Y71252D01*
X35248Y71228D01*
X35306Y71193D01*
X35376Y71152D01*
X35458Y71100D01*
X35540Y71029D01*
X35634Y70953D01*
X35645Y70942D01*
X35681Y70912D01*
X35733Y70860D01*
X35768Y70824D01*
X35809Y70784D01*
X35856Y70737D01*
X35909Y70678D01*
X35961Y70620D01*
X36026Y70555D01*
X36090Y70485D01*
X36160Y70403D01*
X36230Y70322D01*
X36312Y70228D01*
X36318Y70222D01*
X36330Y70210D01*
X36348Y70187D01*
X36371Y70158D01*
X36430Y70087D01*
X36505Y70000D01*
X36587Y69912D01*
X36669Y69818D01*
X36740Y69742D01*
X36769Y69713D01*
X36798Y69684D01*
X36804Y69678D01*
X36821Y69666D01*
X36845Y69643D01*
X36880Y69614D01*
X36956Y69549D01*
X37049Y69485D01*
Y71374D01*
X37500D01*
Y68830D01*
D02*
G37*
G36*
Y147699D02*
X34493D01*
X34499Y147693D01*
X34522Y147669D01*
X34552Y147628D01*
X34593Y147576D01*
X34645Y147511D01*
X34698Y147435D01*
X34762Y147348D01*
X34821Y147248D01*
Y147242D01*
X34826Y147236D01*
X34850Y147201D01*
X34879Y147149D01*
X34914Y147084D01*
X34955Y147008D01*
X34990Y146926D01*
X35031Y146839D01*
X35066Y146757D01*
X34604D01*
Y146763D01*
X34598Y146774D01*
X34587Y146798D01*
X34569Y146821D01*
X34552Y146856D01*
X34534Y146897D01*
X34481Y146991D01*
X34417Y147096D01*
X34341Y147213D01*
X34253Y147330D01*
X34160Y147441D01*
X34154Y147447D01*
X34148Y147453D01*
X34113Y147488D01*
X34060Y147541D01*
X33996Y147605D01*
X33914Y147675D01*
X33826Y147745D01*
X33733Y147810D01*
X33639Y147862D01*
Y148172D01*
X37500D01*
Y147699D01*
D02*
G37*
G36*
Y143580D02*
X33656D01*
Y144089D01*
X37049D01*
Y145979D01*
X37500D01*
Y143580D01*
D02*
G37*
G36*
Y66080D02*
X33656D01*
Y66589D01*
X37049D01*
Y68479D01*
X37500D01*
Y66080D01*
D02*
G37*
G36*
X116312Y153387D02*
X116342Y153375D01*
X116388Y153364D01*
X116435Y153340D01*
X116500Y153317D01*
X116564Y153294D01*
X116634Y153258D01*
X116792Y153182D01*
X116950Y153077D01*
X117102Y152960D01*
X117172Y152890D01*
X117237Y152814D01*
X117243Y152808D01*
X117248Y152796D01*
X117266Y152773D01*
X117289Y152738D01*
X117313Y152697D01*
X117342Y152650D01*
X117371Y152597D01*
X117401Y152533D01*
X117430Y152463D01*
X117459Y152387D01*
X117488Y152299D01*
X117512Y152211D01*
X117553Y152018D01*
X117559Y151913D01*
X117564Y151802D01*
Y151796D01*
Y151773D01*
Y151743D01*
X117559Y151697D01*
Y151644D01*
X117553Y151585D01*
X117541Y151515D01*
X117535Y151445D01*
X117500Y151281D01*
X117459Y151111D01*
X117395Y150948D01*
X117360Y150866D01*
X117313Y150790D01*
X117307Y150784D01*
X117301Y150772D01*
X117283Y150755D01*
X117266Y150725D01*
X117208Y150655D01*
X117126Y150573D01*
X117026Y150474D01*
X116897Y150380D01*
X116751Y150281D01*
X116581Y150199D01*
X116576D01*
X116558Y150193D01*
X116535Y150181D01*
X116500Y150170D01*
X116453Y150152D01*
X116400Y150135D01*
X116342Y150117D01*
X116271Y150100D01*
X116201Y150082D01*
X116119Y150064D01*
X115944Y150029D01*
X115757Y150006D01*
X115552Y150000D01*
X115494D01*
X115453Y150006D01*
X115400D01*
X115336Y150012D01*
X115271Y150018D01*
X115195Y150029D01*
X115031Y150058D01*
X114856Y150094D01*
X114674Y150152D01*
X114505Y150228D01*
X114499D01*
X114487Y150240D01*
X114464Y150251D01*
X114429Y150269D01*
X114394Y150293D01*
X114353Y150322D01*
X114253Y150398D01*
X114142Y150486D01*
X114031Y150597D01*
X113920Y150731D01*
X113826Y150877D01*
Y150883D01*
X113814Y150895D01*
X113803Y150918D01*
X113791Y150953D01*
X113774Y150989D01*
X113750Y151035D01*
X113733Y151094D01*
X113709Y151152D01*
X113686Y151217D01*
X113668Y151287D01*
X113627Y151445D01*
X113604Y151620D01*
X113592Y151808D01*
Y151813D01*
Y151831D01*
Y151866D01*
X113598Y151907D01*
X113604Y151954D01*
X113610Y152012D01*
X113616Y152077D01*
X113627Y152147D01*
X113662Y152299D01*
X113715Y152463D01*
X113750Y152545D01*
X113791Y152627D01*
X113838Y152703D01*
X113891Y152779D01*
X113896Y152785D01*
X113902Y152796D01*
X113920Y152814D01*
X113943Y152843D01*
X113972Y152872D01*
X114013Y152913D01*
X114054Y152954D01*
X114101Y152995D01*
X114160Y153042D01*
X114218Y153083D01*
X114288Y153130D01*
X114364Y153176D01*
X114441Y153217D01*
X114528Y153258D01*
X114715Y153329D01*
X114832Y152825D01*
X114827D01*
X114815Y152820D01*
X114792Y152814D01*
X114762Y152802D01*
X114727Y152785D01*
X114686Y152767D01*
X114598Y152726D01*
X114499Y152673D01*
X114394Y152603D01*
X114300Y152527D01*
X114218Y152434D01*
X114212Y152422D01*
X114189Y152387D01*
X114160Y152334D01*
X114119Y152258D01*
X114084Y152170D01*
X114054Y152059D01*
X114031Y151936D01*
X114025Y151796D01*
Y151790D01*
Y151778D01*
Y151755D01*
X114031Y151726D01*
Y151685D01*
X114037Y151644D01*
X114054Y151539D01*
X114078Y151422D01*
X114119Y151299D01*
X114171Y151176D01*
X114242Y151059D01*
Y151053D01*
X114253Y151047D01*
X114283Y151012D01*
X114329Y150959D01*
X114394Y150895D01*
X114476Y150831D01*
X114569Y150760D01*
X114686Y150696D01*
X114815Y150644D01*
X114821D01*
X114832Y150638D01*
X114850Y150632D01*
X114879Y150626D01*
X114908Y150614D01*
X114949Y150608D01*
X115043Y150585D01*
X115154Y150562D01*
X115277Y150544D01*
X115412Y150532D01*
X115552Y150526D01*
X115634D01*
X115675Y150532D01*
X115727D01*
X115780Y150538D01*
X115839Y150544D01*
X115973Y150562D01*
X116119Y150585D01*
X116266Y150620D01*
X116406Y150667D01*
X116412D01*
X116424Y150673D01*
X116441Y150684D01*
X116465Y150696D01*
X116535Y150725D01*
X116611Y150772D01*
X116704Y150837D01*
X116792Y150913D01*
X116880Y151000D01*
X116956Y151106D01*
Y151111D01*
X116962Y151117D01*
X116973Y151135D01*
X116985Y151158D01*
X117009Y151223D01*
X117044Y151304D01*
X117073Y151398D01*
X117102Y151509D01*
X117126Y151632D01*
X117131Y151761D01*
Y151767D01*
Y151778D01*
Y151802D01*
X117126Y151831D01*
Y151866D01*
X117120Y151913D01*
X117102Y152012D01*
X117073Y152124D01*
X117026Y152246D01*
X116968Y152363D01*
X116886Y152480D01*
X116880Y152486D01*
X116874Y152492D01*
X116839Y152527D01*
X116780Y152580D01*
X116704Y152644D01*
X116599Y152708D01*
X116476Y152779D01*
X116324Y152837D01*
X116155Y152884D01*
X116283Y153393D01*
X116289D01*
X116312Y153387D01*
D02*
G37*
G36*
X30327Y187356D02*
X30512Y187345D01*
X30708Y187322D01*
X31123Y187264D01*
X31146D01*
X31215Y187241D01*
X31319Y187218D01*
X31446Y187195D01*
X31596Y187149D01*
X31757Y187091D01*
X31918Y187022D01*
X32080Y186941D01*
X32103Y186930D01*
X32149Y186907D01*
X32218Y186849D01*
X32311Y186791D01*
X32414Y186699D01*
X32518Y186607D01*
X32622Y186480D01*
X32714Y186353D01*
X32726Y186342D01*
X32749Y186284D01*
X32795Y186203D01*
X32841Y186099D01*
X32875Y185972D01*
X32922Y185811D01*
X32945Y185638D01*
X32956Y185442D01*
Y185431D01*
Y185419D01*
Y185385D01*
Y185338D01*
X32945Y185235D01*
X32922Y185096D01*
X32887Y184935D01*
X32829Y184773D01*
X32760Y184612D01*
X32668Y184462D01*
X32656Y184451D01*
X32610Y184405D01*
X32553Y184335D01*
X32460Y184243D01*
X32357Y184151D01*
X32230Y184059D01*
X32080Y183966D01*
X31907Y183886D01*
X31918D01*
X31942Y183874D01*
X31965Y183863D01*
X32011Y183851D01*
X32126Y183805D01*
X32276Y183747D01*
X32437Y183655D01*
X32610Y183551D01*
X32783Y183436D01*
X32933Y183286D01*
X32945Y183263D01*
X32991Y183217D01*
X33048Y183125D01*
X33129Y182986D01*
X33198Y182825D01*
X33256Y182629D01*
X33302Y182398D01*
X33314Y182133D01*
Y182122D01*
Y182087D01*
Y182029D01*
X33302Y181949D01*
X33291Y181868D01*
X33268Y181753D01*
X33210Y181522D01*
X33175Y181384D01*
X33118Y181245D01*
X33048Y181107D01*
X32979Y180980D01*
X32875Y180842D01*
X32772Y180715D01*
X32645Y180600D01*
X32507Y180484D01*
X32495D01*
X32472Y180461D01*
X32426Y180438D01*
X32357Y180403D01*
X32264Y180357D01*
X32161Y180311D01*
X32034Y180265D01*
X31884Y180219D01*
X31723Y180161D01*
X31526Y180115D01*
X31319Y180069D01*
X31088Y180023D01*
X30835Y179989D01*
X30569Y179965D01*
X30270Y179954D01*
X29958Y179942D01*
X29659D01*
X29474Y179954D01*
X29382D01*
X29313Y179965D01*
X29232D01*
X29151Y179977D01*
X28955Y179989D01*
X28863D01*
X28794Y180000D01*
X28725D01*
X28633Y180011D01*
X28448Y180023D01*
X28436D01*
X28402Y180035D01*
X28356D01*
X28298Y180046D01*
X28160Y180081D01*
X27998Y180115D01*
Y187183D01*
X28010D01*
X28033Y187195D01*
X28079Y187206D01*
X28137Y187218D01*
X28275Y187241D01*
X28448Y187264D01*
X28460D01*
X28494Y187275D01*
X28540D01*
X28609Y187287D01*
X28679Y187299D01*
X28771D01*
X28955Y187322D01*
X29001D01*
X29048Y187333D01*
X29117D01*
X29197Y187345D01*
X29290D01*
X29474Y187356D01*
X29566D01*
X29624Y187368D01*
X30178D01*
X30327Y187356D01*
D02*
G37*
G36*
X37500Y65004D02*
X35564Y63635D01*
X36166Y63009D01*
X37500D01*
Y62500D01*
X33656D01*
Y63009D01*
X35558D01*
X33656Y64916D01*
Y65606D01*
X35219Y63992D01*
X37500Y65676D01*
Y65004D01*
D02*
G37*
G36*
X116447Y156335D02*
X116494Y156330D01*
X116541Y156324D01*
X116599Y156312D01*
X116658Y156295D01*
X116792Y156254D01*
X116868Y156224D01*
X116938Y156183D01*
X117009Y156142D01*
X117079Y156096D01*
X117149Y156037D01*
X117219Y155973D01*
X117225Y155967D01*
X117237Y155955D01*
X117248Y155938D01*
X117272Y155909D01*
X117301Y155873D01*
X117330Y155827D01*
X117360Y155774D01*
X117389Y155721D01*
X117424Y155657D01*
X117453Y155587D01*
X117482Y155511D01*
X117512Y155429D01*
X117535Y155341D01*
X117547Y155247D01*
X117559Y155148D01*
X117564Y155049D01*
Y155043D01*
Y155025D01*
Y155002D01*
X117559Y154967D01*
X117553Y154920D01*
X117547Y154873D01*
X117541Y154815D01*
X117529Y154756D01*
X117494Y154622D01*
X117436Y154481D01*
X117406Y154411D01*
X117366Y154347D01*
X117319Y154276D01*
X117266Y154212D01*
X117260Y154206D01*
X117254Y154200D01*
X117237Y154183D01*
X117213Y154159D01*
X117178Y154136D01*
X117143Y154107D01*
X117102Y154072D01*
X117055Y154042D01*
X116938Y153972D01*
X116804Y153914D01*
X116652Y153861D01*
X116570Y153843D01*
X116482Y153832D01*
X116418Y154306D01*
X116424D01*
X116435Y154311D01*
X116459D01*
X116482Y154323D01*
X116552Y154341D01*
X116640Y154370D01*
X116734Y154405D01*
X116833Y154452D01*
X116921Y154510D01*
X116997Y154575D01*
X117003Y154586D01*
X117026Y154610D01*
X117050Y154651D01*
X117085Y154709D01*
X117114Y154774D01*
X117143Y154856D01*
X117167Y154949D01*
X117172Y155049D01*
Y155054D01*
Y155066D01*
Y155084D01*
X117167Y155107D01*
X117161Y155166D01*
X117143Y155242D01*
X117114Y155335D01*
X117079Y155429D01*
X117020Y155522D01*
X116944Y155610D01*
X116932Y155622D01*
X116903Y155645D01*
X116857Y155680D01*
X116786Y155727D01*
X116704Y155768D01*
X116605Y155803D01*
X116494Y155827D01*
X116371Y155838D01*
X116342D01*
X116318Y155832D01*
X116260Y155827D01*
X116184Y155809D01*
X116102Y155786D01*
X116008Y155745D01*
X115920Y155692D01*
X115839Y155622D01*
X115827Y155610D01*
X115804Y155587D01*
X115774Y155540D01*
X115733Y155476D01*
X115692Y155400D01*
X115663Y155306D01*
X115640Y155207D01*
X115628Y155089D01*
Y155084D01*
Y155066D01*
Y155037D01*
X115634Y154996D01*
X115640Y154949D01*
X115646Y154891D01*
X115657Y154826D01*
X115675Y154756D01*
X115259Y154809D01*
Y154815D01*
Y154838D01*
X115265Y154861D01*
Y154885D01*
Y154891D01*
Y154896D01*
Y154914D01*
Y154937D01*
X115259Y154990D01*
X115248Y155066D01*
X115230Y155148D01*
X115201Y155236D01*
X115166Y155329D01*
X115113Y155423D01*
X115107Y155435D01*
X115084Y155464D01*
X115043Y155499D01*
X114990Y155546D01*
X114926Y155593D01*
X114844Y155628D01*
X114745Y155657D01*
X114628Y155669D01*
X114587D01*
X114540Y155657D01*
X114476Y155645D01*
X114411Y155628D01*
X114341Y155593D01*
X114265Y155552D01*
X114201Y155493D01*
X114195Y155487D01*
X114171Y155464D01*
X114142Y155423D01*
X114113Y155370D01*
X114078Y155306D01*
X114054Y155230D01*
X114031Y155142D01*
X114025Y155043D01*
Y155037D01*
Y155031D01*
Y154996D01*
X114037Y154943D01*
X114049Y154885D01*
X114066Y154809D01*
X114101Y154733D01*
X114142Y154657D01*
X114201Y154580D01*
X114206Y154575D01*
X114230Y154551D01*
X114271Y154522D01*
X114329Y154487D01*
X114400Y154446D01*
X114487Y154411D01*
X114593Y154376D01*
X114715Y154352D01*
X114634Y153878D01*
X114628D01*
X114610Y153884D01*
X114587Y153890D01*
X114557Y153896D01*
X114516Y153908D01*
X114470Y153919D01*
X114364Y153960D01*
X114247Y154007D01*
X114125Y154077D01*
X114007Y154159D01*
X113902Y154265D01*
X113896Y154271D01*
X113891Y154276D01*
X113879Y154294D01*
X113861Y154323D01*
X113844Y154352D01*
X113820Y154387D01*
X113768Y154475D01*
X113721Y154586D01*
X113680Y154721D01*
X113651Y154867D01*
X113639Y154949D01*
Y155031D01*
Y155037D01*
Y155043D01*
Y155060D01*
Y155084D01*
X113645Y155142D01*
X113656Y155218D01*
X113674Y155306D01*
X113698Y155405D01*
X113733Y155505D01*
X113779Y155604D01*
Y155610D01*
X113785Y155616D01*
X113803Y155651D01*
X113832Y155698D01*
X113873Y155756D01*
X113926Y155821D01*
X113990Y155891D01*
X114066Y155955D01*
X114148Y156014D01*
X114160Y156020D01*
X114189Y156037D01*
X114236Y156061D01*
X114294Y156084D01*
X114370Y156107D01*
X114452Y156131D01*
X114540Y156148D01*
X114639Y156154D01*
X114680D01*
X114727Y156148D01*
X114786Y156137D01*
X114856Y156119D01*
X114932Y156096D01*
X115014Y156067D01*
X115090Y156020D01*
X115102Y156014D01*
X115125Y155996D01*
X115160Y155961D01*
X115207Y155920D01*
X115259Y155862D01*
X115312Y155797D01*
X115371Y155716D01*
X115417Y155622D01*
Y155628D01*
X115423Y155639D01*
Y155657D01*
X115435Y155680D01*
X115453Y155739D01*
X115488Y155815D01*
X115529Y155897D01*
X115587Y155984D01*
X115657Y156072D01*
X115745Y156148D01*
X115757Y156154D01*
X115792Y156178D01*
X115845Y156207D01*
X115915Y156248D01*
X116002Y156283D01*
X116108Y156312D01*
X116230Y156335D01*
X116365Y156341D01*
X116412D01*
X116447Y156335D01*
D02*
G37*
G36*
X186536Y101993D02*
X185273D01*
Y98600D01*
X184764D01*
Y101993D01*
X183500D01*
Y102444D01*
X186536D01*
Y101993D01*
D02*
G37*
G36*
X193106Y206934D02*
X191573D01*
X191362Y205899D01*
X191368Y205905D01*
X191380Y205911D01*
X191398Y205922D01*
X191421Y205940D01*
X191456Y205958D01*
X191491Y205975D01*
X191585Y206022D01*
X191690Y206069D01*
X191813Y206104D01*
X191947Y206133D01*
X192088Y206145D01*
X192135D01*
X192170Y206139D01*
X192217Y206133D01*
X192263Y206127D01*
X192322Y206116D01*
X192380Y206104D01*
X192515Y206057D01*
X192585Y206034D01*
X192655Y205998D01*
X192731Y205958D01*
X192801Y205911D01*
X192872Y205858D01*
X192936Y205794D01*
X192942Y205788D01*
X192954Y205776D01*
X192971Y205759D01*
X192989Y205729D01*
X193018Y205694D01*
X193047Y205653D01*
X193076Y205607D01*
X193112Y205554D01*
X193147Y205490D01*
X193176Y205425D01*
X193205Y205349D01*
X193234Y205273D01*
X193252Y205185D01*
X193270Y205098D01*
X193281Y204998D01*
X193287Y204899D01*
Y204893D01*
Y204875D01*
Y204846D01*
X193281Y204811D01*
X193275Y204764D01*
X193270Y204712D01*
X193264Y204653D01*
X193252Y204589D01*
X193211Y204448D01*
X193158Y204302D01*
X193123Y204220D01*
X193082Y204144D01*
X193035Y204068D01*
X192983Y203998D01*
X192977Y203992D01*
X192965Y203980D01*
X192942Y203957D01*
X192913Y203928D01*
X192877Y203892D01*
X192831Y203852D01*
X192778Y203811D01*
X192714Y203770D01*
X192649Y203723D01*
X192573Y203682D01*
X192486Y203641D01*
X192398Y203606D01*
X192298Y203577D01*
X192199Y203553D01*
X192088Y203541D01*
X191971Y203536D01*
X191918D01*
X191883Y203541D01*
X191842Y203547D01*
X191789Y203553D01*
X191731Y203559D01*
X191667Y203571D01*
X191532Y203606D01*
X191392Y203659D01*
X191322Y203694D01*
X191251Y203734D01*
X191181Y203776D01*
X191117Y203828D01*
X191111Y203834D01*
X191105Y203840D01*
X191087Y203857D01*
X191064Y203881D01*
X191041Y203910D01*
X191011Y203945D01*
X190982Y203986D01*
X190947Y204033D01*
X190883Y204144D01*
X190818Y204279D01*
X190772Y204431D01*
X190754Y204519D01*
X190742Y204606D01*
X191240Y204641D01*
Y204635D01*
Y204624D01*
X191245Y204606D01*
X191251Y204583D01*
X191269Y204519D01*
X191292Y204437D01*
X191322Y204349D01*
X191368Y204261D01*
X191421Y204173D01*
X191491Y204097D01*
X191503Y204091D01*
X191526Y204068D01*
X191567Y204045D01*
X191626Y204010D01*
X191696Y203980D01*
X191778Y203951D01*
X191871Y203928D01*
X191971Y203922D01*
X192006D01*
X192029Y203928D01*
X192094Y203933D01*
X192175Y203951D01*
X192263Y203986D01*
X192363Y204027D01*
X192456Y204091D01*
X192503Y204127D01*
X192550Y204173D01*
Y204179D01*
X192562Y204185D01*
X192585Y204220D01*
X192626Y204279D01*
X192667Y204355D01*
X192708Y204454D01*
X192749Y204571D01*
X192772Y204706D01*
X192784Y204858D01*
Y204864D01*
Y204875D01*
Y204899D01*
X192778Y204922D01*
Y204957D01*
X192772Y204998D01*
X192755Y205092D01*
X192731Y205191D01*
X192690Y205296D01*
X192632Y205402D01*
X192556Y205495D01*
X192544Y205507D01*
X192515Y205531D01*
X192468Y205572D01*
X192398Y205612D01*
X192316Y205653D01*
X192211Y205694D01*
X192094Y205718D01*
X191965Y205729D01*
X191924D01*
X191883Y205724D01*
X191824Y205718D01*
X191760Y205700D01*
X191690Y205683D01*
X191620Y205653D01*
X191550Y205618D01*
X191544Y205612D01*
X191520Y205601D01*
X191485Y205577D01*
X191444Y205548D01*
X191403Y205507D01*
X191357Y205460D01*
X191310Y205408D01*
X191269Y205349D01*
X190824Y205414D01*
X191199Y207385D01*
X193106D01*
Y206934D01*
D02*
G37*
G36*
X188900Y207438D02*
X188946D01*
X189063Y207432D01*
X189186Y207420D01*
X189315Y207397D01*
X189438Y207373D01*
X189496Y207356D01*
X189549Y207338D01*
X189555D01*
X189561Y207332D01*
X189596Y207321D01*
X189643Y207291D01*
X189701Y207250D01*
X189771Y207204D01*
X189841Y207139D01*
X189912Y207063D01*
X189976Y206970D01*
X189982Y206958D01*
X189999Y206923D01*
X190029Y206870D01*
X190058Y206800D01*
X190087Y206712D01*
X190116Y206613D01*
X190134Y206507D01*
X190140Y206391D01*
Y206385D01*
Y206373D01*
Y206349D01*
X190134Y206320D01*
Y206285D01*
X190128Y206244D01*
X190105Y206151D01*
X190075Y206039D01*
X190029Y205928D01*
X189958Y205811D01*
X189918Y205753D01*
X189871Y205700D01*
X189859Y205689D01*
X189841Y205677D01*
X189824Y205653D01*
X189795Y205636D01*
X189760Y205607D01*
X189719Y205583D01*
X189672Y205554D01*
X189619Y205525D01*
X189555Y205495D01*
X189490Y205466D01*
X189414Y205437D01*
X189338Y205408D01*
X189251Y205384D01*
X189157Y205367D01*
X189058Y205349D01*
X189069Y205343D01*
X189093Y205332D01*
X189128Y205314D01*
X189169Y205291D01*
X189268Y205226D01*
X189321Y205191D01*
X189362Y205156D01*
X189373Y205144D01*
X189403Y205121D01*
X189444Y205074D01*
X189496Y205016D01*
X189561Y204940D01*
X189631Y204852D01*
X189707Y204752D01*
X189783Y204641D01*
X190450Y203600D01*
X189812D01*
X189303Y204396D01*
Y204401D01*
X189292Y204413D01*
X189280Y204431D01*
X189268Y204454D01*
X189227Y204513D01*
X189174Y204589D01*
X189116Y204676D01*
X189052Y204764D01*
X188993Y204846D01*
X188935Y204922D01*
X188929Y204928D01*
X188911Y204951D01*
X188882Y204987D01*
X188853Y205027D01*
X188765Y205109D01*
X188724Y205150D01*
X188677Y205180D01*
X188671Y205185D01*
X188660Y205191D01*
X188636Y205203D01*
X188607Y205220D01*
X188537Y205256D01*
X188449Y205285D01*
X188443D01*
X188432Y205291D01*
X188408D01*
X188379Y205296D01*
X188338Y205302D01*
X188291D01*
X188233Y205308D01*
X187577D01*
Y203600D01*
X187068D01*
Y207443D01*
X188853D01*
X188900Y207438D01*
D02*
G37*
G36*
X105036Y112393D02*
X103773D01*
Y109000D01*
X103264D01*
Y112393D01*
X102000D01*
Y112844D01*
X105036D01*
Y112393D01*
D02*
G37*
G36*
X54206Y176907D02*
X54211Y176901D01*
X54223Y176884D01*
X54241Y176860D01*
X54270Y176819D01*
X54299Y176778D01*
X54340Y176726D01*
X54381Y176661D01*
X54434Y176597D01*
X54539Y176445D01*
X54656Y176281D01*
X54779Y176106D01*
X54902Y175930D01*
X54908Y175924D01*
X54919Y175907D01*
X54937Y175883D01*
X54960Y175848D01*
X54989Y175807D01*
X55019Y175755D01*
X55060Y175702D01*
X55101Y175638D01*
X55194Y175497D01*
X55294Y175339D01*
X55393Y175170D01*
X55493Y175000D01*
X54908D01*
X54902Y175006D01*
X54896Y175029D01*
X54878Y175058D01*
X54855Y175100D01*
X54826Y175152D01*
X54791Y175205D01*
X54715Y175333D01*
X54709Y175339D01*
X54697Y175363D01*
X54674Y175404D01*
X54644Y175451D01*
X54603Y175503D01*
X54562Y175567D01*
X54469Y175708D01*
X54463Y175720D01*
X54445Y175743D01*
X54416Y175784D01*
X54381Y175831D01*
X54340Y175889D01*
X54293Y175959D01*
X54188Y176100D01*
X54182Y176111D01*
X54165Y176135D01*
X54135Y176170D01*
X54100Y176217D01*
X54053Y176275D01*
X54007Y176340D01*
X53907Y176468D01*
X53901Y176462D01*
X53884Y176439D01*
X53860Y176404D01*
X53825Y176357D01*
X53784Y176299D01*
X53737Y176240D01*
X53632Y176100D01*
X53626Y176094D01*
X53609Y176065D01*
X53580Y176030D01*
X53544Y175977D01*
X53504Y175918D01*
X53457Y175854D01*
X53357Y175708D01*
X53351Y175702D01*
X53334Y175673D01*
X53311Y175638D01*
X53281Y175591D01*
X53240Y175532D01*
X53199Y175468D01*
X53117Y175333D01*
X53112Y175328D01*
X53100Y175304D01*
X53076Y175269D01*
X53053Y175222D01*
X53024Y175170D01*
X52989Y175117D01*
X52924Y175000D01*
X52351D01*
X52357Y175006D01*
X52363Y175023D01*
X52375Y175047D01*
X52392Y175076D01*
X52415Y175123D01*
X52445Y175170D01*
X52480Y175228D01*
X52515Y175287D01*
X52597Y175427D01*
X52696Y175585D01*
X52802Y175755D01*
X52919Y175930D01*
X52924Y175936D01*
X52936Y175953D01*
X52954Y175977D01*
X52977Y176012D01*
X53006Y176053D01*
X53041Y176106D01*
X53082Y176164D01*
X53129Y176228D01*
X53234Y176375D01*
X53351Y176539D01*
X53480Y176714D01*
X53615Y176901D01*
X52398Y178703D01*
X52995D01*
X53907Y177346D01*
X54808Y178703D01*
X55405D01*
X54206Y176907D01*
D02*
G37*
G36*
X186536Y206993D02*
X185273D01*
Y203600D01*
X184764D01*
Y206993D01*
X183500D01*
Y207443D01*
X186536D01*
Y206993D01*
D02*
G37*
G36*
X48914Y181257D02*
X48983Y181245D01*
X49064Y181211D01*
X49144Y181176D01*
X49237Y181118D01*
X49306Y181049D01*
X49317Y181038D01*
X49340Y181015D01*
X49363Y180968D01*
X49409Y180911D01*
X49444Y180842D01*
X49467Y180761D01*
X49490Y180669D01*
X49502Y180565D01*
Y180553D01*
Y180519D01*
X49490Y180461D01*
X49479Y180392D01*
X49456Y180323D01*
X49421Y180231D01*
X49375Y180150D01*
X49306Y180069D01*
X49294Y180058D01*
X49271Y180035D01*
X49225Y180000D01*
X49179Y179965D01*
X49098Y179931D01*
X49018Y179896D01*
X48914Y179873D01*
X48798Y179862D01*
X48741D01*
X48683Y179873D01*
X48614Y179885D01*
X48522Y179908D01*
X48441Y179954D01*
X48360Y180000D01*
X48280Y180069D01*
X48268Y180081D01*
X48256Y180104D01*
X48222Y180150D01*
X48187Y180208D01*
X48153Y180277D01*
X48130Y180369D01*
X48107Y180461D01*
X48095Y180565D01*
Y180577D01*
Y180611D01*
X48107Y180669D01*
X48118Y180726D01*
X48141Y180807D01*
X48176Y180888D01*
X48222Y180968D01*
X48280Y181049D01*
X48291Y181061D01*
X48314Y181084D01*
X48360Y181118D01*
X48418Y181165D01*
X48487Y181199D01*
X48579Y181234D01*
X48683Y181257D01*
X48798Y181268D01*
X48856D01*
X48914Y181257D01*
D02*
G37*
G36*
X188900Y102438D02*
X188946D01*
X189063Y102432D01*
X189186Y102420D01*
X189315Y102397D01*
X189438Y102373D01*
X189496Y102356D01*
X189549Y102338D01*
X189555D01*
X189561Y102332D01*
X189596Y102321D01*
X189643Y102291D01*
X189701Y102250D01*
X189771Y102204D01*
X189841Y102139D01*
X189912Y102063D01*
X189976Y101970D01*
X189982Y101958D01*
X189999Y101923D01*
X190029Y101870D01*
X190058Y101800D01*
X190087Y101712D01*
X190116Y101613D01*
X190134Y101507D01*
X190140Y101390D01*
Y101385D01*
Y101373D01*
Y101349D01*
X190134Y101320D01*
Y101285D01*
X190128Y101244D01*
X190105Y101151D01*
X190075Y101039D01*
X190029Y100928D01*
X189958Y100811D01*
X189918Y100753D01*
X189871Y100700D01*
X189859Y100689D01*
X189841Y100677D01*
X189824Y100653D01*
X189795Y100636D01*
X189760Y100607D01*
X189719Y100583D01*
X189672Y100554D01*
X189619Y100525D01*
X189555Y100495D01*
X189490Y100466D01*
X189414Y100437D01*
X189338Y100408D01*
X189251Y100384D01*
X189157Y100367D01*
X189058Y100349D01*
X189069Y100343D01*
X189093Y100332D01*
X189128Y100314D01*
X189169Y100291D01*
X189268Y100226D01*
X189321Y100191D01*
X189362Y100156D01*
X189373Y100144D01*
X189403Y100121D01*
X189444Y100074D01*
X189496Y100016D01*
X189561Y99940D01*
X189631Y99852D01*
X189707Y99752D01*
X189783Y99641D01*
X190450Y98600D01*
X189812D01*
X189303Y99396D01*
Y99401D01*
X189292Y99413D01*
X189280Y99431D01*
X189268Y99454D01*
X189227Y99513D01*
X189174Y99589D01*
X189116Y99676D01*
X189052Y99764D01*
X188993Y99846D01*
X188935Y99922D01*
X188929Y99928D01*
X188911Y99951D01*
X188882Y99986D01*
X188853Y100027D01*
X188765Y100109D01*
X188724Y100150D01*
X188677Y100180D01*
X188671Y100185D01*
X188660Y100191D01*
X188636Y100203D01*
X188607Y100221D01*
X188537Y100256D01*
X188449Y100285D01*
X188443D01*
X188432Y100291D01*
X188408D01*
X188379Y100296D01*
X188338Y100302D01*
X188291D01*
X188233Y100308D01*
X187577D01*
Y98600D01*
X187068D01*
Y102444D01*
X188853D01*
X188900Y102438D01*
D02*
G37*
G36*
X192175Y102455D02*
X192211D01*
X192257Y102449D01*
X192363Y102432D01*
X192480Y102397D01*
X192603Y102350D01*
X192726Y102291D01*
X192784Y102250D01*
X192842Y102204D01*
X192848D01*
X192854Y102192D01*
X192889Y102157D01*
X192936Y102098D01*
X192995Y102022D01*
X193059Y101923D01*
X193112Y101806D01*
X193164Y101665D01*
X193193Y101507D01*
X192726Y101472D01*
Y101478D01*
Y101484D01*
X192714Y101519D01*
X192696Y101566D01*
X192679Y101625D01*
X192620Y101759D01*
X192585Y101818D01*
X192544Y101870D01*
X192538Y101882D01*
X192509Y101905D01*
X192468Y101935D01*
X192415Y101976D01*
X192345Y102011D01*
X192263Y102046D01*
X192170Y102069D01*
X192070Y102075D01*
X192029D01*
X191988Y102069D01*
X191936Y102057D01*
X191871Y102046D01*
X191801Y102022D01*
X191737Y101987D01*
X191667Y101946D01*
X191655Y101940D01*
X191631Y101917D01*
X191591Y101876D01*
X191544Y101823D01*
X191485Y101759D01*
X191427Y101677D01*
X191368Y101578D01*
X191316Y101467D01*
Y101461D01*
X191310Y101455D01*
X191304Y101431D01*
X191298Y101408D01*
X191286Y101379D01*
X191275Y101338D01*
X191263Y101291D01*
X191251Y101238D01*
X191240Y101180D01*
X191228Y101116D01*
X191216Y101039D01*
X191204Y100963D01*
X191199Y100876D01*
X191193Y100782D01*
X191187Y100683D01*
Y100583D01*
X191193Y100589D01*
X191216Y100618D01*
X191251Y100665D01*
X191304Y100724D01*
X191362Y100788D01*
X191433Y100852D01*
X191515Y100911D01*
X191602Y100963D01*
X191614Y100969D01*
X191643Y100981D01*
X191696Y101004D01*
X191760Y101028D01*
X191836Y101051D01*
X191924Y101075D01*
X192018Y101086D01*
X192117Y101092D01*
X192164D01*
X192199Y101086D01*
X192240Y101080D01*
X192287Y101075D01*
X192398Y101051D01*
X192521Y101004D01*
X192591Y100981D01*
X192655Y100946D01*
X192726Y100905D01*
X192796Y100858D01*
X192860Y100805D01*
X192924Y100741D01*
X192930Y100735D01*
X192936Y100724D01*
X192954Y100706D01*
X192977Y100677D01*
X193000Y100642D01*
X193030Y100601D01*
X193059Y100554D01*
X193094Y100501D01*
X193123Y100437D01*
X193152Y100373D01*
X193182Y100296D01*
X193205Y100221D01*
X193228Y100133D01*
X193246Y100045D01*
X193252Y99945D01*
X193258Y99846D01*
Y99840D01*
Y99828D01*
Y99811D01*
Y99787D01*
X193252Y99752D01*
Y99717D01*
X193240Y99624D01*
X193217Y99524D01*
X193193Y99407D01*
X193152Y99290D01*
X193100Y99173D01*
Y99167D01*
X193094Y99162D01*
X193082Y99144D01*
X193071Y99121D01*
X193035Y99068D01*
X192989Y98998D01*
X192924Y98922D01*
X192848Y98846D01*
X192766Y98770D01*
X192667Y98699D01*
X192655Y98694D01*
X192620Y98676D01*
X192562Y98647D01*
X192491Y98618D01*
X192398Y98588D01*
X192293Y98559D01*
X192175Y98541D01*
X192053Y98536D01*
X192029D01*
X191994Y98541D01*
X191953D01*
X191906Y98547D01*
X191848Y98559D01*
X191784Y98571D01*
X191713Y98588D01*
X191637Y98612D01*
X191555Y98641D01*
X191479Y98676D01*
X191398Y98717D01*
X191316Y98770D01*
X191234Y98828D01*
X191158Y98892D01*
X191087Y98969D01*
X191082Y98974D01*
X191070Y98992D01*
X191052Y99015D01*
X191029Y99050D01*
X191000Y99097D01*
X190971Y99156D01*
X190935Y99226D01*
X190906Y99308D01*
X190871Y99401D01*
X190836Y99507D01*
X190807Y99624D01*
X190777Y99752D01*
X190754Y99893D01*
X190736Y100051D01*
X190725Y100215D01*
X190719Y100396D01*
Y100402D01*
Y100408D01*
Y100425D01*
Y100443D01*
Y100501D01*
X190725Y100577D01*
X190731Y100671D01*
X190742Y100776D01*
X190754Y100893D01*
X190772Y101016D01*
X190789Y101151D01*
X190818Y101285D01*
X190853Y101420D01*
X190894Y101548D01*
X190941Y101683D01*
X190994Y101800D01*
X191058Y101917D01*
X191128Y102016D01*
X191134Y102022D01*
X191146Y102034D01*
X191164Y102057D01*
X191193Y102087D01*
X191234Y102122D01*
X191275Y102157D01*
X191327Y102198D01*
X191386Y102239D01*
X191450Y102280D01*
X191526Y102321D01*
X191602Y102356D01*
X191690Y102391D01*
X191784Y102420D01*
X191883Y102444D01*
X191988Y102455D01*
X192099Y102461D01*
X192140D01*
X192175Y102455D01*
D02*
G37*
G36*
X53180Y187448D02*
X53249D01*
X53353Y187425D01*
X53457Y187402D01*
X53583Y187379D01*
X53722Y187333D01*
X53860Y187287D01*
X53999Y187218D01*
X54148Y187137D01*
X54298Y187045D01*
X54448Y186930D01*
X54586Y186791D01*
X54725Y186641D01*
X54852Y186468D01*
X54863Y186457D01*
X54875Y186422D01*
X54909Y186365D01*
X54956Y186284D01*
X55002Y186180D01*
X55059Y186053D01*
X55117Y185915D01*
X55186Y185742D01*
X55244Y185557D01*
X55301Y185338D01*
X55359Y185108D01*
X55405Y184854D01*
X55451Y184589D01*
X55486Y184289D01*
X55497Y183978D01*
X55509Y183643D01*
Y183620D01*
Y183563D01*
Y183470D01*
X55497Y183344D01*
X55486Y183194D01*
X55474Y183009D01*
X55451Y182813D01*
X55428Y182606D01*
X55394Y182375D01*
X55348Y182145D01*
X55301Y181914D01*
X55232Y181683D01*
X55151Y181453D01*
X55071Y181222D01*
X54967Y181015D01*
X54852Y180819D01*
X54840Y180807D01*
X54817Y180772D01*
X54782Y180726D01*
X54736Y180669D01*
X54667Y180588D01*
X54586Y180507D01*
X54494Y180415D01*
X54391Y180334D01*
X54264Y180242D01*
X54137Y180150D01*
X53987Y180069D01*
X53825Y179989D01*
X53653Y179931D01*
X53468Y179885D01*
X53272Y179850D01*
X53065Y179839D01*
X53018D01*
X52961Y179850D01*
X52880D01*
X52776Y179873D01*
X52672Y179896D01*
X52546Y179919D01*
X52419Y179965D01*
X52269Y180011D01*
X52131Y180081D01*
X51981Y180161D01*
X51831Y180254D01*
X51681Y180369D01*
X51543Y180496D01*
X51404Y180646D01*
X51277Y180819D01*
X51266Y180830D01*
X51254Y180865D01*
X51220Y180922D01*
X51174Y181003D01*
X51127Y181107D01*
X51070Y181234D01*
X51012Y181372D01*
X50955Y181545D01*
X50897Y181729D01*
X50839Y181949D01*
X50782Y182179D01*
X50735Y182433D01*
X50689Y182698D01*
X50655Y182998D01*
X50643Y183309D01*
X50632Y183643D01*
Y183667D01*
Y183724D01*
Y183816D01*
X50643Y183943D01*
X50655Y184105D01*
X50666Y184278D01*
X50689Y184474D01*
X50712Y184681D01*
X50747Y184912D01*
X50793Y185142D01*
X50908Y185604D01*
X50978Y185834D01*
X51070Y186065D01*
X51162Y186272D01*
X51277Y186468D01*
X51289Y186480D01*
X51312Y186514D01*
X51347Y186561D01*
X51393Y186618D01*
X51462Y186699D01*
X51543Y186780D01*
X51635Y186872D01*
X51739Y186964D01*
X51865Y187056D01*
X51992Y187149D01*
X52142Y187229D01*
X52304Y187310D01*
X52477Y187368D01*
X52661Y187414D01*
X52857Y187448D01*
X53065Y187460D01*
X53111D01*
X53180Y187448D01*
D02*
G37*
G36*
X14187Y197287D02*
X14164Y197252D01*
X14153Y197183D01*
X14118Y197102D01*
X14084Y196999D01*
X14038Y196883D01*
X13991Y196745D01*
X13945Y196595D01*
X13888Y196434D01*
X13818Y196261D01*
X13692Y195903D01*
X13553Y195523D01*
X13415Y195142D01*
Y195131D01*
X13403Y195096D01*
X13380Y195050D01*
X13357Y194981D01*
X13323Y194889D01*
X13288Y194785D01*
X13242Y194670D01*
X13196Y194543D01*
X13092Y194255D01*
X12965Y193943D01*
X12838Y193609D01*
X12712Y193274D01*
Y193263D01*
X12700Y193240D01*
X12677Y193194D01*
X12654Y193125D01*
X12619Y193044D01*
X12585Y192952D01*
X12539Y192848D01*
X12493Y192733D01*
X12389Y192479D01*
X12273Y192191D01*
X12147Y191891D01*
X12020Y191591D01*
Y191580D01*
X12008Y191557D01*
X11985Y191510D01*
X11962Y191453D01*
X11928Y191384D01*
X11893Y191291D01*
X11858Y191199D01*
X11812Y191095D01*
X11709Y190853D01*
X11582Y190577D01*
X11466Y190288D01*
X11328Y190000D01*
X10371D01*
Y190012D01*
X10359Y190035D01*
X10336Y190081D01*
X10313Y190138D01*
X10279Y190208D01*
X10233Y190288D01*
X10198Y190392D01*
X10140Y190496D01*
X10037Y190738D01*
X9910Y191003D01*
X9783Y191291D01*
X9656Y191591D01*
Y191603D01*
X9645Y191626D01*
X9622Y191672D01*
X9599Y191729D01*
X9564Y191810D01*
X9529Y191891D01*
X9495Y191995D01*
X9449Y192110D01*
X9345Y192352D01*
X9218Y192640D01*
X9103Y192952D01*
X8964Y193274D01*
Y193286D01*
X8953Y193321D01*
X8930Y193367D01*
X8907Y193424D01*
X8872Y193505D01*
X8838Y193609D01*
X8791Y193713D01*
X8745Y193840D01*
X8642Y194116D01*
X8515Y194439D01*
X8388Y194785D01*
X8249Y195142D01*
Y195154D01*
X8238Y195188D01*
X8215Y195246D01*
X8192Y195315D01*
X8157Y195408D01*
X8111Y195523D01*
X8065Y195638D01*
X8019Y195788D01*
X7961Y195938D01*
X7903Y196099D01*
X7777Y196468D01*
X7638Y196872D01*
X7500Y197299D01*
X8618D01*
X8630Y197275D01*
X8642Y197229D01*
X8676Y197137D01*
X8711Y197010D01*
X8768Y196872D01*
X8826Y196687D01*
X8895Y196491D01*
X8964Y196272D01*
X9045Y196042D01*
X9137Y195788D01*
X9229Y195523D01*
X9322Y195246D01*
X9518Y194681D01*
X9725Y194105D01*
X9737Y194093D01*
X9748Y194035D01*
X9783Y193955D01*
X9817Y193840D01*
X9875Y193713D01*
X9933Y193551D01*
X10002Y193367D01*
X10071Y193171D01*
X10152Y192952D01*
X10244Y192733D01*
X10440Y192237D01*
X10636Y191729D01*
X10855Y191222D01*
X10867Y191234D01*
X10878Y191280D01*
X10913Y191360D01*
X10959Y191453D01*
X11005Y191580D01*
X11063Y191729D01*
X11132Y191891D01*
X11213Y192087D01*
X11293Y192295D01*
X11386Y192514D01*
X11478Y192744D01*
X11570Y192998D01*
X11766Y193528D01*
X11974Y194093D01*
X11985Y194116D01*
X11997Y194162D01*
X12031Y194243D01*
X12066Y194358D01*
X12123Y194508D01*
X12181Y194670D01*
X12250Y194866D01*
X12319Y195073D01*
X12400Y195304D01*
X12493Y195557D01*
X12585Y195823D01*
X12677Y196099D01*
X12885Y196687D01*
X13092Y197299D01*
X14187D01*
Y197287D01*
D02*
G37*
G36*
X31851Y197356D02*
X31978Y197345D01*
X32128Y197333D01*
X32289Y197322D01*
X32462Y197299D01*
X32843Y197229D01*
X33235Y197125D01*
X33419Y197056D01*
X33604Y196976D01*
X33777Y196883D01*
X33938Y196780D01*
X33950Y196768D01*
X33973Y196757D01*
X34007Y196722D01*
X34065Y196676D01*
X34123Y196607D01*
X34192Y196537D01*
X34273Y196445D01*
X34342Y196353D01*
X34423Y196238D01*
X34492Y196099D01*
X34561Y195961D01*
X34619Y195811D01*
X34676Y195638D01*
X34711Y195454D01*
X34734Y195258D01*
X34745Y195050D01*
Y195039D01*
Y195016D01*
Y194981D01*
Y194923D01*
X34734Y194866D01*
X34722Y194797D01*
X34699Y194623D01*
X34653Y194428D01*
X34584Y194220D01*
X34480Y194012D01*
X34353Y193805D01*
X34330Y193782D01*
X34284Y193724D01*
X34192Y193632D01*
X34065Y193517D01*
X33915Y193401D01*
X33719Y193274D01*
X33489Y193148D01*
X33223Y193044D01*
X33235Y193032D01*
X33258Y193009D01*
X33293Y192963D01*
X33339Y192894D01*
X33408Y192813D01*
X33477Y192721D01*
X33558Y192617D01*
X33650Y192490D01*
X33662Y192479D01*
X33696Y192433D01*
X33742Y192364D01*
X33812Y192271D01*
X33892Y192156D01*
X33984Y192029D01*
X34077Y191879D01*
X34180Y191729D01*
X34192Y191706D01*
X34227Y191660D01*
X34284Y191580D01*
X34353Y191464D01*
X34434Y191338D01*
X34526Y191188D01*
X34619Y191026D01*
X34722Y190865D01*
X34734Y190842D01*
X34769Y190784D01*
X34815Y190703D01*
X34884Y190588D01*
X34953Y190461D01*
X35034Y190311D01*
X35184Y190000D01*
X34077D01*
X34065Y190023D01*
X34042Y190069D01*
X33996Y190150D01*
X33938Y190242D01*
X33869Y190369D01*
X33788Y190496D01*
X33604Y190796D01*
X33592Y190819D01*
X33558Y190865D01*
X33512Y190945D01*
X33454Y191049D01*
X33373Y191165D01*
X33293Y191303D01*
X33108Y191580D01*
X33097Y191603D01*
X33062Y191649D01*
X33016Y191718D01*
X32947Y191810D01*
X32877Y191914D01*
X32785Y192041D01*
X32601Y192283D01*
X32589Y192295D01*
X32555Y192341D01*
X32509Y192398D01*
X32451Y192479D01*
X32313Y192663D01*
X32163Y192848D01*
X30687D01*
Y190000D01*
X29661D01*
Y197183D01*
X29684D01*
X29741Y197195D01*
X29822Y197218D01*
X29937Y197241D01*
X30087Y197264D01*
X30249Y197287D01*
X30422Y197310D01*
X30618Y197322D01*
X30641D01*
X30710Y197333D01*
X30814D01*
X30940Y197345D01*
X31090Y197356D01*
X31252D01*
X31598Y197368D01*
X31748D01*
X31851Y197356D01*
D02*
G37*
G36*
X20356Y197448D02*
X20506Y197437D01*
X20690Y197425D01*
X20898Y197402D01*
X21105Y197356D01*
X21313Y197310D01*
X21325D01*
X21336Y197299D01*
X21405Y197287D01*
X21497Y197252D01*
X21624Y197218D01*
X21751Y197172D01*
X21889Y197125D01*
X22016Y197056D01*
X22120Y196999D01*
X21786Y196169D01*
X21774Y196180D01*
X21739Y196192D01*
X21693Y196215D01*
X21624Y196249D01*
X21532Y196295D01*
X21417Y196342D01*
X21278Y196388D01*
X21128Y196434D01*
X21105Y196445D01*
X21048Y196457D01*
X20956Y196480D01*
X20840Y196503D01*
X20690Y196526D01*
X20506Y196549D01*
X20310Y196572D01*
X19998D01*
X19929Y196561D01*
X19849D01*
X19756Y196549D01*
X19560Y196503D01*
X19549D01*
X19514Y196491D01*
X19468Y196480D01*
X19410Y196457D01*
X19261Y196399D01*
X19111Y196318D01*
X19099D01*
X19076Y196295D01*
X19007Y196226D01*
X18903Y196134D01*
X18811Y195996D01*
Y195984D01*
X18799Y195961D01*
X18776Y195915D01*
X18765Y195869D01*
X18742Y195800D01*
X18719Y195719D01*
X18707Y195534D01*
Y195523D01*
Y195488D01*
X18719Y195431D01*
Y195361D01*
X18753Y195200D01*
X18823Y195039D01*
Y195027D01*
X18846Y195004D01*
X18869Y194969D01*
X18903Y194923D01*
X19007Y194808D01*
X19145Y194693D01*
X19157Y194681D01*
X19180Y194670D01*
X19226Y194635D01*
X19284Y194600D01*
X19353Y194554D01*
X19433Y194508D01*
X19630Y194416D01*
X19641D01*
X19676Y194393D01*
X19733Y194370D01*
X19814Y194335D01*
X19906Y194301D01*
X20010Y194255D01*
X20252Y194162D01*
X20275Y194151D01*
X20333Y194128D01*
X20425Y194093D01*
X20540Y194047D01*
X20667Y193989D01*
X20817Y193920D01*
X21117Y193782D01*
X21140Y193770D01*
X21186Y193747D01*
X21255Y193713D01*
X21359Y193655D01*
X21463Y193586D01*
X21578Y193517D01*
X21809Y193332D01*
X21820Y193321D01*
X21855Y193286D01*
X21913Y193228D01*
X21970Y193159D01*
X22051Y193055D01*
X22120Y192952D01*
X22189Y192836D01*
X22258Y192698D01*
X22270Y192686D01*
X22282Y192629D01*
X22305Y192560D01*
X22339Y192456D01*
X22374Y192329D01*
X22397Y192179D01*
X22408Y192006D01*
X22420Y191822D01*
Y191810D01*
Y191776D01*
Y191729D01*
X22408Y191660D01*
X22397Y191580D01*
X22385Y191487D01*
X22328Y191280D01*
X22247Y191038D01*
X22189Y190922D01*
X22120Y190796D01*
X22039Y190680D01*
X21947Y190553D01*
X21843Y190450D01*
X21716Y190346D01*
X21705D01*
X21682Y190323D01*
X21647Y190300D01*
X21590Y190265D01*
X21509Y190231D01*
X21428Y190184D01*
X21325Y190138D01*
X21209Y190092D01*
X21071Y190046D01*
X20921Y190000D01*
X20760Y189954D01*
X20586Y189919D01*
X20391Y189885D01*
X20183Y189862D01*
X19964Y189850D01*
X19733Y189839D01*
X19583D01*
X19480Y189850D01*
X19353D01*
X19215Y189873D01*
X18938Y189908D01*
X18926D01*
X18880Y189919D01*
X18811Y189931D01*
X18719Y189942D01*
X18626Y189965D01*
X18511Y189989D01*
X18292Y190035D01*
X18281D01*
X18246Y190046D01*
X18188Y190058D01*
X18119Y190081D01*
X17958Y190127D01*
X17796Y190196D01*
X17785D01*
X17762Y190208D01*
X17727Y190231D01*
X17681Y190254D01*
X17577Y190300D01*
X17485Y190346D01*
X17785Y191199D01*
X17796Y191188D01*
X17831Y191176D01*
X17888Y191141D01*
X17969Y191107D01*
X18073Y191061D01*
X18200Y191015D01*
X18350Y190945D01*
X18523Y190888D01*
X18534D01*
X18546Y190876D01*
X18615Y190865D01*
X18719Y190842D01*
X18857Y190807D01*
X19041Y190772D01*
X19238Y190750D01*
X19480Y190738D01*
X19733Y190726D01*
X19803D01*
X19883Y190738D01*
X19987Y190750D01*
X20114Y190761D01*
X20241Y190784D01*
X20391Y190819D01*
X20540Y190865D01*
X20690Y190922D01*
X20840Y190992D01*
X20979Y191084D01*
X21094Y191188D01*
X21198Y191303D01*
X21278Y191453D01*
X21325Y191614D01*
X21348Y191810D01*
Y191822D01*
Y191868D01*
X21336Y191926D01*
X21325Y192006D01*
X21290Y192191D01*
X21244Y192283D01*
X21198Y192375D01*
X21186Y192387D01*
X21175Y192421D01*
X21140Y192456D01*
X21094Y192514D01*
X20979Y192652D01*
X20817Y192790D01*
X20806Y192802D01*
X20771Y192825D01*
X20725Y192859D01*
X20656Y192894D01*
X20575Y192940D01*
X20483Y192998D01*
X20264Y193090D01*
X20252Y193102D01*
X20206Y193113D01*
X20148Y193136D01*
X20068Y193171D01*
X19964Y193205D01*
X19849Y193252D01*
X19595Y193344D01*
X19583Y193355D01*
X19526Y193367D01*
X19457Y193401D01*
X19353Y193436D01*
X19238Y193482D01*
X19111Y193528D01*
X18846Y193655D01*
X18834Y193667D01*
X18788Y193690D01*
X18719Y193724D01*
X18638Y193770D01*
X18534Y193828D01*
X18430Y193897D01*
X18223Y194059D01*
X18211Y194070D01*
X18177Y194105D01*
X18131Y194151D01*
X18073Y194220D01*
X18004Y194301D01*
X17935Y194404D01*
X17808Y194623D01*
X17796Y194635D01*
X17785Y194681D01*
X17762Y194750D01*
X17739Y194854D01*
X17704Y194969D01*
X17681Y195096D01*
X17670Y195258D01*
X17658Y195419D01*
Y195431D01*
Y195465D01*
Y195511D01*
X17670Y195580D01*
X17681Y195661D01*
X17693Y195754D01*
X17739Y195961D01*
X17819Y196203D01*
X17935Y196457D01*
X18004Y196584D01*
X18096Y196699D01*
X18188Y196814D01*
X18304Y196918D01*
X18315Y196930D01*
X18338Y196941D01*
X18373Y196964D01*
X18430Y196999D01*
X18488Y197045D01*
X18569Y197091D01*
X18673Y197137D01*
X18776Y197195D01*
X18903Y197241D01*
X19030Y197287D01*
X19180Y197333D01*
X19341Y197379D01*
X19514Y197414D01*
X19710Y197437D01*
X19906Y197460D01*
X20229D01*
X20356Y197448D01*
D02*
G37*
G36*
X26430Y186422D02*
X23017D01*
Y184255D01*
X26050D01*
Y183401D01*
X23017D01*
Y180876D01*
X26695D01*
Y180000D01*
X21991D01*
Y187299D01*
X26430D01*
Y186422D01*
D02*
G37*
G36*
X28093Y196422D02*
X24680D01*
Y194255D01*
X27712D01*
Y193401D01*
X24680D01*
Y190876D01*
X28358D01*
Y190000D01*
X23653D01*
Y197299D01*
X28093D01*
Y196422D01*
D02*
G37*
G36*
X45455Y180000D02*
X44475D01*
Y185926D01*
X44452Y185903D01*
X44394Y185857D01*
X44290Y185776D01*
X44163Y185684D01*
X44152D01*
X44129Y185661D01*
X44094Y185638D01*
X44048Y185604D01*
X43921Y185534D01*
X43760Y185442D01*
X43748D01*
X43725Y185419D01*
X43679Y185396D01*
X43622Y185373D01*
X43472Y185304D01*
X43299Y185223D01*
X43287D01*
X43264Y185212D01*
X43218Y185188D01*
X43160Y185165D01*
X43010Y185108D01*
X42849Y185050D01*
X42549Y185788D01*
X42561D01*
X42572Y185800D01*
X42607Y185811D01*
X42653Y185834D01*
X42768Y185880D01*
X42918Y185950D01*
X43103Y186030D01*
X43299Y186134D01*
X43506Y186249D01*
X43714Y186376D01*
X43725D01*
X43737Y186399D01*
X43806Y186445D01*
X43921Y186526D01*
X44060Y186630D01*
X44221Y186768D01*
X44394Y186918D01*
X44567Y187102D01*
X44751Y187299D01*
X45455D01*
Y180000D01*
D02*
G37*
G36*
X41408Y185454D02*
X41385Y185408D01*
X41362Y185327D01*
X41339Y185212D01*
X41292Y185073D01*
X41246Y184912D01*
X41189Y184727D01*
X41131Y184531D01*
X41062Y184312D01*
X40993Y184070D01*
X40912Y183828D01*
X40820Y183574D01*
X40635Y183044D01*
X40439Y182513D01*
X40428Y182502D01*
X40416Y182456D01*
X40382Y182375D01*
X40347Y182271D01*
X40301Y182156D01*
X40243Y182006D01*
X40174Y181845D01*
X40105Y181672D01*
X40024Y181487D01*
X39932Y181280D01*
X39759Y180865D01*
X39575Y180427D01*
X39378Y180000D01*
X38491D01*
Y180011D01*
X38468Y180046D01*
X38445Y180115D01*
X38398Y180196D01*
X38352Y180300D01*
X38295Y180427D01*
X38237Y180565D01*
X38168Y180726D01*
X38087Y180911D01*
X38006Y181095D01*
X37914Y181303D01*
X37822Y181534D01*
X37718Y181764D01*
X37626Y182006D01*
X37418Y182513D01*
X37407Y182525D01*
X37395Y182583D01*
X37361Y182652D01*
X37326Y182756D01*
X37280Y182894D01*
X37222Y183044D01*
X37165Y183217D01*
X37095Y183413D01*
X37015Y183632D01*
X36946Y183863D01*
X36865Y184105D01*
X36784Y184358D01*
X36623Y184912D01*
X36461Y185477D01*
X37511D01*
X37522Y185454D01*
X37534Y185385D01*
X37557Y185281D01*
X37591Y185142D01*
X37637Y184981D01*
X37695Y184797D01*
X37753Y184589D01*
X37810Y184370D01*
Y184358D01*
X37822Y184347D01*
X37833Y184312D01*
X37845Y184266D01*
X37879Y184162D01*
X37926Y184012D01*
X37972Y183839D01*
X38041Y183643D01*
X38110Y183436D01*
X38179Y183217D01*
Y183205D01*
X38191Y183194D01*
X38202Y183159D01*
X38214Y183113D01*
X38249Y183009D01*
X38306Y182859D01*
X38364Y182686D01*
X38433Y182502D01*
X38571Y182098D01*
X38583Y182075D01*
X38606Y182006D01*
X38640Y181914D01*
X38698Y181787D01*
X38756Y181637D01*
X38813Y181476D01*
X38952Y181153D01*
X38963Y181176D01*
X38986Y181222D01*
X39021Y181314D01*
X39067Y181430D01*
X39113Y181568D01*
X39182Y181729D01*
X39252Y181902D01*
X39321Y182098D01*
Y182110D01*
X39332Y182122D01*
X39355Y182191D01*
X39402Y182306D01*
X39448Y182444D01*
X39505Y182606D01*
X39575Y182802D01*
X39655Y183009D01*
X39724Y183217D01*
Y183228D01*
X39736Y183240D01*
X39747Y183274D01*
X39759Y183321D01*
X39794Y183424D01*
X39840Y183574D01*
X39897Y183747D01*
X39966Y183943D01*
X40024Y184151D01*
X40093Y184370D01*
Y184381D01*
X40105Y184393D01*
Y184427D01*
X40128Y184474D01*
X40151Y184589D01*
X40197Y184727D01*
X40243Y184900D01*
X40289Y185085D01*
X40393Y185477D01*
X41408D01*
Y185454D01*
D02*
G37*
G36*
X16240Y190000D02*
X15214D01*
Y197299D01*
X16240D01*
Y190000D01*
D02*
G37*
G36*
X18901Y187448D02*
X19028D01*
X19166Y187437D01*
X19443Y187391D01*
X19455D01*
X19501Y187379D01*
X19570Y187368D01*
X19662Y187356D01*
X19766Y187333D01*
X19870Y187299D01*
X20077Y187241D01*
X20089D01*
X20123Y187229D01*
X20169Y187206D01*
X20239Y187195D01*
X20377Y187137D01*
X20515Y187068D01*
X20527D01*
X20538Y187056D01*
X20608Y187022D01*
X20688Y186987D01*
X20757Y186953D01*
X20458Y186099D01*
X20446Y186111D01*
X20389Y186145D01*
X20308Y186192D01*
X20181Y186238D01*
X20169D01*
X20146Y186249D01*
X20112Y186272D01*
X20066Y186284D01*
X19939Y186330D01*
X19777Y186388D01*
X19766D01*
X19743Y186399D01*
X19697Y186411D01*
X19639Y186434D01*
X19558Y186445D01*
X19478Y186468D01*
X19282Y186503D01*
X19270D01*
X19236Y186514D01*
X19178Y186526D01*
X19120Y186538D01*
X19028D01*
X18947Y186549D01*
X18740Y186561D01*
X18647D01*
X18532Y186549D01*
X18394Y186538D01*
X18232Y186514D01*
X18059Y186468D01*
X17875Y186422D01*
X17702Y186353D01*
X17679Y186342D01*
X17621Y186318D01*
X17541Y186272D01*
X17437Y186203D01*
X17310Y186122D01*
X17172Y186030D01*
X17045Y185915D01*
X16918Y185776D01*
X16906Y185765D01*
X16860Y185707D01*
X16803Y185627D01*
X16734Y185523D01*
X16653Y185385D01*
X16572Y185223D01*
X16491Y185050D01*
X16422Y184854D01*
Y184843D01*
X16411Y184831D01*
X16399Y184762D01*
X16365Y184647D01*
X16341Y184497D01*
X16307Y184324D01*
X16272Y184116D01*
X16261Y183886D01*
X16249Y183643D01*
Y183632D01*
Y183609D01*
Y183574D01*
Y183528D01*
X16261Y183413D01*
X16272Y183252D01*
X16284Y183067D01*
X16318Y182871D01*
X16353Y182663D01*
X16399Y182456D01*
X16411Y182433D01*
X16422Y182364D01*
X16468Y182271D01*
X16514Y182145D01*
X16572Y181995D01*
X16653Y181845D01*
X16745Y181683D01*
X16849Y181534D01*
X16860Y181522D01*
X16906Y181476D01*
X16976Y181407D01*
X17056Y181314D01*
X17172Y181222D01*
X17299Y181130D01*
X17448Y181026D01*
X17610Y180946D01*
X17633Y180934D01*
X17691Y180911D01*
X17783Y180876D01*
X17921Y180842D01*
X18071Y180807D01*
X18256Y180772D01*
X18463Y180749D01*
X18682Y180738D01*
X18797D01*
X18924Y180749D01*
X19097Y180761D01*
X19270Y180772D01*
X19466Y180796D01*
X19662Y180830D01*
X19847Y180876D01*
X19870Y180888D01*
X19927Y180899D01*
X20008Y180934D01*
X20112Y180968D01*
X20342Y181049D01*
X20458Y181095D01*
X20550Y181141D01*
X20815Y180300D01*
X20804Y180288D01*
X20746Y180265D01*
X20665Y180219D01*
X20538Y180161D01*
X20527D01*
X20504Y180150D01*
X20469Y180138D01*
X20412Y180115D01*
X20342Y180092D01*
X20262Y180069D01*
X20169Y180035D01*
X20066Y180011D01*
X20054D01*
X20020Y180000D01*
X19962Y179989D01*
X19881Y179977D01*
X19789Y179954D01*
X19674Y179942D01*
X19547Y179919D01*
X19409Y179896D01*
X19397D01*
X19339Y179885D01*
X19270Y179873D01*
X19166D01*
X19039Y179862D01*
X18901Y179850D01*
X18751Y179839D01*
X18463D01*
X18394Y179850D01*
X18313D01*
X18129Y179873D01*
X17910Y179896D01*
X17667Y179942D01*
X17425Y180000D01*
X17183Y180081D01*
X17172D01*
X17160Y180092D01*
X17126Y180104D01*
X17079Y180127D01*
X16964Y180184D01*
X16814Y180265D01*
X16641Y180369D01*
X16468Y180496D01*
X16284Y180646D01*
X16099Y180819D01*
X16076Y180842D01*
X16030Y180911D01*
X15949Y181015D01*
X15846Y181153D01*
X15730Y181326D01*
X15615Y181534D01*
X15511Y181764D01*
X15408Y182018D01*
Y182029D01*
X15396Y182052D01*
X15384Y182087D01*
X15373Y182145D01*
X15350Y182214D01*
X15327Y182294D01*
X15304Y182387D01*
X15292Y182491D01*
X15246Y182733D01*
X15200Y183009D01*
X15177Y183309D01*
X15165Y183643D01*
Y183655D01*
Y183690D01*
Y183736D01*
Y183793D01*
X15177Y183874D01*
Y183966D01*
X15189Y184070D01*
X15200Y184185D01*
X15235Y184439D01*
X15281Y184716D01*
X15350Y184993D01*
X15442Y185269D01*
Y185281D01*
X15454Y185304D01*
X15477Y185338D01*
X15488Y185385D01*
X15558Y185523D01*
X15638Y185684D01*
X15742Y185880D01*
X15880Y186076D01*
X16019Y186284D01*
X16192Y186468D01*
X16215Y186491D01*
X16272Y186549D01*
X16376Y186630D01*
X16503Y186745D01*
X16664Y186860D01*
X16849Y186987D01*
X17056Y187102D01*
X17287Y187206D01*
X17299D01*
X17322Y187218D01*
X17356Y187229D01*
X17402Y187241D01*
X17460Y187264D01*
X17529Y187287D01*
X17691Y187333D01*
X17898Y187379D01*
X18129Y187425D01*
X18371Y187448D01*
X18636Y187460D01*
X18797D01*
X18901Y187448D01*
D02*
G37*
G36*
X140509Y200000D02*
X140000D01*
Y203843D01*
X140509D01*
Y200000D01*
D02*
G37*
G36*
X116289Y51365D02*
X116336Y51359D01*
X116388Y51353D01*
X116447Y51347D01*
X116511Y51336D01*
X116652Y51295D01*
X116798Y51242D01*
X116880Y51207D01*
X116956Y51166D01*
X117032Y51119D01*
X117102Y51066D01*
X117108Y51061D01*
X117120Y51049D01*
X117143Y51025D01*
X117172Y50996D01*
X117208Y50961D01*
X117248Y50914D01*
X117289Y50862D01*
X117330Y50797D01*
X117377Y50733D01*
X117418Y50657D01*
X117459Y50569D01*
X117494Y50481D01*
X117523Y50382D01*
X117547Y50283D01*
X117559Y50171D01*
X117564Y50054D01*
Y50049D01*
Y50031D01*
Y50002D01*
X117559Y49967D01*
X117553Y49926D01*
X117547Y49873D01*
X117541Y49815D01*
X117529Y49750D01*
X117494Y49616D01*
X117441Y49475D01*
X117406Y49405D01*
X117366Y49335D01*
X117324Y49265D01*
X117272Y49200D01*
X117266Y49194D01*
X117260Y49189D01*
X117243Y49171D01*
X117219Y49148D01*
X117190Y49124D01*
X117155Y49095D01*
X117114Y49066D01*
X117067Y49031D01*
X116956Y48966D01*
X116821Y48902D01*
X116669Y48855D01*
X116581Y48838D01*
X116494Y48826D01*
X116459Y49323D01*
X116476D01*
X116494Y49329D01*
X116517Y49335D01*
X116581Y49352D01*
X116663Y49376D01*
X116751Y49405D01*
X116839Y49452D01*
X116927Y49505D01*
X117003Y49575D01*
X117009Y49586D01*
X117032Y49610D01*
X117055Y49651D01*
X117090Y49709D01*
X117120Y49779D01*
X117149Y49861D01*
X117172Y49955D01*
X117178Y50054D01*
Y50060D01*
Y50072D01*
Y50090D01*
X117172Y50113D01*
X117167Y50177D01*
X117149Y50259D01*
X117114Y50347D01*
X117073Y50446D01*
X117009Y50540D01*
X116973Y50587D01*
X116927Y50634D01*
X116921D01*
X116915Y50645D01*
X116880Y50669D01*
X116821Y50710D01*
X116745Y50750D01*
X116646Y50792D01*
X116529Y50832D01*
X116394Y50856D01*
X116242Y50867D01*
X116201D01*
X116178Y50862D01*
X116143D01*
X116102Y50856D01*
X116008Y50838D01*
X115909Y50815D01*
X115804Y50774D01*
X115698Y50715D01*
X115605Y50639D01*
X115593Y50628D01*
X115569Y50599D01*
X115529Y50552D01*
X115488Y50481D01*
X115447Y50400D01*
X115406Y50294D01*
X115382Y50177D01*
X115371Y50049D01*
Y50037D01*
Y50008D01*
X115376Y49967D01*
X115382Y49908D01*
X115400Y49844D01*
X115417Y49774D01*
X115447Y49703D01*
X115482Y49633D01*
X115488Y49627D01*
X115499Y49604D01*
X115523Y49569D01*
X115552Y49528D01*
X115593Y49487D01*
X115640Y49440D01*
X115692Y49393D01*
X115751Y49352D01*
X115687Y48908D01*
X113715Y49282D01*
Y51189D01*
X114165D01*
Y49657D01*
X115201Y49446D01*
X115195Y49452D01*
X115189Y49463D01*
X115178Y49481D01*
X115160Y49505D01*
X115143Y49540D01*
X115125Y49575D01*
X115078Y49668D01*
X115031Y49774D01*
X114996Y49896D01*
X114967Y50031D01*
X114955Y50171D01*
Y50177D01*
Y50195D01*
Y50218D01*
X114961Y50253D01*
X114967Y50300D01*
X114973Y50347D01*
X114985Y50405D01*
X114996Y50464D01*
X115043Y50599D01*
X115066Y50669D01*
X115102Y50739D01*
X115143Y50815D01*
X115189Y50885D01*
X115242Y50955D01*
X115306Y51020D01*
X115312Y51025D01*
X115324Y51037D01*
X115341Y51055D01*
X115371Y51072D01*
X115406Y51101D01*
X115447Y51131D01*
X115494Y51160D01*
X115546Y51195D01*
X115610Y51230D01*
X115675Y51259D01*
X115751Y51289D01*
X115827Y51318D01*
X115915Y51336D01*
X116002Y51353D01*
X116102Y51365D01*
X116201Y51371D01*
X116254D01*
X116289Y51365D01*
D02*
G37*
G36*
X116312Y48387D02*
X116342Y48375D01*
X116388Y48364D01*
X116435Y48340D01*
X116500Y48317D01*
X116564Y48294D01*
X116634Y48258D01*
X116792Y48182D01*
X116950Y48077D01*
X117102Y47960D01*
X117172Y47890D01*
X117237Y47814D01*
X117243Y47808D01*
X117248Y47796D01*
X117266Y47773D01*
X117289Y47738D01*
X117313Y47697D01*
X117342Y47650D01*
X117371Y47597D01*
X117401Y47533D01*
X117430Y47463D01*
X117459Y47387D01*
X117488Y47299D01*
X117512Y47211D01*
X117553Y47018D01*
X117559Y46913D01*
X117564Y46802D01*
Y46796D01*
Y46773D01*
Y46743D01*
X117559Y46696D01*
Y46644D01*
X117553Y46585D01*
X117541Y46515D01*
X117535Y46445D01*
X117500Y46281D01*
X117459Y46112D01*
X117395Y45948D01*
X117360Y45866D01*
X117313Y45790D01*
X117307Y45784D01*
X117301Y45772D01*
X117283Y45755D01*
X117266Y45725D01*
X117208Y45655D01*
X117126Y45573D01*
X117026Y45474D01*
X116897Y45380D01*
X116751Y45281D01*
X116581Y45199D01*
X116576D01*
X116558Y45193D01*
X116535Y45181D01*
X116500Y45170D01*
X116453Y45152D01*
X116400Y45135D01*
X116342Y45117D01*
X116271Y45099D01*
X116201Y45082D01*
X116119Y45064D01*
X115944Y45029D01*
X115757Y45006D01*
X115552Y45000D01*
X115494D01*
X115453Y45006D01*
X115400D01*
X115336Y45012D01*
X115271Y45017D01*
X115195Y45029D01*
X115031Y45059D01*
X114856Y45094D01*
X114674Y45152D01*
X114505Y45228D01*
X114499D01*
X114487Y45240D01*
X114464Y45252D01*
X114429Y45269D01*
X114394Y45292D01*
X114353Y45322D01*
X114253Y45398D01*
X114142Y45486D01*
X114031Y45597D01*
X113920Y45731D01*
X113826Y45878D01*
Y45883D01*
X113814Y45895D01*
X113803Y45919D01*
X113791Y45954D01*
X113774Y45989D01*
X113750Y46035D01*
X113733Y46094D01*
X113709Y46152D01*
X113686Y46217D01*
X113668Y46287D01*
X113627Y46445D01*
X113604Y46620D01*
X113592Y46808D01*
Y46813D01*
Y46831D01*
Y46866D01*
X113598Y46907D01*
X113604Y46954D01*
X113610Y47012D01*
X113616Y47077D01*
X113627Y47147D01*
X113662Y47299D01*
X113715Y47463D01*
X113750Y47545D01*
X113791Y47627D01*
X113838Y47703D01*
X113891Y47779D01*
X113896Y47785D01*
X113902Y47796D01*
X113920Y47814D01*
X113943Y47843D01*
X113972Y47872D01*
X114013Y47913D01*
X114054Y47954D01*
X114101Y47995D01*
X114160Y48042D01*
X114218Y48083D01*
X114288Y48130D01*
X114364Y48177D01*
X114441Y48217D01*
X114528Y48258D01*
X114715Y48329D01*
X114832Y47826D01*
X114827D01*
X114815Y47820D01*
X114792Y47814D01*
X114762Y47802D01*
X114727Y47785D01*
X114686Y47767D01*
X114598Y47726D01*
X114499Y47673D01*
X114394Y47603D01*
X114300Y47527D01*
X114218Y47434D01*
X114212Y47422D01*
X114189Y47387D01*
X114160Y47334D01*
X114119Y47258D01*
X114084Y47170D01*
X114054Y47059D01*
X114031Y46936D01*
X114025Y46796D01*
Y46790D01*
Y46778D01*
Y46755D01*
X114031Y46726D01*
Y46685D01*
X114037Y46644D01*
X114054Y46538D01*
X114078Y46422D01*
X114119Y46299D01*
X114171Y46176D01*
X114242Y46059D01*
Y46053D01*
X114253Y46047D01*
X114283Y46012D01*
X114329Y45959D01*
X114394Y45895D01*
X114476Y45831D01*
X114569Y45761D01*
X114686Y45696D01*
X114815Y45643D01*
X114821D01*
X114832Y45638D01*
X114850Y45632D01*
X114879Y45626D01*
X114908Y45614D01*
X114949Y45608D01*
X115043Y45585D01*
X115154Y45562D01*
X115277Y45544D01*
X115412Y45532D01*
X115552Y45526D01*
X115634D01*
X115675Y45532D01*
X115727D01*
X115780Y45538D01*
X115839Y45544D01*
X115973Y45562D01*
X116119Y45585D01*
X116266Y45620D01*
X116406Y45667D01*
X116412D01*
X116424Y45673D01*
X116441Y45684D01*
X116465Y45696D01*
X116535Y45725D01*
X116611Y45772D01*
X116704Y45836D01*
X116792Y45913D01*
X116880Y46000D01*
X116956Y46106D01*
Y46112D01*
X116962Y46117D01*
X116973Y46135D01*
X116985Y46158D01*
X117009Y46223D01*
X117044Y46305D01*
X117073Y46398D01*
X117102Y46509D01*
X117126Y46632D01*
X117131Y46761D01*
Y46767D01*
Y46778D01*
Y46802D01*
X117126Y46831D01*
Y46866D01*
X117120Y46913D01*
X117102Y47012D01*
X117073Y47124D01*
X117026Y47246D01*
X116968Y47363D01*
X116886Y47480D01*
X116880Y47486D01*
X116874Y47492D01*
X116839Y47527D01*
X116780Y47580D01*
X116704Y47644D01*
X116599Y47709D01*
X116476Y47779D01*
X116324Y47837D01*
X116155Y47884D01*
X116283Y48393D01*
X116289D01*
X116312Y48387D01*
D02*
G37*
G36*
X181581Y155809D02*
X182500D01*
Y155335D01*
X181581D01*
Y153668D01*
X181149D01*
X178662Y155423D01*
Y155809D01*
X181149D01*
Y156330D01*
X181581D01*
Y155809D01*
D02*
G37*
G36*
X181312Y153387D02*
X181342Y153375D01*
X181388Y153364D01*
X181435Y153340D01*
X181500Y153317D01*
X181564Y153294D01*
X181634Y153258D01*
X181792Y153182D01*
X181950Y153077D01*
X182102Y152960D01*
X182172Y152890D01*
X182237Y152814D01*
X182243Y152808D01*
X182248Y152796D01*
X182266Y152773D01*
X182289Y152738D01*
X182313Y152697D01*
X182342Y152650D01*
X182371Y152597D01*
X182401Y152533D01*
X182430Y152463D01*
X182459Y152387D01*
X182488Y152299D01*
X182512Y152211D01*
X182553Y152018D01*
X182559Y151913D01*
X182564Y151802D01*
Y151796D01*
Y151773D01*
Y151743D01*
X182559Y151697D01*
Y151644D01*
X182553Y151585D01*
X182541Y151515D01*
X182535Y151445D01*
X182500Y151281D01*
X182459Y151111D01*
X182395Y150948D01*
X182360Y150866D01*
X182313Y150790D01*
X182307Y150784D01*
X182301Y150772D01*
X182283Y150755D01*
X182266Y150725D01*
X182208Y150655D01*
X182126Y150573D01*
X182026Y150474D01*
X181897Y150380D01*
X181751Y150281D01*
X181581Y150199D01*
X181576D01*
X181558Y150193D01*
X181535Y150181D01*
X181500Y150170D01*
X181453Y150152D01*
X181400Y150135D01*
X181342Y150117D01*
X181272Y150100D01*
X181201Y150082D01*
X181119Y150064D01*
X180944Y150029D01*
X180757Y150006D01*
X180552Y150000D01*
X180493D01*
X180453Y150006D01*
X180400D01*
X180335Y150012D01*
X180271Y150018D01*
X180195Y150029D01*
X180031Y150058D01*
X179856Y150094D01*
X179674Y150152D01*
X179505Y150228D01*
X179499D01*
X179487Y150240D01*
X179464Y150251D01*
X179429Y150269D01*
X179394Y150293D01*
X179353Y150322D01*
X179253Y150398D01*
X179142Y150486D01*
X179031Y150597D01*
X178920Y150731D01*
X178826Y150877D01*
Y150883D01*
X178814Y150895D01*
X178803Y150918D01*
X178791Y150953D01*
X178774Y150989D01*
X178750Y151035D01*
X178733Y151094D01*
X178709Y151152D01*
X178686Y151217D01*
X178668Y151287D01*
X178627Y151445D01*
X178604Y151620D01*
X178592Y151808D01*
Y151813D01*
Y151831D01*
Y151866D01*
X178598Y151907D01*
X178604Y151954D01*
X178610Y152012D01*
X178616Y152077D01*
X178627Y152147D01*
X178662Y152299D01*
X178715Y152463D01*
X178750Y152545D01*
X178791Y152627D01*
X178838Y152703D01*
X178891Y152779D01*
X178896Y152785D01*
X178902Y152796D01*
X178920Y152814D01*
X178943Y152843D01*
X178972Y152872D01*
X179013Y152913D01*
X179054Y152954D01*
X179101Y152995D01*
X179160Y153042D01*
X179218Y153083D01*
X179288Y153130D01*
X179364Y153176D01*
X179440Y153217D01*
X179528Y153258D01*
X179715Y153329D01*
X179832Y152825D01*
X179826D01*
X179815Y152820D01*
X179791Y152814D01*
X179762Y152802D01*
X179727Y152785D01*
X179686Y152767D01*
X179598Y152726D01*
X179499Y152673D01*
X179394Y152603D01*
X179300Y152527D01*
X179218Y152434D01*
X179212Y152422D01*
X179189Y152387D01*
X179160Y152334D01*
X179119Y152258D01*
X179084Y152170D01*
X179054Y152059D01*
X179031Y151936D01*
X179025Y151796D01*
Y151790D01*
Y151778D01*
Y151755D01*
X179031Y151726D01*
Y151685D01*
X179037Y151644D01*
X179054Y151539D01*
X179078Y151422D01*
X179119Y151299D01*
X179171Y151176D01*
X179242Y151059D01*
Y151053D01*
X179253Y151047D01*
X179282Y151012D01*
X179329Y150959D01*
X179394Y150895D01*
X179475Y150831D01*
X179569Y150760D01*
X179686Y150696D01*
X179815Y150644D01*
X179821D01*
X179832Y150638D01*
X179850Y150632D01*
X179879Y150626D01*
X179908Y150614D01*
X179949Y150608D01*
X180043Y150585D01*
X180154Y150562D01*
X180277Y150544D01*
X180412Y150532D01*
X180552Y150526D01*
X180634D01*
X180675Y150532D01*
X180727D01*
X180780Y150538D01*
X180839Y150544D01*
X180973Y150562D01*
X181119Y150585D01*
X181266Y150620D01*
X181406Y150667D01*
X181412D01*
X181424Y150673D01*
X181441Y150684D01*
X181465Y150696D01*
X181535Y150725D01*
X181611Y150772D01*
X181704Y150837D01*
X181792Y150913D01*
X181880Y151000D01*
X181956Y151106D01*
Y151111D01*
X181962Y151117D01*
X181974Y151135D01*
X181985Y151158D01*
X182009Y151223D01*
X182044Y151304D01*
X182073Y151398D01*
X182102Y151509D01*
X182126Y151632D01*
X182131Y151761D01*
Y151767D01*
Y151778D01*
Y151802D01*
X182126Y151831D01*
Y151866D01*
X182120Y151913D01*
X182102Y152012D01*
X182073Y152124D01*
X182026Y152246D01*
X181968Y152363D01*
X181886Y152480D01*
X181880Y152486D01*
X181874Y152492D01*
X181839Y152527D01*
X181780Y152580D01*
X181704Y152644D01*
X181599Y152708D01*
X181476Y152779D01*
X181324Y152837D01*
X181155Y152884D01*
X181283Y153393D01*
X181289D01*
X181312Y153387D01*
D02*
G37*
G36*
X11026Y180888D02*
X14381D01*
Y180000D01*
X10000D01*
Y187299D01*
X11026D01*
Y180888D01*
D02*
G37*
G36*
X143165Y203902D02*
X143212Y203896D01*
X143270Y203890D01*
X143334Y203884D01*
X143405Y203873D01*
X143557Y203838D01*
X143721Y203785D01*
X143802Y203750D01*
X143884Y203709D01*
X143960Y203662D01*
X144036Y203609D01*
X144042Y203604D01*
X144054Y203598D01*
X144072Y203580D01*
X144101Y203557D01*
X144130Y203527D01*
X144171Y203487D01*
X144212Y203446D01*
X144253Y203399D01*
X144300Y203340D01*
X144341Y203282D01*
X144387Y203212D01*
X144434Y203136D01*
X144475Y203060D01*
X144516Y202972D01*
X144586Y202785D01*
X144083Y202668D01*
Y202674D01*
X144077Y202685D01*
X144072Y202709D01*
X144060Y202738D01*
X144042Y202773D01*
X144025Y202814D01*
X143984Y202902D01*
X143931Y203001D01*
X143861Y203106D01*
X143785Y203200D01*
X143691Y203282D01*
X143680Y203288D01*
X143645Y203311D01*
X143592Y203340D01*
X143516Y203381D01*
X143428Y203416D01*
X143317Y203446D01*
X143194Y203469D01*
X143054Y203475D01*
X143013D01*
X142983Y203469D01*
X142943D01*
X142902Y203463D01*
X142796Y203446D01*
X142679Y203422D01*
X142556Y203381D01*
X142434Y203329D01*
X142317Y203258D01*
X142311D01*
X142305Y203247D01*
X142270Y203218D01*
X142217Y203171D01*
X142153Y203106D01*
X142088Y203025D01*
X142018Y202931D01*
X141954Y202814D01*
X141901Y202685D01*
Y202679D01*
X141895Y202668D01*
X141890Y202650D01*
X141884Y202621D01*
X141872Y202592D01*
X141866Y202551D01*
X141843Y202457D01*
X141819Y202346D01*
X141802Y202223D01*
X141790Y202088D01*
X141784Y201948D01*
Y201942D01*
Y201925D01*
Y201901D01*
Y201866D01*
X141790Y201825D01*
Y201773D01*
X141796Y201720D01*
X141802Y201661D01*
X141819Y201527D01*
X141843Y201381D01*
X141878Y201234D01*
X141925Y201094D01*
Y201088D01*
X141930Y201076D01*
X141942Y201059D01*
X141954Y201035D01*
X141983Y200965D01*
X142030Y200889D01*
X142094Y200796D01*
X142170Y200708D01*
X142258Y200620D01*
X142363Y200544D01*
X142369D01*
X142375Y200538D01*
X142393Y200526D01*
X142416Y200515D01*
X142480Y200491D01*
X142562Y200456D01*
X142656Y200427D01*
X142767Y200398D01*
X142890Y200374D01*
X143019Y200369D01*
X143060D01*
X143089Y200374D01*
X143124D01*
X143171Y200380D01*
X143270Y200398D01*
X143381Y200427D01*
X143504Y200474D01*
X143621Y200532D01*
X143738Y200614D01*
X143744Y200620D01*
X143750Y200626D01*
X143785Y200661D01*
X143838Y200720D01*
X143902Y200796D01*
X143966Y200901D01*
X144036Y201024D01*
X144095Y201176D01*
X144142Y201345D01*
X144651Y201217D01*
Y201211D01*
X144645Y201188D01*
X144633Y201158D01*
X144622Y201112D01*
X144598Y201065D01*
X144575Y201000D01*
X144551Y200936D01*
X144516Y200866D01*
X144440Y200708D01*
X144335Y200550D01*
X144218Y200398D01*
X144148Y200328D01*
X144072Y200263D01*
X144066Y200257D01*
X144054Y200252D01*
X144031Y200234D01*
X143996Y200211D01*
X143955Y200187D01*
X143908Y200158D01*
X143855Y200129D01*
X143791Y200099D01*
X143721Y200070D01*
X143645Y200041D01*
X143557Y200012D01*
X143469Y199988D01*
X143276Y199947D01*
X143171Y199942D01*
X143060Y199936D01*
X143001D01*
X142954Y199942D01*
X142902D01*
X142843Y199947D01*
X142773Y199959D01*
X142703Y199965D01*
X142539Y200000D01*
X142369Y200041D01*
X142205Y200105D01*
X142124Y200140D01*
X142048Y200187D01*
X142042Y200193D01*
X142030Y200199D01*
X142012Y200217D01*
X141983Y200234D01*
X141913Y200292D01*
X141831Y200374D01*
X141732Y200474D01*
X141638Y200603D01*
X141539Y200749D01*
X141457Y200919D01*
Y200924D01*
X141451Y200942D01*
X141439Y200965D01*
X141427Y201000D01*
X141410Y201047D01*
X141392Y201100D01*
X141375Y201158D01*
X141357Y201228D01*
X141340Y201299D01*
X141322Y201381D01*
X141287Y201556D01*
X141264Y201743D01*
X141258Y201948D01*
Y201954D01*
Y201977D01*
Y202007D01*
X141264Y202047D01*
Y202100D01*
X141270Y202165D01*
X141275Y202229D01*
X141287Y202305D01*
X141316Y202469D01*
X141351Y202644D01*
X141410Y202825D01*
X141486Y202995D01*
Y203001D01*
X141498Y203013D01*
X141509Y203036D01*
X141527Y203071D01*
X141550Y203106D01*
X141579Y203147D01*
X141656Y203247D01*
X141743Y203358D01*
X141854Y203469D01*
X141989Y203580D01*
X142135Y203674D01*
X142141D01*
X142153Y203685D01*
X142176Y203697D01*
X142211Y203709D01*
X142246Y203726D01*
X142293Y203750D01*
X142352Y203767D01*
X142410Y203791D01*
X142474Y203814D01*
X142545Y203832D01*
X142703Y203873D01*
X142878Y203896D01*
X143065Y203908D01*
X143124D01*
X143165Y203902D01*
D02*
G37*
G36*
X146862Y200000D02*
X146388D01*
Y203007D01*
X146382Y203001D01*
X146359Y202978D01*
X146318Y202948D01*
X146265Y202907D01*
X146201Y202855D01*
X146125Y202802D01*
X146037Y202738D01*
X145938Y202679D01*
X145932D01*
X145926Y202674D01*
X145891Y202650D01*
X145838Y202621D01*
X145774Y202586D01*
X145698Y202545D01*
X145616Y202510D01*
X145528Y202469D01*
X145446Y202434D01*
Y202896D01*
X145452D01*
X145464Y202902D01*
X145487Y202913D01*
X145511Y202931D01*
X145546Y202948D01*
X145587Y202966D01*
X145680Y203019D01*
X145786Y203083D01*
X145903Y203159D01*
X146020Y203247D01*
X146131Y203340D01*
X146137Y203346D01*
X146142Y203352D01*
X146178Y203387D01*
X146230Y203440D01*
X146295Y203504D01*
X146365Y203586D01*
X146435Y203674D01*
X146499Y203767D01*
X146552Y203861D01*
X146862D01*
Y200000D01*
D02*
G37*
G36*
X181348Y51336D02*
X181383D01*
X181476Y51324D01*
X181576Y51301D01*
X181693Y51277D01*
X181810Y51236D01*
X181927Y51183D01*
X181932D01*
X181938Y51178D01*
X181956Y51166D01*
X181979Y51154D01*
X182032Y51119D01*
X182102Y51072D01*
X182178Y51008D01*
X182254Y50932D01*
X182330Y50850D01*
X182401Y50750D01*
X182406Y50739D01*
X182424Y50704D01*
X182453Y50645D01*
X182482Y50575D01*
X182512Y50481D01*
X182541Y50376D01*
X182559Y50259D01*
X182564Y50136D01*
Y50130D01*
Y50113D01*
X182559Y50078D01*
Y50037D01*
X182553Y49990D01*
X182541Y49931D01*
X182529Y49867D01*
X182512Y49797D01*
X182488Y49721D01*
X182459Y49639D01*
X182424Y49563D01*
X182383Y49481D01*
X182330Y49399D01*
X182272Y49317D01*
X182208Y49241D01*
X182131Y49171D01*
X182126Y49165D01*
X182108Y49154D01*
X182085Y49136D01*
X182050Y49112D01*
X182003Y49083D01*
X181944Y49054D01*
X181874Y49019D01*
X181792Y48990D01*
X181699Y48955D01*
X181593Y48919D01*
X181476Y48890D01*
X181348Y48861D01*
X181207Y48838D01*
X181049Y48820D01*
X180885Y48808D01*
X180704Y48803D01*
X180599D01*
X180523Y48808D01*
X180429Y48814D01*
X180324Y48826D01*
X180207Y48838D01*
X180084Y48855D01*
X179949Y48873D01*
X179815Y48902D01*
X179680Y48937D01*
X179552Y48978D01*
X179417Y49025D01*
X179300Y49077D01*
X179183Y49142D01*
X179084Y49212D01*
X179078Y49218D01*
X179066Y49230D01*
X179043Y49247D01*
X179013Y49276D01*
X178978Y49317D01*
X178943Y49358D01*
X178902Y49411D01*
X178861Y49469D01*
X178820Y49534D01*
X178779Y49610D01*
X178744Y49686D01*
X178709Y49774D01*
X178680Y49867D01*
X178656Y49967D01*
X178645Y50072D01*
X178639Y50183D01*
Y50189D01*
Y50201D01*
Y50224D01*
X178645Y50259D01*
Y50294D01*
X178651Y50341D01*
X178668Y50446D01*
X178703Y50563D01*
X178750Y50686D01*
X178809Y50809D01*
X178850Y50867D01*
X178896Y50926D01*
Y50932D01*
X178908Y50938D01*
X178943Y50973D01*
X179002Y51020D01*
X179078Y51078D01*
X179177Y51143D01*
X179294Y51195D01*
X179435Y51248D01*
X179593Y51277D01*
X179628Y50809D01*
X179616D01*
X179581Y50797D01*
X179534Y50780D01*
X179475Y50762D01*
X179341Y50704D01*
X179282Y50669D01*
X179230Y50628D01*
X179218Y50622D01*
X179195Y50593D01*
X179165Y50552D01*
X179124Y50499D01*
X179089Y50429D01*
X179054Y50347D01*
X179031Y50253D01*
X179025Y50154D01*
Y50142D01*
Y50113D01*
X179031Y50072D01*
X179043Y50019D01*
X179054Y49955D01*
X179078Y49885D01*
X179113Y49820D01*
X179154Y49750D01*
X179160Y49738D01*
X179183Y49715D01*
X179224Y49674D01*
X179277Y49627D01*
X179341Y49569D01*
X179423Y49510D01*
X179522Y49452D01*
X179633Y49399D01*
X179639D01*
X179645Y49393D01*
X179669Y49387D01*
X179692Y49382D01*
X179721Y49370D01*
X179762Y49358D01*
X179809Y49347D01*
X179862Y49335D01*
X179920Y49323D01*
X179984Y49312D01*
X180061Y49300D01*
X180137Y49288D01*
X180224Y49282D01*
X180318Y49276D01*
X180417Y49270D01*
X180517D01*
X180511Y49276D01*
X180482Y49300D01*
X180435Y49335D01*
X180376Y49387D01*
X180312Y49446D01*
X180248Y49516D01*
X180189Y49598D01*
X180137Y49686D01*
X180131Y49698D01*
X180119Y49727D01*
X180096Y49779D01*
X180072Y49844D01*
X180049Y49920D01*
X180025Y50008D01*
X180014Y50101D01*
X180008Y50201D01*
Y50207D01*
Y50224D01*
Y50247D01*
X180014Y50283D01*
X180020Y50323D01*
X180025Y50370D01*
X180049Y50481D01*
X180096Y50604D01*
X180119Y50674D01*
X180154Y50739D01*
X180195Y50809D01*
X180242Y50879D01*
X180295Y50944D01*
X180359Y51008D01*
X180365Y51014D01*
X180376Y51020D01*
X180394Y51037D01*
X180423Y51061D01*
X180458Y51084D01*
X180499Y51113D01*
X180546Y51143D01*
X180599Y51178D01*
X180663Y51207D01*
X180727Y51236D01*
X180804Y51265D01*
X180879Y51289D01*
X180967Y51312D01*
X181055Y51330D01*
X181155Y51336D01*
X181254Y51341D01*
X181312D01*
X181348Y51336D01*
D02*
G37*
G36*
X181312Y48387D02*
X181342Y48375D01*
X181388Y48364D01*
X181435Y48340D01*
X181500Y48317D01*
X181564Y48294D01*
X181634Y48258D01*
X181792Y48182D01*
X181950Y48077D01*
X182102Y47960D01*
X182172Y47890D01*
X182237Y47814D01*
X182243Y47808D01*
X182248Y47796D01*
X182266Y47773D01*
X182289Y47738D01*
X182313Y47697D01*
X182342Y47650D01*
X182371Y47597D01*
X182401Y47533D01*
X182430Y47463D01*
X182459Y47387D01*
X182488Y47299D01*
X182512Y47211D01*
X182553Y47018D01*
X182559Y46913D01*
X182564Y46802D01*
Y46796D01*
Y46773D01*
Y46743D01*
X182559Y46696D01*
Y46644D01*
X182553Y46585D01*
X182541Y46515D01*
X182535Y46445D01*
X182500Y46281D01*
X182459Y46112D01*
X182395Y45948D01*
X182360Y45866D01*
X182313Y45790D01*
X182307Y45784D01*
X182301Y45772D01*
X182283Y45755D01*
X182266Y45725D01*
X182208Y45655D01*
X182126Y45573D01*
X182026Y45474D01*
X181897Y45380D01*
X181751Y45281D01*
X181581Y45199D01*
X181576D01*
X181558Y45193D01*
X181535Y45181D01*
X181500Y45170D01*
X181453Y45152D01*
X181400Y45135D01*
X181342Y45117D01*
X181272Y45099D01*
X181201Y45082D01*
X181119Y45064D01*
X180944Y45029D01*
X180757Y45006D01*
X180552Y45000D01*
X180493D01*
X180453Y45006D01*
X180400D01*
X180335Y45012D01*
X180271Y45017D01*
X180195Y45029D01*
X180031Y45059D01*
X179856Y45094D01*
X179674Y45152D01*
X179505Y45228D01*
X179499D01*
X179487Y45240D01*
X179464Y45252D01*
X179429Y45269D01*
X179394Y45292D01*
X179353Y45322D01*
X179253Y45398D01*
X179142Y45486D01*
X179031Y45597D01*
X178920Y45731D01*
X178826Y45878D01*
Y45883D01*
X178814Y45895D01*
X178803Y45919D01*
X178791Y45954D01*
X178774Y45989D01*
X178750Y46035D01*
X178733Y46094D01*
X178709Y46152D01*
X178686Y46217D01*
X178668Y46287D01*
X178627Y46445D01*
X178604Y46620D01*
X178592Y46808D01*
Y46813D01*
Y46831D01*
Y46866D01*
X178598Y46907D01*
X178604Y46954D01*
X178610Y47012D01*
X178616Y47077D01*
X178627Y47147D01*
X178662Y47299D01*
X178715Y47463D01*
X178750Y47545D01*
X178791Y47627D01*
X178838Y47703D01*
X178891Y47779D01*
X178896Y47785D01*
X178902Y47796D01*
X178920Y47814D01*
X178943Y47843D01*
X178972Y47872D01*
X179013Y47913D01*
X179054Y47954D01*
X179101Y47995D01*
X179160Y48042D01*
X179218Y48083D01*
X179288Y48130D01*
X179364Y48177D01*
X179440Y48217D01*
X179528Y48258D01*
X179715Y48329D01*
X179832Y47826D01*
X179826D01*
X179815Y47820D01*
X179791Y47814D01*
X179762Y47802D01*
X179727Y47785D01*
X179686Y47767D01*
X179598Y47726D01*
X179499Y47673D01*
X179394Y47603D01*
X179300Y47527D01*
X179218Y47434D01*
X179212Y47422D01*
X179189Y47387D01*
X179160Y47334D01*
X179119Y47258D01*
X179084Y47170D01*
X179054Y47059D01*
X179031Y46936D01*
X179025Y46796D01*
Y46790D01*
Y46778D01*
Y46755D01*
X179031Y46726D01*
Y46685D01*
X179037Y46644D01*
X179054Y46538D01*
X179078Y46422D01*
X179119Y46299D01*
X179171Y46176D01*
X179242Y46059D01*
Y46053D01*
X179253Y46047D01*
X179282Y46012D01*
X179329Y45959D01*
X179394Y45895D01*
X179475Y45831D01*
X179569Y45761D01*
X179686Y45696D01*
X179815Y45643D01*
X179821D01*
X179832Y45638D01*
X179850Y45632D01*
X179879Y45626D01*
X179908Y45614D01*
X179949Y45608D01*
X180043Y45585D01*
X180154Y45562D01*
X180277Y45544D01*
X180412Y45532D01*
X180552Y45526D01*
X180634D01*
X180675Y45532D01*
X180727D01*
X180780Y45538D01*
X180839Y45544D01*
X180973Y45562D01*
X181119Y45585D01*
X181266Y45620D01*
X181406Y45667D01*
X181412D01*
X181424Y45673D01*
X181441Y45684D01*
X181465Y45696D01*
X181535Y45725D01*
X181611Y45772D01*
X181704Y45836D01*
X181792Y45913D01*
X181880Y46000D01*
X181956Y46106D01*
Y46112D01*
X181962Y46117D01*
X181974Y46135D01*
X181985Y46158D01*
X182009Y46223D01*
X182044Y46305D01*
X182073Y46398D01*
X182102Y46509D01*
X182126Y46632D01*
X182131Y46761D01*
Y46767D01*
Y46778D01*
Y46802D01*
X182126Y46831D01*
Y46866D01*
X182120Y46913D01*
X182102Y47012D01*
X182073Y47124D01*
X182026Y47246D01*
X181968Y47363D01*
X181886Y47480D01*
X181880Y47486D01*
X181874Y47492D01*
X181839Y47527D01*
X181780Y47580D01*
X181704Y47644D01*
X181599Y47709D01*
X181476Y47779D01*
X181324Y47837D01*
X181155Y47884D01*
X181283Y48393D01*
X181289D01*
X181312Y48387D01*
D02*
G37*
G36*
X107399Y112838D02*
X107446D01*
X107563Y112832D01*
X107686Y112820D01*
X107815Y112797D01*
X107938Y112773D01*
X107996Y112756D01*
X108049Y112738D01*
X108055D01*
X108061Y112732D01*
X108096Y112721D01*
X108142Y112691D01*
X108201Y112650D01*
X108271Y112604D01*
X108341Y112539D01*
X108412Y112463D01*
X108476Y112370D01*
X108482Y112358D01*
X108499Y112323D01*
X108529Y112270D01*
X108558Y112200D01*
X108587Y112112D01*
X108616Y112013D01*
X108634Y111907D01*
X108640Y111791D01*
Y111785D01*
Y111773D01*
Y111749D01*
X108634Y111720D01*
Y111685D01*
X108628Y111644D01*
X108605Y111551D01*
X108575Y111440D01*
X108529Y111328D01*
X108458Y111211D01*
X108417Y111153D01*
X108371Y111100D01*
X108359Y111088D01*
X108341Y111077D01*
X108324Y111053D01*
X108295Y111036D01*
X108259Y111006D01*
X108219Y110983D01*
X108172Y110954D01*
X108119Y110925D01*
X108055Y110895D01*
X107990Y110866D01*
X107914Y110837D01*
X107838Y110808D01*
X107750Y110784D01*
X107657Y110767D01*
X107557Y110749D01*
X107569Y110743D01*
X107593Y110732D01*
X107628Y110714D01*
X107669Y110691D01*
X107768Y110626D01*
X107821Y110591D01*
X107862Y110556D01*
X107873Y110544D01*
X107903Y110521D01*
X107944Y110474D01*
X107996Y110416D01*
X108061Y110340D01*
X108131Y110252D01*
X108207Y110152D01*
X108283Y110041D01*
X108950Y109000D01*
X108312D01*
X107803Y109796D01*
Y109801D01*
X107791Y109813D01*
X107780Y109831D01*
X107768Y109854D01*
X107727Y109913D01*
X107675Y109989D01*
X107616Y110076D01*
X107552Y110164D01*
X107493Y110246D01*
X107435Y110322D01*
X107429Y110328D01*
X107411Y110351D01*
X107382Y110386D01*
X107353Y110427D01*
X107265Y110509D01*
X107224Y110550D01*
X107177Y110580D01*
X107171Y110585D01*
X107160Y110591D01*
X107136Y110603D01*
X107107Y110620D01*
X107037Y110655D01*
X106949Y110685D01*
X106943D01*
X106931Y110691D01*
X106908D01*
X106879Y110696D01*
X106838Y110702D01*
X106791D01*
X106733Y110708D01*
X106077D01*
Y109000D01*
X105569D01*
Y112844D01*
X107353D01*
X107399Y112838D01*
D02*
G37*
G36*
X210645Y46351D02*
X211166D01*
Y45919D01*
X210645D01*
Y45000D01*
X210171D01*
Y45919D01*
X208504D01*
Y46351D01*
X210259Y48838D01*
X210645D01*
Y46351D01*
D02*
G37*
G36*
X143165Y98902D02*
X143212Y98896D01*
X143270Y98890D01*
X143334Y98884D01*
X143405Y98873D01*
X143557Y98838D01*
X143721Y98785D01*
X143802Y98750D01*
X143884Y98709D01*
X143960Y98662D01*
X144036Y98610D01*
X144042Y98604D01*
X144054Y98598D01*
X144072Y98580D01*
X144101Y98557D01*
X144130Y98527D01*
X144171Y98487D01*
X144212Y98446D01*
X144253Y98399D01*
X144300Y98340D01*
X144341Y98282D01*
X144387Y98212D01*
X144434Y98136D01*
X144475Y98060D01*
X144516Y97972D01*
X144586Y97785D01*
X144083Y97668D01*
Y97673D01*
X144077Y97685D01*
X144072Y97709D01*
X144060Y97738D01*
X144042Y97773D01*
X144025Y97814D01*
X143984Y97902D01*
X143931Y98001D01*
X143861Y98106D01*
X143785Y98200D01*
X143691Y98282D01*
X143680Y98288D01*
X143645Y98311D01*
X143592Y98340D01*
X143516Y98381D01*
X143428Y98416D01*
X143317Y98446D01*
X143194Y98469D01*
X143054Y98475D01*
X143013D01*
X142983Y98469D01*
X142943D01*
X142902Y98463D01*
X142796Y98446D01*
X142679Y98422D01*
X142556Y98381D01*
X142434Y98329D01*
X142317Y98259D01*
X142311D01*
X142305Y98247D01*
X142270Y98217D01*
X142217Y98171D01*
X142153Y98106D01*
X142088Y98024D01*
X142018Y97931D01*
X141954Y97814D01*
X141901Y97685D01*
Y97679D01*
X141895Y97668D01*
X141890Y97650D01*
X141884Y97621D01*
X141872Y97592D01*
X141866Y97551D01*
X141843Y97457D01*
X141819Y97346D01*
X141802Y97223D01*
X141790Y97088D01*
X141784Y96948D01*
Y96942D01*
Y96925D01*
Y96901D01*
Y96866D01*
X141790Y96825D01*
Y96773D01*
X141796Y96720D01*
X141802Y96661D01*
X141819Y96527D01*
X141843Y96381D01*
X141878Y96234D01*
X141925Y96094D01*
Y96088D01*
X141930Y96076D01*
X141942Y96059D01*
X141954Y96035D01*
X141983Y95965D01*
X142030Y95889D01*
X142094Y95796D01*
X142170Y95708D01*
X142258Y95620D01*
X142363Y95544D01*
X142369D01*
X142375Y95538D01*
X142393Y95526D01*
X142416Y95515D01*
X142480Y95491D01*
X142562Y95456D01*
X142656Y95427D01*
X142767Y95398D01*
X142890Y95374D01*
X143019Y95369D01*
X143060D01*
X143089Y95374D01*
X143124D01*
X143171Y95380D01*
X143270Y95398D01*
X143381Y95427D01*
X143504Y95474D01*
X143621Y95532D01*
X143738Y95614D01*
X143744Y95620D01*
X143750Y95626D01*
X143785Y95661D01*
X143838Y95720D01*
X143902Y95796D01*
X143966Y95901D01*
X144036Y96024D01*
X144095Y96176D01*
X144142Y96346D01*
X144651Y96217D01*
Y96211D01*
X144645Y96188D01*
X144633Y96158D01*
X144622Y96112D01*
X144598Y96065D01*
X144575Y96000D01*
X144551Y95936D01*
X144516Y95866D01*
X144440Y95708D01*
X144335Y95550D01*
X144218Y95398D01*
X144148Y95328D01*
X144072Y95263D01*
X144066Y95257D01*
X144054Y95252D01*
X144031Y95234D01*
X143996Y95211D01*
X143955Y95187D01*
X143908Y95158D01*
X143855Y95129D01*
X143791Y95100D01*
X143721Y95070D01*
X143645Y95041D01*
X143557Y95012D01*
X143469Y94988D01*
X143276Y94947D01*
X143171Y94942D01*
X143060Y94936D01*
X143001D01*
X142954Y94942D01*
X142902D01*
X142843Y94947D01*
X142773Y94959D01*
X142703Y94965D01*
X142539Y95000D01*
X142369Y95041D01*
X142205Y95105D01*
X142124Y95140D01*
X142048Y95187D01*
X142042Y95193D01*
X142030Y95199D01*
X142012Y95216D01*
X141983Y95234D01*
X141913Y95293D01*
X141831Y95374D01*
X141732Y95474D01*
X141638Y95603D01*
X141539Y95749D01*
X141457Y95918D01*
Y95924D01*
X141451Y95942D01*
X141439Y95965D01*
X141427Y96000D01*
X141410Y96047D01*
X141392Y96100D01*
X141375Y96158D01*
X141357Y96228D01*
X141340Y96299D01*
X141322Y96381D01*
X141287Y96556D01*
X141264Y96743D01*
X141258Y96948D01*
Y96954D01*
Y96977D01*
Y97007D01*
X141264Y97048D01*
Y97100D01*
X141270Y97164D01*
X141275Y97229D01*
X141287Y97305D01*
X141316Y97469D01*
X141351Y97644D01*
X141410Y97825D01*
X141486Y97995D01*
Y98001D01*
X141498Y98013D01*
X141509Y98036D01*
X141527Y98071D01*
X141550Y98106D01*
X141579Y98147D01*
X141656Y98247D01*
X141743Y98358D01*
X141854Y98469D01*
X141989Y98580D01*
X142135Y98674D01*
X142141D01*
X142153Y98685D01*
X142176Y98697D01*
X142211Y98709D01*
X142246Y98726D01*
X142293Y98750D01*
X142352Y98767D01*
X142410Y98791D01*
X142474Y98814D01*
X142545Y98832D01*
X142703Y98873D01*
X142878Y98896D01*
X143065Y98908D01*
X143124D01*
X143165Y98902D01*
D02*
G37*
G36*
X208007Y45000D02*
X207498D01*
Y46813D01*
X205509D01*
Y45000D01*
X205000D01*
Y48844D01*
X205509D01*
Y47264D01*
X207498D01*
Y48844D01*
X208007D01*
Y45000D01*
D02*
G37*
G36*
X35497Y177656D02*
X35503D01*
X35515Y177668D01*
X35532Y177679D01*
X35562Y177691D01*
X35603Y177714D01*
X35649Y177732D01*
X35702Y177755D01*
X35766Y177779D01*
X35772Y177785D01*
X35801Y177790D01*
X35836Y177802D01*
X35889Y177814D01*
X35954Y177825D01*
X36024Y177831D01*
X36106Y177843D01*
X36246D01*
X36299Y177837D01*
X36369Y177831D01*
X36451Y177814D01*
X36544Y177796D01*
X36632Y177767D01*
X36720Y177732D01*
X36732Y177726D01*
X36761Y177714D01*
X36802Y177691D01*
X36854Y177656D01*
X36919Y177615D01*
X36983Y177562D01*
X37047Y177504D01*
X37112Y177434D01*
X37118Y177428D01*
X37141Y177399D01*
X37170Y177357D01*
X37205Y177305D01*
X37246Y177235D01*
X37287Y177159D01*
X37322Y177071D01*
X37358Y176971D01*
X37363Y176960D01*
X37369Y176925D01*
X37387Y176872D01*
X37404Y176802D01*
X37416Y176714D01*
X37434Y176615D01*
X37439Y176503D01*
X37445Y176386D01*
Y176381D01*
Y176369D01*
Y176351D01*
Y176328D01*
X37439Y176264D01*
X37434Y176182D01*
X37422Y176088D01*
X37404Y175989D01*
X37381Y175883D01*
X37346Y175778D01*
X37340Y175766D01*
X37328Y175731D01*
X37305Y175684D01*
X37276Y175620D01*
X37235Y175550D01*
X37188Y175474D01*
X37129Y175398D01*
X37065Y175322D01*
X37059Y175316D01*
X37036Y175293D01*
X36995Y175257D01*
X36942Y175216D01*
X36878Y175170D01*
X36802Y175123D01*
X36720Y175076D01*
X36626Y175035D01*
X36615Y175029D01*
X36579Y175018D01*
X36527Y175006D01*
X36457Y174988D01*
X36375Y174965D01*
X36275Y174953D01*
X36164Y174942D01*
X36047Y174936D01*
X35924D01*
X35842Y174942D01*
X35743Y174947D01*
X35644Y174953D01*
X35538Y174965D01*
X35433Y174982D01*
X35421D01*
X35392Y174988D01*
X35339Y175000D01*
X35281Y175012D01*
X35211Y175023D01*
X35140Y175041D01*
X35070Y175058D01*
X35000Y175076D01*
Y179054D01*
X35497Y179142D01*
Y177656D01*
D02*
G37*
G36*
X146447Y98855D02*
X146493Y98849D01*
X146546Y98843D01*
X146605Y98838D01*
X146669Y98820D01*
X146809Y98785D01*
X146956Y98732D01*
X147032Y98697D01*
X147102Y98656D01*
X147166Y98604D01*
X147231Y98551D01*
X147236Y98545D01*
X147242Y98539D01*
X147260Y98522D01*
X147283Y98498D01*
X147307Y98463D01*
X147336Y98428D01*
X147394Y98340D01*
X147453Y98229D01*
X147505Y98101D01*
X147547Y97954D01*
X147552Y97872D01*
X147558Y97790D01*
Y97779D01*
Y97750D01*
X147552Y97703D01*
X147547Y97644D01*
X147535Y97574D01*
X147517Y97498D01*
X147494Y97416D01*
X147459Y97334D01*
X147453Y97322D01*
X147441Y97293D01*
X147418Y97252D01*
X147383Y97194D01*
X147342Y97124D01*
X147289Y97042D01*
X147219Y96960D01*
X147143Y96866D01*
X147131Y96854D01*
X147102Y96819D01*
X147049Y96767D01*
X147014Y96732D01*
X146973Y96691D01*
X146926Y96644D01*
X146868Y96591D01*
X146809Y96539D01*
X146745Y96474D01*
X146675Y96410D01*
X146593Y96340D01*
X146511Y96269D01*
X146417Y96188D01*
X146412Y96182D01*
X146400Y96170D01*
X146377Y96152D01*
X146347Y96129D01*
X146277Y96071D01*
X146189Y95995D01*
X146101Y95913D01*
X146008Y95831D01*
X145932Y95761D01*
X145903Y95731D01*
X145873Y95702D01*
X145868Y95696D01*
X145856Y95679D01*
X145832Y95655D01*
X145803Y95620D01*
X145739Y95544D01*
X145675Y95451D01*
X147564D01*
Y95000D01*
X145019D01*
Y95006D01*
Y95029D01*
Y95064D01*
X145025Y95105D01*
X145031Y95152D01*
X145037Y95205D01*
X145054Y95263D01*
X145072Y95322D01*
Y95328D01*
X145078Y95333D01*
X145089Y95369D01*
X145113Y95415D01*
X145148Y95486D01*
X145189Y95562D01*
X145247Y95649D01*
X145306Y95737D01*
X145382Y95831D01*
Y95837D01*
X145394Y95842D01*
X145423Y95877D01*
X145470Y95930D01*
X145540Y96000D01*
X145628Y96082D01*
X145733Y96182D01*
X145862Y96293D01*
X146002Y96416D01*
X146008Y96422D01*
X146031Y96439D01*
X146061Y96463D01*
X146101Y96503D01*
X146154Y96544D01*
X146213Y96597D01*
X146341Y96708D01*
X146482Y96843D01*
X146622Y96977D01*
X146692Y97042D01*
X146751Y97106D01*
X146803Y97170D01*
X146850Y97229D01*
Y97235D01*
X146862Y97241D01*
X146874Y97258D01*
X146885Y97281D01*
X146921Y97340D01*
X146961Y97416D01*
X147002Y97504D01*
X147038Y97597D01*
X147061Y97703D01*
X147073Y97802D01*
Y97808D01*
Y97814D01*
X147067Y97849D01*
X147061Y97902D01*
X147049Y97966D01*
X147020Y98042D01*
X146985Y98118D01*
X146938Y98200D01*
X146868Y98276D01*
X146856Y98282D01*
X146833Y98305D01*
X146786Y98334D01*
X146728Y98375D01*
X146651Y98411D01*
X146564Y98440D01*
X146458Y98463D01*
X146341Y98469D01*
X146306D01*
X146283Y98463D01*
X146224Y98457D01*
X146148Y98446D01*
X146061Y98416D01*
X145967Y98381D01*
X145879Y98329D01*
X145797Y98259D01*
X145791Y98247D01*
X145768Y98223D01*
X145733Y98176D01*
X145698Y98112D01*
X145657Y98030D01*
X145628Y97937D01*
X145604Y97825D01*
X145593Y97697D01*
X145107Y97750D01*
Y97755D01*
Y97773D01*
X145113Y97802D01*
X145119Y97837D01*
X145130Y97884D01*
X145136Y97937D01*
X145171Y98054D01*
X145218Y98188D01*
X145282Y98323D01*
X145370Y98457D01*
X145417Y98516D01*
X145476Y98574D01*
X145481Y98580D01*
X145493Y98586D01*
X145511Y98604D01*
X145534Y98621D01*
X145569Y98639D01*
X145610Y98668D01*
X145657Y98691D01*
X145710Y98721D01*
X145768Y98744D01*
X145832Y98773D01*
X145908Y98797D01*
X145984Y98814D01*
X146160Y98849D01*
X146254Y98855D01*
X146353Y98861D01*
X146406D01*
X146447Y98855D01*
D02*
G37*
G36*
X45951Y175000D02*
X45430D01*
Y178703D01*
X45951D01*
Y175000D01*
D02*
G37*
G36*
X68186Y66168D02*
X68239D01*
X68298Y66162D01*
X68362Y66156D01*
X68438Y66145D01*
X68602Y66115D01*
X68777Y66074D01*
X68959Y66016D01*
X69134Y65934D01*
X69140D01*
X69152Y65922D01*
X69175Y65911D01*
X69210Y65893D01*
X69245Y65864D01*
X69292Y65834D01*
X69392Y65764D01*
X69503Y65671D01*
X69620Y65554D01*
X69731Y65419D01*
X69830Y65267D01*
Y65261D01*
X69842Y65250D01*
X69854Y65226D01*
X69865Y65191D01*
X69883Y65150D01*
X69906Y65103D01*
X69924Y65051D01*
X69947Y64986D01*
X69988Y64852D01*
X70029Y64694D01*
X70053Y64518D01*
X70064Y64337D01*
Y64331D01*
Y64314D01*
Y64284D01*
X70059Y64243D01*
Y64196D01*
X70053Y64144D01*
X70041Y64079D01*
X70029Y64009D01*
X70000Y63863D01*
X69953Y63699D01*
X69889Y63530D01*
X69854Y63448D01*
X69807Y63366D01*
X69801Y63360D01*
X69795Y63348D01*
X69778Y63325D01*
X69760Y63296D01*
X69731Y63261D01*
X69702Y63220D01*
X69620Y63126D01*
X69514Y63021D01*
X69397Y62910D01*
X69251Y62810D01*
X69093Y62716D01*
X69087D01*
X69070Y62705D01*
X69046Y62699D01*
X69011Y62681D01*
X68970Y62664D01*
X68924Y62646D01*
X68865Y62629D01*
X68801Y62611D01*
X68731Y62588D01*
X68660Y62570D01*
X68497Y62535D01*
X68321Y62512D01*
X68134Y62500D01*
X68093D01*
X68040Y62506D01*
X67976D01*
X67894Y62518D01*
X67800Y62529D01*
X67701Y62541D01*
X67584Y62564D01*
X67467Y62594D01*
X67344Y62623D01*
X67221Y62664D01*
X67098Y62716D01*
X66975Y62775D01*
X66853Y62839D01*
X66742Y62921D01*
X66636Y63009D01*
X66630Y63015D01*
X66613Y63032D01*
X66584Y63062D01*
X66549Y63103D01*
X66508Y63155D01*
X66467Y63214D01*
X66414Y63284D01*
X66361Y63366D01*
X66315Y63459D01*
X66262Y63559D01*
X66221Y63670D01*
X66174Y63787D01*
X66145Y63910D01*
X66116Y64044D01*
X66098Y64191D01*
X66092Y64337D01*
Y64343D01*
Y64360D01*
Y64389D01*
X66098Y64425D01*
Y64472D01*
X66104Y64530D01*
X66116Y64588D01*
X66122Y64659D01*
X66157Y64805D01*
X66203Y64969D01*
X66262Y65132D01*
X66303Y65214D01*
X66350Y65296D01*
Y65302D01*
X66361Y65314D01*
X66373Y65337D01*
X66396Y65367D01*
X66420Y65402D01*
X66455Y65443D01*
X66531Y65536D01*
X66630Y65641D01*
X66753Y65753D01*
X66894Y65852D01*
X67057Y65946D01*
X67063D01*
X67081Y65957D01*
X67104Y65969D01*
X67139Y65981D01*
X67180Y65998D01*
X67233Y66016D01*
X67291Y66039D01*
X67356Y66063D01*
X67432Y66080D01*
X67508Y66104D01*
X67683Y66139D01*
X67876Y66162D01*
X68087Y66174D01*
X68146D01*
X68186Y66168D01*
D02*
G37*
G36*
X140509Y95000D02*
X140000D01*
Y98843D01*
X140509D01*
Y95000D01*
D02*
G37*
G36*
X70000Y67940D02*
X66993D01*
X66999Y67935D01*
X67022Y67911D01*
X67052Y67870D01*
X67093Y67818D01*
X67145Y67753D01*
X67198Y67677D01*
X67262Y67589D01*
X67321Y67490D01*
Y67484D01*
X67326Y67478D01*
X67350Y67443D01*
X67379Y67391D01*
X67414Y67326D01*
X67455Y67250D01*
X67490Y67168D01*
X67531Y67081D01*
X67566Y66999D01*
X67104D01*
Y67005D01*
X67098Y67016D01*
X67087Y67040D01*
X67069Y67063D01*
X67052Y67098D01*
X67034Y67139D01*
X66981Y67233D01*
X66917Y67338D01*
X66841Y67455D01*
X66753Y67572D01*
X66660Y67683D01*
X66654Y67689D01*
X66648Y67695D01*
X66613Y67730D01*
X66560Y67783D01*
X66496Y67847D01*
X66414Y67917D01*
X66326Y67987D01*
X66233Y68052D01*
X66139Y68104D01*
Y68414D01*
X70000D01*
Y67940D01*
D02*
G37*
G36*
X209978Y153855D02*
X210054Y153843D01*
X210142Y153826D01*
X210242Y153803D01*
X210341Y153767D01*
X210440Y153721D01*
X210446D01*
X210452Y153715D01*
X210487Y153697D01*
X210534Y153668D01*
X210593Y153627D01*
X210657Y153574D01*
X210727Y153510D01*
X210791Y153434D01*
X210850Y153352D01*
X210856Y153340D01*
X210873Y153311D01*
X210897Y153264D01*
X210920Y153206D01*
X210944Y153130D01*
X210967Y153048D01*
X210984Y152960D01*
X210990Y152861D01*
Y152849D01*
Y152820D01*
X210984Y152773D01*
X210973Y152714D01*
X210955Y152644D01*
X210932Y152568D01*
X210903Y152486D01*
X210856Y152410D01*
X210850Y152399D01*
X210833Y152375D01*
X210797Y152340D01*
X210756Y152293D01*
X210698Y152241D01*
X210634Y152188D01*
X210552Y152129D01*
X210458Y152083D01*
X210464D01*
X210476Y152077D01*
X210493D01*
X210517Y152065D01*
X210575Y152048D01*
X210651Y152012D01*
X210733Y151971D01*
X210821Y151913D01*
X210909Y151843D01*
X210984Y151755D01*
X210990Y151743D01*
X211014Y151708D01*
X211043Y151655D01*
X211084Y151585D01*
X211119Y151498D01*
X211148Y151392D01*
X211172Y151269D01*
X211178Y151135D01*
Y151129D01*
Y151111D01*
Y151088D01*
X211172Y151053D01*
X211166Y151006D01*
X211160Y150959D01*
X211148Y150901D01*
X211131Y150842D01*
X211090Y150708D01*
X211061Y150632D01*
X211020Y150562D01*
X210979Y150491D01*
X210932Y150421D01*
X210873Y150351D01*
X210809Y150281D01*
X210803Y150275D01*
X210791Y150263D01*
X210774Y150251D01*
X210745Y150228D01*
X210710Y150199D01*
X210663Y150170D01*
X210610Y150140D01*
X210558Y150111D01*
X210493Y150076D01*
X210423Y150047D01*
X210347Y150018D01*
X210265Y149988D01*
X210177Y149965D01*
X210084Y149953D01*
X209984Y149942D01*
X209885Y149936D01*
X209838D01*
X209803Y149942D01*
X209756Y149947D01*
X209709Y149953D01*
X209651Y149959D01*
X209592Y149971D01*
X209458Y150006D01*
X209317Y150064D01*
X209247Y150094D01*
X209183Y150135D01*
X209113Y150181D01*
X209048Y150234D01*
X209042Y150240D01*
X209036Y150246D01*
X209019Y150263D01*
X208996Y150287D01*
X208972Y150322D01*
X208943Y150357D01*
X208908Y150398D01*
X208878Y150445D01*
X208808Y150562D01*
X208750Y150696D01*
X208697Y150848D01*
X208680Y150930D01*
X208668Y151018D01*
X209142Y151082D01*
Y151076D01*
X209148Y151065D01*
Y151041D01*
X209159Y151018D01*
X209177Y150948D01*
X209206Y150860D01*
X209241Y150766D01*
X209288Y150667D01*
X209347Y150579D01*
X209411Y150503D01*
X209423Y150497D01*
X209446Y150474D01*
X209487Y150451D01*
X209545Y150415D01*
X209610Y150386D01*
X209692Y150357D01*
X209785Y150333D01*
X209885Y150328D01*
X209920D01*
X209943Y150333D01*
X210002Y150339D01*
X210078Y150357D01*
X210171Y150386D01*
X210265Y150421D01*
X210359Y150480D01*
X210446Y150556D01*
X210458Y150567D01*
X210481Y150597D01*
X210517Y150644D01*
X210563Y150714D01*
X210604Y150796D01*
X210639Y150895D01*
X210663Y151006D01*
X210675Y151129D01*
Y151135D01*
Y151141D01*
Y151158D01*
X210669Y151182D01*
X210663Y151240D01*
X210645Y151316D01*
X210622Y151398D01*
X210581Y151492D01*
X210528Y151579D01*
X210458Y151661D01*
X210446Y151673D01*
X210423Y151697D01*
X210376Y151726D01*
X210312Y151767D01*
X210236Y151808D01*
X210142Y151837D01*
X210043Y151860D01*
X209926Y151872D01*
X209873D01*
X209832Y151866D01*
X209785Y151860D01*
X209727Y151854D01*
X209662Y151843D01*
X209592Y151825D01*
X209645Y152241D01*
X209674D01*
X209698Y152235D01*
X209774D01*
X209826Y152241D01*
X209902Y152252D01*
X209984Y152270D01*
X210072Y152299D01*
X210166Y152334D01*
X210259Y152387D01*
X210271Y152393D01*
X210300Y152416D01*
X210335Y152457D01*
X210382Y152510D01*
X210429Y152574D01*
X210464Y152656D01*
X210493Y152755D01*
X210505Y152872D01*
Y152878D01*
Y152884D01*
Y152913D01*
X210493Y152960D01*
X210481Y153024D01*
X210464Y153089D01*
X210429Y153159D01*
X210388Y153235D01*
X210329Y153299D01*
X210324Y153305D01*
X210300Y153329D01*
X210259Y153358D01*
X210207Y153387D01*
X210142Y153422D01*
X210066Y153446D01*
X209978Y153469D01*
X209879Y153475D01*
X209832D01*
X209779Y153463D01*
X209721Y153452D01*
X209645Y153434D01*
X209569Y153399D01*
X209493Y153358D01*
X209417Y153299D01*
X209411Y153294D01*
X209387Y153270D01*
X209358Y153229D01*
X209323Y153171D01*
X209282Y153101D01*
X209247Y153013D01*
X209212Y152907D01*
X209189Y152785D01*
X208715Y152866D01*
Y152872D01*
X208721Y152890D01*
X208727Y152913D01*
X208732Y152943D01*
X208744Y152983D01*
X208756Y153030D01*
X208797Y153136D01*
X208843Y153253D01*
X208914Y153375D01*
X208996Y153492D01*
X209101Y153598D01*
X209107Y153604D01*
X209113Y153609D01*
X209130Y153621D01*
X209159Y153639D01*
X209189Y153656D01*
X209224Y153680D01*
X209312Y153732D01*
X209423Y153779D01*
X209557Y153820D01*
X209703Y153849D01*
X209785Y153861D01*
X209920D01*
X209978Y153855D01*
D02*
G37*
G36*
X44407Y56402D02*
X44454Y56396D01*
X44512Y56390D01*
X44577Y56384D01*
X44647Y56373D01*
X44799Y56338D01*
X44963Y56285D01*
X45045Y56250D01*
X45127Y56209D01*
X45203Y56162D01*
X45279Y56109D01*
X45285Y56104D01*
X45296Y56098D01*
X45314Y56080D01*
X45343Y56057D01*
X45372Y56028D01*
X45413Y55987D01*
X45454Y55946D01*
X45495Y55899D01*
X45542Y55840D01*
X45583Y55782D01*
X45630Y55712D01*
X45676Y55636D01*
X45717Y55560D01*
X45758Y55472D01*
X45829Y55285D01*
X45325Y55168D01*
Y55173D01*
X45320Y55185D01*
X45314Y55209D01*
X45302Y55238D01*
X45285Y55273D01*
X45267Y55314D01*
X45226Y55402D01*
X45173Y55501D01*
X45103Y55606D01*
X45027Y55700D01*
X44934Y55782D01*
X44922Y55788D01*
X44887Y55811D01*
X44834Y55840D01*
X44758Y55881D01*
X44670Y55916D01*
X44559Y55946D01*
X44436Y55969D01*
X44296Y55975D01*
X44255D01*
X44226Y55969D01*
X44185D01*
X44144Y55963D01*
X44039Y55946D01*
X43922Y55922D01*
X43799Y55881D01*
X43676Y55829D01*
X43559Y55759D01*
X43553D01*
X43547Y55747D01*
X43512Y55717D01*
X43459Y55671D01*
X43395Y55606D01*
X43331Y55524D01*
X43260Y55431D01*
X43196Y55314D01*
X43143Y55185D01*
Y55179D01*
X43138Y55168D01*
X43132Y55150D01*
X43126Y55121D01*
X43114Y55092D01*
X43108Y55051D01*
X43085Y54957D01*
X43062Y54846D01*
X43044Y54723D01*
X43032Y54589D01*
X43027Y54448D01*
Y54442D01*
Y54425D01*
Y54401D01*
Y54366D01*
X43032Y54325D01*
Y54273D01*
X43038Y54220D01*
X43044Y54161D01*
X43062Y54027D01*
X43085Y53881D01*
X43120Y53734D01*
X43167Y53594D01*
Y53588D01*
X43173Y53576D01*
X43184Y53559D01*
X43196Y53535D01*
X43225Y53465D01*
X43272Y53389D01*
X43336Y53296D01*
X43413Y53208D01*
X43500Y53120D01*
X43606Y53044D01*
X43611D01*
X43617Y53038D01*
X43635Y53026D01*
X43658Y53015D01*
X43723Y52991D01*
X43805Y52956D01*
X43898Y52927D01*
X44009Y52898D01*
X44132Y52874D01*
X44261Y52869D01*
X44302D01*
X44331Y52874D01*
X44366D01*
X44413Y52880D01*
X44512Y52898D01*
X44624Y52927D01*
X44746Y52974D01*
X44863Y53032D01*
X44980Y53114D01*
X44986Y53120D01*
X44992Y53126D01*
X45027Y53161D01*
X45080Y53220D01*
X45144Y53296D01*
X45209Y53401D01*
X45279Y53524D01*
X45337Y53676D01*
X45384Y53846D01*
X45893Y53717D01*
Y53711D01*
X45887Y53688D01*
X45875Y53658D01*
X45864Y53611D01*
X45840Y53565D01*
X45817Y53500D01*
X45794Y53436D01*
X45758Y53366D01*
X45682Y53208D01*
X45577Y53050D01*
X45460Y52898D01*
X45390Y52828D01*
X45314Y52763D01*
X45308Y52757D01*
X45296Y52751D01*
X45273Y52734D01*
X45238Y52711D01*
X45197Y52687D01*
X45150Y52658D01*
X45097Y52629D01*
X45033Y52600D01*
X44963Y52570D01*
X44887Y52541D01*
X44799Y52512D01*
X44711Y52488D01*
X44518Y52447D01*
X44413Y52442D01*
X44302Y52436D01*
X44243D01*
X44197Y52442D01*
X44144D01*
X44085Y52447D01*
X44015Y52459D01*
X43945Y52465D01*
X43781Y52500D01*
X43611Y52541D01*
X43448Y52605D01*
X43366Y52640D01*
X43290Y52687D01*
X43284Y52693D01*
X43272Y52699D01*
X43255Y52716D01*
X43225Y52734D01*
X43155Y52793D01*
X43073Y52874D01*
X42974Y52974D01*
X42880Y53102D01*
X42781Y53249D01*
X42699Y53418D01*
Y53424D01*
X42693Y53442D01*
X42681Y53465D01*
X42670Y53500D01*
X42652Y53547D01*
X42635Y53600D01*
X42617Y53658D01*
X42599Y53728D01*
X42582Y53799D01*
X42564Y53881D01*
X42529Y54056D01*
X42506Y54243D01*
X42500Y54448D01*
Y54454D01*
Y54477D01*
Y54507D01*
X42506Y54548D01*
Y54600D01*
X42512Y54664D01*
X42518Y54729D01*
X42529Y54805D01*
X42559Y54969D01*
X42594Y55144D01*
X42652Y55326D01*
X42728Y55495D01*
Y55501D01*
X42740Y55513D01*
X42752Y55536D01*
X42769Y55571D01*
X42792Y55606D01*
X42822Y55647D01*
X42898Y55747D01*
X42986Y55858D01*
X43097Y55969D01*
X43231Y56080D01*
X43378Y56174D01*
X43383D01*
X43395Y56186D01*
X43418Y56197D01*
X43454Y56209D01*
X43489Y56226D01*
X43535Y56250D01*
X43594Y56267D01*
X43652Y56291D01*
X43717Y56314D01*
X43787Y56332D01*
X43945Y56373D01*
X44120Y56396D01*
X44308Y56408D01*
X44366D01*
X44407Y56402D01*
D02*
G37*
G36*
X47689Y56355D02*
X47736Y56349D01*
X47788Y56343D01*
X47847Y56338D01*
X47911Y56320D01*
X48052Y56285D01*
X48198Y56232D01*
X48274Y56197D01*
X48344Y56156D01*
X48408Y56104D01*
X48473Y56051D01*
X48479Y56045D01*
X48485Y56039D01*
X48502Y56022D01*
X48526Y55998D01*
X48549Y55963D01*
X48578Y55928D01*
X48637Y55840D01*
X48695Y55729D01*
X48748Y55601D01*
X48789Y55454D01*
X48795Y55372D01*
X48801Y55290D01*
Y55279D01*
Y55250D01*
X48795Y55203D01*
X48789Y55144D01*
X48777Y55074D01*
X48759Y54998D01*
X48736Y54916D01*
X48701Y54834D01*
X48695Y54822D01*
X48683Y54793D01*
X48660Y54752D01*
X48625Y54694D01*
X48584Y54624D01*
X48531Y54542D01*
X48461Y54460D01*
X48385Y54366D01*
X48373Y54354D01*
X48344Y54319D01*
X48292Y54267D01*
X48256Y54232D01*
X48215Y54191D01*
X48169Y54144D01*
X48110Y54091D01*
X48052Y54039D01*
X47987Y53974D01*
X47917Y53910D01*
X47835Y53840D01*
X47753Y53769D01*
X47660Y53688D01*
X47654Y53682D01*
X47642Y53670D01*
X47619Y53652D01*
X47589Y53629D01*
X47519Y53571D01*
X47431Y53495D01*
X47344Y53413D01*
X47250Y53331D01*
X47174Y53260D01*
X47145Y53231D01*
X47116Y53202D01*
X47110Y53196D01*
X47098Y53179D01*
X47075Y53155D01*
X47045Y53120D01*
X46981Y53044D01*
X46917Y52951D01*
X48806D01*
Y52500D01*
X46262D01*
Y52506D01*
Y52529D01*
Y52564D01*
X46267Y52605D01*
X46273Y52652D01*
X46279Y52705D01*
X46297Y52763D01*
X46314Y52822D01*
Y52828D01*
X46320Y52833D01*
X46332Y52869D01*
X46355Y52915D01*
X46390Y52986D01*
X46431Y53062D01*
X46490Y53149D01*
X46548Y53237D01*
X46624Y53331D01*
Y53337D01*
X46636Y53342D01*
X46665Y53377D01*
X46712Y53430D01*
X46782Y53500D01*
X46870Y53582D01*
X46975Y53682D01*
X47104Y53793D01*
X47244Y53916D01*
X47250Y53922D01*
X47274Y53939D01*
X47303Y53962D01*
X47344Y54003D01*
X47396Y54044D01*
X47455Y54097D01*
X47584Y54208D01*
X47724Y54343D01*
X47864Y54477D01*
X47935Y54542D01*
X47993Y54606D01*
X48046Y54670D01*
X48093Y54729D01*
Y54735D01*
X48104Y54741D01*
X48116Y54758D01*
X48128Y54782D01*
X48163Y54840D01*
X48204Y54916D01*
X48245Y55004D01*
X48280Y55097D01*
X48303Y55203D01*
X48315Y55302D01*
Y55308D01*
Y55314D01*
X48309Y55349D01*
X48303Y55402D01*
X48292Y55466D01*
X48262Y55542D01*
X48227Y55618D01*
X48180Y55700D01*
X48110Y55776D01*
X48098Y55782D01*
X48075Y55805D01*
X48028Y55835D01*
X47970Y55875D01*
X47894Y55911D01*
X47806Y55940D01*
X47701Y55963D01*
X47584Y55969D01*
X47549D01*
X47525Y55963D01*
X47467Y55957D01*
X47391Y55946D01*
X47303Y55916D01*
X47209Y55881D01*
X47122Y55829D01*
X47040Y55759D01*
X47034Y55747D01*
X47010Y55723D01*
X46975Y55677D01*
X46940Y55612D01*
X46899Y55530D01*
X46870Y55437D01*
X46847Y55326D01*
X46835Y55197D01*
X46349Y55250D01*
Y55255D01*
Y55273D01*
X46355Y55302D01*
X46361Y55337D01*
X46373Y55384D01*
X46379Y55437D01*
X46414Y55554D01*
X46460Y55688D01*
X46525Y55823D01*
X46613Y55957D01*
X46659Y56016D01*
X46718Y56074D01*
X46724Y56080D01*
X46735Y56086D01*
X46753Y56104D01*
X46776Y56121D01*
X46812Y56139D01*
X46852Y56168D01*
X46899Y56191D01*
X46952Y56221D01*
X47010Y56244D01*
X47075Y56273D01*
X47151Y56297D01*
X47227Y56314D01*
X47402Y56349D01*
X47496Y56355D01*
X47595Y56361D01*
X47648D01*
X47689Y56355D01*
D02*
G37*
G36*
X44407Y33902D02*
X44454Y33896D01*
X44512Y33890D01*
X44577Y33884D01*
X44647Y33873D01*
X44799Y33838D01*
X44963Y33785D01*
X45045Y33750D01*
X45127Y33709D01*
X45203Y33662D01*
X45279Y33609D01*
X45285Y33604D01*
X45296Y33598D01*
X45314Y33580D01*
X45343Y33557D01*
X45372Y33528D01*
X45413Y33487D01*
X45454Y33446D01*
X45495Y33399D01*
X45542Y33340D01*
X45583Y33282D01*
X45630Y33212D01*
X45676Y33136D01*
X45717Y33060D01*
X45758Y32972D01*
X45829Y32785D01*
X45325Y32668D01*
Y32673D01*
X45320Y32685D01*
X45314Y32709D01*
X45302Y32738D01*
X45285Y32773D01*
X45267Y32814D01*
X45226Y32902D01*
X45173Y33001D01*
X45103Y33106D01*
X45027Y33200D01*
X44934Y33282D01*
X44922Y33288D01*
X44887Y33311D01*
X44834Y33340D01*
X44758Y33381D01*
X44670Y33416D01*
X44559Y33446D01*
X44436Y33469D01*
X44296Y33475D01*
X44255D01*
X44226Y33469D01*
X44185D01*
X44144Y33463D01*
X44039Y33446D01*
X43922Y33422D01*
X43799Y33381D01*
X43676Y33329D01*
X43559Y33258D01*
X43553D01*
X43547Y33247D01*
X43512Y33217D01*
X43459Y33171D01*
X43395Y33106D01*
X43331Y33024D01*
X43260Y32931D01*
X43196Y32814D01*
X43143Y32685D01*
Y32679D01*
X43138Y32668D01*
X43132Y32650D01*
X43126Y32621D01*
X43114Y32592D01*
X43108Y32551D01*
X43085Y32457D01*
X43062Y32346D01*
X43044Y32223D01*
X43032Y32089D01*
X43027Y31948D01*
Y31942D01*
Y31925D01*
Y31901D01*
Y31866D01*
X43032Y31825D01*
Y31773D01*
X43038Y31720D01*
X43044Y31661D01*
X43062Y31527D01*
X43085Y31381D01*
X43120Y31234D01*
X43167Y31094D01*
Y31088D01*
X43173Y31076D01*
X43184Y31059D01*
X43196Y31035D01*
X43225Y30965D01*
X43272Y30889D01*
X43336Y30796D01*
X43413Y30708D01*
X43500Y30620D01*
X43606Y30544D01*
X43611D01*
X43617Y30538D01*
X43635Y30527D01*
X43658Y30515D01*
X43723Y30491D01*
X43805Y30456D01*
X43898Y30427D01*
X44009Y30398D01*
X44132Y30374D01*
X44261Y30369D01*
X44302D01*
X44331Y30374D01*
X44366D01*
X44413Y30380D01*
X44512Y30398D01*
X44624Y30427D01*
X44746Y30474D01*
X44863Y30532D01*
X44980Y30614D01*
X44986Y30620D01*
X44992Y30626D01*
X45027Y30661D01*
X45080Y30720D01*
X45144Y30796D01*
X45209Y30901D01*
X45279Y31024D01*
X45337Y31176D01*
X45384Y31345D01*
X45893Y31217D01*
Y31211D01*
X45887Y31187D01*
X45875Y31158D01*
X45864Y31111D01*
X45840Y31065D01*
X45817Y31000D01*
X45794Y30936D01*
X45758Y30866D01*
X45682Y30708D01*
X45577Y30550D01*
X45460Y30398D01*
X45390Y30328D01*
X45314Y30263D01*
X45308Y30257D01*
X45296Y30252D01*
X45273Y30234D01*
X45238Y30211D01*
X45197Y30187D01*
X45150Y30158D01*
X45097Y30129D01*
X45033Y30099D01*
X44963Y30070D01*
X44887Y30041D01*
X44799Y30012D01*
X44711Y29988D01*
X44518Y29947D01*
X44413Y29941D01*
X44302Y29936D01*
X44243D01*
X44197Y29941D01*
X44144D01*
X44085Y29947D01*
X44015Y29959D01*
X43945Y29965D01*
X43781Y30000D01*
X43611Y30041D01*
X43448Y30105D01*
X43366Y30140D01*
X43290Y30187D01*
X43284Y30193D01*
X43272Y30199D01*
X43255Y30216D01*
X43225Y30234D01*
X43155Y30292D01*
X43073Y30374D01*
X42974Y30474D01*
X42880Y30603D01*
X42781Y30749D01*
X42699Y30918D01*
Y30924D01*
X42693Y30942D01*
X42681Y30965D01*
X42670Y31000D01*
X42652Y31047D01*
X42635Y31100D01*
X42617Y31158D01*
X42599Y31229D01*
X42582Y31299D01*
X42564Y31381D01*
X42529Y31556D01*
X42506Y31743D01*
X42500Y31948D01*
Y31954D01*
Y31977D01*
Y32006D01*
X42506Y32048D01*
Y32100D01*
X42512Y32164D01*
X42518Y32229D01*
X42529Y32305D01*
X42559Y32469D01*
X42594Y32644D01*
X42652Y32825D01*
X42728Y32995D01*
Y33001D01*
X42740Y33013D01*
X42752Y33036D01*
X42769Y33071D01*
X42792Y33106D01*
X42822Y33147D01*
X42898Y33247D01*
X42986Y33358D01*
X43097Y33469D01*
X43231Y33580D01*
X43378Y33674D01*
X43383D01*
X43395Y33685D01*
X43418Y33697D01*
X43454Y33709D01*
X43489Y33726D01*
X43535Y33750D01*
X43594Y33767D01*
X43652Y33791D01*
X43717Y33814D01*
X43787Y33832D01*
X43945Y33873D01*
X44120Y33896D01*
X44308Y33908D01*
X44366D01*
X44407Y33902D01*
D02*
G37*
G36*
X48104Y30000D02*
X47631D01*
Y33007D01*
X47625Y33001D01*
X47601Y32978D01*
X47560Y32948D01*
X47508Y32908D01*
X47443Y32855D01*
X47367Y32802D01*
X47280Y32738D01*
X47180Y32679D01*
X47174D01*
X47168Y32673D01*
X47133Y32650D01*
X47080Y32621D01*
X47016Y32586D01*
X46940Y32545D01*
X46858Y32510D01*
X46771Y32469D01*
X46689Y32434D01*
Y32896D01*
X46694D01*
X46706Y32902D01*
X46730Y32913D01*
X46753Y32931D01*
X46788Y32948D01*
X46829Y32966D01*
X46923Y33019D01*
X47028Y33083D01*
X47145Y33159D01*
X47262Y33247D01*
X47373Y33340D01*
X47379Y33346D01*
X47385Y33352D01*
X47420Y33387D01*
X47473Y33440D01*
X47537Y33504D01*
X47607Y33586D01*
X47677Y33674D01*
X47742Y33767D01*
X47794Y33861D01*
X48104D01*
Y30000D01*
D02*
G37*
G36*
X225000Y184967D02*
X221993D01*
X221999Y184961D01*
X222022Y184937D01*
X222052Y184897D01*
X222093Y184844D01*
X222145Y184779D01*
X222198Y184703D01*
X222262Y184616D01*
X222321Y184516D01*
Y184510D01*
X222326Y184504D01*
X222350Y184469D01*
X222379Y184417D01*
X222414Y184352D01*
X222455Y184276D01*
X222490Y184195D01*
X222531Y184107D01*
X222566Y184025D01*
X222104D01*
Y184031D01*
X222098Y184042D01*
X222087Y184066D01*
X222069Y184089D01*
X222052Y184124D01*
X222034Y184165D01*
X221981Y184259D01*
X221917Y184364D01*
X221841Y184481D01*
X221753Y184598D01*
X221660Y184709D01*
X221654Y184715D01*
X221648Y184721D01*
X221613Y184756D01*
X221560Y184809D01*
X221496Y184873D01*
X221414Y184943D01*
X221326Y185013D01*
X221233Y185078D01*
X221139Y185130D01*
Y185441D01*
X225000D01*
Y184967D01*
D02*
G37*
G36*
Y77498D02*
X223186D01*
Y75509D01*
X225000D01*
Y75000D01*
X221157D01*
Y75509D01*
X222736D01*
Y77498D01*
X221157D01*
Y78007D01*
X225000D01*
Y77498D01*
D02*
G37*
G36*
X208007Y150000D02*
X207498D01*
Y151813D01*
X205509D01*
Y150000D01*
X205000D01*
Y153843D01*
X205509D01*
Y152264D01*
X207498D01*
Y153843D01*
X208007D01*
Y150000D01*
D02*
G37*
G36*
X225000Y182498D02*
X223186D01*
Y180509D01*
X225000D01*
Y180000D01*
X221157D01*
Y180509D01*
X222736D01*
Y182498D01*
X221157D01*
Y183007D01*
X225000D01*
Y182498D01*
D02*
G37*
G36*
Y78598D02*
X224936D01*
X224895Y78604D01*
X224848Y78610D01*
X224795Y78615D01*
X224737Y78633D01*
X224678Y78650D01*
X224672D01*
X224667Y78656D01*
X224631Y78668D01*
X224585Y78691D01*
X224514Y78726D01*
X224438Y78767D01*
X224351Y78826D01*
X224263Y78884D01*
X224169Y78961D01*
X224164D01*
X224158Y78972D01*
X224123Y79001D01*
X224070Y79048D01*
X224000Y79118D01*
X223918Y79206D01*
X223818Y79312D01*
X223707Y79440D01*
X223584Y79581D01*
X223579Y79586D01*
X223561Y79610D01*
X223537Y79639D01*
X223497Y79680D01*
X223456Y79733D01*
X223403Y79791D01*
X223292Y79920D01*
X223157Y80060D01*
X223023Y80201D01*
X222958Y80271D01*
X222894Y80329D01*
X222830Y80382D01*
X222771Y80429D01*
X222765D01*
X222760Y80440D01*
X222742Y80452D01*
X222719Y80464D01*
X222660Y80499D01*
X222584Y80540D01*
X222496Y80581D01*
X222403Y80616D01*
X222297Y80639D01*
X222198Y80651D01*
X222186D01*
X222151Y80645D01*
X222098Y80639D01*
X222034Y80628D01*
X221958Y80598D01*
X221882Y80563D01*
X221800Y80516D01*
X221724Y80446D01*
X221718Y80435D01*
X221695Y80411D01*
X221666Y80364D01*
X221624Y80306D01*
X221589Y80230D01*
X221560Y80142D01*
X221537Y80037D01*
X221531Y79920D01*
Y79914D01*
Y79902D01*
Y79885D01*
X221537Y79861D01*
X221543Y79803D01*
X221554Y79727D01*
X221584Y79639D01*
X221619Y79545D01*
X221671Y79458D01*
X221742Y79376D01*
X221753Y79370D01*
X221777Y79347D01*
X221824Y79312D01*
X221888Y79276D01*
X221970Y79235D01*
X222063Y79206D01*
X222174Y79183D01*
X222303Y79171D01*
X222251Y78685D01*
X222227D01*
X222198Y78691D01*
X222163Y78697D01*
X222116Y78709D01*
X222063Y78715D01*
X221946Y78750D01*
X221812Y78797D01*
X221677Y78861D01*
X221543Y78949D01*
X221484Y78996D01*
X221426Y79054D01*
X221420Y79060D01*
X221414Y79072D01*
X221396Y79089D01*
X221379Y79112D01*
X221361Y79148D01*
X221332Y79189D01*
X221309Y79235D01*
X221279Y79288D01*
X221256Y79347D01*
X221227Y79411D01*
X221203Y79487D01*
X221186Y79563D01*
X221151Y79738D01*
X221145Y79832D01*
X221139Y79932D01*
Y79937D01*
Y79955D01*
Y79984D01*
X221145Y80025D01*
X221151Y80072D01*
X221157Y80125D01*
X221162Y80183D01*
X221180Y80247D01*
X221215Y80388D01*
X221268Y80534D01*
X221303Y80610D01*
X221344Y80680D01*
X221396Y80745D01*
X221449Y80809D01*
X221455Y80815D01*
X221461Y80821D01*
X221478Y80838D01*
X221502Y80862D01*
X221537Y80885D01*
X221572Y80914D01*
X221660Y80973D01*
X221771Y81031D01*
X221900Y81084D01*
X222046Y81125D01*
X222128Y81131D01*
X222210Y81137D01*
X222251D01*
X222297Y81131D01*
X222356Y81125D01*
X222426Y81113D01*
X222502Y81096D01*
X222584Y81072D01*
X222666Y81037D01*
X222678Y81031D01*
X222707Y81020D01*
X222748Y80996D01*
X222806Y80961D01*
X222877Y80920D01*
X222958Y80868D01*
X223040Y80797D01*
X223134Y80721D01*
X223146Y80710D01*
X223181Y80680D01*
X223233Y80628D01*
X223268Y80593D01*
X223309Y80552D01*
X223356Y80505D01*
X223409Y80446D01*
X223462Y80388D01*
X223526Y80323D01*
X223590Y80253D01*
X223660Y80171D01*
X223730Y80089D01*
X223812Y79996D01*
X223818Y79990D01*
X223830Y79978D01*
X223848Y79955D01*
X223871Y79926D01*
X223929Y79856D01*
X224006Y79768D01*
X224087Y79680D01*
X224169Y79586D01*
X224239Y79510D01*
X224269Y79481D01*
X224298Y79452D01*
X224304Y79446D01*
X224321Y79434D01*
X224345Y79411D01*
X224380Y79382D01*
X224456Y79317D01*
X224550Y79253D01*
Y81142D01*
X225000D01*
Y78598D01*
D02*
G37*
G36*
X79036Y111893D02*
X77773D01*
Y108500D01*
X77264D01*
Y111893D01*
X76000D01*
Y112344D01*
X79036D01*
Y111893D01*
D02*
G37*
G36*
X110558Y220455D02*
X110635Y220443D01*
X110722Y220426D01*
X110822Y220403D01*
X110921Y220367D01*
X111021Y220321D01*
X111027D01*
X111032Y220315D01*
X111067Y220297D01*
X111114Y220268D01*
X111173Y220227D01*
X111237Y220174D01*
X111307Y220110D01*
X111372Y220034D01*
X111430Y219952D01*
X111436Y219940D01*
X111454Y219911D01*
X111477Y219864D01*
X111500Y219806D01*
X111524Y219730D01*
X111547Y219648D01*
X111565Y219560D01*
X111571Y219461D01*
Y219449D01*
Y219420D01*
X111565Y219373D01*
X111553Y219314D01*
X111536Y219244D01*
X111512Y219168D01*
X111483Y219086D01*
X111436Y219010D01*
X111430Y218999D01*
X111413Y218975D01*
X111378Y218940D01*
X111337Y218893D01*
X111278Y218841D01*
X111214Y218788D01*
X111132Y218729D01*
X111038Y218683D01*
X111044D01*
X111056Y218677D01*
X111073D01*
X111097Y218665D01*
X111155Y218648D01*
X111231Y218612D01*
X111313Y218571D01*
X111401Y218513D01*
X111489Y218443D01*
X111565Y218355D01*
X111571Y218343D01*
X111594Y218308D01*
X111623Y218255D01*
X111664Y218185D01*
X111699Y218098D01*
X111729Y217992D01*
X111752Y217869D01*
X111758Y217735D01*
Y217729D01*
Y217711D01*
Y217688D01*
X111752Y217653D01*
X111746Y217606D01*
X111740Y217559D01*
X111729Y217501D01*
X111711Y217442D01*
X111670Y217308D01*
X111641Y217232D01*
X111600Y217162D01*
X111559Y217091D01*
X111512Y217021D01*
X111454Y216951D01*
X111389Y216881D01*
X111383Y216875D01*
X111372Y216863D01*
X111354Y216851D01*
X111325Y216828D01*
X111290Y216799D01*
X111243Y216770D01*
X111190Y216740D01*
X111138Y216711D01*
X111073Y216676D01*
X111003Y216647D01*
X110927Y216617D01*
X110845Y216588D01*
X110757Y216565D01*
X110664Y216553D01*
X110564Y216542D01*
X110465Y216536D01*
X110418D01*
X110383Y216542D01*
X110336Y216547D01*
X110290Y216553D01*
X110231Y216559D01*
X110172Y216571D01*
X110038Y216606D01*
X109897Y216664D01*
X109827Y216694D01*
X109763Y216735D01*
X109693Y216781D01*
X109628Y216834D01*
X109623Y216840D01*
X109617Y216846D01*
X109599Y216863D01*
X109576Y216887D01*
X109552Y216922D01*
X109523Y216957D01*
X109488Y216998D01*
X109459Y217045D01*
X109389Y217162D01*
X109330Y217296D01*
X109277Y217448D01*
X109260Y217530D01*
X109248Y217618D01*
X109722Y217682D01*
Y217676D01*
X109728Y217665D01*
Y217641D01*
X109740Y217618D01*
X109757Y217548D01*
X109786Y217460D01*
X109821Y217366D01*
X109868Y217267D01*
X109927Y217179D01*
X109991Y217103D01*
X110003Y217097D01*
X110026Y217074D01*
X110067Y217051D01*
X110126Y217015D01*
X110190Y216986D01*
X110272Y216957D01*
X110365Y216933D01*
X110465Y216928D01*
X110500D01*
X110523Y216933D01*
X110582Y216939D01*
X110658Y216957D01*
X110752Y216986D01*
X110845Y217021D01*
X110939Y217080D01*
X111027Y217156D01*
X111038Y217167D01*
X111062Y217197D01*
X111097Y217244D01*
X111144Y217314D01*
X111185Y217396D01*
X111220Y217495D01*
X111243Y217606D01*
X111255Y217729D01*
Y217735D01*
Y217741D01*
Y217758D01*
X111249Y217782D01*
X111243Y217840D01*
X111225Y217916D01*
X111202Y217998D01*
X111161Y218092D01*
X111108Y218179D01*
X111038Y218261D01*
X111027Y218273D01*
X111003Y218297D01*
X110956Y218326D01*
X110892Y218367D01*
X110816Y218408D01*
X110722Y218437D01*
X110623Y218460D01*
X110506Y218472D01*
X110453D01*
X110412Y218466D01*
X110365Y218460D01*
X110307Y218454D01*
X110243Y218443D01*
X110172Y218425D01*
X110225Y218841D01*
X110254D01*
X110278Y218835D01*
X110354D01*
X110406Y218841D01*
X110483Y218852D01*
X110564Y218870D01*
X110652Y218899D01*
X110746Y218934D01*
X110839Y218987D01*
X110851Y218993D01*
X110880Y219016D01*
X110915Y219057D01*
X110962Y219110D01*
X111009Y219174D01*
X111044Y219256D01*
X111073Y219355D01*
X111085Y219472D01*
Y219478D01*
Y219484D01*
Y219513D01*
X111073Y219560D01*
X111062Y219624D01*
X111044Y219689D01*
X111009Y219759D01*
X110968Y219835D01*
X110909Y219899D01*
X110904Y219905D01*
X110880Y219929D01*
X110839Y219958D01*
X110787Y219987D01*
X110722Y220022D01*
X110646Y220046D01*
X110558Y220069D01*
X110459Y220075D01*
X110412D01*
X110360Y220063D01*
X110301Y220052D01*
X110225Y220034D01*
X110149Y219999D01*
X110073Y219958D01*
X109997Y219899D01*
X109991Y219894D01*
X109968Y219870D01*
X109938Y219829D01*
X109903Y219771D01*
X109862Y219701D01*
X109827Y219613D01*
X109792Y219508D01*
X109769Y219385D01*
X109295Y219466D01*
Y219472D01*
X109301Y219490D01*
X109307Y219513D01*
X109312Y219543D01*
X109324Y219584D01*
X109336Y219630D01*
X109377Y219736D01*
X109424Y219853D01*
X109494Y219975D01*
X109576Y220093D01*
X109681Y220198D01*
X109687Y220204D01*
X109693Y220210D01*
X109710Y220221D01*
X109740Y220239D01*
X109769Y220256D01*
X109804Y220280D01*
X109892Y220332D01*
X110003Y220379D01*
X110137Y220420D01*
X110284Y220449D01*
X110365Y220461D01*
X110500D01*
X110558Y220455D01*
D02*
G37*
G36*
X84605Y112355D02*
X84652Y112349D01*
X84705Y112344D01*
X84763Y112338D01*
X84828Y112320D01*
X84968Y112285D01*
X85114Y112232D01*
X85190Y112197D01*
X85261Y112156D01*
X85325Y112104D01*
X85389Y112051D01*
X85395Y112045D01*
X85401Y112039D01*
X85418Y112022D01*
X85442Y111998D01*
X85465Y111963D01*
X85495Y111928D01*
X85553Y111840D01*
X85611Y111729D01*
X85664Y111600D01*
X85705Y111454D01*
X85711Y111372D01*
X85717Y111291D01*
Y111279D01*
Y111249D01*
X85711Y111203D01*
X85705Y111144D01*
X85693Y111074D01*
X85676Y110998D01*
X85653Y110916D01*
X85617Y110834D01*
X85611Y110822D01*
X85600Y110793D01*
X85576Y110752D01*
X85541Y110694D01*
X85500Y110624D01*
X85448Y110542D01*
X85378Y110460D01*
X85302Y110366D01*
X85290Y110354D01*
X85261Y110319D01*
X85208Y110267D01*
X85173Y110232D01*
X85132Y110191D01*
X85085Y110144D01*
X85027Y110091D01*
X84968Y110039D01*
X84904Y109974D01*
X84834Y109910D01*
X84752Y109840D01*
X84670Y109769D01*
X84576Y109688D01*
X84570Y109682D01*
X84559Y109670D01*
X84535Y109652D01*
X84506Y109629D01*
X84436Y109571D01*
X84348Y109494D01*
X84260Y109413D01*
X84167Y109331D01*
X84091Y109260D01*
X84061Y109231D01*
X84032Y109202D01*
X84026Y109196D01*
X84014Y109179D01*
X83991Y109155D01*
X83962Y109120D01*
X83898Y109044D01*
X83833Y108950D01*
X85723D01*
Y108500D01*
X83178D01*
Y108506D01*
Y108529D01*
Y108564D01*
X83184Y108605D01*
X83190Y108652D01*
X83196Y108705D01*
X83213Y108763D01*
X83231Y108822D01*
Y108828D01*
X83236Y108833D01*
X83248Y108869D01*
X83272Y108915D01*
X83307Y108985D01*
X83348Y109062D01*
X83406Y109149D01*
X83465Y109237D01*
X83541Y109331D01*
Y109337D01*
X83552Y109342D01*
X83582Y109378D01*
X83628Y109430D01*
X83699Y109500D01*
X83786Y109582D01*
X83892Y109682D01*
X84020Y109793D01*
X84161Y109916D01*
X84167Y109922D01*
X84190Y109939D01*
X84219Y109962D01*
X84260Y110003D01*
X84313Y110044D01*
X84371Y110097D01*
X84500Y110208D01*
X84640Y110343D01*
X84781Y110477D01*
X84851Y110542D01*
X84910Y110606D01*
X84962Y110670D01*
X85009Y110729D01*
Y110735D01*
X85021Y110741D01*
X85032Y110758D01*
X85044Y110782D01*
X85079Y110840D01*
X85120Y110916D01*
X85161Y111004D01*
X85196Y111097D01*
X85220Y111203D01*
X85231Y111302D01*
Y111308D01*
Y111314D01*
X85225Y111349D01*
X85220Y111402D01*
X85208Y111466D01*
X85179Y111542D01*
X85144Y111618D01*
X85097Y111700D01*
X85027Y111776D01*
X85015Y111782D01*
X84991Y111805D01*
X84945Y111835D01*
X84886Y111875D01*
X84810Y111910D01*
X84722Y111940D01*
X84617Y111963D01*
X84500Y111969D01*
X84465D01*
X84442Y111963D01*
X84383Y111957D01*
X84307Y111946D01*
X84219Y111916D01*
X84126Y111881D01*
X84038Y111829D01*
X83956Y111758D01*
X83950Y111747D01*
X83927Y111723D01*
X83892Y111677D01*
X83857Y111612D01*
X83816Y111530D01*
X83786Y111437D01*
X83763Y111326D01*
X83751Y111197D01*
X83266Y111249D01*
Y111255D01*
Y111273D01*
X83272Y111302D01*
X83277Y111337D01*
X83289Y111384D01*
X83295Y111437D01*
X83330Y111554D01*
X83377Y111688D01*
X83441Y111823D01*
X83529Y111957D01*
X83576Y112016D01*
X83634Y112074D01*
X83640Y112080D01*
X83652Y112086D01*
X83669Y112104D01*
X83693Y112121D01*
X83728Y112139D01*
X83769Y112168D01*
X83816Y112191D01*
X83868Y112221D01*
X83927Y112244D01*
X83991Y112273D01*
X84067Y112297D01*
X84143Y112314D01*
X84319Y112349D01*
X84412Y112355D01*
X84512Y112361D01*
X84564D01*
X84605Y112355D01*
D02*
G37*
G36*
X81400Y112338D02*
X81446D01*
X81563Y112332D01*
X81686Y112320D01*
X81815Y112297D01*
X81938Y112273D01*
X81996Y112256D01*
X82049Y112238D01*
X82055D01*
X82061Y112232D01*
X82096Y112221D01*
X82143Y112191D01*
X82201Y112150D01*
X82271Y112104D01*
X82341Y112039D01*
X82412Y111963D01*
X82476Y111870D01*
X82482Y111858D01*
X82499Y111823D01*
X82529Y111770D01*
X82558Y111700D01*
X82587Y111612D01*
X82616Y111513D01*
X82634Y111407D01*
X82640Y111291D01*
Y111285D01*
Y111273D01*
Y111249D01*
X82634Y111220D01*
Y111185D01*
X82628Y111144D01*
X82605Y111051D01*
X82575Y110940D01*
X82529Y110828D01*
X82458Y110711D01*
X82417Y110653D01*
X82371Y110600D01*
X82359Y110588D01*
X82341Y110577D01*
X82324Y110553D01*
X82295Y110536D01*
X82260Y110506D01*
X82219Y110483D01*
X82172Y110454D01*
X82119Y110425D01*
X82055Y110395D01*
X81990Y110366D01*
X81914Y110337D01*
X81838Y110308D01*
X81751Y110284D01*
X81657Y110267D01*
X81558Y110249D01*
X81569Y110243D01*
X81593Y110232D01*
X81628Y110214D01*
X81669Y110191D01*
X81768Y110126D01*
X81821Y110091D01*
X81862Y110056D01*
X81873Y110044D01*
X81903Y110021D01*
X81944Y109974D01*
X81996Y109916D01*
X82061Y109840D01*
X82131Y109752D01*
X82207Y109652D01*
X82283Y109541D01*
X82950Y108500D01*
X82312D01*
X81803Y109296D01*
Y109301D01*
X81792Y109313D01*
X81780Y109331D01*
X81768Y109354D01*
X81727Y109413D01*
X81674Y109489D01*
X81616Y109576D01*
X81552Y109664D01*
X81493Y109746D01*
X81435Y109822D01*
X81429Y109828D01*
X81411Y109851D01*
X81382Y109886D01*
X81353Y109927D01*
X81265Y110009D01*
X81224Y110050D01*
X81177Y110080D01*
X81171Y110085D01*
X81160Y110091D01*
X81136Y110103D01*
X81107Y110120D01*
X81037Y110155D01*
X80949Y110185D01*
X80943D01*
X80932Y110191D01*
X80908D01*
X80879Y110196D01*
X80838Y110202D01*
X80791D01*
X80733Y110208D01*
X80077D01*
Y108500D01*
X79568D01*
Y112344D01*
X81353D01*
X81400Y112338D01*
D02*
G37*
G36*
X107399Y220438D02*
X107446D01*
X107563Y220432D01*
X107686Y220420D01*
X107815Y220397D01*
X107938Y220373D01*
X107996Y220356D01*
X108049Y220338D01*
X108055D01*
X108061Y220332D01*
X108096Y220321D01*
X108142Y220291D01*
X108201Y220250D01*
X108271Y220204D01*
X108341Y220139D01*
X108412Y220063D01*
X108476Y219970D01*
X108482Y219958D01*
X108499Y219923D01*
X108529Y219870D01*
X108558Y219800D01*
X108587Y219712D01*
X108616Y219613D01*
X108634Y219508D01*
X108640Y219391D01*
Y219385D01*
Y219373D01*
Y219350D01*
X108634Y219320D01*
Y219285D01*
X108628Y219244D01*
X108605Y219151D01*
X108575Y219039D01*
X108529Y218928D01*
X108458Y218811D01*
X108417Y218753D01*
X108371Y218700D01*
X108359Y218689D01*
X108341Y218677D01*
X108324Y218653D01*
X108295Y218636D01*
X108259Y218607D01*
X108219Y218583D01*
X108172Y218554D01*
X108119Y218525D01*
X108055Y218495D01*
X107990Y218466D01*
X107914Y218437D01*
X107838Y218408D01*
X107750Y218384D01*
X107657Y218367D01*
X107557Y218349D01*
X107569Y218343D01*
X107593Y218332D01*
X107628Y218314D01*
X107669Y218291D01*
X107768Y218226D01*
X107821Y218191D01*
X107862Y218156D01*
X107873Y218144D01*
X107903Y218121D01*
X107944Y218074D01*
X107996Y218016D01*
X108061Y217940D01*
X108131Y217852D01*
X108207Y217752D01*
X108283Y217641D01*
X108950Y216600D01*
X108312D01*
X107803Y217396D01*
Y217402D01*
X107791Y217413D01*
X107780Y217431D01*
X107768Y217454D01*
X107727Y217513D01*
X107675Y217589D01*
X107616Y217676D01*
X107552Y217764D01*
X107493Y217846D01*
X107435Y217922D01*
X107429Y217928D01*
X107411Y217951D01*
X107382Y217986D01*
X107353Y218027D01*
X107265Y218109D01*
X107224Y218150D01*
X107177Y218179D01*
X107171Y218185D01*
X107160Y218191D01*
X107136Y218203D01*
X107107Y218220D01*
X107037Y218255D01*
X106949Y218285D01*
X106943D01*
X106931Y218291D01*
X106908D01*
X106879Y218297D01*
X106838Y218302D01*
X106791D01*
X106733Y218308D01*
X106077D01*
Y216600D01*
X105569D01*
Y220443D01*
X107353D01*
X107399Y220438D01*
D02*
G37*
G36*
X44805Y178697D02*
X44781Y178668D01*
X44746Y178633D01*
X44699Y178580D01*
X44641Y178522D01*
X44576Y178452D01*
X44506Y178375D01*
X44430Y178294D01*
X44418Y178282D01*
X44395Y178253D01*
X44354Y178212D01*
X44302Y178153D01*
X44237Y178089D01*
X44161Y178013D01*
X44079Y177931D01*
X43997Y177843D01*
X43986Y177831D01*
X43956Y177802D01*
X43915Y177761D01*
X43857Y177703D01*
X43787Y177632D01*
X43711Y177556D01*
X43541Y177387D01*
X43529Y177375D01*
X43506Y177346D01*
X43459Y177305D01*
X43407Y177252D01*
X43342Y177188D01*
X43272Y177118D01*
X43132Y176971D01*
X43143Y176966D01*
X43172Y176942D01*
X43219Y176907D01*
X43278Y176860D01*
X43348Y176808D01*
X43430Y176737D01*
X43518Y176661D01*
X43611Y176574D01*
X43617D01*
X43623Y176562D01*
X43658Y176533D01*
X43705Y176486D01*
X43769Y176422D01*
X43845Y176346D01*
X43933Y176264D01*
X44021Y176170D01*
X44114Y176071D01*
X44120D01*
X44126Y176059D01*
X44155Y176024D01*
X44202Y175971D01*
X44266Y175907D01*
X44337Y175825D01*
X44413Y175731D01*
X44495Y175632D01*
X44576Y175526D01*
Y175521D01*
X44588Y175515D01*
X44611Y175480D01*
X44653Y175427D01*
X44705Y175357D01*
X44758Y175275D01*
X44822Y175187D01*
X44881Y175094D01*
X44939Y175000D01*
X44331D01*
Y175006D01*
X44325Y175012D01*
X44302Y175041D01*
X44266Y175094D01*
X44225Y175158D01*
X44167Y175234D01*
X44103Y175316D01*
X44032Y175409D01*
X43956Y175503D01*
Y175509D01*
X43945Y175515D01*
X43921Y175544D01*
X43880Y175597D01*
X43828Y175661D01*
X43758Y175731D01*
X43687Y175813D01*
X43605Y175901D01*
X43518Y175989D01*
X43506Y176000D01*
X43477Y176030D01*
X43436Y176071D01*
X43371Y176129D01*
X43301Y176199D01*
X43225Y176269D01*
X43137Y176346D01*
X43050Y176422D01*
X43038Y176433D01*
X43009Y176457D01*
X42962Y176492D01*
X42903Y176539D01*
X42833Y176591D01*
X42757Y176650D01*
X42593Y176761D01*
Y175000D01*
X42073D01*
Y178703D01*
X42593D01*
Y177071D01*
X42599Y177077D01*
X42623Y177100D01*
X42663Y177135D01*
X42710Y177182D01*
X42769Y177241D01*
X42833Y177311D01*
X42909Y177381D01*
X42991Y177463D01*
X43003Y177474D01*
X43032Y177504D01*
X43073Y177545D01*
X43132Y177603D01*
X43196Y177673D01*
X43272Y177750D01*
X43430Y177913D01*
X43442Y177925D01*
X43465Y177954D01*
X43512Y177995D01*
X43564Y178054D01*
X43629Y178118D01*
X43699Y178194D01*
X43845Y178346D01*
X43851Y178358D01*
X43880Y178381D01*
X43915Y178416D01*
X43956Y178469D01*
X44009Y178522D01*
X44067Y178586D01*
X44173Y178703D01*
X44810D01*
X44805Y178697D01*
D02*
G37*
G36*
X111225Y110351D02*
X111746D01*
Y109918D01*
X111225D01*
Y109000D01*
X110752D01*
Y109918D01*
X109084D01*
Y110351D01*
X110839Y112838D01*
X111225D01*
Y110351D01*
D02*
G37*
G36*
X105036Y219993D02*
X103773D01*
Y216600D01*
X103264D01*
Y219993D01*
X102000D01*
Y220443D01*
X105036D01*
Y219993D01*
D02*
G37*
G36*
X40282Y177767D02*
X40271Y177744D01*
X40265Y177703D01*
X40247Y177644D01*
X40230Y177574D01*
X40207Y177492D01*
X40183Y177399D01*
X40154Y177293D01*
X40125Y177182D01*
X40089Y177059D01*
X40054Y176936D01*
X40014Y176808D01*
X39931Y176539D01*
X39844Y176264D01*
Y176258D01*
X39832Y176234D01*
X39820Y176193D01*
X39803Y176141D01*
X39779Y176076D01*
X39756Y176000D01*
X39727Y175918D01*
X39692Y175825D01*
X39657Y175725D01*
X39616Y175620D01*
X39534Y175392D01*
X39440Y175158D01*
X39341Y174918D01*
X39335Y174906D01*
X39323Y174877D01*
X39300Y174830D01*
X39276Y174778D01*
X39241Y174713D01*
X39200Y174643D01*
X39159Y174573D01*
X39118Y174503D01*
X39112Y174497D01*
X39101Y174474D01*
X39077Y174444D01*
X39048Y174403D01*
X39007Y174356D01*
X38966Y174310D01*
X38919Y174263D01*
X38867Y174216D01*
X38861Y174210D01*
X38844Y174199D01*
X38814Y174181D01*
X38773Y174152D01*
X38726Y174128D01*
X38674Y174099D01*
X38551Y174052D01*
X38545D01*
X38522Y174041D01*
X38487Y174035D01*
X38440Y174023D01*
X38381Y174011D01*
X38317Y174005D01*
X38241Y173994D01*
X38124D01*
X38083Y174000D01*
X38036Y174005D01*
X38025D01*
X38001Y174011D01*
X37960Y174017D01*
X37913Y174029D01*
X37902D01*
X37878Y174035D01*
X37843Y174047D01*
X37802Y174058D01*
X37796D01*
X37773Y174064D01*
X37749Y174076D01*
X37732Y174082D01*
X37820Y174479D01*
X37831Y174474D01*
X37861Y174468D01*
X37907Y174450D01*
X37972Y174433D01*
X37978D01*
X37989Y174427D01*
X38007Y174421D01*
X38030D01*
X38089Y174409D01*
X38159Y174403D01*
X38206D01*
X38258Y174409D01*
X38329Y174421D01*
X38399Y174438D01*
X38475Y174462D01*
X38551Y174491D01*
X38615Y174538D01*
X38621Y174544D01*
X38644Y174561D01*
X38674Y174596D01*
X38715Y174643D01*
X38761Y174702D01*
X38814Y174778D01*
X38867Y174865D01*
X38914Y174965D01*
X38908Y174971D01*
X38902Y174994D01*
X38884Y175029D01*
X38855Y175076D01*
X38826Y175135D01*
X38797Y175205D01*
X38756Y175287D01*
X38715Y175374D01*
X38668Y175468D01*
X38615Y175573D01*
X38563Y175684D01*
X38510Y175801D01*
X38399Y176053D01*
X38288Y176316D01*
X38282Y176322D01*
X38276Y176351D01*
X38258Y176386D01*
X38241Y176439D01*
X38212Y176503D01*
X38188Y176585D01*
X38153Y176673D01*
X38118Y176767D01*
X38083Y176878D01*
X38042Y176989D01*
X38001Y177112D01*
X37960Y177235D01*
X37884Y177504D01*
X37808Y177779D01*
X38340D01*
Y177767D01*
X38352Y177738D01*
X38364Y177685D01*
X38381Y177621D01*
X38399Y177545D01*
X38422Y177451D01*
X38451Y177357D01*
X38481Y177252D01*
Y177246D01*
X38487Y177241D01*
X38498Y177205D01*
X38510Y177153D01*
X38533Y177077D01*
X38563Y176995D01*
X38592Y176895D01*
X38627Y176796D01*
X38668Y176685D01*
Y176679D01*
X38674Y176673D01*
X38680Y176655D01*
X38686Y176632D01*
X38709Y176579D01*
X38732Y176503D01*
X38767Y176410D01*
X38802Y176310D01*
X38844Y176205D01*
X38884Y176094D01*
Y176088D01*
X38890Y176082D01*
X38896Y176065D01*
X38908Y176047D01*
X38931Y175989D01*
X38960Y175913D01*
X38996Y175831D01*
X39037Y175731D01*
X39130Y175532D01*
Y175538D01*
X39142Y175556D01*
X39148Y175591D01*
X39165Y175632D01*
X39183Y175679D01*
X39200Y175737D01*
X39224Y175807D01*
X39253Y175883D01*
X39276Y175965D01*
X39306Y176053D01*
X39364Y176240D01*
X39423Y176439D01*
X39481Y176644D01*
Y176650D01*
X39487Y176667D01*
X39499Y176697D01*
X39505Y176737D01*
X39522Y176790D01*
X39534Y176849D01*
X39557Y176919D01*
X39575Y176995D01*
X39598Y177077D01*
X39616Y177164D01*
X39668Y177357D01*
X39715Y177562D01*
X39768Y177779D01*
X40282D01*
Y177767D01*
D02*
G37*
G36*
X94920Y51355D02*
X94967Y51349D01*
X95019Y51343D01*
X95078Y51338D01*
X95142Y51320D01*
X95283Y51285D01*
X95429Y51232D01*
X95505Y51197D01*
X95575Y51156D01*
X95639Y51104D01*
X95704Y51051D01*
X95710Y51045D01*
X95715Y51039D01*
X95733Y51022D01*
X95756Y50998D01*
X95780Y50963D01*
X95809Y50928D01*
X95868Y50840D01*
X95926Y50729D01*
X95979Y50600D01*
X96020Y50454D01*
X96026Y50372D01*
X96031Y50290D01*
Y50279D01*
Y50249D01*
X96026Y50203D01*
X96020Y50144D01*
X96008Y50074D01*
X95990Y49998D01*
X95967Y49916D01*
X95932Y49834D01*
X95926Y49822D01*
X95914Y49793D01*
X95891Y49752D01*
X95856Y49694D01*
X95815Y49624D01*
X95762Y49542D01*
X95692Y49460D01*
X95616Y49366D01*
X95604Y49354D01*
X95575Y49319D01*
X95522Y49267D01*
X95487Y49232D01*
X95446Y49191D01*
X95399Y49144D01*
X95341Y49091D01*
X95283Y49038D01*
X95218Y48974D01*
X95148Y48910D01*
X95066Y48840D01*
X94984Y48770D01*
X94891Y48687D01*
X94885Y48682D01*
X94873Y48670D01*
X94850Y48652D01*
X94820Y48629D01*
X94750Y48570D01*
X94662Y48494D01*
X94575Y48413D01*
X94481Y48331D01*
X94405Y48261D01*
X94376Y48231D01*
X94347Y48202D01*
X94341Y48196D01*
X94329Y48179D01*
X94306Y48155D01*
X94276Y48120D01*
X94212Y48044D01*
X94148Y47951D01*
X96037D01*
Y47500D01*
X93492D01*
Y47506D01*
Y47529D01*
Y47564D01*
X93498Y47605D01*
X93504Y47652D01*
X93510Y47705D01*
X93528Y47763D01*
X93545Y47822D01*
Y47828D01*
X93551Y47833D01*
X93563Y47868D01*
X93586Y47915D01*
X93621Y47986D01*
X93662Y48062D01*
X93721Y48149D01*
X93779Y48237D01*
X93855Y48331D01*
Y48336D01*
X93867Y48342D01*
X93896Y48377D01*
X93943Y48430D01*
X94013Y48500D01*
X94101Y48582D01*
X94206Y48682D01*
X94335Y48793D01*
X94475Y48916D01*
X94481Y48922D01*
X94504Y48939D01*
X94534Y48963D01*
X94575Y49003D01*
X94627Y49044D01*
X94686Y49097D01*
X94814Y49208D01*
X94955Y49343D01*
X95095Y49477D01*
X95165Y49542D01*
X95224Y49606D01*
X95277Y49670D01*
X95323Y49729D01*
Y49735D01*
X95335Y49741D01*
X95347Y49758D01*
X95359Y49782D01*
X95394Y49840D01*
X95435Y49916D01*
X95476Y50004D01*
X95511Y50097D01*
X95534Y50203D01*
X95546Y50302D01*
Y50308D01*
Y50314D01*
X95540Y50349D01*
X95534Y50402D01*
X95522Y50466D01*
X95493Y50542D01*
X95458Y50618D01*
X95411Y50700D01*
X95341Y50776D01*
X95329Y50782D01*
X95306Y50805D01*
X95259Y50835D01*
X95201Y50876D01*
X95125Y50911D01*
X95037Y50940D01*
X94932Y50963D01*
X94814Y50969D01*
X94779D01*
X94756Y50963D01*
X94698Y50957D01*
X94621Y50946D01*
X94534Y50916D01*
X94440Y50881D01*
X94352Y50829D01*
X94270Y50758D01*
X94265Y50747D01*
X94241Y50723D01*
X94206Y50677D01*
X94171Y50612D01*
X94130Y50530D01*
X94101Y50437D01*
X94077Y50326D01*
X94066Y50197D01*
X93580Y50249D01*
Y50255D01*
Y50273D01*
X93586Y50302D01*
X93592Y50337D01*
X93604Y50384D01*
X93609Y50437D01*
X93645Y50554D01*
X93691Y50688D01*
X93756Y50823D01*
X93843Y50957D01*
X93890Y51016D01*
X93949Y51074D01*
X93955Y51080D01*
X93966Y51086D01*
X93984Y51104D01*
X94007Y51121D01*
X94042Y51139D01*
X94083Y51168D01*
X94130Y51191D01*
X94183Y51221D01*
X94241Y51244D01*
X94306Y51273D01*
X94382Y51297D01*
X94458Y51314D01*
X94633Y51349D01*
X94727Y51355D01*
X94826Y51361D01*
X94879D01*
X94920Y51355D01*
D02*
G37*
G36*
X47390Y175451D02*
X49093D01*
Y175000D01*
X46870D01*
Y178703D01*
X47390D01*
Y175451D01*
D02*
G37*
G36*
X91603Y51402D02*
X91644D01*
X91743Y51390D01*
X91860Y51373D01*
X91989Y51349D01*
X92118Y51314D01*
X92241Y51267D01*
X92246D01*
X92252Y51262D01*
X92270Y51256D01*
X92293Y51244D01*
X92352Y51209D01*
X92428Y51168D01*
X92510Y51109D01*
X92592Y51039D01*
X92673Y50957D01*
X92744Y50864D01*
X92750Y50852D01*
X92773Y50817D01*
X92802Y50758D01*
X92831Y50688D01*
X92866Y50600D01*
X92902Y50495D01*
X92925Y50384D01*
X92937Y50261D01*
X92451Y50226D01*
Y50232D01*
Y50244D01*
X92445Y50261D01*
X92439Y50285D01*
X92428Y50349D01*
X92404Y50431D01*
X92369Y50519D01*
X92322Y50606D01*
X92258Y50694D01*
X92182Y50770D01*
X92170Y50776D01*
X92141Y50799D01*
X92089Y50829D01*
X92018Y50864D01*
X91925Y50899D01*
X91808Y50928D01*
X91673Y50951D01*
X91515Y50957D01*
X91439D01*
X91404Y50951D01*
X91357D01*
X91258Y50934D01*
X91147Y50916D01*
X91035Y50887D01*
X90930Y50846D01*
X90883Y50817D01*
X90842Y50788D01*
X90837Y50782D01*
X90813Y50758D01*
X90778Y50723D01*
X90743Y50671D01*
X90702Y50612D01*
X90673Y50542D01*
X90649Y50466D01*
X90638Y50378D01*
Y50366D01*
Y50343D01*
X90644Y50302D01*
X90655Y50255D01*
X90673Y50203D01*
X90702Y50144D01*
X90737Y50092D01*
X90784Y50039D01*
X90790Y50033D01*
X90819Y50015D01*
X90837Y50004D01*
X90860Y49986D01*
X90895Y49975D01*
X90936Y49957D01*
X90983Y49934D01*
X91035Y49910D01*
X91094Y49893D01*
X91164Y49869D01*
X91246Y49840D01*
X91334Y49817D01*
X91433Y49793D01*
X91544Y49764D01*
X91550D01*
X91574Y49758D01*
X91603Y49752D01*
X91644Y49741D01*
X91697Y49729D01*
X91755Y49711D01*
X91884Y49682D01*
X92024Y49641D01*
X92164Y49600D01*
X92235Y49583D01*
X92293Y49559D01*
X92352Y49536D01*
X92399Y49518D01*
X92404D01*
X92416Y49512D01*
X92428Y49501D01*
X92451Y49489D01*
X92510Y49454D01*
X92586Y49413D01*
X92668Y49354D01*
X92750Y49284D01*
X92826Y49208D01*
X92890Y49126D01*
X92896Y49115D01*
X92913Y49085D01*
X92943Y49038D01*
X92972Y48968D01*
X93001Y48892D01*
X93030Y48799D01*
X93048Y48693D01*
X93054Y48582D01*
Y48576D01*
Y48570D01*
Y48553D01*
Y48530D01*
X93042Y48471D01*
X93030Y48395D01*
X93013Y48307D01*
X92978Y48208D01*
X92937Y48103D01*
X92878Y48003D01*
X92872Y47991D01*
X92843Y47956D01*
X92808Y47910D01*
X92750Y47851D01*
X92679Y47781D01*
X92592Y47711D01*
X92486Y47646D01*
X92369Y47582D01*
X92363D01*
X92352Y47576D01*
X92334Y47570D01*
X92311Y47559D01*
X92282Y47547D01*
X92246Y47535D01*
X92153Y47512D01*
X92048Y47482D01*
X91919Y47459D01*
X91784Y47442D01*
X91632Y47436D01*
X91544D01*
X91503Y47442D01*
X91451D01*
X91392Y47447D01*
X91328Y47453D01*
X91193Y47471D01*
X91047Y47500D01*
X90901Y47535D01*
X90760Y47582D01*
X90755D01*
X90743Y47588D01*
X90725Y47600D01*
X90702Y47611D01*
X90638Y47646D01*
X90562Y47699D01*
X90468Y47763D01*
X90380Y47839D01*
X90287Y47933D01*
X90205Y48038D01*
Y48044D01*
X90199Y48050D01*
X90187Y48068D01*
X90175Y48091D01*
X90158Y48120D01*
X90140Y48155D01*
X90105Y48243D01*
X90070Y48342D01*
X90035Y48465D01*
X90012Y48594D01*
X90000Y48734D01*
X90480Y48775D01*
Y48770D01*
Y48764D01*
X90486Y48728D01*
X90497Y48676D01*
X90509Y48606D01*
X90532Y48530D01*
X90556Y48448D01*
X90591Y48372D01*
X90632Y48296D01*
X90638Y48290D01*
X90655Y48266D01*
X90684Y48231D01*
X90731Y48190D01*
X90784Y48144D01*
X90848Y48091D01*
X90930Y48044D01*
X91018Y47997D01*
X91024D01*
X91030Y47991D01*
X91065Y47980D01*
X91117Y47962D01*
X91193Y47945D01*
X91275Y47921D01*
X91381Y47904D01*
X91492Y47892D01*
X91609Y47886D01*
X91656D01*
X91714Y47892D01*
X91778Y47898D01*
X91860Y47904D01*
X91942Y47921D01*
X92030Y47939D01*
X92118Y47968D01*
X92129Y47974D01*
X92153Y47986D01*
X92194Y48003D01*
X92241Y48032D01*
X92299Y48068D01*
X92352Y48108D01*
X92404Y48155D01*
X92451Y48208D01*
X92457Y48214D01*
X92469Y48237D01*
X92486Y48266D01*
X92510Y48307D01*
X92527Y48354D01*
X92545Y48413D01*
X92556Y48471D01*
X92562Y48535D01*
Y48541D01*
Y48565D01*
X92556Y48600D01*
X92551Y48641D01*
X92539Y48693D01*
X92515Y48746D01*
X92492Y48799D01*
X92457Y48851D01*
X92451Y48857D01*
X92439Y48875D01*
X92410Y48898D01*
X92375Y48933D01*
X92328Y48968D01*
X92270Y49003D01*
X92194Y49044D01*
X92112Y49079D01*
X92106Y49085D01*
X92083Y49091D01*
X92036Y49103D01*
X92007Y49115D01*
X91971Y49126D01*
X91925Y49138D01*
X91878Y49150D01*
X91819Y49167D01*
X91761Y49185D01*
X91691Y49202D01*
X91609Y49220D01*
X91521Y49243D01*
X91427Y49267D01*
X91422D01*
X91404Y49273D01*
X91375Y49278D01*
X91340Y49290D01*
X91299Y49302D01*
X91252Y49314D01*
X91141Y49343D01*
X91018Y49384D01*
X90895Y49425D01*
X90784Y49466D01*
X90731Y49483D01*
X90690Y49507D01*
X90684D01*
X90679Y49512D01*
X90644Y49536D01*
X90597Y49565D01*
X90538Y49606D01*
X90468Y49659D01*
X90404Y49717D01*
X90339Y49787D01*
X90281Y49863D01*
X90275Y49875D01*
X90257Y49904D01*
X90240Y49945D01*
X90216Y50004D01*
X90187Y50074D01*
X90170Y50156D01*
X90152Y50249D01*
X90146Y50343D01*
Y50349D01*
Y50355D01*
Y50372D01*
Y50396D01*
X90158Y50448D01*
X90170Y50519D01*
X90187Y50606D01*
X90216Y50694D01*
X90257Y50793D01*
X90310Y50887D01*
Y50893D01*
X90316Y50899D01*
X90339Y50928D01*
X90380Y50975D01*
X90433Y51033D01*
X90497Y51092D01*
X90579Y51156D01*
X90679Y51221D01*
X90790Y51273D01*
X90796D01*
X90801Y51279D01*
X90819Y51285D01*
X90848Y51297D01*
X90877Y51302D01*
X90913Y51314D01*
X90995Y51343D01*
X91100Y51367D01*
X91217Y51384D01*
X91351Y51402D01*
X91492Y51408D01*
X91562D01*
X91603Y51402D01*
D02*
G37*
G36*
Y158902D02*
X91644D01*
X91743Y158890D01*
X91860Y158873D01*
X91989Y158849D01*
X92118Y158814D01*
X92241Y158767D01*
X92246D01*
X92252Y158762D01*
X92270Y158756D01*
X92293Y158744D01*
X92352Y158709D01*
X92428Y158668D01*
X92510Y158609D01*
X92592Y158539D01*
X92673Y158457D01*
X92744Y158364D01*
X92750Y158352D01*
X92773Y158317D01*
X92802Y158258D01*
X92831Y158188D01*
X92866Y158100D01*
X92902Y157995D01*
X92925Y157884D01*
X92937Y157761D01*
X92451Y157726D01*
Y157732D01*
Y157744D01*
X92445Y157761D01*
X92439Y157785D01*
X92428Y157849D01*
X92404Y157931D01*
X92369Y158019D01*
X92322Y158106D01*
X92258Y158194D01*
X92182Y158270D01*
X92170Y158276D01*
X92141Y158299D01*
X92089Y158329D01*
X92018Y158364D01*
X91925Y158399D01*
X91808Y158428D01*
X91673Y158451D01*
X91515Y158457D01*
X91439D01*
X91404Y158451D01*
X91357D01*
X91258Y158434D01*
X91147Y158416D01*
X91035Y158387D01*
X90930Y158346D01*
X90883Y158317D01*
X90842Y158288D01*
X90837Y158282D01*
X90813Y158258D01*
X90778Y158223D01*
X90743Y158171D01*
X90702Y158112D01*
X90673Y158042D01*
X90649Y157966D01*
X90638Y157878D01*
Y157867D01*
Y157843D01*
X90644Y157802D01*
X90655Y157755D01*
X90673Y157703D01*
X90702Y157644D01*
X90737Y157592D01*
X90784Y157539D01*
X90790Y157533D01*
X90819Y157516D01*
X90837Y157504D01*
X90860Y157486D01*
X90895Y157475D01*
X90936Y157457D01*
X90983Y157434D01*
X91035Y157410D01*
X91094Y157393D01*
X91164Y157369D01*
X91246Y157340D01*
X91334Y157317D01*
X91433Y157293D01*
X91544Y157264D01*
X91550D01*
X91574Y157258D01*
X91603Y157252D01*
X91644Y157241D01*
X91697Y157229D01*
X91755Y157211D01*
X91884Y157182D01*
X92024Y157141D01*
X92164Y157100D01*
X92235Y157083D01*
X92293Y157059D01*
X92352Y157036D01*
X92399Y157018D01*
X92404D01*
X92416Y157012D01*
X92428Y157001D01*
X92451Y156989D01*
X92510Y156954D01*
X92586Y156913D01*
X92668Y156854D01*
X92750Y156784D01*
X92826Y156708D01*
X92890Y156626D01*
X92896Y156615D01*
X92913Y156585D01*
X92943Y156539D01*
X92972Y156468D01*
X93001Y156392D01*
X93030Y156299D01*
X93048Y156193D01*
X93054Y156082D01*
Y156076D01*
Y156071D01*
Y156053D01*
Y156030D01*
X93042Y155971D01*
X93030Y155895D01*
X93013Y155807D01*
X92978Y155708D01*
X92937Y155603D01*
X92878Y155503D01*
X92872Y155491D01*
X92843Y155456D01*
X92808Y155410D01*
X92750Y155351D01*
X92679Y155281D01*
X92592Y155211D01*
X92486Y155146D01*
X92369Y155082D01*
X92363D01*
X92352Y155076D01*
X92334Y155070D01*
X92311Y155059D01*
X92282Y155047D01*
X92246Y155035D01*
X92153Y155012D01*
X92048Y154982D01*
X91919Y154959D01*
X91784Y154941D01*
X91632Y154936D01*
X91544D01*
X91503Y154941D01*
X91451D01*
X91392Y154947D01*
X91328Y154953D01*
X91193Y154971D01*
X91047Y155000D01*
X90901Y155035D01*
X90760Y155082D01*
X90755D01*
X90743Y155088D01*
X90725Y155099D01*
X90702Y155111D01*
X90638Y155146D01*
X90562Y155199D01*
X90468Y155263D01*
X90380Y155339D01*
X90287Y155433D01*
X90205Y155538D01*
Y155544D01*
X90199Y155550D01*
X90187Y155568D01*
X90175Y155591D01*
X90158Y155620D01*
X90140Y155655D01*
X90105Y155743D01*
X90070Y155842D01*
X90035Y155965D01*
X90012Y156094D01*
X90000Y156234D01*
X90480Y156275D01*
Y156270D01*
Y156264D01*
X90486Y156228D01*
X90497Y156176D01*
X90509Y156106D01*
X90532Y156030D01*
X90556Y155948D01*
X90591Y155872D01*
X90632Y155796D01*
X90638Y155790D01*
X90655Y155766D01*
X90684Y155731D01*
X90731Y155690D01*
X90784Y155643D01*
X90848Y155591D01*
X90930Y155544D01*
X91018Y155497D01*
X91024D01*
X91030Y155491D01*
X91065Y155480D01*
X91117Y155462D01*
X91193Y155445D01*
X91275Y155421D01*
X91381Y155404D01*
X91492Y155392D01*
X91609Y155386D01*
X91656D01*
X91714Y155392D01*
X91778Y155398D01*
X91860Y155404D01*
X91942Y155421D01*
X92030Y155439D01*
X92118Y155468D01*
X92129Y155474D01*
X92153Y155485D01*
X92194Y155503D01*
X92241Y155532D01*
X92299Y155568D01*
X92352Y155608D01*
X92404Y155655D01*
X92451Y155708D01*
X92457Y155714D01*
X92469Y155737D01*
X92486Y155766D01*
X92510Y155807D01*
X92527Y155854D01*
X92545Y155913D01*
X92556Y155971D01*
X92562Y156035D01*
Y156041D01*
Y156065D01*
X92556Y156100D01*
X92551Y156141D01*
X92539Y156193D01*
X92515Y156246D01*
X92492Y156299D01*
X92457Y156351D01*
X92451Y156357D01*
X92439Y156375D01*
X92410Y156398D01*
X92375Y156433D01*
X92328Y156468D01*
X92270Y156503D01*
X92194Y156544D01*
X92112Y156579D01*
X92106Y156585D01*
X92083Y156591D01*
X92036Y156603D01*
X92007Y156615D01*
X91971Y156626D01*
X91925Y156638D01*
X91878Y156650D01*
X91819Y156667D01*
X91761Y156685D01*
X91691Y156702D01*
X91609Y156720D01*
X91521Y156743D01*
X91427Y156767D01*
X91422D01*
X91404Y156773D01*
X91375Y156778D01*
X91340Y156790D01*
X91299Y156802D01*
X91252Y156814D01*
X91141Y156843D01*
X91018Y156884D01*
X90895Y156925D01*
X90784Y156966D01*
X90731Y156983D01*
X90690Y157007D01*
X90684D01*
X90679Y157012D01*
X90644Y157036D01*
X90597Y157065D01*
X90538Y157106D01*
X90468Y157159D01*
X90404Y157217D01*
X90339Y157287D01*
X90281Y157363D01*
X90275Y157375D01*
X90257Y157404D01*
X90240Y157445D01*
X90216Y157504D01*
X90187Y157574D01*
X90170Y157656D01*
X90152Y157749D01*
X90146Y157843D01*
Y157849D01*
Y157855D01*
Y157872D01*
Y157896D01*
X90158Y157948D01*
X90170Y158019D01*
X90187Y158106D01*
X90216Y158194D01*
X90257Y158294D01*
X90310Y158387D01*
Y158393D01*
X90316Y158399D01*
X90339Y158428D01*
X90380Y158475D01*
X90433Y158533D01*
X90497Y158592D01*
X90579Y158656D01*
X90679Y158721D01*
X90790Y158773D01*
X90796D01*
X90801Y158779D01*
X90819Y158785D01*
X90848Y158797D01*
X90877Y158802D01*
X90913Y158814D01*
X90995Y158844D01*
X91100Y158867D01*
X91217Y158884D01*
X91351Y158902D01*
X91492Y158908D01*
X91562D01*
X91603Y158902D01*
D02*
G37*
G36*
X95335Y155000D02*
X94861D01*
Y158007D01*
X94855Y158001D01*
X94832Y157978D01*
X94791Y157948D01*
X94739Y157907D01*
X94674Y157855D01*
X94598Y157802D01*
X94510Y157738D01*
X94411Y157679D01*
X94405D01*
X94399Y157674D01*
X94364Y157650D01*
X94311Y157621D01*
X94247Y157586D01*
X94171Y157545D01*
X94089Y157510D01*
X94001Y157469D01*
X93919Y157434D01*
Y157896D01*
X93925D01*
X93937Y157902D01*
X93960Y157913D01*
X93984Y157931D01*
X94019Y157948D01*
X94060Y157966D01*
X94153Y158019D01*
X94259Y158083D01*
X94376Y158159D01*
X94493Y158247D01*
X94604Y158340D01*
X94610Y158346D01*
X94616Y158352D01*
X94651Y158387D01*
X94703Y158440D01*
X94768Y158504D01*
X94838Y158586D01*
X94908Y158674D01*
X94972Y158767D01*
X95025Y158861D01*
X95335D01*
Y155000D01*
D02*
G37*
G36*
X79036Y219393D02*
X77773D01*
Y216000D01*
X77264D01*
Y219393D01*
X76000D01*
Y219843D01*
X79036D01*
Y219393D01*
D02*
G37*
G36*
X51895Y178258D02*
X50163D01*
Y177159D01*
X51702D01*
Y176726D01*
X50163D01*
Y175445D01*
X52029D01*
Y175000D01*
X49643D01*
Y178703D01*
X51895D01*
Y178258D01*
D02*
G37*
G36*
X81400Y219838D02*
X81446D01*
X81563Y219832D01*
X81686Y219820D01*
X81815Y219797D01*
X81938Y219773D01*
X81996Y219756D01*
X82049Y219738D01*
X82055D01*
X82061Y219732D01*
X82096Y219721D01*
X82143Y219691D01*
X82201Y219650D01*
X82271Y219604D01*
X82341Y219539D01*
X82412Y219463D01*
X82476Y219370D01*
X82482Y219358D01*
X82499Y219323D01*
X82529Y219270D01*
X82558Y219200D01*
X82587Y219112D01*
X82616Y219013D01*
X82634Y218907D01*
X82640Y218791D01*
Y218785D01*
Y218773D01*
Y218749D01*
X82634Y218720D01*
Y218685D01*
X82628Y218644D01*
X82605Y218551D01*
X82575Y218439D01*
X82529Y218328D01*
X82458Y218211D01*
X82417Y218153D01*
X82371Y218100D01*
X82359Y218089D01*
X82341Y218077D01*
X82324Y218053D01*
X82295Y218036D01*
X82260Y218007D01*
X82219Y217983D01*
X82172Y217954D01*
X82119Y217925D01*
X82055Y217895D01*
X81990Y217866D01*
X81914Y217837D01*
X81838Y217808D01*
X81751Y217784D01*
X81657Y217767D01*
X81558Y217749D01*
X81569Y217743D01*
X81593Y217732D01*
X81628Y217714D01*
X81669Y217691D01*
X81768Y217626D01*
X81821Y217591D01*
X81862Y217556D01*
X81873Y217544D01*
X81903Y217521D01*
X81944Y217474D01*
X81996Y217416D01*
X82061Y217340D01*
X82131Y217252D01*
X82207Y217152D01*
X82283Y217041D01*
X82950Y216000D01*
X82312D01*
X81803Y216796D01*
Y216802D01*
X81792Y216813D01*
X81780Y216831D01*
X81768Y216854D01*
X81727Y216913D01*
X81674Y216989D01*
X81616Y217076D01*
X81552Y217164D01*
X81493Y217246D01*
X81435Y217322D01*
X81429Y217328D01*
X81411Y217351D01*
X81382Y217387D01*
X81353Y217427D01*
X81265Y217509D01*
X81224Y217550D01*
X81177Y217580D01*
X81171Y217585D01*
X81160Y217591D01*
X81136Y217603D01*
X81107Y217620D01*
X81037Y217655D01*
X80949Y217685D01*
X80943D01*
X80932Y217691D01*
X80908D01*
X80879Y217696D01*
X80838Y217702D01*
X80791D01*
X80733Y217708D01*
X80077D01*
Y216000D01*
X79568D01*
Y219843D01*
X81353D01*
X81400Y219838D01*
D02*
G37*
G36*
X85021Y216000D02*
X84547D01*
Y219007D01*
X84541Y219001D01*
X84518Y218978D01*
X84477Y218948D01*
X84424Y218907D01*
X84360Y218855D01*
X84284Y218802D01*
X84196Y218738D01*
X84096Y218679D01*
X84091D01*
X84085Y218673D01*
X84050Y218650D01*
X83997Y218621D01*
X83933Y218586D01*
X83857Y218545D01*
X83775Y218510D01*
X83687Y218469D01*
X83605Y218434D01*
Y218896D01*
X83611D01*
X83623Y218902D01*
X83646Y218913D01*
X83669Y218931D01*
X83704Y218948D01*
X83745Y218966D01*
X83839Y219019D01*
X83944Y219083D01*
X84061Y219159D01*
X84178Y219247D01*
X84289Y219340D01*
X84295Y219346D01*
X84301Y219352D01*
X84336Y219387D01*
X84389Y219440D01*
X84453Y219504D01*
X84523Y219586D01*
X84594Y219674D01*
X84658Y219767D01*
X84711Y219861D01*
X85021D01*
Y216000D01*
D02*
G37*
%LPC*%
G36*
X30016Y186514D02*
X29590D01*
X29497Y186503D01*
X29324D01*
X29278Y186491D01*
X29151Y186480D01*
X29013Y186468D01*
Y184220D01*
X30212D01*
X30304Y184231D01*
X30420D01*
X30535Y184243D01*
X30789Y184266D01*
X30800D01*
X30846Y184278D01*
X30904Y184289D01*
X30985Y184312D01*
X31169Y184370D01*
X31365Y184451D01*
X31377Y184462D01*
X31411Y184474D01*
X31457Y184508D01*
X31515Y184543D01*
X31642Y184658D01*
X31757Y184808D01*
X31769Y184819D01*
X31780Y184854D01*
X31803Y184900D01*
X31838Y184969D01*
X31861Y185050D01*
X31884Y185142D01*
X31896Y185258D01*
X31907Y185373D01*
Y185385D01*
Y185431D01*
X31896Y185488D01*
X31884Y185557D01*
X31849Y185730D01*
X31803Y185823D01*
X31757Y185903D01*
X31746Y185915D01*
X31734Y185938D01*
X31699Y185984D01*
X31653Y186030D01*
X31596Y186088D01*
X31515Y186145D01*
X31434Y186203D01*
X31342Y186249D01*
X31330Y186261D01*
X31296Y186272D01*
X31238Y186295D01*
X31169Y186330D01*
X31088Y186353D01*
X30985Y186388D01*
X30869Y186422D01*
X30742Y186445D01*
X30731D01*
X30685Y186457D01*
X30616Y186468D01*
X30523Y186480D01*
X30408Y186491D01*
X30293Y186503D01*
X30016Y186514D01*
D02*
G37*
G36*
X30477Y183401D02*
X29013D01*
Y180830D01*
X29036D01*
X29094Y180819D01*
X29174D01*
X29278Y180807D01*
X29370D01*
X29474Y180796D01*
X30189D01*
X30304Y180807D01*
X30431D01*
X30581Y180819D01*
X30881Y180853D01*
X30904D01*
X30950Y180865D01*
X31019Y180876D01*
X31123Y180899D01*
X31227Y180922D01*
X31354Y180957D01*
X31584Y181049D01*
X31596Y181061D01*
X31642Y181072D01*
X31688Y181107D01*
X31769Y181153D01*
X31838Y181222D01*
X31930Y181291D01*
X32011Y181372D01*
X32080Y181464D01*
X32092Y181476D01*
X32114Y181510D01*
X32138Y181568D01*
X32172Y181649D01*
X32207Y181741D01*
X32241Y181856D01*
X32253Y181983D01*
X32264Y182122D01*
Y182133D01*
Y182179D01*
X32253Y182248D01*
Y182329D01*
X32207Y182525D01*
X32172Y182629D01*
X32126Y182721D01*
X32114Y182733D01*
X32103Y182767D01*
X32068Y182813D01*
X32022Y182871D01*
X31965Y182929D01*
X31896Y182998D01*
X31815Y183067D01*
X31723Y183125D01*
X31711Y183136D01*
X31676Y183148D01*
X31619Y183171D01*
X31550Y183205D01*
X31457Y183240D01*
X31354Y183274D01*
X31238Y183309D01*
X31111Y183332D01*
X31100D01*
X31054Y183344D01*
X30973Y183355D01*
X30881Y183367D01*
X30766Y183378D01*
X30627Y183390D01*
X30477Y183401D01*
D02*
G37*
G36*
X188788Y207016D02*
X187577D01*
Y205747D01*
X188724D01*
X188788Y205753D01*
X188865Y205759D01*
X188952Y205765D01*
X189046Y205776D01*
X189134Y205794D01*
X189210Y205817D01*
X189221Y205823D01*
X189245Y205829D01*
X189280Y205846D01*
X189321Y205870D01*
X189368Y205905D01*
X189420Y205946D01*
X189467Y205993D01*
X189508Y206045D01*
X189514Y206051D01*
X189525Y206075D01*
X189543Y206104D01*
X189561Y206151D01*
X189578Y206197D01*
X189596Y206256D01*
X189607Y206320D01*
X189613Y206391D01*
Y206396D01*
Y206402D01*
Y206437D01*
X189602Y206484D01*
X189590Y206548D01*
X189567Y206619D01*
X189531Y206695D01*
X189479Y206771D01*
X189414Y206841D01*
X189403Y206847D01*
X189379Y206870D01*
X189327Y206899D01*
X189262Y206929D01*
X189174Y206964D01*
X189069Y206987D01*
X188941Y207011D01*
X188788Y207016D01*
D02*
G37*
G36*
Y102016D02*
X187577D01*
Y100747D01*
X188724D01*
X188788Y100753D01*
X188865Y100759D01*
X188952Y100765D01*
X189046Y100776D01*
X189134Y100794D01*
X189210Y100817D01*
X189221Y100823D01*
X189245Y100829D01*
X189280Y100846D01*
X189321Y100870D01*
X189368Y100905D01*
X189420Y100946D01*
X189467Y100993D01*
X189508Y101045D01*
X189514Y101051D01*
X189525Y101075D01*
X189543Y101104D01*
X189561Y101151D01*
X189578Y101197D01*
X189596Y101256D01*
X189607Y101320D01*
X189613Y101390D01*
Y101396D01*
Y101402D01*
Y101437D01*
X189602Y101484D01*
X189590Y101548D01*
X189567Y101619D01*
X189531Y101695D01*
X189479Y101771D01*
X189414Y101841D01*
X189403Y101847D01*
X189379Y101870D01*
X189327Y101899D01*
X189262Y101929D01*
X189174Y101964D01*
X189069Y101987D01*
X188941Y102011D01*
X188788Y102016D01*
D02*
G37*
G36*
X192024Y100677D02*
X191994D01*
X191971Y100671D01*
X191912Y100665D01*
X191836Y100647D01*
X191754Y100618D01*
X191661Y100577D01*
X191573Y100519D01*
X191485Y100443D01*
X191474Y100431D01*
X191450Y100402D01*
X191415Y100349D01*
X191374Y100285D01*
X191333Y100197D01*
X191298Y100092D01*
X191275Y99975D01*
X191263Y99840D01*
Y99828D01*
Y99799D01*
X191269Y99752D01*
X191275Y99694D01*
X191286Y99618D01*
X191304Y99542D01*
X191327Y99460D01*
X191362Y99372D01*
X191368Y99361D01*
X191380Y99337D01*
X191403Y99296D01*
X191438Y99249D01*
X191479Y99191D01*
X191526Y99138D01*
X191585Y99080D01*
X191649Y99033D01*
X191655Y99027D01*
X191684Y99015D01*
X191719Y98998D01*
X191766Y98980D01*
X191824Y98957D01*
X191895Y98939D01*
X191965Y98928D01*
X192041Y98922D01*
X192070D01*
X192094Y98928D01*
X192146Y98934D01*
X192222Y98951D01*
X192298Y98980D01*
X192386Y99021D01*
X192474Y99080D01*
X192556Y99162D01*
X192568Y99173D01*
X192591Y99208D01*
X192626Y99261D01*
X192667Y99331D01*
X192702Y99425D01*
X192737Y99542D01*
X192761Y99671D01*
X192772Y99817D01*
Y99823D01*
Y99834D01*
Y99858D01*
X192766Y99881D01*
Y99916D01*
X192761Y99957D01*
X192749Y100045D01*
X192720Y100144D01*
X192684Y100250D01*
X192632Y100349D01*
X192562Y100443D01*
X192550Y100454D01*
X192526Y100478D01*
X192480Y100519D01*
X192415Y100560D01*
X192339Y100601D01*
X192246Y100642D01*
X192140Y100665D01*
X192024Y100677D01*
D02*
G37*
G36*
X53065Y186595D02*
X52995D01*
X52926Y186584D01*
X52834Y186561D01*
X52719Y186538D01*
X52603Y186491D01*
X52488Y186434D01*
X52384Y186353D01*
X52373Y186342D01*
X52338Y186307D01*
X52292Y186261D01*
X52234Y186180D01*
X52165Y186088D01*
X52084Y185984D01*
X52015Y185846D01*
X51946Y185707D01*
X51935Y185684D01*
X51923Y185638D01*
X51889Y185557D01*
X51854Y185442D01*
X51819Y185304D01*
X51785Y185154D01*
X51750Y184969D01*
X51715Y184773D01*
Y184750D01*
X51704Y184681D01*
X51692Y184577D01*
Y184439D01*
X51681Y184266D01*
X51669Y184070D01*
X51658Y183863D01*
Y183643D01*
Y183632D01*
Y183620D01*
Y183586D01*
Y183540D01*
Y183424D01*
X51669Y183274D01*
Y183102D01*
X51681Y182906D01*
X51715Y182502D01*
Y182479D01*
X51727Y182410D01*
X51750Y182317D01*
X51773Y182191D01*
X51808Y182041D01*
X51842Y181879D01*
X51889Y181729D01*
X51946Y181568D01*
X51958Y181556D01*
X51981Y181499D01*
X52015Y181430D01*
X52061Y181337D01*
X52131Y181245D01*
X52200Y181130D01*
X52292Y181026D01*
X52384Y180934D01*
X52396Y180922D01*
X52430Y180899D01*
X52488Y180865D01*
X52569Y180819D01*
X52672Y180772D01*
X52788Y180738D01*
X52915Y180715D01*
X53065Y180703D01*
X53134D01*
X53203Y180715D01*
X53295Y180738D01*
X53411Y180761D01*
X53514Y180796D01*
X53629Y180853D01*
X53733Y180934D01*
X53745Y180946D01*
X53779Y180980D01*
X53825Y181026D01*
X53895Y181107D01*
X53964Y181199D01*
X54033Y181303D01*
X54102Y181430D01*
X54171Y181568D01*
X54183Y181591D01*
X54194Y181637D01*
X54229Y181729D01*
X54264Y181833D01*
X54310Y181972D01*
X54344Y182133D01*
X54379Y182306D01*
X54414Y182502D01*
Y182513D01*
Y182525D01*
X54425Y182594D01*
X54437Y182710D01*
X54448Y182848D01*
X54460Y183021D01*
X54471Y183217D01*
X54483Y183424D01*
Y183643D01*
Y183655D01*
Y183667D01*
Y183701D01*
Y183747D01*
Y183863D01*
X54471Y184012D01*
Y184185D01*
X54460Y184370D01*
X54414Y184773D01*
Y184785D01*
Y184797D01*
X54402Y184866D01*
X54379Y184969D01*
X54356Y185096D01*
X54321Y185235D01*
X54287Y185396D01*
X54229Y185557D01*
X54171Y185707D01*
X54160Y185730D01*
X54137Y185776D01*
X54102Y185846D01*
X54056Y185938D01*
X53999Y186042D01*
X53918Y186145D01*
X53837Y186261D01*
X53733Y186353D01*
X53722Y186365D01*
X53687Y186388D01*
X53629Y186434D01*
X53549Y186480D01*
X53457Y186514D01*
X53341Y186561D01*
X53214Y186584D01*
X53065Y186595D01*
D02*
G37*
G36*
X31828Y196468D02*
X31309D01*
X31148Y196457D01*
X30987D01*
X30825Y196445D01*
X30687Y196434D01*
Y193690D01*
X31586D01*
X31725Y193701D01*
X31863D01*
X32024Y193713D01*
X32347Y193736D01*
X32370D01*
X32416Y193747D01*
X32497Y193759D01*
X32601Y193782D01*
X32705Y193805D01*
X32831Y193840D01*
X32947Y193886D01*
X33062Y193932D01*
X33073Y193943D01*
X33108Y193955D01*
X33166Y193989D01*
X33223Y194035D01*
X33304Y194105D01*
X33373Y194174D01*
X33443Y194255D01*
X33512Y194347D01*
X33523Y194358D01*
X33535Y194393D01*
X33558Y194462D01*
X33592Y194543D01*
X33627Y194647D01*
X33650Y194762D01*
X33662Y194900D01*
X33673Y195062D01*
Y195085D01*
Y195131D01*
X33662Y195212D01*
X33650Y195304D01*
X33639Y195408D01*
X33604Y195523D01*
X33569Y195638D01*
X33512Y195742D01*
X33500Y195754D01*
X33477Y195788D01*
X33443Y195834D01*
X33396Y195903D01*
X33339Y195973D01*
X33270Y196042D01*
X33085Y196180D01*
X33073Y196192D01*
X33039Y196203D01*
X32981Y196238D01*
X32912Y196272D01*
X32808Y196307D01*
X32705Y196342D01*
X32589Y196376D01*
X32451Y196399D01*
X32439D01*
X32393Y196411D01*
X32313Y196422D01*
X32220Y196434D01*
X32105Y196445D01*
X31978Y196457D01*
X31828Y196468D01*
D02*
G37*
G36*
X181149Y155335D02*
X179429D01*
X181149Y154130D01*
Y155335D01*
D02*
G37*
G36*
X181283Y50856D02*
X181242D01*
X181219Y50850D01*
X181184D01*
X181143Y50844D01*
X181055Y50832D01*
X180956Y50803D01*
X180850Y50768D01*
X180751Y50715D01*
X180657Y50645D01*
X180646Y50634D01*
X180622Y50610D01*
X180581Y50563D01*
X180540Y50499D01*
X180499Y50423D01*
X180458Y50329D01*
X180435Y50224D01*
X180423Y50107D01*
Y50101D01*
Y50095D01*
Y50078D01*
X180429Y50054D01*
X180435Y49996D01*
X180453Y49920D01*
X180482Y49838D01*
X180523Y49744D01*
X180581Y49657D01*
X180657Y49569D01*
X180669Y49557D01*
X180698Y49534D01*
X180751Y49499D01*
X180815Y49458D01*
X180903Y49417D01*
X181008Y49382D01*
X181125Y49358D01*
X181260Y49347D01*
X181301D01*
X181348Y49352D01*
X181406Y49358D01*
X181482Y49370D01*
X181558Y49387D01*
X181640Y49411D01*
X181728Y49446D01*
X181739Y49452D01*
X181763Y49463D01*
X181804Y49487D01*
X181851Y49522D01*
X181909Y49563D01*
X181962Y49610D01*
X182020Y49668D01*
X182067Y49733D01*
X182073Y49738D01*
X182085Y49768D01*
X182102Y49803D01*
X182120Y49850D01*
X182143Y49908D01*
X182161Y49978D01*
X182172Y50049D01*
X182178Y50125D01*
Y50130D01*
Y50136D01*
Y50154D01*
X182172Y50177D01*
X182167Y50230D01*
X182149Y50306D01*
X182120Y50382D01*
X182079Y50470D01*
X182020Y50558D01*
X181938Y50639D01*
X181927Y50651D01*
X181892Y50674D01*
X181839Y50710D01*
X181769Y50750D01*
X181675Y50786D01*
X181558Y50821D01*
X181429Y50844D01*
X181283Y50856D01*
D02*
G37*
G36*
X107288Y112416D02*
X106077D01*
Y111147D01*
X107224D01*
X107288Y111153D01*
X107364Y111159D01*
X107452Y111164D01*
X107546Y111176D01*
X107633Y111194D01*
X107710Y111217D01*
X107721Y111223D01*
X107745Y111229D01*
X107780Y111246D01*
X107821Y111270D01*
X107868Y111305D01*
X107920Y111346D01*
X107967Y111393D01*
X108008Y111445D01*
X108014Y111451D01*
X108026Y111475D01*
X108043Y111504D01*
X108061Y111551D01*
X108078Y111597D01*
X108096Y111656D01*
X108107Y111720D01*
X108113Y111791D01*
Y111796D01*
Y111802D01*
Y111837D01*
X108101Y111884D01*
X108090Y111948D01*
X108066Y112019D01*
X108031Y112095D01*
X107979Y112171D01*
X107914Y112241D01*
X107903Y112247D01*
X107879Y112270D01*
X107827Y112299D01*
X107762Y112329D01*
X107675Y112364D01*
X107569Y112387D01*
X107440Y112410D01*
X107288Y112416D01*
D02*
G37*
G36*
X210171Y48071D02*
X208966Y46351D01*
X210171D01*
Y48071D01*
D02*
G37*
G36*
X36129Y177404D02*
X36094D01*
X36053Y177399D01*
X36006D01*
X35948Y177387D01*
X35883Y177375D01*
X35819Y177357D01*
X35755Y177334D01*
X35749Y177328D01*
X35725Y177322D01*
X35696Y177311D01*
X35661Y177287D01*
X35573Y177241D01*
X35532Y177217D01*
X35497Y177188D01*
Y175433D01*
X35503D01*
X35509Y175427D01*
X35526D01*
X35550Y175421D01*
X35579Y175415D01*
X35614Y175404D01*
X35655Y175398D01*
X35702Y175392D01*
X35725D01*
X35755Y175386D01*
X35796D01*
X35848Y175380D01*
X35907D01*
X35971Y175374D01*
X36082D01*
X36106Y175380D01*
X36141D01*
X36182Y175386D01*
X36275Y175409D01*
X36375Y175439D01*
X36486Y175486D01*
X36591Y175550D01*
X36638Y175591D01*
X36685Y175638D01*
Y175644D01*
X36696Y175649D01*
X36708Y175667D01*
X36720Y175684D01*
X36743Y175714D01*
X36761Y175749D01*
X36808Y175831D01*
X36849Y175936D01*
X36890Y176065D01*
X36913Y176217D01*
X36925Y176386D01*
Y176398D01*
Y176422D01*
Y176462D01*
X36919Y176515D01*
X36913Y176579D01*
X36907Y176644D01*
X36878Y176784D01*
Y176790D01*
X36872Y176813D01*
X36860Y176849D01*
X36843Y176895D01*
X36825Y176948D01*
X36802Y177001D01*
X36737Y177106D01*
X36732Y177112D01*
X36720Y177129D01*
X36702Y177153D01*
X36673Y177188D01*
X36638Y177223D01*
X36597Y177258D01*
X36544Y177293D01*
X36492Y177322D01*
X36486Y177328D01*
X36463Y177334D01*
X36433Y177346D01*
X36392Y177363D01*
X36334Y177381D01*
X36275Y177393D01*
X36205Y177399D01*
X36129Y177404D01*
D02*
G37*
G36*
X68087Y65647D02*
X68011D01*
X67970Y65641D01*
X67917D01*
X67806Y65630D01*
X67683Y65606D01*
X67543Y65577D01*
X67403Y65536D01*
X67268Y65483D01*
X67262D01*
X67251Y65478D01*
X67233Y65466D01*
X67210Y65454D01*
X67145Y65419D01*
X67069Y65367D01*
X66981Y65302D01*
X66888Y65220D01*
X66800Y65127D01*
X66724Y65021D01*
Y65016D01*
X66718Y65010D01*
X66706Y64992D01*
X66695Y64969D01*
X66666Y64904D01*
X66624Y64823D01*
X66589Y64723D01*
X66560Y64606D01*
X66537Y64477D01*
X66531Y64337D01*
Y64331D01*
Y64314D01*
Y64284D01*
X66537Y64249D01*
X66543Y64202D01*
X66549Y64144D01*
X66560Y64085D01*
X66578Y64021D01*
X66624Y63875D01*
X66654Y63799D01*
X66689Y63723D01*
X66730Y63641D01*
X66782Y63565D01*
X66841Y63489D01*
X66905Y63413D01*
X66911Y63407D01*
X66923Y63395D01*
X66946Y63377D01*
X66975Y63354D01*
X67017Y63325D01*
X67069Y63290D01*
X67128Y63255D01*
X67198Y63220D01*
X67280Y63184D01*
X67368Y63149D01*
X67467Y63114D01*
X67584Y63085D01*
X67707Y63062D01*
X67835Y63044D01*
X67982Y63032D01*
X68140Y63026D01*
X68204D01*
X68257Y63032D01*
X68315Y63038D01*
X68379Y63044D01*
X68456Y63056D01*
X68537Y63073D01*
X68713Y63114D01*
X68801Y63149D01*
X68894Y63184D01*
X68982Y63225D01*
X69070Y63272D01*
X69158Y63331D01*
X69234Y63395D01*
X69239Y63401D01*
X69251Y63413D01*
X69269Y63436D01*
X69298Y63465D01*
X69327Y63500D01*
X69357Y63541D01*
X69397Y63594D01*
X69433Y63652D01*
X69468Y63717D01*
X69503Y63787D01*
X69538Y63863D01*
X69567Y63951D01*
X69596Y64038D01*
X69614Y64132D01*
X69626Y64226D01*
X69631Y64331D01*
Y64337D01*
Y64354D01*
Y64384D01*
X69626Y64425D01*
X69620Y64477D01*
X69608Y64530D01*
X69596Y64594D01*
X69579Y64665D01*
X69532Y64811D01*
X69503Y64893D01*
X69462Y64969D01*
X69415Y65051D01*
X69362Y65127D01*
X69304Y65203D01*
X69234Y65273D01*
X69228Y65279D01*
X69216Y65290D01*
X69193Y65308D01*
X69158Y65331D01*
X69117Y65361D01*
X69064Y65390D01*
X69006Y65425D01*
X68941Y65460D01*
X68859Y65495D01*
X68777Y65530D01*
X68684Y65560D01*
X68578Y65589D01*
X68467Y65612D01*
X68350Y65630D01*
X68222Y65641D01*
X68087Y65647D01*
D02*
G37*
G36*
X81288Y111916D02*
X80077D01*
Y110647D01*
X81224D01*
X81288Y110653D01*
X81364Y110659D01*
X81452Y110664D01*
X81546Y110676D01*
X81634Y110694D01*
X81710Y110717D01*
X81721Y110723D01*
X81745Y110729D01*
X81780Y110746D01*
X81821Y110770D01*
X81868Y110805D01*
X81920Y110846D01*
X81967Y110893D01*
X82008Y110945D01*
X82014Y110951D01*
X82025Y110975D01*
X82043Y111004D01*
X82061Y111051D01*
X82078Y111097D01*
X82096Y111156D01*
X82107Y111220D01*
X82113Y111291D01*
Y111296D01*
Y111302D01*
Y111337D01*
X82102Y111384D01*
X82090Y111448D01*
X82066Y111519D01*
X82031Y111595D01*
X81979Y111671D01*
X81914Y111741D01*
X81903Y111747D01*
X81879Y111770D01*
X81827Y111799D01*
X81762Y111829D01*
X81674Y111864D01*
X81569Y111887D01*
X81441Y111910D01*
X81288Y111916D01*
D02*
G37*
G36*
X107288Y220016D02*
X106077D01*
Y218747D01*
X107224D01*
X107288Y218753D01*
X107364Y218759D01*
X107452Y218764D01*
X107546Y218776D01*
X107633Y218794D01*
X107710Y218817D01*
X107721Y218823D01*
X107745Y218829D01*
X107780Y218846D01*
X107821Y218870D01*
X107868Y218905D01*
X107920Y218946D01*
X107967Y218993D01*
X108008Y219045D01*
X108014Y219051D01*
X108026Y219075D01*
X108043Y219104D01*
X108061Y219151D01*
X108078Y219197D01*
X108096Y219256D01*
X108107Y219320D01*
X108113Y219391D01*
Y219396D01*
Y219402D01*
Y219437D01*
X108101Y219484D01*
X108090Y219548D01*
X108066Y219619D01*
X108031Y219695D01*
X107979Y219771D01*
X107914Y219841D01*
X107903Y219847D01*
X107879Y219870D01*
X107827Y219899D01*
X107762Y219929D01*
X107675Y219964D01*
X107569Y219987D01*
X107440Y220011D01*
X107288Y220016D01*
D02*
G37*
G36*
X110752Y112071D02*
X109546Y110351D01*
X110752D01*
Y112071D01*
D02*
G37*
G36*
X81288Y219416D02*
X80077D01*
Y218147D01*
X81224D01*
X81288Y218153D01*
X81364Y218159D01*
X81452Y218164D01*
X81546Y218176D01*
X81634Y218194D01*
X81710Y218217D01*
X81721Y218223D01*
X81745Y218229D01*
X81780Y218246D01*
X81821Y218270D01*
X81868Y218305D01*
X81920Y218346D01*
X81967Y218393D01*
X82008Y218445D01*
X82014Y218451D01*
X82025Y218475D01*
X82043Y218504D01*
X82061Y218551D01*
X82078Y218597D01*
X82096Y218656D01*
X82107Y218720D01*
X82113Y218791D01*
Y218796D01*
Y218802D01*
Y218837D01*
X82102Y218884D01*
X82090Y218948D01*
X82066Y219019D01*
X82031Y219095D01*
X81979Y219171D01*
X81914Y219241D01*
X81903Y219247D01*
X81879Y219270D01*
X81827Y219299D01*
X81762Y219329D01*
X81674Y219364D01*
X81569Y219387D01*
X81441Y219411D01*
X81288Y219416D01*
D02*
G37*
%LPD*%
D25*
X110000Y145000D02*
G03*
X110000Y155000I-5000J5000D01*
G01*
X90000D02*
G03*
X90000Y145000I5000J-5000D01*
G01*
X110000Y37500D02*
G03*
X110000Y47500I-5000J5000D01*
G01*
X90000D02*
G03*
X90000Y37500I5000J-5000D01*
G01*
X65124Y22500D02*
G03*
X65124Y22500I-10124J0D01*
G01*
Y45000D02*
G03*
X65124Y45000I-10124J0D01*
G01*
X210000Y177500D02*
G03*
X220000Y177500I5000J5000D01*
G01*
Y197500D02*
G03*
X210000Y197500I-5000J-5000D01*
G01*
Y72500D02*
G03*
X220000Y72500I5000J5000D01*
G01*
Y92500D02*
G03*
X210000Y92500I-5000J-5000D01*
G01*
X145000D02*
G03*
X150000Y92500I2500J0D01*
G01*
X145000Y197500D02*
G03*
X150000Y197500I2500J0D01*
G01*
X102500Y106500D02*
X125000D01*
Y69000D02*
Y106500D01*
X102500Y69000D02*
X125000D01*
X102500D02*
Y106500D01*
X1000Y62500D02*
Y107500D01*
X30500D01*
Y62500D02*
Y107500D01*
X1000Y62500D02*
X30500D01*
X1000Y102500D02*
Y147500D01*
X30500D01*
Y102500D02*
Y147500D01*
X1000Y102500D02*
X30500D01*
X77500Y176000D02*
X100000D01*
X77500D02*
Y213500D01*
X100000D01*
Y176000D02*
Y213500D01*
X185000Y163500D02*
X207500D01*
X185000D02*
Y201000D01*
X207500D01*
Y163500D02*
Y201000D01*
X102500Y214000D02*
X125000D01*
Y176500D02*
Y214000D01*
X102500Y176500D02*
X125000D01*
X102500D02*
Y214000D01*
X185000Y58500D02*
X207500D01*
X185000D02*
Y96000D01*
X207500D01*
Y58500D02*
Y96000D01*
X77500Y68500D02*
X100000D01*
X77500D02*
Y106000D01*
X100000D01*
Y68500D02*
Y106000D01*
X65000Y61500D02*
Y138500D01*
X41000Y61500D02*
X65000D01*
X41000D02*
Y138500D01*
X65000D01*
X90000Y155000D02*
X110000D01*
X90000Y145000D02*
X110000D01*
X90000Y47500D02*
X110000D01*
X90000Y37500D02*
X110000D01*
X118000Y166000D02*
X126500D01*
Y149000D02*
Y166000D01*
X118000Y149000D02*
X126500D01*
X118000D02*
Y166000D01*
X168000D02*
X176500D01*
Y149000D02*
Y166000D01*
X168000Y149000D02*
X176500D01*
X168000D02*
Y166000D01*
X118000Y61000D02*
X126500D01*
Y44000D02*
Y61000D01*
X118000Y44000D02*
X126500D01*
X118000D02*
Y61000D01*
X168000D02*
X176500D01*
Y44000D02*
Y61000D01*
X168000Y44000D02*
X176500D01*
X168000D02*
Y61000D01*
X195000Y52500D02*
X200000D01*
X192500Y50000D02*
X195000Y52500D01*
X192500Y45000D02*
Y50000D01*
Y45000D02*
X195000Y42500D01*
X200000D01*
X202500Y45000D01*
Y50000D01*
X200000Y52500D02*
X202500Y50000D01*
X195000Y157500D02*
X200000D01*
X192500Y155000D02*
X195000Y157500D01*
X192500Y150000D02*
Y155000D01*
Y150000D02*
X195000Y147500D01*
X200000D01*
X202500Y150000D01*
Y155000D01*
X200000Y157500D02*
X202500Y155000D01*
X220000Y177500D02*
Y197500D01*
X210000Y177500D02*
Y197500D01*
X220000Y72500D02*
Y92500D01*
X210000Y72500D02*
Y92500D01*
X140000D02*
X145000D01*
X150000D02*
X155000D01*
Y22500D02*
Y92500D01*
X140000Y22500D02*
X155000D01*
X140000D02*
Y92500D01*
Y197500D02*
X145000D01*
X150000D02*
X155000D01*
Y127500D02*
Y197500D01*
X140000Y127500D02*
X155000D01*
X140000D02*
Y197500D01*
M02*
