G04 Layer_Color=128*
%FSLAX25Y25*%
%MOIN*%
G70*
G01*
G75*
%ADD21R,0.04000X0.03000*%
%ADD22R,0.05000X0.04000*%
%ADD23R,0.06000X0.06000*%
%ADD24R,0.04000X0.05000*%
D21*
X102421Y166500D02*
D03*
X92500Y170000D02*
D03*
Y163000D02*
D03*
X102500Y60000D02*
D03*
X92579Y63500D02*
D03*
Y56500D02*
D03*
D22*
X122500Y92500D02*
D03*
Y100300D02*
D03*
X82500Y157500D02*
D03*
Y149700D02*
D03*
Y50000D02*
D03*
Y42200D02*
D03*
X122500Y197200D02*
D03*
Y205000D02*
D03*
Y182500D02*
D03*
Y190300D02*
D03*
Y134700D02*
D03*
Y142500D02*
D03*
X115000Y137800D02*
D03*
Y130000D02*
D03*
X122500Y77200D02*
D03*
Y85000D02*
D03*
Y29700D02*
D03*
Y37500D02*
D03*
X115000Y32500D02*
D03*
Y24700D02*
D03*
X152500Y152500D02*
D03*
Y144700D02*
D03*
Y47800D02*
D03*
Y40000D02*
D03*
X197500Y134700D02*
D03*
Y142500D02*
D03*
Y29700D02*
D03*
Y37500D02*
D03*
D23*
X82500Y205000D02*
D03*
Y190433D02*
D03*
Y179567D02*
D03*
Y165000D02*
D03*
Y72067D02*
D03*
Y57500D02*
D03*
Y97500D02*
D03*
Y82933D02*
D03*
D24*
X177500Y182500D02*
D03*
X169700D02*
D03*
X177800Y192500D02*
D03*
X170000D02*
D03*
X177800Y87500D02*
D03*
X170000D02*
D03*
X177800Y77500D02*
D03*
X170000D02*
D03*
M02*
